<svg width="25" height="25" viewBox="0 0 25 25" fill="none" xmlns="http://www.w3.org/2000/svg">
<path d="M25 13.89V15C25 20.52 20.53 25 15 25H10C4.48 25 0 20.52 0 15V13.89C0 19.41 4.48 23.89 10 23.89H15C20.53 23.89 25 19.41 25 13.89Z" fill="#188FC0"/>
<path d="M25 10V13.89C25 19.41 20.53 23.89 15 23.89H10C4.48 23.89 0 19.41 0 13.89V10C0 4.47 4.48 0 10 0H15C20.53 0 25 4.47 25 10Z" fill="#27B5F4"/>
<path d="M19.6404 3.1184C19.8565 2.76525 20.3183 2.65427 20.6716 2.87035L20.6736 2.87133L20.6823 2.87719C20.687 2.88009 20.6925 2.88373 20.6989 2.88793C20.7122 2.89651 20.7302 2.90801 20.7507 2.92211C20.7917 2.95028 20.8465 2.98991 20.9128 3.04125C21.0457 3.14417 21.2248 3.29524 21.4294 3.50121C21.8392 3.91385 22.351 4.54566 22.8005 5.44457C22.9857 5.81497 22.8358 6.26511 22.4655 6.45043C22.0951 6.63567 21.644 6.48595 21.4587 6.11547C21.0882 5.37453 20.6751 4.87114 20.365 4.55883C20.2097 4.40248 20.0806 4.2932 19.9948 4.2268C19.952 4.19361 19.9195 4.17111 19.9011 4.15844C19.8922 4.15236 19.8868 4.14821 19.8845 4.14672C19.5346 3.92946 19.4251 3.47028 19.6404 3.1184ZM19.8884 4.14965L19.8855 4.1477L19.8845 4.14672C19.8845 4.14672 19.8866 4.14843 19.8884 4.14965Z" fill="white"/>
<path d="M17 10.268C18.3333 11.0378 18.3333 12.9623 17 13.7321L11 17.1962C9.66666 17.966 8 17.0037 8 15.4641V8.5359C8 6.9963 9.66667 6.03405 11 6.80385L17 10.268Z" fill="white"/>
</svg>
