<svg width="25" height="25" viewBox="0 0 25 25" fill="none" xmlns="http://www.w3.org/2000/svg">
<path d="M25 13.89V15C25 20.52 20.53 25 15 25H10C4.48 25 0 20.52 0 15V13.89C0 19.41 4.48 23.89 10 23.89H15C20.53 23.89 25 19.41 25 13.89Z" fill="#C03118"/>
<path d="M25 10V13.89C25 19.41 20.53 23.89 15 23.89H10C4.48 23.89 0 19.41 0 13.89V10C0 4.47 4.48 0 10 0H15C20.53 0 25 4.47 25 10Z" fill="#F44627"/>
<path d="M19.6404 3.1184C19.8565 2.76525 20.3183 2.65427 20.6716 2.87035L20.6736 2.87133L20.6823 2.87719C20.687 2.88009 20.6925 2.88373 20.6989 2.88793C20.7122 2.89651 20.7302 2.90801 20.7507 2.92211C20.7917 2.95028 20.8465 2.98991 20.9128 3.04125C21.0457 3.14417 21.2248 3.29524 21.4294 3.50121C21.8392 3.91385 22.351 4.54566 22.8005 5.44457C22.9857 5.81497 22.8358 6.26511 22.4655 6.45043C22.0951 6.63567 21.644 6.48595 21.4587 6.11547C21.0882 5.37453 20.6751 4.87114 20.365 4.55883C20.2097 4.40248 20.0806 4.2932 19.9948 4.2268C19.952 4.19361 19.9195 4.17111 19.9011 4.15844C19.8922 4.15236 19.8868 4.14821 19.8845 4.14672C19.5346 3.92946 19.4251 3.47028 19.6404 3.1184ZM19.8884 4.14965L19.8855 4.1477L19.8845 4.14672C19.8854 4.14728 19.8866 4.14843 19.8884 4.14965Z" fill="white"/>
<path d="M15 8C15 7.44772 14.5523 7 14 7H11C10.4477 7 10 7.44772 10 8V17C10 17.5523 10.4477 18 11 18H14C14.5523 18 15 17.5523 15 17V8ZM17 17C17 18.6569 15.6569 20 14 20H11C9.34315 20 8 18.6569 8 17V8C8 6.34315 9.34315 5 11 5H14C15.6569 5 17 6.34315 17 8V17Z" fill="white"/>
<path d="M6.57324 6.41211C6.00961 6.52887 5.54423 6.71276 5.19238 6.95801C4.84097 7.20296 4.57152 7.53431 4.48828 7.94141C4.30768 8.82522 5.03419 9.45516 5.80469 9.71582C6.33695 9.89586 6.40064 10.1407 6.40039 10.2354C6.39981 10.3737 6.27915 10.6935 5.71094 11.002C5.00972 11.3826 4.40051 11.9354 4.40039 12.6914C4.40039 13.4435 5.00464 14.0028 5.7041 14.3945C5.99916 14.5598 6.18692 14.713 6.29395 14.835C6.35352 14.9029 6.37882 14.9484 6.38867 14.9727C6.38248 14.9795 6.37445 14.9902 6.36035 15.002C6.28729 15.0631 6.13109 15.1498 5.84766 15.2227C5.45856 15.3227 5.09535 15.4877 4.83496 15.7471C4.55397 16.027 4.40449 16.4125 4.49512 16.8379C4.57746 17.2237 4.83755 17.5482 5.15527 17.8105C5.48079 18.0794 5.92058 18.3288 6.46582 18.5547C6.7719 18.6813 7.12323 18.5355 7.25 18.2295C7.37663 17.9234 7.23087 17.5721 6.9248 17.4453C6.4488 17.2481 6.12452 17.0537 5.91992 16.8848C5.74366 16.7392 5.69196 16.6394 5.67676 16.6016C5.67819 16.6001 5.67994 16.5984 5.68164 16.5967C5.73423 16.5444 5.87123 16.4555 6.14648 16.3848C6.52783 16.2867 6.87056 16.1388 7.12988 15.9219C7.40019 15.6957 7.59467 15.3775 7.59473 14.9883C7.59473 14.6188 7.4192 14.297 7.19629 14.043C6.97094 13.7862 6.65968 13.5546 6.29004 13.3477C5.66003 12.9949 5.59961 12.7435 5.59961 12.6914C5.59978 12.6428 5.65603 12.3971 6.2832 12.0566C7.04428 11.6435 7.59618 10.9996 7.59961 10.2412C7.60299 9.43866 7.00118 8.85371 6.18945 8.5791C5.9273 8.49043 5.78159 8.37758 5.71387 8.2959C5.65336 8.22288 5.66252 8.18917 5.66406 8.18164C5.66827 8.16137 5.69782 8.06803 5.87793 7.94238C6.05853 7.81649 6.35976 7.68267 6.81738 7.58789C7.14167 7.52053 7.35038 7.2023 7.2832 6.87793C7.21587 6.55361 6.89763 6.34493 6.57324 6.41211Z" fill="white"/>
<path d="M18.4268 6.41211C18.9904 6.52887 19.4558 6.71276 19.8076 6.95801C20.159 7.20296 20.4285 7.53431 20.5117 7.94141C20.6923 8.82522 19.9658 9.45516 19.1953 9.71582C18.6631 9.89586 18.5994 10.1407 18.5996 10.2354C18.6002 10.3737 18.7208 10.6935 19.2891 11.002C19.9903 11.3826 20.5995 11.9354 20.5996 12.6914C20.5996 13.4435 19.9954 14.0028 19.2959 14.3945C19.0008 14.5598 18.8131 14.713 18.7061 14.835C18.6465 14.9029 18.6212 14.9484 18.6113 14.9727C18.6175 14.9795 18.6256 14.9902 18.6396 15.002C18.7127 15.0631 18.8689 15.1498 19.1523 15.2227C19.5414 15.3227 19.9047 15.4877 20.165 15.7471C20.446 16.027 20.5955 16.4125 20.5049 16.8379C20.4225 17.2237 20.1625 17.5482 19.8447 17.8105C19.5192 18.0794 19.0794 18.3288 18.5342 18.5547C18.2281 18.6813 17.8768 18.5355 17.75 18.2295C17.6234 17.9234 17.7691 17.5721 18.0752 17.4453C18.5512 17.2481 18.8755 17.0537 19.0801 16.8848C19.2563 16.7392 19.308 16.6394 19.3232 16.6016C19.3218 16.6001 19.3201 16.5984 19.3184 16.5967C19.2658 16.5444 19.1288 16.4555 18.8535 16.3848C18.4722 16.2867 18.1294 16.1388 17.8701 15.9219C17.5998 15.6957 17.4053 15.3775 17.4053 14.9883C17.4053 14.6188 17.5808 14.297 17.8037 14.043C18.0291 13.7862 18.3403 13.5546 18.71 13.3477C19.34 12.9949 19.4004 12.7435 19.4004 12.6914C19.4002 12.6428 19.344 12.3971 18.7168 12.0566C17.9557 11.6435 17.4038 10.9996 17.4004 10.2412C17.397 9.43866 17.9988 8.85371 18.8105 8.5791C19.0727 8.49043 19.2184 8.37758 19.2861 8.2959C19.3466 8.22288 19.3375 8.18917 19.3359 8.18164C19.3317 8.16137 19.3022 8.06803 19.1221 7.94238C18.9415 7.81649 18.6402 7.68267 18.1826 7.58789C17.8583 7.52053 17.6496 7.2023 17.7168 6.87793C17.7841 6.55361 18.1024 6.34493 18.4268 6.41211Z" fill="white"/>
</svg>
