<?xml version="1.0" encoding="UTF-8"?><svg id="Layer_2" xmlns="http://www.w3.org/2000/svg" xmlns:xlink="http://www.w3.org/1999/xlink" viewBox="0 0 520.55 203.48"><defs><linearGradient id="linear-gradient" x1="259.97" y1="6.87" x2="259.97" y2="184.1" gradientUnits="userSpaceOnUse"><stop offset="0" stop-color="#f7faf4"/><stop offset="1" stop-color="#c1cbc1"/></linearGradient><linearGradient id="linear-gradient-2" x1="261.51" y1="22.63" x2="261.51" y2="156.38" xlink:href="#linear-gradient"/><linearGradient id="linear-gradient-3" x1="261.51" y1="22.63" x2="261.51" y2="156.38" xlink:href="#linear-gradient"/></defs><g id="Layer_1-2"><rect x="0" y="0" width="520.55" height="203.48" rx="101.74" ry="101.74" fill="#4d5d53"/><rect x="6.22" y="6.87" width="509.71" height="189.74" rx="94.87" ry="94.87" fill="#6a796b"/><rect x="7.38" y="6.87" width="505.19" height="177.23" rx="88.61" ry="88.61" fill="url(#linear-gradient)"/><path d="M500.7,95.15c0,20.02-8.12,38.15-21.24,51.28-13.12,13.12-31.25,21.24-51.28,21.24H94.84c-40.05,0-72.52-32.47-72.52-72.52,0-1.9.07-3.78.22-5.64,2.88,37.41,34.15,66.87,72.3,66.87h333.34c20.03,0,38.16-8.12,51.28-21.24,11.88-11.88,19.65-27.86,21.02-45.63.15,1.86.22,3.74.22,5.64Z" fill="#bbc7ba"/><path d="M500.48,89.51c-1.37,17.78-9.14,33.75-21.02,45.63-13.12,13.12-31.25,21.24-51.28,21.24H94.84c-38.15,0-69.42-29.46-72.3-66.87,1.37-17.78,9.14-33.75,21.02-45.63,13.12-13.12,31.25-21.24,51.28-21.24h333.34c38.15,0,69.42,29.46,72.3,66.87Z" fill="url(#linear-gradient-2)"/><path d="M500.48,89.51c-1.37,17.78-9.14,33.75-21.02,45.63-13.12,13.12-31.25,21.24-51.28,21.24H94.84c-38.15,0-69.42-29.46-72.3-66.87,1.37-17.78,9.14-33.75,21.02-45.63,13.12-13.12,31.25-21.24,51.28-21.24h333.34c38.15,0,69.42,29.46,72.3,66.87Z" fill="url(#linear-gradient-3)"/><rect x="21.29" y="23.3" width="477.97" height="144.37" rx="72.18" ry="72.18" fill="none" stroke="#3a413a" stroke-miterlimit="10" stroke-width="5"/></g></svg>