<?xml version="1.0" encoding="UTF-8"?><svg id="Layer_2" xmlns="http://www.w3.org/2000/svg" xmlns:xlink="http://www.w3.org/1999/xlink" viewBox="0 0 435.89 243.24"><defs><linearGradient id="linear-gradient" x1="216.91" y1="10.59" x2="216.91" y2="222.68" gradientUnits="userSpaceOnUse"><stop offset="0" stop-color="#f7faf4"/><stop offset="1" stop-color="#c1cbc1"/></linearGradient><linearGradient id="linear-gradient-2" x1="216.91" y1="87.87" x2="216.91" y2="200.87" xlink:href="#linear-gradient"/></defs><g id="Layer_1-2"><path d="M435.89,146.05v16.83c0,44.38-35.98,80.36-80.37,80.36H80.37C35.98,243.24,0,207.26,0,162.88v-16.83c0-44.38,35.98-80.37,80.37-80.37h5.81v-22.72C86.18,19.24,105.42,0,129.14,0h175.37c23.72,0,42.95,19.24,42.95,42.96v22.72h8.06c44.39,0,80.37,35.99,80.37,80.37Z" fill="#4d5d53"/><rect x="4.1" y="73.28" width="425.73" height="160.06" rx="74.76" ry="74.76" fill="#6a796b"/><path d="M429.57,148.88c0,21.09-8.55,40.18-22.37,54.01-13.82,13.82-32.91,22.37-54,22.37H80.74c-42.19,0-76.38-34.2-76.38-76.38,0-21.09,8.55-40.18,22.37-54,13.82-13.82,32.92-22.37,54.01-22.37h9.44v-25.75c0-21.97,17.81-39.78,39.78-39.78h171.4c21.97,0,39.78,17.81,39.78,39.78v25.75h12.06c42.18,0,76.37,34.19,76.37,76.37Z" fill="#dde8dd"/><path d="M426.62,148.46c0,20.49-8.43,39.04-22.06,52.48-13.63,13.43-32.46,21.74-53.26,21.74H82.55c-41.61,0-75.34-33.23-75.34-74.21,0-20.49,8.43-39.04,22.06-52.47,13.63-13.43,32.47-21.74,53.27-21.74h9.31v-25.02c0-21.35,17.57-38.65,39.24-38.65h169.06c21.67,0,39.24,17.3,39.24,38.65v25.02h11.9c41.6,0,75.33,33.22,75.33,74.2Z" fill="url(#linear-gradient)"/><path d="M416.5,149.14c0,16.92-6.77,32.23-17.72,43.32-10.95,11.09-26.07,17.94-42.79,17.94H77.84c-33.42,0-60.51-27.43-60.51-61.27,0-1.6.06-3.2.18-4.77,2.4,31.61,28.5,56.5,60.33,56.5h278.15c16.71,0,31.84-6.86,42.79-17.94,9.91-10.04,16.4-23.54,17.54-38.55.12,1.57.18,3.16.18,4.77Z" fill="#bbc7ba"/><path d="M416.32,144.37c-1.14,15.02-7.63,28.52-17.54,38.55-10.95,11.09-26.07,17.94-42.79,17.94H77.84c-31.83,0-57.92-24.89-60.33-56.5,1.14-15.02,7.63-28.52,17.54-38.55,10.95-11.09,26.08-17.94,42.79-17.94h278.15c31.84,0,57.92,24.89,60.33,56.5Z" fill="url(#linear-gradient-2)"/><rect x="17.33" y="87.7" width="399.17" height="122.88" rx="60.98" ry="60.98" fill="none" stroke="#3a413a" stroke-miterlimit="10" stroke-width="3"/></g></svg>