<?xml version="1.0" encoding="UTF-8"?><svg id="Layer_2" xmlns="http://www.w3.org/2000/svg" viewBox="0 0 72.37 49.62"><g id="Layer_1-2"><path d="M71.22,17.49c-9.28,9.86-18.56,19.71-27.84,29.57-.83.65-3.34,2.44-7.03,2.56-4.13.13-6.98-1.95-7.76-2.56C19.9,38.27,11.2,29.48,2.49,20.68,1.76,19.58-.27,16.2.03,11.56c.23-3.53,1.69-6.06,2.46-7.21C3.09,3.61,5.36.99,9.34.24c4.56-.86,8,1.37,8.67,1.83,5.2,5.14,10.41,10.28,15.61,15.43.08.09.99,1.21,2.47,1.09,1.2-.1,1.89-.95,2.01-1.09,5.38-5.14,10.77-10.28,16.15-15.43.75-.5,4.41-2.8,9.13-1.83,3.25.67,5.31,2.56,6.12,3.38.79,1.01,1.98,2.83,2.56,5.38.9,4.01-.3,7.27-.82,8.49Z" fill="#1d254d"/></g></svg>