<?xml version="1.0" encoding="UTF-8"?><svg id="Layer_2" xmlns="http://www.w3.org/2000/svg" xmlns:xlink="http://www.w3.org/1999/xlink" viewBox="0 0 361.58 122.97"><defs><linearGradient id="linear-gradient" x1="180.79" y1="0" x2="180.79" y2="113.78" gradientUnits="userSpaceOnUse"><stop offset="0" stop-color="#ffea91"/><stop offset=".33" stop-color="#fee68e"/><stop offset=".6" stop-color="#fddc84"/><stop offset=".84" stop-color="#fbcc75"/><stop offset="1" stop-color="#fabc67"/></linearGradient><linearGradient id="linear-gradient-2" x1="181.31" y1="10.51" x2="181.31" y2="102.55" gradientUnits="userSpaceOnUse"><stop offset="0" stop-color="#fcd45a"/><stop offset=".31" stop-color="#fcd156"/><stop offset=".57" stop-color="#fcc84c"/><stop offset=".8" stop-color="#fdba3c"/><stop offset="1" stop-color="#fea726"/></linearGradient><linearGradient id="linear-gradient-3" x1="267.95" y1="18.65" x2="267.95" y2="88.73" gradientUnits="userSpaceOnUse"><stop offset="0" stop-color="#f9ecb8"/><stop offset=".23" stop-color="#f9eab4"/><stop offset=".41" stop-color="#f9e7aa"/><stop offset=".58" stop-color="#f9e099"/><stop offset=".74" stop-color="#f9d782"/><stop offset=".89" stop-color="#f9cc63"/><stop offset="1" stop-color="#fac249"/></linearGradient></defs><g id="Layer_1-2"><rect y="0" width="361.58" height="122.97" rx="43.32" ry="43.32" fill="#bb8339"/><rect y="0" width="361.58" height="113.78" rx="42.3" ry="42.3" fill="url(#linear-gradient)"/><rect x="13.33" y="10.51" width="335.96" height="92.04" rx="32.43" ry="32.43" fill="url(#linear-gradient-2)" stroke="#cf8216" stroke-miterlimit="10" stroke-width="3"/><circle cx="68.46" cy="56.3" r="30.21" fill="#fce37d" isolation="isolate" opacity=".99" stroke="#fce37d"/><path d="M71.81,27.11l.74.15-.74.15v-.3Z" fill="#dc9e3c" isolation="isolate" opacity=".98" stroke="#dc9e3c"/><path d="M66.75,33.66l3.72.15-3.72.15v-.3Z" fill="#dc9e3c" isolation="isolate" opacity=".98" stroke="#dc9e3c"/><path d="M72.11,33.96l.74.15-.74.15v-.3Z" fill="#dc9e3c" isolation="isolate" opacity=".98" stroke="#dc9e3c"/><path d="M48.58,34.85l-1.49,1.79,1.49-1.79Z" fill="#dc9e3c" isolation="isolate" opacity=".98" stroke="#dc9e3c"/><path d="M65.86,35.75l1.64.15-1.64.15v-.3Z" fill="#dc9e3c" isolation="isolate" opacity=".98" stroke="#dc9e3c"/><path d="M70.03,35.75l1.64.15-1.64.15v-.3Z" fill="#dc9e3c" isolation="isolate" opacity=".98" stroke="#dc9e3c"/><path d="M64.07,36.04l.74.15-.74.15v-.3Z" fill="#dc9e3c" isolation="isolate" opacity=".98" stroke="#dc9e3c"/><path d="M45.9,37.83l-.3.6.3-.6Z" fill="#dc9e3c" isolation="isolate" opacity=".98" stroke="#dc9e3c"/><path d="M82.24,38.43l.3.6-.3-.6Z" fill="#dc9e3c" isolation="isolate" opacity=".98" stroke="#dc9e3c"/><path d="M54.54,38.72l-.3.6.3-.6Z" fill="#dc9e3c" isolation="isolate" opacity=".98" stroke="#dc9e3c"/><path d="M57.22,38.72l-.3.6.3-.6Z" fill="#dc9e3c" isolation="isolate" opacity=".98" stroke="#dc9e3c"/><path d="M81.64,39.92l.3.6-.3-.6Z" fill="#dc9e3c" isolation="isolate" opacity=".98" stroke="#dc9e3c"/><path d="M55.14,40.21l-.3.6.3-.6Z" fill="#dc9e3c" isolation="isolate" opacity=".98" stroke="#dc9e3c"/><path d="M52.45,40.81l-.6.89.6-.89Z" fill="#dc9e3c" isolation="isolate" opacity=".98" stroke="#dc9e3c"/><path d="M82.83,40.81l2.08,2.38-2.08-2.38Z" fill="#dc9e3c" isolation="isolate" opacity=".98" stroke="#dc9e3c"/><path d="M85.21,41.41l.3.6-.3-.6Z" fill="#dc9e3c" isolation="isolate" opacity=".98" stroke="#dc9e3c"/><path d="M53.35,41.7l-.3.6.3-.6Z" fill="#dc9e3c" isolation="isolate" opacity=".98" stroke="#dc9e3c"/><path d="M51.86,43.49l-.6.89.6-.89Z" fill="#dc9e3c" isolation="isolate" opacity=".98" stroke="#dc9e3c"/><path d="M86.7,43.49l.3.6-.3-.6Z" fill="#dc9e3c" isolation="isolate" opacity=".98" stroke="#dc9e3c"/><path d="M85.81,44.09l.3.6-.3-.6Z" fill="#dc9e3c" isolation="isolate" opacity=".98" stroke="#dc9e3c"/><path d="M50.97,44.68l-.3.6.3-.6Z" fill="#dc9e3c" isolation="isolate" opacity=".98" stroke="#dc9e3c"/><path d="M86.41,44.98l.3.6-.3-.6Z" fill="#dc9e3c" isolation="isolate" opacity=".98" stroke="#dc9e3c"/><path d="M50.37,45.57l-.3.6.3-.6Z" fill="#dc9e3c" isolation="isolate" opacity=".98" stroke="#dc9e3c"/><path d="M87.3,46.47l1.04,1.94h-.3l-.74-1.94Z" fill="#dc9e3c" isolation="isolate" opacity=".98" stroke="#dc9e3c"/><path d="M61.69,46.77l.74.15-.74.15v-.3Z" fill="#dc9e3c" isolation="isolate" opacity=".98" stroke="#dc9e3c"/><path d="M82.24,47.66l.74.15-.74.15v-.3Z" fill="#dc9e3c" isolation="isolate" opacity=".98" stroke="#dc9e3c"/><path d="M85.81,50.04l.15,1.34h-.3l.15-1.34Z" fill="#dc9e3c" isolation="isolate" opacity=".98" stroke="#dc9e3c"/><path d="M52.45,50.64l.15,1.04h-.3l.15-1.04Z" fill="#dc9e3c" isolation="isolate" opacity=".98" stroke="#dc9e3c"/><path d="M89.98,52.42l.15,2.53h-.3l-.3-1.79.45-.74Z" fill="#dc9e3c" isolation="isolate" opacity=".98" stroke="#dc9e3c"/><path d="M47.09,52.72l.45,1.64-.45.74v-2.38Z" fill="#dc9e3c" isolation="isolate" opacity=".98" stroke="#dc9e3c"/><path d="M53.35,53.32l3.57,3.87-3.57-3.87Z" fill="#dc9e3c" isolation="isolate" opacity=".98" stroke="#dc9e3c"/><path d="M84.92,53.32l-1.49,1.79,1.49-1.79Z" fill="#dc9e3c" isolation="isolate" opacity=".98" stroke="#dc9e3c"/><path d="M97.43,54.81l.15,1.94h-.3l.15-1.94Z" fill="#dc9e3c" isolation="isolate" opacity=".98" stroke="#dc9e3c"/><path d="M39.65,55.1l.15.74h-.3l.15-.74Z" fill="#dc9e3c" isolation="isolate" opacity=".98" stroke="#dc9e3c"/><path d="M39.95,58.98l.15.74h-.3l.15-.74Z" fill="#dc9e3c" isolation="isolate" opacity=".98" stroke="#dc9e3c"/><path d="M58.71,60.17l.15.74h-.3l.15-.74Z" fill="#dc9e3c" isolation="isolate" opacity=".98" stroke="#dc9e3c"/><path d="M40.24,60.76l.15.74h-.3l.15-.74Z" fill="#dc9e3c" isolation="isolate" opacity=".98" stroke="#dc9e3c"/><path d="M40.54,61.95l.15.45-.3.6h.6l-.3.89h.6l-.45,1.04-.74-2.53.45-.45Z" fill="#dc9e3c" isolation="isolate" opacity=".98" stroke="#dc9e3c"/><path d="M58.11,63.74l.15.74h-.3l.15-.74Z" fill="#dc9e3c" isolation="isolate" opacity=".98" stroke="#dc9e3c"/><path d="M95.94,64.04l.45.74h-.3l-.15-.74Z" fill="#dc9e3c" isolation="isolate" opacity=".98" stroke="#dc9e3c"/><path d="M95.64,64.93l.45.74-1.34,3.42-.15-.45.3-.6-.45-.74.74.45.3-1.79-.15-.45.45.15-.15-.74Z" fill="#dc9e3c" isolation="isolate" opacity=".98" stroke="#dc9e3c"/><path d="M41.14,65.83l1.19,1.79.45-.15-.6,1.19.89.15.6,1.34-.6.3.74,1.34.3-.89,1.94,1.34-.89-.3.3.6-.6-.3-.15-.45-.74.15.74,1.34,1.04.3c-.22.54-.07.73.45.6l.74-.45-.45-.74,2.23,2.23c-.44.26-.39.51.15.74.46-.14.61,0,.45.45h-.6l.45,1.04,1.04-.74-.45-.74c.83.36.98.7.45,1.04-.14.46,0,.61.45.45l.6.3v-.6l.6,1.19.45-.15-.15-.45.6,1.19.45-.15-.15-.45.3.89.6-.3.3.89.45.15-.6.3.6.15.3,1.34-.15.45h.45v-1.64l.45-.15c.16.56.66.75,1.49.6l.6-.3v.3l-.45.15,1.49.89-1.04.74-.45-.15-.3.89,2.53.74v-.3l-.45-.15,1.04-.15.3.6-.45.15,1.79.74-.3-.74h.6c-.36-1.21.19-1.56,1.64-1.04l1.19-.3.89.6h5.66l5.36-1.49.74.3c-.22-.54-.07-.73.45-.6l.15.74c.16.52-.09.67-.74.45v.3l.74.45-.15.45h.45v-.6c.54.22.73.07.6-.45l-.15-.45.74.45-.15.45,1.04-.45-1.49-.74c-.24-.6,0-.79.74-.6v-.6l.45.15c-.14-.44,0-.59.45-.45.16-.54.66-.73,1.49-.6l.74.45.45-.74.6.3.6-.3.74.45-.45-1.04-.6.3v-.3l.45-.15-.6-.3.74-1.34v.6l1.49-.89.74.45-.15.45,1.64-.74-.74-.15-.45.15c.16-.44,0-.59-.45-.45-.6-.3-.6-.6,0-.89l.45.89h1.19v-.45l-.45.15c-.52.14-.67-.06-.45-.6h1.19v-.45l-.45-.45-.74.45,3.28-2.98-2.38,2.38.45.45.3-.6c.26.46.51.41.74-.15l.45-.74.45.15-.3.6.89-.6-.3-.6.89-.3-.15-.45.45-.15-.15-.45.45.15.3-.6-.45-.45-1.34.45.74-.74h.6l.6.3.15-.45-.3-.6,1.04-1.34.45.74c-1.73,3.73-4.06,6.86-7,9.38-3.14,2.82-7.01,4.9-11.61,6.25l-4.47.89h-5.66l-5.06-.89-5.96-2.38c-3.41-1.93-6.34-4.36-8.79-7.3-2.46-2.76-4.1-6.09-4.91-9.98ZM48.14,74.76c-.4.6-.3.79.3.6l-.3-.6ZM47.84,75.95l-.6.89,1.19-.3-.6-.6ZM49.92,77.14c-.4.6-.69.69-.89.3l-.6.3c.2.4.69.5,1.49.3.6-.2.6-.5,0-.89ZM86.26,78.63l-.6.6c-.2.4,0,.5.6.3s.6-.5,0-.89ZM53.2,79.53v.3h.6l-.6-.3ZM83.87,80.72l-.6.6c-.2.4,0,.5.6.3s.6-.5,0-.89ZM54.09,81.01v.6l.6.3c.2-.79,0-1.09-.6-.89ZM81.19,81.01c0,.79-.3,1.09-.89.89v.89l.89.3-.3-.3h.6c.4.2.5,0,.3-.6h.89l-.3-1.19c-.6-.2-.79.1-.6.89h-.6v-.89ZM55.28,82.21v.6l.89.3v-.3l-.89-.6ZM64.22,84.59l.3.89.3-.6-.6-.3ZM71.07,84.59v.3h1.19l-1.19-.3ZM75.54,84.59l-.6.3v.3l.89-.3-.3-.3ZM62.73,84.89l.3.6h.6l-.89-.6ZM73.45,85.18v.3h.89l-.89-.3ZM71.07,85.48v.3h1.49l-1.49-.3Z" fill="#dc9e3c" isolation="isolate" opacity=".98" stroke="#dc9e3c"/><path d="M80.45,66.12l.15,2.23h-.3l.15-2.23Z" fill="#dc9e3c" isolation="isolate" opacity=".98" stroke="#dc9e3c"/><path d="M57.82,67.61l.15,1.04h-.3l.15-1.04Z" fill="#dc9e3c" isolation="isolate" opacity=".98" stroke="#dc9e3c"/><path d="M93.85,68.51l-.3.6.3-.6Z" fill="#dc9e3c" isolation="isolate" opacity=".98" stroke="#dc9e3c"/><path d="M44.41,70.29l.3.6-.3-.6Z" fill="#dc9e3c" isolation="isolate" opacity=".98" stroke="#dc9e3c"/><path d="M92.66,70.29l-.3.6.3-.6Z" fill="#dc9e3c" isolation="isolate" opacity=".98" stroke="#dc9e3c"/><path d="M57.52,72.08l.3.6-.3-.6Z" fill="#dc9e3c" isolation="isolate" opacity=".98" stroke="#dc9e3c"/><path d="M85.81,77.14l-.3.6.3-.6Z" fill="#dc9e3c" isolation="isolate" opacity=".98" stroke="#dc9e3c"/><path d="M84.02,78.33l-.3.6.3-.6Z" fill="#dc9e3c" isolation="isolate" opacity=".98" stroke="#dc9e3c"/><path d="M59.16,81.91l.89.45-.89.15v-.6Z" fill="#dc9e3c" isolation="isolate" opacity=".98" stroke="#dc9e3c"/><path d="M75.39,81.91l.74.15-.74.15v-.3Z" fill="#dc9e3c" isolation="isolate" opacity=".98" stroke="#dc9e3c"/><path d="M62.58,82.21l.74.15-.74.15v-.3Z" fill="#dc9e3c" isolation="isolate" opacity=".98" stroke="#dc9e3c"/><path d="M74.2,82.21l.74.15-.74.15v-.3Z" fill="#dc9e3c" isolation="isolate" opacity=".98" stroke="#dc9e3c"/><path d="M60.94,82.5l2.08.45-2.08.15v-.6Z" fill="#dc9e3c" isolation="isolate" opacity=".98" stroke="#dc9e3c"/><path d="M64.07,82.5l1.34.15-1.34.15v-.3Z" fill="#dc9e3c" isolation="isolate" opacity=".98" stroke="#dc9e3c"/><path d="M72.11,82.5l1.04.15-1.04.15v-.3Z" fill="#dc9e3c" isolation="isolate" opacity=".98" stroke="#dc9e3c"/><path d="M66.45,82.8l4.62.15-4.62.15v-.3Z" fill="#dc9e3c" isolation="isolate" opacity=".98" stroke="#dc9e3c"/><path d="M58.11,83.1c.46-.14.61,0,.45.45l-.45-.45Z" fill="#dc9e3c" isolation="isolate" opacity=".98" stroke="#dc9e3c"/><path d="M67.64,28.9h3.28l5.21.89.3.74-2.53,3.42c-.93.26-1.53.16-1.79-.3h-6.85c-5.92,1.13-10.43,3.66-13.55,7.59l-3.57,5.96c-1.03,2.34-1.53,5.22-1.49,8.64l.6,1.19v3.87l.6,1.19v.6l1.79,4.17,3.57,4.62,4.17,3.13-.3.6.45.45c.3-.69.6-.79.89-.3l5.66,1.79c.93-.26,1.53-.16,1.79.3h5.06l.3-.3,3.57-.3.6-.6,2.38-.6,5.21-3.28.45-.89,1.64-1.34,2.68-3.57,2.08-5.36v-3.57c.62-1.07.81-2.56.6-4.47l-1.19-5.36-2.08-4.17-4.62-5.21-3.72-2.53,2.38-3.72h1.34l1.19,1.19,2.83,1.19.45.89,1.04.3.74,1.19,2.53,2.23,1.49,2.08.3,1.34.89.45c-.5.3-.4.6.3.89,1.13,1.75,1.93,3.83,2.38,6.25v.6l.3.89v.6l.3,5.36-1.49,6.55-1.79,3.87c-1.87,3.2-4.2,5.93-7,8.19-2.66,2.2-5.84,3.89-9.53,5.06l-5.66,1.19h-6.55l-.3-.3-3.28-.3-3.87-1.19-4.32-2.08.3-.74c-1.19.1-2.04-.15-2.53-.74l-5.21-4.91-3.28-5.96-1.19-3.87-.6-6.55.3-.3v-2.98l.6-1.49.3-2.68,1.79-3.57v-1.04c.54.22.73.07.6-.45l2.68-4.32,2.08-1.64.45-.74.74-.45.45-.74,4.47-2.98,3.87-1.49.6-.6,7.74-1.49Z" fill="#fbd14e" stroke="#fbd14e"/><path d="M84.02,50.94l.15.45-.6.3.45-.74Z" fill="#fbd14e" stroke="#fbd14e"/><path d="M81.05,54.21l-.6.89.6-.89Z" fill="#fbd14e" stroke="#fbd14e"/><path d="M79.56,55.7l-1.64,1.94-.3.6.6,2.08-.6.15v-1.94l-.3-.3.6-1.34,1.64-1.19Z" fill="#fbd14e" stroke="#fbd14e"/><path d="M60.79,57.78l.15.74-.15.45.45.15-.6.15-.45,2.38-.15-1.34.74-2.53Z" fill="#fbd14e" stroke="#fbd14e"/><path d="M78.07,60.76l.15,1.04h-.3l.15-1.04Z" fill="#fbd14e" stroke="#fbd14e"/><path d="M59.9,61.95l.15,1.64-.6.3.45-1.94Z" fill="#fbd14e" stroke="#fbd14e"/><path d="M78.36,62.25l.15,1.34h-.3l.15-1.34Z" fill="#fbd14e" stroke="#fbd14e"/><path d="M78.66,64.04l.15,1.04h-.3l.15-1.04Z" fill="#fbd14e" stroke="#fbd14e"/><path d="M59.6,64.34l.15.74-.45,2.23-.15-1.94.45-1.04Z" fill="#fbd14e" stroke="#fbd14e"/><path d="M65.56,65.23l-.3.6-.6.3.3-.6.6-.3Z" fill="#fbd14e" stroke="#fbd14e"/><path d="M78.96,66.42l.15,1.04c-.32.6-1.01.74-2.08.45l.15-.6,1.64.3.15-1.19Z" fill="#fbd14e" stroke="#fbd14e"/><path d="M61.09,67.32l.74.15-1.04.45.3-.6Z" fill="#fbd14e" stroke="#fbd14e"/><path d="M82.53,27.71l2.83,1.64-.45.15-2.08-1.19-.3-.6Z" fill="#9d440a" isolation="isolate" opacity=".04" stroke="#9d440a"/><path d="M52.16,28.9l.45.15-4.32,3.13.89-1.19,2.98-2.08Z" fill="#9d440a" isolation="isolate" opacity=".04" stroke="#9d440a"/><path d="M95.04,39.32l1.94,2.83-.6.15-1.34-2.98Z" fill="#9d440a" isolation="isolate" opacity=".04" stroke="#9d440a"/><path d="M39.2,43.79l.6.15-1.04,2.53-.15-.74.6-1.94Z" fill="#9d440a" isolation="isolate" opacity=".04" stroke="#9d440a"/><path d="M37.27,56.3l.15,1.94c-.3.6-.6.6-.89,0l.74-1.94Z" fill="#9d440a" isolation="isolate" opacity=".04" stroke="#9d440a"/><path d="M96.38,70.89l.6.15-1.34,2.23-.15-.45c.71-.38,1.01-1.02.89-1.94Z" fill="#9d440a" isolation="isolate" opacity=".04" stroke="#9d440a"/><path d="M42.03,74.46l1.34,1.94-.89-.6-.45-1.34Z" fill="#9d440a" isolation="isolate" opacity=".04" stroke="#9d440a"/><path d="M94.74,74.46l-.3.6.3-.6Z" fill="#9d440a" isolation="isolate" opacity=".04" stroke="#9d440a"/><path d="M94.15,75.36l-.3.6.3-.6Z" fill="#9d440a" isolation="isolate" opacity=".04" stroke="#9d440a"/><path d="M93.55,76.25l-.6.89.6-.89Z" fill="#9d440a" isolation="isolate" opacity=".04" stroke="#9d440a"/><path d="M44.12,77.14l.6.89-.6-.89Z" fill="#9d440a" isolation="isolate" opacity=".04" stroke="#9d440a"/><path d="M92.36,77.74l-2.98,3.28,2.98-3.28Z" fill="#9d440a" isolation="isolate" opacity=".04" stroke="#9d440a"/><path d="M45.6,78.93l.3.6-.3-.6Z" fill="#9d440a" isolation="isolate" opacity=".04" stroke="#9d440a"/><path d="M48.29,81.31l.6.89-.6-.89Z" fill="#9d440a" isolation="isolate" opacity=".04" stroke="#9d440a"/><path d="M88.19,81.61l-.6.89.6-.89Z" fill="#9d440a" isolation="isolate" opacity=".04" stroke="#9d440a"/><path d="M49.48,82.21l.6.89-.6-.89Z" fill="#9d440a" isolation="isolate" opacity=".04" stroke="#9d440a"/><path d="M87,82.5l-.6.89.6-.89Z" fill="#9d440a" isolation="isolate" opacity=".04" stroke="#9d440a"/><path d="M50.67,83.1l.3.6-.3-.6Z" fill="#9d440a" isolation="isolate" opacity=".04" stroke="#9d440a"/><path d="M85.81,83.4l-.3.6.3-.6Z" fill="#9d440a" isolation="isolate" opacity=".04" stroke="#9d440a"/><path d="M51.56,83.7l.3.6-.3-.6Z" fill="#9d440a" isolation="isolate" opacity=".04" stroke="#9d440a"/><path d="M84.92,83.99l-.3.6-.6.3.3-.6.6-.3Z" fill="#9d440a" isolation="isolate" opacity=".04" stroke="#9d440a"/><path d="M52.45,84.29l1.04.74-.45-.15-.6-.6Z" fill="#9d440a" isolation="isolate" opacity=".04" stroke="#9d440a"/><path d="M83.43,84.89l-.3.6-.89.3v-.3l1.19-.6Z" fill="#9d440a" isolation="isolate" opacity=".04" stroke="#9d440a"/><path d="M55.73,86.08l2.53,1.04-.45.15-2.08-.89v-.3Z" fill="#9d440a" isolation="isolate" opacity=".04" stroke="#9d440a"/><path d="M80.15,86.38l.45.15-1.04.45v-.3l.6-.3Z" fill="#9d440a" isolation="isolate" opacity=".04" stroke="#9d440a"/><path d="M77.77,87.27l.45.15-4.02,1.04v-.3l3.57-.89Z" fill="#9d440a" isolation="isolate" opacity=".04" stroke="#9d440a"/><path d="M59.6,87.57l1.94.45-1.04.15-.89-.3v-.3Z" fill="#9d440a" isolation="isolate" opacity=".04" stroke="#9d440a"/><path d="M61.98,88.16l1.04.15-1.04.15v-.3Z" fill="#9d440a" isolation="isolate" opacity=".04" stroke="#9d440a"/><path d="M63.47,88.46l1.34.15-1.34.15v-.3Z" fill="#9d440a" isolation="isolate" opacity=".04" stroke="#9d440a"/><path d="M72.11,88.46l1.64.15-1.64.15v-.3Z" fill="#9d440a" isolation="isolate" opacity=".04" stroke="#9d440a"/><path d="M66.45,28.6l6.11.15-6.11.15v-.3Z" fill="#fce37d" isolation="isolate" opacity=".99" stroke="#fce37d"/><path d="M64.07,28.9l1.34.15-1.34.15v-.3Z" fill="#fce37d" isolation="isolate" opacity=".99" stroke="#fce37d"/><path d="M73.6,28.9l1.04.15-1.04.15v-.3Z" fill="#fce37d" isolation="isolate" opacity=".99" stroke="#fce37d"/><path d="M62.28,29.19l1.34.15-4.62,1.34v-.3l3.28-1.19Z" fill="#fce37d" isolation="isolate" opacity=".99" stroke="#fce37d"/><path d="M75.09,29.19l4.47,1.19,1.79,1.19.45-.15-3.42,4.32-.89-.6h-.6l-2.83-1.04,2.38-2.98.3-1.34-1.64-.3v-.3Z" fill="#fce37d" isolation="isolate" opacity=".99" stroke="#fce37d"/><path d="M58.11,30.68l.45.15-1.64.74v-.3l1.19-.6Z" fill="#fce37d" isolation="isolate" opacity=".99" stroke="#fce37d"/><path d="M56.03,31.58l.45.15-4.32,2.83.6-.89,3.28-2.08Z" fill="#fce37d" isolation="isolate" opacity=".99" stroke="#fce37d"/><path d="M82.24,31.58l1.34.74-.45-.15c-.75-.06-1.05-.26-.89-.6Z" fill="#fce37d" isolation="isolate" opacity=".99" stroke="#fce37d"/><path d="M84.02,32.47l.3.6-.3-.6Z" fill="#fce37d" isolation="isolate" opacity=".99" stroke="#fce37d"/><path d="M84.92,33.07l2.53,1.94-1.34-1.04c-.79-.1-1.19-.4-1.19-.89Z" fill="#fce37d" isolation="isolate" opacity=".99" stroke="#fce37d"/><path d="M87.6,34.26l.3.6-.3-.6Z" fill="#fce37d" isolation="isolate" opacity=".99" stroke="#fce37d"/><path d="M51.56,34.56l-.6.89-3.72,3.42-2.68,3.57-1.04,2.23-.15-.45c1.79-3.67,4.22-6.7,7.3-9.08l.89-.6Z" fill="#fce37d" isolation="isolate" opacity=".99" stroke="#fce37d"/><path d="M88.19,35.45l1.19,1.19c.26-.44.51-.39.74.15l-.3.3,1.04,1.04.45.15-.45.15-2.68-2.98Z" fill="#fce37d" isolation="isolate" opacity=".99" stroke="#fce37d"/><path d="M91.47,39.02l.6.89-.6-.89Z" fill="#fce37d" isolation="isolate" opacity=".99" stroke="#fce37d"/><path d="M92.36,40.21l.3.6-.3-.6Z" fill="#fce37d" isolation="isolate" opacity=".99" stroke="#fce37d"/><path d="M68.69,40.81c.75-.3,1.05-.15.89.45l2.98,6.25,1.34,1.64c1.15-.14,2,0,2.53.45l-4.62,3.42c-3.38,1.99-7.15,3.57-11.32,4.77l-1.79-2.08-1.04-.74c.16-.44,0-.59-.45-.45l-3.13-3.13v-.74h2.83l1.19-.6h2.38l4.32-.89,3.87-8.34Z" fill="#fce37d" isolation="isolate" opacity=".99" stroke="#fce37d"/><path d="M93.26,41.11l.45.74-.6-.3.15-.45Z" fill="#fce37d" isolation="isolate" opacity=".99" stroke="#fce37d"/><path d="M42.92,45.57l.15.45-.89,1.49-.45,1.94-.15-1.64,1.34-2.23Z" fill="#fce37d" isolation="isolate" opacity=".99" stroke="#fce37d"/><path d="M78.96,48.55l.74.15-.15.45,1.49.3v-.6c.52-.14.67.06.45.6h1.04l.74-.3c-.22.54-.07.73.45.6l.74.45-1.34.15-.3-.3-6.11-.74,2.23-.74Z" fill="#fce37d" isolation="isolate" opacity=".99" stroke="#fce37d"/><path d="M41.44,49.74l.15,1.04h-.3l.15-1.04Z" fill="#fce37d" isolation="isolate" opacity=".99" stroke="#fce37d"/><path d="M41.14,51.23l.15,1.04h-.3l.15-1.04Z" fill="#fce37d" isolation="isolate" opacity=".99" stroke="#fce37d"/><path d="M40.84,52.72l.15,2.83h-.3l.15-2.83Z" fill="#fce37d" isolation="isolate" opacity=".99" stroke="#fce37d"/><path d="M39.95,56.59l.15.74h-.3l.15-.74Z" fill="#fce37d" isolation="isolate" opacity=".99" stroke="#fce37d"/><path d="M40.84,57.78l.15,3.13.6,2.38-.6-.3-.3-1.19.3-.74c-.54.22-.73.07-.6-.45l.3-.3.15-2.53Z" fill="#fce37d" isolation="isolate" opacity=".99" stroke="#fce37d"/><path d="M40.24,58.98l.15.74h-.3l.15-.74Z" fill="#fce37d" isolation="isolate" opacity=".99" stroke="#fce37d"/><path d="M48.29,62.25l1.94,3.42v.6l.15.45.45-.15c-.3.6-.6.6-.89,0l-.3-.6.15-.45c-.44.16-.59,0-.45-.45-.75-.77-1.1-1.72-1.04-2.83Z" fill="#fce37d" isolation="isolate" opacity=".99" stroke="#fce37d"/><path d="M88.79,62.55l.15.45c-1.29,3.57-3.23,6.5-5.81,8.79-2.3,2.26-5.28,3.85-8.93,4.77l.3-.6,1.49-.6h1.19l2.38-1.19,3.72-2.83-.15-.45c.26.46.51.41.74-.15l1.19-1.79-1.79,1.19,1.94-1.94c.36.54.7.39,1.04-.45l-.15-.45-.45.15,1.34-1.64.45-.15c-.5-.3-.4-.6.3-.89l1.04-2.23Z" fill="#fce37d" isolation="isolate" opacity=".99" stroke="#fce37d"/><path d="M41.44,63.74c.52-.16.67.09.45.74l.6,1.49h-.3l-.74-2.23Z" fill="#fce37d" isolation="isolate" opacity=".99" stroke="#fce37d"/><path d="M42.63,66.42l.74,1.34-.6-.3-.15-1.04Z" fill="#fce37d" isolation="isolate" opacity=".99" stroke="#fce37d"/><path d="M50.67,67.32l1.04.45c-.5.3-.4.6.3.89l.6,1.34c.54-.22.73-.07.6.45.1.79.65,1.14,1.64,1.04l-.3-.89c.85.36,1,.7.45,1.04-.14.52.06.67.6.45l.15-.6,2.23,2.83-.74-.45c-2.16-1.19-4-2.73-5.51-4.62l-1.04-1.94Z" fill="#fce37d" isolation="isolate" opacity=".99" stroke="#fce37d"/><path d="M82.24,70.89l-.6.89.6-.89Z" fill="#fce37d" isolation="isolate" opacity=".99" stroke="#fce37d"/><path d="M81.05,71.78l-.6.89-.6.3.3-.6.89-.6Z" fill="#fce37d" isolation="isolate" opacity=".99" stroke="#fce37d"/><path d="M56.92,72.38l1.64,1.04-.45-.15c-.79-.1-1.19-.4-1.19-.89Z" fill="#fce37d" isolation="isolate" opacity=".99" stroke="#fce37d"/><path d="M58.41,74.46l2.38.89.6-.3v.6l1.04-.45-.6-.3.45-.15,2.83.74-2.23.45-.89-.3v.3l3.57.89h.6l7.45-.3v.3c-.93-.26-1.53-.16-1.79.3h-6.25l-5.36-1.49-1.49-.6-.3-.6Z" fill="#fce37d" isolation="isolate" opacity=".99" stroke="#fce37d"/><path d="M73.6,75.06c.66-.22.9-.07.74.45l-.45-.15-.3-.3Z" fill="#fce37d" isolation="isolate" opacity=".99" stroke="#fce37d"/><path d="M72.11,75.36l1.04.15c-.26.56-.51.61-.74.15l-.3-.3Z" fill="#fce37d" isolation="isolate" opacity=".99" stroke="#fce37d"/><path d="M66.15,75.65l5.21.15-5.21.15v-.3Z" fill="#fce37d" isolation="isolate" opacity=".99" stroke="#fce37d"/><path d="M65.86,33.66l.74.15-.74.15v-.3Z" fill="#edb142" isolation="isolate" opacity="1" stroke="#edb142"/><path d="M70.62,33.66l.74.15-.74.15v-.3Z" fill="#edb142" isolation="isolate" opacity="1" stroke="#edb142"/><path d="M67.64,35.75l4.77.3,4.17,1.19c3.73,1.53,6.76,3.76,9.08,6.7l3.28,6.55-.3.6h.6l-.3.89.6.15.6,4.32-.89,4.17-1.79,4.17c-1.35,2.42-3.09,4.46-5.21,6.11-2.3,1.87-5.08,3.26-8.34,4.17l-3.57.3-.3.3h-2.98l-4.77-.89-4.32-1.79-.15-.6c-.3.5-.6.4-.89-.3-2.06-1.13-3.8-2.57-5.21-4.32l-2.08-2.98-1.49-3.28-1.19-6.25.6-.89v-1.79l.6-2.38,1.79-3.87c1.25-2.12,2.79-3.96,4.62-5.51l5.96-3.57,2.98-.89,3.87-.3.3-.3ZM68.69,37.83l-2.08,1.79c.2.4.1.5-.3.3v.6h-.3v.6h-.3v.6h-.3l-.3.89c.2.4.1.5-.3.3v.6l-.6.89c.2.4.1.5-.3.3v.6h-.3v.6h-.3v.6l-.3-.3-1.49.89-1.19-.3-.89.6-1.19-.3-.89.6c-1.19-.2-1.89-.1-2.08.3l-.89-.3-.3.6-.3-.3c-.99.79-1.59,1.89-1.79,3.28l.6.89-.3.6h.6l.3,1.19.89.3.3.89,2.68,2.08.89.6.89,1.19v.6l-1.19,6.55v2.08l-.3.3,2.08,2.08,2.38-.3h.6v-.3h.6v-.3h.6v-.3l1.79-1.19.6.3-.3-.3.6-.3h.6v-.3h.6v-.3h.6l.3-.6.6.3v-.6c.6-.2.79,0,.6.6l.6-.3v.6l.6-.3v.6l.6-.3,2.38,1.49c.4-.2.5,0,.3.6l.6-.3v.6l.6-.3,2.38,1.19,1.79-.3,1.19-1.79v-2.08l-.89-3.87-.3-3.57,3.87-3.87.3.3,1.79-1.79-.3-.3.89-.6-.3-.3c-.2-.79,0-1.09.6-.89v-1.49h-.6l.3-.6-.3-.3-.89-.89h-.3l-.3-.3h-.3l-2.68-.3-.6-.6-.89.3-.89-.3h-1.79c.2-.6-.2-.79-1.19-.6h-.6l-.3-.3v-.6l-.3-.3v-.3l-.3-.3v-.3l-.3-.3v-.3l-.3-.3v-.3l-.3-.3v-.6c-.6.2-.79.1-.6-.3l-.3-.89c.2-.6.1-.79-.3-.6v-.6c-.6.2-.79.1-.6-.3-.4-1.19-1.39-1.79-2.98-1.79Z" fill="#edb142" isolation="isolate" opacity="1" stroke="#edb142"/><path d="M56.33,37.24l-.3.6.3-.6Z" fill="#edb142" isolation="isolate" opacity="1" stroke="#edb142"/><path d="M55.14,38.13l-.3.6.3-.6Z" fill="#edb142" isolation="isolate" opacity="1" stroke="#edb142"/><path d="M83.73,39.62l.89,1.19-.89-1.19Z" fill="#edb142" isolation="isolate" opacity="1" stroke="#edb142"/><path d="M51.56,41.7l-.3.6.3-.6Z" fill="#edb142" isolation="isolate" opacity="1" stroke="#edb142"/><path d="M85.81,42l.3.6-.3-.6Z" fill="#edb142" isolation="isolate" opacity="1" stroke="#edb142"/><path d="M84.32,51.23l-6.25,6.55,6.25-6.55Z" fill="#edb142" isolation="isolate" opacity="1" stroke="#edb142"/><path d="M47.09,51.83l.15.74h-.3l.15-.74Z" fill="#edb142" isolation="isolate" opacity="1" stroke="#edb142"/><path d="M79.26,66.42l.15.74h-.3l.15-.74Z" fill="#edb142" isolation="isolate" opacity="1" stroke="#edb142"/><path d="M78.96,67.61l-.3.6.3-.6Z" fill="#edb142" isolation="isolate" opacity="1" stroke="#edb142"/><path d="M45.01,70.89l.3.6-.3-.6Z" fill="#edb142" isolation="isolate" opacity="1" stroke="#edb142"/><path d="M91.17,72.08l-.3.6.3-.6Z" fill="#edb142" isolation="isolate" opacity="1" stroke="#edb142"/><path d="M46.2,72.38l.6.89-.6-.89Z" fill="#edb142" isolation="isolate" opacity="1" stroke="#edb142"/><path d="M48.88,75.06l.6.89-.6-.89Z" fill="#edb142" isolation="isolate" opacity="1" stroke="#edb142"/><path d="M87.89,75.36l-.6.89.6-.89Z" fill="#edb142" isolation="isolate" opacity="1" stroke="#edb142"/><path d="M50.67,76.55l.3.6-.3-.6Z" fill="#edb142" isolation="isolate" opacity="1" stroke="#edb142"/><path d="M63.47,82.21l.74.15-.74.15v-.3Z" fill="#edb142" isolation="isolate" opacity="1" stroke="#edb142"/><path d="M73.3,82.21l.74.15-.74.15v-.3Z" fill="#edb142" isolation="isolate" opacity="1" stroke="#edb142"/><path d="M65.56,82.5l1.34.15-1.34.15v-.3Z" fill="#edb142" isolation="isolate" opacity="1" stroke="#edb142"/><path d="M70.03,82.5l1.94.15-1.94.15v-.3Z" fill="#edb142" isolation="isolate" opacity="1" stroke="#edb142"/><path d="M67.05,27.11l5.66.3,5.96,1.49c4.29,1.77,7.91,4.2,10.87,7.3l1.49,1.79-2.83-2.53-2.98-2.38-3.57-1.79c-.3.5-.6.4-.89-.3l-6.25-2.08c-1.09.3-1.79.2-2.08-.3h-5.96l-6.25,1.19-4.77,2.08c-3.32,1.85-6.14,4.18-8.49,7l-3.28,4.47c-.24,1.95-.93,3.43-2.08,4.47v1.79l-.89,3.28-.15,7.59-.74-4.02v-2.98l1.19-6.25,2.98-6.55c1.55-2.42,3.39-4.56,5.51-6.4,2.16-1.91,4.65-3.49,7.45-4.77l5.66-1.79,4.17-.3.3-.3Z" fill="#fcea99" isolation="isolate" opacity=".99" stroke="#fcea99"/><path d="M91.17,38.43l.89,1.19-.89-1.19Z" fill="#fcea99" isolation="isolate" opacity=".99" stroke="#fcea99"/><path d="M68.83,39.02c.99-.1,1.54.25,1.64,1.04,1.09,2.98,2.53,5.61,4.32,7.89h1.49l2.53.74-3.13.74c-.24-.46-.83-.56-1.79-.3l-.45-.45-3.57-6.25-.3-1.64c-.73-.3-1.03-.15-.89.45l-2.38,4.17-1.49,3.72-4.32.89h-2.38l-1.19.6h-2.83l-.15.6-.15-1.34.74-.74,8.93-1.19.74-.74,3.87-7.89.74-.3Z" fill="#fcea99" isolation="isolate" opacity=".99" stroke="#fcea99"/><path d="M92.36,39.92l.3.6-.3-.6Z" fill="#fcea99" isolation="isolate" opacity=".99" stroke="#fcea99"/><path d="M79.56,48.85c.89-.2,1.44-.05,1.64.45l-.74.15-.89-.3v-.3Z" fill="#fcea99" isolation="isolate" opacity=".99" stroke="#fcea99"/><path d="M81.64,49.15l1.04.15-1.04.15v-.3Z" fill="#fcea99" isolation="isolate" opacity=".99" stroke="#fcea99"/><path d="M83.43,49.45c.66-.22.9-.07.74.45l-.45-.15-.3-.3Z" fill="#fcea99" isolation="isolate" opacity=".99" stroke="#fcea99"/><path d="M58.71,55.7l1.49,1.79-1.49-1.79Z" fill="#fcea99" isolation="isolate" opacity=".99" stroke="#fcea99"/><path d="M49.77,65.53c1.45,2.32,3.24,4.31,5.36,5.96.52-.14.67.06.45.6-.6.2-.79,0-.6-.6h-.74l-1.04-1.49c-.54.22-.73.07-.6-.45-1.39-1.15-2.33-2.49-2.83-4.02Z" fill="#fcea99" isolation="isolate" opacity=".99" stroke="#fcea99"/><path d="M86.41,67.02l-.15.45-3.13,4.02-3.57,2.68-2.38,1.19h-1.19l-1.49.6-.6.6-7.74.3-.89-.3-2.68-.3-1.34-.74.15-.45-.89.3-2.38-.89-1.64-1.64.15-.45c1.63,1.25,3.56,2.19,5.81,2.83l-.6.3,1.34.45.3-.3h2.38l.3.3h5.06l1.19-.3c.3.5.6.4.89-.3l.89.3.15-.6c2.34-.36,4.38-1.15,6.11-2.38l4.91-4.32,1.04-1.34Z" fill="#fcea99" isolation="isolate" opacity=".99" stroke="#fcea99"/><path d="M65.56,27.11l1.34.15-1.34.15v-.3Z" fill="#f5d66f" isolation="isolate" opacity="1" stroke="#f5d66f"/><path d="M70.32,27.11l1.34.15-1.34.15v-.3Z" fill="#f5d66f" isolation="isolate" opacity="1" stroke="#f5d66f"/><path d="M73,27.41l.74.15-.74.15v-.3Z" fill="#f5d66f" isolation="isolate" opacity="1" stroke="#f5d66f"/><path d="M65.56,28.9l1.64.15-1.64.15v-.3Z" fill="#f5d66f" isolation="isolate" opacity="1" stroke="#f5d66f"/><path d="M71.22,28.9l2.23.15-2.23.15v-.3Z" fill="#f5d66f" isolation="isolate" opacity="1" stroke="#f5d66f"/><path d="M63.77,29.19l1.04.15-1.04.15v-.3Z" fill="#f5d66f" isolation="isolate" opacity="1" stroke="#f5d66f"/><path d="M74.2,29.19l.74.15-.74.15v-.3Z" fill="#f5d66f" isolation="isolate" opacity="1" stroke="#f5d66f"/><path d="M62.28,29.49l.74.15-1.64.45v-.3l.89-.3Z" fill="#f5d66f" isolation="isolate" opacity="1" stroke="#f5d66f"/><path d="M76.58,30.39l-.15.45-1.64,2.23.15-.45,1.64-2.23Z" fill="#f5d66f" isolation="isolate" opacity="1" stroke="#f5d66f"/><path d="M58.71,30.68l.45.15-1.04.45v-.3l.6-.3Z" fill="#f5d66f" isolation="isolate" opacity="1" stroke="#f5d66f"/><path d="M53.35,31.28l-.3.6.3-.6Z" fill="#f5d66f" isolation="isolate" opacity="1" stroke="#f5d66f"/><path d="M57.52,31.28l-.3.6-1.19.3v-.3l1.49-.6Z" fill="#f5d66f" isolation="isolate" opacity="1" stroke="#f5d66f"/><path d="M81.64,31.58l.45.15-1.19.89-1.64,2.23.45-.74,1.94-2.53Z" fill="#f5d66f" isolation="isolate" opacity="1" stroke="#f5d66f"/><path d="M84.62,31.87l.3.6-.3-.6Z" fill="#f5d66f" isolation="isolate" opacity="1" stroke="#f5d66f"/><path d="M55.43,32.17l-.3.6.3-.6Z" fill="#f5d66f" isolation="isolate" opacity="1" stroke="#f5d66f"/><path d="M83.13,32.17l1.94,1.34-.45-.15c-.91-.24-1.41-.64-1.49-1.19Z" fill="#f5d66f" isolation="isolate" opacity="1" stroke="#f5d66f"/><path d="M51.56,32.47l-.3.6.3-.6Z" fill="#f5d66f" isolation="isolate" opacity="1" stroke="#f5d66f"/><path d="M85.81,32.77l.3.6-.3-.6Z" fill="#f5d66f" isolation="isolate" opacity="1" stroke="#f5d66f"/><path d="M53.94,33.07l-.6.89.6-.89Z" fill="#f5d66f" isolation="isolate" opacity="1" stroke="#f5d66f"/><path d="M74.49,33.36l-.6.89.6-.89Z" fill="#f5d66f" isolation="isolate" opacity="1" stroke="#f5d66f"/><path d="M50.07,33.66l-.3.6.3-.6Z" fill="#f5d66f" isolation="isolate" opacity="1" stroke="#f5d66f"/><path d="M87,33.66l.3.6-.3-.6Z" fill="#f5d66f" isolation="isolate" opacity="1" stroke="#f5d66f"/><path d="M52.75,33.96l-.6.89-.89.6.6-.89.89-.6Z" fill="#f5d66f" isolation="isolate" opacity="1" stroke="#f5d66f"/><path d="M86.11,33.96l.89,1.19-.89-1.19Z" fill="#f5d66f" isolation="isolate" opacity="1" stroke="#f5d66f"/><path d="M78.96,35.15l-.15.45-.15.45-.15-.45.45-.45Z" fill="#f5d66f" isolation="isolate" opacity="1" stroke="#f5d66f"/><path d="M87.6,35.15l2.08,2.38-2.08-2.38Z" fill="#f5d66f" isolation="isolate" opacity="1" stroke="#f5d66f"/><path d="M50.67,35.45l-3.28,3.57,3.28-3.57Z" fill="#f5d66f" isolation="isolate" opacity="1" stroke="#f5d66f"/><path d="M90.28,36.94l.3.6-.3-.6Z" fill="#f5d66f" isolation="isolate" opacity="1" stroke="#f5d66f"/><path d="M46.5,37.24l-.3.6.3-.6Z" fill="#f5d66f" isolation="isolate" opacity="1" stroke="#f5d66f"/><path d="M90.28,37.83l.89.89c.24-.44.49-.39.74.15l-.74.15-.89-1.19Z" fill="#f5d66f" isolation="isolate" opacity="1" stroke="#f5d66f"/><path d="M47.09,39.32l-.89,1.19.89-1.19Z" fill="#f5d66f" isolation="isolate" opacity="1" stroke="#f5d66f"/><path d="M91.77,39.62l.74.15c-.42.66-.67.61-.74-.15Z" fill="#f5d66f" isolation="isolate" opacity="1" stroke="#f5d66f"/><path d="M92.96,40.51v.89c-.6-.3-.6-.6,0-.89Z" fill="#f5d66f" isolation="isolate" opacity="1" stroke="#f5d66f"/><path d="M45.9,40.81l-.3.6.3-.6Z" fill="#f5d66f" isolation="isolate" opacity="1" stroke="#f5d66f"/><path d="M93.26,41.7l.74.45-.45.15-.3-.6Z" fill="#f5d66f" isolation="isolate" opacity="1" stroke="#f5d66f"/><path d="M45.01,42l-.15.45-.45.74.15-.45.45-.74Z" fill="#f5d66f" isolation="isolate" opacity="1" stroke="#f5d66f"/><path d="M94.15,43.19c.46-.14.61,0,.45.45l.89,2.38h-.3l-1.04-2.83Z" fill="#f5d66f" isolation="isolate" opacity="1" stroke="#f5d66f"/><path d="M43.82,44.09l.15.45-1.64,3.42-.15-.45,1.64-3.42Z" fill="#f5d66f" isolation="isolate" opacity="1" stroke="#f5d66f"/><path d="M77.77,48.25l.74.15-.74.15v-.3Z" fill="#f5d66f" isolation="isolate" opacity="1" stroke="#f5d66f"/><path d="M41.73,49.45l.15.74h-.3l.15-.74Z" fill="#f5d66f" isolation="isolate" opacity="1" stroke="#f5d66f"/><path d="M77.77,49.45l1.04.15-1.04.15v-.3Z" fill="#f5d66f" isolation="isolate" opacity="1" stroke="#f5d66f"/><path d="M75.98,49.74l-1.19,1.49-.6.3.3-.6,1.49-1.19Z" fill="#f5d66f" isolation="isolate" opacity="1" stroke="#f5d66f"/><path d="M79.85,49.74l1.04.15-1.04.15v-.3Z" fill="#f5d66f" isolation="isolate" opacity="1" stroke="#f5d66f"/><path d="M53.65,50.04l.15.74h-.3l.15-.74Z" fill="#f5d66f" isolation="isolate" opacity="1" stroke="#f5d66f"/><path d="M81.94,50.04l1.04.15-1.04.15v-.3Z" fill="#f5d66f" isolation="isolate" opacity="1" stroke="#f5d66f"/><path d="M41.44,50.94l.15.74h-.3l.15-.74Z" fill="#f5d66f" isolation="isolate" opacity="1" stroke="#f5d66f"/><path d="M53.94,51.23l6.55,6.55.3-.3.45.15-.74.45-6.55-6.85Z" fill="#f5d66f" isolation="isolate" opacity="1" stroke="#f5d66f"/><path d="M73.6,51.53l-.6.89.6-.89Z" fill="#f5d66f" isolation="isolate" opacity="1" stroke="#f5d66f"/><path d="M39.95,51.83l.15,1.34h-.3l.15-1.34Z" fill="#f5d66f" isolation="isolate" opacity="1" stroke="#f5d66f"/><path d="M41.14,52.42l.15,1.64h-.3l.15-1.64Z" fill="#f5d66f" isolation="isolate" opacity="1" stroke="#f5d66f"/><path d="M72.41,52.42l-.3.6.3-.6Z" fill="#f5d66f" isolation="isolate" opacity="1" stroke="#f5d66f"/><path d="M70.92,53.32l-.3.6-2.68,1.19v-.3l2.98-1.49Z" fill="#f5d66f" isolation="isolate" opacity="1" stroke="#f5d66f"/><path d="M67.35,55.1l-.3.6-1.79.6v-.3l2.08-.89Z" fill="#f5d66f" isolation="isolate" opacity="1" stroke="#f5d66f"/><path d="M40.84,55.7l.15,1.94h-.3l.15-1.94Z" fill="#f5d66f" isolation="isolate" opacity="1" stroke="#f5d66f"/><path d="M63.47,56.59l.45.15-2.23.74v-.3l1.79-.6Z" fill="#f5d66f" isolation="isolate" opacity="1" stroke="#f5d66f"/><path d="M39.95,57.49l.15,1.34h-.3l.15-1.34Z" fill="#f5d66f" isolation="isolate" opacity="1" stroke="#f5d66f"/><path d="M47.39,59.27l.74,2.23-.15.45.45.15-.3.6h.6l-.45.74-1.04-2.83.15-1.34Z" fill="#f5d66f" isolation="isolate" opacity="1" stroke="#f5d66f"/><path d="M89.68,59.27l.15,1.34-1.04,3.13-.45-.74h.6l-.3-.89h.6l-.3-.6.74-2.23Z" fill="#f5d66f" isolation="isolate" opacity="1" stroke="#f5d66f"/><path d="M41.14,59.57l.45,2.83h-.3l-.15-2.83Z" fill="#f5d66f" isolation="isolate" opacity="1" stroke="#f5d66f"/><path d="M42.03,64.34l.45,1.04-.6.3.3-.89-.15-.45Z" fill="#f5d66f" isolation="isolate" opacity="1" stroke="#f5d66f"/><path d="M48.88,64.34l2.83,4.62-.89-.6-2.08-3.57.15-.45Z" fill="#f5d66f" isolation="isolate" opacity="1" stroke="#f5d66f"/><path d="M88.19,64.63l.15.45-.74,1.04.15-.45.45-1.04Z" fill="#f5d66f" isolation="isolate" opacity="1" stroke="#f5d66f"/><path d="M42.63,65.83l.15.6-.6-.15.45-.45Z" fill="#f5d66f" isolation="isolate" opacity="1" stroke="#f5d66f"/><path d="M86.41,66.42l-.3.6.3-.6Z" fill="#f5d66f" isolation="isolate" opacity="1" stroke="#f5d66f"/><path d="M87,67.02l-.3.6.3-.6Z" fill="#f5d66f" isolation="isolate" opacity="1" stroke="#f5d66f"/><path d="M85.51,67.61l-.3.6.3-.6Z" fill="#f5d66f" isolation="isolate" opacity="1" stroke="#f5d66f"/><path d="M51.86,67.91l2.38,2.68-2.38-2.68Z" fill="#f5d66f" isolation="isolate" opacity="1" stroke="#f5d66f"/><path d="M86.41,67.91l-.3.6.3-.6Z" fill="#f5d66f" isolation="isolate" opacity="1" stroke="#f5d66f"/><path d="M43.52,68.51c.46-.14.61,0,.45.45l1.49,2.08-.6-.3-1.34-2.23Z" fill="#f5d66f" isolation="isolate" opacity="1" stroke="#f5d66f"/><path d="M85.81,68.8l-.89,1.19.89-1.19Z" fill="#f5d66f" isolation="isolate" opacity="1" stroke="#f5d66f"/><path d="M51.86,69.4l2.38,2.68-2.38-2.68Z" fill="#f5d66f" isolation="isolate" opacity="1" stroke="#f5d66f"/><path d="M82.83,70.29l-.3.6.3-.6Z" fill="#f5d66f" isolation="isolate" opacity="1" stroke="#f5d66f"/><path d="M55.14,70.89l.3.6-.3-.6Z" fill="#f5d66f" isolation="isolate" opacity="1" stroke="#f5d66f"/><path d="M84.02,70.89l-.3.6.3-.6Z" fill="#f5d66f" isolation="isolate" opacity="1" stroke="#f5d66f"/><path d="M82.83,71.78l-1.19,1.49-.89.6.6-.89,1.49-1.19Z" fill="#f5d66f" isolation="isolate" opacity="1" stroke="#f5d66f"/><path d="M54.84,72.08c1.17,1.41,2.71,2.45,4.62,3.13l-1.04.15c-.3-.5-.6-.4-.89.3l-.45-.45.3-1.04c-1.25-.34-2.09-1.03-2.53-2.08Z" fill="#f5d66f" isolation="isolate" opacity="1" stroke="#f5d66f"/><path d="M80.15,73.87l-.3.6.3-.6Z" fill="#f5d66f" isolation="isolate" opacity="1" stroke="#f5d66f"/><path d="M65.26,75.36l.74.15-.74.15v-.3Z" fill="#f5d66f" isolation="isolate" opacity="1" stroke="#f5d66f"/><path d="M63.18,76.55l.74.15-.74.15v-.3Z" fill="#f5d66f" isolation="isolate" opacity="1" stroke="#f5d66f"/><path d="M64.37,76.85l1.04.15-1.04.15v-.3Z" fill="#f5d66f" isolation="isolate" opacity="1" stroke="#f5d66f"/><path d="M72.11,76.85l1.04.15-1.04.15v-.3Z" fill="#f5d66f" isolation="isolate" opacity="1" stroke="#f5d66f"/><path d="M66.45,77.14l4.62.15-4.62.15v-.3Z" fill="#f5d66f" isolation="isolate" opacity="1" stroke="#f5d66f"/><path d="M52.75,77.74l1.04.15c-.24.56-.49.61-.74.15l-.3-.3Z" fill="#f5d66f" isolation="isolate" opacity="1" stroke="#f5d66f"/><path d="M77.17,25.62l2.23.74-.45.15-1.79-.6v-.3Z" fill="#fee031" isolation="isolate" opacity=".04" stroke="#fee031"/><path d="M79.85,26.51l1.04.45-.45.15-.6-.6Z" fill="#fee031" isolation="isolate" opacity=".04" stroke="#fee031"/><path d="M81.34,27.11l.74.45-.45-.15-.3-.3Z" fill="#fee031" isolation="isolate" opacity=".04" stroke="#fee031"/><path d="M87,30.39l.3.6-.3-.6Z" fill="#fee031" isolation="isolate" opacity=".04" stroke="#fee031"/><path d="M41.14,40.21l-.15.45-.15.45-.15-.45.45-.45Z" fill="#fee031" isolation="isolate" opacity=".04" stroke="#fee031"/><path d="M96.83,42.3l.74,1.64h-.3l-.45-1.64Z" fill="#fee031" isolation="isolate" opacity=".04" stroke="#fee031"/><path d="M38.46,46.47l.15.74-.45,1.34-.15-1.04.45-1.04Z" fill="#fee031" isolation="isolate" opacity=".04" stroke="#fee031"/><path d="M37.56,50.34l.15,1.04h-.3l.15-1.04Z" fill="#fee031" isolation="isolate" opacity=".04" stroke="#fee031"/><path d="M37.27,53.62l.15,1.04h-.3l.15-1.04Z" fill="#fee031" isolation="isolate" opacity=".04" stroke="#fee031"/><path d="M98.62,65.83l.15.74-1.64,4.02-.15-.45,1.64-4.32Z" fill="#fee031" isolation="isolate" opacity=".04" stroke="#fee031"/><path d="M71.51,33.66l.74.15-.74.15v-.3Z" fill="#fbc84a" stroke="#fbc84a"/><path d="M55.73,37.53l-.3.6.3-.6Z" fill="#fbc84a" stroke="#fbc84a"/><path d="M81.34,37.53l.3.6-.3-.6Z" fill="#fbc84a" stroke="#fbc84a"/><path d="M82.53,38.43l.89,1.19-.89-1.19Z" fill="#fbc84a" stroke="#fbc84a"/><path d="M54.24,38.72l-2.08,2.38,2.08-2.38Z" fill="#fbc84a" stroke="#fbc84a"/><path d="M72.41,40.51l.45.74-.6-.3.15-.45Z" fill="#fbc84a" stroke="#fbc84a"/><path d="M84.92,40.81l.6.89-.6-.89Z" fill="#fbc84a" stroke="#fbc84a"/><path d="M63.18,45.87l-.15.45c.16.46,0,.61-.45.45l.6-.89Z" fill="#fbc84a" stroke="#fbc84a"/><path d="M75.39,46.17l1.34.45-1.04.15-.3-.6Z" fill="#fbc84a" stroke="#fbc84a"/><path d="M79.85,47.06l.74.15-.74.15v-.3Z" fill="#fbc84a" stroke="#fbc84a"/><path d="M77.47,49.74l1.79.6,1.49-.3c.71.58,1.81.77,3.28.6l.45.45h-.6l-.89,1.64c-.54-.22-.73-.07-.6.45l-4.47,3.72-.6,1.34.74,3.72.3-.6.15.45c-.44.24-.54.83-.3,1.79h.3l.15-.45.15.74-.3,1.19h.6l-.3,2.53-1.64-.3-.3.6-.74-.3-.15-.6h-.6c-.44.16-.59,0-.45-.45h-.6v-.45h-1.19v-.45l-.74-.15-3.72-1.79c.22.54.07.73-.45.6l-1.49.89-.45-.15-.15.45-.6-.3v.6l-.6-.3v.6l-.45-.15c.16.46,0,.61-.45.45l-.89.6-.45-.15-.15.45-.45-.15-.15.45-.89-.3-.45.89-1.19-.6v-2.23l-.15-.45.45.15-.3-1.79h.3l.15.45.15-1.64-.3-.6h.6l.3-2.23.6-.15-.6-.3.3-1.04,2.23-.3,5.36-2.38.6.3.3-.89,5.81-3.28c-.22-.54-.07-.73.45-.6l1.79-.89Z" fill="#fbc84a" stroke="#fbc84a"/><path d="M86.11,50.04l.15,1.34h-.3l.15-1.34Z" fill="#fbc84a" stroke="#fbc84a"/><path d="M90.28,53.02l.15,2.83h-.3l.15-2.83Z" fill="#fbc84a" stroke="#fbc84a"/><path d="M46.8,53.32l.15,2.53h-.3l.15-2.53Z" fill="#fbc84a" stroke="#fbc84a"/><path d="M85.21,53.32l-2.68,2.98,2.68-2.98Z" fill="#fbc84a" stroke="#fbc84a"/><path d="M53.35,53.62l.3.6-.3-.6Z" fill="#fbc84a" stroke="#fbc84a"/><path d="M89.98,56.59l.15.74h-.3l.15-.74Z" fill="#fbc84a" stroke="#fbc84a"/><path d="M58.11,58.38l.6.89-.6-.89Z" fill="#fbc84a" stroke="#fbc84a"/><path d="M69.73,66.72l.74.45-.45.15-.3-.6Z" fill="#fbc84a" stroke="#fbc84a"/><path d="M77.47,67.91l.74.15-.74.15v-.3Z" fill="#fbc84a" stroke="#fbc84a"/><path d="M65.56,68.21l.45.15-.74.45.3-.6Z" fill="#fbc84a" stroke="#fbc84a"/><path d="M92.66,70l-.3.6.3-.6Z" fill="#fbc84a" stroke="#fbc84a"/><path d="M91.77,71.19l-.3.6.3-.6Z" fill="#fbc84a" stroke="#fbc84a"/><path d="M45.6,71.48l.3.6-.3-.6Z" fill="#fbc84a" stroke="#fbc84a"/><path d="M90.58,72.68l-2.38,2.68,2.38-2.68Z" fill="#fbc84a" stroke="#fbc84a"/><path d="M47.09,73.27l1.49,1.79-1.49-1.79Z" fill="#fbc84a" stroke="#fbc84a"/><path d="M50.07,75.95l.3.6-.3-.6Z" fill="#fbc84a" stroke="#fbc84a"/><path d="M86.7,76.25l-.3.6.3-.6Z" fill="#fbc84a" stroke="#fbc84a"/><path d="M75.39,81.61l.74.15-.74.15v-.3Z" fill="#fbc84a" stroke="#fbc84a"/><path d="M74.2,81.91l.74.15-.74.15v-.3Z" fill="#fbc84a" stroke="#fbc84a"/><path d="M64.37,82.21l.74.15-.74.15v-.3Z" fill="#fbc84a" stroke="#fbc84a"/><path d="M72.11,82.21l1.04.15-1.04.15v-.3Z" fill="#fbc84a" stroke="#fbc84a"/><path d="M67.05,82.5l2.83.15-2.83.15v-.3Z" fill="#fbc84a" stroke="#fbc84a"/><path d="M93.55,75.95l-.3.6.3-.6Z" fill="#d9ab56" isolation="isolate" opacity=".61" stroke="#d9ab56"/><path d="M43.52,76.25l.6.89-.6-.89Z" fill="#d9ab56" isolation="isolate" opacity=".61" stroke="#d9ab56"/><path d="M92.66,77.14l-.6.89.6-.89Z" fill="#d9ab56" isolation="isolate" opacity=".61" stroke="#d9ab56"/><path d="M89.09,80.72l-.6.89.6-.89Z" fill="#d9ab56" isolation="isolate" opacity=".61" stroke="#d9ab56"/><path d="M65.26,33.96h6.55l4.47,1.19c3.59,1.37,6.52,3.41,8.79,6.11,1.51,1.77,2.7,3.85,3.57,6.25l-.15.45c.52-.16.67.09.45.74l.3.74c-.54.22-.73.07-.6-.45-1.33-3.34-3.27-6.07-5.81-8.19-2.38-1.99-5.26-3.47-8.64-4.47l-2.68-.6h-5.66l-5.66,1.49c-2.88,1.19-5.31,2.83-7.3,4.91-1.85,1.83-3.29,4.06-4.32,6.7l-.45-.74h.6l-.3-.89,1.19-2.53.6-.15c-.5-.3-.4-.6.3-.89l3.42-4.32c2.84-2.72,6.61-4.51,11.32-5.36Z" fill="#cd8a32" isolation="isolate" opacity=".91" stroke="#cd8a32"/><path d="M49.18,34.26l-.3.6.3-.6Z" fill="#cd8a32" isolation="isolate" opacity=".91" stroke="#cd8a32"/><path d="M87.89,34.26l.3.6-.3-.6Z" fill="#cd8a32" isolation="isolate" opacity=".91" stroke="#cd8a32"/><path d="M91.47,34.85l.89,1.19-.89-1.19Z" fill="#cd8a32" isolation="isolate" opacity=".91" stroke="#cd8a32"/><path d="M88.79,35.15l1.19,1.49-1.19-1.49Z" fill="#cd8a32" isolation="isolate" opacity=".91" stroke="#cd8a32"/><path d="M45.01,35.45l-.6.89.6-.89Z" fill="#cd8a32" isolation="isolate" opacity=".91" stroke="#cd8a32"/><path d="M68.83,37.83l.74.15-.74.15v-.3Z" fill="#cd8a32" isolation="isolate" opacity=".91" stroke="#cd8a32"/><path d="M67.94,38.13l-.3.6.3-.6Z" fill="#cd8a32" isolation="isolate" opacity=".91" stroke="#cd8a32"/><path d="M70.62,38.43l.6.89-.6-.89Z" fill="#cd8a32" isolation="isolate" opacity=".91" stroke="#cd8a32"/><path d="M63.18,46.47l-.3.6-.45-.15.74-.45Z" fill="#cd8a32" isolation="isolate" opacity=".91" stroke="#cd8a32"/><path d="M60.2,47.06l1.04.15-1.04.15v-.3Z" fill="#cd8a32" isolation="isolate" opacity=".91" stroke="#cd8a32"/><path d="M77.47,47.06l.74.15-.74.15v-.3Z" fill="#cd8a32" isolation="isolate" opacity=".91" stroke="#cd8a32"/><path d="M56.03,47.66l.74.15-.74.15v-.3Z" fill="#cd8a32" isolation="isolate" opacity=".91" stroke="#cd8a32"/><path d="M53.65,48.25l-.6.89.6-.89Z" fill="#cd8a32" isolation="isolate" opacity=".91" stroke="#cd8a32"/><path d="M84.92,48.55l.3.6-.3-.6Z" fill="#cd8a32" isolation="isolate" opacity=".91" stroke="#cd8a32"/><path d="M47.99,48.85l.45.74-.6-.3.15-.45Z" fill="#cd8a32" isolation="isolate" opacity=".91" stroke="#cd8a32"/><path d="M89.38,49.74l.45,3.13h-.3c.12-1.21-.08-2.1-.6-2.68l.45-.45Z" fill="#cd8a32" isolation="isolate" opacity=".91" stroke="#cd8a32"/><path d="M47.69,50.04c.46-.14.61,0,.45.45l-.45-.45Z" fill="#cd8a32" isolation="isolate" opacity=".91" stroke="#cd8a32"/><path d="M47.24,51.23c.54-.22.73-.07.6.45l-.45,1.64-.15-2.08Z" fill="#cd8a32" isolation="isolate" opacity=".91" stroke="#cd8a32"/><path d="M54.54,52.13l.6.89-.6-.89Z" fill="#cd8a32" isolation="isolate" opacity=".91" stroke="#cd8a32"/><path d="M55.73,53.32l.3.6-.3-.6Z" fill="#cd8a32" isolation="isolate" opacity=".91" stroke="#cd8a32"/><path d="M39.65,53.62l.15,1.34h-.3l.15-1.34Z" fill="#cd8a32" isolation="isolate" opacity=".91" stroke="#cd8a32"/><path d="M97.43,53.62l.15,1.04h-.3l.15-1.04Z" fill="#cd8a32" isolation="isolate" opacity=".91" stroke="#cd8a32"/><path d="M39.65,56l.15,1.94h-.3l.15-1.94Z" fill="#cd8a32" isolation="isolate" opacity=".91" stroke="#cd8a32"/><path d="M59.01,56.59l1.34,1.34v.6h-.3v-.6l-1.04-1.34Z" fill="#cd8a32" isolation="isolate" opacity=".91" stroke="#cd8a32"/><path d="M97.43,56.89l.15,1.34h-.3l.15-1.34Z" fill="#cd8a32" isolation="isolate" opacity=".91" stroke="#cd8a32"/><path d="M58.11,57.78l.89,1.19-.89-1.19Z" fill="#cd8a32" isolation="isolate" opacity=".91" stroke="#cd8a32"/><path d="M78.07,57.78l.15.74h-.3l.15-.74Z" fill="#cd8a32" isolation="isolate" opacity=".91" stroke="#cd8a32"/><path d="M79.56,58.38l-.3.6.3-.6Z" fill="#cd8a32" isolation="isolate" opacity=".91" stroke="#cd8a32"/><path d="M39.95,59.87l.45,2.38-.6-.15.15-2.23Z" fill="#cd8a32" isolation="isolate" opacity=".91" stroke="#cd8a32"/><path d="M97.13,60.17l.15.74h-.3l.15-.74Z" fill="#cd8a32" isolation="isolate" opacity=".91" stroke="#cd8a32"/><path d="M79.56,61.06l.15.74h-.3l.15-.74Z" fill="#cd8a32" isolation="isolate" opacity=".91" stroke="#cd8a32"/><path d="M96.83,61.36l.15,1.64-.45,1.64-.45-.15.3.89h-.6l.3.89h-.3l-.15-.45-.15,1.04.3.6h-.3l-.15-.45-.15.74.3.6-.74,1.34-1.04-.15-.6,1.19.3.6-.45-.15-.45.15c.69.3.79.6.3.89l.3.6-.74.15-.45.15.89.3-1.19.6.3.6-1.19.3.3-.6-.45-.15-.89,1.19-.45-.15-.3,1.04c-1.03-.34-1.43-.14-1.19.6l.74-.3.15.6h-1.19v.45l.45-.15.74.15-1.64.74v-.6l-.6-.3-.3.89-.6-.3-1.34,1.04.89.6.45,1.04.45-.15-.89.6c.56-.34.41-.68-.45-1.04l-.89.3c-.24-.44-.49-.39-.74.15l-.15.45c-.14-.54-.64-.73-1.49-.6-.54.26-.59.51-.15.74-.2.75,0,1,.6.74l-.3-1.04.45.15c.52-.16.67.09.45.74h.6l-1.19.45c.22.54.07.73-.45.6l-1.79.89-.3-.89-.45.15.3.74h-.6c.22.54.07.73-.45.6l-.3-.89-.45-.15.89-.15-.3-.74.15-.45-.89.6-.45.15.15-.45-5.36,1.49h-5.66c-.28-.52-.87-.71-1.79-.6l-1.94.3-.3,1.79-1.79-.74.6-.3c-.14-.44-.59-.59-1.34-.45v.3l.45.15-1.04.15-1.64-.74.45-1.04h.6l.74-.45-3.57-1.64v1.64l.45.15.45.74-.45-.15-.89-.6c-.3-.69-.6-.79-.89-.3l-.89-.3v.6c-.6-.3-.6-.6,0-.89l1.04.3.6-1.19-1.79-.74.89-.3-3.42-1.94c-.14.56-.64.75-1.49.6l-.3-.6c.46.16.61,0,.45-.45l-.45.15-.45-.15.6-.15-.15-.6-1.34.74,2.23,2.53-2.98-3.28.74.45.45-.74.6.3c.6-.3.6-.6,0-.89-.44.16-.59,0-.45-.45l-1.34-1.04-.74.3c.22-.54.07-.73-.45-.6l-.6-.3c-.24.46-.49.41-.74-.15l.3-.6-.89-.3h.6l-.89-1.79.6-.3-.6-1.34c-.73-.3-1.03-.15-.89.45l.3.6h-.3l-.3-.89.6-1.19h-.3l-.45.74.15-.45.3-.6-.74-1.04-.3.6-.15-.45.3-.6h-.6l-.3-1.49h.3l.15.45.3-.6c1.69,4.47,4.17,8.14,7.45,11.02,2.52,2.34,5.5,4.23,8.93,5.66l6.55,1.79,6.85.3,7.15-1.49,5.66-2.68c2.8-1.67,5.23-3.7,7.3-6.11,2.72-3.04,4.66-6.86,5.81-11.47ZM44.26,70.89c-.4.6-.3.99.3,1.19.6-.4.5-.79-.3-1.19ZM49.03,75.95l.3.6c.2-.6.1-.79-.3-.6ZM87.45,76.55l-.6.6h.6v-.6ZM49.92,76.85l.3.6c.2-.6.1-.79-.3-.6ZM54.99,81.01l-.3.89h.3v-.89ZM80.3,81.01l-.3.89c-.79-.2-1.09,0-.89.6l1.49.6-.3-.3c-.2-.79,0-1.09.6-.89.2-.79,0-1.09-.6-.89ZM59.16,81.91v.6h.89l-.89-.6ZM60.94,82.5v.6h2.08l-2.08-.6ZM58.26,83.1l.3.6c.2-.6.1-.79-.3-.6Z" fill="#cd8a32" isolation="isolate" opacity=".91" stroke="#cd8a32"/><path d="M40.54,62.55l.15.45-.45.74-.15-.45.45-.74Z" fill="#cd8a32" isolation="isolate" opacity=".91" stroke="#cd8a32"/><path d="M58.41,62.55l.15.74h-.3l.15-.74Z" fill="#cd8a32" isolation="isolate" opacity=".91" stroke="#cd8a32"/><path d="M78.96,63.44l.15.74h-.3l.15-.74Z" fill="#cd8a32" isolation="isolate" opacity=".91" stroke="#cd8a32"/><path d="M80.15,64.63l.15.74h-.3l.15-.74Z" fill="#cd8a32" isolation="isolate" opacity=".91" stroke="#cd8a32"/><path d="M57.82,66.12l.15,1.34h-.3l.15-1.34Z" fill="#cd8a32" isolation="isolate" opacity=".91" stroke="#cd8a32"/><path d="M59.01,67.61l.3.6-.3-.6Z" fill="#cd8a32" isolation="isolate" opacity=".91" stroke="#cd8a32"/><path d="M79.26,67.61l-.3.6.3-.6Z" fill="#cd8a32" isolation="isolate" opacity=".91" stroke="#cd8a32"/><path d="M58.11,69.1l.89,1.19-.89-1.19Z" fill="#cd8a32" isolation="isolate" opacity=".91" stroke="#cd8a32"/><path d="M79.85,69.4l-.6.89-.45-.15,1.04-.74Z" fill="#cd8a32" isolation="isolate" opacity=".91" stroke="#cd8a32"/><path d="M59.9,70.29l.74.15-.74.15v-.3Z" fill="#cd8a32" isolation="isolate" opacity=".91" stroke="#cd8a32"/><path d="M77.77,70.29l.74.15-.74.15v-.3Z" fill="#cd8a32" isolation="isolate" opacity=".91" stroke="#cd8a32"/><path d="M44.71,73.87l.74.15c-.42.66-.67.61-.74-.15Z" fill="#cd8a32" isolation="isolate" opacity=".91" stroke="#cd8a32"/><path d="M45.31,74.76l.6.89-.6-.89Z" fill="#cd8a32" isolation="isolate" opacity=".91" stroke="#cd8a32"/><path d="M91.17,75.36l-.89,1.19v-.89c.3.5.6.4.89-.3Z" fill="#cd8a32" isolation="isolate" opacity=".91" stroke="#cd8a32"/><path d="M89.68,75.95l-.3.6.3-.6Z" fill="#cd8a32" isolation="isolate" opacity=".91" stroke="#cd8a32"/><path d="M89.38,77.44l-.3.6.3-.6Z" fill="#cd8a32" isolation="isolate" opacity=".91" stroke="#cd8a32"/><path d="M50.07,78.63l.45.74-.6-.3.15-.45Z" fill="#cd8a32" isolation="isolate" opacity=".91" stroke="#cd8a32"/><path d="M86.11,78.63c.6.3.6.6,0,.89-.44.16-.59,0-.45-.45l.45-.45Z" fill="#cd8a32" isolation="isolate" opacity=".91" stroke="#cd8a32"/><path d="M87.3,79.23l-.89,1.19.89-1.19Z" fill="#cd8a32" isolation="isolate" opacity=".91" stroke="#cd8a32"/><path d="M50.37,79.82l.6.89-.6-.89Z" fill="#cd8a32" isolation="isolate" opacity=".91" stroke="#cd8a32"/><path d="M83.73,80.72l.74.15-.45.74.6-.3-.3.6-.6.3v-.6c-.44.16-.59,0-.45-.45l.45-.45Z" fill="#cd8a32" isolation="isolate" opacity=".91" stroke="#cd8a32"/><path d="M51.86,81.01l.3.6-.3-.6Z" fill="#cd8a32" isolation="isolate" opacity=".91" stroke="#cd8a32"/><path d="M83.13,82.21l-.3.6.3-.6Z" fill="#cd8a32" isolation="isolate" opacity=".91" stroke="#cd8a32"/><path d="M54.24,82.5l.3.6-.3-.6Z" fill="#cd8a32" isolation="isolate" opacity=".91" stroke="#cd8a32"/><path d="M55.14,83.1l1.64.74-.45.15-1.19-.6v-.3Z" fill="#cd8a32" isolation="isolate" opacity=".91" stroke="#cd8a32"/><path d="M64.22,84.59l.6.15-.45.74-.15-.89Z" fill="#cd8a32" isolation="isolate" opacity=".91" stroke="#cd8a32"/><path d="M70.92,84.59l1.34.15-1.34.15v-.3Z" fill="#cd8a32" isolation="isolate" opacity=".91" stroke="#cd8a32"/><path d="M75.39,84.59l.45.15-1.04.45v-.3l.6-.3Z" fill="#cd8a32" isolation="isolate" opacity=".91" stroke="#cd8a32"/><path d="M62.58,84.89l1.04.45-.74.15-.3-.6Z" fill="#cd8a32" isolation="isolate" opacity=".91" stroke="#cd8a32"/><path d="M73.3,85.18l1.04.15-1.04.15v-.3Z" fill="#cd8a32" isolation="isolate" opacity=".91" stroke="#cd8a32"/><path d="M70.92,85.48l1.64.15-1.64.15v-.3Z" fill="#cd8a32" isolation="isolate" opacity=".91" stroke="#cd8a32"/><path d="M62.58,85.78l.74.15-.74.15v-.3Z" fill="#cd8a32" isolation="isolate" opacity=".91" stroke="#cd8a32"/><path d="M73.6,85.78l.74.15-.74.15v-.3Z" fill="#cd8a32" isolation="isolate" opacity=".91" stroke="#cd8a32"/><path d="M64.37,86.08l1.34.15-1.34.15v-.3Z" fill="#cd8a32" isolation="isolate" opacity=".91" stroke="#cd8a32"/><path d="M71.81,86.08l1.04.15-1.04.15v-.3Z" fill="#cd8a32" isolation="isolate" opacity=".91" stroke="#cd8a32"/><path d="M67.35,86.38l1.94.15-1.94.15v-.3Z" fill="#cd8a32" isolation="isolate" opacity=".91" stroke="#cd8a32"/><path d="M64.67,25.03h7.74l5.66,1.19,6.25,2.68,7,5.81,4.17,5.36,2.68,6.25,1.19,4.77.3,7.45-.3.3-.3,4.77-.89,3.57-1.79,4.47c-1.87,3.49-4.2,6.52-7,9.08-2.88,2.68-6.35,4.77-10.42,6.25l-4.17,1.19-3.57.3-.3.3h-4.77l-7.45-1.49-5.96-2.68c-3.32-1.95-6.14-4.38-8.49-7.3l-3.28-4.77c-.85-1.03-1.35-2.42-1.49-4.17l-.89-1.19-.89-4.17v-2.68l-.3-.3.3-1.19-.3-.3v-5.66l1.49-7.15,2.38-5.06c2.08-3.47,4.62-6.5,7.59-9.08l2.38-1.79,5.36-2.68,8.04-2.08ZM64.22,27.11l-7.74,2.38c-2.78,1.19-5.16,2.78-7.15,4.77-3.38,2.78-5.96,6.35-7.74,10.72l-1.49,4.77-.3,3.87-.3.3.3,8.34.6,2.98c1.19,4.37,3.18,8.14,5.96,11.32,2.78,2.98,6.15,5.46,10.13,7.45l6.25,2.08,4.47.3.3.3,5.36-.3,6.55-1.79c3.77-1.59,7.05-3.77,9.83-6.55,2.58-2.78,4.67-5.96,6.25-9.53l1.19-3.87.3-3.28.3-.3v-2.38l.3-.3-.3-6.85-1.49-5.66c-1.39-3.77-3.28-6.85-5.66-9.23-2.98-3.38-6.55-5.96-10.72-7.74l-6.55-1.79h-8.64Z" fill="#925916" isolation="isolate" opacity=".97" stroke="#925916"/><path d="M68.24,38.13c1.79-.3,2.83.15,3.13,1.34l3.57,7.3,2.53.6,5.96.6,1.94,1.34.3,2.68-.6,1.19-4.02,4.02c-.44-.14-.59,0-.45.45l-1.49,1.19,1.19,6.85v2.98l-1.04,1.34-1.79.3-8.34-4.17-8.04,4.17h-1.79l-1.34-1.34v-3.57l1.19-6.55-6.25-5.96-.3-3.28,2.23-1.64,6.25-.6c.26-.44.85-.54,1.79-.3l.45-.45,3.87-7.89,1.04-.6ZM69.28,38.72l-.6.3-1.19,1.19-3.57,7.15-1.49.6-7.15.89-1.79,1.19c0,1.59.6,2.58,1.79,2.98.4-.2.5,0,.3.6l.89.3,3.57,4.17-.89,7.15-.6,1.79.3.89,1.19.6h.89l8.04-4.17,8.64,4.17c.99.2,1.59,0,1.79-.6l-.3-4.17-.89-3.57v-2.38l6.55-6.55v-1.19l-1.49-1.19-8.34-1.19-4.47-7.74-1.19-1.19Z" fill="#925916" isolation="isolate" opacity=".97" stroke="#925916"/><path d="M49.18,46.77l-.15.45-.45,1.04-.15-.45.74-1.04Z" fill="#925916" isolation="isolate" opacity=".97" stroke="#925916"/><path d="M47.69,50.34l.15.74h-.3l.15-.74Z" fill="#925916" isolation="isolate" opacity=".97" stroke="#925916"/><path d="M73.3,29.19l.74.15-.74.15v-.3Z" fill="#f3cc5a" isolation="isolate" opacity=".97" stroke="#f3cc5a"/><path d="M76.28,29.79l.3.6c-.56.14-.66-.06-.3-.6Z" fill="#f3cc5a" isolation="isolate" opacity=".97" stroke="#f3cc5a"/><path d="M81.64,31.87l.74.15-.74.15v-.3Z" fill="#f3cc5a" isolation="isolate" opacity=".97" stroke="#f3cc5a"/><path d="M82.83,32.17l1.34,1.04-.45.15-.89-1.19Z" fill="#f3cc5a" isolation="isolate" opacity=".97" stroke="#f3cc5a"/><path d="M54.24,33.07l-.6.89.6-.89Z" fill="#f3cc5a" isolation="isolate" opacity=".97" stroke="#f3cc5a"/><path d="M80.45,33.36l-.3.6.3-.6Z" fill="#f3cc5a" isolation="isolate" opacity=".97" stroke="#f3cc5a"/><path d="M85.81,33.96l.3.6-.3-.6Z" fill="#f3cc5a" isolation="isolate" opacity=".97" stroke="#f3cc5a"/><path d="M86.7,34.85l1.04.74-.45-.15-.6-.6Z" fill="#f3cc5a" isolation="isolate" opacity=".97" stroke="#f3cc5a"/><path d="M50.37,36.04l-.3.6.3-.6Z" fill="#f3cc5a" isolation="isolate" opacity=".97" stroke="#f3cc5a"/><path d="M88.19,36.04l.6.89-.6-.89Z" fill="#f3cc5a" isolation="isolate" opacity=".97" stroke="#f3cc5a"/><path d="M49.18,37.24l-1.49,1.79,1.49-1.79Z" fill="#f3cc5a" isolation="isolate" opacity=".97" stroke="#f3cc5a"/><path d="M46.8,39.92l-.6.89.6-.89Z" fill="#f3cc5a" isolation="isolate" opacity=".97" stroke="#f3cc5a"/><path d="M92.06,40.21l.3.6-.3-.6Z" fill="#f3cc5a" isolation="isolate" opacity=".97" stroke="#f3cc5a"/><path d="M45.6,41.41l-.3.6.3-.6Z" fill="#f3cc5a" isolation="isolate" opacity=".97" stroke="#f3cc5a"/><path d="M93.26,42l.3.6-.3-.6Z" fill="#f3cc5a" isolation="isolate" opacity=".97" stroke="#f3cc5a"/><path d="M44.71,42.89l-.15.45-.15.45-.15-.45.45-.45Z" fill="#f3cc5a" isolation="isolate" opacity=".97" stroke="#f3cc5a"/><path d="M93.85,43.19l.3.6-.3-.6Z" fill="#f3cc5a" isolation="isolate" opacity=".97" stroke="#f3cc5a"/><path d="M76.88,49.45l.74.15-1.94,1.04.6-.89.6-.3Z" fill="#f3cc5a" isolation="isolate" opacity=".97" stroke="#f3cc5a"/><path d="M78.07,49.74l1.64.15-1.64.15v-.3Z" fill="#f3cc5a" isolation="isolate" opacity=".97" stroke="#f3cc5a"/><path d="M81.05,50.04l.74.15-.74.15v-.3Z" fill="#f3cc5a" isolation="isolate" opacity=".97" stroke="#f3cc5a"/><path d="M41.73,50.34l.15.74h-.3l.15-.74Z" fill="#f3cc5a" isolation="isolate" opacity=".97" stroke="#f3cc5a"/><path d="M82.24,50.34l1.34.15-1.34.15v-.3Z" fill="#f3cc5a" isolation="isolate" opacity=".97" stroke="#f3cc5a"/><path d="M96.83,50.64l.15.74h-.3l.15-.74Z" fill="#f3cc5a" isolation="isolate" opacity=".97" stroke="#f3cc5a"/><path d="M73.6,51.83l-.3.6.3-.6Z" fill="#f3cc5a" isolation="isolate" opacity=".97" stroke="#f3cc5a"/><path d="M97.13,52.72l.15,1.04h-.3l.15-1.04Z" fill="#f3cc5a" isolation="isolate" opacity=".97" stroke="#f3cc5a"/><path d="M71.81,53.02l-.3.6.3-.6Z" fill="#f3cc5a" isolation="isolate" opacity=".97" stroke="#f3cc5a"/><path d="M41.14,54.21l.15,1.34h-.3l.15-1.34Z" fill="#f3cc5a" isolation="isolate" opacity=".97" stroke="#f3cc5a"/><path d="M80.15,55.1l-.3.6.3-.6Z" fill="#f3cc5a" isolation="isolate" opacity=".97" stroke="#f3cc5a"/><path d="M67.35,55.4l-.3.6-.45-.15.74-.45Z" fill="#f3cc5a" isolation="isolate" opacity=".97" stroke="#f3cc5a"/><path d="M41.14,57.78l.15,1.64h-.3l.15-1.64Z" fill="#f3cc5a" isolation="isolate" opacity=".97" stroke="#f3cc5a"/><path d="M97.13,57.78l.15.74h-.3l.15-.74Z" fill="#f3cc5a" isolation="isolate" opacity=".97" stroke="#f3cc5a"/><path d="M47.39,58.38l.15.74h-.3l.15-.74Z" fill="#f3cc5a" isolation="isolate" opacity=".97" stroke="#f3cc5a"/><path d="M89.68,58.38l.15.74h-.3l.15-.74Z" fill="#f3cc5a" isolation="isolate" opacity=".97" stroke="#f3cc5a"/><path d="M42.03,63.44l.45,1.04-.6-.3.15-.74Z" fill="#f3cc5a" isolation="isolate" opacity=".97" stroke="#f3cc5a"/><path d="M87.3,64.93l-.3.6.3-.6Z" fill="#f3cc5a" isolation="isolate" opacity=".97" stroke="#f3cc5a"/><path d="M87.89,65.83l-.15.45-.45.74.15-.45.45-.74Z" fill="#f3cc5a" isolation="isolate" opacity=".97" stroke="#f3cc5a"/><path d="M50.67,66.12l.3.6-.3-.6Z" fill="#f3cc5a" isolation="isolate" opacity=".97" stroke="#f3cc5a"/><path d="M49.77,66.72l.3.6-.3-.6Z" fill="#f3cc5a" isolation="isolate" opacity=".97" stroke="#f3cc5a"/><path d="M51.26,67.02l.3.6-.3-.6Z" fill="#f3cc5a" isolation="isolate" opacity=".97" stroke="#f3cc5a"/><path d="M87,67.32l-.3.6.3-.6Z" fill="#f3cc5a" isolation="isolate" opacity=".97" stroke="#f3cc5a"/><path d="M84.92,68.21l-1.79,2.08,1.79-2.08Z" fill="#f3cc5a" isolation="isolate" opacity=".97" stroke="#f3cc5a"/><path d="M44.41,70l.3.6-.3-.6Z" fill="#f3cc5a" isolation="isolate" opacity=".97" stroke="#f3cc5a"/><path d="M84.92,70l-.6.89.6-.89Z" fill="#f3cc5a" isolation="isolate" opacity=".97" stroke="#f3cc5a"/><path d="M54.54,70.29l.3.6-.3-.6Z" fill="#f3cc5a" isolation="isolate" opacity=".97" stroke="#f3cc5a"/><path d="M81.94,70.89l-.3.6.3-.6Z" fill="#f3cc5a" isolation="isolate" opacity=".97" stroke="#f3cc5a"/><path d="M56.03,71.48l.3.6-.3-.6Z" fill="#f3cc5a" isolation="isolate" opacity=".97" stroke="#f3cc5a"/><path d="M54.54,72.08l.6.89-.6-.89Z" fill="#f3cc5a" isolation="isolate" opacity=".97" stroke="#f3cc5a"/><path d="M81.34,73.27l-.3.6.3-.6Z" fill="#f3cc5a" isolation="isolate" opacity=".97" stroke="#f3cc5a"/><path d="M80.45,73.87l-.3.6.3-.6Z" fill="#f3cc5a" isolation="isolate" opacity=".97" stroke="#f3cc5a"/><path d="M66.15,75.36l.74.15-.74.15v-.3Z" fill="#f3cc5a" isolation="isolate" opacity=".97" stroke="#f3cc5a"/><path d="M70.32,75.36l1.04.15-1.04.15v-.3Z" fill="#f3cc5a" isolation="isolate" opacity=".97" stroke="#f3cc5a"/><path d="M168.28,59.83c-.69-.59-1.5-.93-2.44-1.01-.97-.08-1.98.09-3.02.52-1.03.43-1.9,1.17-2.59,2.23.08.61.24,1.23.46,1.86.22.63.56,1.19,1.01,1.67.44.53.95.96,1.52,1.28.57.33,1.26.47,2.08.43,1.54-.08,2.64-.55,3.29-1.4.65-.86.93-1.89.85-3.11-.08-1.06-.46-1.88-1.16-2.47ZM168.28,59.83c-.69-.59-1.5-.93-2.44-1.01-.97-.08-1.98.09-3.02.52-1.03.43-1.9,1.17-2.59,2.23.08.61.24,1.23.46,1.86.22.63.56,1.19,1.01,1.67.44.53.95.96,1.52,1.28.57.33,1.26.47,2.08.43,1.54-.08,2.64-.55,3.29-1.4.65-.86.93-1.89.85-3.11-.08-1.06-.46-1.88-1.16-2.47ZM183.84,58.42c-.5-1.11-1.12-2.11-1.85-2.99-.7-.85-1.51-1.59-2.42-2.22-.12-.17-.25-.33-.38-.5-.99-1.23-2.18-2.27-3.59-3.1.7-.57,1.27-1.28,1.74-2.13.47-.86.7-1.93.7-3.24,0-1.75-.37-3.14-1.12-4.18-.76-1.03-1.66-1.84-2.72-2.41-.57-1.13-1.34-2.01-2.32-2.62-.97-.61-2.01-1.03-3.11-1.28-1.1-.24-2.11-.37-3.05-.37-3.62,0-6.68.74-9.18,2.2-2.5,1.47-4.52,3.39-6.07,5.76-1.54,2.38-2.67,4.99-3.38,7.81-.71,2.83-1.07,5.61-1.07,8.33,0,3.66.58,7.09,1.74,10.28,1.16,3.19,3.04,5.76,5.64,7.71,1.55,2.04,3.54,3.65,5.98,4.85,2.44,1.2,5.39,1.8,8.84,1.8,3.13,0,5.99-.7,8.57-2.1,2.59-1.4,4.65-3.35,6.19-5.83.19-.3.37-.61.53-.93.59-1.12,1.04-2.31,1.32-3.58.32-1.3.47-2.68.47-4.15,0-2.56-.48-4.93-1.46-7.11ZM177.5,69.25c-1.14,1.95-2.67,3.52-4.58,4.7-1.91,1.18-4.07,1.85-6.47,2.01-3.05.16-5.69-.2-7.93-1.1-2.23-.89-4.06-2.21-5.49-3.96-1.42-1.75-2.46-3.85-3.11-6.31-.65-2.46-.93-5.2-.85-8.21.04-2.48.46-5.02,1.25-7.62.79-2.61,2-4.93,3.63-6.99,1.63-2.05,3.7-3.53,6.22-4.42.9-.33,1.98-.58,3.26-.76,1.29-.19,2.54-.22,3.76-.09,1.18.16,2.21.55,3.11,1.19.89.63,1.42,1.57,1.58,2.83.08.82,0,1.59-.24,2.32s-.75,1.32-1.53,1.77c-.44.24-.91.45-1.4.61-.49.16-.97.28-1.46.37-2.12.4-3.83,1.37-5.13,2.89-1.3,1.53-2.07,3.35-2.31,5.46,1.05-1.1,2.4-1.91,4.05-2.44,1.65-.53,3.35-.75,5.1-.67,3.41.24,5.98,1.46,7.71,3.63,1.21,1.53,1.99,3.33,2.32,5.41.11.58.17,1.19.18,1.82.03.32.03.64.03.97,0,2.44-.57,4.64-1.7,6.59ZM165.84,58.82c-.97-.08-1.98.09-3.02.52-1.03.43-1.9,1.17-2.59,2.23.08.61.24,1.23.46,1.86.22.63.56,1.19,1.01,1.67.44.53.95.96,1.52,1.28.57.33,1.26.47,2.08.43,1.54-.08,2.64-.55,3.29-1.4.65-.86.93-1.89.85-3.11-.08-1.06-.46-1.88-1.16-2.47-.69-.59-1.5-.93-2.44-1.01ZM168.28,59.83c-.69-.59-1.5-.93-2.44-1.01-.97-.08-1.98.09-3.02.52-1.03.43-1.9,1.17-2.59,2.23.08.61.24,1.23.46,1.86.22.63.56,1.19,1.01,1.67.44.53.95.96,1.52,1.28.57.33,1.26.47,2.08.43,1.54-.08,2.64-.55,3.29-1.4.65-.86.93-1.89.85-3.11-.08-1.06-.46-1.88-1.16-2.47ZM168.28,59.83c-.69-.59-1.5-.93-2.44-1.01-.97-.08-1.98.09-3.02.52-1.03.43-1.9,1.17-2.59,2.23.08.61.24,1.23.46,1.86.22.63.56,1.19,1.01,1.67.44.53.95.96,1.52,1.28.57.33,1.26.47,2.08.43,1.54-.08,2.64-.55,3.29-1.4.65-.86.93-1.89.85-3.11-.08-1.06-.46-1.88-1.16-2.47Z" fill="#a56c35" stroke="#a56c35" stroke-miterlimit="10"/><path d="M179.17,61.69c-.08-.61-.14-1.21-.18-1.82-.33-2.08-1.11-3.88-2.32-5.41-1.73-2.17-4.3-3.39-7.71-3.63-1.75-.08-3.45.14-5.1.67-1.65.53-3,1.34-4.05,2.44.24-2.11,1.01-3.93,2.31-5.46,1.3-1.52,3.01-2.49,5.13-2.89.49-.09.97-.21,1.46-.37.49-.16.96-.37,1.4-.61.78-.45,1.29-1.04,1.53-1.77s.32-1.5.24-2.32c-.16-1.26-.69-2.2-1.58-2.83-.9-.64-1.93-1.03-3.11-1.19-1.22-.13-2.47-.1-3.76.09-1.28.18-2.36.43-3.26.76-2.52.89-4.59,2.37-6.22,4.42-1.63,2.06-2.84,4.38-3.63,6.99-.79,2.6-1.21,5.14-1.25,7.62-.08,3.01.2,5.75.85,8.21.65,2.46,1.69,4.56,3.11,6.31,1.43,1.75,3.26,3.07,5.49,3.96,2.24.9,4.88,1.26,7.93,1.1,2.4-.16,4.56-.83,6.47-2.01,1.91-1.18,3.44-2.75,4.58-4.7,1.13-1.95,1.7-4.15,1.7-6.59,0-.33,0-.65-.03-.97ZM168.59,65.41c-.65.85-1.75,1.32-3.29,1.4-.82.04-1.51-.1-2.08-.43-.57-.32-1.08-.75-1.52-1.28-.45-.48-.79-1.04-1.01-1.67-.22-.63-.38-1.25-.46-1.86.69-1.06,1.56-1.8,2.59-2.23,1.04-.43,2.05-.6,3.02-.52.94.08,1.75.42,2.44,1.01.7.59,1.08,1.41,1.16,2.47.08,1.22-.2,2.25-.85,3.11Z" fill="#fbefbf" stroke="#a56c35" stroke-miterlimit="10"/><path d="M201.96,53.97c-.09-1.24-.28-2.49-.58-3.75-.31-1.26-.79-2.33-1.44-3.2-.65-.88-1.52-1.31-2.62-1.31-1.18,0-2.09.39-2.75,1.19-.65.79-1.1,1.79-1.37,2.98-.26,1.21-.42,2.39-.49,3.57-.06,1.18-.09,2.18-.09,2.99,0,.73.04,1.73.12,2.99.09,1.26.28,2.52.58,3.78.31,1.26.78,2.33,1.41,3.21.63.87,1.49,1.31,2.59,1.31,1.83,0,3.07-.95,3.72-2.84.65-1.89,1-4.52,1.04-7.9,0-.77-.04-1.78-.12-3.02ZM199.03,56.99c0,.69,0,1.43-.03,2.2s-.09,1.56-.22,2.38c-.04-.41-.06-.79-.06-1.13v-.95c0-.65.01-1.38.03-2.19.02-.82.09-1.61.22-2.38.04.4.06.78.06,1.13v.94ZM201.96,53.97c-.09-1.24-.28-2.49-.58-3.75-.31-1.26-.79-2.33-1.44-3.2-.65-.88-1.52-1.31-2.62-1.31-1.18,0-2.09.39-2.75,1.19-.65.79-1.1,1.79-1.37,2.98-.26,1.21-.42,2.39-.49,3.57-.06,1.18-.09,2.18-.09,2.99,0,.73.04,1.73.12,2.99.09,1.26.28,2.52.58,3.78.31,1.26.78,2.33,1.41,3.21.63.87,1.49,1.31,2.59,1.31,1.83,0,3.07-.95,3.72-2.84.65-1.89,1-4.52,1.04-7.9,0-.77-.04-1.78-.12-3.02ZM199.03,56.99c0,.69,0,1.43-.03,2.2s-.09,1.56-.22,2.38c-.04-.41-.06-.79-.06-1.13v-.95c0-.65.01-1.38.03-2.19.02-.82.09-1.61.22-2.38.04.4.06.78.06,1.13v.94ZM218.15,51.93c-.47-2.44-1.26-4.73-2.38-6.86-1.12-2.14-2.65-3.94-4.6-5.4-1.39-1.87-3.2-3.38-5.43-4.52-2.24-1.13-4.96-1.7-8.18-1.7-3.01,0-5.58.49-7.71,1.49-2.14,1-3.92,2.33-5.34,4-1.42,1.66-2.54,3.54-3.35,5.64-.82,2.09-1.4,4.26-1.74,6.49-.09.55-.16,1.1-.23,1.64-.19,1.66-.29,3.27-.29,4.83,0,.78.03,1.55.09,2.33.04.61.1,1.21.18,1.82.12.93.28,1.87.49,2.8.51,2.32,1.31,4.51,2.41,6.56.42.79.9,1.52,1.44,2.21.85,1.11,1.86,2.09,3.01,2.95,1.47,1.87,3.31,3.38,5.52,4.54,2.22,1.16,4.91,1.74,8.09,1.74,2.88,0,5.39-.47,7.53-1.4,2.13-.94,3.91-2.21,5.34-3.82,1.42-1.6,2.57-3.42,3.44-5.46.88-2.03,1.5-4.14,1.86-6.34.37-2.2.55-4.33.55-6.4,0-2.32-.23-4.7-.7-7.14ZM211.84,63.7c-.53,2.36-1.39,4.5-2.56,6.41-1.18,1.91-2.75,3.42-4.7,4.54-1.95,1.12-4.37,1.7-7.26,1.74-2.52.04-4.75-.4-6.68-1.31-1.93-.92-3.55-2.25-4.85-4-.34-.45-.67-.91-.96-1.4-2.11-3.42-3.06-7.83-2.88-13.24.01-.34.02-.68.04-1.01.09-2.1.37-4.16.84-6.19.55-2.35,1.43-4.5,2.63-6.43,1.19-1.93,2.77-3.47,4.72-4.61,1.95-1.13,4.33-1.7,7.14-1.7,2.52-.04,4.76.39,6.71,1.31,1.95.91,3.58,2.22,4.88,3.93,1.3,1.75,2.28,3.88,2.93,6.38.65,2.5.95,5.27.91,8.32-.08,2.48-.38,4.9-.91,7.26ZM201.38,50.22c-.31-1.26-.79-2.33-1.44-3.2-.65-.88-1.52-1.31-2.62-1.31-1.18,0-2.09.39-2.75,1.19-.65.79-1.1,1.79-1.37,2.98-.26,1.21-.42,2.39-.49,3.57-.06,1.18-.09,2.18-.09,2.99,0,.73.04,1.73.12,2.99.09,1.26.28,2.52.58,3.78.31,1.26.78,2.33,1.41,3.21.63.87,1.49,1.31,2.59,1.31,1.83,0,3.07-.95,3.72-2.84.65-1.89,1-4.52,1.04-7.9,0-.77-.04-1.78-.12-3.02-.09-1.24-.28-2.49-.58-3.75ZM199.03,56.99c0,.69,0,1.43-.03,2.2s-.09,1.56-.22,2.38c-.04-.41-.06-.79-.06-1.13v-.95c0-.65.01-1.38.03-2.19.02-.82.09-1.61.22-2.38.04.4.06.78.06,1.13v.94ZM201.96,53.97c-.09-1.24-.28-2.49-.58-3.75-.31-1.26-.79-2.33-1.44-3.2-.65-.88-1.52-1.31-2.62-1.31-1.18,0-2.09.39-2.75,1.19-.65.79-1.1,1.79-1.37,2.98-.26,1.21-.42,2.39-.49,3.57-.06,1.18-.09,2.18-.09,2.99,0,.73.04,1.73.12,2.99.09,1.26.28,2.52.58,3.78.31,1.26.78,2.33,1.41,3.21.63.87,1.49,1.31,2.59,1.31,1.83,0,3.07-.95,3.72-2.84.65-1.89,1-4.52,1.04-7.9,0-.77-.04-1.78-.12-3.02ZM199.03,56.99c0,.69,0,1.43-.03,2.2s-.09,1.56-.22,2.38c-.04-.41-.06-.79-.06-1.13v-.95c0-.65.01-1.38.03-2.19.02-.82.09-1.61.22-2.38.04.4.06.78.06,1.13v.94ZM201.96,53.97c-.09-1.24-.28-2.49-.58-3.75-.31-1.26-.79-2.33-1.44-3.2-.65-.88-1.52-1.31-2.62-1.31-1.18,0-2.09.39-2.75,1.19-.65.79-1.1,1.79-1.37,2.98-.26,1.21-.42,2.39-.49,3.57-.06,1.18-.09,2.18-.09,2.99,0,.73.04,1.73.12,2.99.09,1.26.28,2.52.58,3.78.31,1.26.78,2.33,1.41,3.21.63.87,1.49,1.31,2.59,1.31,1.83,0,3.07-.95,3.72-2.84.65-1.89,1-4.52,1.04-7.9,0-.77-.04-1.78-.12-3.02ZM199.03,56.99c0,.69,0,1.43-.03,2.2s-.09,1.56-.22,2.38c-.04-.41-.06-.79-.06-1.13v-.95c0-.65.01-1.38.03-2.19.02-.82.09-1.61.22-2.38.04.4.06.78.06,1.13v.94Z" fill="#a56c35" stroke="#a56c35" stroke-miterlimit="10"/><path d="M211.84,48.12c-.65-2.5-1.63-4.63-2.93-6.38-1.3-1.71-2.93-3.02-4.88-3.93-1.95-.92-4.19-1.35-6.71-1.31-2.81,0-5.19.57-7.14,1.7-1.95,1.14-3.53,2.68-4.72,4.61-1.2,1.93-2.08,4.08-2.63,6.43-.47,2.03-.75,4.09-.84,6.19.73.88,1.35,1.88,1.85,2.99.98,2.18,1.46,4.55,1.46,7.11,0,1.47-.15,2.85-.47,4.15.29.49.62.95.96,1.4,1.3,1.75,2.92,3.08,4.85,4,1.93.91,4.16,1.35,6.68,1.31,2.89-.04,5.31-.62,7.26-1.74,1.95-1.12,3.52-2.63,4.7-4.54,1.17-1.91,2.03-4.05,2.56-6.41.53-2.36.83-4.78.91-7.26.04-3.05-.26-5.82-.91-8.32ZM201.04,64.89c-.65,1.89-1.89,2.84-3.72,2.84-1.1,0-1.96-.44-2.59-1.31-.63-.88-1.1-1.95-1.41-3.21-.3-1.26-.49-2.52-.58-3.78-.08-1.26-.12-2.26-.12-2.99,0-.81.03-1.81.09-2.99.07-1.18.23-2.36.49-3.57.27-1.19.72-2.19,1.37-2.98.66-.8,1.57-1.19,2.75-1.19,1.1,0,1.97.43,2.62,1.31.65.87,1.13,1.94,1.44,3.2.3,1.26.49,2.51.58,3.75.08,1.24.12,2.25.12,3.02-.04,3.38-.39,6.01-1.04,7.9Z" fill="#fbefbf" stroke="#a56c35" stroke-miterlimit="10"/><path d="M138.86,58.09c-.73-1.1-1.65-1.93-2.74-2.5-.58-1.06-1.32-1.89-2.23-2.5-.92-.61-1.92-1.08-3.02-1.41-.29-.73-.7-1.44-1.25-2.13s-1.27-1.24-2.17-1.65c-.45-.93-1.12-1.77-2.04-2.5-.91-.73-2.13-1.1-3.63-1.1-2.16,0-3.73.72-4.73,2.14-.99,1.42-1.63,3.05-1.92,4.88-.16,0-.28.02-.36.06-2.2.24-4.05,1-5.56,2.26-1.5,1.26-2.25,3.11-2.25,5.55,0,1.67.36,3.05,1.1,4.15.73,1.09,1.64,1.95,2.74,2.56.77,1.5,1.99,2.6,3.66,3.29l1.22.55c.28.77.71,1.54,1.28,2.29.57.75,1.3,1.33,2.2,1.74.44.89,1.13,1.71,2.04,2.47.92.75,2.13,1.13,3.63,1.13,1.42,0,2.6-.34,3.54-1.01.93-.67,1.65-1.56,2.13-2.65.49-1.1.84-2.26,1.04-3.48.08-.04.2-.06.37-.06,1.5-.25,2.86-.65,4.08-1.22,1.22-.57,2.19-1.4,2.9-2.47.71-1.08,1.07-2.49,1.07-4.24s-.37-3.05-1.1-4.15ZM132.52,62.6c-.9.78-2.12,1.24-3.66,1.41-.53.08-1.06.14-1.59.18-.53.04-1.06.08-1.59.12l-.18,1.95c-.16,1.55-.53,2.77-1.1,3.66-.57.9-1.44,1.34-2.62,1.34s-2.05-.44-2.62-1.34c-.57-.89-.94-2.11-1.1-3.66l-.18-1.95c-1.18-.08-2.37-.22-3.57-.43-1.2-.2-2.22-.66-3.05-1.37-.84-.71-1.25-1.82-1.25-3.32s.41-2.6,1.25-3.3c.83-.69,1.85-1.13,3.05-1.34,1.2-.2,2.39-.34,3.57-.43l.18-1.76c.16-1.55.53-2.77,1.1-3.66.57-.9,1.44-1.35,2.62-1.35s2.05.45,2.62,1.35c.57.89.94,2.11,1.1,3.66l.18,1.76c.49.05,1.01.1,1.56.16.55.06,1.09.11,1.62.15,1.54.2,2.76.67,3.66,1.4.89.73,1.34,1.85,1.34,3.36s-.45,2.64-1.34,3.41Z" fill="#a56c35" stroke="#a56c35" stroke-miterlimit="10"/><path d="M133.86,59.19c0,1.5-.45,2.64-1.34,3.41-.9.78-2.12,1.24-3.66,1.41-.53.08-1.06.14-1.59.18-.53.04-1.06.08-1.59.12l-.18,1.95c-.16,1.55-.53,2.77-1.1,3.66-.57.9-1.44,1.34-2.62,1.34s-2.05-.44-2.62-1.34c-.57-.89-.94-2.11-1.1-3.66l-.18-1.95c-1.18-.08-2.37-.22-3.57-.43-1.2-.2-2.22-.66-3.05-1.37-.84-.71-1.25-1.82-1.25-3.32s.41-2.6,1.25-3.3c.83-.69,1.85-1.13,3.05-1.34,1.2-.2,2.39-.34,3.57-.43l.18-1.76c.16-1.55.53-2.77,1.1-3.66.57-.9,1.44-1.35,2.62-1.35s2.05.45,2.62,1.35c.57.89.94,2.11,1.1,3.66l.18,1.76c.49.05,1.01.1,1.56.16.55.06,1.09.11,1.62.15,1.54.2,2.76.67,3.66,1.4.89.73,1.34,1.85,1.34,3.36Z" fill="#fbefbf" stroke="#a56c35" stroke-miterlimit="10"/><path d="M294.63,18.72l-54.19,5.99c-6.24.69-10.96,5.96-10.96,12.24v41.31c0,5.79,4.69,10.47,10.47,10.47h55.32c6.16,0,11.15-4.99,11.15-11.15V29.28c0-6.33-5.5-11.26-11.79-10.56ZM244.42,35.29h-8.06c-.75,0-1.1-.92-.55-1.42l4.91-4.44c.36-.33.93-.26,1.21.13l3.15,4.45c.39.53,0,1.28-.66,1.28ZM256.04,34.64l-2.28-4.32c-.38-.74.07-1.63.89-1.76l4.19-.65c.47-.07.94.14,1.2.53l3.27,4.97c.53.81-.04,1.88-1.01,1.88h-5.19c-.45,0-.86-.25-1.07-.65ZM278,61.65l-15.85,9.78c-1.89,1.16-4.33-.2-4.33-2.42v-20.06c0-1.58,1.74-2.55,3.08-1.72l17.1,10.54c1.44.89,1.44,2.99,0,3.88ZM279.87,35.29h-3.15c-.68,0-1.31-.38-1.64-.97l-2.89-5.24c-.59-1.08,0-2.43,1.19-2.73l2.99-.74c.85-.22,1.74.19,2.13.97l3.04,5.98c.64,1.25-.27,2.73-1.67,2.73ZM299.26,35.29h-4.95c-.51,0-.97-.29-1.19-.74l-3.63-7.4c-.44-.88.21-1.91,1.19-1.91h3.94c.46,0,.88.24,1.13.62l4.63,7.4c.55.88-.08,2.03-1.12,2.03Z" fill="url(#linear-gradient-3)" stroke="#a56c35" stroke-miterlimit="10" stroke-width="3"/><path d="M306.46,85.93c-.25-.38-.51-.75-.8-1.11-.09-.09-.14-.15-.16-.2l1.3-1.7c.26-.32.51-.69.75-1.11.13-.22.25-.46.37-.72.34-.73.52-1.51.52-2.33,0-.75-.19-1.46-.55-2.13-.11-.2-.23-.38-.36-.54-.27-.34-.6-.62-.98-.83-.08-.04-.16-.09-.24-.13-.29-.57-.71-1.06-1.28-1.45-.56-.39-1.26-.58-2.08-.58-1.02,0-1.9.26-2.63.79-.73.52-1.42,1.13-2.06,1.84-.62-.71-1.29-1.32-2.01-1.83-.72-.51-1.58-.77-2.58-.77-.91,0-1.67.22-2.3.67-.62.45-1.08,1.01-1.38,1.7-.3.69-.45,1.37-.45,2.06,0,1.09.26,2.09.76,3.01.51.92,1.09,1.78,1.73,2.57l-.97,1.27c-.42.56-.81,1.2-1.16,1.93-.35.73-.53,1.54-.53,2.43,0,.74.19,1.45.55,2.15.37.7.91,1.23,1.61,1.61.29.55.72,1.03,1.3,1.43.57.4,1.27.6,2.09.6s1.54-.17,2.17-.5c.62-.33,1.14-.71,1.56-1.13.16-.11.29-.23.41-.37.13-.14.24-.27.35-.4.57.64,1.23,1.2,1.96,1.68.74.47,1.55.71,2.47.71s1.73-.23,2.33-.7c.51-.4.91-.88,1.2-1.45.04-.09.09-.19.13-.29.25-.6.39-1.19.43-1.77,0-.09,0-.17,0-.26,0-1.02-.22-1.96-.67-2.83-.24-.47-.5-.92-.8-1.36ZM304.59,88.45c0,.85-.23,1.52-.7,2.03-.46.51-1.04.77-1.73.77-.51,0-1.06-.17-1.66-.5-.6-.33-1.18-.86-1.73-1.6l-1.04-1.33-1.03,1.33c-.57.76-1.16,1.29-1.76,1.61-.6.32-1.16.49-1.7.49-.64,0-1.18-.23-1.6-.68-.42-.46-.63-1.05-.63-1.78,0-.46.1-.98.3-1.54.2-.57.55-1.16,1.03-1.78l1.8-2.3-1.5-1.93c-.51-.67-.88-1.31-1.11-1.93s-.35-1.2-.35-1.73c0-.82.23-1.49.71-2,.47-.51,1.06-.77,1.75-.77.51,0,1.05.16,1.63.49s1.15.85,1.73,1.58l1.23,1.59,1.23-1.59c.57-.76,1.17-1.29,1.78-1.61.61-.32,1.17-.49,1.68-.49.62,0,1.13.21,1.55.63.41.43.62.99.62,1.7,0,.43-.1.91-.3,1.45-.2.54-.52,1.1-.97,1.68l-2.13,2.73,1.43,1.83c.51.67.88,1.31,1.11,1.93.14.37.24.73.29,1.07.03.21.05.41.05.61v.05Z" fill="#a56c35" stroke="#a56c35" stroke-miterlimit="10"/><path d="M303.83,80.24l-2.13,2.73,1.43,1.83c.51.67.88,1.31,1.11,1.93.14.37.24.73.29,1.07,0,.21.02.41.05.61v.05c0,.85-.23,1.52-.7,2.03-.46.51-1.04.77-1.73.77-.51,0-1.06-.17-1.66-.5-.6-.33-1.18-.86-1.73-1.6l-1.04-1.33-1.03,1.33c-.57.76-1.16,1.29-1.76,1.61-.6.32-1.16.49-1.7.49-.64,0-1.18-.23-1.6-.68-.42-.46-.63-1.05-.63-1.78,0-.46.1-.98.3-1.54.2-.57.55-1.16,1.03-1.78l1.8-2.3-1.5-1.93c-.51-.67-.88-1.31-1.11-1.93s-.35-1.2-.35-1.73c0-.82.23-1.49.71-2,.47-.51,1.06-.77,1.75-.77.51,0,1.05.16,1.63.49s1.15.85,1.73,1.58l1.23,1.59,1.23-1.59c.57-.76,1.17-1.29,1.78-1.61.61-.32,1.17-.49,1.68-.49.62,0,1.13.21,1.55.63.41.43.62.99.62,1.7,0,.43-.1.91-.3,1.45-.2.54-.52,1.1-.97,1.68Z" fill="#fbefbf" stroke="#a56c35" stroke-miterlimit="10"/><path d="M323.35,79.6c.4-.98.6-1.99.6-3.03,0-1.11-.27-2.21-.81-3.31-.55-1.1-1.28-1.96-2.21-2.58l-.1-.17c-.62-.86-1.4-1.52-2.33-1.96-.93-.45-1.89-.75-2.86-.9-.98-.15-1.83-.23-2.56-.23-.64,0-1.33.01-2.06.03-.73.02-1.45.11-2.16.27-1.11.22-1.95.71-2.53,1.48-.58.76-.86,1.67-.86,2.71,0,.82.17,1.64.53,2.46.14.33.32.63.54.89.27.33.59.61.98.83.08.05.16.1.25.14.33.59.8,1.1,1.4,1.51.6.41,1.36.62,2.3.62l-.4.4c-.4.38-.82.75-1.26,1.1-.45.35-.88.72-1.3,1.1-.31.26-.63.55-.95.85-.27.25-.55.52-.83.81-.61.62-1.12,1.33-1.54,2.13-.42.8-.63,1.71-.63,2.73,0,.1,0,.21.01.31.03.21.05.41.05.61.09.63.28,1.18.57,1.65.42.69.98,1.23,1.66,1.63.16.28.34.53.53.75.33.37.7.68,1.13.91.69.38,1.43.63,2.24.76.81.14,1.6.2,2.38.2l5.55-.03c1.31,0,2.41-.38,3.29-1.13.89-.75,1.33-1.87,1.33-3.36,0-.93-.2-1.67-.6-2.21-.4-.55-.87-.96-1.43-1.25-.31-.67-.79-1.17-1.43-1.53.69-.75,1.35-1.56,1.98-2.43.63-.87,1.15-1.78,1.54-2.76ZM319.55,78.52c-.68,1.18-1.59,2.38-2.73,3.59-1.15,1.21-2.44,2.44-3.88,3.68h4.09c.6,0,1.13.09,1.58.25.45.17.8.45,1.05.85.16.26.25.61.27,1.03.02.42-.02.82-.11,1.21-.1.39-.25.7-.45.92-.31.31-.67.54-1.06.68-.4.15-.83.22-1.3.22l-5.55.03c-.58,0-1.15-.02-1.72-.07-.56-.04-1.1-.19-1.61-.44-.07-.03-.14-.07-.21-.11-.31-.16-.62-.38-.93-.65-.38-.33-.62-.77-.73-1.33-.02-.13-.04-.33-.05-.58-.01-.25,0-.55.02-.88.04-.34.11-.67.23-.99.16-.46.41-.91.75-1.34.57-.73,1.16-1.35,1.78-1.87,1.27-1.02,2.33-1.93,3.21-2.73.87-.8,1.52-1.7,1.95-2.69.15-.35.21-.75.16-1.18-.04-.43-.29-.73-.73-.88-.49-.16-.97-.24-1.43-.25-.47-.01-1.13,0-2,.05-.87.07-1.57-.14-2.1-.62-.53-.47-.83-1.17-.89-2.08-.09-.82.04-1.49.4-2.01.35-.52.89-.85,1.6-.98,1.06-.18,2.37-.27,3.92-.27,1.29,0,2.53.19,3.73.57,1.19.38,2.08.99,2.66,1.83.8,1.16,1.18,2.32,1.15,3.5-.03,1.17-.39,2.36-1.06,3.55Z" fill="#a56c35" stroke="#a56c35" stroke-miterlimit="10"/><path d="M319.66,86.89c.16.26.25.61.27,1.03.02.42-.02.82-.11,1.21-.1.39-.25.7-.45.92-.31.31-.67.54-1.06.68-.4.15-.83.22-1.3.22l-5.55.03c-.58,0-1.15-.02-1.72-.07-.56-.04-1.1-.19-1.61-.44-.07-.03-.14-.07-.21-.11,0-.09,0-.17,0-.26,0-1.02-.22-1.96-.67-2.83-.24-.47-.5-.92-.8-1.36.16-.46.41-.91.75-1.34.57-.73,1.16-1.35,1.78-1.87,1.27-1.02,2.33-1.93,3.21-2.73.87-.8,1.52-1.7,1.95-2.69.15-.35.21-.75.16-1.18-.04-.43-.29-.73-.73-.88-.49-.16-.97-.24-1.43-.25-.47-.01-1.13,0-2,.05-.87.07-1.57-.14-2.1-.62-.53-.47-.83-1.17-.89-2.08-.09-.82.04-1.49.4-2.01.35-.52.89-.85,1.6-.98,1.06-.18,2.37-.27,3.92-.27,1.29,0,2.53.19,3.73.57,1.19.38,2.08.99,2.66,1.83.8,1.16,1.18,2.32,1.15,3.5-.03,1.17-.39,2.36-1.06,3.55-.68,1.18-1.59,2.38-2.73,3.59-1.15,1.21-2.44,2.44-3.88,3.68h4.09c.6,0,1.13.09,1.58.25.45.17.8.45,1.05.85Z" fill="#fbefbf" stroke="#a56c35" stroke-miterlimit="10"/></g></svg>