<?xml version="1.0" encoding="UTF-8"?><svg id="Layer_2" xmlns="http://www.w3.org/2000/svg" viewBox="0 0 424.09 62.17"><g id="Layer_1-2"><path d="M5.28,0l.31,8.39c1.12,4.27,3.09,7.69,5.91,10.26l7.46,5.6,16.17,6.84h1.24l1.24.62,1.55-.62.31,1.24,1.87-.62c.62,1.45,1.24,1.66,1.87.62,1.37-.46,1.89-.15,1.55.93l.93-.31c2.4-.54,3.85-.12,4.35,1.24l2.49-.62,1.87,1.24c.62-1.04,2.07-1.24,4.35-.62,1.2,1.08,3.07,1.49,5.6,1.24l.62-.62h6.22l2.49.62,1.87-1.24h1.24c1.99-.5,3.23-.29,3.73.62.83-1.24,2.49-1.66,4.97-1.24.62,1.04,1.24.83,1.87-.62l4.97-.62c.62,1.04,1.24.83,1.87-.62l2.18.62c-.46-1.12-.15-1.53.93-1.24l1.24.62,16.17-6.22,10.57,11.19,3.11,2.49.62-.62,1.87,1.87,3.11,2.49h1.24l8.08,4.35h1.24l4.35,1.87,8.7,1.87,15.54.62,10.57-1.87,3.73-1.87c.62,1.04,1.24.83,1.87-.62,4.89-.91,8.83-2.78,11.81-5.6l.93.31v-.93h1.87v-1.24c1.58.62,2.2.31,1.87-.93.83-1.53,1.66-1.95,2.49-1.24l2.8-3.42c.5.95,1.02.85,1.55-.31-.29-.91.02-1.22.93-.93l.93-1.87c1.12.46,1.53.15,1.24-.93l2.8-3.42c1.08.33,1.39-.19.93-1.55l1.87-.93v-1.87c1.24.54,1.66.02,1.24-1.55l1.87-2.8,12.12,3.73,11.19,1.24.62.62h1.24l18.65.62.62-.62h8.08l.62-.62,11.19-1.24,4.35-1.87,2.18,1.55c1.24,3.11,3.21,5.49,5.91,7.15l8.7,5.6h2.18l.31,1.24h1.24l10.57,3.11,1.24,1.24,1.24-.62,9.33,2.49,10.57.62,3.73,1.24.62-.62,19.27-.62,13.68-2.49c.62,1.04,1.24.83,1.87-.62l4.97-1.24.93.31c-.37-1.24.35-1.55,2.18-.93l1.55-.31c-.33-1.08.19-1.39,1.55-.93l1.87-1.24c.54.95,1.06.85,1.55-.31-.29-.91.02-1.22.93-.93h1.24c4.85-1.99,8.89-4.79,12.12-8.39l4.97-8.7.31-10.26c3.11,3.32,4.46,8.39,4.04,15.23-1.87,7.67-5.7,13.37-11.5,17.1l-9.95,6.22-10.57,4.35-8.7,2.49-9.95,1.87h-4.35l-.62.62-18.65.62-.62-.62h-8.08l-.62-.62-8.08-.62-18.65-4.97c-8.83-3.19-16.08-7.96-21.76-14.3h-3.11l-12.43,2.49-19.9.62-.62-.62h-8.08l-.62-.62-8.08-.62-14.61-3.73c-1.53,5.64-4.33,10.2-8.39,13.68l-9.95,7.46-14.3,6.22-14.92,3.11-13.68.62-.62-.62h-7.46l-.62-.62-7.46-.62-12.43-3.73c-9.04-3.4-16.39-8.48-22.07-15.23l-1.55-2.18-8.7,3.73-17.41,3.73c-2.61-.7-4.27-.5-4.97.62h-24.87l-.62-.62h-4.97l-10.57-1.87-12.43-3.73-14.3-7.46-7.77-7.77-3.73-6.84-.62-8.7C.83,5.91,2.59,2.49,5.28,0Z" fill="#425f89"/></g></svg>