<?xml version="1.0" encoding="UTF-8"?><svg id="Layer_2" xmlns="http://www.w3.org/2000/svg" xmlns:xlink="http://www.w3.org/1999/xlink" viewBox="0 0 338.01 155.27"><defs><linearGradient id="linear-gradient" x1="169" y1="0" x2="169" y2="143.67" gradientUnits="userSpaceOnUse"><stop offset="0" stop-color="#ffea91"/><stop offset=".33" stop-color="#fee68e"/><stop offset=".6" stop-color="#fddc84"/><stop offset=".84" stop-color="#fbcc75"/><stop offset="1" stop-color="#fabc67"/></linearGradient><linearGradient id="linear-gradient-2" x1="169.22" y1="13.27" x2="169.22" y2="129.48" gradientUnits="userSpaceOnUse"><stop offset="0" stop-color="#fcd45a"/><stop offset=".31" stop-color="#fcd156"/><stop offset=".57" stop-color="#fcc84c"/><stop offset=".8" stop-color="#fdba3c"/><stop offset="1" stop-color="#fea726"/></linearGradient></defs><g id="Layer_1-2"><rect y="0" width="338.01" height="155.27" rx="43.32" ry="43.32" fill="#bb8339"/><rect width="338.01" height="143.67" rx="42.3" ry="42.3" fill="url(#linear-gradient)"/><rect x="12.87" y="13.27" width="312.7" height="116.21" rx="32.43" ry="32.43" fill="url(#linear-gradient-2)" stroke="#cf8216" stroke-miterlimit="10" stroke-width="3"/><path d="M87.03,64.82c-.78-1.18-1.73-2.1-2.87-2.75-.05-.09-.1-.18-.16-.26-.79-1.33-1.89-2.33-3.29-3-.04-.02-.09-.04-.13-.06-1.44-.67-2.94-1.01-4.47-1.01-.49,0-.92-.06-1.28-.18-.25-.69-.37-1.48-.37-2.38,0-1.75.4-3.11,1.19-4.09.79-.97,1.7-1.46,2.72-1.46.89,0,1.88-.11,2.95-.34.52-.11,1.03-.25,1.53-.44.54-.2,1.07-.45,1.59-.75.99-.56,1.81-1.38,2.47-2.44.36-.58.62-1.26.77-2.02.14-.61.2-1.28.2-2,0-1.63-.38-3.01-1.13-4.15s-1.7-2.03-2.83-2.68c-.61-1.18-1.46-2.11-2.53-2.78-1.08-.67-2.27-1.15-3.57-1.43-1.31-.29-2.57-.43-3.79-.43-3.33,0-6.29.63-8.87,1.89-2.58,1.26-4.77,2.98-6.56,5.16-1.79,2.17-3.14,4.62-4.05,7.35-.92,2.72-1.38,5.55-1.38,8.47,0,3.58.67,6.93,2.02,10.04,1.34,3.11,3.29,5.66,5.85,7.65,1.75,2.24,3.95,4.01,6.59,5.31,2.64,1.3,5.69,1.95,9.15,1.95.85,0,1.92-.12,3.2-.36,1.28-.25,2.54-.68,3.78-1.31,1.24-.63,2.29-1.53,3.15-2.69.23-.31.43-.65.59-1.01.46-.98.69-2.13.69-3.47v-.16c-.03-1.64-.41-3.03-1.16-4.17ZM79.77,70.31c-1.55,1.06-3.56,1.58-6.04,1.58-2.97,0-5.55-.52-7.75-1.58-2.19-1.06-4.01-2.48-5.46-4.27-1.44-1.79-2.52-3.8-3.23-6.04-.71-2.24-1.07-4.55-1.07-6.96s.38-4.83,1.13-7.19c.75-2.36,1.87-4.5,3.36-6.41,1.48-1.91,3.34-3.42,5.58-4.54,2.23-1.12,4.82-1.68,7.74-1.68,2.57,0,4.5.49,5.8,1.46,1.3.98,1.95,2.28,1.95,3.91,0,1.5-.53,2.7-1.58,3.6-1.06.89-2.69,1.34-4.88,1.34-1.51,0-2.78.42-3.82,1.25-1.03.83-1.82,1.91-2.35,3.23-.52,1.33-.79,2.7-.79,4.12s.28,2.86.83,4.18c.54,1.32,1.39,2.4,2.53,3.23,1.13.84,2.6,1.25,4.39,1.25s3.23.49,4.33,1.47c.28.25.53.52.74.82.53.72.82,1.57.89,2.56.01.15.02.3.02.46,0,1.75-.78,3.15-2.32,4.21Z" fill="#a56c35"/><path d="M82.09,66.1c0,1.75-.78,3.15-2.32,4.21-1.55,1.06-3.56,1.58-6.04,1.58-2.97,0-5.55-.52-7.75-1.58-2.19-1.06-4.01-2.48-5.46-4.27-1.44-1.79-2.52-3.8-3.23-6.04-.71-2.24-1.07-4.55-1.07-6.96s.38-4.83,1.13-7.19c.75-2.36,1.87-4.5,3.36-6.41,1.48-1.91,3.34-3.42,5.58-4.54,2.23-1.12,4.82-1.68,7.74-1.68,2.57,0,4.5.49,5.8,1.46,1.3.98,1.95,2.28,1.95,3.91,0,1.5-.53,2.7-1.58,3.6-1.06.89-2.69,1.34-4.88,1.34-1.51,0-2.78.42-3.82,1.25-1.03.83-1.82,1.91-2.35,3.23-.52,1.33-.79,2.7-.79,4.12s.28,2.86.83,4.18c.54,1.32,1.39,2.4,2.53,3.23,1.13.84,2.6,1.25,4.39,1.25s3.23.49,4.33,1.47c.28.25.53.52.74.82.23.89.52,1.74.89,2.56.01.15.02.3.02.46Z" fill="#fbefbf"/><path d="M100.84,54.57c-.83-.98-1.94-1.46-3.32-1.46s-2.5.48-3.36,1.46c-.85.98-1.28,2.28-1.28,3.9s.43,2.94,1.28,3.94c.86,1,1.98,1.49,3.36,1.49s2.49-.49,3.32-1.49c.84-1,1.25-2.31,1.25-3.94s-.41-2.92-1.25-3.9ZM100.84,54.57c-.83-.98-1.94-1.46-3.32-1.46s-2.5.48-3.36,1.46c-.85.98-1.28,2.28-1.28,3.9s.43,2.94,1.28,3.94c.86,1,1.98,1.49,3.36,1.49s2.49-.49,3.32-1.49c.84-1,1.25-2.31,1.25-3.94s-.41-2.92-1.25-3.9ZM100.84,54.57c-.83-.98-1.94-1.46-3.32-1.46s-2.5.48-3.36,1.46c-.85.98-1.28,2.28-1.28,3.9s.43,2.94,1.28,3.94c.86,1,1.98,1.49,3.36,1.49s2.49-.49,3.32-1.49c.84-1,1.25-2.31,1.25-3.94s-.41-2.92-1.25-3.9ZM100.84,54.57c-.83-.98-1.94-1.46-3.32-1.46s-2.5.48-3.36,1.46c-.85.98-1.28,2.28-1.28,3.9s.43,2.94,1.28,3.94c.86,1,1.98,1.49,3.36,1.49s2.49-.49,3.32-1.49c.84-1,1.25-2.31,1.25-3.94s-.41-2.92-1.25-3.9ZM115.54,53.04c-.14-.31-.29-.6-.45-.9-.74-1.36-1.64-2.57-2.7-3.61-.49-.48-1.01-.93-1.57-1.34-1.47-1.95-3.34-3.49-5.62-4.61-2.27-1.11-4.88-1.67-7.8-1.67-3.42,0-6.39.74-8.91,2.22-.28.16-.55.33-.81.51-2.01,1.35-3.62,3.09-4.83,5.21-.08.13-.15.25-.22.38-1.38,2.59-2.07,5.52-2.07,8.82,0,.24,0,.47.02.7.04,1.52.24,2.97.6,4.33.23.89.52,1.74.89,2.56.06.16.13.31.2.46,1.14,2.4,2.7,4.35,4.7,5.86.17.23.34.45.53.66,1.37,1.64,3.08,2.95,5.11,3.94,2.3,1.12,4.91,1.68,7.84,1.68,3.41,0,6.38-.74,8.9-2.23,1.87-1.1,3.42-2.5,4.65-4.21.43-.59.83-1.22,1.18-1.89.22-.42.43-.86.61-1.3.95-2.26,1.43-4.76,1.43-7.51,0-2.97-.56-5.65-1.68-8.06ZM109.41,65.43c-1.14,2.11-2.73,3.76-4.79,4.94-2.05,1.18-4.46,1.77-7.22,1.77s-5.19-.59-7.26-1.77c-.71-.4-1.36-.86-1.95-1.38-1.16-.97-2.12-2.17-2.87-3.56-.6-1.11-1.04-2.32-1.32-3.62-.26-1.18-.39-2.43-.39-3.76,0-2.81.57-5.27,1.71-7.38,1.14-2.12,2.74-3.76,4.82-4.94,2.07-1.18,4.49-1.77,7.26-1.77s5.17.59,7.22,1.77c2.06,1.18,3.65,2.82,4.79,4.94,1.14,2.11,1.71,4.57,1.71,7.38s-.57,5.26-1.71,7.38ZM97.52,53.11c-1.38,0-2.5.48-3.36,1.46-.85.98-1.28,2.28-1.28,3.9s.43,2.94,1.28,3.94c.86,1,1.98,1.49,3.36,1.49s2.49-.49,3.32-1.49c.84-1,1.25-2.31,1.25-3.94s-.41-2.92-1.25-3.9c-.83-.98-1.94-1.46-3.32-1.46ZM100.84,54.57c-.83-.98-1.94-1.46-3.32-1.46s-2.5.48-3.36,1.46c-.85.98-1.28,2.28-1.28,3.9s.43,2.94,1.28,3.94c.86,1,1.98,1.49,3.36,1.49s2.49-.49,3.32-1.49c.84-1,1.25-2.31,1.25-3.94s-.41-2.92-1.25-3.9ZM100.84,54.57c-.83-.98-1.94-1.46-3.32-1.46s-2.5.48-3.36,1.46c-.85.98-1.28,2.28-1.28,3.9s.43,2.94,1.28,3.94c.86,1,1.98,1.49,3.36,1.49s2.49-.49,3.32-1.49c.84-1,1.25-2.31,1.25-3.94s-.41-2.92-1.25-3.9Z" fill="#a56c35"/><path d="M109.41,50.67c-1.14-2.12-2.73-3.76-4.79-4.94-2.05-1.18-4.46-1.77-7.22-1.77s-5.19.59-7.26,1.77c-2.08,1.18-3.68,2.82-4.82,4.94-1.14,2.11-1.71,4.57-1.71,7.38,0,1.33.13,2.58.39,3.76.06.08.11.17.16.26,1.14.65,2.09,1.57,2.87,2.75.75,1.14,1.13,2.53,1.16,4.17.59.52,1.24.98,1.95,1.38,2.07,1.18,4.49,1.77,7.26,1.77s5.17-.59,7.22-1.77c2.06-1.18,3.65-2.83,4.79-4.94,1.14-2.12,1.71-4.58,1.71-7.38s-.57-5.27-1.71-7.38ZM100.84,62.41c-.83,1-1.94,1.49-3.32,1.49s-2.5-.49-3.36-1.49c-.85-1-1.28-2.31-1.28-3.94s.43-2.92,1.28-3.9c.86-.98,1.98-1.46,3.36-1.46s2.49.48,3.32,1.46c.84.98,1.25,2.28,1.25,3.9s-.41,2.94-1.25,3.94Z" fill="#fbefbf"/><path d="M149.04,54.16c-.23-1.04-.59-1.98-1.08-2.82-.46-.81-1-1.55-1.6-2.2-.62-.67-1.3-1.26-2.06-1.77-.16-.24-.32-.47-.5-.69-1.32-1.72-3.03-3-5.14-3.82-2.38-.94-4.75-1.4-7.1-1.4-1.92,0-3.73.4-5.43,1.21-1.47-1.21-3.26-1.82-5.37-1.82s-3.93.54-5.19,1.64c-1.26,1.1-2.16,2.5-2.71,4.21-.19.6-.35,1.21-.47,1.83-.24,1.14-.35,2.33-.35,3.54v11.83c0,2,.31,3.95.94,5.86.25.75.59,1.43,1.02,2.04.67.95,1.56,1.73,2.67,2.35.69,1.18,1.63,2.14,2.81,2.9,1.18.75,2.62,1.13,4.33,1.13,1.91,0,3.56-.52,4.94-1.56,1.38-1.04,2.38-2.45,2.99-4.24.57.69,1.28,1.28,2.13,1.77.69,1.18,1.63,2.14,2.81,2.9,1.18.75,2.62,1.13,4.33,1.13,2.2,0,3.9-.56,5.12-1.68,1.22-1.12,2.07-2.53,2.54-4.24.46-1.71.7-3.48.7-5.31v-9.63c0-1.14-.11-2.19-.33-3.16ZM143.27,63.9c0,2.69-.42,4.72-1.25,6.1-.84,1.39-2.19,2.08-4.06,2.08-3.78,0-5.67-2.73-5.67-8.18v-7.87c0-1.05-.31-1.91-.92-2.56-.61-.65-1.4-.97-2.38-.97s-1.83.32-2.56.97v10.43c0,5.45-1.89,8.18-5.67,8.18-2.46,0-4.12-1.16-4.97-3.47-.47-1.24-.7-2.81-.7-4.71v-11.83c0-5.45,1.89-8.17,5.67-8.17,2.11,0,3.68.93,4.7,2.8.81-.69,1.74-1.23,2.8-1.62,1.06-.38,2.16-.58,3.3-.58,3.49,0,6.32.9,8.47,2.69,2.16,1.79,3.24,4.15,3.24,7.07v9.64Z" fill="#a56c35"/><path d="M143.27,54.26v9.64c0,2.69-.42,4.72-1.25,6.1-.84,1.39-2.19,2.08-4.06,2.08-3.78,0-5.67-2.73-5.67-8.18v-7.87c0-1.05-.31-1.91-.92-2.56-.61-.65-1.4-.97-2.38-.97s-1.83.32-2.56.97v10.43c0,5.45-1.89,8.18-5.67,8.18-2.46,0-4.12-1.16-4.97-3.47.95-2.26,1.43-4.76,1.43-7.51,0-2.97-.56-5.65-1.68-8.06-.14-.31-.29-.6-.45-.9v-.07c0-5.45,1.89-8.17,5.67-8.17,2.11,0,3.68.93,4.7,2.8.81-.69,1.74-1.23,2.8-1.62,1.06-.38,2.16-.58,3.3-.58,3.49,0,6.32.9,8.47,2.69,2.16,1.79,3.24,4.15,3.24,7.07Z" fill="#fbefbf"/><path d="M176.27,48.75c-.36-.55-.77-1.04-1.23-1.47-.47-.44-1-.82-1.58-1.13-.2-.41-.45-.8-.74-1.16-.17-.21-.35-.42-.54-.61-.53-.52-1.12-.97-1.77-1.34-.08-.04-.17-.08-.27-.12-.11-.04-.22-.08-.34-.12-.2-1.47-.63-2.83-1.28-4.09s-1.67-2.26-3.05-2.99c-.65-1.18-1.55-2.14-2.71-2.9-1.16-.75-2.64-1.12-4.43-1.12-1.99,0-3.59.43-4.78,1.31-1.2.87-2.1,2.03-2.69,3.47-.59,1.45-.97,3.02-1.13,4.73-.04.16-.06.32-.06.46v.46c-1.02.24-2.01.66-2.99,1.25-.97.59-1.79,1.4-2.44,2.44-.17.27-.31.55-.44.86-.35.89-.53,1.96-.53,3.19,0,1.79.37,3.23,1.13,4.3.75,1.08,1.65,1.91,2.71,2.47.33.61.69,1.14,1.1,1.59.34.38.73.71,1.16,1,.08.06.16.11.24.16v4.51c0,2,.32,3.95.95,5.86s1.86,3.37,3.69,4.39c.69,1.18,1.62,2.14,2.8,2.9,1.18.75,2.63,1.13,4.33,1.13,2.2,0,3.93-.55,5.19-1.65,1.26-1.1,2.16-2.5,2.71-4.21.55-1.71.83-3.5.83-5.37v-6.1c.4-.08.79-.18,1.16-.3,1.14-.33,2.15-.81,3.04-1.42.36-.23.69-.5,1.01-.78,1.36-1.22,2.05-3.03,2.05-5.43,0-1.66-.37-3.06-1.1-4.17ZM169.44,53.69c-1.22.79-3.03,1.25-5.43,1.37v8.84c0,5.45-1.89,8.18-5.68,8.18s-5.67-2.73-5.67-8.18v-8.9c-1.46-.14-2.66-.42-3.62-.84-.43-.17-.81-.39-1.14-.63-1.06-.77-1.58-1.99-1.58-3.66,0-.25.01-.5.04-.73.13-1.29.64-2.27,1.54-2.93,1.06-.77,2.65-1.26,4.76-1.46v-1.83c0-5.45,1.89-8.17,5.67-8.17s5.68,2.72,5.68,8.17v1.77c2.4.12,4.21.58,5.43,1.37,1.22.79,1.83,2.07,1.83,3.81s-.61,3.02-1.83,3.82Z" fill="#a56c35"/><path d="M171.27,49.87c0,1.75-.61,3.02-1.83,3.82-1.22.79-3.03,1.25-5.43,1.37v8.84c0,5.45-1.89,8.18-5.68,8.18s-5.67-2.73-5.67-8.18v-8.9c-1.46-.14-2.66-.42-3.62-.84-.23-1.04-.59-1.98-1.08-2.82-.46-.81-1-1.55-1.6-2.2.13-1.29.64-2.27,1.54-2.93,1.06-.77,2.65-1.26,4.76-1.46v-1.83c0-5.45,1.89-8.17,5.67-8.17s5.68,2.72,5.68,8.17v1.77c2.4.12,4.21.58,5.43,1.37,1.22.79,1.83,2.07,1.83,3.81Z" fill="#fbefbf"/><path d="M190.82,49.26c-.13-.38-.28-.73-.46-1.07h0c-.51-1.05-1.25-1.93-2.21-2.64-.32-.25-.66-.48-1.03-.68v-.06c1.31-.73,2.31-1.78,3.02-3.14.72-1.36,1.07-2.84,1.07-4.42s-.36-3.12-1.1-4.49c-.73-1.36-1.77-2.41-3.11-3.14-.69-1.22-1.64-2.2-2.86-2.96-1.22-.75-2.67-1.13-4.33-1.13-1.79,0-3.31.42-4.55,1.26-1.24.83-2.18,1.91-2.81,3.23-.63,1.32-.94,2.73-.94,4.24,0,1.62.36,3.12,1.07,4.48s1.75,2.41,3.14,3.14c-1.34.82-2.34,1.86-3,3.11-.23.43-.42.88-.57,1.35-.59,1.87-.88,3.78-.88,5.73v11.83c0,2,.31,3.95.94,5.86s1.86,3.37,3.69,4.39c.69,1.18,1.63,2.14,2.81,2.9,1.18.75,2.62,1.13,4.33,1.13,2.19,0,3.92-.55,5.18-1.65.97-.84,1.72-1.86,2.27-3.06.17-.37.32-.75.45-1.15.22-.7.4-1.41.53-2.13.2-1.05.29-2.13.29-3.24v-11.83c0-1.99-.31-3.95-.94-5.86ZM174.56,34.26c0-1.71.48-3.08,1.43-4.12.96-1.04,2.23-1.56,3.82-1.56s2.86.52,3.84,1.56c.97,1.04,1.46,2.39,1.46,4.06s-.49,3.02-1.46,4.05c-.98,1.04-2.26,1.56-3.84,1.56s-2.86-.51-3.82-1.53c-.95-1.01-1.43-2.35-1.43-4.02ZM185.66,63.9c0,5.45-1.89,8.18-5.67,8.18s-5.68-2.73-5.68-8.18v-11.83c0-1.95.24-3.54.73-4.79.86-2.25,2.52-3.38,4.95-3.38,3.78,0,5.67,2.72,5.67,8.17v11.83Z" fill="#a56c35"/><path d="M185.66,52.07v11.83c0,5.45-1.89,8.18-5.67,8.18s-5.68-2.73-5.68-8.18v-4.77c.36-.23.69-.5,1.01-.78,1.36-1.22,2.05-3.03,2.05-5.43,0-1.66-.37-3.06-1.1-4.17-.36-.55-.77-1.04-1.23-1.47.86-2.25,2.52-3.38,4.95-3.38,3.78,0,5.67,2.72,5.67,8.17Z" fill="#fbefbf"/><path d="M185.11,34.2c0,1.66-.49,3.02-1.46,4.05-.98,1.04-2.26,1.56-3.84,1.56s-2.86-.51-3.82-1.53c-.95-1.01-1.43-2.35-1.43-4.02s.48-3.08,1.43-4.12c.96-1.04,2.23-1.56,3.82-1.56s2.86.52,3.84,1.56c.97,1.04,1.46,2.39,1.46,4.06Z" fill="#fbefbf"/><path d="M222.81,51.34c-.12-.2-.24-.4-.37-.6-.72-1.12-1.6-2.08-2.62-2.87-.22-.18-.44-.34-.67-.5-1.38-2.07-3.26-3.58-5.64-4.51-2.38-.94-4.75-1.4-7.11-1.4-1.91,0-3.72.4-5.43,1.21-1.46-1.21-3.25-1.82-5.37-1.82s-3.92.54-5.18,1.64c-.97.84-1.72,1.86-2.27,3.06-.17.37-.32.75-.45,1.15-.55,1.71-.82,3.5-.82,5.37v11.83c0,2,.32,3.95.95,5.86.5,1.53,1.39,2.77,2.66,3.71.32.25.66.48,1.03.68.69,1.18,1.62,2.14,2.8,2.9,1.18.75,2.63,1.13,4.33,1.13,1.91,0,3.56-.52,4.94-1.56,1.39-1.04,2.38-2.45,2.99-4.24.57.69,1.28,1.28,2.14,1.77.69,1.18,1.62,2.14,2.8,2.9,1.18.75,2.63,1.13,4.33,1.13,2.2,0,3.91-.56,5.13-1.68,1.22-1.12,2.06-2.53,2.53-4.24t.01-.02c.33-1.24.55-2.51.64-3.81.03-.49.05-.98.05-1.48v-9.63c0-2.36-.47-4.36-1.4-5.98ZM218.11,63.9c0,2.69-.42,4.72-1.25,6.1-.83,1.39-2.19,2.08-4.05,2.08-3.79,0-5.68-2.73-5.68-8.18v-7.87c0-1.05-.3-1.91-.91-2.56-.61-.65-1.41-.97-2.38-.97s-1.83.32-2.56.97v10.43c0,5.45-1.89,8.18-5.68,8.18-1.81,0-3.2-.63-4.13-1.89-1.03-1.36-1.54-3.46-1.54-6.29v-11.83c0-1.5.14-2.79.43-3.88h0c.76-2.86,2.5-4.29,5.24-4.29,2.12,0,3.68.93,4.7,2.8.81-.69,1.75-1.23,2.81-1.62,1.05-.38,2.15-.58,3.29-.58,3.5,0,6.32.9,8.48,2.69,2.15,1.79,3.23,4.15,3.23,7.07v9.64Z" fill="#a56c35"/><path d="M218.11,54.26v9.64c0,2.69-.42,4.72-1.25,6.1-.83,1.39-2.19,2.08-4.05,2.08-3.79,0-5.68-2.73-5.68-8.18v-7.87c0-1.05-.3-1.91-.91-2.56-.61-.65-1.41-.97-2.38-.97s-1.83.32-2.56.97v10.43c0,5.45-1.89,8.18-5.68,8.18-1.81,0-3.2-.63-4.13-1.89.2-1.05.29-2.13.29-3.24v-11.83c0-1.99-.31-3.95-.94-5.86-.13-.38-.28-.73-.46-1.07h0c.76-2.86,2.5-4.29,5.24-4.29,2.12,0,3.68.93,4.7,2.8.81-.69,1.75-1.23,2.81-1.62,1.05-.38,2.15-.58,3.29-.58,3.5,0,6.32.9,8.48,2.69,2.15,1.79,3.23,4.15,3.23,7.07Z" fill="#fbefbf"/><path d="M256.23,51.4c-.13-.64-.3-1.27-.51-1.89-.21-.63-.48-1.22-.83-1.75-.68-1.08-1.64-1.96-2.86-2.64-.69-1.18-1.63-2.15-2.81-2.9s-2.62-1.13-4.33-1.13c-1.91,0-3.56.52-4.94,1.55-1.38,1.04-2.38,2.45-2.99,4.24-.57-.69-1.28-1.28-2.13-1.76-.7-1.18-1.63-2.15-2.81-2.9s-2.62-1.13-4.33-1.13c-2.2,0-3.91.56-5.13,1.68-1.22,1.12-2.06,2.53-2.53,4.24-.08.28-.15.57-.21.86-.32,1.43-.49,2.92-.49,4.44v9.64c0,2.52.47,4.73,1.4,6.62.72,1.44,1.64,2.67,2.79,3.67.35.31.72.6,1.12.87,2.32,3.54,6.08,5.31,11.28,5.31,2.32,0,4.62-.55,6.9-1.65.73.57,1.53.99,2.41,1.25.87.27,1.77.4,2.71.4,2.2,0,3.92-.55,5.18-1.65,1.27-1.09,2.17-2.5,2.72-4.21.16-.51.3-1.03.42-1.55.27-1.23.4-2.5.4-3.81v-11.84c0-1.34-.14-2.66-.43-3.96ZM250.56,64.15c0,5.45-1.89,8.17-5.67,8.17-2.12,0-3.62-.85-4.51-2.56-1.06.77-2.27,1.39-3.63,1.86-1.37.47-2.66.7-3.88.7-3.49,0-6.12-.94-7.87-2.84-.31-.33-.59-.68-.84-1.05-1.18-1.74-1.78-3.9-1.78-6.48v-9.64c0-.55.02-1.07.06-1.57.13-1.92.53-3.43,1.19-4.53.83-1.38,2.19-2.07,4.06-2.07,3.78,0,5.67,2.72,5.67,8.17v8.48c0,1.06.31,1.91.92,2.56.61.65,1.4.98,2.38.98s1.82-.33,2.56-.98v-11.04c0-5.45,1.89-8.17,5.67-8.17s5.67,2.72,5.67,8.17v11.84Z" fill="#a56c35"/><path d="M250.56,52.31v11.84c0,5.45-1.89,8.17-5.67,8.17-2.12,0-3.62-.85-4.51-2.56-1.06.77-2.27,1.39-3.63,1.86-1.37.47-2.66.7-3.88.7-3.49,0-6.12-.94-7.87-2.84-.31-.33-.59-.68-.84-1.05.03-.49.05-.98.05-1.48v-9.63c0-2.36-.47-4.36-1.4-5.98-.12-.2-.24-.4-.37-.6.13-1.92.53-3.43,1.19-4.53.83-1.38,2.19-2.07,4.06-2.07,3.78,0,5.67,2.72,5.67,8.17v8.48c0,1.06.31,1.91.92,2.56.61.65,1.4.98,2.38.98s1.82-.33,2.56-.98v-11.04c0-5.45,1.89-8.17,5.67-8.17s5.67,2.72,5.67,8.17Z" fill="#fbefbf"/><path d="M270.3,53.59c-.39-.28-.89-.42-1.5-.42-1.3,0-2.34.28-3.11.85-.77.57-1.32,1.36-1.65,2.38h.49c2.52,0,4.21-.11,5.06-.34.86-.22,1.29-.68,1.29-1.37,0-.44-.2-.81-.58-1.1ZM270.3,53.59c-.39-.28-.89-.42-1.5-.42-1.3,0-2.34.28-3.11.85-.77.57-1.32,1.36-1.65,2.38h.49c2.52,0,4.21-.11,5.06-.34.86-.22,1.29-.68,1.29-1.37,0-.44-.2-.81-.58-1.1ZM280.51,65c1.3-.93,2.35-2.11,3.14-3.54.8-1.42,1.19-3.17,1.19-5.24,0-2.24-.45-4.17-1.37-5.8-.91-1.62-2.12-2.97-3.63-4.02-1.22-1.79-2.81-3.15-4.79-4.06-1.97-.92-4.07-1.37-6.31-1.37-3.62,0-6.72.82-9.3,2.47-1.83,1.16-3.35,2.6-4.55,4.32-.52.72-.97,1.48-1.37,2.3-1.36,2.76-2.04,5.81-2.04,9.15,0,2.88.56,5.42,1.67,7.59.83,1.61,1.87,3.02,3.11,4.21.43.43.89.82,1.38,1.19,1.67,2.19,3.8,3.86,6.4,5,2.61,1.14,5.39,1.71,8.36,1.71,1.26,0,2.56-.12,3.9-.37,1.35-.24,2.61-.65,3.79-1.22,1.18-.57,2.13-1.36,2.86-2.38.74-1.01,1.1-2.31,1.1-3.9,0-1.26-.3-2.45-.91-3.57s-1.49-1.94-2.63-2.47ZM270.51,64.57c.98,0,1.73-.04,2.26-.12.52-.08,1.11-.12,1.77-.12,1.05,0,1.89.34,2.5,1.01.61.67.91,1.55.91,2.65,0,1.42-.71,2.58-2.13,3.48-1.43.89-3.58,1.34-6.47,1.34s-5.5-.57-7.72-1.71c-2.08-1.07-3.74-2.53-4.97-4.4-.09-.12-.16-.24-.24-.36-1.26-2.03-1.89-4.41-1.89-7.13,0-2.95.57-5.56,1.7-7.81.02-.05.04-.1.07-.15,1.18-2.3,2.83-4.08,4.97-5.34,2.13-1.26,4.62-1.89,7.47-1.89,1.91,0,3.62.38,5.12,1.16,1.51.77,2.7,1.84,3.57,3.2.88,1.36,1.31,2.96,1.31,4.79,0,2.56-1.01,4.65-3.05,6.28-2.03,1.63-5.51,2.44-10.43,2.44h-.61c1.1,1.79,3.05,2.68,5.86,2.68ZM270.88,54.69c0-.44-.2-.81-.58-1.1-.39-.28-.89-.42-1.5-.42-1.3,0-2.34.28-3.11.85-.77.57-1.32,1.36-1.65,2.38h.49c2.52,0,4.21-.11,5.06-.34.86-.22,1.29-.68,1.29-1.37Z" fill="#a56c35"/><path d="M274.54,64.33c-.66,0-1.25.04-1.77.12-.53.08-1.28.12-2.26.12-2.81,0-4.76-.89-5.86-2.68h.61c4.92,0,8.4-.81,10.43-2.44,2.04-1.63,3.05-3.72,3.05-6.28,0-1.83-.43-3.43-1.31-4.79-.87-1.36-2.06-2.43-3.57-3.2-1.5-.78-3.21-1.16-5.12-1.16-2.85,0-5.34.63-7.47,1.89-2.14,1.26-3.79,3.04-4.97,5.34-.03.05-.05.1-.07.15.29,1.3.43,2.62.43,3.96v11.34c1.23,1.87,2.89,3.33,4.97,4.4,2.22,1.14,4.79,1.71,7.72,1.71s5.04-.45,6.47-1.34c1.42-.9,2.13-2.06,2.13-3.48,0-1.1-.3-1.98-.91-2.65-.61-.67-1.45-1.01-2.5-1.01ZM264.04,56.4c.33-1.02.88-1.81,1.65-2.38.77-.57,1.81-.85,3.11-.85.61,0,1.11.14,1.5.42.38.29.58.66.58,1.1,0,.69-.43,1.15-1.29,1.37-.85.23-2.54.34-5.06.34h-.49Z" fill="#fbefbf"/><path d="M137.97,105.08c-.41-.62-.93-1.08-1.55-1.4-.32-.6-.74-1.06-1.25-1.4-.52-.34-1.08-.61-1.7-.79-.16-.41-.39-.81-.7-1.2-.31-.39-.71-.7-1.22-.93-.25-.52-.64-.99-1.15-1.4-.52-.41-1.2-.62-2.04-.62-1.21,0-2.1.4-2.66,1.2-.56.8-.92,1.71-1.08,2.74-.09,0-.16.01-.2.03-1.24.13-2.28.56-3.12,1.27-.84.71-1.26,1.75-1.26,3.12,0,.94.2,1.71.62,2.33.41.62.92,1.1,1.54,1.44.43.84,1.12,1.46,2.06,1.85l.69.31c.16.43.4.87.72,1.29s.73.75,1.24.98c.25.5.64.96,1.15,1.39.52.42,1.2.63,2.04.63.8,0,1.46-.19,1.99-.57.52-.38.93-.88,1.2-1.49.28-.62.47-1.27.58-1.96.04-.02.11-.03.21-.03.84-.14,1.61-.37,2.29-.69.69-.32,1.23-.79,1.63-1.39.4-.61.6-1.4.6-2.38s-.21-1.71-.62-2.33ZM134.41,107.61c-.51.44-1.19.7-2.06.79-.3.04-.6.08-.89.1-.3.02-.6.05-.89.07l-.1,1.1c-.09.87-.3,1.56-.62,2.06-.32.51-.81.75-1.47.75s-1.15-.25-1.47-.75c-.32-.5-.53-1.19-.62-2.06l-.1-1.1c-.66-.05-1.33-.12-2.01-.24-.67-.11-1.25-.37-1.71-.77-.47-.4-.7-1.02-.7-1.87s.23-1.46.7-1.85c.47-.39,1.04-.64,1.71-.75.67-.11,1.34-.19,2.01-.24l.1-.99c.09-.87.3-1.56.62-2.06.32-.51.81-.76,1.47-.76s1.15.25,1.47.76c.32.5.53,1.19.62,2.06l.1.99c.28.03.57.06.88.09.31.03.61.06.91.08.87.11,1.55.38,2.06.79.5.41.75,1.04.75,1.89s-.25,1.48-.75,1.92Z" fill="#a56c35"/><path d="M135.16,105.69c0,.84-.25,1.48-.75,1.92-.51.44-1.19.7-2.06.79-.3.04-.6.08-.89.1-.3.02-.6.05-.89.07l-.1,1.1c-.09.87-.3,1.56-.62,2.06-.32.51-.81.75-1.47.75s-1.15-.25-1.47-.75c-.32-.5-.53-1.19-.62-2.06l-.1-1.1c-.66-.05-1.33-.12-2.01-.24-.67-.11-1.25-.37-1.71-.77-.47-.4-.7-1.02-.7-1.87s.23-1.46.7-1.85c.47-.39,1.04-.64,1.71-.75.67-.11,1.34-.19,2.01-.24l.1-.99c.09-.87.3-1.56.62-2.06.32-.51.81-.76,1.47-.76s1.15.25,1.47.76c.32.5.53,1.19.62,2.06l.1.99c.28.03.57.06.88.09.31.03.61.06.91.08.87.11,1.55.38,2.06.79.5.41.75,1.04.75,1.89Z" fill="#fbefbf"/><path d="M165.67,107.68c-.37-.8-.84-1.5-1.41-2.1.53-.69.96-1.44,1.29-2.26.16-.39.28-.8.37-1.22.03-.22.06-.43.09-.65.03-.25.04-.51.04-.77,0-1.23-.24-2.3-.71-3.22-.04-.1-.1-.19-.15-.28-.57-.98-1.29-1.79-2.16-2.43-.62-.87-1.38-1.58-2.3-2.12-.92-.55-1.9-.96-2.96-1.22-1.07-.26-2.11-.39-3.14-.39-.82,0-1.7.07-2.64.22-.94.15-1.82.42-2.64.8-.82.39-1.49.92-2.02,1.6-.52.67-.79,1.52-.79,2.55,0,.87.18,1.6.55,2.19.37.6.87,1.03,1.51,1.3.39.89,1.05,1.5,1.99,1.82-.25.37-.43.76-.53,1.18s-.17.85-.19,1.29v.2c0,.71.15,1.35.43,1.92s.76,1.02,1.42,1.34c.02,0,.04,0,.07.02.02.01.04.02.07.02.02.09.06.17.11.26.04.08.09.16.13.25-.25-.05-.51-.08-.77-.1-.26-.02-.53-.03-.81-.03-1.16,0-2.1.34-2.79,1.03-.7.69-1.05,1.64-1.05,2.84,0,1.03.22,1.89.65,2.57.43.69.98,1.21,1.65,1.57.48.83,1.11,1.43,1.88,1.82.78.39,1.62.63,2.54.75.91.11,1.8.17,2.68.17,1.25,0,2.48-.16,3.68-.49,1.2-.33,2.29-.84,3.26-1.51.97-.67,1.75-1.53,2.33-2.57.26-.46.46-.96.6-1.5.19-.67.28-1.4.28-2.19,0-.98-.18-1.87-.55-2.67ZM162.55,110.46c-.22.87-.71,1.65-1.44,2.34-.73.7-1.6,1.26-2.62,1.68-1.02.43-2.06.65-3.14.67-2.21.07-3.93-.12-5.14-.58-1.21-.46-1.82-1.4-1.82-2.85.04-.87.26-1.44.65-1.73.39-.29.88-.43,1.47-.43.46,0,.95.04,1.48.12.52.08,1.05.12,1.57.12.89-.02,1.62-.21,2.2-.55.57-.34.87-.73.89-1.16s-.12-.86-.44-1.27-.92-.64-1.78-.69c-.87,0-1.51-.08-1.92-.24-.41-.16-.67-.4-.79-.72-.11-.32-.16-.71-.13-1.16.02-.46.09-.85.2-1.17.11-.31.38-.57.79-.75.42-.18,1.05-.29,1.92-.31.96-.02,1.57-.23,1.83-.63.26-.4.38-.83.36-1.28-.04-.8-.4-1.3-1.06-1.49-.66-.19-1.45-.28-2.37-.25-.5.02-1,.06-1.49.12s-.94.08-1.35.08c-.6,0-1.09-.13-1.49-.41-.4-.28-.62-.84-.67-1.71,0-.69.2-1.26.62-1.71.41-.46.94-.81,1.61-1.06.71-.3,1.5-.49,2.37-.58.87-.09,1.73-.11,2.57-.07,1.37.05,2.57.33,3.6.84,1.03.51,1.85,1.17,2.45,1.97.61.8.97,1.69,1.1,2.66.13.97-.01,1.96-.41,2.95-.4.99-1.09,1.92-2.07,2.79,1.12.8,1.91,1.72,2.37,2.76.46,1.04.49,2.28.1,3.72Z" fill="#a56c35"/><path d="M162.55,110.46c-.22.87-.71,1.65-1.44,2.34-.73.7-1.6,1.26-2.62,1.68-1.02.43-2.06.65-3.14.67-2.21.07-3.93-.12-5.14-.58-1.21-.46-1.82-1.4-1.82-2.85.04-.87.26-1.44.65-1.73.39-.29.88-.43,1.47-.43.46,0,.95.04,1.48.12.52.08,1.05.12,1.57.12.89-.02,1.62-.21,2.2-.55.57-.34.87-.73.89-1.16s-.12-.86-.44-1.27-.92-.64-1.78-.69c-.87,0-1.51-.08-1.92-.24-.41-.16-.67-.4-.79-.72-.11-.32-.16-.71-.13-1.16.02-.46.09-.85.2-1.17.11-.31.38-.57.79-.75.42-.18,1.05-.29,1.92-.31.96-.02,1.57-.23,1.83-.63.26-.4.38-.83.36-1.28-.04-.8-.4-1.3-1.06-1.49-.66-.19-1.45-.28-2.37-.25-.5.02-1,.06-1.49.12s-.94.08-1.35.08c-.6,0-1.09-.13-1.49-.41-.4-.28-.62-.84-.67-1.71,0-.69.2-1.26.62-1.71.41-.46.94-.81,1.61-1.06.71-.3,1.5-.49,2.37-.58.87-.09,1.73-.11,2.57-.07,1.37.05,2.57.33,3.6.84,1.03.51,1.85,1.17,2.45,1.97.61.8.97,1.69,1.1,2.66.13.97-.01,1.96-.41,2.95-.4.99-1.09,1.92-2.07,2.79,1.12.8,1.91,1.72,2.37,2.76.46,1.04.49,2.28.1,3.72Z" fill="#fbefbf"/><path d="M177.02,102.76c-.05-.7-.16-1.4-.33-2.11-.17-.71-.44-1.31-.81-1.8-.37-.49-.85-.74-1.47-.74-.66,0-1.17.22-1.54.67-.37.44-.62,1.01-.78,1.67-.15.68-.24,1.34-.28,2.01-.03.66-.05,1.23-.05,1.68,0,.41.02.97.07,1.68.05.71.16,1.42.33,2.12.17.71.44,1.31.79,1.8.35.49.84.74,1.46.74,1.03,0,1.73-.53,2.09-1.6.37-1.06.56-2.54.58-4.44,0-.43-.02-1-.07-1.7ZM175.37,104.46c0,.39,0,.8-.02,1.24-.01.43-.05.88-.12,1.34-.02-.23-.03-.44-.03-.63v-.53c0-.37,0-.78.02-1.23.01-.46.06-.9.12-1.34.02.22.03.44.03.63v.53ZM177.02,102.76c-.05-.7-.16-1.4-.33-2.11-.17-.71-.44-1.31-.81-1.8-.37-.49-.85-.74-1.47-.74-.66,0-1.17.22-1.54.67-.37.44-.62,1.01-.78,1.67-.15.68-.24,1.34-.28,2.01-.03.66-.05,1.23-.05,1.68,0,.41.02.97.07,1.68.05.71.16,1.42.33,2.12.17.71.44,1.31.79,1.8.35.49.84.74,1.46.74,1.03,0,1.73-.53,2.09-1.6.37-1.06.56-2.54.58-4.44,0-.43-.02-1-.07-1.7ZM175.37,104.46c0,.39,0,.8-.02,1.24-.01.43-.05.88-.12,1.34-.02-.23-.03-.44-.03-.63v-.53c0-.37,0-.78.02-1.23.01-.46.06-.9.12-1.34.02.22.03.44.03.63v.53ZM186.12,101.61c-.26-1.37-.71-2.66-1.34-3.86-.63-1.2-1.49-2.21-2.59-3.03-.78-1.05-1.8-1.9-3.05-2.54-1.26-.63-2.79-.96-4.6-.96-1.69,0-3.14.28-4.33.84-1.2.56-2.2,1.31-3,2.25-.79.93-1.42,1.98-1.88,3.15,0,0,0,.01,0,.02-.46,1.17-.79,2.39-.98,3.65-.2,1.26-.29,2.47-.29,3.64,0,1.3.14,2.61.43,3.91.29,1.3.74,2.53,1.35,3.69.03.06.07.12.1.18.61,1.08,1.4,1.98,2.4,2.72.83,1.05,1.86,1.9,3.1,2.55,1.25.65,2.76.98,4.55.98,1.62,0,3.03-.26,4.23-.79,1.2-.53,2.2-1.24,3-2.15.8-.9,1.44-1.92,1.93-3.07.49-1.14.84-2.33,1.05-3.56.21-1.24.31-2.43.31-3.6,0-1.3-.13-2.64-.39-4.01ZM182.57,108.23c-.3,1.33-.78,2.53-1.44,3.6-.66,1.07-1.55,1.92-2.64,2.55-1.1.63-2.46.96-4.08.98-1.42.02-2.67-.22-3.75-.74-1.08-.52-2-1.26-2.73-2.25-1.55-2.01-2.28-4.75-2.16-8.23.01-.69.06-1.37.14-2.04.03-.22.06-.43.09-.65.07-.46.16-.9.26-1.35.31-1.32.8-2.53,1.48-3.61.67-1.08,1.56-1.95,2.65-2.59,1.1-.64,2.43-.96,4.01-.96,1.42-.02,2.68.22,3.77.74,1.1.51,2.01,1.25,2.74,2.21.73.98,1.28,2.18,1.65,3.59.37,1.4.53,2.96.51,4.68-.04,1.39-.21,2.75-.51,4.08ZM176.69,100.65c-.17-.71-.44-1.31-.81-1.8-.37-.49-.85-.74-1.47-.74-.66,0-1.17.22-1.54.67-.37.44-.62,1.01-.78,1.67-.15.68-.24,1.34-.28,2.01-.03.66-.05,1.23-.05,1.68,0,.41.02.97.07,1.68.05.71.16,1.42.33,2.12.17.71.44,1.31.79,1.8.35.49.84.74,1.46.74,1.03,0,1.73-.53,2.09-1.6.37-1.06.56-2.54.58-4.44,0-.43-.02-1-.07-1.7-.05-.7-.16-1.4-.33-2.11ZM175.37,104.46c0,.39,0,.8-.02,1.24-.01.43-.05.88-.12,1.34-.02-.23-.03-.44-.03-.63v-.53c0-.37,0-.78.02-1.23.01-.46.06-.9.12-1.34.02.22.03.44.03.63v.53Z" fill="#a56c35"/><path d="M182.57,99.47c-.37-1.4-.92-2.6-1.65-3.59-.73-.96-1.65-1.7-2.74-2.21-1.1-.52-2.35-.76-3.77-.74-1.58,0-2.91.32-4.01.96-1.1.64-1.98,1.51-2.65,2.59-.67,1.08-1.17,2.29-1.48,3.61-.11.45-.19.9-.26,1.35-.03.22-.06.43-.09.65-.08.67-.13,1.35-.14,2.04-.12,3.47.61,6.22,2.16,8.23.73.98,1.64,1.73,2.73,2.25,1.08.51,2.34.76,3.75.74,1.62-.02,2.98-.35,4.08-.98,1.1-.63,1.98-1.48,2.64-2.55.66-1.07,1.14-2.28,1.44-3.6.3-1.33.47-2.69.51-4.08.02-1.71-.15-3.27-.51-4.68ZM176.5,108.9c-.37,1.06-1.06,1.6-2.09,1.6-.62,0-1.1-.25-1.46-.74-.35-.49-.62-1.1-.79-1.8-.17-.71-.28-1.42-.33-2.12-.04-.71-.07-1.27-.07-1.68,0-.46.02-1.02.05-1.68.04-.66.13-1.33.28-2.01.15-.67.4-1.23.78-1.67.37-.45.88-.67,1.54-.67.62,0,1.11.24,1.47.74.37.49.64,1.09.81,1.8.17.71.28,1.41.33,2.11.04.7.07,1.26.07,1.7-.02,1.9-.22,3.38-.58,4.44Z" fill="#fbefbf"/><circle cx="206.13" cy="104.5" r="15.85" fill="#fce37d" isolation="isolate" opacity=".99" stroke="#fce37d"/><path d="M207.89,89.19l.39.08-.39.08v-.16Z" fill="#dc9e3c" isolation="isolate" opacity=".98" stroke="#dc9e3c"/><path d="M205.23,92.63l1.95.08-1.95.08v-.16Z" fill="#dc9e3c" isolation="isolate" opacity=".98" stroke="#dc9e3c"/><path d="M208.04,92.79l.39.08-.39.08v-.16Z" fill="#dc9e3c" isolation="isolate" opacity=".98" stroke="#dc9e3c"/><path d="M195.7,93.26l-.78.94.78-.94Z" fill="#dc9e3c" isolation="isolate" opacity=".98" stroke="#dc9e3c"/><path d="M204.76,93.72l.86.08-.86.08v-.16Z" fill="#dc9e3c" isolation="isolate" opacity=".98" stroke="#dc9e3c"/><path d="M206.95,93.72l.86.08-.86.08v-.16Z" fill="#dc9e3c" isolation="isolate" opacity=".98" stroke="#dc9e3c"/><path d="M203.82,93.88l.39.08-.39.08v-.16Z" fill="#dc9e3c" isolation="isolate" opacity=".98" stroke="#dc9e3c"/><path d="M194.29,94.82l-.16.31.16-.31Z" fill="#dc9e3c" isolation="isolate" opacity=".98" stroke="#dc9e3c"/><path d="M213.35,95.13l.16.31-.16-.31Z" fill="#dc9e3c" isolation="isolate" opacity=".98" stroke="#dc9e3c"/><path d="M198.82,95.29l-.16.31.16-.31Z" fill="#dc9e3c" isolation="isolate" opacity=".98" stroke="#dc9e3c"/><path d="M200.23,95.29l-.16.31.16-.31Z" fill="#dc9e3c" isolation="isolate" opacity=".98" stroke="#dc9e3c"/><path d="M213.04,95.91l.16.31-.16-.31Z" fill="#dc9e3c" isolation="isolate" opacity=".98" stroke="#dc9e3c"/><path d="M199.14,96.07l-.16.31.16-.31Z" fill="#dc9e3c" isolation="isolate" opacity=".98" stroke="#dc9e3c"/><path d="M197.73,96.38l-.31.47.31-.47Z" fill="#dc9e3c" isolation="isolate" opacity=".98" stroke="#dc9e3c"/><path d="M213.67,96.38l1.09,1.25-1.09-1.25Z" fill="#dc9e3c" isolation="isolate" opacity=".98" stroke="#dc9e3c"/><path d="M214.92,96.69l.16.31-.16-.31Z" fill="#dc9e3c" isolation="isolate" opacity=".98" stroke="#dc9e3c"/><path d="M198.2,96.85l-.16.31.16-.31Z" fill="#dc9e3c" isolation="isolate" opacity=".98" stroke="#dc9e3c"/><path d="M197.42,97.79l-.31.47.31-.47Z" fill="#dc9e3c" isolation="isolate" opacity=".98" stroke="#dc9e3c"/><path d="M215.7,97.79l.16.31-.16-.31Z" fill="#dc9e3c" isolation="isolate" opacity=".98" stroke="#dc9e3c"/><path d="M215.23,98.1l.16.31-.16-.31Z" fill="#dc9e3c" isolation="isolate" opacity=".98" stroke="#dc9e3c"/><path d="M196.95,98.41l-.16.31.16-.31Z" fill="#dc9e3c" isolation="isolate" opacity=".98" stroke="#dc9e3c"/><path d="M215.54,98.57l.16.31-.16-.31Z" fill="#dc9e3c" isolation="isolate" opacity=".98" stroke="#dc9e3c"/><path d="M196.64,98.88l-.16.31.16-.31Z" fill="#dc9e3c" isolation="isolate" opacity=".98" stroke="#dc9e3c"/><path d="M216.01,99.35l.55,1.02h-.16l-.39-1.02Z" fill="#dc9e3c" isolation="isolate" opacity=".98" stroke="#dc9e3c"/><path d="M202.57,99.51l.39.08-.39.08v-.16Z" fill="#dc9e3c" isolation="isolate" opacity=".98" stroke="#dc9e3c"/><path d="M213.35,99.97l.39.08-.39.08v-.16Z" fill="#dc9e3c" isolation="isolate" opacity=".98" stroke="#dc9e3c"/><path d="M215.23,101.22l.08.7h-.16l.08-.7Z" fill="#dc9e3c" isolation="isolate" opacity=".98" stroke="#dc9e3c"/><path d="M197.73,101.54l.08.55h-.16l.08-.55Z" fill="#dc9e3c" isolation="isolate" opacity=".98" stroke="#dc9e3c"/><path d="M217.42,102.47l.08,1.33h-.16l-.16-.94.23-.39Z" fill="#dc9e3c" isolation="isolate" opacity=".98" stroke="#dc9e3c"/><path d="M194.92,102.63l.23.86-.23.39v-1.25Z" fill="#dc9e3c" isolation="isolate" opacity=".98" stroke="#dc9e3c"/><path d="M198.2,102.94l1.87,2.03-1.87-2.03Z" fill="#dc9e3c" isolation="isolate" opacity=".98" stroke="#dc9e3c"/><path d="M214.76,102.94l-.78.94.78-.94Z" fill="#dc9e3c" isolation="isolate" opacity=".98" stroke="#dc9e3c"/><path d="M221.32,103.72l.08,1.02h-.16l.08-1.02Z" fill="#dc9e3c" isolation="isolate" opacity=".98" stroke="#dc9e3c"/><path d="M191.01,103.88l.08.39h-.16l.08-.39Z" fill="#dc9e3c" isolation="isolate" opacity=".98" stroke="#dc9e3c"/><path d="M191.17,105.91l.08.39h-.16l.08-.39Z" fill="#dc9e3c" isolation="isolate" opacity=".98" stroke="#dc9e3c"/><path d="M201.01,106.54l.08.39h-.16l.08-.39Z" fill="#dc9e3c" isolation="isolate" opacity=".98" stroke="#dc9e3c"/><path d="M191.33,106.85l.08.39h-.16l.08-.39Z" fill="#dc9e3c" isolation="isolate" opacity=".98" stroke="#dc9e3c"/><path d="M191.48,107.47l.08.23-.16.31h.31l-.16.47h.31l-.23.55-.39-1.33.23-.23Z" fill="#dc9e3c" isolation="isolate" opacity=".98" stroke="#dc9e3c"/><path d="M200.7,108.41l.08.39h-.16l.08-.39Z" fill="#dc9e3c" isolation="isolate" opacity=".98" stroke="#dc9e3c"/><path d="M220.54,108.57l.23.39h-.16l-.08-.39Z" fill="#dc9e3c" isolation="isolate" opacity=".98" stroke="#dc9e3c"/><path d="M220.38,109.04l.23.39-.7,1.8-.08-.23.16-.31-.23-.39.39.23.16-.94-.08-.23.23.08-.08-.39Z" fill="#dc9e3c" isolation="isolate" opacity=".98" stroke="#dc9e3c"/><path d="M191.79,109.5l.62.94.23-.08-.31.62.47.08.31.7-.31.16.39.7.16-.47,1.02.7-.47-.16.16.31-.31-.16-.08-.23-.39.08.39.7.55.16c-.11.28-.04.39.23.31l.39-.23-.23-.39,1.17,1.17c-.23.14-.2.27.08.39.24-.07.32,0,.23.23h-.31l.23.55.55-.39-.23-.39c.44.19.52.37.23.55-.07.24,0,.32.23.23l.31.16v-.31l.31.62.23-.08-.08-.23.31.62.23-.08-.08-.23.16.47.31-.16.16.47.23.08-.31.16.31.08.16.7-.08.23h.23v-.86l.23-.08c.08.29.34.4.78.31l.31-.16v.16l-.23.08.78.47-.55.39-.23-.08-.16.47,1.33.39v-.16l-.23-.08.55-.08.16.31-.23.08.94.39-.16-.39h.31c-.19-.64.1-.82.86-.55l.62-.16.47.31h2.97l2.81-.78.39.16c-.11-.28-.04-.39.23-.31l.08.39c.08.27-.05.35-.39.23v.16l.39.23-.08.23h.23v-.31c.28.11.39.04.31-.23l-.08-.23.39.23-.08.23.55-.23-.78-.39c-.12-.31,0-.42.39-.31v-.31l.23.08c-.07-.23,0-.31.23-.23.08-.28.34-.39.78-.31l.39.23.23-.39.31.16.31-.16.39.23-.23-.55-.31.16v-.16l.23-.08-.31-.16.39-.7v.31l.78-.47.39.23-.08.23.86-.39-.39-.08-.23.08c.08-.23,0-.31-.23-.23-.31-.16-.31-.31,0-.47l.23.47h.62v-.23l-.23.08c-.27.07-.35-.03-.23-.31h.62v-.23l-.23-.23-.39.23,1.72-1.56-1.25,1.25.23.23.16-.31c.14.24.27.21.39-.08l.23-.39.23.08-.16.31.47-.31-.16-.31.47-.16-.08-.23.23-.08-.08-.23.23.08.16-.31-.23-.23-.7.23.39-.39h.31l.31.16.08-.23-.16-.31.55-.7.23.39c-.91,1.96-2.13,3.6-3.67,4.92-1.65,1.48-3.68,2.57-6.09,3.28l-2.34.47h-2.97l-2.66-.47-3.12-1.25c-1.79-1.01-3.33-2.29-4.61-3.83-1.29-1.45-2.15-3.19-2.58-5.23ZM195.47,114.19c-.21.31-.16.42.16.31l-.16-.31ZM195.31,114.82l-.31.47.62-.16-.31-.31ZM196.4,115.44c-.21.31-.36.36-.47.16l-.31.16c.1.21.36.26.78.16.31-.1.31-.26,0-.47ZM215.46,116.22l-.31.31c-.1.21,0,.26.31.16s.31-.26,0-.47ZM198.12,116.69v.16h.31l-.31-.16ZM214.21,117.32l-.31.31c-.1.21,0,.26.31.16s.31-.26,0-.47ZM198.59,117.47v.31l.31.16c.1-.42,0-.57-.31-.47ZM212.81,117.47c0,.42-.16.57-.47.47v.47l.47.16-.16-.16h.31c.21.1.26,0,.16-.31h.47l-.16-.62c-.31-.1-.42.05-.31.47h-.31v-.47ZM199.22,118.1v.31l.47.16v-.16l-.47-.31ZM203.9,119.35l.16.47.16-.31-.31-.16ZM207.5,119.35v.16h.62l-.62-.16ZM209.84,119.35l-.31.16v.16l.47-.16-.16-.16ZM203.12,119.5l.16.31h.31l-.47-.31ZM208.75,119.66v.16h.47l-.47-.16ZM207.5,119.82v.16h.78l-.78-.16Z" fill="#dc9e3c" isolation="isolate" opacity=".98" stroke="#dc9e3c"/><path d="M212.42,109.66l.08,1.17h-.16l.08-1.17Z" fill="#dc9e3c" isolation="isolate" opacity=".98" stroke="#dc9e3c"/><path d="M200.54,110.44l.08.55h-.16l.08-.55Z" fill="#dc9e3c" isolation="isolate" opacity=".98" stroke="#dc9e3c"/><path d="M219.45,110.91l-.16.31.16-.31Z" fill="#dc9e3c" isolation="isolate" opacity=".98" stroke="#dc9e3c"/><path d="M193.51,111.85l.16.31-.16-.31Z" fill="#dc9e3c" isolation="isolate" opacity=".98" stroke="#dc9e3c"/><path d="M218.82,111.85l-.16.31.16-.31Z" fill="#dc9e3c" isolation="isolate" opacity=".98" stroke="#dc9e3c"/><path d="M200.39,112.79l.16.31-.16-.31Z" fill="#dc9e3c" isolation="isolate" opacity=".98" stroke="#dc9e3c"/><path d="M215.23,115.44l-.16.31.16-.31Z" fill="#dc9e3c" isolation="isolate" opacity=".98" stroke="#dc9e3c"/><path d="M214.29,116.07l-.16.31.16-.31Z" fill="#dc9e3c" isolation="isolate" opacity=".98" stroke="#dc9e3c"/><path d="M201.25,117.94l.47.23-.47.08v-.31Z" fill="#dc9e3c" isolation="isolate" opacity=".98" stroke="#dc9e3c"/><path d="M209.76,117.94l.39.08-.39.08v-.16Z" fill="#dc9e3c" isolation="isolate" opacity=".98" stroke="#dc9e3c"/><path d="M203.04,118.1l.39.08-.39.08v-.16Z" fill="#dc9e3c" isolation="isolate" opacity=".98" stroke="#dc9e3c"/><path d="M209.14,118.1l.39.08-.39.08v-.16Z" fill="#dc9e3c" isolation="isolate" opacity=".98" stroke="#dc9e3c"/><path d="M202.18,118.25l1.09.23-1.09.08v-.31Z" fill="#dc9e3c" isolation="isolate" opacity=".98" stroke="#dc9e3c"/><path d="M203.82,118.25l.7.08-.7.08v-.16Z" fill="#dc9e3c" isolation="isolate" opacity=".98" stroke="#dc9e3c"/><path d="M208.04,118.25l.55.08-.55.08v-.16Z" fill="#dc9e3c" isolation="isolate" opacity=".98" stroke="#dc9e3c"/><path d="M205.07,118.41l2.42.08-2.42.08v-.16Z" fill="#dc9e3c" isolation="isolate" opacity=".98" stroke="#dc9e3c"/><path d="M200.7,118.57c.24-.07.32,0,.23.23l-.23-.23Z" fill="#dc9e3c" isolation="isolate" opacity=".98" stroke="#dc9e3c"/><path d="M205.7,90.13h1.72l2.73.47.16.39-1.33,1.8c-.49.14-.8.08-.94-.16h-3.59c-3.1.59-5.47,1.92-7.11,3.98l-1.87,3.12c-.54,1.23-.8,2.74-.78,4.53l.31.62v2.03l.31.62v.31l.94,2.19,1.87,2.42,2.19,1.64-.16.31.23.23c.16-.36.31-.42.47-.16l2.97.94c.49-.14.8-.08.94.16h2.66l.16-.16,1.87-.16.31-.31,1.25-.31,2.73-1.72.23-.47.86-.7,1.41-1.87,1.09-2.81v-1.87c.32-.56.43-1.34.31-2.34l-.62-2.81-1.09-2.19-2.42-2.73-1.95-1.33,1.25-1.95h.7l.62.62,1.48.62.23.47.55.16.39.62,1.33,1.17.78,1.09.16.7.47.23c-.26.16-.21.31.16.47.59.92,1.01,2.01,1.25,3.28v.31l.16.47v.31l.16,2.81-.78,3.44-.94,2.03c-.98,1.68-2.2,3.11-3.67,4.3-1.4,1.16-3.06,2.04-5,2.66l-2.97.62h-3.44l-.16-.16-1.72-.16-2.03-.62-2.27-1.09.16-.39c-.62.05-1.07-.08-1.33-.39l-2.73-2.58-1.72-3.12-.62-2.03-.31-3.44.16-.16v-1.56l.31-.78.16-1.41.94-1.87v-.55c.28.11.39.04.31-.23l1.41-2.27,1.09-.86.23-.39.39-.23.23-.39,2.34-1.56,2.03-.78.31-.31,4.06-.78Z" fill="#fbd14e" stroke="#fbd14e"/><path d="M214.29,101.69l.08.23-.31.16.23-.39Z" fill="#fbd14e" stroke="#fbd14e"/><path d="M212.73,103.41l-.31.47.31-.47Z" fill="#fbd14e" stroke="#fbd14e"/><path d="M211.95,104.19l-.86,1.02-.16.31.31,1.09-.31.08v-1.02l-.16-.16.31-.7.86-.62Z" fill="#fbd14e" stroke="#fbd14e"/><path d="M202.11,105.29l.08.39-.08.23.23.08-.31.08-.23,1.25-.08-.7.39-1.33Z" fill="#fbd14e" stroke="#fbd14e"/><path d="M211.17,106.85l.08.55h-.16l.08-.55Z" fill="#fbd14e" stroke="#fbd14e"/><path d="M201.64,107.47l.08.86-.31.16.23-1.02Z" fill="#fbd14e" stroke="#fbd14e"/><path d="M211.32,107.63l.08.7h-.16l.08-.7Z" fill="#fbd14e" stroke="#fbd14e"/><path d="M211.48,108.57l.08.55h-.16l.08-.55Z" fill="#fbd14e" stroke="#fbd14e"/><path d="M201.48,108.72l.08.39-.23,1.17-.08-1.02.23-.55Z" fill="#fbd14e" stroke="#fbd14e"/><path d="M204.61,109.19l-.16.31-.31.16.16-.31.31-.16Z" fill="#fbd14e" stroke="#fbd14e"/><path d="M211.64,109.82l.08.55c-.17.31-.53.39-1.09.23l.08-.31.86.16.08-.62Z" fill="#fbd14e" stroke="#fbd14e"/><path d="M202.26,110.29l.39.08-.55.23.16-.31Z" fill="#fbd14e" stroke="#fbd14e"/><path d="M213.51,89.51l1.48.86-.23.08-1.09-.62-.16-.31Z" fill="#9d440a" isolation="isolate" opacity=".04" stroke="#9d440a"/><path d="M197.57,90.13l.23.08-2.27,1.64.47-.62,1.56-1.09Z" fill="#9d440a" isolation="isolate" opacity=".04" stroke="#9d440a"/><path d="M220.07,95.6l1.02,1.48-.31.08-.7-1.56Z" fill="#9d440a" isolation="isolate" opacity=".04" stroke="#9d440a"/><path d="M190.78,97.94l.31.08-.55,1.33-.08-.39.31-1.02Z" fill="#9d440a" isolation="isolate" opacity=".04" stroke="#9d440a"/><path d="M189.76,104.5l.08,1.02c-.16.31-.31.31-.47,0l.39-1.02Z" fill="#9d440a" isolation="isolate" opacity=".04" stroke="#9d440a"/><path d="M220.78,112.16l.31.08-.7,1.17-.08-.23c.37-.2.53-.54.47-1.02Z" fill="#9d440a" isolation="isolate" opacity=".04" stroke="#9d440a"/><path d="M192.26,114.03l.7,1.02-.47-.31-.23-.7Z" fill="#9d440a" isolation="isolate" opacity=".04" stroke="#9d440a"/><path d="M219.92,114.03l-.16.31.16-.31Z" fill="#9d440a" isolation="isolate" opacity=".04" stroke="#9d440a"/><path d="M219.6,114.5l-.16.31.16-.31Z" fill="#9d440a" isolation="isolate" opacity=".04" stroke="#9d440a"/><path d="M219.29,114.97l-.31.47.31-.47Z" fill="#9d440a" isolation="isolate" opacity=".04" stroke="#9d440a"/><path d="M193.36,115.44l.31.47-.31-.47Z" fill="#9d440a" isolation="isolate" opacity=".04" stroke="#9d440a"/><path d="M218.67,115.75l-1.56,1.72,1.56-1.72Z" fill="#9d440a" isolation="isolate" opacity=".04" stroke="#9d440a"/><path d="M194.14,116.38l.16.31-.16-.31Z" fill="#9d440a" isolation="isolate" opacity=".04" stroke="#9d440a"/><path d="M195.54,117.63l.31.47-.31-.47Z" fill="#9d440a" isolation="isolate" opacity=".04" stroke="#9d440a"/><path d="M216.48,117.78l-.31.47.31-.47Z" fill="#9d440a" isolation="isolate" opacity=".04" stroke="#9d440a"/><path d="M196.17,118.1l.31.47-.31-.47Z" fill="#9d440a" isolation="isolate" opacity=".04" stroke="#9d440a"/><path d="M215.85,118.25l-.31.47.31-.47Z" fill="#9d440a" isolation="isolate" opacity=".04" stroke="#9d440a"/><path d="M196.79,118.57l.16.31-.16-.31Z" fill="#9d440a" isolation="isolate" opacity=".04" stroke="#9d440a"/><path d="M215.23,118.72l-.16.31.16-.31Z" fill="#9d440a" isolation="isolate" opacity=".04" stroke="#9d440a"/><path d="M197.26,118.88l.16.31-.16-.31Z" fill="#9d440a" isolation="isolate" opacity=".04" stroke="#9d440a"/><path d="M214.76,119.03l-.16.31-.31.16.16-.31.31-.16Z" fill="#9d440a" isolation="isolate" opacity=".04" stroke="#9d440a"/><path d="M197.73,119.19l.55.39-.23-.08-.31-.31Z" fill="#9d440a" isolation="isolate" opacity=".04" stroke="#9d440a"/><path d="M213.98,119.5l-.16.31-.47.16v-.16l.62-.31Z" fill="#9d440a" isolation="isolate" opacity=".04" stroke="#9d440a"/><path d="M199.45,120.13l1.33.55-.23.08-1.09-.47v-.16Z" fill="#9d440a" isolation="isolate" opacity=".04" stroke="#9d440a"/><path d="M212.26,120.28l.23.08-.55.23v-.16l.31-.16Z" fill="#9d440a" isolation="isolate" opacity=".04" stroke="#9d440a"/><path d="M211.01,120.75l.23.08-2.11.55v-.16l1.87-.47Z" fill="#9d440a" isolation="isolate" opacity=".04" stroke="#9d440a"/><path d="M201.48,120.91l1.02.23-.55.08-.47-.16v-.16Z" fill="#9d440a" isolation="isolate" opacity=".04" stroke="#9d440a"/><path d="M202.73,121.22l.55.08-.55.08v-.16Z" fill="#9d440a" isolation="isolate" opacity=".04" stroke="#9d440a"/><path d="M203.51,121.38l.7.08-.7.08v-.16Z" fill="#9d440a" isolation="isolate" opacity=".04" stroke="#9d440a"/><path d="M208.04,121.38l.86.08-.86.08v-.16Z" fill="#9d440a" isolation="isolate" opacity=".04" stroke="#9d440a"/><path d="M205.07,89.98l3.2.08-3.2.08v-.16Z" fill="#fce37d" isolation="isolate" opacity=".99" stroke="#fce37d"/><path d="M203.82,90.13l.7.08-.7.08v-.16Z" fill="#fce37d" isolation="isolate" opacity=".99" stroke="#fce37d"/><path d="M208.82,90.13l.55.08-.55.08v-.16Z" fill="#fce37d" isolation="isolate" opacity=".99" stroke="#fce37d"/><path d="M202.89,90.29l.7.08-2.42.7v-.16l1.72-.62Z" fill="#fce37d" isolation="isolate" opacity=".99" stroke="#fce37d"/><path d="M209.6,90.29l2.34.62.94.62.23-.08-1.8,2.27-.47-.31h-.31l-1.48-.55,1.25-1.56.16-.7-.86-.16v-.16Z" fill="#fce37d" isolation="isolate" opacity=".99" stroke="#fce37d"/><path d="M200.7,91.07l.23.08-.86.39v-.16l.62-.31Z" fill="#fce37d" isolation="isolate" opacity=".99" stroke="#fce37d"/><path d="M199.61,91.54l.23.08-2.27,1.48.31-.47,1.72-1.09Z" fill="#fce37d" isolation="isolate" opacity=".99" stroke="#fce37d"/><path d="M213.35,91.54l.7.39-.23-.08c-.4-.03-.55-.14-.47-.31Z" fill="#fce37d" isolation="isolate" opacity=".99" stroke="#fce37d"/><path d="M214.29,92.01l.16.31-.16-.31Z" fill="#fce37d" isolation="isolate" opacity=".99" stroke="#fce37d"/><path d="M214.76,92.32l1.33,1.02-.7-.55c-.42-.05-.62-.21-.62-.47Z" fill="#fce37d" isolation="isolate" opacity=".99" stroke="#fce37d"/><path d="M216.17,92.94l.16.31-.16-.31Z" fill="#fce37d" isolation="isolate" opacity=".99" stroke="#fce37d"/><path d="M197.26,93.1l-.31.47-1.95,1.8-1.41,1.87-.55,1.17-.08-.23c.94-1.93,2.21-3.52,3.83-4.77l.47-.31Z" fill="#fce37d" isolation="isolate" opacity=".99" stroke="#fce37d"/><path d="M216.48,93.57l.62.62c.14-.23.27-.2.39.08l-.16.16.55.55.23.08-.23.08-1.41-1.56Z" fill="#fce37d" isolation="isolate" opacity=".99" stroke="#fce37d"/><path d="M218.2,95.44l.31.47-.31-.47Z" fill="#fce37d" isolation="isolate" opacity=".99" stroke="#fce37d"/><path d="M218.67,96.07l.16.31-.16-.31Z" fill="#fce37d" isolation="isolate" opacity=".99" stroke="#fce37d"/><path d="M206.25,96.38c.4-.16.55-.08.47.23l1.56,3.28.7.86c.6-.07,1.05,0,1.33.23l-2.42,1.8c-1.77,1.04-3.75,1.87-5.94,2.5l-.94-1.09-.55-.39c.08-.23,0-.31-.23-.23l-1.64-1.64v-.39h1.48l.62-.31h1.25l2.27-.47,2.03-4.37Z" fill="#fce37d" isolation="isolate" opacity=".99" stroke="#fce37d"/><path d="M219.13,96.54l.23.39-.31-.16.08-.23Z" fill="#fce37d" isolation="isolate" opacity=".99" stroke="#fce37d"/><path d="M192.73,98.88l.08.23-.47.78-.23,1.02-.08-.86.7-1.17Z" fill="#fce37d" isolation="isolate" opacity=".99" stroke="#fce37d"/><path d="M211.64,100.44l.39.08-.08.23.78.16v-.31c.27-.07.35.03.23.31h.55l.39-.16c-.11.28-.04.39.23.31l.39.23-.7.08-.16-.16-3.2-.39,1.17-.39Z" fill="#fce37d" isolation="isolate" opacity=".99" stroke="#fce37d"/><path d="M191.95,101.07l.08.55h-.16l.08-.55Z" fill="#fce37d" isolation="isolate" opacity=".99" stroke="#fce37d"/><path d="M191.79,101.85l.08.55h-.16l.08-.55Z" fill="#fce37d" isolation="isolate" opacity=".99" stroke="#fce37d"/><path d="M191.64,102.63l.08,1.48h-.16l.08-1.48Z" fill="#fce37d" isolation="isolate" opacity=".99" stroke="#fce37d"/><path d="M191.17,104.66l.08.39h-.16l.08-.39Z" fill="#fce37d" isolation="isolate" opacity=".99" stroke="#fce37d"/><path d="M191.64,105.29l.08,1.64.31,1.25-.31-.16-.16-.62.16-.39c-.28.11-.39.04-.31-.23l.16-.16.08-1.33Z" fill="#fce37d" isolation="isolate" opacity=".99" stroke="#fce37d"/><path d="M191.33,105.91l.08.39h-.16l.08-.39Z" fill="#fce37d" isolation="isolate" opacity=".99" stroke="#fce37d"/><path d="M195.54,107.63l1.02,1.8v.31l.08.23.23-.08c-.16.31-.31.31-.47,0l-.16-.31.08-.23c-.23.08-.31,0-.23-.23-.4-.41-.58-.9-.55-1.48Z" fill="#fce37d" isolation="isolate" opacity=".99" stroke="#fce37d"/><path d="M216.79,107.79l.08.23c-.68,1.87-1.69,3.41-3.05,4.61-1.21,1.19-2.77,2.02-4.69,2.5l.16-.31.78-.31h.62l1.25-.62,1.95-1.48-.08-.23c.14.24.27.21.39-.08l.62-.94-.94.62,1.02-1.02c.19.28.37.2.55-.23l-.08-.23-.23.08.7-.86.23-.08c-.26-.16-.21-.31.16-.47l.55-1.17Z" fill="#fce37d" isolation="isolate" opacity=".99" stroke="#fce37d"/><path d="M191.95,108.41c.27-.08.35.05.23.39l.31.78h-.16l-.39-1.17Z" fill="#fce37d" isolation="isolate" opacity=".99" stroke="#fce37d"/><path d="M192.58,109.82l.39.7-.31-.16-.08-.55Z" fill="#fce37d" isolation="isolate" opacity=".99" stroke="#fce37d"/><path d="M196.79,110.29l.55.23c-.26.16-.21.31.16.47l.31.7c.28-.11.39-.04.31.23.05.42.34.6.86.55l-.16-.47c.45.19.53.37.23.55-.07.27.03.35.31.23l.08-.31,1.17,1.48-.39-.23c-1.14-.62-2.1-1.43-2.89-2.42l-.55-1.02Z" fill="#fce37d" isolation="isolate" opacity=".99" stroke="#fce37d"/><path d="M213.35,112.16l-.31.47.31-.47Z" fill="#fce37d" isolation="isolate" opacity=".99" stroke="#fce37d"/><path d="M212.73,112.63l-.31.47-.31.16.16-.31.47-.31Z" fill="#fce37d" isolation="isolate" opacity=".99" stroke="#fce37d"/><path d="M200.07,112.94l.86.55-.23-.08c-.42-.05-.62-.21-.62-.47Z" fill="#fce37d" isolation="isolate" opacity=".99" stroke="#fce37d"/><path d="M200.86,114.03l1.25.47.31-.16v.31l.55-.23-.31-.16.23-.08,1.48.39-1.17.23-.47-.16v.16l1.87.47h.31l3.91-.16v.16c-.49-.14-.8-.08-.94.16h-3.28l-2.81-.78-.78-.31-.16-.31Z" fill="#fce37d" isolation="isolate" opacity=".99" stroke="#fce37d"/><path d="M208.82,114.35c.34-.11.47-.04.39.23l-.23-.08-.16-.16Z" fill="#fce37d" isolation="isolate" opacity=".99" stroke="#fce37d"/><path d="M208.04,114.5l.55.08c-.14.29-.27.32-.39.08l-.16-.16Z" fill="#fce37d" isolation="isolate" opacity=".99" stroke="#fce37d"/><path d="M204.92,114.66l2.73.08-2.73.08v-.16Z" fill="#fce37d" isolation="isolate" opacity=".99" stroke="#fce37d"/><path d="M204.76,92.63l.39.08-.39.08v-.16Z" fill="#edb142" isolation="isolate" opacity="1" stroke="#edb142"/><path d="M207.26,92.63l.39.08-.39.08v-.16Z" fill="#edb142" isolation="isolate" opacity="1" stroke="#edb142"/><path d="M205.7,93.72l2.5.16,2.19.62c1.96.8,3.55,1.97,4.77,3.52l1.72,3.44-.16.31h.31l-.16.47.31.08.31,2.27-.47,2.19-.94,2.19c-.71,1.27-1.62,2.34-2.73,3.2-1.21.98-2.67,1.71-4.37,2.19l-1.87.16-.16.16h-1.56l-2.5-.47-2.27-.94-.08-.31c-.16.26-.31.21-.47-.16-1.08-.59-1.99-1.35-2.73-2.27l-1.09-1.56-.78-1.72-.62-3.28.31-.47v-.94l.31-1.25.94-2.03c.66-1.11,1.46-2.08,2.42-2.89l3.12-1.87,1.56-.47,2.03-.16.16-.16ZM206.25,94.82l-1.09.94c.1.21.05.26-.16.16v.31h-.16v.31h-.16v.31h-.16l-.16.47c.1.21.05.26-.16.16v.31l-.31.47c.1.21.05.26-.16.16v.31h-.16v.31h-.16v.31l-.16-.16-.78.47-.62-.16-.47.31-.62-.16-.47.31c-.62-.1-.99-.05-1.09.16l-.47-.16-.16.31-.16-.16c-.52.42-.83.99-.94,1.72l.31.47-.16.31h.31l.16.62.47.16.16.47,1.41,1.09.47.31.47.62v.31l-.62,3.44v1.09l-.16.16,1.09,1.09,1.25-.16h.31v-.16h.31v-.16h.31v-.16l.94-.62.31.16-.16-.16.31-.16h.31v-.16h.31v-.16h.31l.16-.31.31.16v-.31c.31-.1.42,0,.31.31l.31-.16v.31l.31-.16v.31l.31-.16,1.25.78c.21-.1.26,0,.16.31l.31-.16v.31l.31-.16,1.25.62.94-.16.62-.94v-1.09l-.47-2.03-.16-1.87,2.03-2.03.16.16.94-.94-.16-.16.47-.31-.16-.16c-.1-.42,0-.57.31-.47v-.78h-.31l.16-.31-.16-.16-.47-.47h-.16l-.16-.16h-.16l-1.41-.16-.31-.31-.47.16-.47-.16h-.94c.1-.31-.1-.42-.62-.31h-.31l-.16-.16v-.31l-.16-.16v-.16l-.16-.16v-.16l-.16-.16v-.16l-.16-.16v-.16l-.16-.16v-.31c-.31.1-.42.05-.31-.16l-.16-.47c.1-.31.05-.42-.16-.31v-.31c-.31.1-.42.05-.31-.16-.21-.62-.73-.94-1.56-.94Z" fill="#edb142" isolation="isolate" opacity="1" stroke="#edb142"/><path d="M199.76,94.51l-.16.31.16-.31Z" fill="#edb142" isolation="isolate" opacity="1" stroke="#edb142"/><path d="M199.14,94.97l-.16.31.16-.31Z" fill="#edb142" isolation="isolate" opacity="1" stroke="#edb142"/><path d="M214.14,95.76l.47.62-.47-.62Z" fill="#edb142" isolation="isolate" opacity="1" stroke="#edb142"/><path d="M197.26,96.85l-.16.31.16-.31Z" fill="#edb142" isolation="isolate" opacity="1" stroke="#edb142"/><path d="M215.23,97.01l.16.31-.16-.31Z" fill="#edb142" isolation="isolate" opacity="1" stroke="#edb142"/><path d="M214.45,101.85l-3.28,3.44,3.28-3.44Z" fill="#edb142" isolation="isolate" opacity="1" stroke="#edb142"/><path d="M194.92,102.16l.08.39h-.16l.08-.39Z" fill="#edb142" isolation="isolate" opacity="1" stroke="#edb142"/><path d="M211.79,109.82l.08.39h-.16l.08-.39Z" fill="#edb142" isolation="isolate" opacity="1" stroke="#edb142"/><path d="M211.64,110.44l-.16.31.16-.31Z" fill="#edb142" isolation="isolate" opacity="1" stroke="#edb142"/><path d="M193.83,112.16l.16.31-.16-.31Z" fill="#edb142" isolation="isolate" opacity="1" stroke="#edb142"/><path d="M218.04,112.79l-.16.31.16-.31Z" fill="#edb142" isolation="isolate" opacity="1" stroke="#edb142"/><path d="M194.45,112.94l.31.47-.31-.47Z" fill="#edb142" isolation="isolate" opacity="1" stroke="#edb142"/><path d="M195.86,114.35l.31.47-.31-.47Z" fill="#edb142" isolation="isolate" opacity="1" stroke="#edb142"/><path d="M216.32,114.5l-.31.47.31-.47Z" fill="#edb142" isolation="isolate" opacity="1" stroke="#edb142"/><path d="M196.79,115.13l.16.31-.16-.31Z" fill="#edb142" isolation="isolate" opacity="1" stroke="#edb142"/><path d="M203.51,118.1l.39.08-.39.08v-.16Z" fill="#edb142" isolation="isolate" opacity="1" stroke="#edb142"/><path d="M208.67,118.1l.39.08-.39.08v-.16Z" fill="#edb142" isolation="isolate" opacity="1" stroke="#edb142"/><path d="M204.61,118.25l.7.08-.7.08v-.16Z" fill="#edb142" isolation="isolate" opacity="1" stroke="#edb142"/><path d="M206.95,118.25l1.02.08-1.02.08v-.16Z" fill="#edb142" isolation="isolate" opacity="1" stroke="#edb142"/><path d="M205.39,89.19l2.97.16,3.12.78c2.25.93,4.15,2.2,5.7,3.83l.78.94-1.48-1.33-1.56-1.25-1.87-.94c-.16.26-.31.21-.47-.16l-3.28-1.09c-.57.16-.94.1-1.09-.16h-3.12l-3.28.62-2.5,1.09c-1.74.97-3.22,2.19-4.45,3.67l-1.72,2.34c-.12,1.02-.49,1.8-1.09,2.34v.94l-.47,1.72-.08,3.98-.39-2.11v-1.56l.62-3.28,1.56-3.44c.81-1.27,1.78-2.39,2.89-3.36,1.14-1,2.44-1.83,3.91-2.5l2.97-.94,2.19-.16.16-.16Z" fill="#fcea99" isolation="isolate" opacity=".99" stroke="#fcea99"/><path d="M218.04,95.13l.47.62-.47-.62Z" fill="#fcea99" isolation="isolate" opacity=".99" stroke="#fcea99"/><path d="M206.32,95.44c.52-.05.81.13.86.55.57,1.56,1.33,2.94,2.27,4.14h.78l1.33.39-1.64.39c-.12-.24-.44-.29-.94-.16l-.23-.23-1.87-3.28-.16-.86c-.39-.16-.54-.08-.47.23l-1.25,2.19-.78,1.95-2.27.47h-1.25l-.62.31h-1.48l-.08.31-.08-.7.39-.39,4.69-.62.39-.39,2.03-4.14.39-.16Z" fill="#fcea99" isolation="isolate" opacity=".99" stroke="#fcea99"/><path d="M218.67,95.91l.16.31-.16-.31Z" fill="#fcea99" isolation="isolate" opacity=".99" stroke="#fcea99"/><path d="M211.95,100.6c.47-.1.76-.03.86.23l-.39.08-.47-.16v-.16Z" fill="#fcea99" isolation="isolate" opacity=".99" stroke="#fcea99"/><path d="M213.04,100.76l.55.08-.55.08v-.16Z" fill="#fcea99" isolation="isolate" opacity=".99" stroke="#fcea99"/><path d="M213.98,100.91c.34-.11.47-.04.39.23l-.23-.08-.16-.16Z" fill="#fcea99" isolation="isolate" opacity=".99" stroke="#fcea99"/><path d="M201.01,104.19l.78.94-.78-.94Z" fill="#fcea99" isolation="isolate" opacity=".99" stroke="#fcea99"/><path d="M196.33,109.35c.76,1.22,1.7,2.26,2.81,3.12.27-.07.35.03.23.31-.31.1-.42,0-.31-.31h-.39l-.55-.78c-.28.11-.39.04-.31-.23-.73-.6-1.22-1.31-1.48-2.11Z" fill="#fcea99" isolation="isolate" opacity=".99" stroke="#fcea99"/><path d="M215.54,110.13l-.08.23-1.64,2.11-1.87,1.41-1.25.62h-.62l-.78.31-.31.31-4.06.16-.47-.16-1.41-.16-.7-.39.08-.23-.47.16-1.25-.47-.86-.86.08-.23c.85.66,1.87,1.15,3.05,1.48l-.31.16.7.23.16-.16h1.25l.16.16h2.66l.62-.16c.16.26.31.21.47-.16l.47.16.08-.31c1.23-.19,2.3-.6,3.2-1.25l2.58-2.27.55-.7Z" fill="#fcea99" isolation="isolate" opacity=".99" stroke="#fcea99"/><path d="M204.61,89.19l.7.08-.7.08v-.16Z" fill="#f5d66f" isolation="isolate" opacity="1" stroke="#f5d66f"/><path d="M207.11,89.19l.7.08-.7.08v-.16Z" fill="#f5d66f" isolation="isolate" opacity="1" stroke="#f5d66f"/><path d="M208.51,89.35l.39.08-.39.08v-.16Z" fill="#f5d66f" isolation="isolate" opacity="1" stroke="#f5d66f"/><path d="M204.61,90.13l.86.08-.86.08v-.16Z" fill="#f5d66f" isolation="isolate" opacity="1" stroke="#f5d66f"/><path d="M207.57,90.13l1.17.08-1.17.08v-.16Z" fill="#f5d66f" isolation="isolate" opacity="1" stroke="#f5d66f"/><path d="M203.67,90.29l.55.08-.55.08v-.16Z" fill="#f5d66f" isolation="isolate" opacity="1" stroke="#f5d66f"/><path d="M209.14,90.29l.39.08-.39.08v-.16Z" fill="#f5d66f" isolation="isolate" opacity="1" stroke="#f5d66f"/><path d="M202.89,90.44l.39.08-.86.23v-.16l.47-.16Z" fill="#f5d66f" isolation="isolate" opacity="1" stroke="#f5d66f"/><path d="M210.39,90.91l-.08.23-.86,1.17.08-.23.86-1.17Z" fill="#f5d66f" isolation="isolate" opacity="1" stroke="#f5d66f"/><path d="M201.01,91.07l.23.08-.55.23v-.16l.31-.16Z" fill="#f5d66f" isolation="isolate" opacity="1" stroke="#f5d66f"/><path d="M198.2,91.38l-.16.31.16-.31Z" fill="#f5d66f" isolation="isolate" opacity="1" stroke="#f5d66f"/><path d="M200.39,91.38l-.16.31-.62.16v-.16l.78-.31Z" fill="#f5d66f" isolation="isolate" opacity="1" stroke="#f5d66f"/><path d="M213.04,91.54l.23.08-.62.47-.86,1.17.23-.39,1.02-1.33Z" fill="#f5d66f" isolation="isolate" opacity="1" stroke="#f5d66f"/><path d="M214.6,91.69l.16.31-.16-.31Z" fill="#f5d66f" isolation="isolate" opacity="1" stroke="#f5d66f"/><path d="M199.29,91.85l-.16.31.16-.31Z" fill="#f5d66f" isolation="isolate" opacity="1" stroke="#f5d66f"/><path d="M213.82,91.85l1.02.7-.23-.08c-.48-.12-.74-.33-.78-.62Z" fill="#f5d66f" isolation="isolate" opacity="1" stroke="#f5d66f"/><path d="M197.26,92.01l-.16.31.16-.31Z" fill="#f5d66f" isolation="isolate" opacity="1" stroke="#f5d66f"/><path d="M215.23,92.16l.16.31-.16-.31Z" fill="#f5d66f" isolation="isolate" opacity="1" stroke="#f5d66f"/><path d="M198.51,92.32l-.31.47.31-.47Z" fill="#f5d66f" isolation="isolate" opacity="1" stroke="#f5d66f"/><path d="M209.29,92.47l-.31.47.31-.47Z" fill="#f5d66f" isolation="isolate" opacity="1" stroke="#f5d66f"/><path d="M196.48,92.63l-.16.31.16-.31Z" fill="#f5d66f" isolation="isolate" opacity="1" stroke="#f5d66f"/><path d="M215.85,92.63l.16.31-.16-.31Z" fill="#f5d66f" isolation="isolate" opacity="1" stroke="#f5d66f"/><path d="M197.89,92.79l-.31.47-.47.31.31-.47.47-.31Z" fill="#f5d66f" isolation="isolate" opacity="1" stroke="#f5d66f"/><path d="M215.39,92.79l.47.62-.47-.62Z" fill="#f5d66f" isolation="isolate" opacity="1" stroke="#f5d66f"/><path d="M211.64,93.41l-.08.23-.08.23-.08-.23.23-.23Z" fill="#f5d66f" isolation="isolate" opacity="1" stroke="#f5d66f"/><path d="M216.17,93.41l1.09,1.25-1.09-1.25Z" fill="#f5d66f" isolation="isolate" opacity="1" stroke="#f5d66f"/><path d="M196.79,93.57l-1.72,1.87,1.72-1.87Z" fill="#f5d66f" isolation="isolate" opacity="1" stroke="#f5d66f"/><path d="M217.57,94.35l.16.31-.16-.31Z" fill="#f5d66f" isolation="isolate" opacity="1" stroke="#f5d66f"/><path d="M194.61,94.51l-.16.31.16-.31Z" fill="#f5d66f" isolation="isolate" opacity="1" stroke="#f5d66f"/><path d="M217.57,94.82l.47.47c.12-.23.26-.2.39.08l-.39.08-.47-.62Z" fill="#f5d66f" isolation="isolate" opacity="1" stroke="#f5d66f"/><path d="M194.92,95.6l-.47.62.47-.62Z" fill="#f5d66f" isolation="isolate" opacity="1" stroke="#f5d66f"/><path d="M218.35,95.76l.39.08c-.22.34-.35.32-.39-.08Z" fill="#f5d66f" isolation="isolate" opacity="1" stroke="#f5d66f"/><path d="M218.98,96.22v.47c-.31-.16-.31-.31,0-.47Z" fill="#f5d66f" isolation="isolate" opacity="1" stroke="#f5d66f"/><path d="M194.29,96.38l-.16.31.16-.31Z" fill="#f5d66f" isolation="isolate" opacity="1" stroke="#f5d66f"/><path d="M219.13,96.85l.39.23-.23.08-.16-.31Z" fill="#f5d66f" isolation="isolate" opacity="1" stroke="#f5d66f"/><path d="M193.83,97.01l-.08.23-.23.39.08-.23.23-.39Z" fill="#f5d66f" isolation="isolate" opacity="1" stroke="#f5d66f"/><path d="M219.6,97.63c.24-.07.32,0,.23.23l.47,1.25h-.16l-.55-1.48Z" fill="#f5d66f" isolation="isolate" opacity="1" stroke="#f5d66f"/><path d="M193.2,98.1l.08.23-.86,1.8-.08-.23.86-1.8Z" fill="#f5d66f" isolation="isolate" opacity="1" stroke="#f5d66f"/><path d="M211.01,100.29l.39.08-.39.08v-.16Z" fill="#f5d66f" isolation="isolate" opacity="1" stroke="#f5d66f"/><path d="M192.11,100.91l.08.39h-.16l.08-.39Z" fill="#f5d66f" isolation="isolate" opacity="1" stroke="#f5d66f"/><path d="M211.01,100.91l.55.08-.55.08v-.16Z" fill="#f5d66f" isolation="isolate" opacity="1" stroke="#f5d66f"/><path d="M210.07,101.07l-.62.78-.31.16.16-.31.78-.62Z" fill="#f5d66f" isolation="isolate" opacity="1" stroke="#f5d66f"/><path d="M212.1,101.07l.55.08-.55.08v-.16Z" fill="#f5d66f" isolation="isolate" opacity="1" stroke="#f5d66f"/><path d="M198.36,101.22l.08.39h-.16l.08-.39Z" fill="#f5d66f" isolation="isolate" opacity="1" stroke="#f5d66f"/><path d="M213.2,101.22l.55.08-.55.08v-.16Z" fill="#f5d66f" isolation="isolate" opacity="1" stroke="#f5d66f"/><path d="M191.95,101.69l.08.39h-.16l.08-.39Z" fill="#f5d66f" isolation="isolate" opacity="1" stroke="#f5d66f"/><path d="M198.51,101.85l3.44,3.44.16-.16.23.08-.39.23-3.44-3.59Z" fill="#f5d66f" isolation="isolate" opacity="1" stroke="#f5d66f"/><path d="M208.82,102.01l-.31.47.31-.47Z" fill="#f5d66f" isolation="isolate" opacity="1" stroke="#f5d66f"/><path d="M191.17,102.16l.08.7h-.16l.08-.7Z" fill="#f5d66f" isolation="isolate" opacity="1" stroke="#f5d66f"/><path d="M191.79,102.47l.08.86h-.16l.08-.86Z" fill="#f5d66f" isolation="isolate" opacity="1" stroke="#f5d66f"/><path d="M208.2,102.47l-.16.31.16-.31Z" fill="#f5d66f" isolation="isolate" opacity="1" stroke="#f5d66f"/><path d="M207.42,102.94l-.16.31-1.41.62v-.16l1.56-.78Z" fill="#f5d66f" isolation="isolate" opacity="1" stroke="#f5d66f"/><path d="M205.54,103.88l-.16.31-.94.31v-.16l1.09-.47Z" fill="#f5d66f" isolation="isolate" opacity="1" stroke="#f5d66f"/><path d="M191.64,104.19l.08,1.02h-.16l.08-1.02Z" fill="#f5d66f" isolation="isolate" opacity="1" stroke="#f5d66f"/><path d="M203.51,104.66l.23.08-1.17.39v-.16l.94-.31Z" fill="#f5d66f" isolation="isolate" opacity="1" stroke="#f5d66f"/><path d="M191.17,105.13l.08.7h-.16l.08-.7Z" fill="#f5d66f" isolation="isolate" opacity="1" stroke="#f5d66f"/><path d="M195.08,106.07l.39,1.17-.08.23.23.08-.16.31h.31l-.23.39-.55-1.48.08-.7Z" fill="#f5d66f" isolation="isolate" opacity="1" stroke="#f5d66f"/><path d="M217.26,106.07l.08.7-.55,1.64-.23-.39h.31l-.16-.47h.31l-.16-.31.39-1.17Z" fill="#f5d66f" isolation="isolate" opacity="1" stroke="#f5d66f"/><path d="M191.79,106.22l.23,1.48h-.16l-.08-1.48Z" fill="#f5d66f" isolation="isolate" opacity="1" stroke="#f5d66f"/><path d="M192.26,108.72l.23.55-.31.16.16-.47-.08-.23Z" fill="#f5d66f" isolation="isolate" opacity="1" stroke="#f5d66f"/><path d="M195.86,108.72l1.48,2.42-.47-.31-1.09-1.87.08-.23Z" fill="#f5d66f" isolation="isolate" opacity="1" stroke="#f5d66f"/><path d="M216.48,108.88l.08.23-.39.55.08-.23.23-.55Z" fill="#f5d66f" isolation="isolate" opacity="1" stroke="#f5d66f"/><path d="M192.58,109.5l.08.31-.31-.08.23-.23Z" fill="#f5d66f" isolation="isolate" opacity="1" stroke="#f5d66f"/><path d="M215.54,109.82l-.16.31.16-.31Z" fill="#f5d66f" isolation="isolate" opacity="1" stroke="#f5d66f"/><path d="M215.85,110.13l-.16.31.16-.31Z" fill="#f5d66f" isolation="isolate" opacity="1" stroke="#f5d66f"/><path d="M215.07,110.44l-.16.31.16-.31Z" fill="#f5d66f" isolation="isolate" opacity="1" stroke="#f5d66f"/><path d="M197.42,110.6l1.25,1.41-1.25-1.41Z" fill="#f5d66f" isolation="isolate" opacity="1" stroke="#f5d66f"/><path d="M215.54,110.6l-.16.31.16-.31Z" fill="#f5d66f" isolation="isolate" opacity="1" stroke="#f5d66f"/><path d="M193.04,110.91c.24-.07.32,0,.23.23l.78,1.09-.31-.16-.7-1.17Z" fill="#f5d66f" isolation="isolate" opacity="1" stroke="#f5d66f"/><path d="M215.23,111.07l-.47.62.47-.62Z" fill="#f5d66f" isolation="isolate" opacity="1" stroke="#f5d66f"/><path d="M197.42,111.38l1.25,1.41-1.25-1.41Z" fill="#f5d66f" isolation="isolate" opacity="1" stroke="#f5d66f"/><path d="M213.67,111.85l-.16.31.16-.31Z" fill="#f5d66f" isolation="isolate" opacity="1" stroke="#f5d66f"/><path d="M199.14,112.16l.16.31-.16-.31Z" fill="#f5d66f" isolation="isolate" opacity="1" stroke="#f5d66f"/><path d="M214.29,112.16l-.16.31.16-.31Z" fill="#f5d66f" isolation="isolate" opacity="1" stroke="#f5d66f"/><path d="M213.67,112.63l-.62.78-.47.31.31-.47.78-.62Z" fill="#f5d66f" isolation="isolate" opacity="1" stroke="#f5d66f"/><path d="M198.98,112.79c.61.74,1.42,1.29,2.42,1.64l-.55.08c-.16-.26-.31-.21-.47.16l-.23-.23.16-.55c-.66-.18-1.1-.54-1.33-1.09Z" fill="#f5d66f" isolation="isolate" opacity="1" stroke="#f5d66f"/><path d="M212.26,113.72l-.16.31.16-.31Z" fill="#f5d66f" isolation="isolate" opacity="1" stroke="#f5d66f"/><path d="M204.45,114.5l.39.08-.39.08v-.16Z" fill="#f5d66f" isolation="isolate" opacity="1" stroke="#f5d66f"/><path d="M203.36,115.13l.39.08-.39.08v-.16Z" fill="#f5d66f" isolation="isolate" opacity="1" stroke="#f5d66f"/><path d="M203.98,115.28l.55.08-.55.08v-.16Z" fill="#f5d66f" isolation="isolate" opacity="1" stroke="#f5d66f"/><path d="M208.04,115.28l.55.08-.55.08v-.16Z" fill="#f5d66f" isolation="isolate" opacity="1" stroke="#f5d66f"/><path d="M205.07,115.44l2.42.08-2.42.08v-.16Z" fill="#f5d66f" isolation="isolate" opacity="1" stroke="#f5d66f"/><path d="M197.89,115.75l.55.08c-.12.29-.26.32-.39.08l-.16-.16Z" fill="#f5d66f" isolation="isolate" opacity="1" stroke="#f5d66f"/><path d="M210.7,88.41l1.17.39-.23.08-.94-.31v-.16Z" fill="#fee031" isolation="isolate" opacity=".04" stroke="#fee031"/><path d="M212.1,88.88l.55.23-.23.08-.31-.31Z" fill="#fee031" isolation="isolate" opacity=".04" stroke="#fee031"/><path d="M212.89,89.19l.39.23-.23-.08-.16-.16Z" fill="#fee031" isolation="isolate" opacity=".04" stroke="#fee031"/><path d="M215.85,90.91l.16.31-.16-.31Z" fill="#fee031" isolation="isolate" opacity=".04" stroke="#fee031"/><path d="M191.79,96.07l-.08.23-.08.23-.08-.23.23-.23Z" fill="#fee031" isolation="isolate" opacity=".04" stroke="#fee031"/><path d="M221.01,97.16l.39.86h-.16l-.23-.86Z" fill="#fee031" isolation="isolate" opacity=".04" stroke="#fee031"/><path d="M190.39,99.35l.08.39-.23.7-.08-.55.23-.55Z" fill="#fee031" isolation="isolate" opacity=".04" stroke="#fee031"/><path d="M189.92,101.38l.08.55h-.16l.08-.55Z" fill="#fee031" isolation="isolate" opacity=".04" stroke="#fee031"/><path d="M189.76,103.1l.08.55h-.16l.08-.55Z" fill="#fee031" isolation="isolate" opacity=".04" stroke="#fee031"/><path d="M221.95,109.5l.08.39-.86,2.11-.08-.23.86-2.27Z" fill="#fee031" isolation="isolate" opacity=".04" stroke="#fee031"/><path d="M207.73,92.63l.39.08-.39.08v-.16Z" fill="#fbc84a" stroke="#fbc84a"/><path d="M199.45,94.66l-.16.31.16-.31Z" fill="#fbc84a" stroke="#fbc84a"/><path d="M212.89,94.66l.16.31-.16-.31Z" fill="#fbc84a" stroke="#fbc84a"/><path d="M213.51,95.13l.47.62-.47-.62Z" fill="#fbc84a" stroke="#fbc84a"/><path d="M198.67,95.29l-1.09,1.25,1.09-1.25Z" fill="#fbc84a" stroke="#fbc84a"/><path d="M208.2,96.22l.23.39-.31-.16.08-.23Z" fill="#fbc84a" stroke="#fbc84a"/><path d="M214.76,96.38l.31.47-.31-.47Z" fill="#fbc84a" stroke="#fbc84a"/><path d="M203.36,99.04l-.08.23c.08.24,0,.32-.23.23l.31-.47Z" fill="#fbc84a" stroke="#fbc84a"/><path d="M209.76,99.19l.7.23-.55.08-.16-.31Z" fill="#fbc84a" stroke="#fbc84a"/><path d="M212.1,99.66l.39.08-.39.08v-.16Z" fill="#fbc84a" stroke="#fbc84a"/><path d="M210.85,101.07l.94.31.78-.16c.37.3.95.41,1.72.31l.23.23h-.31l-.47.86c-.28-.11-.39-.04-.31.23l-2.34,1.95-.31.7.39,1.95.16-.31.08.23c-.23.12-.28.44-.16.94h.16l.08-.23.08.39-.16.62h.31l-.16,1.33-.86-.16-.16.31-.39-.16-.08-.31h-.31c-.23.08-.31,0-.23-.23h-.31v-.23h-.62v-.23l-.39-.08-1.95-.94c.11.28.04.39-.23.31l-.78.47-.23-.08-.08.23-.31-.16v.31l-.31-.16v.31l-.23-.08c.08.24,0,.32-.23.23l-.47.31-.23-.08-.08.23-.23-.08-.08.23-.47-.16-.23.47-.62-.31v-1.17l-.08-.23.23.08-.16-.94h.16l.08.23.08-.86-.16-.31h.31l.16-1.17.31-.08-.31-.16.16-.55,1.17-.16,2.81-1.25.31.16.16-.47,3.05-1.72c-.11-.28-.04-.39.23-.31l.94-.47Z" fill="#fbc84a" stroke="#fbc84a"/><path d="M215.39,101.22l.08.7h-.16l.08-.7Z" fill="#fbc84a" stroke="#fbc84a"/><path d="M217.57,102.79l.08,1.48h-.16l.08-1.48Z" fill="#fbc84a" stroke="#fbc84a"/><path d="M194.76,102.94l.08,1.33h-.16l.08-1.33Z" fill="#fbc84a" stroke="#fbc84a"/><path d="M214.92,102.94l-1.41,1.56,1.41-1.56Z" fill="#fbc84a" stroke="#fbc84a"/><path d="M198.2,103.1l.16.31-.16-.31Z" fill="#fbc84a" stroke="#fbc84a"/><path d="M217.42,104.66l.08.39h-.16l.08-.39Z" fill="#fbc84a" stroke="#fbc84a"/><path d="M200.7,105.6l.31.47-.31-.47Z" fill="#fbc84a" stroke="#fbc84a"/><path d="M206.79,109.97l.39.23-.23.08-.16-.31Z" fill="#fbc84a" stroke="#fbc84a"/><path d="M210.85,110.6l.39.08-.39.08v-.16Z" fill="#fbc84a" stroke="#fbc84a"/><path d="M204.61,110.75l.23.08-.39.23.16-.31Z" fill="#fbc84a" stroke="#fbc84a"/><path d="M218.82,111.69l-.16.31.16-.31Z" fill="#fbc84a" stroke="#fbc84a"/><path d="M218.35,112.32l-.16.31.16-.31Z" fill="#fbc84a" stroke="#fbc84a"/><path d="M194.14,112.47l.16.31-.16-.31Z" fill="#fbc84a" stroke="#fbc84a"/><path d="M217.73,113.1l-1.25,1.41,1.25-1.41Z" fill="#fbc84a" stroke="#fbc84a"/><path d="M194.92,113.41l.78.94-.78-.94Z" fill="#fbc84a" stroke="#fbc84a"/><path d="M196.48,114.82l.16.31-.16-.31Z" fill="#fbc84a" stroke="#fbc84a"/><path d="M215.7,114.97l-.16.31.16-.31Z" fill="#fbc84a" stroke="#fbc84a"/><path d="M209.76,117.78l.39.08-.39.08v-.16Z" fill="#fbc84a" stroke="#fbc84a"/><path d="M209.14,117.94l.39.08-.39.08v-.16Z" fill="#fbc84a" stroke="#fbc84a"/><path d="M203.98,118.1l.39.08-.39.08v-.16Z" fill="#fbc84a" stroke="#fbc84a"/><path d="M208.04,118.1l.55.08-.55.08v-.16Z" fill="#fbc84a" stroke="#fbc84a"/><path d="M205.39,118.25l1.48.08-1.48.08v-.16Z" fill="#fbc84a" stroke="#fbc84a"/><path d="M219.29,114.82l-.16.31.16-.31Z" fill="#d9ab56" isolation="isolate" opacity=".61" stroke="#d9ab56"/><path d="M193.04,114.97l.31.47-.31-.47Z" fill="#d9ab56" isolation="isolate" opacity=".61" stroke="#d9ab56"/><path d="M218.82,115.44l-.31.47.31-.47Z" fill="#d9ab56" isolation="isolate" opacity=".61" stroke="#d9ab56"/><path d="M216.95,117.32l-.31.47.31-.47Z" fill="#d9ab56" isolation="isolate" opacity=".61" stroke="#d9ab56"/><path d="M204.45,92.79h3.44l2.34.62c1.89.72,3.42,1.79,4.61,3.2.79.93,1.42,2.02,1.87,3.28l-.08.23c.27-.08.35.05.23.39l.16.39c-.28.11-.39.04-.31-.23-.7-1.75-1.71-3.18-3.05-4.3-1.25-1.04-2.76-1.82-4.53-2.34l-1.41-.31h-2.97l-2.97.78c-1.51.62-2.79,1.48-3.83,2.58-.97.96-1.72,2.13-2.27,3.52l-.23-.39h.31l-.16-.47.62-1.33.31-.08c-.26-.16-.21-.31.16-.47l1.8-2.27c1.49-1.43,3.47-2.36,5.94-2.81Z" fill="#cd8a32" isolation="isolate" opacity=".91" stroke="#cd8a32"/><path d="M196.01,92.94l-.16.31.16-.31Z" fill="#cd8a32" isolation="isolate" opacity=".91" stroke="#cd8a32"/><path d="M216.32,92.94l.16.31-.16-.31Z" fill="#cd8a32" isolation="isolate" opacity=".91" stroke="#cd8a32"/><path d="M218.2,93.26l.47.62-.47-.62Z" fill="#cd8a32" isolation="isolate" opacity=".91" stroke="#cd8a32"/><path d="M216.79,93.41l.62.78-.62-.78Z" fill="#cd8a32" isolation="isolate" opacity=".91" stroke="#cd8a32"/><path d="M193.83,93.57l-.31.47.31-.47Z" fill="#cd8a32" isolation="isolate" opacity=".91" stroke="#cd8a32"/><path d="M206.32,94.82l.39.08-.39.08v-.16Z" fill="#cd8a32" isolation="isolate" opacity=".91" stroke="#cd8a32"/><path d="M205.86,94.97l-.16.31.16-.31Z" fill="#cd8a32" isolation="isolate" opacity=".91" stroke="#cd8a32"/><path d="M207.26,95.13l.31.47-.31-.47Z" fill="#cd8a32" isolation="isolate" opacity=".91" stroke="#cd8a32"/><path d="M203.36,99.35l-.16.31-.23-.08.39-.23Z" fill="#cd8a32" isolation="isolate" opacity=".91" stroke="#cd8a32"/><path d="M201.79,99.66l.55.08-.55.08v-.16Z" fill="#cd8a32" isolation="isolate" opacity=".91" stroke="#cd8a32"/><path d="M210.85,99.66l.39.08-.39.08v-.16Z" fill="#cd8a32" isolation="isolate" opacity=".91" stroke="#cd8a32"/><path d="M199.61,99.97l.39.08-.39.08v-.16Z" fill="#cd8a32" isolation="isolate" opacity=".91" stroke="#cd8a32"/><path d="M198.36,100.29l-.31.47.31-.47Z" fill="#cd8a32" isolation="isolate" opacity=".91" stroke="#cd8a32"/><path d="M214.76,100.44l.16.31-.16-.31Z" fill="#cd8a32" isolation="isolate" opacity=".91" stroke="#cd8a32"/><path d="M195.39,100.6l.23.39-.31-.16.08-.23Z" fill="#cd8a32" isolation="isolate" opacity=".91" stroke="#cd8a32"/><path d="M217.1,101.07l.23,1.64h-.16c.06-.64-.04-1.1-.31-1.41l.23-.23Z" fill="#cd8a32" isolation="isolate" opacity=".91" stroke="#cd8a32"/><path d="M195.23,101.22c.24-.07.32,0,.23.23l-.23-.23Z" fill="#cd8a32" isolation="isolate" opacity=".91" stroke="#cd8a32"/><path d="M195,101.85c.28-.11.39-.04.31.23l-.23.86-.08-1.09Z" fill="#cd8a32" isolation="isolate" opacity=".91" stroke="#cd8a32"/><path d="M198.82,102.32l.31.47-.31-.47Z" fill="#cd8a32" isolation="isolate" opacity=".91" stroke="#cd8a32"/><path d="M199.45,102.94l.16.31-.16-.31Z" fill="#cd8a32" isolation="isolate" opacity=".91" stroke="#cd8a32"/><path d="M191.01,103.1l.08.7h-.16l.08-.7Z" fill="#cd8a32" isolation="isolate" opacity=".91" stroke="#cd8a32"/><path d="M221.32,103.1l.08.55h-.16l.08-.55Z" fill="#cd8a32" isolation="isolate" opacity=".91" stroke="#cd8a32"/><path d="M191.01,104.35l.08,1.02h-.16l.08-1.02Z" fill="#cd8a32" isolation="isolate" opacity=".91" stroke="#cd8a32"/><path d="M201.17,104.66l.7.7v.31h-.16v-.31l-.55-.7Z" fill="#cd8a32" isolation="isolate" opacity=".91" stroke="#cd8a32"/><path d="M221.32,104.82l.08.7h-.16l.08-.7Z" fill="#cd8a32" isolation="isolate" opacity=".91" stroke="#cd8a32"/><path d="M200.7,105.29l.47.62-.47-.62Z" fill="#cd8a32" isolation="isolate" opacity=".91" stroke="#cd8a32"/><path d="M211.17,105.29l.08.39h-.16l.08-.39Z" fill="#cd8a32" isolation="isolate" opacity=".91" stroke="#cd8a32"/><path d="M211.95,105.6l-.16.31.16-.31Z" fill="#cd8a32" isolation="isolate" opacity=".91" stroke="#cd8a32"/><path d="M191.17,106.38l.23,1.25-.31-.08.08-1.17Z" fill="#cd8a32" isolation="isolate" opacity=".91" stroke="#cd8a32"/><path d="M221.17,106.54l.08.39h-.16l.08-.39Z" fill="#cd8a32" isolation="isolate" opacity=".91" stroke="#cd8a32"/><path d="M211.95,107l.08.39h-.16l.08-.39Z" fill="#cd8a32" isolation="isolate" opacity=".91" stroke="#cd8a32"/><path d="M221.01,107.16l.08.86-.23.86-.23-.08.16.47h-.31l.16.47h-.16l-.08-.23-.08.55.16.31h-.16l-.08-.23-.08.39.16.31-.39.7-.55-.08-.31.62.16.31-.23-.08-.23.08c.36.16.42.31.16.47l.16.31-.39.08-.23.08.47.16-.62.31.16.31-.62.16.16-.31-.23-.08-.47.62-.23-.08-.16.55c-.54-.18-.75-.07-.62.31l.39-.16.08.31h-.62v.23l.23-.08.39.08-.86.39v-.31l-.31-.16-.16.47-.31-.16-.7.55.47.31.23.55.23-.08-.47.31c.29-.18.21-.36-.23-.55l-.47.16c-.12-.23-.26-.2-.39.08l-.08.23c-.07-.28-.33-.39-.78-.31-.28.14-.31.27-.08.39-.1.4,0,.53.31.39l-.16-.55.23.08c.27-.08.35.05.23.39h.31l-.62.23c.11.28.04.39-.23.31l-.94.47-.16-.47-.23.08.16.39h-.31c.11.28.04.39-.23.31l-.16-.47-.23-.08.47-.08-.16-.39.08-.23-.47.31-.23.08.08-.23-2.81.78h-2.97c-.15-.27-.46-.37-.94-.31l-1.02.16-.16.94-.94-.39.31-.16c-.07-.23-.31-.31-.7-.23v.16l.23.08-.55.08-.86-.39.23-.55h.31l.39-.23-1.87-.86v.86l.23.08.23.39-.23-.08-.47-.31c-.16-.36-.31-.42-.47-.16l-.47-.16v.31c-.31-.16-.31-.31,0-.47l.55.16.31-.62-.94-.39.47-.16-1.8-1.02c-.07.29-.33.4-.78.31l-.16-.31c.24.08.32,0,.23-.23l-.23.08-.23-.08.31-.08-.08-.31-.7.39,1.17,1.33-1.56-1.72.39.23.23-.39.31.16c.31-.16.31-.31,0-.47-.23.08-.31,0-.23-.23l-.7-.55-.39.16c.11-.28.04-.39-.23-.31l-.31-.16c-.12.24-.26.21-.39-.08l.16-.31-.47-.16h.31l-.47-.94.31-.16-.31-.7c-.39-.16-.54-.08-.47.23l.16.31h-.16l-.16-.47.31-.62h-.16l-.23.39.08-.23.16-.31-.39-.55-.16.31-.08-.23.16-.31h-.31l-.16-.78h.16l.08.23.16-.31c.89,2.34,2.19,4.27,3.91,5.78,1.32,1.23,2.89,2.22,4.69,2.97l3.44.94,3.59.16,3.75-.78,2.97-1.41c1.47-.87,2.74-1.94,3.83-3.2,1.43-1.59,2.44-3.6,3.05-6.01ZM193.43,112.16c-.21.31-.16.52.16.62.31-.21.26-.42-.16-.62ZM195.93,114.82l.16.31c.1-.31.05-.42-.16-.31ZM216.09,115.13l-.31.31h.31v-.31ZM196.4,115.28l.16.31c.1-.31.05-.42-.16-.31ZM199.06,117.47l-.16.47h.16v-.47ZM212.34,117.47l-.16.47c-.42-.1-.57,0-.47.31l.78.31-.16-.16c-.1-.42,0-.57.31-.47.1-.42,0-.57-.31-.47ZM201.25,117.94v.31h.47l-.47-.31ZM202.18,118.25v.31h1.09l-1.09-.31ZM200.78,118.57l.16.31c.1-.31.05-.42-.16-.31Z" fill="#cd8a32" isolation="isolate" opacity=".91" stroke="#cd8a32"/><path d="M191.48,107.79l.08.23-.23.39-.08-.23.23-.39Z" fill="#cd8a32" isolation="isolate" opacity=".91" stroke="#cd8a32"/><path d="M200.86,107.79l.08.39h-.16l.08-.39Z" fill="#cd8a32" isolation="isolate" opacity=".91" stroke="#cd8a32"/><path d="M211.64,108.25l.08.39h-.16l.08-.39Z" fill="#cd8a32" isolation="isolate" opacity=".91" stroke="#cd8a32"/><path d="M212.26,108.88l.08.39h-.16l.08-.39Z" fill="#cd8a32" isolation="isolate" opacity=".91" stroke="#cd8a32"/><path d="M200.54,109.66l.08.7h-.16l.08-.7Z" fill="#cd8a32" isolation="isolate" opacity=".91" stroke="#cd8a32"/><path d="M201.17,110.44l.16.31-.16-.31Z" fill="#cd8a32" isolation="isolate" opacity=".91" stroke="#cd8a32"/><path d="M211.79,110.44l-.16.31.16-.31Z" fill="#cd8a32" isolation="isolate" opacity=".91" stroke="#cd8a32"/><path d="M200.7,111.22l.47.62-.47-.62Z" fill="#cd8a32" isolation="isolate" opacity=".91" stroke="#cd8a32"/><path d="M212.1,111.38l-.31.47-.23-.08.55-.39Z" fill="#cd8a32" isolation="isolate" opacity=".91" stroke="#cd8a32"/><path d="M201.64,111.85l.39.08-.39.08v-.16Z" fill="#cd8a32" isolation="isolate" opacity=".91" stroke="#cd8a32"/><path d="M211.01,111.85l.39.08-.39.08v-.16Z" fill="#cd8a32" isolation="isolate" opacity=".91" stroke="#cd8a32"/><path d="M193.67,113.72l.39.08c-.22.34-.35.32-.39-.08Z" fill="#cd8a32" isolation="isolate" opacity=".91" stroke="#cd8a32"/><path d="M193.98,114.19l.31.47-.31-.47Z" fill="#cd8a32" isolation="isolate" opacity=".91" stroke="#cd8a32"/><path d="M218.04,114.5l-.47.62v-.47c.16.26.31.21.47-.16Z" fill="#cd8a32" isolation="isolate" opacity=".91" stroke="#cd8a32"/><path d="M217.26,114.82l-.16.31.16-.31Z" fill="#cd8a32" isolation="isolate" opacity=".91" stroke="#cd8a32"/><path d="M217.1,115.6l-.16.31.16-.31Z" fill="#cd8a32" isolation="isolate" opacity=".91" stroke="#cd8a32"/><path d="M196.48,116.22l.23.39-.31-.16.08-.23Z" fill="#cd8a32" isolation="isolate" opacity=".91" stroke="#cd8a32"/><path d="M215.39,116.22c.31.16.31.31,0,.47-.23.08-.31,0-.23-.23l.23-.23Z" fill="#cd8a32" isolation="isolate" opacity=".91" stroke="#cd8a32"/><path d="M216.01,116.53l-.47.62.47-.62Z" fill="#cd8a32" isolation="isolate" opacity=".91" stroke="#cd8a32"/><path d="M196.64,116.85l.31.47-.31-.47Z" fill="#cd8a32" isolation="isolate" opacity=".91" stroke="#cd8a32"/><path d="M214.14,117.32l.39.08-.23.39.31-.16-.16.31-.31.16v-.31c-.23.08-.31,0-.23-.23l.23-.23Z" fill="#cd8a32" isolation="isolate" opacity=".91" stroke="#cd8a32"/><path d="M197.42,117.47l.16.31-.16-.31Z" fill="#cd8a32" isolation="isolate" opacity=".91" stroke="#cd8a32"/><path d="M213.82,118.1l-.16.31.16-.31Z" fill="#cd8a32" isolation="isolate" opacity=".91" stroke="#cd8a32"/><path d="M198.67,118.25l.16.31-.16-.31Z" fill="#cd8a32" isolation="isolate" opacity=".91" stroke="#cd8a32"/><path d="M199.14,118.57l.86.39-.23.08-.62-.31v-.16Z" fill="#cd8a32" isolation="isolate" opacity=".91" stroke="#cd8a32"/><path d="M203.9,119.35l.31.08-.23.39-.08-.47Z" fill="#cd8a32" isolation="isolate" opacity=".91" stroke="#cd8a32"/><path d="M207.42,119.35l.7.08-.7.08v-.16Z" fill="#cd8a32" isolation="isolate" opacity=".91" stroke="#cd8a32"/><path d="M209.76,119.35l.23.08-.55.23v-.16l.31-.16Z" fill="#cd8a32" isolation="isolate" opacity=".91" stroke="#cd8a32"/><path d="M203.04,119.5l.55.23-.39.08-.16-.31Z" fill="#cd8a32" isolation="isolate" opacity=".91" stroke="#cd8a32"/><path d="M208.67,119.66l.55.08-.55.08v-.16Z" fill="#cd8a32" isolation="isolate" opacity=".91" stroke="#cd8a32"/><path d="M207.42,119.82l.86.08-.86.08v-.16Z" fill="#cd8a32" isolation="isolate" opacity=".91" stroke="#cd8a32"/><path d="M203.04,119.97l.39.08-.39.08v-.16Z" fill="#cd8a32" isolation="isolate" opacity=".91" stroke="#cd8a32"/><path d="M208.82,119.97l.39.08-.39.08v-.16Z" fill="#cd8a32" isolation="isolate" opacity=".91" stroke="#cd8a32"/><path d="M203.98,120.13l.7.08-.7.08v-.16Z" fill="#cd8a32" isolation="isolate" opacity=".91" stroke="#cd8a32"/><path d="M207.89,120.13l.55.08-.55.08v-.16Z" fill="#cd8a32" isolation="isolate" opacity=".91" stroke="#cd8a32"/><path d="M205.54,120.28l1.02.08-1.02.08v-.16Z" fill="#cd8a32" isolation="isolate" opacity=".91" stroke="#cd8a32"/><path d="M204.14,88.1h4.06l2.97.62,3.28,1.41,3.67,3.05,2.19,2.81,1.41,3.28.62,2.5.16,3.91-.16.16-.16,2.5-.47,1.87-.94,2.34c-.98,1.83-2.2,3.42-3.67,4.77-1.51,1.41-3.33,2.5-5.47,3.28l-2.19.62-1.87.16-.16.16h-2.5l-3.91-.78-3.12-1.41c-1.74-1.02-3.22-2.3-4.45-3.83l-1.72-2.5c-.45-.54-.71-1.27-.78-2.19l-.47-.62-.47-2.19v-1.41l-.16-.16.16-.62-.16-.16v-2.97l.78-3.75,1.25-2.66c1.09-1.82,2.42-3.41,3.98-4.77l1.25-.94,2.81-1.41,4.22-1.09ZM203.9,89.19l-4.06,1.25c-1.46.62-2.71,1.46-3.75,2.5-1.77,1.46-3.12,3.33-4.06,5.62l-.78,2.5-.16,2.03-.16.16.16,4.37.31,1.56c.62,2.29,1.67,4.27,3.12,5.94,1.46,1.56,3.23,2.86,5.31,3.91l3.28,1.09,2.34.16.16.16,2.81-.16,3.44-.94c1.98-.83,3.7-1.98,5.16-3.44,1.35-1.46,2.45-3.12,3.28-5l.62-2.03.16-1.72.16-.16v-1.25l.16-.16-.16-3.59-.78-2.97c-.73-1.98-1.72-3.59-2.97-4.84-1.56-1.77-3.44-3.12-5.62-4.06l-3.44-.94h-4.53Z" fill="#925916" isolation="isolate" opacity=".97" stroke="#925916"/><path d="M206.01,94.97c.94-.16,1.48.08,1.64.7l1.87,3.83,1.33.31,3.12.31,1.02.7.16,1.41-.31.62-2.11,2.11c-.23-.07-.31,0-.23.23l-.78.62.62,3.59v1.56l-.55.7-.94.16-4.37-2.19-4.22,2.19h-.94l-.7-.7v-1.87l.62-3.44-3.28-3.12-.16-1.72,1.17-.86,3.28-.31c.14-.23.45-.28.94-.16l.23-.23,2.03-4.14.55-.31ZM206.56,95.29l-.31.16-.62.62-1.87,3.75-.78.31-3.75.47-.94.62c0,.83.31,1.35.94,1.56.21-.1.26,0,.16.31l.47.16,1.87,2.19-.47,3.75-.31.94.16.47.62.31h.47l4.22-2.19,4.53,2.19c.52.1.83,0,.94-.31l-.16-2.19-.47-1.87v-1.25l3.44-3.44v-.62l-.78-.62-4.37-.62-2.34-4.06-.62-.62Z" fill="#925916" isolation="isolate" opacity=".97" stroke="#925916"/><path d="M196.01,99.51l-.08.23-.23.55-.08-.23.39-.55Z" fill="#925916" isolation="isolate" opacity=".97" stroke="#925916"/><path d="M195.23,101.38l.08.39h-.16l.08-.39Z" fill="#925916" isolation="isolate" opacity=".97" stroke="#925916"/><path d="M208.67,90.29l.39.08-.39.08v-.16Z" fill="#f3cc5a" isolation="isolate" opacity=".97" stroke="#f3cc5a"/><path d="M210.23,90.6l.16.31c-.29.07-.34-.03-.16-.31Z" fill="#f3cc5a" isolation="isolate" opacity=".97" stroke="#f3cc5a"/><path d="M213.04,91.69l.39.08-.39.08v-.16Z" fill="#f3cc5a" isolation="isolate" opacity=".97" stroke="#f3cc5a"/><path d="M213.67,91.85l.7.55-.23.08-.47-.62Z" fill="#f3cc5a" isolation="isolate" opacity=".97" stroke="#f3cc5a"/><path d="M198.67,92.32l-.31.47.31-.47Z" fill="#f3cc5a" isolation="isolate" opacity=".97" stroke="#f3cc5a"/><path d="M212.42,92.47l-.16.31.16-.31Z" fill="#f3cc5a" isolation="isolate" opacity=".97" stroke="#f3cc5a"/><path d="M215.23,92.79l.16.31-.16-.31Z" fill="#f3cc5a" isolation="isolate" opacity=".97" stroke="#f3cc5a"/><path d="M215.7,93.26l.55.39-.23-.08-.31-.31Z" fill="#f3cc5a" isolation="isolate" opacity=".97" stroke="#f3cc5a"/><path d="M196.64,93.88l-.16.31.16-.31Z" fill="#f3cc5a" isolation="isolate" opacity=".97" stroke="#f3cc5a"/><path d="M216.48,93.88l.31.47-.31-.47Z" fill="#f3cc5a" isolation="isolate" opacity=".97" stroke="#f3cc5a"/><path d="M196.01,94.51l-.78.94.78-.94Z" fill="#f3cc5a" isolation="isolate" opacity=".97" stroke="#f3cc5a"/><path d="M194.76,95.91l-.31.47.31-.47Z" fill="#f3cc5a" isolation="isolate" opacity=".97" stroke="#f3cc5a"/><path d="M218.51,96.07l.16.31-.16-.31Z" fill="#f3cc5a" isolation="isolate" opacity=".97" stroke="#f3cc5a"/><path d="M194.14,96.69l-.16.31.16-.31Z" fill="#f3cc5a" isolation="isolate" opacity=".97" stroke="#f3cc5a"/><path d="M219.13,97.01l.16.31-.16-.31Z" fill="#f3cc5a" isolation="isolate" opacity=".97" stroke="#f3cc5a"/><path d="M193.67,97.47l-.08.23-.08.23-.08-.23.23-.23Z" fill="#f3cc5a" isolation="isolate" opacity=".97" stroke="#f3cc5a"/><path d="M219.45,97.63l.16.31-.16-.31Z" fill="#f3cc5a" isolation="isolate" opacity=".97" stroke="#f3cc5a"/><path d="M210.54,100.91l.39.08-1.02.55.31-.47.31-.16Z" fill="#f3cc5a" isolation="isolate" opacity=".97" stroke="#f3cc5a"/><path d="M211.17,101.07l.86.08-.86.08v-.16Z" fill="#f3cc5a" isolation="isolate" opacity=".97" stroke="#f3cc5a"/><path d="M212.73,101.22l.39.08-.39.08v-.16Z" fill="#f3cc5a" isolation="isolate" opacity=".97" stroke="#f3cc5a"/><path d="M192.11,101.38l.08.39h-.16l.08-.39Z" fill="#f3cc5a" isolation="isolate" opacity=".97" stroke="#f3cc5a"/><path d="M213.35,101.38l.7.08-.7.08v-.16Z" fill="#f3cc5a" isolation="isolate" opacity=".97" stroke="#f3cc5a"/><path d="M221.01,101.54l.08.39h-.16l.08-.39Z" fill="#f3cc5a" isolation="isolate" opacity=".97" stroke="#f3cc5a"/><path d="M208.82,102.16l-.16.31.16-.31Z" fill="#f3cc5a" isolation="isolate" opacity=".97" stroke="#f3cc5a"/><path d="M221.17,102.63l.08.55h-.16l.08-.55Z" fill="#f3cc5a" isolation="isolate" opacity=".97" stroke="#f3cc5a"/><path d="M207.89,102.79l-.16.31.16-.31Z" fill="#f3cc5a" isolation="isolate" opacity=".97" stroke="#f3cc5a"/><path d="M191.79,103.41l.08.7h-.16l.08-.7Z" fill="#f3cc5a" isolation="isolate" opacity=".97" stroke="#f3cc5a"/><path d="M212.26,103.88l-.16.31.16-.31Z" fill="#f3cc5a" isolation="isolate" opacity=".97" stroke="#f3cc5a"/><path d="M205.54,104.04l-.16.31-.23-.08.39-.23Z" fill="#f3cc5a" isolation="isolate" opacity=".97" stroke="#f3cc5a"/><path d="M191.79,105.29l.08.86h-.16l.08-.86Z" fill="#f3cc5a" isolation="isolate" opacity=".97" stroke="#f3cc5a"/><path d="M221.17,105.29l.08.39h-.16l.08-.39Z" fill="#f3cc5a" isolation="isolate" opacity=".97" stroke="#f3cc5a"/><path d="M195.08,105.6l.08.39h-.16l.08-.39Z" fill="#f3cc5a" isolation="isolate" opacity=".97" stroke="#f3cc5a"/><path d="M217.26,105.6l.08.39h-.16l.08-.39Z" fill="#f3cc5a" isolation="isolate" opacity=".97" stroke="#f3cc5a"/><path d="M192.26,108.25l.23.55-.31-.16.08-.39Z" fill="#f3cc5a" isolation="isolate" opacity=".97" stroke="#f3cc5a"/><path d="M216.01,109.04l-.16.31.16-.31Z" fill="#f3cc5a" isolation="isolate" opacity=".97" stroke="#f3cc5a"/><path d="M216.32,109.5l-.08.23-.23.39.08-.23.23-.39Z" fill="#f3cc5a" isolation="isolate" opacity=".97" stroke="#f3cc5a"/><path d="M196.79,109.66l.16.31-.16-.31Z" fill="#f3cc5a" isolation="isolate" opacity=".97" stroke="#f3cc5a"/><path d="M196.33,109.97l.16.31-.16-.31Z" fill="#f3cc5a" isolation="isolate" opacity=".97" stroke="#f3cc5a"/><path d="M197.11,110.13l.16.31-.16-.31Z" fill="#f3cc5a" isolation="isolate" opacity=".97" stroke="#f3cc5a"/><path d="M215.85,110.29l-.16.31.16-.31Z" fill="#f3cc5a" isolation="isolate" opacity=".97" stroke="#f3cc5a"/><path d="M214.76,110.75l-.94,1.09.94-1.09Z" fill="#f3cc5a" isolation="isolate" opacity=".97" stroke="#f3cc5a"/><path d="M193.51,111.69l.16.31-.16-.31Z" fill="#f3cc5a" isolation="isolate" opacity=".97" stroke="#f3cc5a"/><path d="M214.76,111.69l-.31.47.31-.47Z" fill="#f3cc5a" isolation="isolate" opacity=".97" stroke="#f3cc5a"/><path d="M198.82,111.85l.16.31-.16-.31Z" fill="#f3cc5a" isolation="isolate" opacity=".97" stroke="#f3cc5a"/><path d="M213.2,112.16l-.16.31.16-.31Z" fill="#f3cc5a" isolation="isolate" opacity=".97" stroke="#f3cc5a"/><path d="M199.61,112.47l.16.31-.16-.31Z" fill="#f3cc5a" isolation="isolate" opacity=".97" stroke="#f3cc5a"/><path d="M198.82,112.79l.31.47-.31-.47Z" fill="#f3cc5a" isolation="isolate" opacity=".97" stroke="#f3cc5a"/><path d="M212.89,113.41l-.16.31.16-.31Z" fill="#f3cc5a" isolation="isolate" opacity=".97" stroke="#f3cc5a"/><path d="M212.42,113.72l-.16.31.16-.31Z" fill="#f3cc5a" isolation="isolate" opacity=".97" stroke="#f3cc5a"/><path d="M204.92,114.5l.39.08-.39.08v-.16Z" fill="#f3cc5a" isolation="isolate" opacity=".97" stroke="#f3cc5a"/><path d="M207.11,114.5l.55.08-.55.08v-.16Z" fill="#f3cc5a" isolation="isolate" opacity=".97" stroke="#f3cc5a"/></g></svg>