<?xml version="1.0" encoding="UTF-8"?><svg id="Layer_2" xmlns="http://www.w3.org/2000/svg" viewBox="0 0 747.6 327.29"><g id="Layer_1-2"><path d="M648.37,132.69c5.39,6.27,13.37,10.13,21.64,10.54.15-.02,1.28-2.02,1.14-1.82.92-1.5,1.8-2.96,2.72-4.47.92-1.5,1.8-2.97,2.67-4.5.14-.2.92-1.9,1.05-1.88-8.3-.36-16.25-4.26-21.64-10.54.27.29-3.54,5.74-3.9,6.26-.31.73-4.12,5.89-3.67,6.41h0Z" fill="#e58d8c"/><path d="M480.76,26.12c7.22-1.96,13.04-7.27,16.51-14.93.21-.4-3.94-5.16-4.37-5.64-.37-.48-4.58-5.24-4.43-5.55-3.41,7.65-9.29,12.97-16.51,14.93.43-.13,3.93,5.09,4.37,5.64.52.69,3.75,5.71,4.43,5.55h0Z" fill="#e58d8c"/><path d="M329.84,18.53c-1.35-6.04-6.56-11.16-13.7-13.42-.47-.13-4.02,3.71-4.44,4.1-.41.39-3.97,4.28-4.38,4.16,7.06,2.31,12.28,7.38,13.7,13.42-.12-.58,3.93-3.56,4.44-4.1,1.06-.96,2.06-1.93,3.12-2.89.25-.24,1.29-1.04,1.25-1.27h0Z" fill="#e69527"/><path d="M403.6,71.09c-6.19.02-12.31,4-16.06,10.48-.23.43,2.75,4.73,3.04,5.22.29.49,3.32,4.81,3.12,5.17,3.78-6.4,9.85-10.4,16.06-10.48-.6-.01-2.62-4.6-3.04-5.22-.71-1.25-1.44-2.43-2.15-3.67-.18-.3-.74-1.48-.97-1.5h0Z" fill="#e69527"/><path d="M278.49,66.5c-10.1-5.63-20.21-11.25-30.31-16.88.96.54-11.5,14.28-10.23,15.02,10.1,5.63,20.21,11.25,30.31,16.88-.96-.54,11.6-14.31,10.23-15.02h0Z" fill="#e58d8c"/><path d="M467.76,310.72c9.76.89,17.81,6.07,20.51,13.15-.08-.19.72-1.86.72-1.79.54-1.47,1.17-2.94,1.71-4.42.54-1.47,1.08-2.95,1.63-4.42.18-.45.8-1.4.64-1.86-2.7-7.08-10.75-12.26-20.51-13.15-1.03-.08-3.92,12.57-4.7,12.49h0Z" fill="#e69527"/><path d="M234.12,294.06c-10.59,3.07-19.97,11.23-22.77,19.78-.08.35,1.26,2.05,1.23,2.01,1.02,1.63,2.09,3.18,3.18,4.77,1.09,1.59,2.16,3.14,3.25,4.73.21.37,1.53,1.53,1.38,1.93,2.78-8.59,12.18-16.71,22.77-19.78-.57.14-3.98-6.17-4.42-6.78-1.09-1.59-2.16-3.14-3.25-4.74-.13-.23-1.07-2.04-1.38-1.92h0Z" fill="#f8e649"/><path d="M589.65,31.9c-13.47,3.97-25.46,14.32-29.1,25.09-.1.44,1.58,2.57,1.55,2.51,1.28,2.04,2.62,3.98,3.99,5.97,1.37,1.99,2.71,3.92,4.08,5.92.26.47,1.92,1.91,1.72,2.41,3.61-10.83,15.63-21.13,29.1-25.09-.73.18-4.98-7.71-5.53-8.48-1.37-1.99-2.71-3.92-4.08-5.92-.17-.29-1.33-2.55-1.73-2.4h0Z" fill="#f8e649"/><path d="M126.72,78.77c-1.4,8.67-7.92,16.03-15.28,17.34.65-.15,3.37,4.5,3.87,5.2.56.72,3.03,5.18,3.99,5.08,7.42-1.29,13.88-8.67,15.28-17.34.15-1.01-3.34-4.4-3.87-5.2-.96-1.21-1.85-2.4-2.81-3.61-.17-.23-1.24-1.33-1.18-1.47h0Z" fill="#f8e649"/><path d="M16.97,131.74c-5.48-1.97-7.97-8.27-5.93-14.78-.16.58-4.49,2.54-5.18,2.92-.73.43-4.83,2.18-5.14,3.03-2.08,6.56.45,12.81,5.93,14.78.65.22,4.41-2.52,5.18-2.92,1.23-.73,2.42-1.4,3.64-2.13.23-.13,1.42-.96,1.5-.9h0Z" fill="#f8e649"/><path d="M719.09,91.41c8.79-.18,17.19,4.91,19.81,11.92-.27-.61,3.82-4.12,4.42-4.74.61-.68,4.56-3.91,4.28-4.84-2.61-7.06-11.02-12.09-19.81-11.92-1.02.04-3.73,4.08-4.42,4.74-1.02,1.16-2.03,2.25-3.05,3.41-.2.21-1.08,1.45-1.23,1.42h0Z" fill="#f8e649"/></g></svg>