<?xml version="1.0" encoding="UTF-8"?><svg id="Layer_2" xmlns="http://www.w3.org/2000/svg" viewBox="0 0 244.13 106.37"><g id="Layer_1-2"><path d="M225.52,17.56c-.89-.06-1.52-.94-1.76-1.76.76.4,1.18,1.18,1.76,1.76Z" fill="#5b7fb2"/><path d="M212.68,7.53c.69.95,1.36,1.26,2.45,1.7.21.03.41.23.6.31,1.22.95,2.42,1.9,3.59,2.88-.27.71.61,1.31,1.23,1.13.92.45,2.59,1.98,2.52,3.03.89.13,1.69.97,1.72,1.87,1.6-.1,2.16.31,2.95,1.58.76.51,1.46,1.21,1.8,2.06l1,1.25c.1,0,.17.21.25.25.19.32.42.57.75.75.36.69.84,1.24,1.35,1.97,4.84,6.89,7.97,14.75,9.79,22.98.29,1.32,1.05,5.52.91,6.4l.25,1.25v1l.25,1.25v6.27c-.32.11-.56-.04-.72-.43-.01.65-.37,1.1-1.03,1.21-.27,1.89-.49,3.62.37,5.48-.45.48-.42.52.11.11.35,2.39.4,4.82.13,7.3.21,1.3.19,2.56-.07,3.8-1.01,1.8-1.29,3.6-.83,5.39l-.15,2.12c.51.64.88,1.33,1.12,2.07-.25,1.41-.23,2.81.07,4.21.18.97-.07,1.54-.73,1.7-.54,1.13-1.17,1.49-1.88,1.07-.15-1.2-.26-1.77-.92-.51-.26,1.46-.83,1.95-1.71,1.47-.39.95-.79,1.86-1.21,2.73l-.75.29c1.24.47,2.6,1.42,2.66,2.82l-238.57.06.13-43.75c.02-6.01,1.22-11.51,2.89-17.23,2.52-8.03,6.5-15.29,11.71-21.88.62-.78,1.18-1.5,1.91-1.98.38-.7.74-.31,1.05.39,1.87.84,2.91,2.94.12,2.99l-.39,1.14c1.03-.18,1.75.78,1.3,1.71.71.67.99,1.32.86,1.95,1.89.16,2.96-1.39,3.67-2.97,2.72-1.45,2.69,1.09,1.71,3.06.28.97.25,1.84-.08,2.59-.95,1.5-1.5,3.2-1.67,5.1l-.4.47c-.91.07-1.63.58-2.17,1.54.14,1.86-.5,2.49-1.91,1.89-1.34-.24-2.04.43-2.1,2l-.9.96c2.4,1.92,1.86,4.05.79,6.56-.01.12.26,2.15.32,2.25.42.79.71-1.42.28-1.83.18-.56.75-.9,1.7-.99,1.33-.99,2.84-.8,4.53.56.19.86.25.91.18.13l2.79.64c-1.6-1.15-2.35-2.56-2.23-4.24-1.73-1.28-1.72-4.21-.04-5.55-.06-1.22.25-2.06.91-2.52,0-.94.24-2.55.49-3.5.78-3.06,5.01-3.53,6.47-.78.45.84.9,2.27-.37,2.45.25.33.3.67.36,1.06.16,1.18.1,4.59-.02,5.82-.04.38-.07.71-.42.95.81,1.02.63,2.05-.44,2.78.88,1.56,2.75,1.5,3.06-.36.4-.46,1-.59,1.8-.39-.04-.44.01-.85.17-1.25.62-.56.95-1.14.99-1.73.73-.61-.8-1.72-1.4-2.06-1.28,1.29-2.93.09-1.42-1.31-.21-1.04.16-2.08,1.36-1.61,1.36-.67,2.71-.28,3.67.86.95-.03,1.78.15,2.48.52-.37,1.56-.4,3.11-.1,4.65.74,1.35.29,2.02-1.21,2.16.59.75.27,1.64-.28,2.31l.75.95c-.3,1.27.33,1.8,1.89,1.59.78.28.82.97.11,2.05.45,1.58.76,2.97.55,4.62l1.51.05c0-1.61.83-2.37,2.43-1.88,1.27.39,3.49,1.6,1.8,2.76-.56-.2-.62.66-.46.94.17.31,2.64,2.26,3.16,1.48,1.46.15,2.69-.45,3.68-1.78.83-.4,1.8-.24,2.91.48,1.88-.31,3.42,0,4.62.94.33-.7.97-1.07,1.91-1.1-.02-1.45.05-2.89.21-4.33.83-.5,1.67-1,2.51-1.5,1.45.27,2.55.06,3.3-.63.37-1.83,1.39-1.65,3.06.55.69.23,1.32,0,1.91-.66l1.11-.13c-.52-3.35,2.99-3.94,3.15-.45,1.77,1.37,2.24,4.61-.64,4.24-.02.75.14,1.56.48,2.42-.24.6-.34,1.25-.3,1.96-1.14.4-1.2,3.84-.9,4.53.74.3,1.14.77,1.19,1.41,1.15.06,2.29.58,1.14,1.67,1.3,1.39,1.2,2.69.37,4.26.12.95.32,1.89.59,2.84,1.18.03,1.76,1.01,1.42,2.11-1.8,1.82-.3,2.67,1.51,1.45l.07-9.32-2.32-1.57c-.63-.69-1.03-4.61-.57-5.2.64-.82,3.23-.67,4.23-.55.77-.74,1.57-1,2.63-.96,0-.81.31-1.32,1.15-1.43-.14-2.34,2.29-3.1,3.54-.87.68,1.22.58,3.03-.93,3.38-.21.97.56,1.5,2.31,1.57,1.12.54,2.88,1.3,3.9.34,0-1.55.12-3.08.34-4.6.49-.36,1.08-.49,1.77-.38l-.06-2.38c.45-1,.6-1.99.45-2.95-1.35-2.39,2.28-3.23,2.6-.79.77.41,1.54.74,2.31.99.96-.45,4.89.06,5.17,1.04.22.8-.87.97-1.43,1.04-1.32,1.8-2.52,2.27-4.73,2.05l-.14,1.04c-1.18,1.75-.03,2.4,3.45,1.96,1.96.6,4.08.76,6.35.48.6-1.73,2.61-1.77,3.12.02,2.06-.03,4.11-.22,6.15-.56,1.53.18,3.03.23,4.48.15l.94.32c1.34,1.52,3.17,2.05,5.47,1.57.03-1.24.81-1.56,1.96-1.54-.13-2.24,1.31-3.31,3.35-2.13.95.55,2.44,2.98,2.77,4.03-.3.71.8,1.78,1.53,1.7.59.47,1.23.75,1.93.86.16,1.75,1.17,1.63,2.55,1.01,1.25-1.23,2.51-2.44,3.77-3.64,1.79-.68,3.62-1.1,5.51-1.27,1.42,1.76,2.24,1.23,2.46-1.6,1.07-1.23,2.59-1.21,4.56.06l2.34-.22c1.05-.87,2.04-1.83,2.96-2.86.95-.44,1.47.16,1.58,1.83.94.86.94,1.72.04,2.63-.6,1.52-.49,2.04.34,1.58,1.08.5,2.2.95,3.34,1.37.63-.68,1.3-.91,2-.7,1.3-.84,1.9-2.12,1.27-3.51.63-1.87.52-3.55.32-5.47.66-1.78,2.49-.89,2.85.72,1.17.85,1.76,1.89,1.79,3.1.69.2,1.34-.01,1.94-.65.68-.24,1.34-.06,1.98.53.65-.68,1.17-1.44,1.57-2.29l3.56-1.06c.1-.03.83-1.29.87-1.59.02-.12-.51-2.19-.57-2.29-1.55-.54-2.58-1.52-3.08-2.93.31-1.31-.77-3.31-1.93-1.8,1.44.48,1.47,1.9.58,2.95,1.29.61,1.43,4.73.89,5.63-1.08,1.81-4.15-.18-4.92-1.51-3.1.24-2.11-3.69-.13-4.74-1.08-.99-1.48-2.09-1.17-3.27,1.96-1.88-.52-5.19-2.57-3.37-3.35,1.64-4.92-2.37-3.98-5.05.59-1.69,2.91-.15,2.45,1.46.73-.83,1.4-1.15,2-.94l.76-1.23c-.24-1.64.9-2.07,2.34-1.93,2.65.26,3.53,1.49,2.85,3.98,1.04.52,1.17.99,1.2,2.07,2.06-.04,3.89,1.99,4.2,3.93,2.1.37.57-1.59-.43-2.2-.66-.92-.44-1.37.62-1.67v-.97c-.66-.04-1.27-.23-1.83-.58-2.64-2.33-.21-2.56,2.05-2.46-.06-.93-.55-1.63-1.45-2.12-.49-.78-.57-1.74-.24-2.89-1.53-.26-1.67-2.08-.91-3.24.47-.72,1.13-1.34,1.9-.67,1.09,1.79,2.25,2.09,3.48.9.86.15,1.59-.29,2.2-1.33,1.61-1.35,3.5-2.24,5.68-2.68l.58-1.02c-.38-2.29.12-2.97,1.49-2.04.43-.58.98-.84,1.72-.67l-.09-1.41-2.39-2.59c-.15-.49-.24-.94-.27-1.36h-2.87c.18,2.15-1.31,2.42-2.94,1.52-1.71.2-2.34-.69-1.88-2.66-1.86-.1-2.41-.93-1.66-2.48l-.58-1.85c-.39-2.94,1.88-3.08,4.22-3.11.67-.57,1.45-.77,2.03.02,1.8-2.52,3.31-2.64,6.21-2.57.04-.38.27-.59.71-.62-.02-.37.11-.54.39-.52,1.12.26,2.42,1.17,3.49,1.71Z" fill="#5b7fb2"/><path d="M223.76,15.8c.47.73,1.06,1.31,1.76,1.76,0,0,2.73,2.37,2.22,2.46-.4-.26-.68-.35-.94-1.31-.45.29-.38.76-.7.82-.51.09-1.08.23-1.18-.41l1.14.19c-.24-.71-1.21-.17-1.65-.24-.25-.49,0-1.67-.91-1.88-3.14-.72,1.05.02-2.32-2.69-.16-.13-.04-.46-.27-.47-.15,0-.53-.14-.47.24.03.17.41.18.47.42.03.13-.2.32-.2.52.41.31.19.33-.27.33-.48-.34-.74-1-.73-1.71l-1.49-.66c.21-.13.96-.48.67-.82-.38-.46-1.24-.38-1.54-.87.87-.83-.93-.41-1.64-1.94.89.38,1.71,1.08,2.54,1.73l3.8,2.97c.64.5,1.03,1.22,1.7,1.57Z" fill="#5b7fb2"/><path d="M215.12,9.23c-.58-.03-1.16-.12-1.84-.28-.22-.52-.48-.95-.61-1.42.87.44,1.83.99,2.45,1.7Z" fill="#5b7fb2"/><path d="M230.54,23.33c-.58.05-.82-.8-1-1.25.48.28.98.66,1,1.25Z" fill="#5b7fb2"/><path d="M243.85,56.94c-.37-.23-.32-.85-.25-1.25.43.24.25.84.25,1.25Z" fill="#5b7fb2"/><path d="M244.1,59.2c-.43-.24-.25-.84-.25-1.25.42.24.25.84.25,1.25Z" fill="#5b7fb2"/><path d="M231.54,24.33c-.17,0-.36-.02-.51-.12-.2-.14-.25-.4-.24-.63.35.15.58.42.75.75Z" fill="#5b7fb2"/><path d="M1.4,95.61l.15,9.25c0,.43-.4.96-.79.73-.27-4.75.01-9.5,0-14.27l-.03-11.79c0-2.05-.28-3.98.08-6.06,1.44,1.11.39,4.67.39,4.77.11,1.69-.09,3.39.16,5,.18,1.14.03,1.99-.01,3.08-.13,3.07,0,6.12.04,9.29Z" fill="#5b7fb2"/><path d="M244.1,65.47v4.77c-.22,5-.21,10.29,0,15.3v20.79c-.93.08-1.72.03-2.51.03-.48-.21-1.02-.21-1.51,0l-1.51-.05c-.52-.07-.56-.48-.8-.86-.69-1.12-2.04-1.47-3.19-1.94-.44-.95.73-.24,1.81-.72.36-.16,0-.84.18-1.02.71-.68.97-1.37.73-2.4-.18-.81-.41-1.48-1.55-1.57.29-.43.69-.55,1.08-.39,1.03.41.78,2.8,1.83,2.87.23-.92.4-1.77,1.06-2.36.38-.34.85.06,1.16.22.43-.52.6-.1.38.32-.26.13-.46.32-.45.48.1,1.57,1.36-1.89,1.62-.79.37-.88.07-1.99-.11-3.08-.16-.95.38-1.82.16-2.77-.16-.68-1.18-1.25-1.08-2.04.13-1.01.27-1.97-.03-2.98-.75-2.56,1.72-3.41,1.13-7.19-.28-1.8.46-5.73-.12-8.04.18.7-1.52-2.86-.52-5.14.11-.25-.19-.72.01-1.02.12-.18.62-.13.82-.36.34-.4.03-1.02.19-1.56.3-.1.49-.28,1.02-.28-.49.72.17,1.31.17,1.76Z" fill="#5b7fb2"/><path d="M244.1,85.54c-.09.03-.25-.09-.25-.27v-14.75c0-.19.16-.3.25-.27v15.3Z" fill="#5b7fb2"/><path d="M241.59,106.35h-1.51c.31-.42,1.19-.42,1.51,0Z" fill="#5b7fb2"/><path d="M243.74,65.7c.27,1.37.09,2.7-.31,4.05,0-1.53-.59-2.79-.26-4.31.45.7-.09,1.46.28,2.31l.29-2.05Z" fill="#5b7fb2"/><path d="M243.44,73.74c-.15-.63-.19-1.24.01-2.02.24.54.24,1.11-.01,2.02Z" fill="#5b7fb2"/><path d="M242.97,91.58c-.36-1.3.21-2.39.24-3.56.36,1.3-.21,2.39-.24,3.56Z" fill="#5b7fb2"/><path d="M188.1.25c-.21.19.32.15.5,0,.08,0,.17,0,.25,0,.74.17,1.49.26,2.26.25.08,0,.17-.01.25,0l1.53.35c.05-.03.15.03.21,0,.94.31,1.86.44,2.75.4.77.22,1.76-.06,2.47.51.06.26.27.3.63.12.3.06.59.27.84.4l.04.29c1.34.18,2.6.57,3.78,1.17l.38.66c.27-.48.59-.66.97-.52.38.18.84.19,1.22.38.28.3.61.56,1,.75.26.05.55.28.75.5.23.16.4.16.5,0,.25-.03.56.18.75.29.02.42-.25.76-.65,1.04.1.19.33.23.39.31-1.37.75-2.82.11-4.24.45-1.01.38-1.71,1.71-2.56,2.34-.07.7.35,1.3-.3,1.72-.39-.78.09-1.73-.65-2.15-.48-.27-.96.47-1.3.47-1.43-.01-2.68.02-3.78,1.03-.29,3.23,1.35,2.34.16,4.89.38.5,1.09.24,1.57.43,1.02.39.4,1.47.37,2.13-.04.81,1.17.52,1.64.63.72.18,1.46.88,2.1.23.42-.42.13-1.16.22-1.77h3.98c.16.55-.23,1.25.13,1.64l2.29,2.46c.39.41-.08,1.22.3,1.7.36.29.92.02,1.21.5-.81.66-1.73-.16-2.53.04-.43.11-.68,1.03-1.27.57-.22-.17-.44-.53-.65-.3-.76.8.75,1.09-.48,2.99-.53.82-1.3.79-2.22.99-2.07.44-3.8,1.83-5.02,3.46-.46.15-1.04-.15-1.36.13-.61.72-1.88,1-2.51.25-.47-.57-.86-1.03-1.5-1.63-1.03.58-1.56,1.94-.98,3.02.15.27.83.12.95.32.46.76-.16,1.64-.06,2.4.1.82,1.28,1.12,1.61,1.79.18.38.02.92.36,1.1.81.44,1.66-.31,1.46.62l-4.82.15c.34,1.34,1.66,2.11,3.03,1.85.09.73.1,1.31,0,1.95-.42.18-.79.16-1.08.52,1.76,2.27,2.03.75,1.86,3.56-.73.06-1.27.05-2.03.01.64-1.42-1.87-3.94-2.99-3.99-.33-.02-.77.05-.96-.15-.14-.15-.25-.58-.21-.85.15-.86-.56-.83-.92-1.15-.63-.56.2-1.72.02-2.3-.7-2.26-4.03-1.55-4.16-1.44-.86.77.47.77-.92,2.28-.39.42.18,1.15-.39,1.63-.35-.44-.12-1.04-.86-1.2-.37.63-1.13,1.57-1.82,1.02-.28-.22.17-1.18-.18-1.53-.25-.25-.92-.71-1.27-.43-.18,1.16-.23,2.39,0,3.52.11.51.87,1.49,1.37,1.51,2.46.13,2.53-1.2,3.39-.97.36.1.72.38,1.08.55,1.16.58,1.41,1.28,1.4,2.5,0,.72-.37.91-.66,1.42-.72,1.25.4,2.46,1.52,3.33-1.63.86-2.84,2.4-1.98,4.04.23.44,1.18,0,1.46.27l1.81,1.76c.49.47,1.94.37,2.44-.08.21-1.22.13-2.7,0-3.89-.07-.66-.93-.89-.96-1.57.42-.66.94-1.65.17-2.18-.46-.32-1.06.19-1.57-.36.89-.61,1.44-1.08,2.23-1.88.33.72.82,1.08,1.29,1.58.72.76-.77,1.4,1.36,3.4.48.45,1.8.51,1.92,1.28.66,4.07,1.46.28-.48,4.4-1.01-.11-1.46.63-2.2.72l-1.38.17c.11-.01-.9,2.06-1.99,2.66-2.27-2.27-1.43.78-4.38-.14.4-2.63-1.65-2.1-2.1-4.3-.1-.48-1.5-.53-1.5-.11-.01,1.48.48,3.2-.07,4.57-.31.77-.39,1.34.13,2.04-1.13,3.04.37.73-2.06,3.18-.95-.84-1.5.47-2.06.76-.54-.7-1.39-.68-2.15-.92-.55-.17-.8-.87-1.54-.63-.63.2-.5.65-.88,1.5-.96-.16.65-4.17.34-3.84.4-.44.73-.69.69-1.26-.03-.44-.59-.59-.69-1.02l-.42-1.9c-1.22.99-2.02,2.29-3.33,3.18-.49.33-1.27-.07-1.83.16-.78.32-1.38.18-2.1-.33s-2.36-.89-2.84.16c-.38.83,0,2.17-.99,2.78-.85.52-1.48-.35-2.04-.96-.65.17-1.85.21-2.5.45-4.31,1.61-1.6-.13-4.28,2.44l-2.07,1.98c-.11.11-1.96,1.04-3.02.01-.21-.21.09-.78-.19-1.11-.34-.4-.67.19-.61.65.08.57-.61.55-.53,0s.02-.96-.27-1.21c-.59-.5-.29.8-2.46-1.77.75-.91-.18-1.23-.52-1.84-.48-.89-.79-1.79-1.57-2.22-.73-.4-2.45-.75-2.56.03l-.28,2.18c-.62-.05-1.17-.16-1.57.1-.36.24-.27.73-.33,1.4-1.44-.25-3,.28-4.39-.21-.87-.3-1.71-2-2.8-1.72-.8.2-1.05.22-1.87,0-2.1-.58-6.49.37-5.25.36l-3.7.03c.03-.98-.4-1.3-1.15-1.31s-.83.6-.98,1.27c-1.8.07-3.8.05-5.64,0-.41-.01-.71-.39-1.09-.45-1.31-.19-2.63.22-3.89-.15-.53-.16-.64-1.15-.93-1.64.93-.48.96-1.28.79-2.23,4.27.02,2.97,0,4.95-1.88.43-.41,1.13-.06,1.49-.58-3.89-1.62-4.34-.33-5.47-.73-.64-.23-1.28-1.1-2.12-.91-.12-.47-.1-1.41-.72-1.46-.42-.03-1.58.13-1.3.71.6,1.25.6,2.2.06,3.43-.43.98.15,2.3-.15,3.38-.57.11-1.26-.08-1.85.17l-.2,4.35c-.04.96-2.09,1.48-4.53.14.35.19-2.61-.59-2.65-.77-.04-.21-.14-1.53.13-1.8.11-.11.62.04.78-.17.92-1.2.09-3.24-1.39-3.62-.51.14-1.3.98-1.31,1.44,0,.24.52.29.65.32,2.43.43-1.09.29-1.5.77-.19.23-.05.85-.22,1.18-.74.09-1.8-.07-2.36.58-.59.69-1.16.34-1.91.27-.63-.06-1.71.24-2.38.23-.78.14.13,4.74.09,4.68.05.07,1.55.47,2.63,1.89l-.03,9.42c0,1.23-2.41,1.11-3.22,1.01-.41-2.92,1.14-1.77.75-3.34-.16-.64-.75-.71-1.49-.65.15-1.82-1.2-2.62-.24-4.25,1.05-1.78-.67-2.85-1.02-3.72.36-.14.67-.09.96-.35-.38-.55-1.14-.25-1.63-.59-.25-.18-.08-.89-.41-.98l-.95-.25c.1-1.37-.26-3.09.17-4.46.12-.4,1.35-.86.7-1.39-.4-.32-1.54.36-1.63-.58.61.04,2.13.13,1.98-.69-.16-.91-1.03-2.02-.23-2.8.31-.18,1.27.25,1.56-.23.51-.86.19-2.12-.59-2.72-1.52-1.17.11-2.75-1.82-2.6-.32.02-.86.12-.87.59l-.05,2.17-1.49.03c-.53.88-1.92,1.14-2.6.4-.56-.61-.88-1.31-1.77-1.64-.15,1.29-.6,1.98-1.65,2.03-4.34.2-.29-.69-4.51,1.26l-.09,4.79c-.68-.1-1.21-.13-1.61.06-.23.11-.24.83-.54.88-.71.05-.99-.76-1.61-.92-1.31-.34-2.81.28-3.99-.27-.68-.33-1.16-1-1.96-.3-.59.51-1.29,1.39-2.03,1.67-.85.33-1.85-.27-2.56.56-.78-.36-2.2-1.7-2.29-1.71-.17-.01-.45.27-.42.53.02.16.31.26.46.47,1.19,1.65,1.28.43,2.57,1.08,1.16.58-1.61-.3-2.33,1.34-.23.54-1.6.86-1.64.36l-.11-1.3c-.07-.8-.79-2.02-.22-2.73.17-.21.95.1.99-.27.1-.85-.14-1.3.2-1.48.38-.2.89,0,.99-.43.05-.24-.06-.51-.33-.56-1.21-.24-2.09-1.72-3.23-.83-.45.35-.31,1.04-.35,1.76-.87.08-1.67,0-2.49,0-.17-1.1.17-2.14-.1-3.22-.21-.86-.83-1.75-.26-2.64.16-.26.63-.42.23-.73-.63-.48-1.43.3-2.3-.64-.3-.32-.13-.68-.12-1.28-.01-.51-.83-.73-1-1.22.47-.43.74-.87.81-1.4.08-.61-.62-.63-.89-1.35.9-.1,1.57.1,2.3-.57-.92-.88-1.02-4.63-.19-5.6l-2.6-.26c-.74-1.27-2.06-1.42-3.23-.79-.18.1-.68-.48-.86-.03-.39,1.01.51,1.04-.8,2.08.07.43.81.48.98.32l.71-.71c1.16.51,1.55,2.29,3.15,1.99.54-.1.55.61-.02.53s-.95-.02-1.22.26c-.15.16,0,.79-.18.93-1.96,1.63-.29,2.11-1.35,2.52-.61.24-.99-.35-1.44.07-.57.53.08,1.6-1.92,1.77-.88.08-1.31-.21-1.71-.88-.16-.26-.97-.78-.49-1.04.66-.35,1.04-.56.96-1.28s-.5-1.02-1.41-.86c-.54.09-.57-.62.03-.53.52.08,1.31.01,1.31-.55l.02-5.95c0-.56-.33-.95-.65-1-.53-.08-.98-.04-1.21.28-.31.41.06.95-.28,1.54-.66-.37-.56-2.16.22-2.23l2.43-.22c0-1.68-1.16-3.08-2.63-3.2-1.56-.13-3.1.64-3.35,2.32-.11.74.06,1.43-.44,2.11-.23.31-.1.87.06,1.1.41.59,1.46.06,1.62.42.32.71-1.6.35-2.32,0l-.3,2.46c-.97.54-1.18,1.42-1.2,2.43-.02,1.11.35,1.92,1.27,2.55-.18,2.78.67,2.4,2.69,4.79.1.81-4.33-.74-3.8-.42-4.77-2.84-2.45-.7-5.94-.45.28.9.42,1.67.27,2.54-.51.06-.92.07-1.48,0,.09-3.17-.93-1.78.31-4.49.38-.82.46-2.58-.19-3.34-.43-.5-1.8-1.26-.92-1.95.7-.55.78-.79.88-1.79.14-1.35,2.35-1.49,3.39-.83.64-.67,0-1.47.41-2.01,2.07-2.76,2.02-1.09,2.53-1.9-.2.31.73-3.43.77-3.62.17-.81,1.35-1.72,1.16-2.56-.2-.9-.44-1.32.08-2.23.23-.4.16-1.11.41-1.73.17-.43-.93-.42-1.31-.34-.53.12-.07,1.25-2.59,3.1-.47.34-1.23-.08-1.7.31-.31.36,0,.85-.53,1.23-.43-.85-.26-1.71.29-2.34-1.99-1.6-.6-1.76-.98-2.18-.18-.2-.41-.73-.78-.44-.42.33.04.9-.5,1.15-.77-.82.41-3.32.44-3.33.62-.2,1.44.25,1.61-.41-.01.04-.82-1.93-2.53-1.64.13-.37.48-.44.48-.61,0-.15-.32-.3-.43-.18-.15-.52.62-.65.75-.95.57.09.94-.1,1.11-.58.49-.47.88-1.03,1.15-1.68.79-.97,2.14-2.32,3.24-3.28C32.39,6.68,44.02,1.31,56.74.29c.93-.07,1.65-.27,2.62-.27L187.77,0c.28,0,.36.16.33.25Z" fill="#5b7fb2"/><path d="M191.11.5c-.62.48-1.62.07-2.26-.25h1.77c.26,0,.51.05.49.25Z" fill="#5b7fb2"/><path d="M204.96,3.89c-.19.29-.44.86-.81.97-.7.21-.78-.91-1.19-1.09-1.26-.57-2.62-.67-3.82-1.12.26-.25.51-.25.65-.36,1.8.16,3.52.85,5.16,1.6Z" fill="#5b7fb2"/><path d="M17.39,20.58c.31-.74,1.75-1.64,2.25-2.26-.13.41,0,.77.19,1.1-.77.39-1.08,1.14-1.53,1.91-.4-.14-.66-.47-.91-.75Z" fill="#5b7fb2"/><path d="M195.85,1.26c-.11.79-2.48.04-2.75-.4.97-.33,1.87.15,2.75.4Z" fill="#5b7fb2"/><path d="M188.1.25h.5c.67.39-3.88.3-4.04.13,1.18-.3,2.36-.13,3.54-.13Z" fill="#5b7fb2"/><path d="M192.89.85c-.5.29-1.14.03-1.53-.35.53.07,1.32-.28,1.53.35Z" fill="#5b7fb2"/><path d="M208.44,5.52c.01.51-.25.39-.5,0-.18,0-.36,0-.55-.07-.14-.06-.14-.31-.21-.43-.22-.07-.22-.15,0-.25.43.22.91.42,1.26.75Z" fill="#5b7fb2"/><path d="M198.96,1.89c-.03.18-.16.3-.27.48-.12.19-.4,0-.52-.2-.08-.14-.09-.3.16-.4.13.11.46.08.63.12Z" fill="#5b7fb2"/><path d="M207.18,4.77v.25c-.45-.08-1.07-.15-1-.75l1,.5Z" fill="#5b7fb2"/><path d="M61.55,53.8c.19.98,1.49,1.31,1.71,2.11.27,1.01.84,1.41,1.53,2.06s.14,1.94-.36,2.53c-.47.56-2.35.84-2.7.05-.38-.86-.23-1.79-1.31-2.29-.18-.08-.32-.5-.53-.58,1.8.67-6.26.95-6.1.78l-.58.63c-.26.29-.49-.5-.46-.75.14-1.09,1.77-.48,2.76-.68v-4.5c-.91.12-1.67-.31-2.51-.24l-3.45.26c-.01,1.09-.73,1.1-1.42.99-1.17-.19-.56-2.89-.51-2.96.59-.78,2.63.44,3.08-1.34.16-.64-.02-1.3.08-1.99-.87-.69-1.9-.62-2.92-.87-.53-.13-.63-1.42-1.49-1.3-1.08.16-3.76-1.72-2.66-2.58l3.51-2.76c.56-.44,1.67-.03,2.28-.28-.14-.52-.3-1.01-.07-1.38.3-.49.71-.64,1.33-.62,1.28.04,2.12,1,2.03,2.3-.03.37.03.68-.16.95.13-.19-1.79,1.09-2.01,1.09-.54,0-.95-.13-1.19-.81-.85.45-.06,1.38-.72,1.88-.25.19-.58.08-1.02.18-.33.07-.32,1.1,0,1.2.47.15,1.12-.22,1.42.17.36.45,1.26,1.04,1.62.37.23-.43-.27-1.22.29-1.58.47-.31,1.82-.38,2.26.02.37.98.67,1.83,1.9,1.9.36.02.25.89.45,1.03.48.34,1.05-.1,1.88.3-.46.74-.55,1.45-.5,2.23-.39.48-1,.04-1.4.73.9.09,1.49.27,2.23.58.49.2.84-.55,1.15-.95.55.24.48.73.75,1.03.65.13.85-.79,1.31-.78.59,0,.47,1.02.47,1.49l1.15.74c-.37.55-1.26.85-1.11,1.64Z" fill="#5b7fb2"/><path d="M88.33,58.95c-.07.54-1.97,2.81-2.79,2.77-.65-.04-1.85-1.92-2.94-2.52-.13-.72.4-1.32.2-1.92-.13-.39-.69-.6-.81-.85s.25-2.38.28-2.45c.21-.37.86-.15,1.2-.43.41-.34.68-.56,1.05-.67.62-.2.86.56,1.27.66,1.1.27,1.87.19,2.63,1.21.45.6,1.26,1.7.56,2.51-.48.55-.54.89-.65,1.7Z" fill="#5b7fb2"/><path d="M137.87,45.26c.02-.42.09-.79-.13-.84-.47-.12-1.72.31-1.88-.66-.08-.48.44-.99,1-.87,1.62.34,3.04-1.18,3.18-2.38.07-.63,1.2-.2,1.58-.38.88-.43,1.02-1.41,1.58-2.45,1.37.58,2.77,2.1,2.09,3.68-.18.41-.98.16-1.28.38-.37.66.28,1.85-.33,2.45-.53.52-1.52.03-2.21.27-.72.79-1.47,1.54-2.57,1.71-.54.09-1.04-.22-1.02-.91Z" fill="#5b7fb2"/><path d="M159.96,53.29c.04.09-3.02-.67-3.87-.21-.4.22-.57.7-1.03.65-.51-.05-1.1-.08-1.12-.84,0-.33.11-.88-.12-1.15-.16-.19-.76-.11-.97-.54.61-.66,1.24-1.18,1.26-2.2,4.19-.75,2.05.53,4.47.02.76-.16,2.26-.32,2.99.07.99.53.23,2.09-.02,2.85-.18.55.08,1.42-.45,1.63-.38.15-.88.8-1.32.46-.06-.25.25-.61.18-.74Z" fill="#5b7fb2"/><path d="M75.34,19.14c-.37-.23-1.51.07-1.6-.41-.15-.81-.33-1.15-.94-1.64-2.07-1.67-1.72-.22-2.93-.92-.2-.12-.39-.44-.29-.79.15-.53.64-.58,1.1-.6s.78.37,1.11.88c.61-.21.72-1.07,1.36-1.1.41-.02.4.91.7.95,2.48.31,2.41-1.49,4.62-.04.3.2.83.08,1.01.4.72,1.29-1.08,2.41-1.54,3.03-.67.9-1.55.91-2.6.26Z" fill="#5b7fb2"/><path d="M65.81,45.67c-.53.64-1.12.98-2.14.65-.35.77.08,1.53-.16,2.33-.19.62-1.11.55-1.5.42-.59-.21-.61-1.02-.4-1.67s1.02-.96,1.18-1.71c-.41-.11-.81-.05-1-.41.4-.29.71-.4,1.09-.37s.52.51.97.88c.68-.84-.15-1.81.08-2.62.2-.69,1.49-.18,1.74.34.4.33,1.12.02,1.49.21.94.48.04,1.19.09,1.75.35,3.71,1.71,1.5,1.48,3.92-.31.45-1.71.34-2.22.06l-.69-3.78Z" fill="#5b7fb2"/><path d="M24.96,19.93c-.61,1.08-3.32.2-3.29.22-.3-.16-.3-.6-.52-1.24.87.05,1.77-.08,2.72-.5.51.4.69.88,1.32,1.27.21-.46.39-1.08.9-1.12.99-.07,1.08-1.18,1.72-1.55.93-.54,2.29-.02,3.44-.19.08.66-.36.67-.6,1.05.08,1.4-.26,2.74-1.25,3.84-1.02-.51-1.57-1.36-2.27-2.16-.58.25-.8.72-1.26,1.28-.41-.18-.47-.53-.93-.9Z" fill="#5b7fb2"/><path d="M34.12,32.69c-.17-.31-.65-.33-.48-.72.12-.29.39-.45.77-.35.85.22,1.04-.38,1.46-.81,1.96-1.97-.82-2.18,1.41-3.4.26-.14.27-.85.53-.82.4.05.72.25.94.32.59.19-.05.8-.04,1.17.03,1.14-.22,2.36.11,3.37.36.48.83.87.65,1.5-.34,1.17-2.83.62-3.88.34-.5-.13-1.02.21-1.47-.61Z" fill="#5b7fb2"/><path d="M140.25,49.69c-1.74,1.29-1.79,2.9-4.92,2.94-1.3-.54-1.44-3.2-.08-3.85.6-.29,1.63.31,1.92-1.08,4.07.78,1.66,1.27,4.35,1.31-.02.9-.86.38-1.27.68Z" fill="#5b7fb2"/><path d="M87.51,4.43c-.45.54-1.16.16-1.58.39-.49.27-.62.88-1.18.74-.41-.1-1.37,0-1.49-.6-.22-1.08-.31-2.05-.44-3.37,3.67-.39,2.28.23,4.63,1.21.37.15.32,1.32.06,1.63Z" fill="#5b7fb2"/><path d="M83.26,10.05c.49.36.68,1.96-.03,2.1-1.59.31-3.65.2-5.24.03-.62-.28-.62-2.23-.02-2.47,1.93-.77,3.64.49,5.29.35Z" fill="#5b7fb2"/><path d="M178.51,51.38c-.41-.06-.36-.51-.49-.94-2.01.9-.48,1.53-3.81,1.15-1.08-2.43,1.5-3.97,1.74-3.96.34.02.69.1.93.46,1.01,1.47,2.44.34,2.69,1.2.1.35-.65-.34-1.05,2.08Z" fill="#5b7fb2"/><path d="M77.58,38.95s-4.38-.67-3.81-1.14c.62-.35,1.19-.06,1.84-.23-.02-.5-.05-1.38.55-1.41,2.3-.1,2.33-.98,3.16-.4.53.37.31,2.72.19,2.97-.37.77-1.33.26-1.93.21Z" fill="#5b7fb2"/><path d="M155.93,60.73c-.48.94-1.28.07-2.41.81-.48.32-1.06.13-1.36-.19-.35-.38-.36-1.01.02-1.42l1.66-1.84c.36-.39-.05-1.13.58-1.55,1.85,1.6.46,2.19,1.37,3.6.15.23.2.47.13.6Z" fill="#5b7fb2"/><path d="M60.68,19.55c-.9-.21-1.09.39-1.59.62-.72.33-1.63.05-2.38.65-.28.22-1.33-.16-1.13-.56.53-1.04,1.67-2.5,2.92-2.65.77-.09,1.41.76,2.26.47.39-.14.74.4.78.65.05.36-.27.97-.87.83Z" fill="#5b7fb2"/><path d="M73.52.96l-6.21.1-5.04-.07c-.8-.01-1.63-.35-2.29-.7h15.13c-.48.49-1.13-.03-1.59.66Z" fill="#5b7fb2"/><path d="M147.16,59.7c.23,1.66-3.69,1.65-3.7,1.65-.76-.27-.18-1.45.31-1.78.32-.21-.01-.96.38-1.18,1.05-.6,2.83-.02,3.02,1.31Z" fill="#5b7fb2"/><path d="M110.31,50.25c1.1,1.14-1.74,2.22-2.58,2.7-.59-.52-1.48-.49-1.91-1.02-.33-.41-.12-1.16.06-1.46.57-.93,2.1.42,3.78-.2.26-.1.53-.15.66-.03Z" fill="#5b7fb2"/><path d="M196.1,24.56c.28.5-.96,1.69-1.49,2.22-.65-.55-1.4-.3-2.13-.58-.56-.22-.58-1.77,0-1.98.39-.14,3.15-.49,3.61.34Z" fill="#5b7fb2"/><path d="M178.05,16.9c-.09.68-.69.7-1.1.69-.45-.01-.83-.21-.91-.69s.01-1.01.51-1.35c.79-.53.95-2.54,2.54-1.95.53.2.53.82.48,1.28-.08.68-.77.73-1.46.67-.13.45.02.82-.05,1.35Z" fill="#5b7fb2"/><path d="M95.4,43.73c-.03,1.28-3.68.88-3.69.07,0-.68.96-1.87,1.65-1.88.85.25,1.25,1.21,2.04,1.81Z" fill="#5b7fb2"/><path d="M158.34.63c-.95.29-1.3.46-2.35.08-3.07-1.12-5.43,1.46-6.16-.48l15.18.07c.06.27-6.57.29-6.68.32Z" fill="#5b7fb2"/><path d="M111.17.98l-5.18.02c.34-1.06-5.37-.1-5.8-.67l11.27-.08c.1.21-.23.29-.29.73Z" fill="#5b7fb2"/><path d="M179.59.28c-1.79,1.01-3.93,1.08-5.83.27l-7.28-.21,13.11-.06Z" fill="#5b7fb2"/><path d="M87.65,1.14c-.74.39-1.48.04-2.34-.08-1.82-.25-3.78.28-5.43-.26-.45-.15-1.02-.36-1.78-.46l9.06-.04c-.48.48-1.11.02-1.41.57l1.9.27Z" fill="#5b7fb2"/><path d="M151.49,61.87c.6.05.65,2.87.16,3.2-.38.25-1.05.26-1.42,0-.89-.63.03-2.48,1.26-3.2Z" fill="#5b7fb2"/><path d="M193.69,9.05c-.19-.51-.63-1.28-.48-2s1.15-1.48,1.81-1.48c.69,0,.66.89.61,1.28-.08.67-.73.73-1.47.69-.11.49.14.84-.48,1.51Z" fill="#5b7fb2"/><path d="M124.17,51.26l-.48-1.48c-.12-.38-1,.03-1.45-.49,1.11-1.05,3.63.5,3.84-1.18.55.17.54.53.5.89-.11,1.01-1.32.51-1.97.7-.11.54.08,1.01-.43,1.55Z" fill="#5b7fb2"/><path d="M95.73,25.43c-.57.36-1.29.1-2.02.16-.06-.52-.1-.95.1-1.38.25-.54.81-.67,1.21-.56.66.18.7.66.71,1.79Z" fill="#5b7fb2"/><path d="M125.68,7.98c-.95,1.17-1.74-.69-3.52-.69.09-.69,3.11-.72,3.52-.22.2.25.2.67,0,.91Z" fill="#5b7fb2"/><path d="M89.52,16.01c-.94,1.16-1.74-.69-3.52-.69.09-.69,3.12-.72,3.52-.22.2.25.2.66,0,.91Z" fill="#5b7fb2"/><path d="M92.93,23.54c-1.57.05-2.98.12-4.37-.02-.51-.05-.52-.56,0-.61.22-.02,6.16-.44,4.37.63Z" fill="#5b7fb2"/><path d="M123.33.32c-1.33.47-4.61,1.32-5.56.8.83-.39,1.68.27,2.32-.49l-5.84-.29,9.07-.03Z" fill="#5b7fb2"/><path d="M135.97,63.71c-.67.08-.87-.5-.89-.88-.02-.48.12-1.11.78-1.12.56,0,.77.51.78.9s-.04,1.03-.68,1.11Z" fill="#5b7fb2"/><path d="M182.97,50.45c-.66-.04-.96-.45-.9-.88.07-.46.49-.69,1.01-.69s.95.23,1.01.68c.07.54-.38.94-1.12.89Z" fill="#5b7fb2"/><path d="M197.03,8.31c-.66-.04-.96-.45-.9-.88.07-.46.49-.69,1.01-.69s.95.23,1.01.69c.07.53-.37.93-1.12.88Z" fill="#5b7fb2"/><path d="M114.81,55.21c.13-.39.85-1.24,1.24-1.32.62-.12.59,1.07.35,1.49-.26.45-1.49.48-1.6-.17Z" fill="#5b7fb2"/><path d="M31.53,34.51c-.32-.34-.2-1.61.2-1.86.49-.3.98.64.95,1.07s-.72,1.23-1.15.79Z" fill="#5b7fb2"/><path d="M141.42.33c-1.39.55-5.34.2-7.08,0h7.08Z" fill="#5b7fb2"/><path d="M93.22,57.3c-.77.61-2,.58-3.18.07.88-.57,1.83-.72,3.18-.07Z" fill="#5b7fb2"/><path d="M185.72,5.13c-.92.66-1.65.4-2.57.24-.17-.4.03-.76.39-.92.72.34,1.34.17,2.18.68Z" fill="#5b7fb2"/><path d="M87.28,51.19c-.4-.75-1-1.86-.14-2.77.67.78.82,1.62.14,2.77Z" fill="#5b7fb2"/><path d="M129.33.39c.47.02-4.29.66-3.51-.15,1.16.11,2.11-.16,3.51.15Z" fill="#5b7fb2"/><path d="M147.59.4c.22.09-.21.72-.54.61-.28-.09-1.1-.28-.79-.63.26-.24.87-.17,1.33.01Z" fill="#5b7fb2"/><path d="M133.63,1.13c-1.14.22-2.28.21-3.56.01,1.14-.22,2.28-.21,3.56-.01Z" fill="#5b7fb2"/><path d="M141.92,1.13c-1.14.22-2.28.21-3.56.01,1.14-.22,2.28-.21,3.56-.01Z" fill="#5b7fb2"/><path d="M161.96,1.15c-1.16.14-2.32.23-3.54-.04,1.15-.26,2.17-.15,3.54.04Z" fill="#5b7fb2"/><path d="M95.21,1.13c-1.06.22-2.12.21-3.31.01,1.06-.22,2.12-.21,3.31-.01Z" fill="#5b7fb2"/><path d="M17.64,49.29c-.44-.48-.4-1.04-.11-1.63.7.36.86,1.12.11,1.63Z" fill="#5b7fb2"/><path d="M93.2.37c-.97.22-1.95.21-3.06.01.97-.22,1.95-.21,3.06-.01Z" fill="#5b7fb2"/><path d="M203.58,5.72c.23.43-.34.58-.54.55-.27-.04-.88-.3-.56-.67.17-.19.94-.19,1.11.11Z" fill="#5b7fb2"/><path d="M155.95,1.16c-.63.15-1.24.19-2.03-.01.54-.24,1.12-.24,2.03.01Z" fill="#5b7fb2"/><path d="M182.28,23.79c.21-.27.58-.05.71.03.15.09.15.31-.04.51s-.29.5-.57.27c-.2-.16-.36-.5-.11-.81Z" fill="#5b7fb2"/><path d="M156.97,62.12c-.04-.36.51-.2.65-.19.18.01.3.38.2.65-.04.12-.18.12-.42.14-.18.02-.38-.15-.43-.6Z" fill="#5b7fb2"/><path d="M174.03,1.16c-.63.15-1.24.19-2.03-.01.54-.24,1.12-.24,2.03.01Z" fill="#5b7fb2"/><path d="M101.93,17.77c.21-.27.59-.04.71.03.15.09.15.32-.04.51s-.29.5-.57.27c-.2-.16-.35-.49-.11-.82Z" fill="#5b7fb2"/><path d="M18.96,21.48c-.22.06-.39-.22-.35-.28.07-.1.39-.27.34-.5.15-.5.49-.43.29.1.13.25-.06.62-.29.68Z" fill="#5b7fb2"/><path d="M156.89,46.08c.19-.37.44-.29.69-.34.29-.06.34.48.26.76-.04.12-.12.12-.42.17-.19.03-.28-.15-.52-.59Z" fill="#5b7fb2"/><path d="M197.26,2.68c0,.17-.58.13-.62-.04-.04-.17-.02-.67.12-.58.24.15.51.31.5.63Z" fill="#5b7fb2"/><path d="M208.44,5.52c-.15.24.21.5.19.68-.38.3-.6-.4-.69-.68h.5Z" fill="#5b7fb2"/></g></svg>