<?xml version="1.0" encoding="UTF-8"?><svg id="Layer_2" xmlns="http://www.w3.org/2000/svg" xmlns:xlink="http://www.w3.org/1999/xlink" viewBox="0 0 108.58 64.21"><defs><linearGradient id="linear-gradient" x1="54.29" y1="64.21" x2="54.29" y2="0" gradientUnits="userSpaceOnUse"><stop offset="0" stop-color="#3750bc"/><stop offset=".21" stop-color="#364eb7"/><stop offset=".43" stop-color="#344aab"/><stop offset=".66" stop-color="#304496"/><stop offset=".89" stop-color="#2b3b79"/><stop offset="1" stop-color="#293668"/></linearGradient></defs><g id="Layer_1-2"><path d="M0,0v33.97c0,16.7,13.54,30.25,30.25,30.25h48.09c16.7,0,30.25-13.54,30.25-30.25V0H0ZM69.9,36.62c-4.13,4.39-8.26,8.78-12.4,13.17-.37.29-1.49,1.09-3.13,1.14-1.84.06-3.11-.87-3.45-1.14-3.88-3.92-7.75-7.83-11.63-11.75-.33-.49-1.23-2-1.1-4.06.1-1.57.75-2.7,1.1-3.21.27-.33,1.28-1.49,3.05-1.83,2.03-.38,3.56.61,3.86.81,2.32,2.29,4.63,4.58,6.95,6.87.03.04.44.54,1.1.49.54-.04.84-.42.89-.49,2.4-2.29,4.8-4.58,7.19-6.87.33-.22,1.97-1.25,4.06-.81,1.45.3,2.37,1.14,2.72,1.5.35.45.88,1.26,1.14,2.4.4,1.78-.13,3.24-.37,3.78ZM69.9,14.95c-4.13,4.39-8.26,8.78-12.4,13.17-.37.29-1.49,1.09-3.13,1.14-1.84.06-3.11-.87-3.45-1.14-3.88-3.92-7.75-7.83-11.63-11.75-.33-.49-1.23-2-1.1-4.06.1-1.57.75-2.7,1.1-3.21.27-.33,1.28-1.49,3.05-1.83,2.03-.38,3.56.61,3.86.81,2.32,2.29,4.63,4.58,6.95,6.87.03.04.44.54,1.1.49.54-.04.84-.42.89-.49,2.4-2.29,4.8-4.58,7.19-6.87.33-.22,1.97-1.25,4.06-.81,1.45.3,2.37,1.14,2.72,1.5.35.45.88,1.26,1.14,2.4.4,1.78-.13,3.24-.37,3.78Z" fill="url(#linear-gradient)"/></g></svg>