<?xml version="1.0" encoding="UTF-8"?><svg id="Layer_2" xmlns="http://www.w3.org/2000/svg" viewBox="0 0 70.85 73.99"><g id="Layer_1-2"><path d="M1.4,17.04L0,30.67c0,.47.04,1.35.49,2.33.45.98,1.09,1.6,1.45,1.9.31.26.79.59,1.43.85.66.26,1.25.35,1.65.38h22.74c.48-.08,1.44-.3,2.39-1.03.87-.66,1.33-1.43,1.54-1.86.28-.53.57-1.24.76-2.12.31-1.5.14-2.76-.03-3.53-.15-.72-.45-1.71-1.05-2.78-.71-1.27-1.57-2.14-2.17-2.67.76-.33,1.67-.66,2.73-.91,1.71-.41,3.22-.48,4.39-.43,1.09.12,2.38.33,3.79.75,1.29.38,2.4.83,3.32,1.27.95.52,2.14,1.29,3.36,2.41,1.3,1.2,2.2,2.41,2.81,3.36.49.76,1.04,1.75,1.51,2.96.55,1.45.79,2.75.91,3.76.1,1.02.14,2.35-.08,3.89-.22,1.58-.64,2.89-1.03,3.86-.38.88-.92,1.95-1.7,3.07-.84,1.19-1.71,2.11-2.45,2.78-.66.61-1.51,1.3-2.57,1.94-1.59.96-3.09,1.48-4.23,1.77-.95.26-2.21.51-3.71.56-1.62.05-2.99-.16-4-.4-.82-.18-1.79-.46-2.84-.91-1.19-.5-2.17-1.08-2.92-1.6-.63-.44-1.31-.98-2.01-1.64-.63-.59-1.17-1.17-1.62-1.7-.3-.29-1.19-1.07-2.58-1.25-.98-.13-1.77.11-2.17.26-.26.15-.69.46-1.01,1-.63,1.06-.35,2.16-.29,2.39.27,1.06.55,2.11.82,3.17,0,.01.02.15-.07.24-.1.09-.27.08-.39-.04-1.63-.37-3.27-.74-4.9-1.1-.23-.05-1.06-.18-1.94.28-.84.44-1.2,1.16-1.3,1.38-.29.63-.6,1.49-.78,2.53-.24,1.37-.15,2.55-.03,3.35.34.84.85,1.88,1.64,2.97.59.82,1.19,1.47,1.73,1.99.97.94,2.12,1.94,3.45,2.94,1.25.94,2.45,1.72,3.55,2.37,1.32.74,2.87,1.52,4.66,2.21,1.5.58,2.91,1.02,4.19,1.34,1.48.37,3.19.69,5.1.87,1.28.12,2.47.17,3.57.16,1.31-.02,2.77-.11,4.33-.32,1.12-.15,2.16-.34,3.12-.55,1.19-.27,2.51-.64,3.91-1.15,1.1-.4,2.11-.83,3-1.27,1-.45,2.1-1.01,3.24-1.7.99-.59,1.87-1.2,2.65-1.78.8-.58,1.65-1.25,2.53-2.02.76-.67,1.45-1.34,2.06-1.97.82-.84,1.7-1.83,2.57-3,.69-.92,1.27-1.82,1.76-2.65.67-1.02,1.37-2.23,2.03-3.62.69-1.45,1.2-2.81,1.58-4.01.4-1.12.79-2.41,1.11-3.83.35-1.56.56-2.99.67-4.27.11-1.27.18-2.65.18-4.12,0-1.71-.08-3.29-.22-4.73-.14-1.4-.39-2.99-.79-4.7-.39-1.67-.86-3.17-1.34-4.46-.37-1.26-.87-2.69-1.59-4.23-.78-1.67-1.62-3.08-2.4-4.23-.56-.86-1.23-1.78-2.02-2.73-.93-1.13-1.86-2.08-2.73-2.88-.83-.85-1.84-1.77-3.04-2.69-1.32-1.01-2.59-1.8-3.72-2.41-1.27-.74-2.79-1.51-4.54-2.21-1.71-.68-3.3-1.16-4.7-1.5-1.2-.29-2.56-.55-4.05-.73-1.85-.22-3.54-.27-5-.22-1.31.03-2.78.14-4.39.39-1.43.22-2.72.51-3.86.83-1.13.32-2.38.73-3.71,1.26-1.32.53-2.5,1.1-3.53,1.66-.8.44-1.64.94-2.51,1.51-.72.47-1.39.95-2.01,1.41-1.05-1.17-2.81-2.75-4.53-4.5-.27-.28-1-.94-2.17-1.2-1.18-.26-2.12.04-2.48.18-.38.15-.95.45-1.51,1-.74.73-1.05,1.53-1.18,1.94-.47,4.17-.95,8.35-1.42,12.53h0Z" fill="#e89a25"/><path d="M3.29,26.71l-.23,2.33c0,.23.02.65.24,1.11.16.33.36.56.51.71.17.16.45.39.87.56.47.19.89.21,1.12.2,7.32-.1,14.65-.21,21.97-.31.17-.03.5-.1.83-.35.38-.29.55-.65.62-.81.12-.38.24-.93.23-1.62,0-.68-.15-1.24-.28-1.61,0,.15-.05.47-.27.79-.16.23-.35.37-.47.44-.11.09-.29.21-.53.3-.3.11-.56.11-.72.1-7.3.06-14.6.13-21.9.19-.15-.02-.34-.07-.55-.16-.23-.1-.4-.21-.53-.31-.16-.14-.36-.35-.54-.65-.21-.34-.31-.67-.36-.89h0Z" fill="#cc7904"/><path d="M22.11,18.84l1.56,1.69c.85-.71,1.99-1.54,3.46-2.28,1.37-.7,2.65-1.12,3.67-1.38,1.09-.32,2.57-.64,4.35-.69,1.89-.05,3.48.22,4.62.5.93.19,2.04.49,3.24.98,1.46.6,2.64,1.3,3.53,1.93.67.55,1.38,1.17,2.1,1.87.78.76,1.48,1.5,2.09,2.21.48.66.97,1.41,1.45,2.24.64,1.1,1.14,2.14,1.54,3.1.23.51.45,1.09.65,1.75.26.86.4,1.66.48,2.34.09,1.53.18,3.07.28,4.6.1-.95.18-1.95.22-3,.03-.64.04-1.27.03-1.87,0-.86-.04-1.87-.21-2.99-.19-1.23-.48-2.31-.77-3.19-.29-.9-.72-1.98-1.36-3.14-.61-1.11-1.27-2.01-1.85-2.72-.56-.7-1.28-1.49-2.18-2.29-.73-.65-1.44-1.17-2.09-1.59-.84-.57-1.91-1.21-3.2-1.77-1.26-.56-2.42-.91-3.4-1.15-1.15-.31-2.76-.63-4.68-.62-1.98,0-3.63.35-4.8.69-1.28.33-2.94.9-4.74,1.89-1.72.96-3.04,2.02-3.99,2.89h0Z" fill="#cc7904"/><path d="M67.11,29.87c.21,1.01.39,2.14.51,3.38.11,1.19.14,2.29.12,3.28.03,2.08-.14,4.68-.8,7.61-.43,1.91-.99,3.59-1.57,5.01-.4,1.15-.96,2.49-1.75,3.92-.83,1.52-1.72,2.76-2.53,3.75-.87,1.12-1.92,2.35-3.18,3.59-1.1,1.09-2.19,2.03-3.19,2.82-1.3.96-2.91,2-4.84,2.95-1.48.73-2.88,1.28-4.14,1.7-1.45.48-3.22.94-5.28,1.23-2.24.31-4.23.34-5.85.25-1.47-.02-3.24-.16-5.21-.57-1.71-.35-3.19-.82-4.43-1.29-1.49-.51-3.24-1.25-5.09-2.34-1.21-.71-2.26-1.45-3.16-2.15-.93-.74-1.9-1.57-2.89-2.52-.72-.69-1.38-1.36-1.99-2.03-.22-.26-.6-.77-.76-1.52-.09-.4-.09-.76-.07-1.03,0-.14.01-.26.03-.34.02-.08.04-.16.09-.26.07-.12.16-.2.22-.24.04-.02.18-.09.35-.06.2.04.31.18.33.21.58.81,1.29,1.71,2.18,2.62,1.42,1.44,2.84,2.49,4.03,3.22.91.61,1.94,1.24,3.08,1.85,1.47.78,2.87,1.39,4.13,1.86,1.36.49,2.99.98,4.86,1.34,1.86.36,3.54.5,4.97.55,1.41.03,3.08-.04,4.94-.32,1.67-.25,3.15-.62,4.39-1.01,1.12-.4,2.32-.88,3.56-1.44,1.34-.61,2.57-1.24,3.67-1.87,1.08-.67,2.28-1.51,3.53-2.56,1.02-.86,1.9-1.72,2.64-2.52,1.09-1.07,2.32-2.45,3.51-4.18,1.02-1.48,1.79-2.89,2.37-4.13.56-1.18,1.12-2.52,1.62-4.03.46-1.38.81-2.67,1.06-3.85.24-1.59.48-3.19.71-4.78.02-.85.02-1.74,0-2.65-.03-1.22-.1-2.38-.19-3.48h0Z" fill="#cc7904"/><path d="M20.13,48.71c-.03.14-.05.32-.05.51,0,.16.01.31.03.44.17.63.34,1.27.5,1.91.24.91.47,1.81.69,2.71.02.16.03.49-.11.87-.13.33-.32.54-.44.66-.17.02-.35.04-.52.06.07-.19.14-.44.17-.74.03-.24.02-.46,0-.64-.08-.72-.21-1.53-.42-2.41-.18-.73-.38-1.39-.59-1.98-.07-.13-.16-.36-.17-.67,0-.24.03-.43.07-.56.03-.04.15-.19.37-.24.25-.05.43.06.47.09h0Z" fill="#cc7904"/><path d="M22.1,18.86l6.89,7.56c.05.11.13.33.1.62-.03.32-.16.54-.23.64-.08.13-.28.41-.65.61s-.71.22-.87.21c-7.27.08-14.53.16-21.8.24-.19,0-.55-.04-.95-.24-.37-.19-.6-.45-.72-.6-.13-.16-.32-.44-.43-.83-.11-.39-.1-.73-.08-.93.62-6.63,1.24-13.25,1.86-19.88.02-.21.08-.68.43-1.15.27-.35.58-.54.76-.64.15-.07.59-.27,1.16-.17.47.09.77.33.9.44,1.96,2.07,3.92,4.15,5.88,6.22.96-.86,2.12-1.79,3.48-2.71,1.32-.89,2.59-1.6,3.72-2.16,1.07-.51,2.29-1.03,3.64-1.5,1.1-.38,2.14-.68,3.11-.92,1.06-.26,2.28-.49,3.63-.65,1.37-.15,2.63-.2,3.73-.18,1.07,0,2.24.03,3.5.15,1.3.12,2.5.31,3.58.52.87.24,1.78.51,2.72.82.98.32,1.9.66,2.77,1.01.81.33,1.71.74,2.66,1.27.77.43,1.46.88,2.07,1.3.57.37,1.17.78,1.78,1.24.7.52,1.34,1.05,1.93,1.56.57.54,1.15,1.1,1.74,1.69.56.56,1.09,1.11,1.6,1.65.59.64,1.23,1.41,1.86,2.31.54.77.99,1.52,1.35,2.2.39.62.78,1.32,1.17,2.09.52,1.06.92,2.06,1.22,2.96.19.53.37,1.09.54,1.68.27.94.48,1.83.65,2.67.18.99.33,2.07.43,3.24.1,1.19.14,2.3.13,3.32-.05.83-.12,1.68-.21,2.57-.06.53-.12,1.04-.19,1.54-.22,1.16-.48,2.38-.81,3.65-.33,1.31-.7,2.53-1.07,3.67-.41,1.04-.92,2.17-1.53,3.36-.66,1.28-1.35,2.42-2.01,3.43-.5.68-1.05,1.39-1.66,2.11-.64.77-1.28,1.48-1.9,2.14-.63.66-1.34,1.37-2.16,2.08-.8.69-1.57,1.3-2.3,1.81-.62.48-1.37.98-2.23,1.47-.89.51-1.74.89-2.49,1.19-.89.43-1.89.87-3,1.27-1.04.38-2.03.68-2.94.92-.97.25-2.08.47-3.29.63-1.35.17-2.58.24-3.67.23-1.19,0-2.55-.07-4.03-.28-1.27-.17-2.42-.41-3.44-.67-1.06-.27-2.25-.62-3.52-1.11-1.27-.49-2.39-1.01-3.36-1.53-.81-.44-1.66-.95-2.54-1.53-1.57-1.04-2.9-2.12-4.02-3.13-.6-.45-1.29-1.04-1.98-1.81-.48-.54-.87-1.07-1.19-1.55.18-.04.41-.07.68-.07.47,0,.84.12,1.09.22,1.6.34,3.2.68,4.8,1.02.21.06.65.15,1.16,0,.24-.07.43-.18.56-.27.2-.11.41-.24.64-.41.16-.12.31-.23.43-.34.04-.31.06-.7.02-1.14-.06-.66-.23-1.2-.39-1.58-.27-.55-.55-1.31-.68-2.24-.05-.39-.07-.76-.06-1.09.01-.07.03-.17.08-.28.04-.09.08-.16.13-.22.07-.01.26-.04.48.05.25.11.36.32.39.38.39.53.87,1.1,1.46,1.68,1.11,1.1,2.23,1.85,3.16,2.37.74.48,1.67,1,2.78,1.46,1.35.56,2.58.87,3.59,1.05.99.21,2.23.38,3.67.38,1.25,0,2.35-.14,3.25-.32.98-.17,2.16-.45,3.45-.94,1.27-.48,2.32-1.04,3.15-1.55.96-.59,2.09-1.41,3.24-2.5,1.1-1.04,1.95-2.07,2.59-2.95.63-.98,1.29-2.17,1.9-3.57.59-1.36,1-2.62,1.28-3.72.19-.8.37-1.68.5-2.64.1-.69.16-1.35.19-1.97.1-1.1.14-2.43,0-3.93-.13-1.44-.39-2.69-.66-3.73-.21-.95-.55-2.11-1.12-3.37-.51-1.13-1.08-2.07-1.59-2.82-.61-.84-1.39-1.78-2.35-2.74-.78-.77-1.54-1.42-2.24-1.95-.72-.57-1.65-1.2-2.79-1.78-.97-.49-1.87-.84-2.65-1.08-.95-.32-2.14-.64-3.51-.83-1.39-.2-2.63-.22-3.64-.17-.95.05-2.08.17-3.32.44-1.29.28-2.41.66-3.32,1.03-.89.33-1.95.82-3.08,1.54-1.28.81-2.27,1.68-3,2.41h0Z" fill="#f8f9ea"/></g></svg>