<?xml version="1.0" encoding="UTF-8"?><svg id="Layer_2" xmlns="http://www.w3.org/2000/svg" viewBox="0 0 80.45 73.41"><g id="Layer_1-2"><path d="M80.21,41.2c-.09-.47-.3-1.29-.91-2.12-.45-.61-.94-1.01-1.3-1.24l-15.03-7.16c2.17-4.46,4.35-8.91,6.52-13.37.37-.89.79-2.22.82-3.89.01-.83-.07-1.57-.19-2.17-.07-.46-.24-1.19-.7-1.99-.48-.82-1.07-1.35-1.44-1.63-5.14-2.5-10.29-5.01-15.44-7.51-.29-.08-1.53-.37-2.79.32-.85.47-1.28,1.15-1.45,1.46-.29.63-.67,1.68-.75,3.02-.08,1.45.22,2.6.46,3.28-1.03.43-2.15.98-3.33,1.66-1.47.85-2.72,1.74-3.75,2.56-1.45,1.15-3.18,2.72-4.86,4.82-2.19,2.74-3.54,5.4-4.37,7.42-1.71-.9-3.95-1.88-6.66-2.59-3.51-.93-6.6-1.09-8.87-1.03-1.97.05-4.48.3-7.29,1.06-2.12.57-3.93,1.31-5.39,2.01-.62.34-1.72,1.06-2.55,2.39-.42.67-.66,1.32-.81,1.82-.08.28-.3,1.18.11,2.2.38.96,1.09,1.45,1.34,1.61.74.36,1.47.73,2.21,1.09.06.02.25.11.34.31.12.24.06.54-.15.77-.21.41-.41.89-.58,1.46-.32,1.1-.36,2.07-.33,2.78.08.46.26,1.15.68,1.89.43.76.94,1.28,1.3,1.6.34.26,1.08.75,2.16.93,1.1.17,1.98-.08,2.38-.23,1.23-.73,5.27-2.88,10.39-1.97,2.64.47,4.61,1.59,5.78,2.4-.57,1.47-1.76,3.97-4.17,6.29-3.03,2.92-6.34,3.98-7.92,4.38-.34.05-.84.16-1.38.45-.76.41-1.22.95-1.44,1.27-.25.42-.51.91-.75,1.47-.35.82-.58,1.58-.73,2.23-.04.24-.16,1.1.34,1.97.62,1.07,1.7,1.33,1.88,1.37.62.08,1.24.16,1.85.25.03,0,.23.04.35.22.13.2.05.41.05.44-.28.3-.56.59-.84.89-.32.41-.86,1.22-1.08,2.39-.28,1.46.1,2.63.29,3.12.13.45.46,1.4,1.34,2.22,1.29,1.2,2.83,1.28,3.24,1.29,2.01-.29,4.59-.86,7.44-2.01,2.69-1.09,4.84-2.38,6.44-3.5,1.77-1.21,4.1-3.07,6.33-5.79,2.35-2.85,3.77-5.63,4.62-7.67,2.09,1.21,5.83,3.01,10.84,3.62,4.95.6,8.96-.23,11.27-.9.43,1.15.86,2.29,1.29,3.44.23.37.71,1.03,1.56,1.57.89.56,1.73.69,2.17.72.45-.02,1.22-.11,2.08-.54.94-.46,1.51-1.1,1.79-1.47,2.3-4.63,4.61-9.25,6.91-13.88.33-.66.78-1.76.88-3.19.08-1.08-.06-1.98-.21-2.6ZM57.6,38.15c-1.1.16-2.89.29-5.01-.21-2.35-.56-4.03-1.64-4.94-2.33.42-1.26,1.25-3.21,2.9-5.16,1.28-1.5,2.61-2.49,3.61-3.11.1.67.41,2.07,1.49,3.43.87,1.1,1.86,1.68,2.45,1.97-.29.52-.74,1.5-.84,2.8-.08,1.14.15,2.06.34,2.6Z" fill="#e89a25"/><path d="M8.32,31.66c0-.06-.04-.23-.17-.38-.15-.17-.35-.21-.4-.21-1.24-.08-2.49-.16-3.73-.24-.15-.02-.82-.13-1.28-.73-.29-.38-.36-.78-.38-.97,0-.21,0-.68.25-1.18.26-.51.63-.79.81-.91,2.44.7,4.88,1.4,7.33,2.11l-1.5,3.31-.93-.81Z" fill="#cc7904"/><path d="M50.4,3.06l2.25,6.16-1.13.36-1.63-4.53c-.03-.25-.03-.64.09-1.09.11-.4.28-.7.41-.89Z" fill="#cc7904"/><path d="M66.34,9.87c.21.08.82.33,1.23.99.52.83.36,1.67.32,1.85-2.42,5.05-4.85,10.11-7.27,15.16-.22.54-.72.91-1.29.94-.62.03-1.21-.34-1.45-.94-.71-1.86-1.41-3.72-2.12-5.58-1.4.52-3.39,1.45-5.37,3.14-3.11,2.66-4.52,5.76-5.13,7.38-1.09,2.57-1.75,4.74-2.15,6.25-.56,2.14-.67,3.2-1.29,5.48-.64,2.37-1.35,4.26-1.85,5.48-.66,1.9-1.77,4.45-3.68,7.13-2.04,2.87-4.25,4.85-5.9,6.12-1.4,1.16-3.39,2.58-5.99,3.78-2.66,1.24-5.08,1.85-6.9,2.17-.18.04-.93.2-1.72-.21-.69-.37-.99-.96-1.07-1.15,0-.33.03-.78.19-1.29.09-.31.21-.57.32-.78,5.71-5.26,11.42-10.52,17.12-15.77l11.67-25.15,15.89-12.24,6.41-2.76Z" fill="#cc7904"/><path d="M18.29,61.64c0-.05,0-.21-.13-.36-.15-.19-.37-.21-.41-.21-.86-.08-1.56-.1-2.04-.11-.57,0-1.13-.03-1.7-.02-.87.02-1.39.08-1.74-.27-.15-.15-.22-.33-.25-.45-.08-.2-.17-.48-.21-.82-.03-.29-.02-.54,0-.73.02-.19.1-.58.38-.97.19-.26.41-.42.55-.52,2.43.74,4.87,1.49,7.3,2.23l-1.25,2.51-.5-.29Z" fill="#5d6d7a"/><path d="M62.82,39.47l-1.33.51-1.58-4.48c-.05-.17-.13-.56,0-1.03.12-.41.35-.68.47-.81.81,1.94,1.63,3.87,2.44,5.81Z" fill="#cc7904"/><path d="M76.36,39.98c.19.08.68.3,1.04.85.35.53.38,1.05.38,1.25-.02.23-.06.53-.17.86-.1.29-.22.53-.33.71-2.35,4.82-4.7,9.64-7.05,14.45-.03.05-.49.73-1.32.74-.59,0-1.14-.34-1.41-.87-.68-1.87-1.35-3.74-2.03-5.61-2.11.84-6.04,2.09-11.07,1.8-5.31-.3-9.24-2.17-11.25-3.29.3-.94.61-1.88.91-2.82l32.29-8.07Z" fill="#cc7904"/><path d="M26.9,36.87l-.54,2.23c-1.49-.81-4.57-2.22-8.7-2.31-4.24-.09-7.44,1.25-8.96,2.01-.13.07-.75.38-1.5.16-.66-.19-1.01-.67-1.1-.81-.15-.22-.34-.54-.46-.95-.07-.23-.11-.45-.13-.63.03-.36.11-.84.32-1.37.13-.33.29-.61.43-.83,5.63-.94,11.25-1.88,16.88-2.82l3.76,5.31Z" fill="#cc7904"/><path d="M52.33,9.2l-2.07-5.88c.03-.09.12-.29.32-.46.18-.15.36-.2.46-.21.15-.02.34-.03.55,0,.32.04.57.13.74.21,4.81,2.39,9.63,4.78,14.44,7.17.11.05.25.13.39.25.17.15.29.3.36.42-2.41,5.03-4.81,10.06-7.22,15.08-.08.1-.23.26-.47.38-.29.15-.55.16-.68.16-.12-.03-.29-.09-.47-.19-.19-.11-.32-.23-.42-.32-.75-2.04-1.5-4.08-2.25-6.12-1.31.44-3.27,1.27-5.27,2.87-1.86,1.48-3.05,3.06-3.77,4.19-.76,1.27-1.55,2.75-2.27,4.43-1.05,2.45-1.71,4.72-2.13,6.66-.26,1.25-.57,2.56-.94,3.92-.44,1.61-.92,3.11-1.41,4.51-.62,1.89-1.6,4.28-3.18,6.84-1.64,2.65-3.41,4.65-4.86,6.07-1.52,1.4-3.69,3.11-6.55,4.62-3.3,1.73-6.33,2.56-8.53,2.98-.22,0-.69-.05-1.17-.36-.34-.22-.55-.49-.66-.66,1.06-1.39,2.13-2.77,3.19-4.16.02-.03.26-.46.03-.91-.16-.3-.46-.5-.81-.51-1.15,0-2.29-.02-3.44-.03-.08.01-.58.08-1.01-.27-.3-.24-.39-.56-.42-.67-.15-.55-.3-1.09-.46-1.64.08-.15.28-.44.64-.67.33-.2.64-.25.81-.27,1.51-.32,3.75-.99,6.13-2.47,2.04-1.27,3.48-2.7,4.42-3.78,1.65-2.62,3.44-6.01,4.82-10.16.7-2.1,1.19-4.08,1.54-5.89.63-2.5,1.59-5.43,3.08-8.57.9-1.9,1.86-3.58,2.8-5.04,1.09-1.6,2.65-3.53,4.79-5.41,1.34-1.17,2.65-2.1,3.82-2.83,1.17-.67,2.47-1.35,3.92-2,1.11-.5,2.18-.92,3.19-1.27Z" fill="#f8f9ea"/><path d="M62.23,39.56l-1.99-5.72c.05-.1.22-.4.58-.59.41-.21.79-.14.9-.11,4.89,2.27,9.79,4.54,14.68,6.82.1.06.32.2.47.47.24.44.1.89.07.97-2.34,4.8-4.67,9.6-7.01,14.4-.13.12-.31.26-.54.38-.2.1-.38.17-.53.21-.1-.01-.4-.05-.67-.3-.19-.18-.27-.38-.3-.48-.72-1.95-1.45-3.9-2.17-5.85-2.11.83-5.7,1.93-10.25,1.82-5.38-.13-9.44-1.88-11.55-2.97.95-3.47,1.9-6.94,2.84-10.41,1.11.81,3.92,2.62,7.97,2.87,3.55.21,6.25-.9,7.49-1.5Z" fill="#f8f9ea"/><path d="M26.91,36.79c-1.47-.89-3.79-2.03-6.83-2.5-5.69-.88-10.17,1.18-11.85,2.07-.17.04-.59.11-1.07-.08-.34-.14-.56-.35-.68-.48-.15-.31-.3-.63-.46-.94.02-.11.05-.29.17-.48.12-.21.28-.34.37-.41.43-.43.89-.93,1.35-1.53.25-.32.47-.64.67-.94.27-.35.29-.82.07-1.15-.24-.34-.65-.38-.71-.38-1.02-.06-2.04-.13-3.06-.19-.13,0-.44-.05-.72-.27-.15-.12-.24-.25-.3-.34-.18-.24-.55-.8-.55-1.55,0-.21.03-.4.07-.55,2.32-1.21,6.84-3.16,12.84-3.31,6.57-.16,11.54,1.92,13.91,3.11-.48,1.18-.94,2.42-1.39,3.73-.74,2.17-1.34,4.25-1.83,6.2Z" fill="#f8f9ea"/></g></svg>