<?xml version="1.0" encoding="UTF-8"?><svg id="Layer_2" xmlns="http://www.w3.org/2000/svg" viewBox="0 0 75.61 86.72"><g id="Layer_1-2"><path d="M47.62,8.99L56.69.38c.1-.07.89-.59,1.86-.28.87.27,1.24,1.01,1.29,1.13.18.42.37,1.03.44,1.78.06.59.02,1.1-.04,1.5-.08.5-.16,1-.24,1.5l-.36,1.42,2.06.61c.23.12.67.4,1.01.93.42.64.45,1.28.44,1.54.07.88.13,1.75.2,2.63-.02.22-.07.5-.2.81-.24.58-.63.95-.85,1.13-2.87,2.78-5.74,5.55-8.62,8.33-.06.06-.98.93-2.14.65-1.01-.24-1.76-1.25-1.74-2.43-.05-.8-.05-1.76.08-2.83.1-.84.27-1.59.44-2.22-.26-.02-1.96-.2-3.02-1.7-.75-1.06-.75-2.18-.73-2.55-.06-.35-.15-1.14.19-2.02.24-.63.61-1.06.85-1.29Z" fill="#e89a25"/><path d="M57.8,1.66h.51c.08.06.25.19.34.42.15.36.03.7,0,.77-.59,2.02-1.17,4.03-1.76,6.05l-1.35-.75,2.27-6.49Z" fill="#cc7904"/><path d="M59.66,9.67c.33-.12.66-.25.99-.37.61.23,1.05.73,1.13,1.32.07.48-.12.86-.2,1.01-2.95,2.93-5.91,5.86-8.86,8.8-.04.03-.41.31-.81.18-.41-.13-.69-.63-.57-1.17.17-.67.34-1.35.51-2.02l7.81-7.75Z" fill="#cc7904"/><path d="M52.74,13.8l-3.96-1.25c-.08-.07-.59-.53-.59-1.27,0-.88.71-1.36.77-1.4,1.76.37,3.52.74,5.28,1.11l-.89,2.81h-.61Z" fill="#cc7904"/><path d="M56.4,7.82l1.94-6.11c-.09-.03-.24-.07-.43-.04-.28.04-.46.18-.54.24-2.79,2.64-5.58,5.29-8.37,7.93-.01.01-.27.23-.21.57.04.22.2.41.41.49,1.28.44,2.56.89,3.84,1.33l-1.54,6.23c.01.22.14.41.32.5.24.11.55.03.73-.22,2.88-2.88,5.76-5.75,8.64-8.63.01-.08,0-.14,0-.2-.09-.52-.85-.74-.91-.76-1.29-.44-2.59-.89-3.88-1.33Z" fill="#f8f9ea"/><path d="M58.26,26.91l14.56,6.59c.39.25,1.03.71,1.58,1.5.57.81.8,1.6.89,2.06.11,1.23.22,2.45.32,3.68,0,.44-.04,1.01-.2,1.66-.15.62-.37,1.12-.57,1.5-1.19,2.97-2.37,5.93-3.56,8.9-.18.36-.55.96-1.21,1.5-.53.43-1.06.65-1.42.77.13.8.22,1.85.12,3.07-.09,1.14-.33,2.1-.57,2.83-.99,2.4-2.23,5.02-3.76,7.77-1.25,2.23-2.52,4.24-3.76,6.03-1.06,1.44-2.58,3.23-4.69,4.97-2.33,1.92-4.58,3.15-6.31,3.92-1.65.78-3.8,1.62-6.39,2.22-2.52.58-4.76.78-6.55.81-2.05.09-4.69,0-7.68-.57-2.67-.51-4.92-1.28-6.67-2.02-1.92-.8-4.13-1.88-6.47-3.36-2.15-1.36-3.95-2.76-5.42-4.04-1.44-1.26-3.21-3.03-4.89-5.42-1.64-2.32-2.7-4.52-3.4-6.27-.74-2.09-1.5-4.8-1.9-8.01-.4-3.15-.35-5.91-.16-8.09.22-2.34.73-5.34,1.9-8.66.89-2.54,1.96-4.66,2.95-6.35,1.28-1.93,2.8-4.01,4.57-6.15,1.74-2.1,3.47-3.94,5.1-5.54.23-.21.76-.64,1.58-.81.68-.14,1.24-.04,1.54.04-.07-.45-.15-1.39.24-2.47.42-1.16,1.15-1.85,1.5-2.14,2.33-2.47,4.66-4.93,7-7.4.31-.3,1.3-1.18,2.87-1.38,1.43-.18,2.52.32,2.91.53,3.69,3.2,7.39,6.39,11.08,9.59.35.27.82.71,1.25,1.33.5.73.73,1.44.85,1.9.13,1.31.27,2.62.4,3.92.05.35.09,1.01-.16,1.78-.27.83-.75,1.37-1.01,1.62-2.43,2.76-4.85,5.53-7.28,8.29-.29.25-.87.7-1.74.93-.81.22-1.49.15-1.86.08.03.64,0,1.62-.36,2.75-.33,1.04-.81,1.81-1.17,2.31-1.15,1.52-2.29,3.03-3.44,4.55-.26.31-1.61,1.95-1.38,4.27.31,3.1,3.15,4.53,3.32,4.61.5.28,2.6,1.37,5.3.77,2.6-.58,4.01-2.36,4.37-2.83.77-1.03,1.6-2.27,2.39-3.72.95-1.76,1.6-3.4,2.06-4.81.1-.31.39-1.13,1.21-1.78.68-.53,1.37-.68,1.7-.73-.09-.77-.14-1.85.08-3.11.18-1.03.49-1.88.77-2.51,1.38-2.95,2.75-5.91,4.13-8.86.17-.3.92-1.54,2.51-2.06,1.4-.46,2.59-.09,2.95.04Z" fill="#e89a25"/><path d="M70.49,34.97c.15.04,1.45.37,2.03,1.67.41.91.17,1.84,0,2.4-1.01,3.42-3.58,9.11-3.91,9.84-.11.17-.42.6-1.01.83-.42.17-.8.17-1,.15-4.99-2.27-9.97-4.55-14.96-6.82-.21-.12-.86-.54-1.18-1.4-.41-1.11.07-2.08.15-2.24.18-.37.36-.75.55-1.12l19.32-3.31Z" fill="#cc7904"/><path d="M42.76,20.81c.15.23.3.53.39.9.31,1.23-.27,2.28-.46,2.58-2.27,2.54-4.53,5.08-6.8,7.61-.14.16-.6.64-1.37.76-1.17.18-1.99-.68-2.06-.76-3.79-3.24-7.58-6.47-11.38-9.71-.13-.12-.74-.75-.76-1.76-.02-1.06.64-1.74.76-1.85,7.22.74,14.44,1.48,21.66,2.22Z" fill="#cc7904"/><path d="M64.24,52.99c.14.05,1.18.4,1.61,1.49.35.88.07,1.66,0,1.85-.53,1.37-1.13,2.8-1.82,4.28-.88,1.9-1.79,3.65-2.7,5.25-1.06,1.78-2.53,3.88-4.52,6.04-1.65,1.78-3.29,3.19-4.73,4.28-1.6,1.11-3.87,2.44-6.76,3.46-3.39,1.19-6.4,1.53-8.52,1.61-2.36.03-5.52-.17-9.13-1.09-3.46-.88-6.23-2.14-8.25-3.25-1.63-.86-3.62-2.09-5.67-3.82-2.15-1.81-3.74-3.64-4.88-5.16-1.11-1.53-2.38-3.55-3.49-6.07-1.16-2.64-1.81-5.05-2.18-6.98-.26-2.59-.32-5.92.33-9.71.33-1.9.78-3.61,1.27-5.1,8.55-1.63,17.11-3.26,25.66-4.88.15.12.56.5.69,1.13.21,1.01-.5,1.77-.57,1.85-.97,1.03-2.04,2.31-3.09,3.85-1.09,1.59-1.9,3.11-2.52,4.43-.32.8-.89,2.51-.64,4.7.26,2.29,1.28,3.88,1.79,4.58,2.13,2.75,4.27,5.5,6.4,8.25l31.73-10.98Z" fill="#cc7904"/><path d="M57.9,29.3c-.25-.1-.83-.32-1.5-.16-.91.21-1.37.91-1.46,1.05-1.38,2.93-2.75,5.85-4.13,8.78.03.13.1.35.25.58.18.26.39.4.52.48,4.93,2.29,9.87,4.58,14.8,6.88.06.03.55.29,1.08.07.36-.15.55-.46.62-.59.41-.72,2.05-4.69,4.18-10.16-.07-.11-.18-.29-.37-.48-.34-.33-.69-.48-.78-.52-4.44-1.9-8.72-4.17-13.22-5.91Z" fill="#f8f9ea"/><path d="M28.36,11.01c.14-.14.68-.64,1.53-.71.72-.06,1.26.23,1.45.34,3.81,3.39,7.62,6.77,11.44,10.16-.04.17-.1.39-.2.62-.14.32-.32.56-.47.72-2.24,2.52-4.49,5.04-6.73,7.55-.15.08-.43.19-.8.2-.42.01-.75-.12-.9-.2-3.96-3.41-7.93-6.82-11.89-10.22-.12-.12-.27-.27-.4-.45-.11-.15-.2-.3-.26-.43,2.42-2.53,4.83-5.06,7.25-7.58Z" fill="#f8f9ea"/><path d="M49.19,45.92c-.11-.05-.51-.24-1.01-.12-.54.13-.83.51-.89.61-.55,2.02-1.65,4.99-3.94,7.99-1.24,1.62-2.53,2.86-3.66,3.78-.77.47-2.87,1.61-5.76,1.48-2.77-.13-4.7-1.35-5.44-1.88-.89-.67-2.54-2.09-3.66-4.49-.88-1.87-1.07-3.57-1.11-4.61.11-2.03.55-3.64.95-4.75.76-2.12,1.77-3.55,2.79-5,1.08-1.54,2.16-2.76,3.05-3.68-4.27-3.72-8.55-7.44-12.82-11.16-.09-.07-.45-.33-.95-.3-.38.02-.65.19-.75.27-2.16,2.02-4.69,4.75-7.07,8.3-1.77,2.64-3.08,5.15-4.04,7.34-.61,1.68-1.3,4.1-1.48,7.08-.18,3.02.21,5.53.63,7.28.39,1.86,1.12,4.42,2.61,7.2,1.45,2.72,3.12,4.72,4.43,6.07,1.43,1.44,3.24,3.06,5.48,4.65,2.24,1.59,4.37,2.77,6.21,3.64,1.82.73,4.12,1.47,6.82,1.98,2.68.51,5.06.65,7.02.65,1.86-.05,4.28-.29,7.02-1.05,2.5-.7,4.54-1.63,6.09-2.47,1.47-.84,3.27-2.04,5.12-3.72,1.84-1.67,3.21-3.35,4.19-4.73,1.23-1.83,2.51-3.93,3.74-6.31,1.12-2.16,2.03-4.21,2.77-6.11-.08-.1-.22-.25-.4-.4-.26-.22-.52-.36-.73-.44-5.06-2.36-10.11-4.72-15.17-7.08Z" fill="#f8f9ea"/></g></svg>