<?xml version="1.0" encoding="UTF-8"?><svg id="Layer_2" xmlns="http://www.w3.org/2000/svg" xmlns:xlink="http://www.w3.org/1999/xlink" viewBox="0 0 161.8 170.01"><defs><linearGradient id="linear-gradient" x1="80.9" y1="1.9" x2="80.9" y2="154.58" gradientUnits="userSpaceOnUse"><stop offset="0" stop-color="#f8d78c"/><stop offset=".28" stop-color="#f7d588"/><stop offset=".56" stop-color="#f7d07c"/><stop offset=".84" stop-color="#f5c868"/><stop offset="1" stop-color="#f5c259"/></linearGradient></defs><g id="Layer_1-2"><circle cx="80.9" cy="81.33" r="80.9" fill="#cc7904"/><ellipse cx="80.9" cy="78.12" rx="80.9" ry="78.12" fill="#dce8dd"/><ellipse cx="80.9" cy="78.24" rx="79.06" ry="76.34" fill="url(#linear-gradient)"/><ellipse cx="80.9" cy="78.27" rx="72.61" ry="70.11" fill="#e89a25"/><ellipse cx="80.9" cy="78.27" rx="60.5" ry="58.42" fill="#f8f9ea"/><ellipse cx="80.9" cy="77.89" rx="58.11" ry="56.12" fill="#fad797"/><ellipse cx="80.9" cy="78.22" rx="72.66" ry="70.16" fill="none" stroke="#ca8e25" stroke-miterlimit="10" stroke-width="2"/><ellipse cx="130.43" cy="139.72" rx="31.37" ry="30.29" fill="#89212a"/><path d="M159.26,139.86c0,15.37-12.91,27.82-28.82,27.82s-28.82-12.46-28.82-27.82c0-.86.04-1.72.12-2.56,1.33-14.18,13.67-25.28,28.7-25.28s27.36,11.1,28.7,25.28c.08.84.12,1.69.12,2.56Z" fill="#b5252a"/><path d="M159.13,137.31c-1.34,14.17-13.68,25.26-28.7,25.26s-27.36-11.09-28.7-25.26c1.33-14.18,13.67-25.28,28.7-25.28s27.36,11.1,28.7,25.28Z" fill="#cf3642"/><ellipse cx="125.25" cy="127.11" rx="16.45" ry="10.13" transform="translate(-43.29 68.46) rotate(-26.23)" fill="#e05e63"/></g></svg>