<?xml version="1.0" encoding="UTF-8"?><svg id="Layer_2" xmlns="http://www.w3.org/2000/svg" xmlns:xlink="http://www.w3.org/1999/xlink" viewBox="0 0 281.55 104.81"><defs><linearGradient id="linear-gradient" x1="140.17" y1="0" x2="140.17" y2="97.9" gradientUnits="userSpaceOnUse"><stop offset="0" stop-color="#0041e5"/><stop offset=".28" stop-color="#003fe1"/><stop offset=".56" stop-color="#003bd5"/><stop offset=".84" stop-color="#0033c1"/><stop offset="1" stop-color="#002eb2"/></linearGradient><linearGradient id="linear-gradient-2" x1="141.02" y1="8.71" x2="141.02" y2="82.59" gradientUnits="userSpaceOnUse"><stop offset="0" stop-color="#f0f9de"/><stop offset="1" stop-color="#9acb9a"/></linearGradient><linearGradient id="linear-gradient-3" x1="141.02" y1="8.71" x2="141.02" y2="84.27" gradientUnits="userSpaceOnUse"><stop offset="0" stop-color="#0041e5"/><stop offset=".25" stop-color="#003fe1"/><stop offset=".49" stop-color="#0039d5"/><stop offset=".74" stop-color="#0030c1"/><stop offset=".98" stop-color="#0024a5"/><stop offset="1" stop-color="#0023a3"/></linearGradient><linearGradient id="linear-gradient-4" x1="140.17" y1="0" x2="140.17" y2="97.9" gradientUnits="userSpaceOnUse"><stop offset="0" stop-color="#f8d78c"/><stop offset=".28" stop-color="#f7d588"/><stop offset=".56" stop-color="#f7d07c"/><stop offset=".84" stop-color="#f5c868"/><stop offset="1" stop-color="#f5c259"/></linearGradient></defs><g id="Layer_1-2"><rect x="0" y="0" width="281.55" height="104.81" rx="52.4" ry="52.4" fill="#00327c"/><rect x=".64" y="0" width="279.06" height="97.9" rx="48.95" ry="48.95" fill="url(#linear-gradient)"/><path d="M273.14,46.07c0,11.81-4.48,22.49-11.73,30.23-7.25,7.74-17.26,12.52-28.32,12.52H48.95c-22.12,0-40.06-19.14-40.06-42.75,0-1.12.04-2.23.12-3.33,1.59,22.06,18.86,39.43,39.94,39.43h184.13c11.06,0,21.08-4.79,28.32-12.52,6.56-7,10.86-16.42,11.61-26.9.08,1.1.12,2.21.12,3.33Z" fill="#00327c"/><path d="M273.02,45.65c-.76,9.82-5.05,18.64-11.61,25.21-7.25,7.25-17.26,11.73-28.32,11.73H48.95c-21.07,0-38.35-16.27-39.94-36.94.76-9.82,5.05-18.64,11.61-25.21,7.25-7.25,17.26-11.73,28.32-11.73h184.13c21.07,0,38.35,16.27,39.94,36.94Z" fill="url(#linear-gradient-2)"/><path d="M273.02,46.49c-.76,10.04-5.05,19.07-11.61,25.78-7.25,7.41-17.26,12-28.32,12H48.95c-21.07,0-38.35-16.64-39.94-37.78.76-10.04,5.05-19.07,11.61-25.78,7.25-7.41,17.26-12,28.32-12h184.13c21.07,0,38.35,16.64,39.94,37.78Z" fill="url(#linear-gradient-3)"/><rect x="8.32" y="9.08" width="264.02" height="79.74" rx="39.87" ry="39.87" fill="none" stroke="#002c72" stroke-miterlimit="10" stroke-width="2"/><rect x="0" y="0" width="281.55" height="104.81" rx="52.4" ry="52.4" fill="#cc7904"/><rect x=".64" y="0" width="279.06" height="97.9" rx="48.95" ry="48.95" fill="url(#linear-gradient-4)"/><path d="M273.14,48.76c0,11.06-4.48,21.07-11.73,28.32-7.25,7.25-17.26,11.73-28.32,11.73H48.95c-22.12,0-40.06-17.93-40.06-40.06,0-1.05.04-2.09.12-3.12,1.59,20.67,18.86,36.94,39.94,36.94h184.13c11.06,0,21.08-4.48,28.32-11.73,6.56-6.56,10.86-15.39,11.61-25.21.08,1.03.12,2.07.12,3.12Z" fill="#e89a25"/><path d="M273.02,45.65c-.76,9.82-5.05,18.64-11.61,25.21-7.25,7.25-17.26,11.73-28.32,11.73H48.95c-21.07,0-38.35-16.27-39.94-36.94.76-9.82,5.05-18.64,11.61-25.21,7.25-7.25,17.26-11.73,28.32-11.73h184.13c21.07,0,38.35,16.27,39.94,36.94Z" fill="url(#linear-gradient-2)"/><path d="M273.02,45.65c-.76,9.82-5.05,18.64-11.61,25.21-7.25,7.25-17.26,11.73-28.32,11.73H48.95c-21.07,0-38.35-16.27-39.94-36.94.76-9.82,5.05-18.64,11.61-25.21,7.25-7.25,17.26-11.73,28.32-11.73h184.13c21.07,0,38.35,16.27,39.94,36.94Z" fill="#fad797"/><rect x="8.32" y="9.08" width="264.02" height="79.74" rx="39.87" ry="39.87" fill="none" stroke="#ca8e25" stroke-miterlimit="10" stroke-width="2"/></g></svg>