<?xml version="1.0" encoding="UTF-8"?><svg id="Layer_2" xmlns="http://www.w3.org/2000/svg" xmlns:xlink="http://www.w3.org/1999/xlink" viewBox="0 0 164.27 173.31"><defs><linearGradient id="linear-gradient" x1="82.14" y1="1.93" x2="82.14" y2="156.95" gradientUnits="userSpaceOnUse"><stop offset="0" stop-color="#f8d78c"/><stop offset=".28" stop-color="#f7d588"/><stop offset=".56" stop-color="#f7d07c"/><stop offset=".84" stop-color="#f5c868"/><stop offset="1" stop-color="#f5c259"/></linearGradient><linearGradient id="linear-gradient-2" x1="81.98" y1="33.01" x2="81.98" y2="97.17" xlink:href="#linear-gradient"/><linearGradient id="linear-gradient-3" x1="82.05" y1="119.02" x2="82.05" y2="169.73" xlink:href="#linear-gradient"/></defs><g id="Layer_1-2"><circle cx="82.14" cy="82.57" r="82.14" fill="#cc7904"/><ellipse cx="82.14" cy="79.31" rx="82.14" ry="79.31" fill="#dce8dd"/><ellipse cx="82.14" cy="79.44" rx="80.27" ry="77.51" fill="url(#linear-gradient)"/><ellipse cx="82.14" cy="79.47" rx="73.72" ry="71.18" fill="#e89a25"/><ellipse cx="82.14" cy="79.47" rx="61.43" ry="59.32" fill="#f8f9ea"/><ellipse cx="82.14" cy="79.09" rx="59" ry="56.97" fill="#fad797"/><ellipse cx="82.14" cy="79.42" rx="73.77" ry="71.23" fill="none" stroke="#ca8e25" stroke-miterlimit="10" stroke-width="2"/><path d="M103.08,56.47c.14-1.14.21-2.31.21-3.49,0-13.53-9.51-24.5-21.25-24.5s-21.24,10.97-21.24,24.5c0,1.19.07,2.35.21,3.5-4.1.94-7.15,4.61-7.15,8.99v27.18c0,5.09,4.13,9.22,9.23,9.22h37.91c5.1,0,9.23-4.13,9.23-9.22v-27.18c0-4.38-3.06-8.05-7.15-8.99ZM92.49,56.23h-20.89c-.42-1.36-.66-2.83-.66-4.36,0-7.07,4.97-12.8,11.1-12.8s11.1,5.73,11.1,12.8c0,1.53-.24,3-.66,4.36Z" fill="#ca8e25"/><path d="M100.58,58.34c.08-.56.16-1.13.21-1.71.08-.84.11-1.69.11-2.54,0-2.25-.26-4.43-.75-6.48-1.24-3.69-3.66-7.19-7.12-9.92-7.22-5.69-16.66-6.15-22.77-1.6-2.42,2.38-4.35,5.47-5.57,9.02-.95,2.76-1.48,5.8-1.48,8.98,0,1.45.11,2.87.32,4.24-4.22.14-7.6,3.61-7.6,7.86v25.9c0,1.22.28,2.38.78,3.41,0,0,0,0,0,0,.74,1,1.92,1.66,3.27,1.66h44c1.35,0,2.54-.66,3.28-1.66,0,0,0,0,0-.01.49-1.03.77-2.18.77-3.4v-25.9c0-4.21-3.3-7.64-7.45-7.86ZM82.05,36.3c7.35,0,13.31,6.79,13.31,15.17,0,2.47-.52,4.81-1.44,6.87h-23.72c-.92-2.06-1.44-4.4-1.44-6.87,0-8.38,5.95-15.17,13.3-15.17Z" fill="url(#linear-gradient-2)"/><path d="M107.26,95.5c-1.27,2.63-3.97,4.45-7.09,4.45h-36.37c-3.12,0-5.82-1.82-7.09-4.45.74,1,1.92,1.66,3.27,1.66h44c1.35,0,2.54-.66,3.28-1.66Z" fill="#e89a25"/><path d="M100.15,47.61c-1.24-3.69-3.66-7.19-7.12-9.92-7.22-5.69-16.66-6.15-22.77-1.6,3.23-3.18,7.33-5.08,11.8-5.08,8.57,0,15.81,7.01,18.1,16.6Z" fill="#f8f9ea"/><path d="M88.59,73.03c0,2-.9,3.8-2.32,5.01v8.66c0,.73-.59,1.32-1.32,1.32h-5.8c-.73,0-1.32-.59-1.32-1.32v-8.66c-1.42-1.21-2.32-3-2.32-5.01,0-.08,0-.16,0-.23.08,2.25,1.46,4.19,3.47,5.18v7.9c0,.41.34.75.75.75h4.65c.42,0,.75-.34.75-.75v-7.92c2.04-1.03,3.43-3.05,3.43-5.37,0-.11,0-.21,0-.32.03.25.05.5.05.76Z" fill="#fad797"/><path d="M88.56,72.58c0,2.32-1.39,4.34-3.43,5.37v7.92c0,.41-.34.75-.75.75h-4.65c-.41,0-.75-.34-.75-.75v-7.9c-2-.99-3.38-2.93-3.47-5.18.11-3.28,2.64-5.94,5.85-6.28.22-.02.44-.03.67-.03s.45.01.67.03c.07,0,.14.01.21.03.05,0,.09,0,.14.02,2.89.44,5.16,2.77,5.5,5.69v.02c0,.11,0,.21,0,.32Z" fill="#cc7904"/><rect x="79.97" y="75.85" width="4.15" height="9.77" rx="1.48" ry="1.48" fill="#e89a25"/><circle cx="82.05" cy="73.22" r="5.19" fill="#e89a25"/><rect x="9.45" y="119.02" width="145.83" height="54.29" rx="19.37" ry="19.37" fill="#cc7904"/><rect x="9.78" y="119.02" width="144.54" height="50.71" rx="18.09" ry="18.09" fill="url(#linear-gradient-3)"/><path d="M150.92,144.28c.02,1.03.11,4.78-.41,7.62-.27,1.5-.97,5.32-4.06,8.55-3.02,3.15-6.64,4-8.38,4.41-3.36.79-6.21.49-7.9.18H26.2c-5.63-1.15-8.14-3.97-9-5.09-3.36-4.36-3.24-10.7-3.14-15.66.01-.68.04-1.24.06-1.61.04,1.26.39,8.64,6.59,14.17,5.86,5.22,12.72,5.03,14.09,4.97h95.37c5.73,0,10.92-2.32,14.67-6.08,3.4-3.4,5.62-7.97,6.01-13.06.02.39.05.94.06,1.61Z" fill="#e89a25"/><path d="M150.86,142.66c-.39,5.09-2.62,9.66-6.01,13.06-3.75,3.75-8.94,6.08-14.67,6.08H34.8c-10.91,0-19.86-8.43-20.69-19.13-.31-1.43-.64-3.86-.06-6.75.27-1.35,1.09-5.13,4.37-8.21,2.87-2.69,6.05-3.37,8.44-3.89,3.3-.71,6.12-.53,7.93-.28h95.37c.54-.13,9.38-2.07,15.91,4.41,6.01,5.96,4.9,13.93,4.77,14.73Z" fill="#fad797"/><rect x="13.76" y="123.72" width="136.75" height="41.3" rx="14.74" ry="14.74" fill="none" stroke="#ca8e25" stroke-miterlimit="10" stroke-width="2"/></g></svg>