<?xml version="1.0" encoding="UTF-8"?><svg id="Layer_2" xmlns="http://www.w3.org/2000/svg" viewBox="0 0 173.51 182.31"><g id="Layer_1-2"><path d="M86.75,0C38.92,0,0,39.31,0,87.63c0,16.07,4.31,31.14,11.81,44.1,1.02,1.77,2.11,3.49,3.25,5.18.59-1.87,1.47-3.61,2.6-5.17-.96-1.51-1.86-3.05-2.71-4.63-6.34-11.73-9.95-25.19-9.95-39.48C5,42.07,41.67,5,86.75,5s81.76,37.07,81.76,82.63c0,14.62-3.77,28.36-10.39,40.28-.88,1.6-1.82,3.16-2.8,4.68,1.07,1.66,1.86,3.51,2.33,5.48,1.21-1.72,2.36-3.49,3.44-5.31,7.88-13.19,12.42-28.63,12.42-45.13C173.51,39.31,134.59,0,86.75,0Z" fill="#1f5999"/><path d="M161.09,132.76c-.79-1.74-1.78-3.37-2.97-4.85-4.26-5.37-10.85-8.82-18.23-8.82H32.51c-7,0-13.3,3.11-17.56,8.02-1.23,1.4-2.28,2.95-3.14,4.62-1.65,3.19-2.58,6.81-2.58,10.64v16.66c0,12.84,10.45,23.28,23.28,23.28h107.38c12.84,0,23.28-10.44,23.28-23.28v-16.66c0-3.42-.74-6.68-2.08-9.61ZM158.17,159.03c0,10.08-8.2,18.28-18.28,18.28H32.51c-10.08,0-18.28-8.2-18.28-18.28v-16.66c0-1.9.29-3.74.83-5.46.59-1.87,1.47-3.61,2.6-5.17,3.31-4.63,8.73-7.65,14.85-7.65h107.38c6.49,0,12.19,3.39,15.43,8.5,1.07,1.66,1.86,3.51,2.33,5.48.34,1.38.52,2.82.52,4.3v16.66Z" fill="#1f5999"/></g></svg>