<?xml version="1.0" encoding="UTF-8"?><svg id="Layer_2" xmlns="http://www.w3.org/2000/svg" xmlns:xlink="http://www.w3.org/1999/xlink" viewBox="0 0 141.42 141.43"><defs><linearGradient id="linear-gradient" x1="70.59" y1="12.41" x2="70.59" y2="116.81" gradientUnits="userSpaceOnUse"><stop offset="0" stop-color="#f8d78c"/><stop offset=".28" stop-color="#f7d588"/><stop offset=".56" stop-color="#f7d07c"/><stop offset=".84" stop-color="#f5c868"/><stop offset="1" stop-color="#f5c259"/></linearGradient><linearGradient id="linear-gradient-2" x1="71.33" y1="80.45" x2="71.33" y2="48.35" xlink:href="#linear-gradient"/></defs><g id="Layer_1-2"><path d="M141.42,70.71c0,39.06-31.66,70.72-70.71,70.72S0,109.77,0,70.71c0-1.07.02-2.13.07-3.19,1.65,34.33,32.51,61.7,70.34,61.7s70.42-28.93,70.42-64.61c0-1.33-.04-2.65-.13-3.96.47,3.29.71,6.65.71,10.06Z" fill="#cc7904"/><path d="M140.84,64.61c0,35.68-31.53,64.61-70.42,64.61S1.73,101.86.07,67.52C1.72,30.25,32.23.48,69.8,0c.2,0,.41,0,.62,0,.31,0,.61,0,.91,0,2.1.02,4.17.13,6.22.32.13,0,.26.02.39.04,32.33,3.28,58.22,28.35,62.77,60.28.09,1.31.13,2.63.13,3.96Z" fill="#f8f9ea"/><path d="M138.98,65c0,34.61-30.58,62.67-68.3,62.67S4.05,101.12,2.45,67.82C4.05,31.67,33.63,2.8,70.07,2.34c.2,0,.4,0,.6,0,.3,0,.59,0,.88,0,2.04.02,4.05.13,6.03.31.13,0,.26.02.38.04,31.36,3.18,56.47,27.49,60.88,58.47.09,1.27.13,2.55.13,3.84Z" fill="#fad797"/><path d="M128.74,64.61c0,31.02-26.04,56.16-58.16,56.16S12.43,95.63,12.43,64.61c0-.66.01-1.33.04-1.98,1.08,30.1,26.69,54.18,58.12,54.18s57.04-24.08,58.12-54.18c.02.66.04,1.32.04,1.98Z" fill="#bac6b9"/><path d="M128.71,62.63c-.02.66-.06,1.33-.11,1.98-2.1-29.17-27.27-52.19-58.01-52.19S14.68,35.44,12.58,64.61c-.05-.65-.09-1.32-.11-1.98,1.08-30.1,26.69-54.18,58.12-54.18s57.04,24.08,58.12,54.18Z" fill="#f8f9ea"/><path d="M128.59,64.61c-2.1,29.17-27.27,52.2-58.01,52.2S14.68,93.78,12.58,64.61c2.1-29.17,27.27-52.19,58.01-52.19s55.91,23.03,58.01,52.19Z" fill="url(#linear-gradient)"/><path d="M128.71,66.59c-1.08,30.1-26.69,54.18-58.12,54.18S13.55,96.69,12.47,66.59c.02-.66.06-1.33.11-1.98,2.1,29.17,27.27,52.2,58.01,52.2s55.91-23.03,58.01-52.2c.05.66.09,1.32.11,1.98Z" fill="#e89a25"/><ellipse cx="70.58" cy="65" rx="58.16" ry="56.16" fill="none" stroke="#ca8e25" stroke-miterlimit="10" stroke-width="3"/><path d="M112.25,62.87v10.74l-10.48,2.37c-1.14,2.76-1.72,4.14-2.61,6.31-.25.59-.52,1.25-.83,2l4.45,7.05,1.28,2.03c-4.15,4.15-3.45,3.45-7.6,7.6l-9.09-5.74c-3.52,1.46-4.8,1.98-8.31,3.44l-2.37,10.49h-10.74l-2.37-10.49c-3.51-1.46-4.8-1.98-8.31-3.44l-9.09,5.74c-4.15-4.15-3.45-3.45-7.6-7.6l1.28-2.03,4.45-7.05c-.31-.76-.58-1.41-.83-2-.89-2.17-1.47-3.55-2.61-6.31l-10.48-2.37v-10.74l10.48-2.37c1.46-3.51,1.99-4.8,3.44-8.31l-.83-1.31c.25-.59.52-1.25.83-2l-4.45-7.06c2.77-2.77,2.66-2.66,6.31-6.31l9.09,5.74c3.52-1.46,4.8-1.98,8.31-3.44l2.37-10.48h10.74l2.37,10.48c3.51,1.46,4.8,1.99,8.31,3.44l9.09-5.74c3.66,3.66,3.55,3.55,6.31,6.31l-4.45,7.06c.31.76.58,1.41.83,2l-.83,1.31c1.46,3.52,1.98,4.8,3.44,8.31l10.48,2.37Z" fill="#e5aa5c"/><path d="M112.25,59.55v10.74l-10.48,2.37c-1.46,3.52-1.99,4.8-3.44,8.31l.83,1.31,4.91,7.78c-.49.49-.91.91-1.28,1.28-2.77,2.77-2.66,2.66-6.31,6.32l-9.09-5.74c-3.52,1.46-4.8,1.99-8.31,3.44l-2.37,10.48h-10.74l-2.37-10.48c-3.51-1.46-4.8-1.99-8.31-3.44l-9.09,5.74c-3.66-3.66-3.55-3.55-6.31-6.32-.37-.37-.79-.79-1.28-1.28l4.91-7.78.83-1.31c-1.46-3.52-1.98-4.8-3.44-8.31l-10.48-2.37v-10.74l10.48-2.37c1.14-2.76,1.72-4.14,2.61-6.31.25-.59.52-1.25.83-2l-4.45-7.06-1.28-2.03c4.15-4.15,3.45-3.45,7.6-7.6l9.09,5.74c3.52-1.46,4.8-1.98,8.31-3.44l2.37-10.49h10.74l2.37,10.49c3.51,1.46,4.8,1.98,8.31,3.44l9.09-5.74c4.15,4.15,3.45,3.45,7.6,7.6l-1.28,2.03-4.45,7.06c.31.76.58,1.41.83,2,.89,2.17,1.47,3.55,2.61,6.31l10.48,2.37Z" fill="#e89a25"/><path d="M48.12,48.15c-.18.43-.34.82-.5,1.2l-5.95-9.42c.29-.29.54-.54.76-.77l5.68,8.99Z" fill="#cc7904"/><path d="M48.12,77.11l-.5.78c-1.1-2.66-1.66-4.03-2.94-7.12l-11.78-2.66v-1.98l11.78,2.66c1.46,3.52,1.98,4.8,3.44,8.31Z" fill="#cc7904"/><path d="M100.98,89.29c-2.71,2.72-2.25,2.25-4.96,4.96l-10.2-6.44c-3.51,1.46-4.8,1.98-8.31,3.44l-2.66,11.78h-7.02l-2.66-11.78c-3.52-1.46-4.8-1.98-8.31-3.44l-10.2,6.44c-2.72-2.71-2.25-2.25-4.96-4.96l.76-1.21c1.88,1.88,1.77,1.77,4.2,4.19l10.2-6.44c3.51,1.46,4.8,1.98,8.31,3.44l2.66,11.78h7.02l2.66-11.78c3.52-1.46,4.8-1.98,8.31-3.44l10.2,6.44c2.43-2.42,2.32-2.31,4.2-4.19l.76,1.21Z" fill="#cc7904"/><path d="M109.75,66.14v1.98l-11.78,2.66c-1.28,3.09-1.84,4.45-2.94,7.12l-.5-.78c1.46-3.51,1.98-4.8,3.44-8.31l11.78-2.66Z" fill="#cc7904"/><path d="M100.98,39.92l-5.95,9.42c-.15-.37-.32-.77-.5-1.2l5.68-8.99c.22.23.48.48.76.77Z" fill="#cc7904"/><path d="M97.97,68.8c-1.46,3.52-1.98,4.8-3.44,8.31l.5.78c-.15.37-.32.77-.5,1.2l5.68,8.99c-1.88,1.88-1.77,1.77-4.2,4.19l-10.2-6.44c-3.51,1.46-4.8,1.98-8.31,3.44l-2.66,11.78h-7.02l-2.66-11.78c-3.52-1.46-4.8-1.98-8.31-3.44l-10.2,6.44c-2.43-2.42-2.32-2.31-4.2-4.19l5.68-8.99c-.18-.43-.34-.82-.5-1.2l.5-.78c-1.46-3.51-1.98-4.8-3.44-8.31l-11.78-2.66v-5.04l11.78-2.66c1.46-3.52,1.98-4.8,3.44-8.31l-.5-.78c.15-.37.32-.77.5-1.2l-5.68-8.99c1.88-1.88,1.77-1.77,4.2-4.19l10.2,6.44c3.51-1.46,4.8-1.98,8.31-3.44l2.66-11.78h7.02l2.66,11.78c3.52,1.46,4.8,1.98,8.31,3.44l10.2-6.44c2.43,2.42,2.32,2.31,4.2,4.19l-5.68,8.99c.18.43.34.82.5,1.2l-.5.78c1.46,3.51,1.98,4.8,3.44,8.31l11.78,2.66v5.04l-11.78,2.66Z" fill="#fad797"/><path d="M89.94,64.24c0,10.28-8.33,18.62-18.61,18.62s-18.61-8.34-18.61-18.62c0-.28,0-.57.02-.85.44,9.88,8.6,17.77,18.6,17.77s18.15-7.88,18.6-17.77c.01.28.02.57.02.85Z" fill="#f7fff4"/><path d="M89.92,63.39c-.44,9.88-8.6,17.77-18.6,17.77s-18.15-7.88-18.6-17.77c.44-9.88,8.6-17.77,18.6-17.77s18.15,7.88,18.6,17.77Z" fill="#cc7904"/><circle cx="71.33" cy="64.4" r="16.05" fill="url(#linear-gradient-2)"/><circle cx="71.33" cy="64.4" r="16.05" fill="none" stroke="#ca8e25" stroke-miterlimit="10" stroke-width="2"/><ellipse cx="48.12" cy="23" rx="10.09" ry="5.07" transform="translate(-5.2 21.56) rotate(-24)" fill="#f8f9ea"/></g></svg>