<?xml version="1.0" encoding="UTF-8"?><svg id="Layer_2" xmlns="http://www.w3.org/2000/svg" xmlns:xlink="http://www.w3.org/1999/xlink" viewBox="0 0 222.29 195.47"><defs><linearGradient id="linear-gradient" x1="111.02" y1="3.63" x2="111.02" y2="186.56" gradientUnits="userSpaceOnUse"><stop offset="0" stop-color="#ffea91"/><stop offset=".34" stop-color="#fee68e"/><stop offset=".62" stop-color="#fddc85"/><stop offset=".87" stop-color="#fbcc75"/><stop offset="1" stop-color="#fac06b"/></linearGradient><linearGradient id="linear-gradient-2" x1="111.02" y1="16.44" x2="111.02" y2="179.03" gradientUnits="userSpaceOnUse"><stop offset="0" stop-color="#aeff94"/><stop offset=".33" stop-color="#aafe91"/><stop offset=".6" stop-color="#a0fd89"/><stop offset=".84" stop-color="#90fb7b"/><stop offset="1" stop-color="#80fa6e"/></linearGradient><linearGradient id="linear-gradient-3" x1="111.02" y1="27.05" x2="111.02" y2="168.42" gradientUnits="userSpaceOnUse"><stop offset="0" stop-color="#5ef75e"/><stop offset=".35" stop-color="#5cf75a"/><stop offset=".63" stop-color="#55f850"/><stop offset=".88" stop-color="#4bf940"/><stop offset="1" stop-color="#45fb35"/></linearGradient></defs><g id="Layer_1-2"><path d="M19.2,28.38c2.46-4.91,6.89-8.82,12.4-10.98C48.6,10.74,75.72,2.68,109.85,2.5c35.3-.18,63.3,8.15,80.57,14.93,5.47,2.15,9.87,6,12.35,10.85,7.43,14.52,16.4,37.57,17,66.63.66,32.03-9.13,57.37-16.91,72.65-2.52,4.95-7.03,8.86-12.63,10.99-17.32,6.57-44.78,14.42-79.23,14.42-34.4,0-61.83-7.82-79.16-14.38-5.67-2.15-10.21-6.13-12.71-11.15C11.33,151.83,1.63,126.08,2.56,93.66c.81-28.24,9.37-50.76,16.64-65.27Z" fill="#bb8339" stroke="#cf8216" stroke-miterlimit="10" stroke-width="5"/><path d="M20.19,28.49c2.43-4.71,6.8-8.47,12.25-10.55C49.23,11.54,76.02,3.8,109.74,3.64c34.88-.17,62.54,7.83,79.6,14.34,5.4,2.06,9.75,5.76,12.2,10.42,7.34,13.95,16.2,36.08,16.79,63.99.65,30.76-9.02,55.1-16.7,69.77-2.49,4.75-6.94,8.51-12.48,10.55-17.11,6.31-44.24,13.85-78.27,13.85-33.98,0-61.09-7.51-78.2-13.82-5.6-2.06-10.08-5.89-12.56-10.71-7.69-14.99-17.27-39.72-16.35-70.86.8-27.13,9.25-48.75,16.44-62.69Z" fill="url(#linear-gradient)"/><path d="M32.53,38.53c2.1-4.19,5.88-7.53,10.59-9.37,14.51-5.69,37.65-12.57,66.79-12.72,30.14-.15,54.04,6.96,68.78,12.75,4.67,1.83,8.42,5.12,10.54,9.26,6.34,12.4,14,32.07,14.51,56.88.56,27.34-7.79,48.97-14.43,62.02-2.15,4.22-6,7.57-10.78,9.38-14.78,5.61-38.23,12.31-67.64,12.31-29.37,0-52.78-6.68-67.58-12.28-4.84-1.83-8.71-5.23-10.85-9.52-6.64-13.32-14.92-35.3-14.13-62.98.69-24.11,8-43.33,14.21-55.72Z" fill="url(#linear-gradient-2)" stroke="#40ce17" stroke-miterlimit="10" stroke-width="5"/><path d="M42.78,46.26c1.83-3.64,5.11-6.54,9.21-8.15,12.62-4.95,32.74-10.93,58.07-11.06,26.2-.13,46.99,6.05,59.8,11.08,4.06,1.59,7.32,4.45,9.16,8.05,5.51,10.78,12.17,27.88,12.62,49.46.49,23.77-6.78,42.58-12.55,53.92-1.87,3.67-5.22,6.58-9.38,8.16-12.85,4.88-33.24,10.7-58.81,10.7-25.53,0-45.9-5.81-58.76-10.68-4.21-1.59-7.58-4.55-9.44-8.27-5.78-11.58-12.97-30.7-12.28-54.76.6-20.96,6.95-37.68,12.35-48.45Z" fill="url(#linear-gradient-3)"/><path d="M128.08,89.77s0-.02,0-.02c0-.12-.02-.24-.02-.38-.12-2.28-.44-4.56-.94-6.8-.18-.8-.42-1.6-.68-2.36-.44-1.34-1.02-2.62-1.7-3.84-1.08-1.9-2.58-3.48-4.52-4.72-1.58-2.4-3.64-4.14-6.16-5.24-2.52-1.1-5.54-1.66-9.06-1.66-1.36,0-2.88.12-4.56.34-1.66.22-3.28.74-4.84,1.54-1.56.78-2.84,1.98-3.82,3.56-1,1.6-1.5,3.74-1.5,6.46,0,4.94,1.74,8.18,5.2,9.7.96,2,2.42,3.44,4.42,4.34.06,0,.1.02.12.04.02.04.08.06.12.06.18,1.74.26,3.5.22,5.26-.02,1.76-.04,3.52-.04,5.28v6.56c0,.78-.02,1.6-.04,2.46-.04.84-.04,1.72-.04,2.64.06,1.8.26,3.66.6,5.52.34,1.88.92,3.6,1.78,5.2.84,1.58,2.18,2.82,4,3.74.84,1.46,2.04,2.74,3.62,3.82,1.54,1.08,3.54,1.62,5.98,1.62s4.34-.48,5.88-1.44c1.52-.98,2.7-2.26,3.52-3.88s1.42-3.38,1.76-5.32c.24-1.36.4-2.74.5-4.12.04-.56.06-1.1.08-1.66.08-3.06.14-6.14.18-9.22.06-3.76.08-7.56.08-11.36,0-1.92-.06-3.96-.14-6.12ZM119.62,101.89c0,3.42-.04,6.84-.16,10.24-.06,3.36-.44,5.92-1.14,7.7-.72,1.78-1.66,3-2.82,3.62-1.16.62-2.4.94-3.7.94-2.32,0-4-.7-5.02-2.1-1.02-1.38-1.66-3.32-1.9-5.78-.26-2.46-.36-5.34-.3-8.62v-6.56c0-2.32-.02-4.6-.04-6.84-.04-2.24-.14-4.1-.3-5.58-.24-2.16-.78-3.58-1.62-4.3-.86-.7-2.28-1.26-4.26-1.66-1.36-.28-2.32-.98-2.88-2.08-.58-1.1-.88-2.34-.94-3.7-.06-.9,0-1.82.2-2.72.2-.9.54-1.7.98-2.38.68-.96,1.72-1.72,3.12-2.26,1.38-.54,3.44-.8,6.16-.8,4.14,0,7.26.82,9.36,2.46,2.1,1.64,3.52,4.12,4.24,7.44.74,3.32,1.12,7.56,1.12,12.72-.06,3.4-.1,6.82-.1,10.26Z" fill="#236122"/><path d="M119.72,91.63c-.06,3.4-.1,6.82-.1,10.26s-.04,6.84-.16,10.24c-.06,3.36-.44,5.92-1.14,7.7-.72,1.78-1.66,3-2.82,3.62-1.16.62-2.4.94-3.7.94-2.32,0-4-.7-5.02-2.1-1.02-1.38-1.66-3.32-1.9-5.78-.26-2.46-.36-5.34-.3-8.62v-6.56c0-2.32-.02-4.6-.04-6.84-.04-2.24-.14-4.1-.3-5.58-.24-2.16-.78-3.58-1.62-4.3-.86-.7-2.28-1.26-4.26-1.66-1.36-.28-2.32-.98-2.88-2.08-.58-1.1-.88-2.34-.94-3.7-.06-.9,0-1.82.2-2.72.2-.9.54-1.7.98-2.38.68-.96,1.72-1.72,3.12-2.26,1.38-.54,3.44-.8,6.16-.8,4.14,0,7.26.82,9.36,2.46,2.1,1.64,3.52,4.12,4.24,7.44.74,3.32,1.12,7.56,1.12,12.72Z" fill="#fbefbf"/><path d="M155.27,93.71c-.12-1.72-.4-3.46-.82-5.22-.42-1.76-1.08-3.26-2-4.48-.9-1.2-2.12-1.82-3.66-1.82-1.64,0-2.92.56-3.82,1.66-.9,1.1-1.54,2.5-1.92,4.16-.36,1.68-.6,3.34-.68,4.98-.08,1.64-.12,3.04-.12,4.18,0,1.02.06,2.4.16,4.16.12,1.76.38,3.52.82,5.28.42,1.76,1.08,3.24,1.96,4.46.88,1.22,2.08,1.82,3.6,1.82,2.56,0,4.28-1.32,5.2-3.94.9-2.64,1.38-6.32,1.44-11.02,0-1.08-.06-2.48-.16-4.22ZM151.17,97.93c0,.96,0,1.98-.04,3.06-.02,1.08-.12,2.18-.3,3.32-.04-.58-.08-1.1-.08-1.58v-1.32c0-.9.02-1.92.04-3.06.04-1.14.14-2.24.3-3.32.06.58.08,1.1.08,1.58v1.32ZM155.27,93.71c-.12-1.72-.4-3.46-.82-5.22-.42-1.76-1.08-3.26-2-4.48-.9-1.2-2.12-1.82-3.66-1.82-1.64,0-2.92.56-3.82,1.66-.9,1.1-1.54,2.5-1.92,4.16-.36,1.68-.6,3.34-.68,4.98-.08,1.64-.12,3.04-.12,4.18,0,1.02.06,2.4.16,4.16.12,1.76.38,3.52.82,5.28.42,1.76,1.08,3.24,1.96,4.46.88,1.22,2.08,1.82,3.6,1.82,2.56,0,4.28-1.32,5.2-3.94.9-2.64,1.38-6.32,1.44-11.02,0-1.08-.06-2.48-.16-4.22ZM151.17,97.93c0,.96,0,1.98-.04,3.06-.02,1.08-.12,2.18-.3,3.32-.04-.58-.08-1.1-.08-1.58v-1.32c0-.9.02-1.92.04-3.06.04-1.14.14-2.24.3-3.32.06.58.08,1.1.08,1.58v1.32ZM177.84,90.87c-.66-3.4-1.76-6.6-3.32-9.58-1.56-2.98-3.7-5.48-6.42-7.52-1.94-2.62-4.46-4.7-7.58-6.3-3.12-1.58-6.92-2.38-11.4-2.38-4.2,0-7.78.7-10.76,2.08-2.98,1.4-5.46,3.26-7.44,5.58-1.88,2.22-3.4,4.7-4.5,7.46-.08.12-.12.26-.18.4-1.14,2.92-1.94,5.94-2.42,9.06s-.72,6.14-.72,9.02c0,3.24.36,6.46,1.06,9.7.7,3.24,1.82,6.28,3.36,9.14.1.2.22.4.34.6,1.5,2.6,3.44,4.8,5.88,6.6,2.04,2.6,4.6,4.72,7.68,6.34,3.1,1.6,6.86,2.42,11.28,2.42,4.02,0,7.52-.66,10.5-1.96,2.98-1.3,5.46-3.08,7.44-5.32,2-2.24,3.6-4.78,4.82-7.62,1.22-2.82,2.08-5.78,2.58-8.84.52-3.06.78-6.04.78-8.94,0-3.22-.34-6.54-.98-9.94ZM169.04,107.28c-.74,3.28-1.94,6.26-3.58,8.92-1.64,2.68-3.82,4.78-6.56,6.34-2.72,1.56-6.08,2.38-10.12,2.42-3.5.06-6.62-.54-9.3-1.82-2.7-1.28-4.96-3.14-6.78-5.58-2.2-2.84-3.72-6.28-4.58-10.32-.64-3.02-.88-6.38-.76-10.08.02-2.5.26-4.98.7-7.4-.02-.02,0-.02,0-.02.14-.88.32-1.76.52-2.62.76-3.3,1.98-6.28,3.66-8.98,1.68-2.7,3.88-4.84,6.6-6.42,2.72-1.6,6.04-2.38,9.94-2.38,3.52-.06,6.64.54,9.36,1.82,2.72,1.28,5,3.1,6.8,5.48,1.82,2.44,3.18,5.42,4.1,8.9.9,3.48,1.32,7.36,1.26,11.62-.1,3.46-.54,6.82-1.26,10.12ZM154.45,88.49c-.42-1.76-1.08-3.26-2-4.48-.9-1.2-2.12-1.82-3.66-1.82-1.64,0-2.92.56-3.82,1.66-.9,1.1-1.54,2.5-1.92,4.16-.36,1.68-.6,3.34-.68,4.98-.08,1.64-.12,3.04-.12,4.18,0,1.02.06,2.4.16,4.16.12,1.76.38,3.52.82,5.28.42,1.76,1.08,3.24,1.96,4.46.88,1.22,2.08,1.82,3.6,1.82,2.56,0,4.28-1.32,5.2-3.94.9-2.64,1.38-6.32,1.44-11.02,0-1.08-.06-2.48-.16-4.22-.12-1.72-.4-3.46-.82-5.22ZM151.17,97.93c0,.96,0,1.98-.04,3.06-.02,1.08-.12,2.18-.3,3.32-.04-.58-.08-1.1-.08-1.58v-1.32c0-.9.02-1.92.04-3.06.04-1.14.14-2.24.3-3.32.06.58.08,1.1.08,1.58v1.32Z" fill="#236122"/><path d="M169.04,85.55c-.92-3.48-2.28-6.46-4.1-8.9-1.8-2.38-4.08-4.2-6.8-5.48-2.72-1.28-5.84-1.88-9.36-1.82-3.9,0-7.22.78-9.94,2.38-2.72,1.58-4.92,3.72-6.6,6.42-1.68,2.7-2.9,5.68-3.66,8.98-.2.86-.38,1.74-.52,2.62,0,0-.02,0,0,.02.08,2.16.14,4.2.14,6.12,0,3.8-.02,7.6-.08,11.36.86,4.04,2.38,7.48,4.58,10.32,1.82,2.44,4.08,4.3,6.78,5.58,2.68,1.28,5.8,1.88,9.3,1.82,4.04-.04,7.4-.86,10.12-2.42,2.74-1.56,4.92-3.66,6.56-6.34,1.64-2.66,2.84-5.64,3.58-8.92.72-3.3,1.16-6.66,1.26-10.12.06-4.26-.36-8.14-1.26-11.62ZM153.99,108.94c-.92,2.62-2.64,3.94-5.2,3.94-1.52,0-2.72-.6-3.6-1.82-.88-1.22-1.54-2.7-1.96-4.46-.44-1.76-.7-3.52-.82-5.28-.1-1.76-.16-3.14-.16-4.16,0-1.14.04-2.54.12-4.18.08-1.64.32-3.3.68-4.98.38-1.66,1.02-3.06,1.92-4.16.9-1.1,2.18-1.66,3.82-1.66,1.54,0,2.76.62,3.66,1.82.92,1.22,1.58,2.72,2,4.48.42,1.76.7,3.5.82,5.22.1,1.74.16,3.14.16,4.22-.06,4.7-.54,8.38-1.44,11.02Z" fill="#fbefbf"/><path d="M88.77,99.45c-1.04-1.52-2.3-2.68-3.84-3.48-.8-1.48-1.82-2.64-3.1-3.48-1.28-.86-2.68-1.52-4.22-1.96-.38-1.02-.98-2.02-1.74-2.98-.76-.96-1.76-1.74-3.02-2.3-.62-1.3-1.56-2.46-2.84-3.48-1.28-1.02-2.96-1.54-5.06-1.54-3.02,0-5.22,1-6.6,2.98s-2.28,4.26-2.68,6.8c-.22,0-.4.04-.52.1-3.06.34-5.64,1.38-7.74,3.14-2.1,1.76-3.14,4.34-3.14,7.74,0,2.32.52,4.26,1.54,5.78,1.02,1.54,2.28,2.72,3.82,3.58,1.08,2.1,2.78,3.62,5.1,4.6l1.7.76c.4,1.08,1,2.14,1.8,3.18.78,1.06,1.8,1.86,3.06,2.42.62,1.26,1.56,2.4,2.84,3.46,1.28,1.04,2.96,1.56,5.06,1.56s3.64-.46,4.94-1.4c1.3-.94,2.3-2.16,2.98-3.7.68-1.52,1.16-3.14,1.44-4.84.12-.06.28-.08.52-.08,2.1-.34,4-.92,5.7-1.72,1.7-.78,3.04-1.94,4.04-3.44.98-1.5,1.48-3.46,1.48-5.9s-.5-4.26-1.52-5.8ZM79.91,105.74c-1.24,1.08-2.94,1.74-5.1,1.96-.74.12-1.48.2-2.22.26-.72.06-1.46.1-2.2.16l-.26,2.72c-.22,2.16-.74,3.86-1.52,5.12-.8,1.24-2.02,1.86-3.66,1.86s-2.88-.62-3.66-1.86c-.8-1.26-1.32-2.96-1.54-5.12l-.26-2.72c-1.64-.1-3.3-.3-4.96-.6-1.68-.28-3.1-.92-4.26-1.9-1.16-1-1.74-2.54-1.74-4.64s.58-3.62,1.74-4.6c1.16-.96,2.58-1.58,4.26-1.86,1.66-.28,3.32-.48,4.96-.6l.26-2.46c.22-2.16.74-3.86,1.54-5.12.78-1.24,2-1.86,3.66-1.86s2.86.62,3.66,1.86c.78,1.26,1.3,2.96,1.52,5.12l.26,2.46c.68.06,1.4.12,2.16.22.78.08,1.52.14,2.26.2,2.16.28,3.86.94,5.1,1.96,1.26,1.02,1.88,2.58,1.88,4.68s-.62,3.68-1.88,4.76Z" fill="#236122"/><path d="M81.79,100.99c0,2.1-.62,3.68-1.88,4.76-1.24,1.08-2.94,1.74-5.1,1.96-.74.12-1.48.2-2.22.26-.72.06-1.46.1-2.2.16l-.26,2.72c-.22,2.16-.74,3.86-1.52,5.12-.8,1.24-2.02,1.86-3.66,1.86s-2.88-.62-3.66-1.86c-.8-1.26-1.32-2.96-1.54-5.12l-.26-2.72c-1.64-.1-3.3-.3-4.96-.6-1.68-.28-3.1-.92-4.26-1.9-1.16-1-1.74-2.54-1.74-4.64s.58-3.62,1.74-4.6c1.16-.96,2.58-1.58,4.26-1.86,1.66-.28,3.32-.48,4.96-.6l.26-2.46c.22-2.16.74-3.86,1.54-5.12.78-1.24,2-1.86,3.66-1.86s2.86.62,3.66,1.86c.78,1.26,1.3,2.96,1.52,5.12l.26,2.46c.68.06,1.4.12,2.16.22.78.08,1.52.14,2.26.2,2.16.28,3.86.94,5.1,1.96,1.26,1.02,1.88,2.58,1.88,4.68Z" fill="#fbefbf"/></g></svg>