<?xml version="1.0" encoding="UTF-8"?><svg id="Layer_2" xmlns="http://www.w3.org/2000/svg" xmlns:xlink="http://www.w3.org/1999/xlink" viewBox="0 0 570.01 173.68"><defs><linearGradient id="linear-gradient" x1="285.5" y1=".38" x2="285.5" y2="161.08" gradientUnits="userSpaceOnUse"><stop offset="0" stop-color="#aeff94"/><stop offset=".32" stop-color="#aafe91"/><stop offset=".57" stop-color="#a0fd88"/><stop offset=".8" stop-color="#90fb7a"/><stop offset="1" stop-color="#7bf969"/></linearGradient><linearGradient id="linear-gradient-2" x1="285.5" y1="14.29" x2="285.5" y2="147.16" gradientUnits="userSpaceOnUse"><stop offset="0" stop-color="#5ef75e"/><stop offset=".31" stop-color="#5cf75a"/><stop offset=".56" stop-color="#55f850"/><stop offset=".79" stop-color="#4bf940"/><stop offset="1" stop-color="#3dfc29"/></linearGradient></defs><g id="Layer_1-2"><rect x="0" y="0" width="569.03" height="173.68" rx="72.42" ry="72.42" fill="#5aba3a"/><rect x=".98" y=".38" width="569.03" height="160.7" rx="67.01" ry="67.01" fill="url(#linear-gradient)"/><rect x="20.09" y="14.29" width="530.81" height="132.87" rx="53.7" ry="53.7" fill="url(#linear-gradient-2)" stroke="#40ce17" stroke-miterlimit="10" stroke-width="3"/><path d="M415.66,69.39c.26.72.43,1.44.52,2.13-.79,1.16-1.79,2-2.97,2.51-1.18.51-2.33.72-3.44.62-1.08-.08-2-.47-2.79-1.18-.8-.69-1.25-1.62-1.33-2.79-.1-1.39.23-2.57.97-3.56.75-.97,2-1.51,3.77-1.61.93-.03,1.72.11,2.38.49.64.38,1.23.87,1.74,1.46.51.56.88,1.2,1.15,1.92Z" fill="#fff"/><path d="M77.96,71.5c.99,1.34,1.46,2.89,1.41,4.68-.05,1.84-.58,3.39-1.62,4.66s-2.67,1.92-4.88,1.92c-.2,0-.61-.03-1.24-.07-.63-.05-1.21-.15-1.74-.29-.53-.15-.8-.37-.8-.66l-.07-10.48c0-.2.1-.37.29-.51,1.6-.82,3.06-1.24,4.43-1.24,1.82,0,3.23.68,4.22,1.99Z" fill="#fff"/><circle cx="347.96" cy="82.93" r="32.29" fill="#fce37d" isolation="isolate" opacity=".99" stroke="#fce37d"/><path d="M351.54,51.74l.8.16-.8.16v-.32Z" fill="#dc9e3c" isolation="isolate" opacity=".98" stroke="#dc9e3c"/><path d="M346.13,58.74l3.98.16-3.98.16v-.32Z" fill="#dc9e3c" isolation="isolate" opacity=".98" stroke="#dc9e3c"/><path d="M351.86,59.06l.8.16-.8.16v-.32Z" fill="#dc9e3c" isolation="isolate" opacity=".98" stroke="#dc9e3c"/><path d="M326.71,60.01l-1.59,1.91,1.59-1.91Z" fill="#dc9e3c" isolation="isolate" opacity=".98" stroke="#dc9e3c"/><path d="M345.17,60.97l1.75.16-1.75.16v-.32Z" fill="#dc9e3c" isolation="isolate" opacity=".98" stroke="#dc9e3c"/><path d="M349.63,60.97l1.75.16-1.75.16v-.32Z" fill="#dc9e3c" isolation="isolate" opacity=".98" stroke="#dc9e3c"/><path d="M343.26,61.28l.8.16-.8.16v-.32Z" fill="#dc9e3c" isolation="isolate" opacity=".98" stroke="#dc9e3c"/><path d="M323.85,63.19l-.32.64.32-.64Z" fill="#dc9e3c" isolation="isolate" opacity=".98" stroke="#dc9e3c"/><path d="M362.68,63.83l.32.64-.32-.64Z" fill="#dc9e3c" isolation="isolate" opacity=".98" stroke="#dc9e3c"/><path d="M333.08,64.15l-.32.64.32-.64Z" fill="#dc9e3c" isolation="isolate" opacity=".98" stroke="#dc9e3c"/><path d="M335.94,64.15l-.32.64.32-.64Z" fill="#dc9e3c" isolation="isolate" opacity=".98" stroke="#dc9e3c"/><path d="M362.04,65.42l.32.64-.32-.64Z" fill="#dc9e3c" isolation="isolate" opacity=".98" stroke="#dc9e3c"/><path d="M333.72,65.74l-.32.64.32-.64Z" fill="#dc9e3c" isolation="isolate" opacity=".98" stroke="#dc9e3c"/><path d="M330.85,66.38l-.64.95.64-.95Z" fill="#dc9e3c" isolation="isolate" opacity=".98" stroke="#dc9e3c"/><path d="M363.32,66.38l2.23,2.55-2.23-2.55Z" fill="#dc9e3c" isolation="isolate" opacity=".98" stroke="#dc9e3c"/><path d="M365.86,67.01l.32.64-.32-.64Z" fill="#dc9e3c" isolation="isolate" opacity=".98" stroke="#dc9e3c"/><path d="M331.81,67.33l-.32.64.32-.64Z" fill="#dc9e3c" isolation="isolate" opacity=".98" stroke="#dc9e3c"/><path d="M330.22,69.24l-.64.95.64-.95Z" fill="#dc9e3c" isolation="isolate" opacity=".98" stroke="#dc9e3c"/><path d="M367.45,69.24l.32.64-.32-.64Z" fill="#dc9e3c" isolation="isolate" opacity=".98" stroke="#dc9e3c"/><path d="M366.5,69.88l.32.64-.32-.64Z" fill="#dc9e3c" isolation="isolate" opacity=".98" stroke="#dc9e3c"/><path d="M329.26,70.51l-.32.64.32-.64Z" fill="#dc9e3c" isolation="isolate" opacity=".98" stroke="#dc9e3c"/><path d="M367.13,70.83l.32.64-.32-.64Z" fill="#dc9e3c" isolation="isolate" opacity=".98" stroke="#dc9e3c"/><path d="M328.62,71.47l-.32.64.32-.64Z" fill="#dc9e3c" isolation="isolate" opacity=".98" stroke="#dc9e3c"/><path d="M368.09,72.42l1.11,2.07h-.32l-.8-2.07Z" fill="#dc9e3c" isolation="isolate" opacity=".98" stroke="#dc9e3c"/><path d="M340.72,72.74l.8.16-.8.16v-.32Z" fill="#dc9e3c" isolation="isolate" opacity=".98" stroke="#dc9e3c"/><path d="M362.68,73.7l.8.16-.8.16v-.32Z" fill="#dc9e3c" isolation="isolate" opacity=".98" stroke="#dc9e3c"/><path d="M366.5,76.24l.16,1.43h-.32l.16-1.43Z" fill="#dc9e3c" isolation="isolate" opacity=".98" stroke="#dc9e3c"/><path d="M330.85,76.88l.16,1.11h-.32l.16-1.11Z" fill="#dc9e3c" isolation="isolate" opacity=".98" stroke="#dc9e3c"/><path d="M370.95,78.79l.16,2.71h-.32l-.32-1.91.48-.8Z" fill="#dc9e3c" isolation="isolate" opacity=".98" stroke="#dc9e3c"/><path d="M325.12,79.11l.48,1.75-.48.8v-2.55Z" fill="#dc9e3c" isolation="isolate" opacity=".98" stroke="#dc9e3c"/><path d="M331.81,79.74l3.82,4.14-3.82-4.14Z" fill="#dc9e3c" isolation="isolate" opacity=".98" stroke="#dc9e3c"/><path d="M365.54,79.74l-1.59,1.91,1.59-1.91Z" fill="#dc9e3c" isolation="isolate" opacity=".98" stroke="#dc9e3c"/><path d="M378.91,81.34l.16,2.07h-.32l.16-2.07Z" fill="#dc9e3c" isolation="isolate" opacity=".98" stroke="#dc9e3c"/><path d="M317.17,81.65l.16.8h-.32l.16-.8Z" fill="#dc9e3c" isolation="isolate" opacity=".98" stroke="#dc9e3c"/><path d="M317.48,85.79l.16.8h-.32l.16-.8Z" fill="#dc9e3c" isolation="isolate" opacity=".98" stroke="#dc9e3c"/><path d="M337.54,87.06l.16.8h-.32l.16-.8Z" fill="#dc9e3c" isolation="isolate" opacity=".98" stroke="#dc9e3c"/><path d="M317.8,87.7l.16.8h-.32l.16-.8Z" fill="#dc9e3c" isolation="isolate" opacity=".98" stroke="#dc9e3c"/><path d="M318.12,88.97l.16.48-.32.64h.64l-.32.95h.64l-.48,1.11-.8-2.71.48-.48Z" fill="#dc9e3c" isolation="isolate" opacity=".98" stroke="#dc9e3c"/><path d="M336.9,90.88l.16.8h-.32l.16-.8Z" fill="#dc9e3c" isolation="isolate" opacity=".98" stroke="#dc9e3c"/><path d="M377.32,91.2l.48.8h-.32l-.16-.8Z" fill="#dc9e3c" isolation="isolate" opacity=".98" stroke="#dc9e3c"/><path d="M377,92.16l.48.8-1.43,3.66-.16-.48.32-.64-.48-.8.8.48.32-1.91-.16-.48.48.16-.16-.8Z" fill="#dc9e3c" isolation="isolate" opacity=".98" stroke="#dc9e3c"/><path d="M318.76,93.11l1.27,1.91.48-.16-.64,1.27.95.16.64,1.43-.64.32.8,1.43.32-.95,2.07,1.43-.95-.32.32.64-.64-.32-.16-.48-.8.16.8,1.43,1.11.32c-.23.57-.07.79.48.64l.8-.48-.48-.8,2.39,2.39c-.47.28-.41.54.16.8.49-.15.65.01.48.48h-.64l.48,1.11,1.11-.8-.48-.8c.89.38,1.05.75.48,1.11-.15.49.01.65.48.48l.64.32v-.64l.64,1.27.48-.16-.16-.48.64,1.27.48-.16-.16-.48.32.95.64-.32.32.95.48.16-.64.32.64.16.32,1.43-.16.48h.48v-1.75l.48-.16c.17.59.7.81,1.59.64l.64-.32v.32l-.48.16,1.59.95-1.11.8-.48-.16-.32.95,2.71.8v-.32l-.48-.16,1.11-.16.32.64-.48.16,1.91.8-.32-.8h.64c-.38-1.29.2-1.67,1.75-1.11l1.27-.32.95.64h6.05l5.73-1.59.8.32c-.23-.57-.07-.79.48-.64l.16.8c.17.55-.1.71-.8.48v.32l.8.48-.16.48h.48v-.64c.57.23.79.07.64-.48l-.16-.48.8.48-.16.48,1.11-.48-1.59-.8c-.25-.64.01-.85.8-.64v-.64l.48.16c-.15-.47.01-.63.48-.48.17-.57.7-.79,1.59-.64l.8.48.48-.8.64.32.64-.32.8.48-.48-1.11-.64.32v-.32l.48-.16-.64-.32.8-1.43v.64l1.59-.95.8.48-.16.48,1.75-.8-.8-.16-.48.16c.17-.47.01-.63-.48-.48-.64-.32-.64-.64,0-.95l.48.95h1.27v-.48l-.48.16c-.55.15-.71-.06-.48-.64h1.27v-.48l-.48-.48-.8.48,3.5-3.18-2.55,2.55.48.48.32-.64c.28.49.54.43.8-.16l.48-.8.48.16-.32.64.95-.64-.32-.64.95-.32-.16-.48.48-.16-.16-.48.48.16.32-.64-.48-.48-1.43.48.8-.8h.64l.64.32.16-.48-.32-.64,1.11-1.43.48.8c-1.85,3.99-4.34,7.33-7.48,10.03-3.35,3.01-7.49,5.24-12.41,6.68l-4.77.95h-6.05l-5.41-.95-6.37-2.55c-3.65-2.06-6.78-4.66-9.39-7.8-2.63-2.95-4.38-6.5-5.25-10.66ZM326.24,102.66c-.42.64-.32.85.32.64l-.32-.64ZM325.92,103.93l-.64.95,1.27-.32-.64-.64ZM328.15,105.21c-.42.64-.74.74-.95.32l-.64.32c.21.42.74.53,1.59.32.64-.21.64-.53,0-.95ZM366.98,106.8l-.64.64c-.21.42,0,.53.64.32s.64-.53,0-.95ZM331.65,107.75v.32h.64l-.64-.32ZM364.43,109.03l-.64.64c-.21.42,0,.53.64.32s.64-.53,0-.95ZM332.6,109.34v.64l.64.32c.21-.85,0-1.17-.64-.95ZM361.57,109.34c0,.85-.32,1.17-.95.95v.95l.95.32-.32-.32h.64c.42.21.53,0,.32-.64h.95l-.32-1.27c-.64-.21-.85.11-.64.95h-.64v-.95ZM333.88,110.62v.64l.95.32v-.32l-.95-.64ZM343.42,113.16l.32.95.32-.64-.64-.32ZM350.74,113.16v.32h1.27l-1.27-.32ZM355.52,113.16l-.64.32v.32l.95-.32-.32-.32ZM341.83,113.48l.32.64h.64l-.95-.64ZM353.29,113.8v.32h.95l-.95-.32ZM350.74,114.12v.32h1.59l-1.59-.32Z" fill="#dc9e3c" isolation="isolate" opacity=".98" stroke="#dc9e3c"/><path d="M360.77,93.43l.16,2.39h-.32l.16-2.39Z" fill="#dc9e3c" isolation="isolate" opacity=".98" stroke="#dc9e3c"/><path d="M336.58,95.02l.16,1.11h-.32l.16-1.11Z" fill="#dc9e3c" isolation="isolate" opacity=".98" stroke="#dc9e3c"/><path d="M375.09,95.98l-.32.64.32-.64Z" fill="#dc9e3c" isolation="isolate" opacity=".98" stroke="#dc9e3c"/><path d="M322.26,97.89l.32.64-.32-.64Z" fill="#dc9e3c" isolation="isolate" opacity=".98" stroke="#dc9e3c"/><path d="M373.82,97.89l-.32.64.32-.64Z" fill="#dc9e3c" isolation="isolate" opacity=".98" stroke="#dc9e3c"/><path d="M336.26,99.8l.32.64-.32-.64Z" fill="#dc9e3c" isolation="isolate" opacity=".98" stroke="#dc9e3c"/><path d="M366.5,105.21l-.32.64.32-.64Z" fill="#dc9e3c" isolation="isolate" opacity=".98" stroke="#dc9e3c"/><path d="M364.59,106.48l-.32.64.32-.64Z" fill="#dc9e3c" isolation="isolate" opacity=".98" stroke="#dc9e3c"/><path d="M338.01,110.3l.95.48-.95.16v-.64Z" fill="#dc9e3c" isolation="isolate" opacity=".98" stroke="#dc9e3c"/><path d="M355.36,110.3l.8.16-.8.16v-.32Z" fill="#dc9e3c" isolation="isolate" opacity=".98" stroke="#dc9e3c"/><path d="M341.67,110.62l.8.16-.8.16v-.32Z" fill="#dc9e3c" isolation="isolate" opacity=".98" stroke="#dc9e3c"/><path d="M354.09,110.62l.8.16-.8.16v-.32Z" fill="#dc9e3c" isolation="isolate" opacity=".98" stroke="#dc9e3c"/><path d="M339.92,110.93l2.23.48-2.23.16v-.64Z" fill="#dc9e3c" isolation="isolate" opacity=".98" stroke="#dc9e3c"/><path d="M343.26,110.93l1.43.16-1.43.16v-.32Z" fill="#dc9e3c" isolation="isolate" opacity=".98" stroke="#dc9e3c"/><path d="M351.86,110.93l1.11.16-1.11.16v-.32Z" fill="#dc9e3c" isolation="isolate" opacity=".98" stroke="#dc9e3c"/><path d="M345.81,111.25l4.93.16-4.93.16v-.32Z" fill="#dc9e3c" isolation="isolate" opacity=".98" stroke="#dc9e3c"/><path d="M336.9,111.57c.49-.15.65.01.48.48l-.48-.48Z" fill="#dc9e3c" isolation="isolate" opacity=".98" stroke="#dc9e3c"/><path d="M347.08,53.65h3.5l5.57.95.32.8-2.71,3.66c-1,.28-1.63.17-1.91-.32h-7.32c-6.32,1.21-11.15,3.91-14.48,8.12l-3.82,6.37c-1.1,2.5-1.63,5.58-1.59,9.23l.64,1.27v4.14l.64,1.27v.64l1.91,4.46,3.82,4.93,4.46,3.34-.32.64.48.48c.32-.74.64-.85.95-.32l6.05,1.91c1-.28,1.63-.17,1.91.32h5.41l.32-.32,3.82-.32.64-.64,2.55-.64,5.57-3.5.48-.95,1.75-1.43,2.86-3.82,2.23-5.73v-3.82c.66-1.15.87-2.74.64-4.77l-1.27-5.73-2.23-4.46-4.93-5.57-3.98-2.71,2.55-3.98h1.43l1.27,1.27,3.02,1.27.48.95,1.11.32.8,1.27,2.71,2.39,1.59,2.23.32,1.43.95.48c-.53.32-.42.64.32.95,1.21,1.87,2.06,4.1,2.55,6.68v.64l.32.95v.64l.32,5.73-1.59,7-1.91,4.14c-1.99,3.42-4.49,6.33-7.48,8.75-2.84,2.36-6.24,4.16-10.18,5.41l-6.05,1.27h-7l-.32-.32-3.5-.32-4.14-1.27-4.61-2.23.32-.8c-1.27.11-2.17-.16-2.71-.8l-5.57-5.25-3.5-6.37-1.27-4.14-.64-7,.32-.32v-3.18l.64-1.59.32-2.86,1.91-3.82v-1.11c.57.23.79.07.64-.48l2.86-4.61,2.23-1.75.48-.8.8-.48.48-.8,4.77-3.18,4.14-1.59.64-.64,8.28-1.59Z" fill="#fbd14e" stroke="#fbd14e"/><path d="M364.59,77.2l.16.48-.64.32.48-.8Z" fill="#fbd14e" stroke="#fbd14e"/><path d="M361.41,80.7l-.64.95.64-.95Z" fill="#fbd14e" stroke="#fbd14e"/><path d="M359.81,82.29l-1.75,2.07-.32.64.64,2.23-.64.16v-2.07l-.32-.32.64-1.43,1.75-1.27Z" fill="#fbd14e" stroke="#fbd14e"/><path d="M339.76,84.52l.16.8-.16.48.48.16-.64.16-.48,2.55-.16-1.43.8-2.71Z" fill="#fbd14e" stroke="#fbd14e"/><path d="M358.22,87.7l.16,1.11h-.32l.16-1.11Z" fill="#fbd14e" stroke="#fbd14e"/><path d="M338.81,88.97l.16,1.75-.64.32.48-2.07Z" fill="#fbd14e" stroke="#fbd14e"/><path d="M358.54,89.29l.16,1.43h-.32l.16-1.43Z" fill="#fbd14e" stroke="#fbd14e"/><path d="M358.86,91.2l.16,1.11h-.32l.16-1.11Z" fill="#fbd14e" stroke="#fbd14e"/><path d="M338.49,91.52l.16.8-.48,2.39-.16-2.07.48-1.11Z" fill="#fbd14e" stroke="#fbd14e"/><path d="M344.86,92.47l-.32.64-.64.32.32-.64.64-.32Z" fill="#fbd14e" stroke="#fbd14e"/><path d="M359.18,93.75l.16,1.11c-.34.64-1.08.8-2.23.48l.16-.64,1.75.32.16-1.27Z" fill="#fbd14e" stroke="#fbd14e"/><path d="M340.08,94.7l.8.16-1.11.48.32-.64Z" fill="#fbd14e" stroke="#fbd14e"/><path d="M363,52.37l3.02,1.75-.48.16-2.23-1.27-.32-.64Z" fill="#9d440a" isolation="isolate" opacity=".04" stroke="#9d440a"/><path d="M330.53,53.65l.48.16-4.61,3.34.95-1.27,3.18-2.23Z" fill="#9d440a" isolation="isolate" opacity=".04" stroke="#9d440a"/><path d="M376.36,64.78l2.07,3.02-.64.16-1.43-3.18Z" fill="#9d440a" isolation="isolate" opacity=".04" stroke="#9d440a"/><path d="M316.69,69.56l.64.16-1.11,2.71-.16-.8.64-2.07Z" fill="#9d440a" isolation="isolate" opacity=".04" stroke="#9d440a"/><path d="M314.62,82.93l.16,2.07c-.32.64-.64.64-.95,0l.8-2.07Z" fill="#9d440a" isolation="isolate" opacity=".04" stroke="#9d440a"/><path d="M377.8,98.52l.64.16-1.43,2.39-.16-.48c.76-.4,1.08-1.09.95-2.07Z" fill="#9d440a" isolation="isolate" opacity=".04" stroke="#9d440a"/><path d="M319.71,102.34l1.43,2.07-.95-.64-.48-1.43Z" fill="#9d440a" isolation="isolate" opacity=".04" stroke="#9d440a"/><path d="M376.05,102.34l-.32.64.32-.64Z" fill="#9d440a" isolation="isolate" opacity=".04" stroke="#9d440a"/><path d="M375.41,103.3l-.32.64.32-.64Z" fill="#9d440a" isolation="isolate" opacity=".04" stroke="#9d440a"/><path d="M374.77,104.25l-.64.95.64-.95Z" fill="#9d440a" isolation="isolate" opacity=".04" stroke="#9d440a"/><path d="M321.94,105.21l.64.95-.64-.95Z" fill="#9d440a" isolation="isolate" opacity=".04" stroke="#9d440a"/><path d="M373.5,105.84l-3.18,3.5,3.18-3.5Z" fill="#9d440a" isolation="isolate" opacity=".04" stroke="#9d440a"/><path d="M323.53,107.12l.32.64-.32-.64Z" fill="#9d440a" isolation="isolate" opacity=".04" stroke="#9d440a"/><path d="M326.4,109.66l.64.95-.64-.95Z" fill="#9d440a" isolation="isolate" opacity=".04" stroke="#9d440a"/><path d="M369.04,109.98l-.64.95.64-.95Z" fill="#9d440a" isolation="isolate" opacity=".04" stroke="#9d440a"/><path d="M327.67,110.62l.64.95-.64-.95Z" fill="#9d440a" isolation="isolate" opacity=".04" stroke="#9d440a"/><path d="M367.77,110.93l-.64.95.64-.95Z" fill="#9d440a" isolation="isolate" opacity=".04" stroke="#9d440a"/><path d="M328.94,111.57l.32.64-.32-.64Z" fill="#9d440a" isolation="isolate" opacity=".04" stroke="#9d440a"/><path d="M366.5,111.89l-.32.64.32-.64Z" fill="#9d440a" isolation="isolate" opacity=".04" stroke="#9d440a"/><path d="M329.9,112.21l.32.64-.32-.64Z" fill="#9d440a" isolation="isolate" opacity=".04" stroke="#9d440a"/><path d="M365.54,112.53l-.32.64-.64.32.32-.64.64-.32Z" fill="#9d440a" isolation="isolate" opacity=".04" stroke="#9d440a"/><path d="M330.85,112.84l1.11.8-.48-.16-.64-.64Z" fill="#9d440a" isolation="isolate" opacity=".04" stroke="#9d440a"/><path d="M363.95,113.48l-.32.64-.95.32v-.32l1.27-.64Z" fill="#9d440a" isolation="isolate" opacity=".04" stroke="#9d440a"/><path d="M334.35,114.75l2.71,1.11-.48.16-2.23-.95v-.32Z" fill="#9d440a" isolation="isolate" opacity=".04" stroke="#9d440a"/><path d="M360.45,115.07l.48.16-1.11.48v-.32l.64-.32Z" fill="#9d440a" isolation="isolate" opacity=".04" stroke="#9d440a"/><path d="M357.91,116.03l.48.16-4.3,1.11v-.32l3.82-.95Z" fill="#9d440a" isolation="isolate" opacity=".04" stroke="#9d440a"/><path d="M338.49,116.35l2.07.48-1.11.16-.95-.32v-.32Z" fill="#9d440a" isolation="isolate" opacity=".04" stroke="#9d440a"/><path d="M341.04,116.98l1.11.16-1.11.16v-.32Z" fill="#9d440a" isolation="isolate" opacity=".04" stroke="#9d440a"/><path d="M342.63,117.3l1.43.16-1.43.16v-.32Z" fill="#9d440a" isolation="isolate" opacity=".04" stroke="#9d440a"/><path d="M351.86,117.3l1.75.16-1.75.16v-.32Z" fill="#9d440a" isolation="isolate" opacity=".04" stroke="#9d440a"/><path d="M345.81,53.33l6.52.16-6.52.16v-.32Z" fill="#fce37d" isolation="isolate" opacity=".99" stroke="#fce37d"/><path d="M343.26,53.65l1.43.16-1.43.16v-.32Z" fill="#fce37d" isolation="isolate" opacity=".99" stroke="#fce37d"/><path d="M353.45,53.65l1.11.16-1.11.16v-.32Z" fill="#fce37d" isolation="isolate" opacity=".99" stroke="#fce37d"/><path d="M341.35,53.96l1.43.16-4.93,1.43v-.32l3.5-1.27Z" fill="#fce37d" isolation="isolate" opacity=".99" stroke="#fce37d"/><path d="M355.04,53.96l4.77,1.27,1.91,1.27.48-.16-3.66,4.61-.95-.64h-.64l-3.02-1.11,2.55-3.18.32-1.43-1.75-.32v-.32Z" fill="#fce37d" isolation="isolate" opacity=".99" stroke="#fce37d"/><path d="M336.9,55.56l.48.16-1.75.8v-.32l1.27-.64Z" fill="#fce37d" isolation="isolate" opacity=".99" stroke="#fce37d"/><path d="M334.67,56.51l.48.16-4.61,3.02.64-.95,3.5-2.23Z" fill="#fce37d" isolation="isolate" opacity=".99" stroke="#fce37d"/><path d="M362.68,56.51l1.43.8-.48-.16c-.81-.06-1.12-.28-.95-.64Z" fill="#fce37d" isolation="isolate" opacity=".99" stroke="#fce37d"/><path d="M364.59,57.46l.32.64-.32-.64Z" fill="#fce37d" isolation="isolate" opacity=".99" stroke="#fce37d"/><path d="M365.54,58.1l2.71,2.07-1.43-1.11c-.85-.11-1.27-.42-1.27-.95Z" fill="#fce37d" isolation="isolate" opacity=".99" stroke="#fce37d"/><path d="M368.41,59.37l.32.64-.32-.64Z" fill="#fce37d" isolation="isolate" opacity=".99" stroke="#fce37d"/><path d="M329.9,59.69l-.64.95-3.98,3.66-2.86,3.82-1.11,2.39-.16-.48c1.91-3.93,4.51-7.16,7.8-9.71l.95-.64Z" fill="#fce37d" isolation="isolate" opacity=".99" stroke="#fce37d"/><path d="M369.04,60.65l1.27,1.27c.28-.47.54-.41.8.16l-.32.32,1.11,1.11.48.16-.48.16-2.86-3.18Z" fill="#fce37d" isolation="isolate" opacity=".99" stroke="#fce37d"/><path d="M372.55,64.47l.64.95-.64-.95Z" fill="#fce37d" isolation="isolate" opacity=".99" stroke="#fce37d"/><path d="M373.5,65.74l.32.64-.32-.64Z" fill="#fce37d" isolation="isolate" opacity=".99" stroke="#fce37d"/><path d="M348.2,66.38c.81-.32,1.12-.16.95.48l3.18,6.68,1.43,1.75c1.23-.15,2.13.01,2.71.48l-4.93,3.66c-3.61,2.12-7.64,3.82-12.09,5.09l-1.91-2.23-1.11-.8c.17-.47.01-.63-.48-.48l-3.34-3.34v-.8h3.02l1.27-.64h2.55l4.61-.95,4.14-8.91Z" fill="#fce37d" isolation="isolate" opacity=".99" stroke="#fce37d"/><path d="M374.46,66.69l.48.8-.64-.32.16-.48Z" fill="#fce37d" isolation="isolate" opacity=".99" stroke="#fce37d"/><path d="M320.67,71.47l.16.48-.95,1.59-.48,2.07-.16-1.75,1.43-2.39Z" fill="#fce37d" isolation="isolate" opacity=".99" stroke="#fce37d"/><path d="M359.18,74.65l.8.16-.16.48,1.59.32v-.64c.55-.15.71.06.48.64h1.11l.8-.32c-.23.57-.07.79.48.64l.8.48-1.43.16-.32-.32-6.52-.8,2.39-.8Z" fill="#fce37d" isolation="isolate" opacity=".99" stroke="#fce37d"/><path d="M319.08,75.92l.16,1.11h-.32l.16-1.11Z" fill="#fce37d" isolation="isolate" opacity=".99" stroke="#fce37d"/><path d="M318.76,77.52l.16,1.11h-.32l.16-1.11Z" fill="#fce37d" isolation="isolate" opacity=".99" stroke="#fce37d"/><path d="M318.44,79.11l.16,3.02h-.32l.16-3.02Z" fill="#fce37d" isolation="isolate" opacity=".99" stroke="#fce37d"/><path d="M317.48,83.24l.16.8h-.32l.16-.8Z" fill="#fce37d" isolation="isolate" opacity=".99" stroke="#fce37d"/><path d="M318.44,84.52l.16,3.34.64,2.55-.64-.32-.32-1.27.32-.8c-.57.23-.79.07-.64-.48l.32-.32.16-2.71Z" fill="#fce37d" isolation="isolate" opacity=".99" stroke="#fce37d"/><path d="M317.8,85.79l.16.8h-.32l.16-.8Z" fill="#fce37d" isolation="isolate" opacity=".99" stroke="#fce37d"/><path d="M326.4,89.29l2.07,3.66v.64l.16.48.48-.16c-.32.64-.64.64-.95,0l-.32-.64.16-.48c-.47.17-.63.01-.48-.48-.81-.83-1.18-1.84-1.11-3.02Z" fill="#fce37d" isolation="isolate" opacity=".99" stroke="#fce37d"/><path d="M369.68,89.61l.16.48c-1.38,3.82-3.45,6.95-6.21,9.39-2.46,2.42-5.64,4.12-9.55,5.09l.32-.64,1.59-.64h1.27l2.55-1.27,3.98-3.02-.16-.48c.28.49.54.43.8-.16l1.27-1.91-1.91,1.27,2.07-2.07c.38.57.75.41,1.11-.48l-.16-.48-.48.16,1.43-1.75.48-.16c-.53-.32-.42-.64.32-.95l1.11-2.39Z" fill="#fce37d" isolation="isolate" opacity=".99" stroke="#fce37d"/><path d="M319.08,90.88c.55-.17.71.1.48.8l.64,1.59h-.32l-.8-2.39Z" fill="#fce37d" isolation="isolate" opacity=".99" stroke="#fce37d"/><path d="M320.35,93.75l.8,1.43-.64-.32-.16-1.11Z" fill="#fce37d" isolation="isolate" opacity=".99" stroke="#fce37d"/><path d="M328.94,94.7l1.11.48c-.53.32-.42.64.32.95l.64,1.43c.57-.23.79-.07.64.48.11.85.69,1.22,1.75,1.11l-.32-.95c.91.38,1.07.75.48,1.11-.15.55.06.71.64.48l.16-.64,2.39,3.02-.8-.48c-2.31-1.27-4.28-2.92-5.89-4.93l-1.11-2.07Z" fill="#fce37d" isolation="isolate" opacity=".99" stroke="#fce37d"/><path d="M362.68,98.52l-.64.95.64-.95Z" fill="#fce37d" isolation="isolate" opacity=".99" stroke="#fce37d"/><path d="M361.41,99.48l-.64.95-.64.32.32-.64.95-.64Z" fill="#fce37d" isolation="isolate" opacity=".99" stroke="#fce37d"/><path d="M335.63,100.11l1.75,1.11-.48-.16c-.85-.11-1.27-.42-1.27-.95Z" fill="#fce37d" isolation="isolate" opacity=".99" stroke="#fce37d"/><path d="M337.22,102.34l2.55.95.64-.32v.64l1.11-.48-.64-.32.48-.16,3.02.8-2.39.48-.95-.32v.32l3.82.95h.64l7.96-.32v.32c-1-.28-1.63-.17-1.91.32h-6.68l-5.73-1.59-1.59-.64-.32-.64Z" fill="#fce37d" isolation="isolate" opacity=".99" stroke="#fce37d"/><path d="M353.45,102.98c.7-.23.97-.07.8.48l-.48-.16-.32-.32Z" fill="#fce37d" isolation="isolate" opacity=".99" stroke="#fce37d"/><path d="M351.86,103.3l1.11.16c-.28.59-.54.65-.8.16l-.32-.32Z" fill="#fce37d" isolation="isolate" opacity=".99" stroke="#fce37d"/><path d="M345.49,103.61l5.57.16-5.57.16v-.32Z" fill="#fce37d" isolation="isolate" opacity=".99" stroke="#fce37d"/><path d="M345.17,58.74l.8.16-.8.16v-.32Z" fill="#edb142" isolation="isolate" opacity="1" stroke="#edb142"/><path d="M350.27,58.74l.8.16-.8.16v-.32Z" fill="#edb142" isolation="isolate" opacity="1" stroke="#edb142"/><path d="M347.08,60.97l5.09.32,4.46,1.27c3.99,1.63,7.22,4.02,9.71,7.16l3.5,7-.32.64h.64l-.32.95.64.16.64,4.61-.95,4.46-1.91,4.46c-1.44,2.59-3.3,4.76-5.57,6.52-2.46,1.99-5.43,3.48-8.91,4.46l-3.82.32-.32.32h-3.18l-5.09-.95-4.61-1.91-.16-.64c-.32.53-.64.42-.95-.32-2.21-1.21-4.06-2.75-5.57-4.61l-2.23-3.18-1.59-3.5-1.27-6.68.64-.95v-1.91l.64-2.55,1.91-4.14c1.34-2.27,2.98-4.23,4.93-5.89l6.37-3.82,3.18-.95,4.14-.32.32-.32ZM348.2,63.19l-2.23,1.91c.21.42.11.53-.32.32v.64h-.32v.64h-.32v.64h-.32l-.32.95c.21.42.11.53-.32.32v.64l-.64.95c.21.42.11.53-.32.32v.64h-.32v.64h-.32v.64l-.32-.32-1.59.95-1.27-.32-.95.64-1.27-.32-.95.64c-1.27-.21-2.02-.11-2.23.32l-.95-.32-.32.64-.32-.32c-1.06.85-1.7,2.02-1.91,3.5l.64.95-.32.64h.64l.32,1.27.95.32.32.95,2.86,2.23.95.64.95,1.27v.64l-1.27,7v2.23l-.32.32,2.23,2.23,2.55-.32h.64v-.32h.64v-.32h.64v-.32l1.91-1.27.64.32-.32-.32.64-.32h.64v-.32h.64v-.32h.64l.32-.64.64.32v-.64c.64-.21.85,0,.64.64l.64-.32v.64l.64-.32v.64l.64-.32,2.55,1.59c.42-.21.53,0,.32.64l.64-.32v.64l.64-.32,2.55,1.27,1.91-.32,1.27-1.91v-2.23l-.95-4.14-.32-3.82,4.14-4.14.32.32,1.91-1.91-.32-.32.95-.64-.32-.32c-.21-.85,0-1.17.64-.95v-1.59h-.64l.32-.64-.32-.32-.95-.95h-.32l-.32-.32h-.32l-2.86-.32-.64-.64-.95.32-.95-.32h-1.91c.21-.64-.21-.85-1.27-.64h-.64l-.32-.32v-.64l-.32-.32v-.32l-.32-.32v-.32l-.32-.32v-.32l-.32-.32v-.32l-.32-.32v-.64c-.64.21-.85.11-.64-.32l-.32-.95c.21-.64.11-.85-.32-.64v-.64c-.64.21-.85.11-.64-.32-.42-1.27-1.49-1.91-3.18-1.91Z" fill="#edb142" isolation="isolate" opacity="1" stroke="#edb142"/><path d="M334.99,62.56l-.32.64.32-.64Z" fill="#edb142" isolation="isolate" opacity="1" stroke="#edb142"/><path d="M333.72,63.51l-.32.64.32-.64Z" fill="#edb142" isolation="isolate" opacity="1" stroke="#edb142"/><path d="M364.27,65.1l.95,1.27-.95-1.27Z" fill="#edb142" isolation="isolate" opacity="1" stroke="#edb142"/><path d="M329.9,67.33l-.32.64.32-.64Z" fill="#edb142" isolation="isolate" opacity="1" stroke="#edb142"/><path d="M366.5,67.65l.32.64-.32-.64Z" fill="#edb142" isolation="isolate" opacity="1" stroke="#edb142"/><path d="M364.91,77.52l-6.68,7,6.68-7Z" fill="#edb142" isolation="isolate" opacity="1" stroke="#edb142"/><path d="M325.12,78.15l.16.8h-.32l.16-.8Z" fill="#edb142" isolation="isolate" opacity="1" stroke="#edb142"/><path d="M359.5,93.75l.16.8h-.32l.16-.8Z" fill="#edb142" isolation="isolate" opacity="1" stroke="#edb142"/><path d="M359.18,95.02l-.32.64.32-.64Z" fill="#edb142" isolation="isolate" opacity="1" stroke="#edb142"/><path d="M322.89,98.52l.32.64-.32-.64Z" fill="#edb142" isolation="isolate" opacity="1" stroke="#edb142"/><path d="M372.23,99.8l-.32.64.32-.64Z" fill="#edb142" isolation="isolate" opacity="1" stroke="#edb142"/><path d="M324.17,100.11l.64.95-.64-.95Z" fill="#edb142" isolation="isolate" opacity="1" stroke="#edb142"/><path d="M327.03,102.98l.64.95-.64-.95Z" fill="#edb142" isolation="isolate" opacity="1" stroke="#edb142"/><path d="M368.73,103.3l-.64.95.64-.95Z" fill="#edb142" isolation="isolate" opacity="1" stroke="#edb142"/><path d="M328.94,104.57l.32.64-.32-.64Z" fill="#edb142" isolation="isolate" opacity="1" stroke="#edb142"/><path d="M342.63,110.62l.8.16-.8.16v-.32Z" fill="#edb142" isolation="isolate" opacity="1" stroke="#edb142"/><path d="M353.13,110.62l.8.16-.8.16v-.32Z" fill="#edb142" isolation="isolate" opacity="1" stroke="#edb142"/><path d="M344.86,110.93l1.43.16-1.43.16v-.32Z" fill="#edb142" isolation="isolate" opacity="1" stroke="#edb142"/><path d="M349.63,110.93l2.07.16-2.07.16v-.32Z" fill="#edb142" isolation="isolate" opacity="1" stroke="#edb142"/><path d="M346.45,51.74l6.05.32,6.37,1.59c4.58,1.89,8.46,4.49,11.62,7.8l1.59,1.91-3.02-2.71-3.18-2.55-3.82-1.91c-.32.53-.64.42-.95-.32l-6.68-2.23c-1.17.32-1.91.21-2.23-.32h-6.37l-6.68,1.27-5.09,2.23c-3.54,1.97-6.57,4.47-9.07,7.48l-3.5,4.77c-.25,2.08-1,3.67-2.23,4.77v1.91l-.95,3.5-.16,8.12-.8-4.3v-3.18l1.27-6.68,3.18-7c1.66-2.59,3.62-4.87,5.89-6.84,2.31-2.04,4.97-3.73,7.96-5.09l6.05-1.91,4.46-.32.32-.32Z" fill="#fcea99" isolation="isolate" opacity=".99" stroke="#fcea99"/><path d="M372.23,63.83l.95,1.27-.95-1.27Z" fill="#fcea99" isolation="isolate" opacity=".99" stroke="#fcea99"/><path d="M348.36,64.47c1.06-.11,1.64.27,1.75,1.11,1.17,3.18,2.71,5.99,4.61,8.43h1.59l2.71.8-3.34.8c-.25-.49-.89-.59-1.91-.32l-.48-.48-3.82-6.68-.32-1.75c-.79-.32-1.1-.16-.95.48l-2.55,4.46-1.59,3.98-4.61.95h-2.55l-1.27.64h-3.02l-.16.64-.16-1.43.8-.8,9.55-1.27.8-.8,4.14-8.43.8-.32Z" fill="#fcea99" isolation="isolate" opacity=".99" stroke="#fcea99"/><path d="M373.5,65.42l.32.64-.32-.64Z" fill="#fcea99" isolation="isolate" opacity=".99" stroke="#fcea99"/><path d="M359.81,74.97c.95-.21,1.54-.05,1.75.48l-.8.16-.95-.32v-.32Z" fill="#fcea99" isolation="isolate" opacity=".99" stroke="#fcea99"/><path d="M362.04,75.29l1.11.16-1.11.16v-.32Z" fill="#fcea99" isolation="isolate" opacity=".99" stroke="#fcea99"/><path d="M363.95,75.61c.7-.23.97-.07.8.48l-.48-.16-.32-.32Z" fill="#fcea99" isolation="isolate" opacity=".99" stroke="#fcea99"/><path d="M337.54,82.29l1.59,1.91-1.59-1.91Z" fill="#fcea99" isolation="isolate" opacity=".99" stroke="#fcea99"/><path d="M327.99,92.79c1.55,2.48,3.46,4.6,5.73,6.37.55-.15.71.06.48.64-.64.21-.85,0-.64-.64h-.8l-1.11-1.59c-.57.23-.79.07-.64-.48-1.49-1.23-2.49-2.66-3.02-4.3Z" fill="#fcea99" isolation="isolate" opacity=".99" stroke="#fcea99"/><path d="M367.13,94.38l-.16.48-3.34,4.3-3.82,2.86-2.55,1.27h-1.27l-1.59.64-.64.64-8.28.32-.95-.32-2.86-.32-1.43-.8.16-.48-.95.32-2.55-.95-1.75-1.75.16-.48c1.74,1.34,3.81,2.34,6.21,3.02l-.64.32,1.43.48.32-.32h2.55l.32.32h5.41l1.27-.32c.32.53.64.42.95-.32l.95.32.16-.64c2.5-.38,4.68-1.23,6.52-2.55l5.25-4.61,1.11-1.43Z" fill="#fcea99" isolation="isolate" opacity=".99" stroke="#fcea99"/><path d="M344.86,51.74l1.43.16-1.43.16v-.32Z" fill="#f5d66f" isolation="isolate" opacity="1" stroke="#f5d66f"/><path d="M349.95,51.74l1.43.16-1.43.16v-.32Z" fill="#f5d66f" isolation="isolate" opacity="1" stroke="#f5d66f"/><path d="M352.81,52.05l.8.16-.8.16v-.32Z" fill="#f5d66f" isolation="isolate" opacity="1" stroke="#f5d66f"/><path d="M344.86,53.65l1.75.16-1.75.16v-.32Z" fill="#f5d66f" isolation="isolate" opacity="1" stroke="#f5d66f"/><path d="M350.9,53.65l2.39.16-2.39.16v-.32Z" fill="#f5d66f" isolation="isolate" opacity="1" stroke="#f5d66f"/><path d="M342.95,53.96l1.11.16-1.11.16v-.32Z" fill="#f5d66f" isolation="isolate" opacity="1" stroke="#f5d66f"/><path d="M354.09,53.96l.8.16-.8.16v-.32Z" fill="#f5d66f" isolation="isolate" opacity="1" stroke="#f5d66f"/><path d="M341.35,54.28l.8.16-1.75.48v-.32l.95-.32Z" fill="#f5d66f" isolation="isolate" opacity="1" stroke="#f5d66f"/><path d="M356.63,55.24l-.16.48-1.75,2.39.16-.48,1.75-2.39Z" fill="#f5d66f" isolation="isolate" opacity="1" stroke="#f5d66f"/><path d="M337.54,55.56l.48.16-1.11.48v-.32l.64-.32Z" fill="#f5d66f" isolation="isolate" opacity="1" stroke="#f5d66f"/><path d="M331.81,56.19l-.32.64.32-.64Z" fill="#f5d66f" isolation="isolate" opacity="1" stroke="#f5d66f"/><path d="M336.26,56.19l-.32.64-1.27.32v-.32l1.59-.64Z" fill="#f5d66f" isolation="isolate" opacity="1" stroke="#f5d66f"/><path d="M362.04,56.51l.48.16-1.27.95-1.75,2.39.48-.8,2.07-2.71Z" fill="#f5d66f" isolation="isolate" opacity="1" stroke="#f5d66f"/><path d="M365.23,56.83l.32.64-.32-.64Z" fill="#f5d66f" isolation="isolate" opacity="1" stroke="#f5d66f"/><path d="M334.03,57.15l-.32.64.32-.64Z" fill="#f5d66f" isolation="isolate" opacity="1" stroke="#f5d66f"/><path d="M363.63,57.15l2.07,1.43-.48-.16c-.98-.25-1.51-.68-1.59-1.27Z" fill="#f5d66f" isolation="isolate" opacity="1" stroke="#f5d66f"/><path d="M329.9,57.46l-.32.64.32-.64Z" fill="#f5d66f" isolation="isolate" opacity="1" stroke="#f5d66f"/><path d="M366.5,57.78l.32.64-.32-.64Z" fill="#f5d66f" isolation="isolate" opacity="1" stroke="#f5d66f"/><path d="M332.44,58.1l-.64.95.64-.95Z" fill="#f5d66f" isolation="isolate" opacity="1" stroke="#f5d66f"/><path d="M354.4,58.42l-.64.95.64-.95Z" fill="#f5d66f" isolation="isolate" opacity="1" stroke="#f5d66f"/><path d="M328.31,58.74l-.32.64.32-.64Z" fill="#f5d66f" isolation="isolate" opacity="1" stroke="#f5d66f"/><path d="M367.77,58.74l.32.64-.32-.64Z" fill="#f5d66f" isolation="isolate" opacity="1" stroke="#f5d66f"/><path d="M331.17,59.06l-.64.95-.95.64.64-.95.95-.64Z" fill="#f5d66f" isolation="isolate" opacity="1" stroke="#f5d66f"/><path d="M366.82,59.06l.95,1.27-.95-1.27Z" fill="#f5d66f" isolation="isolate" opacity="1" stroke="#f5d66f"/><path d="M359.18,60.33l-.16.48-.16.48-.16-.48.48-.48Z" fill="#f5d66f" isolation="isolate" opacity="1" stroke="#f5d66f"/><path d="M368.41,60.33l2.23,2.55-2.23-2.55Z" fill="#f5d66f" isolation="isolate" opacity="1" stroke="#f5d66f"/><path d="M328.94,60.65l-3.5,3.82,3.5-3.82Z" fill="#f5d66f" isolation="isolate" opacity="1" stroke="#f5d66f"/><path d="M371.27,62.24l.32.64-.32-.64Z" fill="#f5d66f" isolation="isolate" opacity="1" stroke="#f5d66f"/><path d="M324.49,62.56l-.32.64.32-.64Z" fill="#f5d66f" isolation="isolate" opacity="1" stroke="#f5d66f"/><path d="M371.27,63.19l.95.95c.25-.47.52-.41.8.16l-.8.16-.95-1.27Z" fill="#f5d66f" isolation="isolate" opacity="1" stroke="#f5d66f"/><path d="M325.12,64.78l-.95,1.27.95-1.27Z" fill="#f5d66f" isolation="isolate" opacity="1" stroke="#f5d66f"/><path d="M372.86,65.1l.8.16c-.45.7-.71.65-.8-.16Z" fill="#f5d66f" isolation="isolate" opacity="1" stroke="#f5d66f"/><path d="M374.14,66.06v.95c-.64-.32-.64-.64,0-.95Z" fill="#f5d66f" isolation="isolate" opacity="1" stroke="#f5d66f"/><path d="M323.85,66.38l-.32.64.32-.64Z" fill="#f5d66f" isolation="isolate" opacity="1" stroke="#f5d66f"/><path d="M374.46,67.33l.8.48-.48.16-.32-.64Z" fill="#f5d66f" isolation="isolate" opacity="1" stroke="#f5d66f"/><path d="M322.89,67.65l-.16.48-.48.8.16-.48.48-.8Z" fill="#f5d66f" isolation="isolate" opacity="1" stroke="#f5d66f"/><path d="M375.41,68.92c.49-.15.65.01.48.48l.95,2.55h-.32l-1.11-3.02Z" fill="#f5d66f" isolation="isolate" opacity="1" stroke="#f5d66f"/><path d="M321.62,69.88l.16.48-1.75,3.66-.16-.48,1.75-3.66Z" fill="#f5d66f" isolation="isolate" opacity="1" stroke="#f5d66f"/><path d="M357.91,74.33l.8.16-.8.16v-.32Z" fill="#f5d66f" isolation="isolate" opacity="1" stroke="#f5d66f"/><path d="M319.39,75.61l.16.8h-.32l.16-.8Z" fill="#f5d66f" isolation="isolate" opacity="1" stroke="#f5d66f"/><path d="M357.91,75.61l1.11.16-1.11.16v-.32Z" fill="#f5d66f" isolation="isolate" opacity="1" stroke="#f5d66f"/><path d="M356,75.92l-1.27,1.59-.64.32.32-.64,1.59-1.27Z" fill="#f5d66f" isolation="isolate" opacity="1" stroke="#f5d66f"/><path d="M360.13,75.92l1.11.16-1.11.16v-.32Z" fill="#f5d66f" isolation="isolate" opacity="1" stroke="#f5d66f"/><path d="M332.12,76.24l.16.8h-.32l.16-.8Z" fill="#f5d66f" isolation="isolate" opacity="1" stroke="#f5d66f"/><path d="M362.36,76.24l1.11.16-1.11.16v-.32Z" fill="#f5d66f" isolation="isolate" opacity="1" stroke="#f5d66f"/><path d="M319.08,77.2l.16.8h-.32l.16-.8Z" fill="#f5d66f" isolation="isolate" opacity="1" stroke="#f5d66f"/><path d="M332.44,77.52l7,7,.32-.32.48.16-.8.48-7-7.32Z" fill="#f5d66f" isolation="isolate" opacity="1" stroke="#f5d66f"/><path d="M353.45,77.83l-.64.95.64-.95Z" fill="#f5d66f" isolation="isolate" opacity="1" stroke="#f5d66f"/><path d="M317.48,78.15l.16,1.43h-.32l.16-1.43Z" fill="#f5d66f" isolation="isolate" opacity="1" stroke="#f5d66f"/><path d="M318.76,78.79l.16,1.75h-.32l.16-1.75Z" fill="#f5d66f" isolation="isolate" opacity="1" stroke="#f5d66f"/><path d="M352.18,78.79l-.32.64.32-.64Z" fill="#f5d66f" isolation="isolate" opacity="1" stroke="#f5d66f"/><path d="M350.58,79.74l-.32.64-2.86,1.27v-.32l3.18-1.59Z" fill="#f5d66f" isolation="isolate" opacity="1" stroke="#f5d66f"/><path d="M346.77,81.65l-.32.64-1.91.64v-.32l2.23-.95Z" fill="#f5d66f" isolation="isolate" opacity="1" stroke="#f5d66f"/><path d="M318.44,82.29l.16,2.07h-.32l.16-2.07Z" fill="#f5d66f" isolation="isolate" opacity="1" stroke="#f5d66f"/><path d="M342.63,83.24l.48.16-2.39.8v-.32l1.91-.64Z" fill="#f5d66f" isolation="isolate" opacity="1" stroke="#f5d66f"/><path d="M317.48,84.2l.16,1.43h-.32l.16-1.43Z" fill="#f5d66f" isolation="isolate" opacity="1" stroke="#f5d66f"/><path d="M325.44,86.11l.8,2.39-.16.48.48.16-.32.64h.64l-.48.8-1.11-3.02.16-1.43Z" fill="#f5d66f" isolation="isolate" opacity="1" stroke="#f5d66f"/><path d="M370.64,86.11l.16,1.43-1.11,3.34-.48-.8h.64l-.32-.95h.64l-.32-.64.8-2.39Z" fill="#f5d66f" isolation="isolate" opacity="1" stroke="#f5d66f"/><path d="M318.76,86.43l.48,3.02h-.32l-.16-3.02Z" fill="#f5d66f" isolation="isolate" opacity="1" stroke="#f5d66f"/><path d="M319.71,91.52l.48,1.11-.64.32.32-.95-.16-.48Z" fill="#f5d66f" isolation="isolate" opacity="1" stroke="#f5d66f"/><path d="M327.03,91.52l3.02,4.93-.95-.64-2.23-3.82.16-.48Z" fill="#f5d66f" isolation="isolate" opacity="1" stroke="#f5d66f"/><path d="M369.04,91.84l.16.48-.8,1.11.16-.48.48-1.11Z" fill="#f5d66f" isolation="isolate" opacity="1" stroke="#f5d66f"/><path d="M320.35,93.11l.16.64-.64-.16.48-.48Z" fill="#f5d66f" isolation="isolate" opacity="1" stroke="#f5d66f"/><path d="M367.13,93.75l-.32.64.32-.64Z" fill="#f5d66f" isolation="isolate" opacity="1" stroke="#f5d66f"/><path d="M367.77,94.38l-.32.64.32-.64Z" fill="#f5d66f" isolation="isolate" opacity="1" stroke="#f5d66f"/><path d="M366.18,95.02l-.32.64.32-.64Z" fill="#f5d66f" isolation="isolate" opacity="1" stroke="#f5d66f"/><path d="M330.22,95.34l2.55,2.86-2.55-2.86Z" fill="#f5d66f" isolation="isolate" opacity="1" stroke="#f5d66f"/><path d="M367.13,95.34l-.32.64.32-.64Z" fill="#f5d66f" isolation="isolate" opacity="1" stroke="#f5d66f"/><path d="M321.3,95.98c.49-.15.65.01.48.48l1.59,2.23-.64-.32-1.43-2.39Z" fill="#f5d66f" isolation="isolate" opacity="1" stroke="#f5d66f"/><path d="M366.5,96.29l-.95,1.27.95-1.27Z" fill="#f5d66f" isolation="isolate" opacity="1" stroke="#f5d66f"/><path d="M330.22,96.93l2.55,2.86-2.55-2.86Z" fill="#f5d66f" isolation="isolate" opacity="1" stroke="#f5d66f"/><path d="M363.32,97.89l-.32.64.32-.64Z" fill="#f5d66f" isolation="isolate" opacity="1" stroke="#f5d66f"/><path d="M333.72,98.52l.32.64-.32-.64Z" fill="#f5d66f" isolation="isolate" opacity="1" stroke="#f5d66f"/><path d="M364.59,98.52l-.32.64.32-.64Z" fill="#f5d66f" isolation="isolate" opacity="1" stroke="#f5d66f"/><path d="M363.32,99.48l-1.27,1.59-.95.64.64-.95,1.59-1.27Z" fill="#f5d66f" isolation="isolate" opacity="1" stroke="#f5d66f"/><path d="M333.4,99.8c1.25,1.51,2.9,2.62,4.93,3.34l-1.11.16c-.32-.53-.64-.42-.95.32l-.48-.48.32-1.11c-1.34-.36-2.24-1.1-2.71-2.23Z" fill="#f5d66f" isolation="isolate" opacity="1" stroke="#f5d66f"/><path d="M360.45,101.7l-.32.64.32-.64Z" fill="#f5d66f" isolation="isolate" opacity="1" stroke="#f5d66f"/><path d="M344.54,103.3l.8.16-.8.16v-.32Z" fill="#f5d66f" isolation="isolate" opacity="1" stroke="#f5d66f"/><path d="M342.31,104.57l.8.16-.8.16v-.32Z" fill="#f5d66f" isolation="isolate" opacity="1" stroke="#f5d66f"/><path d="M343.58,104.89l1.11.16-1.11.16v-.32Z" fill="#f5d66f" isolation="isolate" opacity="1" stroke="#f5d66f"/><path d="M351.86,104.89l1.11.16-1.11.16v-.32Z" fill="#f5d66f" isolation="isolate" opacity="1" stroke="#f5d66f"/><path d="M345.81,105.21l4.93.16-4.93.16v-.32Z" fill="#f5d66f" isolation="isolate" opacity="1" stroke="#f5d66f"/><path d="M331.17,105.84l1.11.16c-.25.59-.52.65-.8.16l-.32-.32Z" fill="#f5d66f" isolation="isolate" opacity="1" stroke="#f5d66f"/><path d="M357.27,50.14l2.39.8-.48.16-1.91-.64v-.32Z" fill="#fee031" isolation="isolate" opacity=".04" stroke="#fee031"/><path d="M360.13,51.1l1.11.48-.48.16-.64-.64Z" fill="#fee031" isolation="isolate" opacity=".04" stroke="#fee031"/><path d="M361.72,51.74l.8.48-.48-.16-.32-.32Z" fill="#fee031" isolation="isolate" opacity=".04" stroke="#fee031"/><path d="M367.77,55.24l.32.64-.32-.64Z" fill="#fee031" isolation="isolate" opacity=".04" stroke="#fee031"/><path d="M318.76,65.74l-.16.48-.16.48-.16-.48.48-.48Z" fill="#fee031" isolation="isolate" opacity=".04" stroke="#fee031"/><path d="M378.27,67.97l.8,1.75h-.32l-.48-1.75Z" fill="#fee031" isolation="isolate" opacity=".04" stroke="#fee031"/><path d="M315.89,72.42l.16.8-.48,1.43-.16-1.11.48-1.11Z" fill="#fee031" isolation="isolate" opacity=".04" stroke="#fee031"/><path d="M314.94,76.56l.16,1.11h-.32l.16-1.11Z" fill="#fee031" isolation="isolate" opacity=".04" stroke="#fee031"/><path d="M314.62,80.06l.16,1.11h-.32l.16-1.11Z" fill="#fee031" isolation="isolate" opacity=".04" stroke="#fee031"/><path d="M380.18,93.11l.16.8-1.75,4.3-.16-.48,1.75-4.61Z" fill="#fee031" isolation="isolate" opacity=".04" stroke="#fee031"/><path d="M351.22,58.74l.8.16-.8.16v-.32Z" fill="#fbc84a" stroke="#fbc84a"/><path d="M334.35,62.88l-.32.64.32-.64Z" fill="#fbc84a" stroke="#fbc84a"/><path d="M361.72,62.88l.32.64-.32-.64Z" fill="#fbc84a" stroke="#fbc84a"/><path d="M363,63.83l.95,1.27-.95-1.27Z" fill="#fbc84a" stroke="#fbc84a"/><path d="M332.76,64.15l-2.23,2.55,2.23-2.55Z" fill="#fbc84a" stroke="#fbc84a"/><path d="M352.18,66.06l.48.8-.64-.32.16-.48Z" fill="#fbc84a" stroke="#fbc84a"/><path d="M365.54,66.38l.64.95-.64-.95Z" fill="#fbc84a" stroke="#fbc84a"/><path d="M342.31,71.79l-.16.48c.17.49.01.65-.48.48l.64-.95Z" fill="#fbc84a" stroke="#fbc84a"/><path d="M355.36,72.11l1.43.48-1.11.16-.32-.64Z" fill="#fbc84a" stroke="#fbc84a"/><path d="M360.13,73.06l.8.16-.8.16v-.32Z" fill="#fbc84a" stroke="#fbc84a"/><path d="M357.59,75.92l1.91.64,1.59-.32c.76.62,1.93.83,3.5.64l.48.48h-.64l-.95,1.75c-.57-.23-.79-.07-.64.48l-4.77,3.98-.64,1.43.8,3.98.32-.64.16.48c-.47.25-.57.89-.32,1.91h.32l.16-.48.16.8-.32,1.27h.64l-.32,2.71-1.75-.32-.32.64-.8-.32-.16-.64h-.64c-.47.17-.63.01-.48-.48h-.64v-.48h-1.27v-.48l-.8-.16-3.98-1.91c.23.57.07.79-.48.64l-1.59.95-.48-.16-.16.48-.64-.32v.64l-.64-.32v.64l-.48-.16c.17.49.01.65-.48.48l-.95.64-.48-.16-.16.48-.48-.16-.16.48-.95-.32-.48.95-1.27-.64v-2.39l-.16-.48.48.16-.32-1.91h.32l.16.48.16-1.75-.32-.64h.64l.32-2.39.64-.16-.64-.32.32-1.11,2.39-.32,5.73-2.55.64.32.32-.95,6.21-3.5c-.23-.57-.07-.79.48-.64l1.91-.95Z" fill="#fbc84a" stroke="#fbc84a"/><path d="M366.82,76.24l.16,1.43h-.32l.16-1.43Z" fill="#fbc84a" stroke="#fbc84a"/><path d="M371.27,79.43l.16,3.02h-.32l.16-3.02Z" fill="#fbc84a" stroke="#fbc84a"/><path d="M324.8,79.74l.16,2.71h-.32l.16-2.71Z" fill="#fbc84a" stroke="#fbc84a"/><path d="M365.86,79.74l-2.86,3.18,2.86-3.18Z" fill="#fbc84a" stroke="#fbc84a"/><path d="M331.81,80.06l.32.64-.32-.64Z" fill="#fbc84a" stroke="#fbc84a"/><path d="M370.95,83.24l.16.8h-.32l.16-.8Z" fill="#fbc84a" stroke="#fbc84a"/><path d="M336.9,85.15l.64.95-.64-.95Z" fill="#fbc84a" stroke="#fbc84a"/><path d="M349.31,94.07l.8.48-.48.16-.32-.64Z" fill="#fbc84a" stroke="#fbc84a"/><path d="M357.59,95.34l.8.16-.8.16v-.32Z" fill="#fbc84a" stroke="#fbc84a"/><path d="M344.86,95.66l.48.16-.8.48.32-.64Z" fill="#fbc84a" stroke="#fbc84a"/><path d="M373.82,97.57l-.32.64.32-.64Z" fill="#fbc84a" stroke="#fbc84a"/><path d="M372.86,98.84l-.32.64.32-.64Z" fill="#fbc84a" stroke="#fbc84a"/><path d="M323.53,99.16l.32.64-.32-.64Z" fill="#fbc84a" stroke="#fbc84a"/><path d="M371.59,100.43l-2.55,2.86,2.55-2.86Z" fill="#fbc84a" stroke="#fbc84a"/><path d="M325.12,101.07l1.59,1.91-1.59-1.91Z" fill="#fbc84a" stroke="#fbc84a"/><path d="M328.31,103.93l.32.64-.32-.64Z" fill="#fbc84a" stroke="#fbc84a"/><path d="M367.45,104.25l-.32.64.32-.64Z" fill="#fbc84a" stroke="#fbc84a"/><path d="M355.36,109.98l.8.16-.8.16v-.32Z" fill="#fbc84a" stroke="#fbc84a"/><path d="M354.09,110.3l.8.16-.8.16v-.32Z" fill="#fbc84a" stroke="#fbc84a"/><path d="M343.58,110.62l.8.16-.8.16v-.32Z" fill="#fbc84a" stroke="#fbc84a"/><path d="M351.86,110.62l1.11.16-1.11.16v-.32Z" fill="#fbc84a" stroke="#fbc84a"/><path d="M346.45,110.93l3.02.16-3.02.16v-.32Z" fill="#fbc84a" stroke="#fbc84a"/><path d="M374.77,103.93l-.32.64.32-.64Z" fill="#d9ab56" isolation="isolate" opacity=".61" stroke="#d9ab56"/><path d="M321.3,104.25l.64.95-.64-.95Z" fill="#d9ab56" isolation="isolate" opacity=".61" stroke="#d9ab56"/><path d="M373.82,105.21l-.64.95.64-.95Z" fill="#d9ab56" isolation="isolate" opacity=".61" stroke="#d9ab56"/><path d="M370,109.03l-.64.95.64-.95Z" fill="#d9ab56" isolation="isolate" opacity=".61" stroke="#d9ab56"/><path d="M344.54,59.06h7l4.77,1.27c3.84,1.46,6.97,3.64,9.39,6.52,1.61,1.89,2.89,4.12,3.82,6.68l-.16.48c.55-.17.71.1.48.8l.32.8c-.57.23-.79.07-.64-.48-1.42-3.56-3.49-6.48-6.21-8.75-2.55-2.12-5.62-3.71-9.23-4.77l-2.86-.64h-6.05l-6.05,1.59c-3.08,1.27-5.68,3.02-7.8,5.25-1.97,1.95-3.51,4.34-4.61,7.16l-.48-.8h.64l-.32-.95,1.27-2.71.64-.16c-.53-.32-.42-.64.32-.95l3.66-4.61c3.03-2.91,7.07-4.82,12.09-5.73Z" fill="#cd8a32" isolation="isolate" opacity=".91" stroke="#cd8a32"/><path d="M327.35,59.37l-.32.64.32-.64Z" fill="#cd8a32" isolation="isolate" opacity=".91" stroke="#cd8a32"/><path d="M368.73,59.37l.32.64-.32-.64Z" fill="#cd8a32" isolation="isolate" opacity=".91" stroke="#cd8a32"/><path d="M372.55,60.01l.95,1.27-.95-1.27Z" fill="#cd8a32" isolation="isolate" opacity=".91" stroke="#cd8a32"/><path d="M369.68,60.33l1.27,1.59-1.27-1.59Z" fill="#cd8a32" isolation="isolate" opacity=".91" stroke="#cd8a32"/><path d="M322.89,60.65l-.64.95.64-.95Z" fill="#cd8a32" isolation="isolate" opacity=".91" stroke="#cd8a32"/><path d="M348.36,63.19l.8.16-.8.16v-.32Z" fill="#cd8a32" isolation="isolate" opacity=".91" stroke="#cd8a32"/><path d="M347.4,63.51l-.32.64.32-.64Z" fill="#cd8a32" isolation="isolate" opacity=".91" stroke="#cd8a32"/><path d="M350.27,63.83l.64.95-.64-.95Z" fill="#cd8a32" isolation="isolate" opacity=".91" stroke="#cd8a32"/><path d="M342.31,72.42l-.32.64-.48-.16.8-.48Z" fill="#cd8a32" isolation="isolate" opacity=".91" stroke="#cd8a32"/><path d="M339.13,73.06l1.11.16-1.11.16v-.32Z" fill="#cd8a32" isolation="isolate" opacity=".91" stroke="#cd8a32"/><path d="M357.59,73.06l.8.16-.8.16v-.32Z" fill="#cd8a32" isolation="isolate" opacity=".91" stroke="#cd8a32"/><path d="M334.67,73.7l.8.16-.8.16v-.32Z" fill="#cd8a32" isolation="isolate" opacity=".91" stroke="#cd8a32"/><path d="M332.12,74.33l-.64.95.64-.95Z" fill="#cd8a32" isolation="isolate" opacity=".91" stroke="#cd8a32"/><path d="M365.54,74.65l.32.64-.32-.64Z" fill="#cd8a32" isolation="isolate" opacity=".91" stroke="#cd8a32"/><path d="M326.08,74.97l.48.8-.64-.32.16-.48Z" fill="#cd8a32" isolation="isolate" opacity=".91" stroke="#cd8a32"/><path d="M370.32,75.92l.48,3.34h-.32c.13-1.29-.08-2.25-.64-2.86l.48-.48Z" fill="#cd8a32" isolation="isolate" opacity=".91" stroke="#cd8a32"/><path d="M325.76,76.24c.49-.15.65.01.48.48l-.48-.48Z" fill="#cd8a32" isolation="isolate" opacity=".91" stroke="#cd8a32"/><path d="M325.28,77.52c.57-.23.79-.07.64.48l-.48,1.75-.16-2.23Z" fill="#cd8a32" isolation="isolate" opacity=".91" stroke="#cd8a32"/><path d="M333.08,78.47l.64.95-.64-.95Z" fill="#cd8a32" isolation="isolate" opacity=".91" stroke="#cd8a32"/><path d="M334.35,79.74l.32.64-.32-.64Z" fill="#cd8a32" isolation="isolate" opacity=".91" stroke="#cd8a32"/><path d="M317.17,80.06l.16,1.43h-.32l.16-1.43Z" fill="#cd8a32" isolation="isolate" opacity=".91" stroke="#cd8a32"/><path d="M378.91,80.06l.16,1.11h-.32l.16-1.11Z" fill="#cd8a32" isolation="isolate" opacity=".91" stroke="#cd8a32"/><path d="M317.17,82.61l.16,2.07h-.32l.16-2.07Z" fill="#cd8a32" isolation="isolate" opacity=".91" stroke="#cd8a32"/><path d="M337.85,83.24l1.43,1.43v.64h-.32v-.64l-1.11-1.43Z" fill="#cd8a32" isolation="isolate" opacity=".91" stroke="#cd8a32"/><path d="M378.91,83.56l.16,1.43h-.32l.16-1.43Z" fill="#cd8a32" isolation="isolate" opacity=".91" stroke="#cd8a32"/><path d="M336.9,84.52l.95,1.27-.95-1.27Z" fill="#cd8a32" isolation="isolate" opacity=".91" stroke="#cd8a32"/><path d="M358.22,84.52l.16.8h-.32l.16-.8Z" fill="#cd8a32" isolation="isolate" opacity=".91" stroke="#cd8a32"/><path d="M359.81,85.15l-.32.64.32-.64Z" fill="#cd8a32" isolation="isolate" opacity=".91" stroke="#cd8a32"/><path d="M317.48,86.75l.48,2.55-.64-.16.16-2.39Z" fill="#cd8a32" isolation="isolate" opacity=".91" stroke="#cd8a32"/><path d="M378.59,87.06l.16.8h-.32l.16-.8Z" fill="#cd8a32" isolation="isolate" opacity=".91" stroke="#cd8a32"/><path d="M359.81,88.02l.16.8h-.32l.16-.8Z" fill="#cd8a32" isolation="isolate" opacity=".91" stroke="#cd8a32"/><path d="M378.27,88.34l.16,1.75-.48,1.75-.48-.16.32.95h-.64l.32.95h-.32l-.16-.48-.16,1.11.32.64h-.32l-.16-.48-.16.8.32.64-.8,1.43-1.11-.16-.64,1.27.32.64-.48-.16-.48.16c.74.32.85.64.32.95l.32.64-.8.16-.48.16.95.32-1.27.64.32.64-1.27.32.32-.64-.48-.16-.95,1.27-.48-.16-.32,1.11c-1.1-.36-1.53-.15-1.27.64l.8-.32.16.64h-1.27v.48l.48-.16.8.16-1.75.8v-.64l-.64-.32-.32.95-.64-.32-1.43,1.11.95.64.48,1.11.48-.16-.95.64c.59-.36.43-.73-.48-1.11l-.95.32c-.25-.47-.52-.41-.8.16l-.16.48c-.15-.57-.68-.79-1.59-.64-.57.28-.63.54-.16.8-.21.81,0,1.07.64.8l-.32-1.11.48.16c.55-.17.71.1.48.8h.64l-1.27.48c.23.57.07.79-.48.64l-1.91.95-.32-.95-.48.16.32.8h-.64c.23.57.07.79-.48.64l-.32-.95-.48-.16.95-.16-.32-.8.16-.48-.95.64-.48.16.16-.48-5.73,1.59h-6.05c-.3-.55-.93-.76-1.91-.64l-2.07.32-.32,1.91-1.91-.8.64-.32c-.15-.47-.63-.63-1.43-.48v.32l.48.16-1.11.16-1.75-.8.48-1.11h.64l.8-.48-3.82-1.75v1.75l.48.16.48.8-.48-.16-.95-.64c-.32-.74-.64-.85-.95-.32l-.95-.32v.64c-.64-.32-.64-.64,0-.95l1.11.32.64-1.27-1.91-.8.95-.32-3.66-2.07c-.15.59-.68.81-1.59.64l-.32-.64c.49.17.65.01.48-.48l-.48.16-.48-.16.64-.16-.16-.64-1.43.8,2.39,2.71-3.18-3.5.8.48.48-.8.64.32c.64-.32.64-.64,0-.95-.47.17-.63.01-.48-.48l-1.43-1.11-.8.32c.23-.57.07-.79-.48-.64l-.64-.32c-.25.49-.52.43-.8-.16l.32-.64-.95-.32h.64l-.95-1.91.64-.32-.64-1.43c-.79-.32-1.1-.16-.95.48l.32.64h-.32l-.32-.95.64-1.27h-.32l-.48.8.16-.48.32-.64-.8-1.11-.32.64-.16-.48.32-.64h-.64l-.32-1.59h.32l.16.48.32-.64c1.8,4.77,4.46,8.7,7.96,11.78,2.69,2.5,5.88,4.52,9.55,6.05l7,1.91,7.32.32,7.64-1.59,6.05-2.86c2.99-1.78,5.59-3.96,7.8-6.52,2.91-3.25,4.98-7.33,6.21-12.25ZM322.1,98.52c-.42.64-.32,1.06.32,1.27.64-.42.53-.85-.32-1.27ZM327.19,103.93l.32.64c.21-.64.11-.85-.32-.64ZM368.25,104.57l-.64.64h.64v-.64ZM328.15,104.89l.32.64c.21-.64.11-.85-.32-.64ZM333.56,109.34l-.32.95h.32v-.95ZM360.61,109.34l-.32.95c-.85-.21-1.17,0-.95.64l1.59.64-.32-.32c-.21-.85,0-1.17.64-.95.21-.85,0-1.17-.64-.95ZM338.01,110.3v.64h.95l-.95-.64ZM339.92,110.93v.64h2.23l-2.23-.64ZM337.06,111.57l.32.64c.21-.64.11-.85-.32-.64Z" fill="#cd8a32" isolation="isolate" opacity=".91" stroke="#cd8a32"/><path d="M318.12,89.61l.16.48-.48.8-.16-.48.48-.8Z" fill="#cd8a32" isolation="isolate" opacity=".91" stroke="#cd8a32"/><path d="M337.22,89.61l.16.8h-.32l.16-.8Z" fill="#cd8a32" isolation="isolate" opacity=".91" stroke="#cd8a32"/><path d="M359.18,90.57l.16.8h-.32l.16-.8Z" fill="#cd8a32" isolation="isolate" opacity=".91" stroke="#cd8a32"/><path d="M360.45,91.84l.16.8h-.32l.16-.8Z" fill="#cd8a32" isolation="isolate" opacity=".91" stroke="#cd8a32"/><path d="M336.58,93.43l.16,1.43h-.32l.16-1.43Z" fill="#cd8a32" isolation="isolate" opacity=".91" stroke="#cd8a32"/><path d="M337.85,95.02l.32.64-.32-.64Z" fill="#cd8a32" isolation="isolate" opacity=".91" stroke="#cd8a32"/><path d="M359.5,95.02l-.32.64.32-.64Z" fill="#cd8a32" isolation="isolate" opacity=".91" stroke="#cd8a32"/><path d="M336.9,96.61l.95,1.27-.95-1.27Z" fill="#cd8a32" isolation="isolate" opacity=".91" stroke="#cd8a32"/><path d="M360.13,96.93l-.64.95-.48-.16,1.11-.8Z" fill="#cd8a32" isolation="isolate" opacity=".91" stroke="#cd8a32"/><path d="M338.81,97.89l.8.16-.8.16v-.32Z" fill="#cd8a32" isolation="isolate" opacity=".91" stroke="#cd8a32"/><path d="M357.91,97.89l.8.16-.8.16v-.32Z" fill="#cd8a32" isolation="isolate" opacity=".91" stroke="#cd8a32"/><path d="M322.58,101.7l.8.16c-.45.7-.71.65-.8-.16Z" fill="#cd8a32" isolation="isolate" opacity=".91" stroke="#cd8a32"/><path d="M323.21,102.66l.64.95-.64-.95Z" fill="#cd8a32" isolation="isolate" opacity=".91" stroke="#cd8a32"/><path d="M372.23,103.3l-.95,1.27v-.95c.32.53.64.42.95-.32Z" fill="#cd8a32" isolation="isolate" opacity=".91" stroke="#cd8a32"/><path d="M370.64,103.93l-.32.64.32-.64Z" fill="#cd8a32" isolation="isolate" opacity=".91" stroke="#cd8a32"/><path d="M370.32,105.52l-.32.64.32-.64Z" fill="#cd8a32" isolation="isolate" opacity=".91" stroke="#cd8a32"/><path d="M328.31,106.8l.48.8-.64-.32.16-.48Z" fill="#cd8a32" isolation="isolate" opacity=".91" stroke="#cd8a32"/><path d="M366.82,106.8c.64.32.64.64,0,.95-.47.17-.63.01-.48-.48l.48-.48Z" fill="#cd8a32" isolation="isolate" opacity=".91" stroke="#cd8a32"/><path d="M368.09,107.43l-.95,1.27.95-1.27Z" fill="#cd8a32" isolation="isolate" opacity=".91" stroke="#cd8a32"/><path d="M328.62,108.07l.64.95-.64-.95Z" fill="#cd8a32" isolation="isolate" opacity=".91" stroke="#cd8a32"/><path d="M364.27,109.03l.8.16-.48.8.64-.32-.32.64-.64.32v-.64c-.47.17-.63.01-.48-.48l.48-.48Z" fill="#cd8a32" isolation="isolate" opacity=".91" stroke="#cd8a32"/><path d="M330.22,109.34l.32.64-.32-.64Z" fill="#cd8a32" isolation="isolate" opacity=".91" stroke="#cd8a32"/><path d="M363.63,110.62l-.32.64.32-.64Z" fill="#cd8a32" isolation="isolate" opacity=".91" stroke="#cd8a32"/><path d="M332.76,110.93l.32.64-.32-.64Z" fill="#cd8a32" isolation="isolate" opacity=".91" stroke="#cd8a32"/><path d="M333.72,111.57l1.75.8-.48.16-1.27-.64v-.32Z" fill="#cd8a32" isolation="isolate" opacity=".91" stroke="#cd8a32"/><path d="M343.42,113.16l.64.16-.48.8-.16-.95Z" fill="#cd8a32" isolation="isolate" opacity=".91" stroke="#cd8a32"/><path d="M350.58,113.16l1.43.16-1.43.16v-.32Z" fill="#cd8a32" isolation="isolate" opacity=".91" stroke="#cd8a32"/><path d="M355.36,113.16l.48.16-1.11.48v-.32l.64-.32Z" fill="#cd8a32" isolation="isolate" opacity=".91" stroke="#cd8a32"/><path d="M341.67,113.48l1.11.48-.8.16-.32-.64Z" fill="#cd8a32" isolation="isolate" opacity=".91" stroke="#cd8a32"/><path d="M353.13,113.8l1.11.16-1.11.16v-.32Z" fill="#cd8a32" isolation="isolate" opacity=".91" stroke="#cd8a32"/><path d="M350.58,114.12l1.75.16-1.75.16v-.32Z" fill="#cd8a32" isolation="isolate" opacity=".91" stroke="#cd8a32"/><path d="M341.67,114.44l.8.16-.8.16v-.32Z" fill="#cd8a32" isolation="isolate" opacity=".91" stroke="#cd8a32"/><path d="M353.45,114.44l.8.16-.8.16v-.32Z" fill="#cd8a32" isolation="isolate" opacity=".91" stroke="#cd8a32"/><path d="M343.58,114.75l1.43.16-1.43.16v-.32Z" fill="#cd8a32" isolation="isolate" opacity=".91" stroke="#cd8a32"/><path d="M351.54,114.75l1.11.16-1.11.16v-.32Z" fill="#cd8a32" isolation="isolate" opacity=".91" stroke="#cd8a32"/><path d="M346.77,115.07l2.07.16-2.07.16v-.32Z" fill="#cd8a32" isolation="isolate" opacity=".91" stroke="#cd8a32"/><path d="M343.9,49.51h8.28l6.05,1.27,6.68,2.86,7.48,6.21,4.46,5.73,2.86,6.68,1.27,5.09.32,7.96-.32.32-.32,5.09-.95,3.82-1.91,4.77c-1.99,3.73-4.49,6.97-7.48,9.71-3.08,2.86-6.79,5.09-11.14,6.68l-4.46,1.27-3.82.32-.32.32h-5.09l-7.96-1.59-6.37-2.86c-3.54-2.08-6.57-4.68-9.07-7.8l-3.5-5.09c-.91-1.1-1.44-2.59-1.59-4.46l-.95-1.27-.95-4.46v-2.86l-.32-.32.32-1.27-.32-.32v-6.05l1.59-7.64,2.55-5.41c2.23-3.71,4.93-6.95,8.12-9.71l2.55-1.91,5.73-2.86,8.59-2.23ZM343.42,51.74l-8.28,2.55c-2.97,1.27-5.52,2.97-7.64,5.09-3.61,2.97-6.37,6.79-8.28,11.46l-1.59,5.09-.32,4.14-.32.32.32,8.91.64,3.18c1.27,4.67,3.39,8.7,6.37,12.09,2.97,3.18,6.58,5.84,10.82,7.96l6.68,2.23,4.77.32.32.32,5.73-.32,7-1.91c4.03-1.7,7.53-4.03,10.5-7,2.76-2.97,4.99-6.37,6.68-10.18l1.27-4.14.32-3.5.32-.32v-2.55l.32-.32-.32-7.32-1.59-6.05c-1.49-4.03-3.5-7.32-6.05-9.87-3.18-3.61-7-6.37-11.46-8.28l-7-1.91h-9.23Z" fill="#925916" isolation="isolate" opacity=".97" stroke="#925916"/><path d="M347.72,63.51c1.91-.32,3.02.16,3.34,1.43l3.82,7.8,2.71.64,6.37.64,2.07,1.43.32,2.86-.64,1.27-4.3,4.3c-.47-.15-.63.01-.48.48l-1.59,1.27,1.27,7.32v3.18l-1.11,1.43-1.91.32-8.91-4.46-8.59,4.46h-1.91l-1.43-1.43v-3.82l1.27-7-6.68-6.37-.32-3.5,2.39-1.75,6.68-.64c.28-.47.91-.57,1.91-.32l.48-.48,4.14-8.43,1.11-.64ZM348.83,64.15l-.64.32-1.27,1.27-3.82,7.64-1.59.64-7.64.95-1.91,1.27c0,1.7.64,2.76,1.91,3.18.42-.21.53,0,.32.64l.95.32,3.82,4.46-.95,7.64-.64,1.91.32.95,1.27.64h.95l8.59-4.46,9.23,4.46c1.06.21,1.7,0,1.91-.64l-.32-4.46-.95-3.82v-2.55l7-7v-1.27l-1.59-1.27-8.91-1.27-4.77-8.28-1.27-1.27Z" fill="#925916" isolation="isolate" opacity=".97" stroke="#925916"/><path d="M327.35,72.74l-.16.48-.48,1.11-.16-.48.8-1.11Z" fill="#925916" isolation="isolate" opacity=".97" stroke="#925916"/><path d="M325.76,76.56l.16.8h-.32l.16-.8Z" fill="#925916" isolation="isolate" opacity=".97" stroke="#925916"/><path d="M353.13,53.96l.8.16-.8.16v-.32Z" fill="#f3cc5a" isolation="isolate" opacity=".97" stroke="#f3cc5a"/><path d="M356.31,54.6l.32.64c-.59.15-.7-.06-.32-.64Z" fill="#f3cc5a" isolation="isolate" opacity=".97" stroke="#f3cc5a"/><path d="M362.04,56.83l.8.16-.8.16v-.32Z" fill="#f3cc5a" isolation="isolate" opacity=".97" stroke="#f3cc5a"/><path d="M363.32,57.15l1.43,1.11-.48.16-.95-1.27Z" fill="#f3cc5a" isolation="isolate" opacity=".97" stroke="#f3cc5a"/><path d="M332.76,58.1l-.64.95.64-.95Z" fill="#f3cc5a" isolation="isolate" opacity=".97" stroke="#f3cc5a"/><path d="M360.77,58.42l-.32.64.32-.64Z" fill="#f3cc5a" isolation="isolate" opacity=".97" stroke="#f3cc5a"/><path d="M366.5,59.06l.32.64-.32-.64Z" fill="#f3cc5a" isolation="isolate" opacity=".97" stroke="#f3cc5a"/><path d="M367.45,60.01l1.11.8-.48-.16-.64-.64Z" fill="#f3cc5a" isolation="isolate" opacity=".97" stroke="#f3cc5a"/><path d="M328.62,61.28l-.32.64.32-.64Z" fill="#f3cc5a" isolation="isolate" opacity=".97" stroke="#f3cc5a"/><path d="M369.04,61.28l.64.95-.64-.95Z" fill="#f3cc5a" isolation="isolate" opacity=".97" stroke="#f3cc5a"/><path d="M327.35,62.56l-1.59,1.91,1.59-1.91Z" fill="#f3cc5a" isolation="isolate" opacity=".97" stroke="#f3cc5a"/><path d="M324.8,65.42l-.64.95.64-.95Z" fill="#f3cc5a" isolation="isolate" opacity=".97" stroke="#f3cc5a"/><path d="M373.18,65.74l.32.64-.32-.64Z" fill="#f3cc5a" isolation="isolate" opacity=".97" stroke="#f3cc5a"/><path d="M323.53,67.01l-.32.64.32-.64Z" fill="#f3cc5a" isolation="isolate" opacity=".97" stroke="#f3cc5a"/><path d="M374.46,67.65l.32.64-.32-.64Z" fill="#f3cc5a" isolation="isolate" opacity=".97" stroke="#f3cc5a"/><path d="M322.58,68.6l-.16.48-.16.48-.16-.48.48-.48Z" fill="#f3cc5a" isolation="isolate" opacity=".97" stroke="#f3cc5a"/><path d="M375.09,68.92l.32.64-.32-.64Z" fill="#f3cc5a" isolation="isolate" opacity=".97" stroke="#f3cc5a"/><path d="M356.95,75.61l.8.16-2.07,1.11.64-.95.64-.32Z" fill="#f3cc5a" isolation="isolate" opacity=".97" stroke="#f3cc5a"/><path d="M358.22,75.92l1.75.16-1.75.16v-.32Z" fill="#f3cc5a" isolation="isolate" opacity=".97" stroke="#f3cc5a"/><path d="M361.41,76.24l.8.16-.8.16v-.32Z" fill="#f3cc5a" isolation="isolate" opacity=".97" stroke="#f3cc5a"/><path d="M319.39,76.56l.16.8h-.32l.16-.8Z" fill="#f3cc5a" isolation="isolate" opacity=".97" stroke="#f3cc5a"/><path d="M362.68,76.56l1.43.16-1.43.16v-.32Z" fill="#f3cc5a" isolation="isolate" opacity=".97" stroke="#f3cc5a"/><path d="M378.27,76.88l.16.8h-.32l.16-.8Z" fill="#f3cc5a" isolation="isolate" opacity=".97" stroke="#f3cc5a"/><path d="M353.45,78.15l-.32.64.32-.64Z" fill="#f3cc5a" isolation="isolate" opacity=".97" stroke="#f3cc5a"/><path d="M378.59,79.11l.16,1.11h-.32l.16-1.11Z" fill="#f3cc5a" isolation="isolate" opacity=".97" stroke="#f3cc5a"/><path d="M351.54,79.43l-.32.64.32-.64Z" fill="#f3cc5a" isolation="isolate" opacity=".97" stroke="#f3cc5a"/><path d="M318.76,80.7l.16,1.43h-.32l.16-1.43Z" fill="#f3cc5a" isolation="isolate" opacity=".97" stroke="#f3cc5a"/><path d="M360.45,81.65l-.32.64.32-.64Z" fill="#f3cc5a" isolation="isolate" opacity=".97" stroke="#f3cc5a"/><path d="M346.77,81.97l-.32.64-.48-.16.8-.48Z" fill="#f3cc5a" isolation="isolate" opacity=".97" stroke="#f3cc5a"/><path d="M318.76,84.52l.16,1.75h-.32l.16-1.75Z" fill="#f3cc5a" isolation="isolate" opacity=".97" stroke="#f3cc5a"/><path d="M378.59,84.52l.16.8h-.32l.16-.8Z" fill="#f3cc5a" isolation="isolate" opacity=".97" stroke="#f3cc5a"/><path d="M325.44,85.15l.16.8h-.32l.16-.8Z" fill="#f3cc5a" isolation="isolate" opacity=".97" stroke="#f3cc5a"/><path d="M370.64,85.15l.16.8h-.32l.16-.8Z" fill="#f3cc5a" isolation="isolate" opacity=".97" stroke="#f3cc5a"/><path d="M319.71,90.57l.48,1.11-.64-.32.16-.8Z" fill="#f3cc5a" isolation="isolate" opacity=".97" stroke="#f3cc5a"/><path d="M368.09,92.16l-.32.64.32-.64Z" fill="#f3cc5a" isolation="isolate" opacity=".97" stroke="#f3cc5a"/><path d="M368.73,93.11l-.16.48-.48.8.16-.48.48-.8Z" fill="#f3cc5a" isolation="isolate" opacity=".97" stroke="#f3cc5a"/><path d="M328.94,93.43l.32.64-.32-.64Z" fill="#f3cc5a" isolation="isolate" opacity=".97" stroke="#f3cc5a"/><path d="M327.99,94.07l.32.64-.32-.64Z" fill="#f3cc5a" isolation="isolate" opacity=".97" stroke="#f3cc5a"/><path d="M329.58,94.38l.32.64-.32-.64Z" fill="#f3cc5a" isolation="isolate" opacity=".97" stroke="#f3cc5a"/><path d="M367.77,94.7l-.32.64.32-.64Z" fill="#f3cc5a" isolation="isolate" opacity=".97" stroke="#f3cc5a"/><path d="M365.54,95.66l-1.91,2.23,1.91-2.23Z" fill="#f3cc5a" isolation="isolate" opacity=".97" stroke="#f3cc5a"/><path d="M322.26,97.57l.32.64-.32-.64Z" fill="#f3cc5a" isolation="isolate" opacity=".97" stroke="#f3cc5a"/><path d="M365.54,97.57l-.64.95.64-.95Z" fill="#f3cc5a" isolation="isolate" opacity=".97" stroke="#f3cc5a"/><path d="M333.08,97.89l.32.64-.32-.64Z" fill="#f3cc5a" isolation="isolate" opacity=".97" stroke="#f3cc5a"/><path d="M362.36,98.52l-.32.64.32-.64Z" fill="#f3cc5a" isolation="isolate" opacity=".97" stroke="#f3cc5a"/><path d="M334.67,99.16l.32.64-.32-.64Z" fill="#f3cc5a" isolation="isolate" opacity=".97" stroke="#f3cc5a"/><path d="M333.08,99.8l.64.95-.64-.95Z" fill="#f3cc5a" isolation="isolate" opacity=".97" stroke="#f3cc5a"/><path d="M361.72,101.07l-.32.64.32-.64Z" fill="#f3cc5a" isolation="isolate" opacity=".97" stroke="#f3cc5a"/><path d="M360.77,101.7l-.32.64.32-.64Z" fill="#f3cc5a" isolation="isolate" opacity=".97" stroke="#f3cc5a"/><path d="M345.49,103.3l.8.16-.8.16v-.32Z" fill="#f3cc5a" isolation="isolate" opacity=".97" stroke="#f3cc5a"/><path d="M349.95,103.3l1.11.16-1.11.16v-.32Z" fill="#f3cc5a" isolation="isolate" opacity=".97" stroke="#f3cc5a"/><path d="M415.66,69.39c-.26-.72-.64-1.36-1.15-1.92-.51-.59-1.1-1.08-1.74-1.46-.66-.38-1.44-.52-2.38-.49-1.77.1-3.02.64-3.77,1.61-.74.98-1.07,2.16-.97,3.56.08,1.16.52,2.1,1.33,2.79.79.7,1.7,1.1,2.79,1.18,1.11.1,2.26-.11,3.44-.62,1.18-.51,2.18-1.34,2.97-2.51-.1-.69-.26-1.41-.52-2.13ZM415.66,69.39c-.26-.72-.64-1.36-1.15-1.92-.51-.59-1.1-1.08-1.74-1.46-.66-.38-1.44-.52-2.38-.49-1.77.1-3.02.64-3.77,1.61-.74.98-1.07,2.16-.97,3.56.08,1.16.52,2.1,1.33,2.79.79.7,1.7,1.1,2.79,1.18,1.11.1,2.26-.11,3.44-.62,1.18-.51,2.18-1.34,2.97-2.51-.1-.69-.26-1.41-.52-2.13ZM434.14,69.36v-.02c-.07-.25-.15-.48-.23-.7-.49-1.34-1.08-2.61-1.8-3.75-1.21-1.98-2.77-3.65-4.64-5.06-1.77-2.28-4.05-4.11-6.83-5.51-2.79-1.41-6.16-2.1-10.11-2.1-3.57,0-6.83.79-9.78,2.38-2.95,1.57-5.31,3.79-7.08,6.65-1.77,2.85-2.64,6.16-2.64,9.93,0,2.92.56,5.62,1.67,8.08,1.11,2.48,2.75,4.46,4.95,6,1.2,1.72,2.69,3.1,4.46,4.11-.79.61-1.46,1.41-1.98,2.41-.54,1-.8,2.25-.8,3.72,0,1.95.43,3.54,1.28,4.79.87,1.23,1.9,2.15,3.11,2.75.64,1.29,1.52,2.29,2.64,3,1.11.69,2.31,1.18,3.59,1.46,1.28.28,2.43.41,3.46.41,4.13,0,7.64-.84,10.49-2.51,2.85-1.67,5.16-3.87,6.93-6.59.72-1.11,1.38-2.28,1.93-3.47.69-1.44,1.25-2.97,1.69-4.54.1-.29.16-.59.25-.9.82-3.23,1.23-6.41,1.23-9.52,0-3.92-.59-7.57-1.77-11.01ZM427.51,86.89c-.9,2.95-2.29,5.6-4.15,7.95-1.85,2.34-4.23,4.03-7.11,5.05-1.02.38-2.26.67-3.72.87-1.47.21-2.9.25-4.29.11-1.34-.2-2.52-.64-3.56-1.36-1.02-.72-1.62-1.8-1.8-3.24-.1-.93,0-1.82.28-2.66.28-.84.85-1.51,1.74-2.02.51-.28,1.05-.51,1.61-.7.56-.18,1.11-.31,1.67-.41,2.41-.46,4.36-1.57,5.85-3.31,1.49-1.74,2.38-3.82,2.65-6.24-1.21,1.26-2.75,2.2-4.64,2.79-1.88.61-3.82.87-5.82.77-3.9-.28-6.85-1.65-8.82-4.15-1.98-2.49-2.95-5.6-2.9-9.37,0-2.74.66-5.24,1.95-7.49,1.31-2.26,3.05-4.06,5.23-5.44,2.2-1.36,4.65-2.13,7.39-2.26,3.49-.18,6.51.23,9.06,1.25,2.56,1.03,4.65,2.54,6.28,4.54,1.62,2,2.8,4.41,3.56,7.21.74,2.82,1.07,5.93.97,9.37-.05,2.88-.52,5.8-1.43,8.75ZM414.51,67.47c-.51-.59-1.1-1.08-1.74-1.46-.66-.38-1.44-.52-2.38-.49-1.77.1-3.02.64-3.77,1.61-.74.98-1.07,2.16-.97,3.56.08,1.16.52,2.1,1.33,2.79.79.7,1.7,1.1,2.79,1.18,1.11.1,2.26-.11,3.44-.62,1.18-.51,2.18-1.34,2.97-2.51-.1-.69-.26-1.41-.52-2.13-.26-.72-.64-1.36-1.15-1.92ZM415.66,69.39c-.26-.72-.64-1.36-1.15-1.92-.51-.59-1.1-1.08-1.74-1.46-.66-.38-1.44-.52-2.38-.49-1.77.1-3.02.64-3.77,1.61-.74.98-1.07,2.16-.97,3.56.08,1.16.52,2.1,1.33,2.79.79.7,1.7,1.1,2.79,1.18,1.11.1,2.26-.11,3.44-.62,1.18-.51,2.18-1.34,2.97-2.51-.1-.69-.26-1.41-.52-2.13ZM415.66,69.39c-.26-.72-.64-1.36-1.15-1.92-.51-.59-1.1-1.08-1.74-1.46-.66-.38-1.44-.52-2.38-.49-1.77.1-3.02.64-3.77,1.61-.74.98-1.07,2.16-.97,3.56.08,1.16.52,2.1,1.33,2.79.79.7,1.7,1.1,2.79,1.18,1.11.1,2.26-.11,3.44-.62,1.18-.51,2.18-1.34,2.97-2.51-.1-.69-.26-1.41-.52-2.13Z" fill="#236122"/><path d="M427.96,68.77c-.75-2.8-1.93-5.21-3.56-7.21-1.62-2-3.72-3.51-6.28-4.54-2.56-1.02-5.57-1.43-9.06-1.25-2.74.13-5.2.9-7.39,2.26-2.18,1.38-3.92,3.18-5.23,5.44-1.29,2.25-1.95,4.75-1.95,7.49-.05,3.77.92,6.88,2.9,9.37,1.97,2.49,4.92,3.87,8.82,4.15,2,.1,3.93-.16,5.82-.77,1.88-.59,3.43-1.52,4.64-2.79-.28,2.43-1.16,4.51-2.65,6.24-1.49,1.74-3.44,2.85-5.85,3.31-.56.1-1.11.23-1.67.41-.56.2-1.1.43-1.61.7-.89.51-1.46,1.18-1.74,2.02-.28.84-.38,1.72-.28,2.66.18,1.44.79,2.52,1.8,3.24,1.03.72,2.21,1.16,3.56,1.36,1.39.13,2.82.1,4.29-.11,1.46-.2,2.7-.49,3.72-.87,2.88-1.02,5.26-2.7,7.11-5.05,1.85-2.34,3.24-5,4.15-7.95.9-2.95,1.38-5.87,1.43-8.75.1-3.44-.23-6.56-.97-9.37ZM413.21,74.03c-1.18.51-2.33.72-3.44.62-1.08-.08-2-.47-2.79-1.18-.8-.69-1.25-1.62-1.33-2.79-.1-1.39.23-2.57.97-3.56.75-.97,2-1.51,3.77-1.61.93-.03,1.72.11,2.38.49.64.38,1.23.87,1.74,1.46.51.56.88,1.2,1.15,1.92.26.72.43,1.44.52,2.13-.79,1.16-1.79,2-2.97,2.51Z" fill="#fff"/><path d="M455.63,76.16c-.08-1.43-.31-2.85-.66-4.29-.34-1.43-.9-2.66-1.64-3.65s-1.74-1.49-3-1.49c-1.34,0-2.39.44-3.13,1.36-.75.9-1.28,2.03-1.57,3.41s-.49,2.74-.56,4.08c-.07,1.34-.1,2.48-.1,3.41,0,.84.03,1.98.13,3.43.1,1.44.31,2.88.67,4.31.34,1.44.87,2.67,1.59,3.67.72,1,1.72,1.49,2.97,1.49,2.1,0,3.51-1.08,4.26-3.24.74-2.16,1.13-5.16,1.18-9.01,0-.89-.05-2.05-.15-3.46ZM452.28,79.61c0,.79-.02,1.62-.03,2.51-.02.89-.1,1.79-.25,2.7-.05-.46-.07-.89-.07-1.28v-1.08c0-.74.02-1.57.03-2.51s.1-1.84.25-2.72c.05.46.07.89.07,1.29v1.08ZM455.63,76.16c-.08-1.43-.31-2.85-.66-4.29-.34-1.43-.9-2.66-1.64-3.65s-1.74-1.49-3-1.49c-1.34,0-2.39.44-3.13,1.36-.75.9-1.28,2.03-1.57,3.41s-.49,2.74-.56,4.08c-.07,1.34-.1,2.48-.1,3.41,0,.84.03,1.98.13,3.43.1,1.44.31,2.88.67,4.31.34,1.44.87,2.67,1.59,3.67.72,1,1.72,1.49,2.97,1.49,2.1,0,3.51-1.08,4.26-3.24.74-2.16,1.13-5.16,1.18-9.01,0-.89-.05-2.05-.15-3.46ZM452.28,79.61c0,.79-.02,1.62-.03,2.51-.02.89-.1,1.79-.25,2.7-.05-.46-.07-.89-.07-1.28v-1.08c0-.74.02-1.57.03-2.51s.1-1.84.25-2.72c.05.46.07.89.07,1.29v1.08ZM474.46,75.66v-.02c-.1-.61-.2-1.21-.31-1.84-.39-1.98-.95-3.88-1.72-5.69-.29-.74-.64-1.44-1-2.15-1.28-2.44-3.03-4.49-5.26-6.16-1.59-2.15-3.65-3.87-6.21-5.16-2.56-1.31-5.67-1.95-9.34-1.95-3.44,0-6.38.56-8.82,1.7-2.44,1.13-4.47,2.66-6.1,4.57-1.49,1.75-2.7,3.72-3.59,5.9-.1.18-.18.36-.25.54-.93,2.39-1.59,4.87-1.98,7.42s-.59,5.01-.59,7.39c0,2.64.28,5.29.87,7.95.54,2.51,1.41,4.9,2.59,7.15.05.12.1.23.16.34,1.25,2.34,2.95,4.31,5.08,5.88,1.67,2.15,3.79,3.87,6.31,5.19,2.54,1.33,5.62,1.98,9.24,1.98,3.29,0,6.16-.52,8.6-1.59,2.44-1.08,4.47-2.52,6.1-4.36,1.62-1.84,2.93-3.92,3.93-6.24.44-1.02.82-2.07,1.13-3.11,0,0-.02,0,0-.02.44-1.34.77-2.7,1-4.11.16-1.02.31-2.02.39-3v-.02c.16-1.46.23-2.88.23-4.31,0-2.06-.16-4.16-.48-6.31ZM466.92,87.27c-.61,2.7-1.57,5.15-2.92,7.33-1.36,2.18-3.15,3.92-5.38,5.19-2.23,1.28-5,1.93-8.29,1.98-2.88.05-5.42-.46-7.64-1.49-2.2-1.05-4.05-2.57-5.54-4.57-1.13-1.44-2.03-3.08-2.72-4.92-1.26-3.31-1.82-7.26-1.67-11.82.05-2.79.39-5.52,1.02-8.23.11-.48.23-.93.36-1.39v-.02c.62-2.15,1.51-4.13,2.64-5.93,1.36-2.21,3.16-3.97,5.39-5.28,2.25-1.29,4.95-1.95,8.16-1.95,2.88-.03,5.44.46,7.67,1.51,2.23,1.05,4.08,2.54,5.57,4.49,1.49,2,2.61,4.43,3.34,7.29.75,2.85,1.1,6.03,1.05,9.5-.1,2.84-.44,5.6-1.05,8.29ZM454.97,71.86c-.34-1.43-.9-2.66-1.64-3.65s-1.74-1.49-3-1.49c-1.34,0-2.39.44-3.13,1.36-.75.9-1.28,2.03-1.57,3.41s-.49,2.74-.56,4.08c-.07,1.34-.1,2.48-.1,3.41,0,.84.03,1.98.13,3.43.1,1.44.31,2.88.67,4.31.34,1.44.87,2.67,1.59,3.67.72,1,1.72,1.49,2.97,1.49,2.1,0,3.51-1.08,4.26-3.24.74-2.16,1.13-5.16,1.18-9.01,0-.89-.05-2.05-.15-3.46-.08-1.43-.31-2.85-.66-4.29ZM452.28,79.61c0,.79-.02,1.62-.03,2.51-.02.89-.1,1.79-.25,2.7-.05-.46-.07-.89-.07-1.28v-1.08c0-.74.02-1.57.03-2.51s.1-1.84.25-2.72c.05.46.07.89.07,1.29v1.08ZM455.63,76.16c-.08-1.43-.31-2.85-.66-4.29-.34-1.43-.9-2.66-1.64-3.65s-1.74-1.49-3-1.49c-1.34,0-2.39.44-3.13,1.36-.75.9-1.28,2.03-1.57,3.41s-.49,2.74-.56,4.08c-.07,1.34-.1,2.48-.1,3.41,0,.84.03,1.98.13,3.43.1,1.44.31,2.88.67,4.31.34,1.44.87,2.67,1.59,3.67.72,1,1.72,1.49,2.97,1.49,2.1,0,3.51-1.08,4.26-3.24.74-2.16,1.13-5.16,1.18-9.01,0-.89-.05-2.05-.15-3.46ZM452.28,79.61c0,.79-.02,1.62-.03,2.51-.02.89-.1,1.79-.25,2.7-.05-.46-.07-.89-.07-1.28v-1.08c0-.74.02-1.57.03-2.51s.1-1.84.25-2.72c.05.46.07.89.07,1.29v1.08ZM455.63,76.16c-.08-1.43-.31-2.85-.66-4.29-.34-1.43-.9-2.66-1.64-3.65s-1.74-1.49-3-1.49c-1.34,0-2.39.44-3.13,1.36-.75.9-1.28,2.03-1.57,3.41s-.49,2.74-.56,4.08c-.07,1.34-.1,2.48-.1,3.41,0,.84.03,1.98.13,3.43.1,1.44.31,2.88.67,4.31.34,1.44.87,2.67,1.59,3.67.72,1,1.72,1.49,2.97,1.49,2.1,0,3.51-1.08,4.26-3.24.74-2.16,1.13-5.16,1.18-9.01,0-.89-.05-2.05-.15-3.46ZM452.28,79.61c0,.79-.02,1.62-.03,2.51-.02.89-.1,1.79-.25,2.7-.05-.46-.07-.89-.07-1.28v-1.08c0-.74.02-1.57.03-2.51s.1-1.84.25-2.72c.05.46.07.89.07,1.29v1.08Z" fill="#236122"/><path d="M466.92,69.47c-.74-2.87-1.85-5.29-3.34-7.29-1.49-1.95-3.34-3.44-5.57-4.49-2.23-1.05-4.79-1.54-7.67-1.51-3.21,0-5.92.66-8.16,1.95-2.23,1.31-4.03,3.06-5.39,5.28-1.13,1.8-2.02,3.79-2.64,5.93v.02c1.18,3.44,1.77,7.1,1.77,11.01,0,3.11-.41,6.29-1.23,9.52-.08.31-.15.61-.25.9.69,1.84,1.59,3.47,2.72,4.92,1.49,2,3.34,3.52,5.54,4.57,2.21,1.03,4.75,1.54,7.64,1.49,3.29-.05,6.06-.7,8.29-1.98,2.23-1.28,4.02-3.02,5.38-5.19,1.34-2.18,2.31-4.62,2.92-7.33.61-2.69.95-5.46,1.05-8.29.05-3.47-.29-6.65-1.05-9.5ZM454.6,88.63c-.75,2.16-2.16,3.24-4.26,3.24-1.25,0-2.25-.49-2.97-1.49-.72-1-1.25-2.23-1.59-3.67-.36-1.43-.57-2.87-.67-4.31-.1-1.44-.13-2.59-.13-3.43,0-.93.03-2.06.1-3.41.07-1.34.26-2.7.56-4.08s.82-2.51,1.57-3.41c.74-.92,1.79-1.36,3.13-1.36,1.26,0,2.26.49,3,1.49s1.29,2.23,1.64,3.65c.34,1.44.57,2.87.66,4.29.1,1.41.15,2.57.15,3.46-.05,3.85-.44,6.85-1.18,9.01Z" fill="#fff"/><path d="M497.11,76.16c-.1-1.43-.31-2.85-.66-4.29-.36-1.43-.9-2.66-1.64-3.65-.75-1-1.75-1.49-3-1.49-1.36,0-2.39.44-3.15,1.36-.74.9-1.26,2.03-1.56,3.41-.31,1.38-.49,2.74-.56,4.08-.08,1.34-.11,2.48-.11,3.41,0,.84.05,1.98.15,3.43.08,1.44.31,2.88.66,4.31.34,1.44.88,2.67,1.61,3.67.72,1,1.7,1.49,2.97,1.49,2.08,0,3.51-1.08,4.24-3.24.75-2.16,1.15-5.16,1.2-9.01,0-.89-.05-2.05-.15-3.46ZM493.76,79.61c0,.79-.02,1.62-.03,2.51-.03.89-.11,1.79-.25,2.7-.05-.46-.07-.89-.07-1.28v-1.08c0-.74,0-1.57.03-2.51.02-.93.1-1.84.25-2.72.03.46.07.89.07,1.29v1.08ZM497.11,76.16c-.1-1.43-.31-2.85-.66-4.29-.36-1.43-.9-2.66-1.64-3.65-.75-1-1.75-1.49-3-1.49-1.36,0-2.39.44-3.15,1.36-.74.9-1.26,2.03-1.56,3.41-.31,1.38-.49,2.74-.56,4.08-.08,1.34-.11,2.48-.11,3.41,0,.84.05,1.98.15,3.43.08,1.44.31,2.88.66,4.31.34,1.44.88,2.67,1.61,3.67.72,1,1.7,1.49,2.97,1.49,2.08,0,3.51-1.08,4.24-3.24.75-2.16,1.15-5.16,1.2-9.01,0-.89-.05-2.05-.15-3.46ZM493.76,79.61c0,.79-.02,1.62-.03,2.51-.03.89-.11,1.79-.25,2.7-.05-.46-.07-.89-.07-1.28v-1.08c0-.74,0-1.57.03-2.51.02-.93.1-1.84.25-2.72.03.46.07.89.07,1.29v1.08ZM515.61,73.81c-.52-2.79-1.44-5.39-2.72-7.83-1.28-2.44-3.03-4.49-5.26-6.16-1.57-2.15-3.64-3.87-6.19-5.16-2.56-1.31-5.67-1.95-9.34-1.95-3.44,0-6.38.56-8.82,1.7-2.44,1.13-4.47,2.66-6.1,4.57-1.64,1.9-2.92,4.05-3.83,6.44-.34.89-.66,1.79-.92,2.7-.48,1.54-.84,3.11-1.08,4.72-.39,2.56-.59,5.01-.59,7.39,0,2.64.29,5.29.87,7.95.41,1.8.97,3.56,1.69,5.23-.02.02,0,.02,0,.02.33.77.67,1.51,1.07,2.24,1.26,2.34,2.95,4.31,5.1,5.88,1.67,2.15,3.77,3.87,6.31,5.19,2.52,1.33,5.6,1.98,9.23,1.98,3.31,0,6.18-.52,8.62-1.59,2.44-1.08,4.47-2.52,6.1-4.36,1.62-1.84,2.93-3.92,3.93-6.24s1.7-4.74,2.13-7.24c.41-2.51.62-4.95.62-7.33,0-2.66-.26-5.36-.8-8.16ZM508.4,87.27c-.61,2.7-1.57,5.15-2.93,7.33-1.34,2.18-3.13,3.92-5.36,5.19-2.23,1.28-5,1.93-8.29,1.98-2.88.05-5.42-.46-7.64-1.49-2.21-1.05-4.05-2.57-5.54-4.57-1.98-2.56-3.29-5.69-3.93-9.41v-.02c-.39-2.23-.54-4.67-.46-7.31.02-1.11.08-2.21.21-3.31v-.02c.15-1.66.43-3.28.8-4.9.62-2.69,1.62-5.15,2.98-7.34,1.38-2.21,3.18-3.97,5.41-5.28,2.23-1.29,4.95-1.95,8.16-1.95,2.88-.03,5.44.46,7.67,1.51,2.23,1.05,4.08,2.54,5.57,4.49,1.49,2,2.61,4.43,3.34,7.29.74,2.85,1.1,6.03,1.05,9.5-.1,2.84-.44,5.6-1.05,8.29ZM496.45,71.86c-.36-1.43-.9-2.66-1.64-3.65-.75-1-1.75-1.49-3-1.49-1.36,0-2.39.44-3.15,1.36-.74.9-1.26,2.03-1.56,3.41-.31,1.38-.49,2.74-.56,4.08-.08,1.34-.11,2.48-.11,3.41,0,.84.05,1.98.15,3.43.08,1.44.31,2.88.66,4.31.34,1.44.88,2.67,1.61,3.67.72,1,1.7,1.49,2.97,1.49,2.08,0,3.51-1.08,4.24-3.24.75-2.16,1.15-5.16,1.2-9.01,0-.89-.05-2.05-.15-3.46-.1-1.43-.31-2.85-.66-4.29ZM493.76,79.61c0,.79-.02,1.62-.03,2.51-.03.89-.11,1.79-.25,2.7-.05-.46-.07-.89-.07-1.28v-1.08c0-.74,0-1.57.03-2.51.02-.93.1-1.84.25-2.72.03.46.07.89.07,1.29v1.08Z" fill="#236122"/><path d="M508.4,69.47c-.74-2.87-1.85-5.29-3.34-7.29-1.49-1.95-3.34-3.44-5.57-4.49-2.23-1.05-4.79-1.54-7.67-1.51-3.21,0-5.93.66-8.16,1.95-2.23,1.31-4.03,3.06-5.41,5.28-1.36,2.2-2.36,4.65-2.98,7.34-.38,1.62-.66,3.24-.8,4.9v.02c.31,2.15.48,4.25.48,6.31,0,1.43-.07,2.85-.23,4.31v.02c.64,3.72,1.95,6.85,3.93,9.41,1.49,2,3.33,3.52,5.54,4.57,2.21,1.03,4.75,1.54,7.64,1.49,3.29-.05,6.06-.7,8.29-1.98,2.23-1.28,4.02-3.02,5.36-5.19,1.36-2.18,2.33-4.62,2.93-7.33.61-2.69.95-5.46,1.05-8.29.05-3.47-.31-6.65-1.05-9.5ZM496.06,88.63c-.74,2.16-2.16,3.24-4.24,3.24-1.26,0-2.25-.49-2.97-1.49-.72-1-1.26-2.23-1.61-3.67-.34-1.43-.57-2.87-.66-4.31-.1-1.44-.15-2.59-.15-3.43,0-.93.03-2.06.11-3.41.07-1.34.25-2.7.56-4.08.29-1.38.82-2.51,1.56-3.41.75-.92,1.79-1.36,3.15-1.36,1.25,0,2.25.49,3,1.49.74,1,1.28,2.23,1.64,3.65.34,1.44.56,2.87.66,4.29.1,1.41.15,2.57.15,3.46-.05,3.85-.44,6.85-1.2,9.01Z" fill="#fff"/><path d="M77.96,71.5c-.99-1.31-2.4-1.99-4.22-1.99-1.36,0-2.83.43-4.43,1.24-.19.14-.29.31-.29.51l.07,10.48c0,.29.27.51.8.66.53.14,1.11.24,1.74.29.63.03,1.04.07,1.24.07,2.21,0,3.85-.65,4.88-1.92s1.57-2.83,1.62-4.66c.05-1.79-.43-3.34-1.41-4.68ZM77.96,71.5c-.99-1.31-2.4-1.99-4.22-1.99-1.36,0-2.83.43-4.43,1.24-.19.14-.29.31-.29.51l.07,10.48c0,.29.27.51.8.66.53.14,1.11.24,1.74.29.63.03,1.04.07,1.24.07,2.21,0,3.85-.65,4.88-1.92s1.57-2.83,1.62-4.66c.05-1.79-.43-3.34-1.41-4.68ZM96.42,69.5c-.56-1.38-1.26-2.64-2.11-3.8v-.02c-.82-1.16-1.77-2.21-2.86-3.15-.34-.29-.7-.58-1.07-.85-1.6-2.08-3.59-3.76-5.97-5.07-2.38-1.29-5.23-1.94-8.51-1.94-3.03,0-5.97.66-8.83,2.03-.77-.34-1.55-.58-2.31-.73-.77-.14-1.46-.22-2.09-.22-2.94,0-5.21.94-6.77,2.79-1.57,1.85-2.33,4.07-2.28,6.62l.29,30.77c0,1.5.1,3.01.29,4.56.2,1.55.65,2.98,1.38,4.31.73,1.33,1.86,2.35,3.4,3.08.71,1.4,1.75,2.5,3.08,3.32,1.33.83,2.94,1.24,4.88,1.24,2.79,0,4.92-.73,6.37-2.21,1.45-1.46,2.42-3.15,2.89-5.04.19-.71.32-1.45.36-2.2.05-.75.1-1.45.15-2.06.53.03,1.06.1,1.6.17.53.07,1.06.12,1.58.12,3.23,0,6.04-.68,8.41-1.99.89-.49,1.7-1.06,2.47-1.67,1.26-1.02,2.37-2.2,3.28-3.52.02-.02.02-.03.03-.05,1.45-2.09,2.54-4.43,3.25-6.96.73-2.55,1.09-5.07,1.09-7.52,0-3.44-.66-6.76-1.99-10.01ZM90.45,82.05c-.34,1.33-.8,2.54-1.38,3.68-1.34,2.65-3.13,4.7-5.34,6.13-2.23,1.41-4.71,2.13-7.47,2.13-2.16,0-4.46-.51-6.88-1.51v5.14c-.03,2.55-.58,4.49-1.62,5.82-1.04,1.33-2.74,1.92-5.11,1.77-1.79-.19-3.11-.95-3.98-2.31-.87-1.34-1.26-3.66-1.16-6.94l-.29-30.77c-.05-2.11.49-3.61,1.63-4.48,1.12-.87,2.4-1.31,3.8-1.31,1.84,0,3.28.53,4.34,1.6,1.34-.92,2.79-1.6,4.31-2.03,1.51-.44,3.05-.66,4.6-.66,2.6,0,5.09.66,7.42,1.99,2.35,1.33,4.26,3.32,5.72,5.97.6,1.07,1.07,2.26,1.41,3.57.51,1.91.75,4.05.73,6.42-.03,2.11-.27,4.05-.73,5.8ZM73.74,69.5c-1.36,0-2.83.43-4.43,1.24-.19.14-.29.31-.29.51l.07,10.48c0,.29.27.51.8.66.53.14,1.11.24,1.74.29.63.03,1.04.07,1.24.07,2.21,0,3.85-.65,4.88-1.92s1.57-2.83,1.62-4.66c.05-1.79-.43-3.34-1.41-4.68-.99-1.31-2.4-1.99-4.22-1.99ZM77.96,71.5c-.99-1.31-2.4-1.99-4.22-1.99-1.36,0-2.83.43-4.43,1.24-.19.14-.29.31-.29.51l.07,10.48c0,.29.27.51.8.66.53.14,1.11.24,1.74.29.63.03,1.04.07,1.24.07,2.21,0,3.85-.65,4.88-1.92s1.57-2.83,1.62-4.66c.05-1.79-.43-3.34-1.41-4.68ZM77.96,71.5c-.99-1.31-2.4-1.99-4.22-1.99-1.36,0-2.83.43-4.43,1.24-.19.14-.29.31-.29.51l.07,10.48c0,.29.27.51.8.66.53.14,1.11.24,1.74.29.63.03,1.04.07,1.24.07,2.21,0,3.85-.65,4.88-1.92s1.57-2.83,1.62-4.66c.05-1.79-.43-3.34-1.41-4.68Z" fill="#236122"/><path d="M89.04,66.25c-1.46-2.65-3.37-4.65-5.72-5.97-2.33-1.33-4.82-1.99-7.42-1.99-1.55,0-3.08.22-4.6.66-1.51.43-2.96,1.11-4.31,2.03-1.06-1.07-2.5-1.6-4.34-1.6-1.4,0-2.67.44-3.8,1.31-1.14.87-1.69,2.37-1.63,4.48l.29,30.77c-.1,3.28.29,5.6,1.16,6.94.87,1.36,2.2,2.13,3.98,2.31,2.37.15,4.07-.44,5.11-1.77,1.04-1.33,1.58-3.27,1.62-5.82v-5.14c2.42,1,4.71,1.51,6.88,1.51,2.76,0,5.24-.71,7.47-2.13,2.21-1.43,4-3.47,5.34-6.13.58-1.14,1.04-2.35,1.38-3.68v-12.22c-.34-1.31-.82-2.5-1.41-3.57ZM77.75,80.84c-1.04,1.28-2.67,1.92-4.88,1.92-.2,0-.61-.03-1.24-.07-.63-.05-1.21-.15-1.74-.29-.53-.15-.8-.37-.8-.66l-.07-10.48c0-.2.1-.37.29-.51,1.6-.82,3.06-1.24,4.43-1.24,1.82,0,3.23.68,4.22,1.99.99,1.34,1.46,2.89,1.41,4.68-.05,1.84-.58,3.39-1.62,4.66Z" fill="#fff"/><path d="M113.65,65.71c-.75-2.25-2.2-3.98-4.37-5.24-.82-1.4-1.94-2.55-3.34-3.44-1.4-.9-3.11-1.34-5.14-1.34-2.6,0-4.65.65-6.14,1.96-1.48,1.29-2.54,2.91-3.2,4.9-.02.03-.02.05-.03.08-.65,2.04-.97,4.15-.97,6.38v24.83c0,1.26.1,2.5.31,3.73.2,1.09.46,2.16.82,3.22.75,2.26,2.21,4,4.37,5.21.82,1.4,1.94,2.55,3.34,3.44,1.4.9,3.11,1.34,5.14,1.34,2.6,0,4.66-.65,6.14-1.96,1.5-1.31,2.57-2.96,3.23-4.99.22-.71.41-1.43.54-2.16v-.02c.29-1.36.43-2.76.43-4.2v-24.83c0-2.35-.37-4.66-1.12-6.91ZM107.54,93.84c0,6.47-2.25,9.7-6.74,9.7s-6.69-3.18-6.72-9.55v-24.99c0-1.21.09-2.31.24-3.3v-.02c.68-4.26,2.86-6.38,6.48-6.38,4.49,0,6.74,3.23,6.74,9.7v24.83Z" fill="#236122"/><path d="M107.54,69.01v24.83c0,6.47-2.25,9.7-6.74,9.7s-6.69-3.18-6.72-9.55c1.45-2.09,2.54-4.43,3.25-6.96.73-2.55,1.09-5.07,1.09-7.52,0-3.44-.66-6.76-1.99-10.01-.56-1.38-1.26-2.64-2.11-3.8v-.02c.68-4.26,2.86-6.38,6.48-6.38,4.49,0,6.74,3.23,6.74,9.7Z" fill="#fff"/><path d="M131.06,81.25c-.58-.15-1.11-.22-1.58-.22-1.79,0-3.23.56-4.32,1.7-1.07,1.12-1.62,2.62-1.62,4.44,0,1.7.54,3.06,1.62,4.14,1.09,1.06,2.54,1.58,4.32,1.58,1.16,0,2.21-.32,3.18-1v-10.06c-.49-.26-1.02-.44-1.6-.58ZM131.06,81.25c-.58-.15-1.11-.22-1.58-.22-1.79,0-3.23.56-4.32,1.7-1.07,1.12-1.62,2.62-1.62,4.44,0,1.7.54,3.06,1.62,4.14,1.09,1.06,2.54,1.58,4.32,1.58,1.16,0,2.21-.32,3.18-1v-10.06c-.49-.26-1.02-.44-1.6-.58ZM152.23,76.47c-.2-.6-.44-1.16-.75-1.68-.71-1.29-1.75-2.37-3.1-3.2-.17-.12-.34-.22-.53-.32-.77-1.41-1.87-2.55-3.3-3.44-1.41-.9-3.15-1.34-5.17-1.34-2.5,0-4.65.75-6.43,2.25-1.7-.53-3.34-.8-4.92-.8-4.02,0-7.47.88-10.37,2.64-1.06.65-2.01,1.38-2.89,2.2-1.53,1.4-2.79,3.08-3.8,5-1.57,3.05-2.35,6.45-2.35,10.21,0,3.18.61,6.04,1.87,8.58,1,2.01,2.28,3.71,3.85,5.11v.02c.41.39.85.73,1.29,1.07,1.65,2.21,3.73,3.95,6.26,5.21,2.54,1.26,5.41,1.89,8.65,1.89,2.18,0,4.26-.39,6.23-1.16.87.71,1.84,1.24,2.89,1.58,1.07.34,2.18.51,3.34.51.71,0,1.41-.05,2.04-.15,1.6-.26,2.93-.83,4-1.75.02-.02.05-.03.07-.05.53-.44.99-.94,1.41-1.46l.02-.02c.78-1.02,1.4-2.18,1.84-3.51.07-.19.12-.39.15-.58.54-1.85.82-3.78.82-5.8v-14.04c0-2.37-.37-4.68-1.12-6.94ZM139.38,103.55c-2.42,0-4.19-1-5.34-2.98-2.04,1.36-4.41,2.03-7.1,2.03-2.94,0-5.51-.61-7.71-1.84-1.82-1.02-3.3-2.37-4.46-4.05-.24-.36-.48-.71-.68-1.09-1.24-2.19-1.86-4.75-1.86-7.64,0-3.29.66-6.14,1.96-8.61.19-.34.37-.68.58-1,1.26-1.99,2.88-3.56,4.92-4.75,2.37-1.38,5.14-2.06,8.34-2.06,2.11,0,4.12.53,6.01,1.58,1.11-2.03,2.89-3.05,5.34-3.05,4.49,0,6.74,3.23,6.74,9.72v14.04c0,6.47-2.25,9.7-6.74,9.7ZM129.48,81.03c-1.79,0-3.23.56-4.32,1.7-1.07,1.12-1.62,2.62-1.62,4.44,0,1.7.54,3.06,1.62,4.14,1.09,1.06,2.54,1.58,4.32,1.58,1.16,0,2.21-.32,3.18-1v-10.06c-.49-.26-1.02-.44-1.6-.58-.58-.15-1.11-.22-1.58-.22ZM131.06,81.25c-.58-.15-1.11-.22-1.58-.22-1.79,0-3.23.56-4.32,1.7-1.07,1.12-1.62,2.62-1.62,4.44,0,1.7.54,3.06,1.62,4.14,1.09,1.06,2.54,1.58,4.32,1.58,1.16,0,2.21-.32,3.18-1v-10.06c-.49-.26-1.02-.44-1.6-.58ZM131.06,81.25c-.58-.15-1.11-.22-1.58-.22-1.79,0-3.23.56-4.32,1.7-1.07,1.12-1.62,2.62-1.62,4.44,0,1.7.54,3.06,1.62,4.14,1.09,1.06,2.54,1.58,4.32,1.58,1.16,0,2.21-.32,3.18-1v-10.06c-.49-.26-1.02-.44-1.6-.58Z" fill="#236122"/><path d="M139.38,70.08c-2.45,0-4.24,1.02-5.34,3.05-1.89-1.05-3.9-1.58-6.01-1.58-3.2,0-5.97.68-8.34,2.06-2.04,1.19-3.66,2.76-4.92,4.75v18.35c1.16,1.69,2.64,3.03,4.46,4.05,2.2,1.23,4.77,1.84,7.71,1.84,2.69,0,5.06-.66,7.1-2.03,1.16,1.97,2.93,2.98,5.34,2.98,4.49,0,6.74-3.23,6.74-9.7v-14.04c0-6.48-2.25-9.72-6.74-9.72ZM132.66,91.89c-.97.68-2.03,1-3.18,1-1.79,0-3.23-.53-4.32-1.58-1.07-1.07-1.62-2.43-1.62-4.14,0-1.82.54-3.32,1.62-4.44,1.09-1.14,2.54-1.7,4.32-1.7.48,0,1,.07,1.58.22.58.14,1.11.32,1.6.58v10.06Z" fill="#fff"/><path d="M189.15,73.74c-.75-1.46-1.89-2.57-3.44-3.29-.66-1.31-1.63-2.37-2.89-3.18-1.26-.83-2.79-1.24-4.63-1.24s-3.52.49-4.78,1.48c-1.24,1-2.2,2.09-2.83,3.3-.32.53-.6,1.11-.78,1.7-.2.61-.37,1.17-.51,1.7-.1.34-.19.68-.26,1.02-.07.32-.15.66-.26,1-.39-1.11-.92-2.18-1.58-3.18-.68-1.02-1.65-1.84-2.91-2.47-.66-1.24-1.63-2.31-2.89-3.22-1.26-.89-3.03-1.34-5.34-1.34-2.04,0-3.64.46-4.82,1.34-1.19.9-2.04,2.01-2.57,3.37-.1.27-.2.55-.27.83-.36,1.07-.53,2.18-.53,3.28,0,1.84.26,4.05.77,6.67.49,2.6,1.19,5.29,2.06,8.1.78,2.54,1.67,4.95,2.67,7.22.09.22.19.46.29.68,1.11,2.45,2.3,4.46,3.56,6.01-.78-.05-1.53-.12-2.25-.19-.73-.07-1.48-.1-2.25-.1h-.17c-2.16.03-3.91.71-5.33,2.06-1.4,1.33-2.13,3.1-2.16,5.31-.02.07-.02.15-.02.22,0,1.92.46,3.52,1.38,4.78.92,1.26,2.01,2.21,3.25,2.89.78,1.45,1.82,2.59,3.15,3.4,1.33.82,2.77,1.4,4.34,1.74,1.58.34,3.11.51,4.61.51,3.22,0,6.11-.54,8.65-1.63s4.71-2.55,6.55-4.41c1.82-1.87,3.39-3.97,4.66-6.3,1.28-2.35,2.3-4.77,3.08-7.29,1.11-3.61,2.08-7.27,2.93-10.96.85-3.69,1.6-7.4,2.28-11.11.1-.68.19-1.34.26-2.03.07-.68.1-1.33.1-1.96,0-1.69-.37-3.27-1.12-4.75ZM182.57,79c-.31,1.87-.73,4.05-1.26,6.52-.53,2.45-1.12,4.94-1.77,7.45-.66,2.5-1.29,4.8-1.92,6.88-1.63,5.31-4.08,9.48-7.32,12.51-3.23,3.05-7.28,4.56-12.15,4.56-3.1,0-5.45-.58-7.06-1.77-1.62-1.18-2.42-2.62-2.42-4.31,0-.77.12-1.43.39-1.97.15-.39.39-.71.68-.99.24-.22.51-.41.8-.53l.02-.02c.6-.32,1.33-.48,2.16-.48.77,0,1.46.05,2.09.15.63.08,1.53.14,2.69.14,1.69,0,3.27-.43,4.77-1.26,1.5-.85,2.69-2.31,3.56-4.37l-5.65-.08c-.97-1.11-1.96-2.74-2.96-4.89-1.02-2.15-1.96-4.53-2.83-7.13-.37-1.12-.71-2.25-1.02-3.37-.43-1.46-.78-2.93-1.09-4.37-.53-2.55-.78-4.82-.78-6.81v-.08c.02-1.55.37-2.79,1.11-3.71.75-.94,1.91-1.41,3.46-1.41,1.63,0,2.86.34,3.68,1.02.83.66,1.41,1.5,1.75,2.45.32.97.61,1.91.87,2.83,1.11,4.44,1.94,7.88,2.52,10.31.58,2.43,1.04,4.14,1.34,5.07.32.94.66,1.41,1.06,1.41.63,0,1.16-.44,1.58-1.34.44-.89.9-2.42,1.38-4.56.48-2.14,1.11-5.12,1.89-8.94.48-2.37,1.12-4.32,1.91-5.91.8-1.57,2.2-2.35,4.17-2.35,1.55,0,2.74.48,3.59,1.41.83.94,1.26,2.21,1.26,3.8,0,.87-.15,2.25-.48,4.14Z" fill="#236122"/><path d="M183.04,74.87c0,.87-.15,2.25-.48,4.14-.31,1.87-.73,4.05-1.26,6.52-.53,2.45-1.12,4.94-1.77,7.45-.66,2.5-1.29,4.8-1.92,6.88-1.63,5.31-4.08,9.48-7.32,12.51-3.23,3.05-7.28,4.56-12.15,4.56-3.1,0-5.45-.58-7.06-1.77-1.62-1.18-2.42-2.62-2.42-4.31,0-.77.12-1.43.39-1.97.02-.02.05-.03.07-.05.53-.44.99-.94,1.41-1.46l.02-.02c.6-.32,1.33-.48,2.16-.48.77,0,1.46.05,2.09.15.63.08,1.53.14,2.69.14,1.69,0,3.27-.43,4.77-1.26,1.5-.85,2.69-2.31,3.56-4.37l-5.65-.08c-.97-1.11-1.96-2.74-2.96-4.89-1.02-2.15-1.96-4.53-2.83-7.13-.37-1.12-.71-2.25-1.02-3.37v-2.64c0-2.37-.37-4.68-1.12-6.94-.2-.6-.44-1.16-.75-1.68.02-1.55.37-2.79,1.11-3.71.75-.94,1.91-1.41,3.46-1.41,1.63,0,2.86.34,3.68,1.02.83.66,1.41,1.5,1.75,2.45.32.97.61,1.91.87,2.83,1.11,4.44,1.94,7.88,2.52,10.31.58,2.43,1.04,4.14,1.34,5.07.32.94.66,1.41,1.06,1.41.63,0,1.16-.44,1.58-1.34.44-.89.9-2.42,1.38-4.56.48-2.14,1.11-5.12,1.89-8.94.48-2.37,1.12-4.32,1.91-5.91.8-1.57,2.2-2.35,4.17-2.35,1.55,0,2.74.48,3.59,1.41.83.94,1.26,2.21,1.26,3.8Z" fill="#fff"/><path d="M229.18,82.76c-.99-1.16-2.3-1.74-3.93-1.74s-2.98.58-3.98,1.74c-1.02,1.16-1.53,2.71-1.53,4.63s.51,3.49,1.53,4.66c1,1.19,2.33,1.79,3.98,1.79s2.94-.6,3.93-1.79c1-1.17,1.5-2.72,1.5-4.66s-.49-3.47-1.5-4.63ZM229.18,82.76c-.99-1.16-2.3-1.74-3.93-1.74s-2.98.58-3.98,1.74c-1.02,1.16-1.53,2.71-1.53,4.63s.51,3.49,1.53,4.66c1,1.19,2.33,1.79,3.98,1.79s2.94-.6,3.93-1.79c1-1.17,1.5-2.72,1.5-4.66s-.49-3.47-1.5-4.63ZM246.63,80.96c-.17-.36-.34-.7-.53-1.05-.87-1.62-1.94-3.06-3.2-4.29-.58-.6-1.21-1.12-1.87-1.62-1.74-2.31-3.97-4.14-6.65-5.46-2.71-1.33-5.8-1.99-9.28-1.99-4.05,0-7.57.89-10.57,2.64-3,1.77-5.31,4.19-6.94,7.25-1.65,3.06-2.47,6.55-2.47,10.45,0,3.52.68,6.72,2.03,9.57,1.36,2.84,3.22,5.16,5.58,6.94,1.74,2.31,3.97,4.14,6.69,5.46,2.72,1.33,5.84,1.99,9.31,1.99,4.05,0,7.57-.89,10.57-2.64,2.21-1.31,4.05-2.98,5.51-4.99.51-.71.97-1.45,1.4-2.25.27-.51.51-1.04.73-1.57,1.12-2.67,1.69-5.63,1.69-8.9,0-3.52-.66-6.71-1.99-9.55ZM239.36,95.65c-1.34,2.5-3.25,4.46-5.68,5.87-2.43,1.4-5.29,2.09-8.58,2.09s-6.14-.7-8.61-2.09c-2.47-1.41-4.37-3.37-5.72-5.87-1.34-2.5-2.03-5.43-2.03-8.77s.68-6.25,2.03-8.75c1.34-2.52,3.25-4.48,5.72-5.87,2.47-1.4,5.33-2.09,8.61-2.09s6.14.7,8.58,2.09c2.43,1.4,4.34,3.35,5.68,5.87,1.34,2.5,2.03,5.43,2.03,8.75s-.68,6.26-2.03,8.77ZM225.25,81.03c-1.65,0-2.98.58-3.98,1.74-1.02,1.16-1.53,2.71-1.53,4.63s.51,3.49,1.53,4.66c1,1.19,2.33,1.79,3.98,1.79s2.94-.6,3.93-1.79c1-1.17,1.5-2.72,1.5-4.66s-.49-3.47-1.5-4.63c-.99-1.16-2.3-1.74-3.93-1.74ZM229.18,82.76c-.99-1.16-2.3-1.74-3.93-1.74s-2.98.58-3.98,1.74c-1.02,1.16-1.53,2.71-1.53,4.63s.51,3.49,1.53,4.66c1,1.19,2.33,1.79,3.98,1.79s2.94-.6,3.93-1.79c1-1.17,1.5-2.72,1.5-4.66s-.49-3.47-1.5-4.63ZM229.18,82.76c-.99-1.16-2.3-1.74-3.93-1.74s-2.98.58-3.98,1.74c-1.02,1.16-1.53,2.71-1.53,4.63s.51,3.49,1.53,4.66c1,1.19,2.33,1.79,3.98,1.79s2.94-.6,3.93-1.79c1-1.17,1.5-2.72,1.5-4.66s-.49-3.47-1.5-4.63Z" fill="#236122"/><path d="M239.36,78.13c-1.34-2.52-3.25-4.48-5.68-5.87-2.43-1.4-5.29-2.09-8.58-2.09s-6.14.7-8.61,2.09c-2.47,1.4-4.37,3.35-5.72,5.87-1.34,2.5-2.03,5.43-2.03,8.75s.68,6.26,2.03,8.77c1.34,2.5,3.25,4.46,5.72,5.87,2.47,1.4,5.33,2.09,8.61,2.09s6.14-.7,8.58-2.09c2.43-1.41,4.34-3.37,5.68-5.87,1.34-2.5,2.03-5.43,2.03-8.77s-.68-6.25-2.03-8.75ZM229.18,92.06c-.99,1.19-2.3,1.79-3.93,1.79s-2.98-.6-3.98-1.79c-1.02-1.17-1.53-2.72-1.53-4.66s.51-3.47,1.53-4.63c1-1.16,2.33-1.74,3.98-1.74s2.94.58,3.93,1.74c1,1.16,1.5,2.71,1.5,4.63s-.49,3.49-1.5,4.66Z" fill="#fff"/><path d="M285.11,78.92c-1.11-1.92-2.55-3.49-4.34-4.7-1.65-2.47-3.88-4.26-6.71-5.36-2.81-1.11-5.63-1.67-8.43-1.67-2.26,0-4.43.49-6.45,1.46-1.74-1.46-3.86-2.18-6.37-2.18s-4.66.65-6.14,1.96c-1.5,1.29-2.57,2.96-3.23,4.99-.22.71-.43,1.45-.54,2.19-.29,1.34-.43,2.74-.43,4.19v14.04c0,2.37.37,4.68,1.12,6.94.29.89.7,1.7,1.21,2.43.8,1.12,1.84,2.04,3.17,2.77.82,1.4,1.94,2.55,3.34,3.44,1.4.9,3.11,1.34,5.14,1.34,2.26,0,4.22-.61,5.86-1.85,1.65-1.23,2.83-2.89,3.56-5.02.66.82,1.51,1.52,2.54,2.09.82,1.4,1.92,2.55,3.32,3.44,1.4.9,3.11,1.34,5.14,1.34,2.6,0,4.63-.66,6.08-1.99,1.46-1.33,2.45-3,3.01-5.04.56-2.03.83-4.12.83-6.3v-11.44c0-2.79-.56-5.16-1.67-7.1ZM279.55,93.84c0,3.18-.51,5.6-1.5,7.23-.99,1.63-2.59,2.47-4.82,2.47-4.48,0-6.72-3.23-6.72-9.7v-9.34c0-1.26-.36-2.26-1.09-3.05-.71-.77-1.67-1.16-2.83-1.16s-2.16.39-3.03,1.16v12.39c0,6.47-2.25,9.7-6.74,9.7-2.93,0-4.9-1.38-5.89-4.14-.56-1.46-.83-3.32-.83-5.57v-14.04c0-6.48,2.23-9.72,6.72-9.72,2.5,0,4.37,1.12,5.58,3.34.95-.82,2.06-1.46,3.32-1.92,1.26-.44,2.57-.68,3.91-.68,4.15,0,7.51,1.07,10.06,3.18,2.55,2.13,3.85,4.92,3.85,8.41v11.44Z" fill="#236122"/><path d="M279.55,82.41v11.44c0,3.18-.51,5.6-1.5,7.23-.99,1.63-2.59,2.47-4.82,2.47-4.48,0-6.72-3.23-6.72-9.7v-9.34c0-1.26-.36-2.26-1.09-3.05-.71-.77-1.67-1.16-2.83-1.16s-2.16.39-3.03,1.16v12.39c0,6.47-2.25,9.7-6.74,9.7-2.93,0-4.9-1.38-5.89-4.14,1.12-2.67,1.69-5.63,1.69-8.9,0-3.52-.66-6.71-1.99-9.55-.17-.36-.34-.7-.53-1.05v-.1c0-6.48,2.23-9.72,6.72-9.72,2.5,0,4.37,1.12,5.58,3.34.95-.82,2.06-1.46,3.32-1.92,1.26-.44,2.57-.68,3.91-.68,4.15,0,7.51,1.07,10.06,3.18,2.55,2.13,3.85,4.92,3.85,8.41Z" fill="#fff"/></g></svg>