<?xml version="1.0" encoding="UTF-8"?><svg id="Layer_2" xmlns="http://www.w3.org/2000/svg" viewBox="0 0 349.59 111.01"><g id="Layer_1-2"><path d="M16.97,21.05c-.11-.66-.22-1.2-.32-1.63-.09-.49-.21-1.09-.33-1.81-.14-.71-.29-1.42-.45-2.14-.16-.71-.34-1.32-.56-1.8-.21-.49-.45-.73-.7-.73-.23,0-.45.24-.66.73-.21.48-.4,1.09-.58,1.8-.17.72-.33,1.43-.46,2.14-.14.72-.24,1.32-.34,1.81-.1.42-.21.96-.32,1.6-.11.65-.23,1.35-.37,2.1.92-.07,1.82-.09,2.74-.07.9.01,1.81.06,2.72.11-.14-.74-.25-1.45-.37-2.12ZM16.97,21.05c-.11-.66-.22-1.2-.32-1.63-.09-.49-.21-1.09-.33-1.81-.14-.71-.29-1.42-.45-2.14-.16-.71-.34-1.32-.56-1.8-.21-.49-.45-.73-.7-.73-.23,0-.45.24-.66.73-.21.48-.4,1.09-.58,1.8-.17.72-.33,1.43-.46,2.14-.14.72-.24,1.32-.34,1.81-.1.42-.21.96-.32,1.6-.11.65-.23,1.35-.37,2.1.92-.07,1.82-.09,2.74-.07.9.01,1.81.06,2.72.11-.14-.74-.25-1.45-.37-2.12ZM31.6,32.09c-.02-.29-.05-.56-.07-.82-.01-.1-.01-.21-.02-.3-.14-1.4-.34-3.08-.64-5.06-.23-1.6-.53-3.29-.89-5.04-.09-.41-.18-.82-.27-1.25-.18-.87-.4-1.73-.62-2.58-.34-1.32-.73-2.62-1.16-3.9-.7-2.11-1.52-4-2.48-5.64-.96-1.66-2.07-2.91-3.33-3.75-.81-1.13-1.79-2.04-2.93-2.72-1.13-.68-2.61-1.02-4.43-1.02-2.18,0-3.87.4-5.08,1.21-1.21.81-2.35,2.06-3.39,3.76-.9,1.52-1.71,3.3-2.4,5.32-.7,2.04-1.29,4.14-1.77,6.33-.49,2.2-.89,4.32-1.22,6.38-.32,2.07-.56,3.9-.73,5.53-.02.35-.06.72-.09,1.1-.03.38-.05.76-.05,1.14,0,1.33.24,2.55.72,3.67.49,1.12,1.32,1.96,2.48,2.51.42.94,1.09,1.68,2,2.24.9.55,2.11.82,3.59.82,1.85,0,3.3-.47,4.32-1.41,1.02-.95,1.74-2.26,2.16-3.95.35.03.72.05,1.08.05s.71.02,1.06.06c.53.9,1.27,1.61,2.24,2.14.07.13.13.23.19.29,1.1,1.89,2.92,2.83,5.45,2.83,1.59,0,2.85-.32,3.78-.95s1.58-1.47,1.97-2.51c.23-.61.39-1.25.47-1.92.08-.46.11-.94.11-1.43,0-.37-.01-.73-.05-1.12ZM26.36,33.23c-.38,1.18-1.37,1.82-3,1.92-1.59.09-2.72-.25-3.4-1.05-.69-.79-1.16-2.05-1.42-3.77l-.09-.69c-.56.07-1.13.11-1.73.15-.61.03-1.2.05-1.79.05-.71,0-1.41-.02-2.08-.07-.69-.06-1.37-.11-2.05-.17l-.1.73c-.23,1.72-.68,2.98-1.36,3.77-.68.8-1.83,1.14-3.46,1.05-1.65-.1-2.67-.74-3.05-1.92-.37-1.19-.46-2.68-.26-4.46.23-2,.52-4.09.86-6.23.33-2.14.74-4.22,1.24-6.25.49-2.04,1.04-3.9,1.66-5.63.61-1.72,1.29-3.19,2.04-4.43.72-1.13,1.49-2.05,2.31-2.75.84-.7,2.08-1.05,3.78-1.05h.34c1.65,0,2.9.35,3.72,1.05.82.7,1.6,1.61,2.31,2.75.74,1.24,1.43,2.71,2.05,4.43.62,1.73,1.17,3.59,1.65,5.63.49,2.03.9,4.11,1.25,6.25.34,2.14.62,4.22.85,6.23.19,1.79.1,3.27-.26,4.46ZM16.64,19.43c-.09-.49-.21-1.09-.33-1.81-.14-.71-.29-1.42-.45-2.14-.16-.71-.34-1.32-.56-1.8-.21-.49-.45-.73-.7-.73-.23,0-.45.24-.66.73-.21.48-.4,1.09-.58,1.8-.17.72-.33,1.43-.46,2.14-.14.72-.24,1.32-.34,1.81-.1.42-.21.96-.32,1.6-.11.65-.23,1.35-.37,2.1.92-.07,1.82-.09,2.74-.07.9.01,1.81.06,2.72.11-.14-.74-.25-1.45-.37-2.12-.11-.66-.22-1.2-.32-1.63ZM16.97,21.05c-.11-.66-.22-1.2-.32-1.63-.09-.49-.21-1.09-.33-1.81-.14-.71-.29-1.42-.45-2.14-.16-.71-.34-1.32-.56-1.8-.21-.49-.45-.73-.7-.73-.23,0-.45.24-.66.73-.21.48-.4,1.09-.58,1.8-.17.72-.33,1.43-.46,2.14-.14.72-.24,1.32-.34,1.81-.1.42-.21.96-.32,1.6-.11.65-.23,1.35-.37,2.1.92-.07,1.82-.09,2.74-.07.9.01,1.81.06,2.72.11-.14-.74-.25-1.45-.37-2.12ZM16.97,21.05c-.11-.66-.22-1.2-.32-1.63-.09-.49-.21-1.09-.33-1.81-.14-.71-.29-1.42-.45-2.14-.16-.71-.34-1.32-.56-1.8-.21-.49-.45-.73-.7-.73-.23,0-.45.24-.66.73-.21.48-.4,1.09-.58,1.8-.17.72-.33,1.43-.46,2.14-.14.72-.24,1.32-.34,1.81-.1.42-.21.96-.32,1.6-.11.65-.23,1.35-.37,2.1.92-.07,1.82-.09,2.74-.07.9.01,1.81.06,2.72.11-.14-.74-.25-1.45-.37-2.12Z" fill="#3d0072"/><path d="M26.63,28.77c-.23-2-.5-4.09-.85-6.23-.34-2.14-.76-4.22-1.25-6.25-.48-2.04-1.03-3.9-1.65-5.63-.62-1.72-1.31-3.19-2.05-4.43-.71-1.13-1.49-2.05-2.31-2.75-.82-.7-2.07-1.05-3.72-1.05h-.34c-1.69,0-2.94.35-3.78,1.05-.82.7-1.59,1.61-2.31,2.75-.74,1.24-1.43,2.71-2.04,4.43-.62,1.73-1.17,3.59-1.66,5.63-.49,2.03-.9,4.11-1.24,6.25-.34,2.14-.63,4.22-.86,6.23-.19,1.79-.1,3.27.26,4.46.38,1.18,1.4,1.82,3.05,1.92,1.63.09,2.78-.25,3.46-1.05.69-.79,1.13-2.05,1.36-3.77l.1-.73c.68.06,1.36.11,2.05.17.68.05,1.37.07,2.08.07.58,0,1.18-.01,1.79-.05.6-.03,1.17-.08,1.73-.15l.09.69c.26,1.72.73,2.98,1.42,3.77.68.8,1.81,1.14,3.4,1.05,1.63-.1,2.62-.74,3-1.92.37-1.19.46-2.68.26-4.46ZM14.61,23.06c-.92-.02-1.82,0-2.74.07.14-.74.25-1.44.37-2.1.11-.64.22-1.18.32-1.6.1-.49.21-1.09.34-1.81.13-.71.29-1.42.46-2.14.18-.71.38-1.32.58-1.8.22-.49.44-.73.66-.73.25,0,.49.24.7.73.22.48.4,1.09.56,1.8.16.72.31,1.43.45,2.14.13.72.24,1.32.33,1.81.1.42.21.96.32,1.63.11.66.23,1.37.37,2.12-.92-.06-1.82-.1-2.72-.11Z" fill="#fff"/><path d="M42.06,20.3c-.39-.09-.74-.14-1.06-.14-1.2,0-2.16.38-2.9,1.14-.73.76-1.1,1.75-1.1,2.99,0,1.13.37,2.06,1.1,2.78.73.71,1.69,1.06,2.9,1.06.78,0,1.49-.23,2.14-.68v-6.78c-.32-.16-.69-.29-1.08-.39ZM42.06,20.3c-.39-.09-.74-.14-1.06-.14-1.2,0-2.16.38-2.9,1.14-.73.76-1.1,1.75-1.1,2.99,0,1.13.37,2.06,1.1,2.78.73.71,1.69,1.06,2.9,1.06.78,0,1.49-.23,2.14-.68v-6.78c-.32-.16-.69-.29-1.08-.39ZM56.31,9.3c-.5-1.52-1.49-2.69-2.95-3.5-.52-.94-1.26-1.72-2.21-2.31-.96-.61-2.12-.9-3.48-.9-1.79,0-3.17.43-4.14,1.29-.97.86-1.67,1.96-2.09,3.29s-.66,2.72-.73,4.19h-.68c-2.7,0-5.01.6-6.96,1.77-1.65,1.01-2.98,2.31-3.98,3.93-.18.3-.37.6-.53.92-1.05,2.05-1.58,4.34-1.58,6.87,0,2.14.42,4.06,1.27,5.77.8,1.64,1.9,2.99,3.29,4.04.05.05.1.08.16.13,1.11,1.49,2.52,2.66,4.21,3.5,1.71.85,3.65,1.26,5.83,1.26,1.45,0,2.85-.25,4.18-.78.58.49,1.24.85,1.96,1.08.71.23,1.45.34,2.23.34,1.73,0,3.09-.45,4.12-1.32,1.02-.88,1.75-1.99,2.19-3.37.15-.48.27-.96.37-1.45.19-.92.29-1.85.29-2.83V13.97c0-1.58-.25-3.15-.74-4.67ZM52.19,28.77c0,4.35-1.51,6.53-4.52,6.53-1.63,0-2.83-.66-3.61-1.99-1.36.9-2.95,1.36-4.77,1.36-1.98,0-3.71-.41-5.19-1.24-1.01-.57-1.87-1.29-2.58-2.16-.33-.39-.62-.82-.88-1.29-.82-1.48-1.24-3.19-1.24-5.14,0-1.44.18-2.76.56-3.96.19-.64.44-1.26.74-1.83.88-1.66,2.12-2.95,3.71-3.87,1.59-.93,3.46-1.4,5.6-1.4.52,0,1.04.06,1.58.17.54.11,1.05.27,1.53.47v-2.87c0-4.35,1.51-6.53,4.53-6.53s4.52,2.18,4.52,6.53v17.23ZM40.99,20.16c-1.2,0-2.16.38-2.9,1.14-.73.76-1.1,1.75-1.1,2.99,0,1.13.37,2.06,1.1,2.78.73.71,1.69,1.06,2.9,1.06.78,0,1.49-.23,2.14-.68v-6.78c-.32-.16-.69-.29-1.08-.39-.39-.09-.74-.14-1.06-.14ZM42.06,20.3c-.39-.09-.74-.14-1.06-.14-1.2,0-2.16.38-2.9,1.14-.73.76-1.1,1.75-1.1,2.99,0,1.13.37,2.06,1.1,2.78.73.71,1.69,1.06,2.9,1.06.78,0,1.49-.23,2.14-.68v-6.78c-.32-.16-.69-.29-1.08-.39ZM42.06,20.3c-.39-.09-.74-.14-1.06-.14-1.2,0-2.16.38-2.9,1.14-.73.76-1.1,1.75-1.1,2.99,0,1.13.37,2.06,1.1,2.78.73.71,1.69,1.06,2.9,1.06.78,0,1.49-.23,2.14-.68v-6.78c-.32-.16-.69-.29-1.08-.39Z" fill="#3d0072"/><path d="M47.67,5.01c-3.02,0-4.53,2.18-4.53,6.53v2.87c-.48-.19-1-.35-1.53-.47-.54-.11-1.06-.17-1.58-.17-2.14,0-4.01.47-5.6,1.4-1.59.92-2.83,2.21-3.71,3.87-.31.57-.55,1.19-.74,1.83.37,1.75.66,3.43.89,5.04.3,1.98.5,3.66.64,5.06.01.09.01.19.02.3.71.87,1.57,1.59,2.58,2.16,1.48.82,3.21,1.24,5.19,1.24,1.82,0,3.41-.46,4.77-1.36.78,1.33,1.98,1.99,3.61,1.99,3.01,0,4.52-2.17,4.52-6.53V11.54c0-4.35-1.51-6.53-4.52-6.53ZM43.13,27.46c-.65.45-1.36.68-2.14.68-1.2,0-2.16-.35-2.9-1.06-.73-.72-1.1-1.65-1.1-2.78,0-1.24.37-2.23,1.1-2.99.73-.77,1.69-1.14,2.9-1.14.32,0,.68.05,1.06.14.39.1.76.23,1.08.39v6.78Z" fill="#fff"/><path d="M68.01,20.3c-.39-.09-.74-.14-1.06-.14-1.2,0-2.16.38-2.9,1.14-.73.76-1.1,1.75-1.1,2.99,0,1.13.37,2.06,1.1,2.78.73.71,1.69,1.06,2.9,1.06.78,0,1.49-.23,2.14-.68v-6.78c-.32-.16-.69-.29-1.08-.39ZM68.01,20.3c-.39-.09-.74-.14-1.06-.14-1.2,0-2.16.38-2.9,1.14-.73.76-1.1,1.75-1.1,2.99,0,1.13.37,2.06,1.1,2.78.73.71,1.69,1.06,2.9,1.06.78,0,1.49-.23,2.14-.68v-6.78c-.32-.16-.69-.29-1.08-.39ZM82.26,9.3c-.5-1.52-1.49-2.69-2.95-3.5-.52-.94-1.26-1.72-2.21-2.31-.96-.61-2.12-.9-3.48-.9-1.79,0-3.17.43-4.14,1.29-.97.86-1.67,1.96-2.09,3.29s-.66,2.72-.73,4.19h-.68c-2.7,0-5.01.6-6.96,1.77-.71.44-1.36.93-1.96,1.48-1.03.94-1.88,2.07-2.55,3.37-1.05,2.05-1.58,4.34-1.58,6.87,0,2.14.42,4.06,1.27,5.77.66,1.35,1.52,2.5,2.58,3.43.27.27.57.5.87.73,1.11,1.49,2.52,2.66,4.21,3.5,1.71.85,3.65,1.26,5.83,1.26,1.45,0,2.85-.25,4.18-.78.58.49,1.24.85,1.96,1.08.71.23,1.45.34,2.23.34,1.73,0,3.09-.45,4.12-1.32,1.02-.88,1.75-1.99,2.19-3.37.44-1.36.65-2.78.65-4.28V13.97c0-1.58-.25-3.15-.74-4.67ZM78.14,28.77c0,4.35-1.51,6.53-4.52,6.53-1.63,0-2.83-.66-3.61-1.99-1.36.9-2.95,1.36-4.77,1.36-1.98,0-3.71-.41-5.19-1.24-1.22-.69-2.22-1.59-3-2.72-.16-.23-.32-.48-.46-.73-.82-1.48-1.24-3.19-1.24-5.14,0-2.21.44-4.14,1.31-5.79.13-.23.25-.46.39-.68.85-1.34,1.95-2.4,3.32-3.19,1.59-.93,3.46-1.4,5.6-1.4.52,0,1.04.06,1.58.17.54.11,1.04.27,1.53.47v-2.87c0-4.35,1.51-6.53,4.53-6.53s4.52,2.18,4.52,6.53v17.23ZM66.95,20.16c-1.2,0-2.16.38-2.9,1.14-.73.76-1.1,1.75-1.1,2.99,0,1.13.37,2.06,1.1,2.78.73.71,1.69,1.06,2.9,1.06.78,0,1.49-.23,2.14-.68v-6.78c-.32-.16-.69-.29-1.08-.39-.39-.09-.74-.14-1.06-.14Z" fill="#3d0072"/><path d="M73.62,5.01c-3.02,0-4.53,2.18-4.53,6.53v2.87c-.49-.19-1-.35-1.53-.47-.54-.11-1.06-.17-1.58-.17-2.14,0-4.01.47-5.6,1.4-1.37.79-2.47,1.85-3.32,3.19v12.34c.78,1.13,1.77,2.04,3,2.72,1.48.82,3.21,1.24,5.19,1.24,1.82,0,3.41-.46,4.77-1.36.78,1.33,1.98,1.99,3.61,1.99,3.01,0,4.52-2.17,4.52-6.53V11.54c0-4.35-1.51-6.53-4.52-6.53ZM69.09,27.46c-.65.45-1.36.68-2.14.68-1.2,0-2.16-.35-2.9-1.06-.73-.72-1.1-1.65-1.1-2.78,0-1.24.37-2.23,1.1-2.99.73-.77,1.69-1.14,2.9-1.14.32,0,.68.05,1.06.14.39.1.76.23,1.08.39v6.78Z" fill="#fff"/><path d="M114.63,15.53s0-.01,0-.01c0-.07-.01-.14-.01-.22-.07-1.3-.25-2.61-.54-3.89-.1-.46-.24-.92-.39-1.35-.25-.77-.58-1.5-.97-2.2-.62-1.09-1.48-1.99-2.59-2.7-.9-1.36-2.08-2.37-3.53-3-1.44-.63-3.17-.95-5.19-.95-.78,0-1.65.07-2.6.19-.96.13-1.89.42-2.78.88-.89.45-1.63,1.13-2.19,2.04-.57.92-.86,2.14-.86,3.71,0,2.82,1,4.67,2.98,5.54.55,1.14,1.4,1.97,2.53,2.48.03,0,.06.01.07.02.02.02.05.03.08.03.09,1,.14,2,.11,3.01-.01,1.01-.02,2.01-.02,3.02v3.75c0,.45-.01.92-.02,1.41-.01.48-.02.98-.02,1.51.03,1.03.15,2.1.34,3.16.19,1.08.53,2.06,1.02,2.98.49.9,1.25,1.61,2.29,2.14.48.85,1.18,1.57,2.07,2.19.89.62,2.04.93,3.43.93s2.47-.27,3.35-.82c.88-.56,1.55-1.29,2.03-2.22.47-.93.8-1.93,1-3.05.14-.79.24-1.57.29-2.36.03-.32.05-.63.06-.95.05-1.75.07-3.51.09-5.28.03-2.15.05-4.33.05-6.5,0-1.1-.03-2.27-.08-3.5ZM109.79,22.47c0,1.96-.03,3.92-.1,5.86-.03,1.92-.25,3.39-.65,4.41-.41,1.02-.95,1.72-1.61,2.07-.66.35-1.36.54-2.12.54-1.33,0-2.29-.4-2.87-1.2-.58-.79-.95-1.89-1.09-3.31-.15-1.41-.21-3.06-.17-4.93v-3.75c0-1.33-.01-2.63-.02-3.92-.02-1.28-.08-2.35-.17-3.19-.14-1.24-.44-2.05-.93-2.46-.49-.4-1.29-.72-2.44-.95-.78-.16-1.33-.56-1.65-1.19-.33-.63-.5-1.34-.54-2.12-.03-.52.01-1.04.13-1.56.11-.52.3-.97.56-1.36.39-.55.97-.98,1.77-1.29.79-.31,1.97-.46,3.53-.46,2.37,0,4.16.47,5.36,1.41,1.2.94,2.01,2.36,2.44,4.26.41,1.9.63,4.33.63,7.28-.03,1.95-.05,3.9-.05,5.87Z" fill="#3d0072"/><path d="M109.84,16.6c-.03,1.95-.05,3.9-.05,5.87s-.03,3.92-.1,5.86c-.03,1.92-.25,3.39-.65,4.41-.41,1.02-.95,1.72-1.61,2.07-.66.35-1.36.54-2.12.54-1.33,0-2.29-.4-2.87-1.2-.58-.79-.95-1.89-1.09-3.31-.15-1.41-.21-3.06-.17-4.93v-3.75c0-1.33-.01-2.63-.02-3.92-.02-1.28-.08-2.35-.17-3.19-.14-1.24-.44-2.05-.93-2.46-.49-.4-1.29-.72-2.44-.95-.78-.16-1.33-.56-1.65-1.19-.33-.63-.5-1.34-.54-2.12-.03-.52.01-1.04.13-1.56.11-.52.3-.97.56-1.36.39-.55.97-.98,1.77-1.29.79-.31,1.97-.46,3.53-.46,2.37,0,4.16.47,5.36,1.41,1.2.94,2.01,2.36,2.44,4.26.41,1.9.63,4.33.63,7.28Z" fill="#fff"/><path d="M130.19,17.79c-.07-.98-.22-1.98-.47-2.99-.24-1.01-.62-1.87-1.14-2.55-.52-.7-1.21-1.05-2.08-1.05-.95,0-1.68.32-2.2.95s-.88,1.43-1.1,2.38c-.21.96-.33,1.91-.39,2.85-.05.94-.07,1.74-.07,2.39,0,.58.03,1.37.1,2.38.06,1.01.22,2.01.46,3.02.24,1.01.62,1.85,1.12,2.55.5.7,1.19,1.04,2.07,1.04,1.45,0,2.45-.74,2.96-2.26.52-1.51.79-3.62.82-6.31,0-.62-.03-1.42-.09-2.42ZM127.86,20.21c0,.55-.01,1.13-.02,1.75-.02.62-.08,1.25-.17,1.9-.03-.32-.06-.63-.06-.9v-.76c0-.52.01-1.1.02-1.75.02-.65.08-1.28.17-1.9.03.33.06.63.06.9v.76ZM130.19,17.79c-.07-.98-.22-1.98-.47-2.99-.24-1.01-.62-1.87-1.14-2.55-.52-.7-1.21-1.05-2.08-1.05-.95,0-1.68.32-2.2.95s-.88,1.43-1.1,2.38c-.21.96-.33,1.91-.39,2.85-.05.94-.07,1.74-.07,2.39,0,.58.03,1.37.1,2.38.06,1.01.22,2.01.46,3.02.24,1.01.62,1.85,1.12,2.55.5.7,1.19,1.04,2.07,1.04,1.45,0,2.45-.74,2.96-2.26.52-1.51.79-3.62.82-6.31,0-.62-.03-1.42-.09-2.42ZM127.86,20.21c0,.55-.01,1.13-.02,1.75-.02.62-.08,1.25-.17,1.9-.03-.32-.06-.63-.06-.9v-.76c0-.52.01-1.1.02-1.75.02-.65.08-1.28.17-1.9.03.33.06.63.06.9v.76ZM143.12,16.16c-.38-1.95-1.01-3.78-1.9-5.48-.89-1.71-2.12-3.14-3.67-4.3-1.1-1.49-2.55-2.69-4.34-3.61-1.77-.9-3.96-1.36-6.51-1.36-2.4,0-4.46.4-6.17,1.19-1.69.8-3.11,1.87-4.26,3.19-1.08,1.27-1.95,2.69-2.58,4.27-.05.07-.07.15-.1.23-.64,1.67-1.11,3.4-1.39,5.19-.27,1.79-.41,3.51-.41,5.16,0,1.85.21,3.7.61,5.55.41,1.85,1.05,3.59,1.92,5.23.06.11.13.23.19.34.86,1.49,1.97,2.75,3.37,3.78,1.17,1.49,2.63,2.7,4.41,3.63,1.76.92,3.92,1.39,6.45,1.39,2.3,0,4.32-.38,6.01-1.12,1.71-.74,3.13-1.76,4.27-3.05,1.13-1.28,2.05-2.74,2.75-4.36.7-1.61,1.19-3.31,1.49-5.06.29-1.75.44-3.46.44-5.11,0-1.85-.18-3.75-.56-5.7ZM138.08,25.56c-.42,1.88-1.11,3.58-2.05,5.11-.94,1.53-2.19,2.74-3.74,3.63s-3.49,1.36-5.79,1.39c-2.01.03-3.8-.31-5.33-1.04-1.55-.73-2.84-1.8-3.87-3.19-1.26-1.63-2.14-3.59-2.63-5.91-.37-1.73-.5-3.65-.43-5.77.01-1.43.15-2.84.4-4.24-.01-.01,0-.01,0-.01.08-.5.18-1.01.3-1.5.45-1.89,1.14-3.59,2.09-5.14.96-1.55,2.22-2.77,3.78-3.67,1.56-.92,3.46-1.36,5.7-1.36,2-.03,3.79.31,5.35,1.04,1.56.73,2.86,1.79,3.9,3.15,1.03,1.4,1.81,3.09,2.34,5.08.52,1.99.76,4.21.73,6.65-.07,1.98-.31,3.9-.73,5.79ZM129.73,14.8c-.24-1.01-.62-1.87-1.14-2.55-.52-.7-1.21-1.05-2.08-1.05-.95,0-1.68.32-2.2.95s-.88,1.43-1.1,2.38c-.21.96-.33,1.91-.39,2.85-.05.94-.07,1.74-.07,2.39,0,.58.03,1.37.1,2.38.06,1.01.22,2.01.46,3.02.24,1.01.62,1.85,1.12,2.55.5.7,1.19,1.04,2.07,1.04,1.45,0,2.45-.74,2.96-2.26.52-1.51.79-3.62.82-6.31,0-.62-.03-1.42-.09-2.42-.07-.98-.22-1.98-.47-2.99ZM127.86,20.21c0,.55-.01,1.13-.02,1.75-.02.62-.08,1.25-.17,1.9-.03-.32-.06-.63-.06-.9v-.76c0-.52.01-1.1.02-1.75.02-.65.08-1.28.17-1.9.03.33.06.63.06.9v.76Z" fill="#3d0072"/><path d="M138.08,13.12c-.53-1.99-1.31-3.69-2.34-5.08-1.04-1.36-2.35-2.42-3.9-3.15-1.56-.73-3.34-1.08-5.35-1.04-2.24,0-4.14.45-5.7,1.36-1.56.9-2.82,2.13-3.78,3.67-.95,1.55-1.65,3.25-2.09,5.14-.11.49-.22,1-.3,1.5,0,0-.01,0,0,.01.05,1.24.08,2.4.08,3.5,0,2.18-.01,4.35-.05,6.5.49,2.31,1.37,4.28,2.63,5.91,1.03,1.4,2.32,2.46,3.87,3.19,1.53.73,3.32,1.08,5.33,1.04,2.3-.02,4.24-.49,5.79-1.39s2.8-2.1,3.74-3.63c.94-1.52,1.63-3.23,2.05-5.11.42-1.89.66-3.81.73-5.79.02-2.44-.22-4.66-.73-6.65ZM129.46,26.51c-.52,1.51-1.51,2.26-2.96,2.26-.88,0-1.57-.34-2.07-1.04-.5-.7-.88-1.55-1.12-2.55-.24-1.01-.4-2.01-.46-3.02-.07-1.01-.1-1.8-.1-2.38,0-.65.02-1.45.07-2.39.06-.94.18-1.89.39-2.85.22-.95.58-1.75,1.1-2.38s1.25-.95,2.2-.95c.87,0,1.57.35,2.08,1.05.53.69.9,1.55,1.14,2.55.25,1.01.4,2,.47,2.99.06,1,.09,1.8.09,2.42-.03,2.69-.31,4.8-.82,6.31Z" fill="#fff"/><path d="M197.19,19.51c-.07-.16-.14-.32-.22-.47-.37-.74-.8-1.41-1.32-2.01-.55-.66-1.19-1.25-1.92-1.74-.97-1.42-2.26-2.52-3.85-3.29-1.59-.76-3.42-1.14-5.49-1.14-1.08,0-2.18.16-3.32.49-1.13.32-2.18.82-3.11,1.51-1.06-.76-2.22-1.27-3.46-1.56-1.24-.3-2.42-.45-3.55-.45-1.66,0-3.25.34-4.77,1.03-1.13-1.01-2.59-1.51-4.34-1.51s-3.13.44-4.13,1.32c-1.01.87-1.73,1.99-2.16,3.35-.45,1.36-.66,2.79-.66,4.28v9.44c0,1.59.25,3.16.76,4.68s1.49,2.69,2.94,3.5c.56.94,1.3,1.72,2.24,2.31.94.61,2.09.9,3.46.9,1.52,0,2.84-.41,3.95-1.25,1.1-.82,1.89-1.96,2.38-3.38.46.55,1.02,1.02,1.71,1.41.55.94,1.29,1.72,2.23,2.31.95.61,2.09.9,3.46.9,1.47,0,2.75-.4,3.85-1.19,1.11-.8,1.85-1.91,2.24-3.34.49.55,1.04,1,1.66,1.32.55.94,1.29,1.72,2.23,2.31.95.61,2.09.9,3.46.9,1.75,0,3.13-.45,4.1-1.34s1.65-2.03,2.01-3.39c.11-.44.22-.87.3-1.32.18-.95.26-1.92.26-2.92v-6.72c0-1.87-.31-3.53-.93-4.98ZM193.25,28.77c0,2.15-.33,3.77-1,4.88-.68,1.1-1.75,1.65-3.24,1.65-3.02,0-4.53-2.17-4.53-6.53v-6.27c0-.85-.24-1.52-.73-2.05-.48-.52-1.11-.78-1.9-.78-.84,0-1.56.3-2.14.88.03.25.06.5.08.76.01.24.02.49.02.76v6.71c0,2.15-.33,3.77-1,4.88-.68,1.1-1.75,1.65-3.24,1.65-3.02,0-4.53-2.17-4.53-6.53v-6.27c0-.85-.24-1.52-.73-2.05-.48-.52-1.11-.78-1.89-.78s-1.47.26-2.05.78v8.32c0,4.35-1.51,6.53-4.53,6.53s-4.52-2.17-4.52-6.53v-9.44c0-4.35,1.51-6.53,4.52-6.53,1.75,0,3.01.77,3.75,2.29.71-.55,1.53-.98,2.46-1.32.92-.32,1.89-.48,2.9-.48,3.11,0,5.45.96,7.01,2.87.69-.88,1.59-1.58,2.72-2.1,1.14-.51,2.37-.78,3.71-.78,2.66,0,4.8.76,6.42,2.27,1.63,1.51,2.44,3.67,2.44,6.5v6.71Z" fill="#3d0072"/><path d="M193.25,22.06v6.71c0,2.15-.33,3.77-1,4.88-.68,1.1-1.75,1.65-3.24,1.65-3.02,0-4.53-2.17-4.53-6.53v-6.27c0-.85-.24-1.52-.73-2.05-.48-.52-1.11-.78-1.9-.78-.84,0-1.56.3-2.14.88.03.25.06.5.08.76.01.24.02.49.02.76v6.71c0,2.15-.33,3.77-1,4.88-.68,1.1-1.75,1.65-3.24,1.65-3.02,0-4.53-2.17-4.53-6.53v-6.27c0-.85-.24-1.52-.73-2.05-.48-.52-1.11-.78-1.89-.78s-1.47.26-2.05.78v8.32c0,4.35-1.51,6.53-4.53,6.53s-4.52-2.17-4.52-6.53v-9.44c0-4.35,1.51-6.53,4.52-6.53,1.75,0,3.01.77,3.75,2.29.71-.55,1.53-.98,2.46-1.32.92-.32,1.89-.48,2.9-.48,3.11,0,5.45.96,7.01,2.87.69-.88,1.59-1.58,2.72-2.1,1.14-.51,2.37-.78,3.71-.78,2.66,0,4.8.76,6.42,2.27,1.63,1.51,2.44,3.67,2.44,6.5Z" fill="#fff"/><path d="M210.17,21.33c-.66-.78-1.56-1.17-2.66-1.17s-1.99.39-2.68,1.17c-.69.78-1.02,1.82-1.02,3.11s.33,2.35,1.02,3.14c.69.8,1.58,1.19,2.68,1.19s1.99-.39,2.66-1.19c.66-.79,1-1.84,1-3.14s-.33-2.34-1-3.11ZM210.17,21.33c-.66-.78-1.56-1.17-2.66-1.17s-1.99.39-2.68,1.17c-.69.78-1.02,1.82-1.02,3.11s.33,2.35,1.02,3.14c.69.8,1.58,1.19,2.68,1.19s1.99-.39,2.66-1.19c.66-.79,1-1.84,1-3.14s-.33-2.34-1-3.11ZM221.9,20.1c-.1-.23-.22-.43-.33-.65h-.01c-.71-1.36-1.63-2.51-2.75-3.47-.22-.19-.45-.38-.69-.55-1.17-1.56-2.66-2.78-4.48-3.67-1.82-.89-3.89-1.34-6.24-1.34-2.72,0-5.09.6-7.11,1.77-1.99,1.18-3.54,2.79-4.65,4.83-.01.01-.01.03-.02.05-1.1,2.06-1.65,4.4-1.65,7.03,0,2.37.45,4.51,1.36,6.43.65,1.39,1.49,2.59,2.51,3.59.39.39.8.74,1.24,1.08,1.17,1.56,2.67,2.78,4.51,3.67,1.83.89,3.92,1.34,6.25,1.34,2.72,0,5.09-.6,7.11-1.77,2.01-1.19,3.56-2.82,4.65-4.88.32-.6.58-1.22.8-1.87.47-1.34.74-2.77.81-4.32h0c.01-.29.02-.56.02-.85,0-2.37-.45-4.51-1.34-6.43ZM217,29.99c-.9,1.68-2.18,3-3.82,3.94-1.64.95-3.56,1.42-5.77,1.42s-4.13-.47-5.79-1.42c-1.45-.82-2.62-1.95-3.5-3.35-.13-.19-.24-.39-.34-.58-.9-1.69-1.36-3.65-1.36-5.9,0-1.68.26-3.22.78-4.59.17-.45.37-.88.58-1.29.92-1.69,2.2-3.01,3.85-3.95,1.66-.94,3.59-1.41,5.79-1.41s4.13.47,5.77,1.41c1.65.94,2.92,2.26,3.82,3.95.92,1.68,1.36,3.65,1.36,5.88s-.45,4.2-1.36,5.9ZM207.51,20.16c-1.1,0-1.99.39-2.68,1.17-.69.78-1.02,1.82-1.02,3.11s.33,2.35,1.02,3.14c.69.8,1.58,1.19,2.68,1.19s1.99-.39,2.66-1.19c.66-.79,1-1.84,1-3.14s-.33-2.34-1-3.11c-.66-.78-1.56-1.17-2.66-1.17ZM210.17,21.33c-.66-.78-1.56-1.17-2.66-1.17s-1.99.39-2.68,1.17c-.69.78-1.02,1.82-1.02,3.11s.33,2.35,1.02,3.14c.69.8,1.58,1.19,2.68,1.19s1.99-.39,2.66-1.19c.66-.79,1-1.84,1-3.14s-.33-2.34-1-3.11ZM210.17,21.33c-.66-.78-1.56-1.17-2.66-1.17s-1.99.39-2.68,1.17c-.69.78-1.02,1.82-1.02,3.11s.33,2.35,1.02,3.14c.69.8,1.58,1.19,2.68,1.19s1.99-.39,2.66-1.19c.66-.79,1-1.84,1-3.14s-.33-2.34-1-3.11Z" fill="#3d0072"/><path d="M217,18.21c-.9-1.69-2.18-3.01-3.82-3.95-1.64-.94-3.56-1.41-5.77-1.41s-4.13.47-5.79,1.41c-1.65.94-2.93,2.26-3.85,3.95-.22.41-.41.85-.58,1.29.62,1.45.93,3.11.93,4.98v6.09c.88,1.41,2.05,2.53,3.5,3.35,1.66.95,3.59,1.42,5.79,1.42s4.13-.47,5.77-1.42c1.65-.94,2.92-2.26,3.82-3.94.92-1.69,1.36-3.65,1.36-5.9s-.45-4.2-1.36-5.88ZM210.17,27.58c-.66.8-1.56,1.19-2.66,1.19s-1.99-.39-2.68-1.19c-.69-.79-1.02-1.84-1.02-3.14s.33-2.34,1.02-3.11c.69-.78,1.58-1.17,2.68-1.17s1.99.39,2.66,1.17c.66.78,1,1.82,1,3.11s-.33,2.35-1,3.14Z" fill="#fff"/><path d="M247.12,17.87c-.07-.87-.3-1.74-.69-2.59-.06-.11-.1-.22-.17-.33-.47-.86-1.21-1.52-2.19-1.96-.39-.8-.97-1.5-1.75-2.06-.78-.57-1.82-.86-3.11-.86-1.47,0-2.61.3-3.46.88-.85.58-1.5,1.37-1.97,2.36-.48,1-.87,2.08-1.2,3.29-.25-.68-.62-1.34-1.09-1.97-.47-.63-1.09-1.13-1.83-1.49-.46-.85-1.1-1.57-1.92-2.16-.82-.61-1.97-.9-3.43-.9-1.36,0-2.44.3-3.24.9-.79.6-1.36,1.35-1.73,2.27-.35.89-.53,1.81-.53,2.74v.03c0,.81.07,1.82.22,3.02s.34,2.46.61,3.77c.26,1.32.54,2.56.82,3.73.3,1.17.58,2.13.88,2.87.31.76.66,1.52,1.06,2.29.25.52.54,1.03.84,1.56.74,1.29,1.73,2.37,2.96,3.22.81,1.17,1.85,2.14,3.15,2.92,1.27.78,2.9,1.17,4.84,1.17,2.11,0,3.82-.45,5.16-1.34,1.33-.89,2.39-2,3.21-3.34.81-1.33,1.48-2.66,2-3.98,0-.01.01-.02.01-.03.32-.77.63-1.73.94-2.9.06-.22.11-.45.17-.66.24-.97.46-1.97.65-3.03.24-1.29.44-2.55.58-3.77.15-1.22.22-2.23.22-3.05,0-.19-.01-.39-.02-.58ZM242.08,18.65c-.14,1.1-.32,2.28-.56,3.53-.24,1.25-.5,2.45-.78,3.58s-.56,2.06-.86,2.77c-.58,1.43-1.22,2.69-1.92,3.78s-1.53,1.92-2.53,2.51c-.98.58-2.21.87-3.67.87-2.21,0-3.9-.64-5.08-1.95-1.19-1.29-2.21-3.03-3.05-5.21-.14-.33-.27-.71-.41-1.14h0c-.15-.49-.3-1.03-.45-1.63-.27-1.13-.53-2.34-.76-3.58-.16-.95-.32-1.85-.45-2.72h-.01c-.03-.27-.07-.54-.1-.8-.14-1.11-.22-1.98-.22-2.63,0-1.06.25-1.92.76-2.55.5-.64,1.28-.95,2.31-.95,1.11,0,1.93.26,2.48.78.55.52,1,1.29,1.32,2.31.32,1.02.66,2.3,1.02,3.82.78,3.15,1.32,5.37,1.61,6.67.29,1.29.62,1.95.97,1.95h.09c.42,0,.78-.69,1.05-2.05.27-1.36.78-3.55,1.53-6.57.35-1.52.7-2.8,1.02-3.82.32-1.02.77-1.8,1.32-2.31.55-.52,1.37-.78,2.48-.78,1.04,0,1.81.31,2.31.95.5.63.76,1.49.76,2.55,0,.65-.07,1.52-.19,2.63Z" fill="#3d0072"/><path d="M242.28,16.02c0,.65-.07,1.52-.19,2.63-.14,1.1-.32,2.28-.56,3.53-.24,1.25-.5,2.45-.78,3.58s-.56,2.06-.86,2.77c-.58,1.43-1.22,2.69-1.92,3.78s-1.53,1.92-2.53,2.51c-.98.58-2.21.87-3.67.87-2.21,0-3.9-.64-5.08-1.95-1.19-1.29-2.21-3.03-3.05-5.21-.14-.33-.27-.71-.41-1.14h0c.01-.29.02-.56.02-.85,0-2.37-.45-4.51-1.34-6.43-.1-.23-.22-.43-.33-.65h-.01c-.03-.27-.07-.54-.1-.8-.14-1.11-.22-1.98-.22-2.63,0-1.06.25-1.92.76-2.55.5-.64,1.28-.95,2.31-.95,1.11,0,1.93.26,2.48.78.55.52,1,1.29,1.32,2.31.32,1.02.66,2.3,1.02,3.82.78,3.15,1.32,5.37,1.61,6.67.29,1.29.62,1.95.97,1.95h.09c.42,0,.78-.69,1.05-2.05.27-1.36.78-3.55,1.53-6.57.35-1.52.7-2.8,1.02-3.82.32-1.02.77-1.8,1.32-2.31.55-.52,1.37-.78,2.48-.78,1.04,0,1.81.31,2.31.95.5.63.76,1.49.76,2.55Z" fill="#fff"/><path d="M257.84,20.55c-.31-.23-.71-.34-1.2-.34-1.03,0-1.87.23-2.47.68-.62.46-1.06,1.1-1.32,1.9h.39c2,0,3.35-.08,4.04-.26.68-.18,1.02-.54,1.02-1.1,0-.35-.15-.64-.46-.87ZM257.84,20.55c-.31-.23-.71-.34-1.2-.34-1.03,0-1.87.23-2.47.68-.62.46-1.06,1.1-1.32,1.9h.39c2,0,3.35-.08,4.04-.26.68-.18,1.02-.54,1.02-1.1,0-.35-.15-.64-.46-.87ZM257.84,20.55c-.31-.23-.71-.34-1.2-.34-1.03,0-1.87.23-2.47.68-.62.46-1.06,1.1-1.32,1.9h.39c2,0,3.35-.08,4.04-.26.68-.18,1.02-.54,1.02-1.1,0-.35-.15-.64-.46-.87ZM257.84,20.55c-.31-.23-.71-.34-1.2-.34-1.03,0-1.87.23-2.47.68-.62.46-1.06,1.1-1.32,1.9h.39c2,0,3.35-.08,4.04-.26.68-.18,1.02-.54,1.02-1.1,0-.35-.15-.64-.46-.87ZM268.2,27.29c.09-.11.16-.23.23-.35.02-.03.05-.08.07-.11.39-.71.66-1.52.81-2.43.09-.55.14-1.13.14-1.75,0-1.79-.37-3.33-1.1-4.62-.05-.07-.08-.15-.13-.22h0c-.5-.87-1.11-1.6-1.83-2.26-.3-.26-.61-.52-.94-.74-.97-1.43-2.24-2.51-3.82-3.24-1.57-.73-3.25-1.1-5.04-1.1-2.88,0-5.36.66-7.42,1.98-1.11.7-2.08,1.53-2.91,2.51-.71.82-1.32,1.75-1.82,2.77-1.09,2.21-1.63,4.64-1.63,7.3,0,2.3.45,4.33,1.33,6.07.14.26.27.53.44.77.84,1.4,1.89,2.58,3.15,3.54,1.33,1.75,3.03,3.08,5.12,4,2.07.9,4.29,1.36,6.66,1.36,1.01,0,2.05-.1,3.13-.3,1.06-.19,2.07-.52,3.01-.97.95-.46,1.71-1.09,2.29-1.9.15-.21.29-.43.4-.68.32-.69.48-1.5.48-2.44,0-.11,0-.24-.01-.35-.05-.87-.29-1.69-.71-2.47,0-.01-.01-.01-.01-.02-.47-.86-1.13-1.49-1.99-1.91-.03-.02-.07-.05-.1-.06.07-.06.15-.1.22-.17.8-.6,1.47-1.33,1.99-2.19ZM258.01,29.31c.78,0,1.37-.03,1.8-.09.42-.07.89-.1,1.41-.1.85,0,1.51.27,2,.8.48.54.72,1.25.72,2.12,0,1.14-.56,2.07-1.69,2.78-1.14.71-2.86,1.06-5.16,1.06s-4.4-.45-6.16-1.36c-1.77-.9-3.16-2.17-4.17-3.79-.47-.74-.82-1.56-1.06-2.43-.3-1.01-.45-2.11-.45-3.27,0-2.4.47-4.52,1.41-6.35.15-.27.3-.54.47-.8.88-1.45,2.05-2.6,3.5-3.46,1.71-1.01,3.7-1.51,5.96-1.51,1.52,0,2.9.31,4.09.93,1.2.62,2.15,1.47,2.85,2.55.7,1.09,1.05,2.36,1.05,3.82,0,2.05-.81,3.72-2.44,5.01-1.63,1.29-4.4,1.95-8.32,1.95h-.49c.88,1.43,2.44,2.14,4.68,2.14ZM258.29,21.42c0-.35-.15-.64-.46-.87-.31-.23-.71-.34-1.2-.34-1.03,0-1.87.23-2.47.68-.62.46-1.06,1.1-1.32,1.9h.39c2,0,3.35-.08,4.04-.26.68-.18,1.02-.54,1.02-1.1ZM257.84,20.55c-.31-.23-.71-.34-1.2-.34-1.03,0-1.87.23-2.47.68-.62.46-1.06,1.1-1.32,1.9h.39c2,0,3.35-.08,4.04-.26.68-.18,1.02-.54,1.02-1.1,0-.35-.15-.64-.46-.87ZM257.84,20.55c-.31-.23-.71-.34-1.2-.34-1.03,0-1.87.23-2.47.68-.62.46-1.06,1.1-1.32,1.9h.39c2,0,3.35-.08,4.04-.26.68-.18,1.02-.54,1.02-1.1,0-.35-.15-.64-.46-.87Z" fill="#3d0072"/><path d="M261.21,29.11c-.52,0-.98.03-1.41.1-.42.06-1.02.09-1.8.09-2.24,0-3.8-.71-4.68-2.14h.49c3.93,0,6.7-.65,8.32-1.95,1.63-1.29,2.44-2.97,2.44-5.01,0-1.47-.35-2.74-1.05-3.82-.7-1.09-1.65-1.93-2.85-2.55-1.19-.62-2.56-.93-4.09-.93-2.27,0-4.26.5-5.96,1.51-1.45.86-2.62,2-3.5,3.46.01.19.02.39.02.58,0,.81-.07,1.82-.22,3.05-.15,1.21-.34,2.47-.58,3.77-.19,1.06-.41,2.06-.65,3.03.24.87.6,1.68,1.06,2.43,1.01,1.61,2.39,2.88,4.17,3.79,1.76.92,3.82,1.36,6.16,1.36s4.02-.35,5.16-1.06c1.13-.71,1.69-1.64,1.69-2.78,0-.87-.24-1.58-.72-2.12-.49-.53-1.16-.8-2-.8ZM252.85,22.78c.25-.8.7-1.44,1.32-1.9.61-.45,1.44-.68,2.47-.68.49,0,.89.11,1.2.34.31.23.46.52.46.87,0,.56-.34.92-1.02,1.1-.69.18-2.04.26-4.04.26h-.39Z" fill="#fff"/><path d="M288.58,26.36c-.76-1.16-1.63-2.07-2.63-2.75-.1-.16-.19-.31-.3-.45-.09-.13-.21-.25-.33-.39.74-.45,1.41-1.06,1.99-1.84.58-.78.88-1.77.88-2.98s-.31-2.21-.93-3.01c-.62-.81-1.31-1.43-2.05-1.85-.71-1.33-1.8-2.27-3.26-2.8-1.45-.53-2.88-.8-4.28-.8s-2.76.19-4.19.58c-1.43.39-2.75,1-3.94,1.83-1.2.82-2.18,1.9-2.93,3.21-.08.14-.16.29-.23.43-.6,1.24-.88,2.69-.88,4.36s.3,3.17.89,4.34c.57,1.1,1.24,1.99,2.03,2.69.05.05.09.09.15.14-.13.07-.25.13-.38.22-.73.42-1.33,1.02-1.77,1.77-.08.14-.15.27-.22.41-.03.08-.07.15-.11.23-.3.69-.45,1.42-.45,2.19,0,1.33.31,2.43.9,3.29.5.72,1.1,1.3,1.79,1.73.11.09.25.17.38.24.55,1.08,1.31,1.85,2.27,2.36.96.5,1.99.84,3.11,1.01,1.12.16,2.22.24,3.29.24,1.2,0,2.51-.16,3.93-.49,1.41-.32,2.76-.86,4.04-1.6,1.28-.74,2.32-1.75,3.14-3.02.81-1.26,1.21-2.85,1.21-4.77s-.37-3.34-1.11-4.5ZM282.11,33.84c-1.82,1.36-4.2,2.04-7.15,2.04-2.51,0-4.27-.33-5.31-1.02-.33-.22-.61-.46-.84-.74-.48-.6-.72-1.34-.72-2.22,0-.09,0-.17.01-.25.05-.71.29-1.3.72-1.8.48-.55,1.14-.82,1.99-.82.58,0,1.06.03,1.44.11.37.09.78.17,1.21.25s1.06.11,1.88.11c.62,0,1.12-.08,1.51-.24.39-.16.58-.38.58-.63,0-.42-.32-.73-.95-.93-.64-.19-1.43-.41-2.39-.63-.95-.23-1.9-.58-2.85-1.08-.74-.39-1.4-.93-1.93-1.6-.16-.17-.3-.37-.42-.56-.63-.96-.95-2.27-.95-3.93,0-.74.09-1.45.29-2.11h0c.37-1.44,1.17-2.66,2.39-3.66,1.79-1.48,4.14-2.21,7.06-2.21,1.72,0,3.09.33,4.11,1,1.03.66,1.53,1.53,1.53,2.61,0,.81-.23,1.47-.7,1.97-.48.5-1.08.88-1.81,1.14-.73.26-1.48.44-2.27.54-.78.09-1.48.14-2.08.14-.76,0-1.12.3-1.12.88,0,.35.31.64.95.85.63.22,1.42.44,2.36.66.94.23,1.89.57,2.85,1.04.95.47,1.75,1.16,2.38,2.05.63.89.95,2.1.95,3.63,0,2.23-.9,4.04-2.72,5.4Z" fill="#3d0072"/><path d="M284.83,28.44c0,2.23-.9,4.04-2.72,5.4-1.82,1.36-4.2,2.04-7.15,2.04-2.51,0-4.27-.33-5.31-1.02-.33-.22-.61-.46-.84-.74-.05-.87-.29-1.69-.71-2.47.05-.71.29-1.3.72-1.8.48-.55,1.14-.82,1.99-.82.58,0,1.06.03,1.44.11.37.09.78.17,1.21.25s1.06.11,1.88.11c.62,0,1.12-.08,1.51-.24.39-.16.58-.38.58-.63,0-.42-.32-.73-.95-.93-.64-.19-1.43-.41-2.39-.63-.95-.23-1.9-.58-2.85-1.08-.74-.39-1.4-.93-1.93-1.6.09-.55.14-1.13.14-1.75,0-1.79-.37-3.33-1.1-4.62-.05-.07-.08-.15-.13-.22h0c.37-1.44,1.17-2.66,2.39-3.66,1.79-1.48,4.14-2.21,7.06-2.21,1.72,0,3.09.33,4.11,1,1.03.66,1.53,1.53,1.53,2.61,0,.81-.23,1.47-.7,1.97-.48.5-1.08.88-1.81,1.14-.73.26-1.48.44-2.27.54-.78.09-1.48.14-2.08.14-.76,0-1.12.3-1.12.88,0,.35.31.64.95.85.63.22,1.42.44,2.36.66.94.23,1.89.57,2.85,1.04.95.47,1.75,1.16,2.38,2.05.63.89.95,2.1.95,3.63Z" fill="#fff"/><path d="M324.81,17.1c-.07-.15-.15-.29-.24-.42-.38-.58-.84-1.08-1.35-1.48-.27-.23-.57-.42-.89-.6-.26-.53-.6-1-1.02-1.42-.42-.41-.89-.78-1.42-1.06-.06-.03-.14-.07-.22-.1-.08-.02-.17-.06-.26-.09-.16-1.17-.5-2.26-1.02-3.26-.53-1.01-1.34-1.81-2.44-2.39-.52-.94-1.25-1.71-2.16-2.31-.93-.6-2.11-.89-3.54-.89-1.59,0-2.86.34-3.82,1.04-.95.7-1.67,1.63-2.14,2.78-.47,1.14-.77,2.4-.89,3.77-.03.14-.06.25-.06.37v.37c-.81.19-1.6.53-2.38,1-.78.47-1.43,1.12-1.95,1.95-.53.84-.78,1.91-.78,3.24,0,1.43.3,2.58.89,3.43.61.86,1.33,1.52,2.18,1.97.25.49.55.92.87,1.27.33.35.7.66,1.12.93v3.59c0,1.59.25,3.16.76,4.68s1.49,2.69,2.94,3.5c.55.94,1.31,1.72,2.24,2.31.94.61,2.09.9,3.46.9,1.75,0,3.14-.45,4.14-1.32,1-.88,1.72-1.99,2.16-3.37.44-1.36.65-2.78.65-4.28v-4.87c.29-.06.55-.13.81-.21.87-.24,1.65-.58,2.34-1.03.37-.23.71-.48,1.02-.77,1.09-.97,1.63-2.42,1.63-4.33,0-1.12-.21-2.1-.63-2.91ZM319.1,20.62c-.97.63-2.42,1-4.33,1.1v7.05c0,4.35-1.51,6.53-4.53,6.53s-4.52-2.17-4.52-6.53v-7.11c-1.69-.16-2.95-.55-3.8-1.17-.85-.61-1.27-1.58-1.27-2.92s.42-2.3,1.27-2.92,2.11-1.01,3.8-1.17v-1.47c0-4.35,1.51-6.53,4.52-6.53s4.53,2.17,4.53,6.53v1.42c1.91.09,3.35.46,4.33,1.09.97.64,1.47,1.65,1.47,3.04s-.49,2.42-1.47,3.05Z" fill="#3d0072"/><path d="M320.57,17.57c0,1.4-.49,2.42-1.47,3.05-.97.63-2.42,1-4.33,1.1v7.05c0,4.35-1.51,6.53-4.53,6.53s-4.52-2.17-4.52-6.53v-7.11c-1.69-.16-2.95-.55-3.8-1.17-.85-.61-1.27-1.58-1.27-2.92s.42-2.3,1.27-2.92,2.11-1.01,3.8-1.17v-1.47c0-4.35,1.51-6.53,4.52-6.53s4.53,2.17,4.53,6.53v1.42c1.91.09,3.35.46,4.33,1.09.97.64,1.47,1.65,1.47,3.04Z" fill="#fff"/><path d="M336.52,21.33c-.66-.78-1.56-1.17-2.66-1.17s-1.99.39-2.68,1.17c-.68.78-1.02,1.82-1.02,3.11s.34,2.35,1.02,3.14c.69.8,1.58,1.19,2.68,1.19s1.99-.39,2.66-1.19c.66-.79,1-1.84,1-3.14s-.33-2.34-1-3.11ZM336.52,21.33c-.66-.78-1.56-1.17-2.66-1.17s-1.99.39-2.68,1.17c-.68.78-1.02,1.82-1.02,3.11s.34,2.35,1.02,3.14c.69.8,1.58,1.19,2.68,1.19s1.99-.39,2.66-1.19c.66-.79,1-1.84,1-3.14s-.33-2.34-1-3.11ZM348.25,20.1c-.89-1.91-2.15-3.47-3.78-4.67-1.17-1.56-2.66-2.78-4.48-3.67s-3.89-1.34-6.23-1.34c-2.74,0-5.11.6-7.11,1.77-1.36.8-2.52,1.81-3.45,3.01-.47.57-.88,1.2-1.24,1.87-1.1,2.06-1.65,4.4-1.65,7.03,0,.7.03,1.37.13,2.04.18,1.58.6,3.05,1.24,4.4.9,1.91,2.15,3.47,3.74,4.67,1.17,1.56,2.67,2.78,4.51,3.67,1.83.89,3.92,1.34,6.25,1.34,2.72,0,5.09-.6,7.11-1.77,2.01-1.19,3.56-2.82,4.65-4.88,1.09-2.06,1.64-4.4,1.64-7.03,0-2.37-.45-4.51-1.34-6.43ZM343.36,29.99c-.92,1.68-2.19,3-3.82,3.94-1.65.95-3.57,1.42-5.77,1.42s-4.14-.47-5.8-1.42c-1.65-.94-2.93-2.26-3.85-3.94-.77-1.43-1.21-3.06-1.33-4.89-.02-.33-.03-.66-.03-1.01,0-2.23.46-4.2,1.36-5.88.21-.39.45-.76.69-1.11.84-1.17,1.89-2.12,3.16-2.84,1.66-.94,3.59-1.41,5.8-1.41s4.12.47,5.77,1.41c1.64.94,2.91,2.26,3.82,3.95.9,1.68,1.36,3.65,1.36,5.88s-.46,4.2-1.36,5.9ZM333.86,20.16c-1.1,0-1.99.39-2.68,1.17-.68.78-1.02,1.82-1.02,3.11s.34,2.35,1.02,3.14c.69.8,1.58,1.19,2.68,1.19s1.99-.39,2.66-1.19c.66-.79,1-1.84,1-3.14s-.33-2.34-1-3.11c-.66-.78-1.56-1.17-2.66-1.17Z" fill="#3d0072"/><path d="M343.36,18.21c-.92-1.69-2.19-3.01-3.82-3.95-1.65-.94-3.57-1.41-5.77-1.41s-4.14.47-5.8,1.41c-1.27.72-2.32,1.67-3.16,2.84.42.81.63,1.79.63,2.91,0,1.91-.54,3.35-1.63,4.33-.31.29-.65.54-1.02.77.11,1.83.56,3.46,1.33,4.89.92,1.68,2.2,3,3.85,3.94,1.66.95,3.59,1.42,5.8,1.42s4.12-.47,5.77-1.42c1.64-.94,2.91-2.26,3.82-3.94.9-1.69,1.36-3.65,1.36-5.9s-.46-4.2-1.36-5.88ZM336.52,27.58c-.66.8-1.56,1.19-2.66,1.19s-1.99-.39-2.68-1.19c-.68-.79-1.02-1.84-1.02-3.14s.34-2.34,1.02-3.11c.69-.78,1.58-1.17,2.68-1.17s1.99.39,2.66,1.17c.66.78,1,1.82,1,3.11s-.33,2.35-1,3.14Z" fill="#fff"/><path d="M77.43,90.4c-.02-.13-.06-.25-.09-.38-.33-1.13-.78-2.26-1.36-3.35-.25-.49-.54-.95-.84-1.39h0c-.38-.56-.78-1.06-1.21-1.53.4-.53.78-1.08,1.13-1.68h.01c.41-.69.8-1.4,1.17-2.18.7-1.45,1.05-2.8,1.05-4.04v-.17s-.01-.01,0-.01c-.02-1.06-.3-1.99-.79-2.82-.02-.02-.03-.05-.05-.07-.55-.87-1.28-1.53-2.19-1.99-.46-.9-1.13-1.64-2.05-2.19-.9-.55-1.93-.84-3.07-.84-.81,0-1.56.15-2.23.45-.69.29-1.28.64-1.81,1.06-.19-.94-.58-1.81-1.17-2.62s-1.28-1.45-2.09-1.9c-.55-.95-1.29-1.72-2.23-2.31-.95-.61-2.09-.9-3.46-.9-1.75,0-3.14.43-4.14,1.32-1.01.87-1.73,1.99-2.16,3.35-.44,1.36-.66,2.79-.66,4.29v16.69c0,1.59.25,3.16.76,4.68.5,1.52,1.49,2.69,2.95,3.5.55.94,1.29,1.72,2.23,2.31.95.61,2.09.9,3.46.9,1.63,0,2.92-.38,3.87-1.12.96-.74,1.68-1.66,2.18-2.72.19.19.4.35.63.48.69.97,1.56,1.83,2.63,2.56,1.06.72,2.38,1.09,3.94,1.09s3.03-.48,4.21-1.43c.97-.78,1.53-1.88,1.71-3.3.05-.32.07-.66.07-1.02,0-.84-.13-1.75-.39-2.74ZM72.15,93.07c-.54.63-1.45.95-2.75.95-1.37,0-2.48-.39-3.34-1.17s-1.58-1.83-2.16-3.14c-.58-1.32-1.12-2.79-1.6-4.41l-1.61.09v1.8c0,4.35-1.51,6.53-4.52,6.53s-4.53-2.17-4.53-6.53v-16.69c0-4.35,1.51-6.53,4.53-6.53s4.52,2.17,4.52,6.53v8.76h1.61c.94-2.85,1.95-5.08,3.01-6.67,1.08-1.58,2.36-2.38,3.85-2.38.97,0,1.76.3,2.37.9.6.6.89,1.37.89,2.31,0,.85-.25,1.82-.78,2.92-.52,1.1-1.12,2.13-1.8,3.09-.69.96-1.27,1.66-1.75,2.12.81.49,1.59,1.27,2.34,2.34.74,1.08,1.35,2.23,1.82,3.46.47,1.24.71,2.36.71,3.37,0,.94-.26,1.73-.8,2.36Z" fill="#3d0072"/><path d="M72.96,90.71c0,.94-.26,1.73-.8,2.36-.54.63-1.45.95-2.75.95-1.37,0-2.48-.39-3.34-1.17s-1.58-1.83-2.16-3.14c-.58-1.32-1.12-2.79-1.6-4.41l-1.61.09v1.8c0,4.35-1.51,6.53-4.52,6.53s-4.53-2.17-4.53-6.53v-16.69c0-4.35,1.51-6.53,4.53-6.53s4.52,2.17,4.52,6.53v8.76h1.61c.94-2.85,1.95-5.08,3.01-6.67,1.08-1.58,2.36-2.38,3.85-2.38.97,0,1.76.3,2.37.9.6.6.89,1.37.89,2.31,0,.85-.25,1.82-.78,2.92-.52,1.1-1.12,2.13-1.8,3.09-.69.96-1.27,1.66-1.75,2.12.81.49,1.59,1.27,2.34,2.34.74,1.08,1.35,2.23,1.82,3.46.47,1.24.71,2.36.71,3.37Z" fill="#fff"/><path d="M87.59,78.98c-.31-.23-.71-.34-1.19-.34-1.04,0-1.87.23-2.48.68-.62.46-1.05,1.1-1.32,1.9h.39c2.01,0,3.37-.08,4.04-.26.69-.18,1.03-.54,1.03-1.1,0-.35-.16-.64-.47-.87ZM87.59,78.98c-.31-.23-.71-.34-1.19-.34-1.04,0-1.87.23-2.48.68-.62.46-1.05,1.1-1.32,1.9h.39c2.01,0,3.37-.08,4.04-.26.69-.18,1.03-.54,1.03-1.1,0-.35-.16-.64-.47-.87ZM97.83,90.05c-.48-.89-1.18-1.55-2.08-1.97.77-.56,1.43-1.21,1.98-1.99.18-.26.37-.55.53-.84.63-1.13.95-2.53.95-4.18,0-1.28-.19-2.45-.57-3.48-.15-.4-.32-.78-.53-1.14-.26-.47-.56-.9-.9-1.32-.55-.72-1.22-1.36-1.99-1.9-.97-1.43-2.26-2.51-3.82-3.24-1.58-.73-3.25-1.1-5.04-1.1-2.9,0-5.37.66-7.43,1.98-.9.57-1.71,1.22-2.42,1.98-.94.95-1.71,2.05-2.31,3.3-1.09,2.21-1.63,4.64-1.63,7.3,0,2.3.45,4.33,1.34,6.07.89,1.73,2.08,3.17,3.58,4.3.09.11.17.23.26.33,1.28,1.59,2.91,2.8,4.84,3.66,2.08.9,4.3,1.36,6.67,1.36,1.01,0,2.04-.1,3.11-.3,1.08-.19,2.08-.52,3.02-.97.94-.46,1.71-1.09,2.29-1.9.58-.81.87-1.84.87-3.11,0-.1,0-.19-.01-.3-.03-.89-.27-1.75-.72-2.55ZM87.76,87.73c.78,0,1.37-.02,1.8-.09.42-.07.89-.1,1.42-.1.84,0,1.51.27,1.99.8.49.54.73,1.25.73,2.12,0,1.14-.57,2.07-1.71,2.78-1.13.71-2.86,1.06-5.16,1.06s-4.38-.45-6.16-1.36c-1.28-.65-2.37-1.5-3.24-2.54-.34-.39-.64-.8-.92-1.25-.71-1.16-1.18-2.44-1.37-3.87h0c-.09-.6-.14-1.2-.14-1.83,0-.47.02-.94.06-1.39h.01c.14-1.84.58-3.5,1.34-4.97.26-.5.55-.98.88-1.42t0-.01c.82-1.16,1.87-2.11,3.09-2.83,1.69-1.01,3.69-1.51,5.96-1.51,1.52,0,2.88.31,4.09.93,1.2.62,2.15,1.47,2.85,2.55.7,1.09,1.04,2.36,1.04,3.82,0,2.05-.81,3.72-2.43,5.01-1.63,1.29-4.41,1.95-8.33,1.95h-.48c.87,1.43,2.43,2.14,4.67,2.14ZM88.06,79.85c0-.35-.16-.64-.47-.87-.31-.23-.71-.34-1.19-.34-1.04,0-1.87.23-2.48.68-.62.46-1.05,1.1-1.32,1.9h.39c2.01,0,3.37-.08,4.04-.26.69-.18,1.03-.54,1.03-1.1ZM87.59,78.98c-.31-.23-.71-.34-1.19-.34-1.04,0-1.87.23-2.48.68-.62.46-1.05,1.1-1.32,1.9h.39c2.01,0,3.37-.08,4.04-.26.69-.18,1.03-.54,1.03-1.1,0-.35-.16-.64-.47-.87ZM87.59,78.98c-.31-.23-.71-.34-1.19-.34-1.04,0-1.87.23-2.48.68-.62.46-1.05,1.1-1.32,1.9h.39c2.01,0,3.37-.08,4.04-.26.69-.18,1.03-.54,1.03-1.1,0-.35-.16-.64-.47-.87Z" fill="#3d0072"/><path d="M90.97,87.54c-.53,0-1,.03-1.42.1-.42.07-1.02.09-1.8.09-2.24,0-3.8-.71-4.67-2.14h.48c3.93,0,6.71-.65,8.33-1.95,1.61-1.29,2.43-2.97,2.43-5.01,0-1.47-.34-2.74-1.04-3.82-.7-1.09-1.65-1.93-2.85-2.55-1.2-.62-2.56-.93-4.09-.93-2.28,0-4.27.5-5.96,1.51-1.22.72-2.27,1.67-3.09,2.83t0,.01v.17c0,1.24-.35,2.59-1.05,4.04-.37.78-.76,1.49-1.17,2.16h-.01c-.03.46-.06.93-.06,1.4,0,.63.05,1.24.14,1.82h0c.3.45.58.9.84,1.4.58,1.1,1.03,2.22,1.36,3.35.03.13.07.25.09.38.87,1.04,1.96,1.89,3.24,2.54,1.77.92,3.82,1.36,6.16,1.36s4.03-.35,5.16-1.06c1.13-.71,1.71-1.64,1.71-2.78,0-.87-.24-1.58-.73-2.12-.48-.53-1.16-.8-1.99-.8ZM82.6,81.21c.26-.8.7-1.44,1.32-1.9.62-.45,1.44-.68,2.48-.68.48,0,.88.11,1.19.34.31.23.47.52.47.87,0,.56-.34.92-1.03,1.1-.68.18-2.03.26-4.04.26h-.39Z" fill="#fff"/><path d="M110.04,78.98c-.31-.23-.71-.34-1.19-.34-1.04,0-1.87.23-2.48.68-.62.46-1.05,1.1-1.32,1.9h.39c2.01,0,3.35-.08,4.04-.26s1.02-.54,1.02-1.1c0-.35-.15-.64-.46-.87ZM110.04,78.98c-.31-.23-.71-.34-1.19-.34-1.04,0-1.87.23-2.48.68-.62.46-1.05,1.1-1.32,1.9h.39c2.01,0,3.35-.08,4.04-.26s1.02-.54,1.02-1.1c0-.35-.15-.64-.46-.87ZM120.13,89.82c-.46-.78-1.11-1.35-1.95-1.74.76-.54,1.41-1.19,1.95-1.95.21-.27.39-.57.56-.88.64-1.13.95-2.53.95-4.18,0-1.79-.37-3.33-1.09-4.62-.09-.17-.19-.34-.32-.5-.53-.85-1.18-1.59-1.95-2.21-.21-.18-.41-.35-.63-.5-.98-1.43-2.26-2.51-3.82-3.24-1.58-.73-3.26-1.1-5.05-1.1-2.88,0-5.36.66-7.42,1.98-1.73,1.1-3.13,2.52-4.17,4.26-.21.33-.39.66-.56,1.02-1.09,2.21-1.63,4.64-1.63,7.3,0,1.69.24,3.24.73,4.62.17.5.37.98.61,1.44.6,1.16,1.33,2.19,2.2,3.08.42.45.88.85,1.37,1.22,1.34,1.75,3.03,3.08,5.12,4,2.07.9,4.3,1.36,6.67,1.36,1,0,2.04-.1,3.11-.3,1.02-.18,1.99-.49,2.91-.93.03-.01.08-.02.11-.05.94-.46,1.69-1.09,2.28-1.9.6-.81.88-1.84.88-3.11,0-1.01-.24-1.96-.73-2.85-.05-.08-.08-.15-.15-.23ZM110.21,87.73c.78,0,1.37-.02,1.8-.09.42-.07.89-.1,1.42-.1.84,0,1.5.27,1.99.8.48.54.73,1.25.73,2.12,0,1.14-.57,2.07-1.71,2.78-1.13.71-2.86,1.06-5.16,1.06s-4.4-.45-6.16-1.36c-1.77-.9-3.16-2.18-4.17-3.79-.57-.93-.98-1.96-1.22-3.07-.19-.82-.29-1.71-.29-2.63,0-2.19.39-4.14,1.19-5.86.07-.17.15-.33.23-.49.94-1.83,2.27-3.25,3.96-4.26,1.71-1.01,3.7-1.51,5.96-1.51,1.53,0,2.9.31,4.1.93,1.2.62,2.15,1.47,2.85,2.55.69,1.09,1.04,2.36,1.04,3.82,0,2.05-.81,3.72-2.44,5.01-1.63,1.29-4.4,1.95-8.32,1.95h-.49c.88,1.43,2.44,2.14,4.68,2.14ZM110.49,79.85c0-.35-.15-.64-.46-.87-.31-.23-.71-.34-1.19-.34-1.04,0-1.87.23-2.48.68-.62.46-1.05,1.1-1.32,1.9h.39c2.01,0,3.35-.08,4.04-.26s1.02-.54,1.02-1.1ZM110.04,78.98c-.31-.23-.71-.34-1.19-.34-1.04,0-1.87.23-2.48.68-.62.46-1.05,1.1-1.32,1.9h.39c2.01,0,3.35-.08,4.04-.26s1.02-.54,1.02-1.1c0-.35-.15-.64-.46-.87ZM110.04,78.98c-.31-.23-.71-.34-1.19-.34-1.04,0-1.87.23-2.48.68-.62.46-1.05,1.1-1.32,1.9h.39c2.01,0,3.35-.08,4.04-.26s1.02-.54,1.02-1.1c0-.35-.15-.64-.46-.87Z" fill="#3d0072"/><path d="M113.42,87.54c-.53,0-1,.03-1.42.1-.42.07-1.02.09-1.8.09-2.24,0-3.8-.71-4.68-2.14h.49c3.93,0,6.7-.65,8.32-1.95,1.63-1.29,2.44-2.97,2.44-5.01,0-1.47-.35-2.74-1.04-3.82-.7-1.09-1.65-1.93-2.85-2.55-1.2-.62-2.56-.93-4.1-.93-2.27,0-4.26.5-5.96,1.51-1.69,1.01-3.02,2.43-3.96,4.26-.08.16-.16.32-.23.49.38,1.03.57,2.2.57,3.48,0,1.65-.32,3.04-.95,4.18-.16.29-.34.57-.53.84.24,1.11.65,2.14,1.22,3.07,1.01,1.61,2.39,2.88,4.17,3.79,1.76.92,3.82,1.36,6.16,1.36s4.03-.35,5.16-1.06c1.13-.71,1.71-1.64,1.71-2.78,0-.87-.25-1.58-.73-2.12-.49-.53-1.16-.8-1.99-.8ZM105.04,81.21c.26-.8.7-1.44,1.32-1.9.62-.45,1.44-.68,2.48-.68.48,0,.88.11,1.19.34.31.23.46.52.46.87,0,.56-.33.92-1.02,1.1s-2.03.26-4.04.26h-.39Z" fill="#fff"/><path d="M134.24,79.8c-.73-.71-1.69-1.08-2.9-1.08-.78,0-1.5.23-2.14.69v6.77c.32.14.66.25,1.04.37.38.11.74.17,1.1.17,1.2,0,2.16-.38,2.9-1.14.73-.77,1.1-1.76,1.1-3,0-1.13-.37-2.06-1.1-2.77ZM134.24,79.8c-.73-.71-1.69-1.08-2.9-1.08-.78,0-1.5.23-2.14.69v6.77c.32.14.66.25,1.04.37.38.11.74.17,1.1.17,1.2,0,2.16-.38,2.9-1.14.73-.77,1.1-1.76,1.1-3,0-1.13-.37-2.06-1.1-2.77ZM146.55,78.68c-.82-1.68-1.99-3.07-3.48-4.13-1.08-1.53-2.47-2.7-4.19-3.54-1.72-.82-3.66-1.24-5.84-1.24-.65,0-1.3.06-1.96.17-.64.11-1.29.29-1.95.5-1.26-1.1-2.76-1.65-4.48-1.65s-3.14.44-4.13,1.32c-1.01.87-1.73,1.99-2.18,3.35-.02.09-.06.17-.07.26-.39,1.28-.58,2.62-.58,4.02v19.23c0,.32.01.65.03.97.08,1.25.32,2.48.72,3.69.5,1.5,1.48,2.68,2.94,3.53.55.94,1.29,1.72,2.24,2.31.94.6,2.09.9,3.46.9,1.75,0,3.13-.45,4.13-1.32,1.01-.88,1.73-2,2.18-3.37.44-1.36.65-2.79.65-4.28v-1.47h.68c2.7,0,5.03-.6,6.97-1.8,1.95-1.2,3.45-2.82,4.5-4.84,1.05-2.03,1.58-4.32,1.58-6.85,0-2.17-.41-4.1-1.24-5.79ZM141.61,87.84c-.87,1.65-2.12,2.94-3.72,3.87-1.61.93-3.47,1.39-5.58,1.39-.55,0-1.09-.06-1.61-.17-.52-.11-1.02-.26-1.5-.46v4.52c0,4.35-1.51,6.53-4.53,6.53s-4.53-2.17-4.53-6.53v-19.23c0-.65.03-1.26.1-1.81.39-3.15,1.87-4.72,4.43-4.72,1.68,0,2.94.76,3.75,2.24.61-.39,1.33-.7,2.14-.93.81-.23,1.64-.34,2.48-.34,1.98,0,3.71.42,5.19,1.25s2.62,1.97,3.46,3.43c.82,1.45,1.24,3.18,1.24,5.16,0,2.2-.44,4.13-1.32,5.79ZM131.34,78.73c-.78,0-1.5.23-2.14.69v6.77c.32.14.66.25,1.04.37.38.11.74.17,1.1.17,1.2,0,2.16-.38,2.9-1.14.73-.77,1.1-1.76,1.1-3,0-1.13-.37-2.06-1.1-2.77s-1.69-1.08-2.9-1.08Z" fill="#3d0072"/><path d="M141.69,76.88c-.84-1.47-1.98-2.61-3.46-3.43s-3.21-1.25-5.19-1.25c-.85,0-1.67.11-2.48.34-.81.23-1.53.54-2.14.93-.81-1.49-2.07-2.24-3.75-2.24-2.56,0-4.04,1.57-4.43,4.72.13.16.23.33.32.5.72,1.29,1.09,2.84,1.09,4.62,0,1.65-.31,3.04-.95,4.18-.17.31-.35.61-.56.88v3.69c.07.08.1.15.15.23.49.89.73,1.84.73,2.85,0,1.27-.29,2.3-.88,3.11v.97c0,4.35,1.51,6.53,4.53,6.53s4.53-2.17,4.53-6.53v-4.52c.48.19.98.34,1.5.46.53.11,1.06.17,1.61.17,2.11,0,3.96-.46,5.58-1.39,1.6-.93,2.85-2.22,3.72-3.87.88-1.66,1.32-3.59,1.32-5.79,0-1.98-.41-3.71-1.24-5.16ZM134.24,85.57c-.73.77-1.69,1.14-2.9,1.14-.35,0-.72-.06-1.1-.17-.38-.11-.72-.23-1.04-.37v-6.77c.64-.46,1.36-.69,2.14-.69,1.2,0,2.16.37,2.9,1.08s1.1,1.64,1.1,2.77c0,1.24-.37,2.23-1.1,3Z" fill="#fff"/><path d="M174.79,79.8c-.73-.71-1.69-1.08-2.9-1.08-.78,0-1.5.23-2.14.69v6.77c.32.14.66.25,1.04.37.38.11.73.17,1.1.17,1.2,0,2.16-.38,2.9-1.14.73-.77,1.09-1.76,1.09-3,0-1.13-.35-2.06-1.09-2.77ZM174.79,79.8c-.73-.71-1.69-1.08-2.9-1.08-.78,0-1.5.23-2.14.69v6.77c.32.14.66.25,1.04.37.38.11.73.17,1.1.17,1.2,0,2.16-.38,2.9-1.14.73-.77,1.09-1.76,1.09-3,0-1.13-.35-2.06-1.09-2.77ZM187.11,78.68c-.15-.3-.3-.58-.47-.86-.65-1.09-1.47-2.04-2.43-2.83-.18-.15-.38-.3-.58-.45-1.08-1.53-2.47-2.7-4.19-3.54-1.72-.82-3.67-1.24-5.84-1.24-.65,0-1.31.06-1.96.17-.64.11-1.29.29-1.95.5-1.26-1.1-2.76-1.65-4.48-1.65s-3.14.44-4.14,1.32c-1,.87-1.73,1.99-2.16,3.35s-.65,2.79-.65,4.28v19.23c0,1.59.25,3.15.76,4.66.5,1.5,1.48,2.68,2.94,3.53.55.94,1.29,1.72,2.24,2.31.94.6,2.09.9,3.46.9,1.75,0,3.13-.45,4.13-1.32,1.01-.88,1.73-2,2.16-3.37.45-1.36.66-2.79.66-4.28v-1.47h.68c2.7,0,5.01-.6,6.97-1.8,1.31-.8,2.4-1.8,3.31-2.98.45-.57.85-1.2,1.19-1.87.11-.22.23-.45.32-.68h0c.85-1.87,1.26-3.93,1.26-6.17s-.41-4.1-1.24-5.79ZM182.17,87.84c-.87,1.65-2.12,2.94-3.72,3.87-1.61.93-3.47,1.39-5.58,1.39-.55,0-1.09-.06-1.61-.17-.52-.11-1.02-.26-1.5-.46v4.52c0,4.35-1.51,6.53-4.53,6.53s-4.53-2.17-4.53-6.53v-19.23c0-4.35,1.51-6.53,4.53-6.53,1.68,0,2.94.76,3.74,2.24.62-.39,1.34-.7,2.15-.93.8-.23,1.64-.34,2.48-.34,1.97,0,3.7.42,5.17,1.25,1.48.82,2.63,1.97,3.46,3.43.84,1.45,1.25,3.18,1.25,5.16,0,2.2-.44,4.13-1.32,5.79ZM171.9,78.73c-.78,0-1.5.23-2.14.69v6.77c.32.14.66.25,1.04.37.38.11.73.17,1.1.17,1.2,0,2.16-.38,2.9-1.14.73-.77,1.09-1.76,1.09-3,0-1.13-.35-2.06-1.09-2.77s-1.69-1.08-2.9-1.08ZM174.79,79.8c-.73-.71-1.69-1.08-2.9-1.08-.78,0-1.5.23-2.14.69v6.77c.32.14.66.25,1.04.37.38.11.73.17,1.1.17,1.2,0,2.16-.38,2.9-1.14.73-.77,1.09-1.76,1.09-3,0-1.13-.35-2.06-1.09-2.77ZM174.79,79.8c-.73-.71-1.69-1.08-2.9-1.08-.78,0-1.5.23-2.14.69v6.77c.32.14.66.25,1.04.37.38.11.73.17,1.1.17,1.2,0,2.16-.38,2.9-1.14.73-.77,1.09-1.76,1.09-3,0-1.13-.35-2.06-1.09-2.77Z" fill="#3d0072"/><path d="M182.24,76.88c-.82-1.47-1.98-2.61-3.46-3.43-1.48-.82-3.21-1.25-5.17-1.25-.85,0-1.68.11-2.48.34-.81.23-1.53.54-2.15.93-.8-1.49-2.06-2.24-3.74-2.24-3.02,0-4.53,2.17-4.53,6.53v19.23c0,4.35,1.51,6.53,4.53,6.53s4.53-2.17,4.53-6.53v-4.52c.48.19.98.34,1.5.46.53.11,1.06.17,1.61.17,2.11,0,3.96-.46,5.58-1.39,1.6-.93,2.85-2.22,3.72-3.87.88-1.66,1.32-3.59,1.32-5.79,0-1.98-.41-3.71-1.25-5.16ZM174.79,85.57c-.73.77-1.69,1.14-2.9,1.14-.37,0-.72-.06-1.1-.17-.38-.11-.72-.23-1.04-.37v-6.77c.64-.46,1.36-.69,2.14-.69,1.2,0,2.16.37,2.9,1.08s1.09,1.64,1.09,2.77c0,1.24-.35,2.23-1.09,3Z" fill="#fff"/><path d="M199.82,68.29c-.5-1.51-1.49-2.69-2.94-3.53-.56-.95-1.3-1.72-2.24-2.31-.94-.61-2.09-.9-3.46-.9-1.75,0-3.14.43-4.14,1.32-1.01.87-1.73,1.99-2.16,3.35-.44,1.36-.65,2.79-.65,4.29v16.69c0,1.59.25,3.16.76,4.68.16.47.35.9.61,1.3.54.9,1.32,1.64,2.34,2.2.55.94,1.29,1.72,2.24,2.31.94.61,2.08.9,3.46.9,1.75,0,3.13-.45,4.13-1.32,1.01-.88,1.73-1.99,2.16-3.37.16-.47.29-.95.38-1.44.19-.92.29-1.85.29-2.84v-16.7c0-1.59-.25-3.14-.76-4.65ZM195.7,87.2c0,4.35-1.5,6.53-4.52,6.53-2.07,0-3.43-1.03-4.09-3.08h0c-.3-.94-.45-2.08-.45-3.45v-16.69c0-4.35,1.51-6.53,4.53-6.53s4.52,2.17,4.52,6.53v16.69Z" fill="#3d0072"/><path d="M195.7,70.51v16.69c0,4.35-1.5,6.53-4.52,6.53-2.07,0-3.43-1.03-4.09-3.08h0c.85-1.87,1.26-3.93,1.26-6.17s-.41-4.1-1.24-5.79c-.15-.3-.3-.58-.47-.86v-7.31c0-4.35,1.51-6.53,4.53-6.53s4.52,2.17,4.52,6.53Z" fill="#fff"/><path d="M211.53,78.73c-.39-.09-.74-.14-1.08-.14-1.2,0-2.16.38-2.9,1.14-.73.76-1.1,1.75-1.1,2.99,0,1.13.37,2.06,1.1,2.78.73.71,1.69,1.06,2.9,1.06.78,0,1.5-.23,2.14-.68v-6.78c-.32-.16-.68-.29-1.06-.39ZM211.53,78.73c-.39-.09-.74-.14-1.08-.14-1.2,0-2.16.38-2.9,1.14-.73.76-1.1,1.75-1.1,2.99,0,1.13.37,2.06,1.1,2.78.73.71,1.69,1.06,2.9,1.06.78,0,1.5-.23,2.14-.68v-6.78c-.32-.16-.68-.29-1.06-.39ZM225.77,75.52c-.14-.41-.31-.79-.52-1.16-.49-.87-1.18-1.59-2.08-2.15-.11-.07-.23-.14-.34-.21-.53-.94-1.26-1.71-2.22-2.31-.96-.6-2.12-.89-3.48-.89-1.69,0-3.14.5-4.34,1.51-1.13-.37-2.23-.54-3.31-.54-2.69,0-5.01.6-6.96,1.77-.71.43-1.35.93-1.95,1.48-1.03.94-1.88,2.07-2.55,3.37-1.06,2.05-1.59,4.34-1.59,6.87,0,2.14.42,4.06,1.27,5.77.68,1.35,1.53,2.51,2.59,3.45.27.26.56.5.87.72,1.1,1.49,2.51,2.66,4.21,3.5,1.71.85,3.64,1.26,5.82,1.26,1.47,0,2.86-.25,4.19-.78.58.49,1.24.85,1.95,1.08.71.23,1.47.34,2.24.34.48,0,.95-.03,1.37-.1,1.06-.18,1.93-.56,2.66-1.16h.01s.05-.03.07-.06c.34-.3.66-.63.95-.98h.01c.53-.7.94-1.48,1.22-2.38.05-.13.08-.26.11-.39.37-1.24.55-2.53.55-3.89v-9.44c0-1.59-.25-3.15-.76-4.67ZM217.13,93.72c-1.63,0-2.83-.66-3.61-1.99-1.36.9-2.95,1.36-4.77,1.36-1.98,0-3.71-.41-5.19-1.24-1.22-.69-2.21-1.59-2.99-2.72-.17-.23-.32-.48-.47-.73-.82-1.48-1.24-3.19-1.24-5.14,0-2.21.44-4.14,1.32-5.79.13-.23.25-.46.39-.68.84-1.34,1.93-2.4,3.31-3.19,1.59-.93,3.46-1.4,5.6-1.4,1.43,0,2.78.37,4.04,1.08.74-1.36,1.95-2.05,3.61-2.05,3.02,0,4.53,2.17,4.53,6.53v9.44c0,4.35-1.51,6.53-4.53,6.53ZM210.45,78.59c-1.2,0-2.16.38-2.9,1.14-.73.76-1.1,1.75-1.1,2.99,0,1.13.37,2.06,1.1,2.78.73.71,1.69,1.06,2.9,1.06.78,0,1.5-.23,2.14-.68v-6.78c-.32-.16-.68-.29-1.06-.39-.39-.09-.74-.14-1.08-.14ZM211.53,78.73c-.39-.09-.74-.14-1.08-.14-1.2,0-2.16.38-2.9,1.14-.73.76-1.1,1.75-1.1,2.99,0,1.13.37,2.06,1.1,2.78.73.71,1.69,1.06,2.9,1.06.78,0,1.5-.23,2.14-.68v-6.78c-.32-.16-.68-.29-1.06-.39ZM211.53,78.73c-.39-.09-.74-.14-1.08-.14-1.2,0-2.16.38-2.9,1.14-.73.76-1.1,1.75-1.1,2.99,0,1.13.37,2.06,1.1,2.78.73.71,1.69,1.06,2.9,1.06.78,0,1.5-.23,2.14-.68v-6.78c-.32-.16-.68-.29-1.06-.39Z" fill="#3d0072"/><path d="M217.13,71.23c-1.66,0-2.86.69-3.61,2.05-1.26-.71-2.61-1.08-4.04-1.08-2.14,0-4.01.47-5.6,1.4-1.37.79-2.47,1.85-3.31,3.19v12.34c.78,1.13,1.76,2.04,2.99,2.72,1.48.82,3.21,1.24,5.19,1.24,1.82,0,3.41-.46,4.77-1.36.78,1.33,1.98,1.99,3.61,1.99,3.02,0,4.53-2.17,4.53-6.53v-9.44c0-4.35-1.51-6.53-4.53-6.53ZM212.6,85.89c-.64.45-1.36.68-2.14.68-1.2,0-2.16-.35-2.9-1.06-.73-.72-1.1-1.65-1.1-2.78,0-1.24.37-2.23,1.1-2.99.73-.77,1.69-1.14,2.9-1.14.33,0,.69.05,1.08.14.39.1.74.23,1.06.39v6.78Z" fill="#fff"/><path d="M250.6,73.69c-.08-.16-.17-.32-.27-.47-.46-.71-1.08-1.26-1.87-1.65-.06-.03-.11-.07-.17-.09-.46-.88-1.1-1.59-1.95-2.14-.85-.56-1.89-.84-3.11-.84-1.3,0-2.37.33-3.22,1-.85.68-1.48,1.41-1.9,2.22-.23.35-.4.73-.54,1.14-.13.4-.24.79-.33,1.14-.07.23-.13.46-.17.68-.06.23-.11.46-.17.69-.26-.74-.62-1.47-1.08-2.14-.46-.69-1.1-1.24-1.95-1.66-.46-.85-1.1-1.57-1.95-2.16-.85-.61-2.05-.9-3.61-.9-1.36,0-2.44.3-3.24.9-.79.6-1.37,1.35-1.73,2.27-.07.17-.14.35-.18.54-.23.73-.34,1.48-.34,2.23,0,1.24.16,2.72.5,4.48.34,1.76.8,3.57,1.39,5.46.53,1.71,1.14,3.33,1.81,4.85.07.15.13.3.19.45.74,1.66,1.53,3.01,2.38,4.04-.52-.02-1.02-.07-1.51-.11-.48-.05-.98-.08-1.51-.08h-.1c-1.44.02-2.64.49-3.59,1.4-.94.88-1.42,2.08-1.44,3.57-.01.05-.01.1-.01.15,0,1.29.31,2.37.92,3.22.62.84,1.35,1.49,2.2,1.95.52.97,1.22,1.74,2.12,2.29.89.55,1.87.94,2.92,1.17,1.05.23,2.08.34,3.09.34,2.18,0,4.12-.37,5.82-1.1,1.71-.73,3.18-1.72,4.41-2.96,1.24-1.26,2.29-2.67,3.15-4.25.86-1.57,1.55-3.21,2.06-4.89.17-.55.33-1.1.49-1.65h0c.49-1.69.93-3.37,1.33-5.07h0c.06-.23.11-.43.16-.65.56-2.48,1.08-4.98,1.53-7.48.06-.46.11-.92.17-1.36.05-.46.07-.89.07-1.32,0-1.13-.25-2.2-.76-3.19ZM246.17,77.23c-.21,1.26-.49,2.72-.85,4.37-.37,1.66-.76,3.33-1.2,5.01-.44,1.69-.87,3.24-1.28,4.62-1.11,3.57-2.75,6.39-4.92,8.43-2.18,2.05-4.9,3.07-8.19,3.07-2.07,0-3.65-.39-4.74-1.19-1.09-.79-1.64-1.76-1.64-2.9,0-.5.08-.95.24-1.3h.01c.11-.28.27-.5.48-.69.16-.15.34-.27.54-.35h.01c.4-.23.88-.33,1.44-.33.53,0,1,.03,1.42.1.42.06,1.02.09,1.8.09,1.13,0,2.21-.29,3.22-.85,1.01-.57,1.8-1.56,2.38-2.95l-3.79-.05c-.65-.74-1.32-1.84-2-3.29-.68-1.44-1.32-3.05-1.9-4.8-.25-.74-.47-1.48-.68-2.22-.29-1-.53-1.99-.73-2.99-.35-1.72-.54-3.25-.54-4.58v-.08c.01-1.03.26-1.85.76-2.47.5-.64,1.27-.95,2.31-.95,1.11,0,1.93.23,2.48.68.55.46.94,1.01,1.17,1.66.23.65.42,1.28.58,1.9.74,2.99,1.32,5.3,1.71,6.94.39,1.64.69,2.77.9,3.41.21.63.45.95.7.95.42,0,.78-.3,1.08-.9.3-.6.6-1.63.93-3.07.32-1.44.74-3.45,1.26-6.01.33-1.59.76-2.92,1.29-3.97.54-1.05,1.47-1.58,2.8-1.58,1.03,0,1.84.31,2.4.95.57.63.86,1.49.86,2.55,0,.58-.11,1.51-.32,2.78Z" fill="#3d0072"/><path d="M246.49,74.44c0,.58-.11,1.51-.32,2.78-.21,1.26-.49,2.72-.85,4.37-.37,1.66-.76,3.33-1.2,5.01-.44,1.69-.87,3.24-1.28,4.62-1.11,3.57-2.75,6.39-4.92,8.43-2.18,2.05-4.9,3.07-8.19,3.07-2.07,0-3.65-.39-4.74-1.19-1.09-.79-1.64-1.76-1.64-2.9,0-.5.08-.95.24-1.3h.01s.05-.03.07-.06c.34-.3.66-.63.95-.98h.01c.4-.23.88-.33,1.44-.33.53,0,1,.03,1.42.1.42.06,1.02.09,1.8.09,1.13,0,2.21-.29,3.22-.85,1.01-.57,1.8-1.56,2.38-2.95l-3.79-.05c-.65-.74-1.32-1.84-2-3.29-.68-1.44-1.32-3.05-1.9-4.8-.25-.74-.47-1.48-.68-2.22v-1.82c0-1.59-.25-3.15-.76-4.67-.14-.41-.31-.79-.52-1.16.01-1.03.26-1.85.76-2.47.5-.64,1.27-.95,2.31-.95,1.11,0,1.93.23,2.48.68.55.46.94,1.01,1.17,1.66.23.65.42,1.28.58,1.9.74,2.99,1.32,5.3,1.71,6.94.39,1.64.69,2.77.9,3.41.21.63.45.95.7.95.42,0,.78-.3,1.08-.9.3-.6.6-1.63.93-3.07.32-1.44.74-3.45,1.26-6.01.33-1.59.76-2.92,1.29-3.97.54-1.05,1.47-1.58,2.8-1.58,1.03,0,1.84.31,2.4.95.57.63.86,1.49.86,2.55Z" fill="#fff"/><path d="M262.58,75.52c-.09-.3-.22-.57-.35-.84,0,0-.01-.01,0-.01-.4-.85-1-1.56-1.76-2.13-.25-.19-.53-.38-.82-.54v-.05c1.04-.58,1.84-1.42,2.42-2.51.56-1.09.85-2.27.85-3.53s-.3-2.5-.88-3.58-1.41-1.92-2.48-2.51c-.55-.97-1.31-1.76-2.28-2.36-.97-.61-2.13-.9-3.46-.9-1.43,0-2.64.33-3.63,1-1,.66-1.74,1.53-2.24,2.59-.5,1.05-.76,2.17-.76,3.38,0,1.3.29,2.5.86,3.58.56,1.09,1.4,1.92,2.51,2.51-.87.54-1.57,1.18-2.07,1.95-.34.49-.6,1.03-.78,1.61-.47,1.49-.71,3.01-.71,4.57v9.44c0,1.59.25,3.16.76,4.68.1.31.22.6.37.87h0c.56,1.11,1.42,1.98,2.58,2.63.56.94,1.31,1.72,2.24,2.31.94.61,2.09.9,3.46.9,1.75,0,3.14-.45,4.14-1.32.77-.68,1.37-1.48,1.81-2.44.14-.3.25-.61.35-.93.18-.56.32-1.12.42-1.71.15-.84.23-1.69.23-2.58v-9.44c0-1.59-.25-3.15-.76-4.67ZM249.61,63.53c0-1.36.38-2.45,1.14-3.29.76-.82,1.77-1.24,3.05-1.24s2.29.41,3.07,1.24c.78.84,1.17,1.91,1.17,3.24s-.39,2.42-1.17,3.24c-.78.82-1.81,1.24-3.07,1.24s-2.29-.4-3.05-1.21c-.77-.81-1.14-1.88-1.14-3.22ZM258.47,87.2c0,4.35-1.51,6.53-4.53,6.53s-4.41-2.01-4.51-6.03h0c-.01-.17-.01-.33-.01-.49v-9.44c0-1.95.3-3.47.92-4.53.74-1.33,1.95-1.99,3.61-1.99,3.02,0,4.53,2.17,4.53,6.53v9.44Z" fill="#3d0072"/><path d="M258.03,63.49c0,1.33-.39,2.42-1.17,3.24-.78.82-1.81,1.24-3.07,1.24s-2.29-.4-3.05-1.21c-.77-.81-1.14-1.88-1.14-3.22s.38-2.45,1.14-3.29c.76-.82,1.77-1.24,3.05-1.24s2.29.41,3.07,1.24c.78.84,1.17,1.91,1.17,3.24Z" fill="#fff"/><path d="M258.47,77.75v9.44c0,4.35-1.51,6.53-4.53,6.53s-4.41-2.01-4.51-6.03h0c.06-.23.11-.43.16-.65.56-2.48,1.08-4.98,1.53-7.48.06-.46.11-.92.17-1.36.05-.46.07-.89.07-1.32,0-1.13-.25-2.2-.76-3.19-.08-.16-.17-.32-.27-.47.74-1.33,1.95-1.99,3.61-1.99,3.02,0,4.53,2.17,4.53,6.53Z" fill="#fff"/><path d="M288.12,77.17c-.03-.06-.07-.11-.11-.17-.48-.81-1.06-1.53-1.74-2.14-.33-.31-.69-.6-1.06-.85-1.1-1.66-2.61-2.86-4.5-3.61-1.9-.74-3.8-1.12-5.68-1.12-1.52,0-2.96.33-4.33.97-1.18-.97-2.6-1.45-4.29-1.45s-3.13.44-4.13,1.32c-.77.66-1.37,1.48-1.81,2.43-.14.3-.26.61-.37.93-.44,1.36-.65,2.79-.65,4.28v9.44c0,1.59.25,3.16.76,4.68.4,1.21,1.11,2.21,2.13,2.96.25.19.53.38.81.54.55.94,1.31,1.72,2.24,2.31.94.61,2.09.9,3.46.9,1.52,0,2.84-.41,3.94-1.25,1.11-.82,1.9-1.96,2.39-3.38.46.55,1.02,1.02,1.71,1.41.55.94,1.29,1.72,2.23,2.31.95.61,2.09.9,3.46.9,1.25,0,2.31-.23,3.17-.69.34-.18.65-.4.93-.65.53-.48.96-1.03,1.32-1.65-.01-.01,0-.01,0-.01.3-.53.53-1.1.7-1.73.17-.63.31-1.26.4-1.91-.01-.01,0-.01,0-.01.1-.76.16-1.52.16-2.31v-7.69c0-1.88-.38-3.47-1.12-4.77ZM284.37,87.2c0,2.15-.33,3.77-1,4.88-.68,1.1-1.75,1.65-3.24,1.65-3.02,0-4.53-2.17-4.53-6.53v-6.27c0-.85-.24-1.52-.73-2.05-.48-.52-1.12-.78-1.9-.78s-1.45.26-2.04.78v8.32c0,4.35-1.51,6.53-4.53,6.53-1.44,0-2.54-.5-3.3-1.51-.81-1.09-1.22-2.76-1.22-5.01v-9.44c0-1.18.11-2.21.34-3.07h0c.6-2.31,1.99-3.46,4.18-3.46,1.69,0,2.94.76,3.75,2.24.64-.55,1.4-.98,2.23-1.29.85-.31,1.73-.46,2.63-.46,2.79,0,5.05.71,6.77,2.14,1.73,1.43,2.59,3.31,2.59,5.64v7.69Z" fill="#3d0072"/><path d="M284.37,79.5v7.69c0,2.15-.33,3.77-1,4.88-.68,1.1-1.75,1.65-3.24,1.65-3.02,0-4.53-2.17-4.53-6.53v-6.27c0-.85-.24-1.52-.73-2.05-.48-.52-1.12-.78-1.9-.78s-1.45.26-2.04.78v8.32c0,4.35-1.51,6.53-4.53,6.53-1.44,0-2.54-.5-3.3-1.51.15-.84.23-1.69.23-2.58v-9.44c0-1.59-.25-3.15-.76-4.67-.09-.3-.22-.57-.35-.84,0,0-.01-.01,0-.01.6-2.3,1.99-3.45,4.18-3.45,1.69,0,2.94.76,3.75,2.24.64-.55,1.4-.98,2.23-1.29.85-.31,1.73-.46,2.63-.46,2.79,0,5.05.71,6.77,2.14,1.73,1.43,2.59,3.31,2.59,5.64Z" fill="#fff"/><path d="M301.04,78.7c-.66-.66-1.55-1-2.64-1s-2.04.33-2.7,1c-.68.66-1.01,1.53-1.01,2.61s.33,1.99,1.01,2.66c.66.66,1.56,1,2.7,1s1.98-.33,2.64-1c.68-.66,1.01-1.56,1.01-2.66s-.33-1.95-1.01-2.61ZM301.04,78.7c-.66-.66-1.55-1-2.64-1s-2.04.33-2.7,1c-.68.66-1.01,1.53-1.01,2.61s.33,1.99,1.01,2.66c.66.66,1.56,1,2.7,1s1.98-.33,2.64-1c.68-.66,1.01-1.56,1.01-2.66s-.33-1.95-1.01-2.61ZM315.56,74.16c.89-1.2,1.34-2.7,1.34-4.49,0-1.2-.29-2.22-.86-3.07-.56-.84-1.27-1.48-2.12-1.9-.48-.97-1.2-1.73-2.16-2.26-.95-.54-1.99-.81-3.09-.81-1.43,0-2.55.32-3.35.95-.81.64-1.47,1.45-1.96,2.44-.48,1-.9,2.04-1.26,3.14l-.15.58c-.62-.13-1.24-.22-1.84-.29-.62-.07-1.22-.1-1.81-.1-2.44,0-4.67.5-6.72,1.49-2.04,1-3.67,2.43-4.89,4.32-.15.23-.29.46-.42.7-.94,1.74-1.41,3.79-1.41,6.16,0,1.53.25,3.02.76,4.49.5,1.45,1.27,2.77,2.31,3.94-.78.88-1.37,1.88-1.77,3-.4,1.12-.61,2.28-.61,3.48,0,.72.07,1.39.19,1.99.16.76.41,1.42.78,2,.65,1.03,1.45,1.84,2.43,2.43.56.97,1.29,1.74,2.2,2.29s1.89.95,2.94,1.19c1.05.25,2.07.37,3.05.37.42,0,.86,0,1.32-.02.46-.01.89-.03,1.32-.07.23.58.56,1.05,1,1.41.44.35.88.62,1.34.78.23.71.58,1.27,1.06,1.66.49.39,1.02.66,1.59.82.56.16,1.06.24,1.48.24,1.57,0,2.99-.33,4.29-1,1.29-.66,2.34-1.61,3.11-2.85.78-1.22,1.17-2.7,1.17-4.43,0-1.59-.34-2.92-1.02-3.98-.69-1.08-1.53-1.93-2.53-2.59-.58-.97-1.39-1.79-2.39-2.44,1.59-1.03,2.86-2.43,3.82-4.16.96-1.74,1.43-3.78,1.43-6.11,0-1.1-.13-2.21-.39-3.31-.25-1.11-.68-2.14-1.26-3.13,1.17-.71,2.2-1.66,3.09-2.86ZM310.3,71.33c-1.16,1.01-2.48,1.8-3.97,2.38.9.92,1.63,1.98,2.14,3.22.52,1.24.78,2.6.78,4.09,0,2.01-.46,3.79-1.36,5.33-.9,1.55-2.19,2.74-3.85,3.58-1.66.84-3.57,1.26-5.75,1.26-.62,0-1.2-.03-1.75-.09-.55-.07-1.09-.16-1.6-.3-.46.46-.69,1.11-.69,1.95,0,.42.15.78.44,1.05.3.27.69.41,1.17.41.56,0,1.28-.03,2.18-.1.89-.06,1.88-.09,2.94-.09,2.67,0,4.82.57,6.48,1.73,1.65,1.16,2.48,2.67,2.48,4.56,0,1.75-.56,3.16-1.68,4.24-1.12,1.06-2.61,1.6-4.45,1.6-.55,0-1-.14-1.34-.41-.34-.27-.52-.64-.52-1.1s.1-.81.32-1.06c.21-.26.31-.58.31-.97,0-.42-.25-.78-.76-1.05s-1.17-.41-2.01-.41c-.78,0-1.64.03-2.58.09-.95.07-1.79.1-2.54.1-2.11,0-3.75-.46-4.93-1.36-1.19-.92-1.79-2.26-1.79-4.04,0-.1,0-.21.01-.31-.01-.01,0-.01,0-.01.05-1.31.39-2.48,1.02-3.53.02-.03.05-.08.08-.11-.01-.01,0-.01,0-.01.66-1.08,1.53-1.91,2.6-2.51-.96-.6-1.79-1.34-2.44-2.22-.3-.39-.57-.81-.8-1.26-.77-1.44-1.14-3.09-1.14-4.95,0-1.47.24-2.8.71-4.02.18-.47.4-.93.65-1.36.9-1.53,2.19-2.74,3.85-3.57,1.66-.85,3.58-1.27,5.79-1.27,1.91,0,3.62.32,5.12.97.39-.9.71-1.82.97-2.72.25-.9.54-1.74.85-2.48s.73-1.35,1.27-1.8c.54-.46,1.26-.69,2.16-.69,1.01,0,1.82.3,2.44.88.62.58.93,1.34.93,2.29,0,1.72-.58,3.08-1.73,4.09ZM298.4,77.71c-1.14,0-2.04.33-2.7,1-.68.66-1.01,1.53-1.01,2.61s.33,1.99,1.01,2.66c.66.66,1.56,1,2.7,1s1.98-.33,2.64-1c.68-.66,1.01-1.56,1.01-2.66s-.33-1.95-1.01-2.61c-.66-.66-1.55-1-2.64-1Z" fill="#3d0072"/><path d="M312.03,67.24c0-.95-.31-1.71-.93-2.29-.62-.58-1.43-.88-2.44-.88-.9,0-1.63.23-2.16.69-.54.45-.96,1.05-1.27,1.8s-.6,1.58-.85,2.48c-.26.9-.58,1.82-.97,2.72-1.5-.65-3.21-.97-5.12-.97-2.21,0-4.13.42-5.79,1.27-1.66.84-2.94,2.04-3.85,3.57-.25.43-.47.89-.65,1.36.05.06.08.11.11.17.74,1.31,1.12,2.9,1.12,4.77v5.28c.65.88,1.48,1.63,2.44,2.22-1.06.6-1.93,1.43-2.6,2.51,0,0-.01,0,0,.01-.09.65-.23,1.28-.4,1.91-.17.63-.4,1.2-.7,1.73,0,0-.01,0,0,.01-.01.1-.01.21-.01.31,0,1.79.6,3.13,1.79,4.04,1.18.9,2.83,1.36,4.93,1.36.76,0,1.59-.03,2.54-.1.94-.06,1.8-.09,2.58-.09.85,0,1.51.14,2.01.41s.76.63.76,1.05c0,.39-.1.71-.31.97-.22.25-.32.61-.32,1.06s.17.82.52,1.1c.34.27.79.41,1.34.41,1.84,0,3.33-.54,4.45-1.6,1.12-1.08,1.68-2.48,1.68-4.24,0-1.89-.84-3.4-2.48-4.56-1.66-1.16-3.81-1.73-6.48-1.73-1.06,0-2.05.03-2.94.09-.89.07-1.61.1-2.18.1-.48,0-.87-.14-1.17-.41-.29-.27-.44-.63-.44-1.05,0-.84.23-1.49.69-1.95.52.14,1.05.23,1.6.3.55.06,1.13.09,1.75.09,2.18,0,4.09-.42,5.75-1.26,1.66-.85,2.94-2.04,3.85-3.58.9-1.55,1.36-3.32,1.36-5.33,0-1.49-.26-2.85-.78-4.09-.52-1.24-1.24-2.3-2.14-3.22,1.49-.58,2.82-1.37,3.97-2.38,1.14-1.01,1.73-2.37,1.73-4.09ZM301.04,83.97c-.66.66-1.55,1-2.64,1s-2.04-.33-2.7-1c-.68-.66-1.01-1.56-1.01-2.66s.33-1.95,1.01-2.61c.66-.66,1.56-1,2.7-1s1.98.33,2.64,1c.68.66,1.01,1.53,1.01,2.61s-.33,1.99-1.01,2.66Z" fill="#fff"/></g></svg>