<?xml version="1.0" encoding="UTF-8"?><svg id="Layer_2" xmlns="http://www.w3.org/2000/svg" xmlns:xlink="http://www.w3.org/1999/xlink" viewBox="0 0 418.68 127.57"><defs><linearGradient id="linear-gradient" x1="209.7" y1=".28" x2="209.7" y2="118.31" gradientUnits="userSpaceOnUse"><stop offset="0" stop-color="#e57373"/><stop offset=".36" stop-color="#e36f6f"/><stop offset=".65" stop-color="#dd6565"/><stop offset=".92" stop-color="#d45555"/><stop offset="1" stop-color="#d14e4e"/></linearGradient><linearGradient id="linear-gradient-2" x1="209.7" y1="10.5" x2="209.7" y2="108.09" gradientUnits="userSpaceOnUse"><stop offset="0" stop-color="#ed9898"/><stop offset=".29" stop-color="#ec9494"/><stop offset=".51" stop-color="#e98a8a"/><stop offset=".72" stop-color="#e47979"/><stop offset=".92" stop-color="#de6262"/><stop offset="1" stop-color="#db5656"/></linearGradient></defs><g id="Layer_1-2"><rect x="0" y="0" width="417.96" height="127.57" rx="53.49" ry="53.49" fill="#bc4242"/><rect x=".72" y=".28" width="417.96" height="118.04" rx="49.49" ry="49.49" fill="url(#linear-gradient)"/><rect x="14.76" y="10.5" width="389.88" height="97.59" rx="40.92" ry="40.92" fill="url(#linear-gradient-2)" stroke="#ba3a3a" stroke-miterlimit="10" stroke-width="3"/><path d="M329.03,28.37l-47.92,5.3c-5.52.61-9.69,5.27-9.69,10.82v36.53c0,5.12,4.15,9.26,9.26,9.26h48.92c5.45,0,9.86-4.41,9.86-9.86v-42.72c0-5.6-4.86-9.96-10.43-9.34ZM284.62,43.02h-7.13c-.66,0-.97-.81-.49-1.26l4.34-3.93c.32-.29.82-.23,1.07.11l2.79,3.94c.34.47,0,1.13-.58,1.13ZM294.9,42.45l-2.02-3.82c-.34-.65.06-1.44.79-1.56l3.71-.57c.42-.06.83.12,1.06.47l2.89,4.4c.47.72-.04,1.66-.89,1.66h-4.59c-.4,0-.76-.22-.95-.57ZM314.32,66.33l-14.02,8.65c-1.67,1.03-3.83-.18-3.83-2.14v-17.74c0-1.4,1.54-2.26,2.72-1.52l15.12,9.32c1.27.79,1.27,2.64,0,3.43ZM315.97,43.02h-2.79c-.6,0-1.16-.34-1.45-.86l-2.56-4.63c-.52-.96,0-2.15,1.05-2.41l2.64-.65c.75-.19,1.54.17,1.88.86l2.69,5.29c.57,1.11-.24,2.41-1.48,2.41ZM333.12,43.02h-4.38c-.45,0-.86-.26-1.05-.65l-3.21-6.54c-.39-.78.19-1.69,1.05-1.69h3.48c.41,0,.78.21,1,.55l4.09,6.54c.49.78-.07,1.8-.99,1.8Z" fill="#fff" stroke="#720000" stroke-miterlimit="10" stroke-width="3"/><path d="M96.29,46.74c-.69-.93-1.68-1.4-2.97-1.4-.94,0-1.98.29-3.09.86-.14.11-.2.23-.2.36l.05,7.36c0,.2.18.36.56.45.37.11.78.17,1.22.2.44.04.73.05.86.05,1.55,0,2.7-.44,3.42-1.34.73-.89,1.11-1.99,1.14-3.28.04-1.24-.3-2.34-.99-3.27ZM96.29,46.74c-.69-.93-1.68-1.4-2.97-1.4-.94,0-1.98.29-3.09.86-.14.11-.2.23-.2.36l.05,7.36c0,.2.18.36.56.45.37.11.78.17,1.22.2.44.04.73.05.86.05,1.55,0,2.7-.44,3.42-1.34.73-.89,1.11-1.99,1.14-3.28.04-1.24-.3-2.34-.99-3.27ZM109.23,45.35c-.41-.98-.89-1.87-1.49-2.68-.56-.81-1.23-1.54-1.99-2.19-.25-.2-.5-.41-.76-.6-1.11-1.46-2.5-2.64-4.19-3.55-1.67-.92-3.65-1.37-5.95-1.37-2.13,0-4.2.48-6.19,1.42-.55-.24-1.09-.41-1.62-.5-.55-.11-1.04-.15-1.48-.15-2.06,0-3.64.66-4.73,1.96-1.1,1.3-1.63,2.85-1.6,4.64l.2,21.56c0,1.05.06,2.11.2,3.2.13,1.07.45,2.09.97,3.02.5.93,1.3,1.65,2.37,2.15.51.99,1.23,1.76,2.16,2.34.93.57,2.08.86,3.42.86,1.97,0,3.46-.51,4.47-1.54,1.01-1.04,1.68-2.21,2.03-3.53.13-.51.21-1.03.25-1.55.04-.52.07-1,.1-1.44.38.04.75.07,1.12.13.37.05.74.07,1.12.07,2.27,0,4.22-.46,5.88-1.4.63-.36,1.22-.75,1.75-1.19.88-.69,1.65-1.51,2.28-2.43.01-.01.01-.02.02-.04,1.03-1.48,1.78-3.1,2.29-4.89.5-1.79.76-3.54.76-5.27,0-2.4-.48-4.73-1.4-7ZM105.05,54.09c-.24.94-.56,1.81-.97,2.62-.95,1.86-2.21,3.29-3.76,4.28-1.55,1-3.29,1.5-5.22,1.5-1.53,0-3.12-.36-4.82-1.07v3.6c-.04,1.8-.42,3.16-1.14,4.09-.73.93-1.92,1.34-3.58,1.24-1.25-.13-2.18-.68-2.79-1.62-.61-.94-.87-2.58-.81-4.87l-.2-21.56c-.02-1.49.35-2.54,1.14-3.15.8-.61,1.68-.91,2.66-.91,1.29,0,2.3.37,3.05,1.11.94-.64,1.94-1.11,3.02-1.42,1.06-.3,2.13-.45,3.22-.45,1.82,0,3.55.46,5.2,1.4,1.63.93,2.97,2.33,4.01,4.19.42.76.75,1.6.99,2.53.36,1.32.52,2.81.5,4.47-.02,1.46-.19,2.79-.5,4.02ZM93.32,45.35c-.94,0-1.98.29-3.09.86-.14.11-.2.23-.2.36l.05,7.36c0,.2.18.36.56.45.37.11.78.17,1.22.2.44.04.73.05.86.05,1.55,0,2.7-.44,3.42-1.34.73-.89,1.11-1.99,1.14-3.28.04-1.24-.3-2.34-.99-3.27-.69-.93-1.68-1.4-2.97-1.4ZM96.29,46.74c-.69-.93-1.68-1.4-2.97-1.4-.94,0-1.98.29-3.09.86-.14.11-.2.23-.2.36l.05,7.36c0,.2.18.36.56.45.37.11.78.17,1.22.2.44.04.73.05.86.05,1.55,0,2.7-.44,3.42-1.34.73-.89,1.11-1.99,1.14-3.28.04-1.24-.3-2.34-.99-3.27ZM96.29,46.74c-.69-.93-1.68-1.4-2.97-1.4-.94,0-1.98.29-3.09.86-.14.11-.2.23-.2.36l.05,7.36c0,.2.18.36.56.45.37.11.78.17,1.22.2.44.04.73.05.86.05,1.55,0,2.7-.44,3.42-1.34.73-.89,1.11-1.99,1.14-3.28.04-1.24-.3-2.34-.99-3.27Z" fill="#720000"/><path d="M104.06,43.07c-1.04-1.86-2.37-3.26-4.01-4.19-1.65-.93-3.37-1.4-5.2-1.4-1.09,0-2.16.15-3.22.45-1.07.31-2.08.78-3.02,1.42-.75-.74-1.76-1.11-3.05-1.11-.98,0-1.86.3-2.66.91-.8.61-1.17,1.66-1.14,3.15l.2,21.56c-.06,2.29.2,3.92.81,4.87.61.94,1.54,1.49,2.79,1.62,1.66.1,2.85-.31,3.58-1.24.73-.93,1.11-2.29,1.14-4.09v-3.6c1.69.72,3.29,1.07,4.82,1.07,1.93,0,3.67-.5,5.22-1.5,1.55-.99,2.8-2.42,3.76-4.28.41-.81.73-1.68.97-2.62v-8.49c-.24-.93-.57-1.76-.99-2.53ZM96.14,53.29c-.73.89-1.87,1.34-3.42,1.34-.13,0-.42-.01-.86-.05-.44-.04-.85-.1-1.22-.2-.38-.09-.56-.25-.56-.45l-.05-7.36c0-.13.06-.25.2-.36,1.11-.57,2.15-.86,3.09-.86,1.29,0,2.28.47,2.97,1.4.69.93,1.03,2.03.99,3.27-.04,1.29-.42,2.39-1.14,3.28Z" fill="#fff"/><path d="M121.3,42.69c-.52-1.57-1.55-2.8-3.08-3.68-.57-.98-1.35-1.78-2.33-2.41-.98-.62-2.18-.93-3.6-.93-1.82,0-3.27.45-4.32,1.37-1.04.89-1.78,2.04-2.23,3.44-.01.02-.01.04-.02.06-.45,1.42-.68,2.91-.68,4.46v17.4c0,.87.07,1.74.23,2.59.12.78.31,1.54.56,2.29.51,1.59,1.54,2.8,3.06,3.65.57.98,1.35,1.78,2.34,2.41.98.62,2.17.94,3.59.94,1.84,0,3.27-.47,4.32-1.37,1.05-.92,1.8-2.09,2.25-3.51.17-.49.3-.99.39-1.5.2-.95.3-1.94.3-2.96v-17.4c0-1.66-.26-3.27-.79-4.84ZM117.01,62.39c0,4.53-1.56,6.8-4.71,6.8s-4.7-2.23-4.72-6.68v-17.52c0-.86.06-1.63.17-2.33.48-2.98,2-4.47,4.56-4.47,3.15,0,4.71,2.27,4.71,6.8v17.4Z" fill="#720000"/><path d="M117.01,44.99v17.4c0,4.53-1.56,6.8-4.71,6.8s-4.7-2.23-4.72-6.68c1.03-1.48,1.78-3.1,2.29-4.89.5-1.79.76-3.54.76-5.27,0-2.4-.48-4.73-1.4-7-.41-.98-.89-1.87-1.49-2.68.48-2.98,2-4.47,4.56-4.47,3.15,0,4.71,2.27,4.71,6.8Z" fill="#fff"/><path d="M133.5,53.57c-.41-.1-.79-.16-1.12-.16-1.25,0-2.25.41-3.02,1.19-.76.8-1.14,1.84-1.14,3.12,0,1.18.38,2.15,1.14,2.89.76.75,1.76,1.12,3.02,1.12.81,0,1.55-.24,2.23-.72v-7.05c-.33-.17-.7-.3-1.11-.41ZM133.5,53.57c-.41-.1-.79-.16-1.12-.16-1.25,0-2.25.41-3.02,1.19-.76.8-1.14,1.84-1.14,3.12,0,1.18.38,2.15,1.14,2.89.76.75,1.76,1.12,3.02,1.12.81,0,1.55-.24,2.23-.72v-7.05c-.33-.17-.7-.3-1.11-.41ZM148.34,50.22c-.14-.43-.32-.82-.54-1.19-.5-.91-1.23-1.65-2.17-2.23-.12-.08-.24-.15-.37-.23-.54-.98-1.3-1.78-2.3-2.41-1-.62-2.21-.94-3.63-.94-1.76,0-3.27.52-4.52,1.57-1.18-.37-2.33-.55-3.45-.55-2.8,0-5.22.61-7.25,1.85-.74.44-1.42.95-2.03,1.53-1.09.99-1.97,2.16-2.67,3.52-1.1,2.13-1.65,4.52-1.65,7.16,0,2.23.44,4.23,1.32,6.01.69,1.41,1.59,2.61,2.7,3.59.29.26.58.51.91.74,1.14,1.56,2.61,2.78,4.39,3.66,1.78.87,3.79,1.31,6.06,1.31,1.53,0,2.97-.27,4.36-.81.61.51,1.28.88,2.03,1.12.74.24,1.51.36,2.33.36.51,0,.99-.04,1.44-.11,1.11-.19,2.02-.58,2.77-1.2h.01s.05-.04.07-.06c.37-.32.7-.67,1-1.05.55-.72.98-1.53,1.28-2.46.05-.13.08-.27.12-.41.38-1.3.57-2.65.57-4.05v-9.84c0-1.66-.26-3.28-.79-4.88ZM139.33,69.19c-1.69,0-2.95-.69-3.76-2.08-1.42.94-3.08,1.42-4.97,1.42-2.06,0-3.86-.43-5.4-1.3-1.28-.72-2.31-1.66-3.11-2.84-.18-.25-.33-.5-.49-.76-.86-1.54-1.29-3.32-1.29-5.34,0-2.3.45-4.32,1.37-6.03.13-.24.26-.48.41-.7.87-1.4,2.02-2.5,3.45-3.34,1.66-.95,3.6-1.44,5.83-1.44,1.49,0,2.89.37,4.21,1.12.78-1.42,2.03-2.13,3.76-2.13,3.15,0,4.71,2.27,4.71,6.8v9.84c0,4.53-1.56,6.8-4.71,6.8ZM132.38,53.41c-1.25,0-2.25.41-3.02,1.19-.76.8-1.14,1.84-1.14,3.12,0,1.18.38,2.15,1.14,2.89.76.75,1.76,1.12,3.02,1.12.81,0,1.55-.24,2.23-.72v-7.05c-.33-.17-.7-.3-1.11-.41-.41-.1-.79-.16-1.12-.16ZM133.5,53.57c-.41-.1-.79-.16-1.12-.16-1.25,0-2.25.41-3.02,1.19-.76.8-1.14,1.84-1.14,3.12,0,1.18.38,2.15,1.14,2.89.76.75,1.76,1.12,3.02,1.12.81,0,1.55-.24,2.23-.72v-7.05c-.33-.17-.7-.3-1.11-.41ZM133.5,53.57c-.41-.1-.79-.16-1.12-.16-1.25,0-2.25.41-3.02,1.19-.76.8-1.14,1.84-1.14,3.12,0,1.18.38,2.15,1.14,2.89.76.75,1.76,1.12,3.02,1.12.81,0,1.55-.24,2.23-.72v-7.05c-.33-.17-.7-.3-1.11-.41Z" fill="#720000"/><path d="M139.33,45.75c-1.73,0-2.98.72-3.76,2.13-1.32-.75-2.72-1.12-4.21-1.12-2.23,0-4.17.49-5.83,1.44-1.43.84-2.58,1.94-3.45,3.34v12.84c.8,1.18,1.84,2.12,3.11,2.84,1.54.87,3.34,1.3,5.4,1.3,1.9,0,3.55-.48,4.97-1.42.81,1.38,2.06,2.08,3.76,2.08,3.15,0,4.71-2.27,4.71-6.8v-9.84c0-4.53-1.56-6.8-4.71-6.8ZM134.61,61.02c-.68.48-1.42.72-2.23.72-1.25,0-2.25-.37-3.02-1.12-.76-.74-1.14-1.7-1.14-2.89,0-1.29.38-2.33,1.14-3.12.76-.79,1.76-1.19,3.02-1.19.33,0,.72.06,1.12.16.41.11.78.24,1.11.41v7.05Z" fill="#fff"/><path d="M174.2,48.32c-.52-1.04-1.32-1.8-2.41-2.31-.48-.91-1.16-1.65-2.03-2.23-.88-.57-1.97-.86-3.24-.86-1.36,0-2.47.35-3.35,1.04-.88.69-1.54,1.47-1.98,2.31-.24.37-.43.76-.56,1.19-.13.42-.25.81-.36,1.19-.06.23-.12.47-.17.7-.06.24-.12.48-.18.72-.27-.79-.64-1.53-1.12-2.24-.48-.7-1.14-1.28-2.03-1.72-.48-.88-1.16-1.63-2.03-2.25-.88-.63-2.13-.94-3.76-.94-1.42,0-2.54.31-3.37.94-.82.62-1.43,1.41-1.8,2.35-.07.19-.14.39-.19.58-.25.76-.37,1.54-.37,2.31,0,1.29.18,2.84.54,4.66.36,1.82.83,3.72,1.44,5.69.55,1.78,1.18,3.47,1.88,5.06.06.16.13.31.2.47.78,1.73,1.6,3.12,2.48,4.21-.54-.04-1.06-.07-1.57-.12-.5-.06-1.03-.08-1.57-.08h-.11c-1.5.02-2.75.51-3.74,1.44-.98.93-1.48,2.18-1.5,3.73-.01.05-.01.11-.01.15,0,1.35.32,2.47.95,3.34.64.88,1.41,1.56,2.29,2.04.54,1.01,1.28,1.8,2.21,2.37.93.58,1.94.99,3.04,1.23,1.1.23,2.17.35,3.22.35,2.27,0,4.28-.38,6.06-1.13,1.78-.76,3.3-1.8,4.59-3.1,1.29-1.3,2.37-2.77,3.28-4.41.89-1.63,1.61-3.34,2.15-5.09.79-2.54,1.47-5.1,2.06-7.69.58-2.59,1.12-5.18,1.6-7.79.06-.47.12-.94.17-1.42.06-.47.08-.93.08-1.36,0-1.19-.26-2.3-.79-3.33ZM169.59,51.99c-.23,1.32-.51,2.85-.89,4.57-.37,1.73-.78,3.47-1.24,5.22-.45,1.76-.91,3.36-1.34,4.82-1.16,3.72-2.86,6.64-5.13,8.78-2.27,2.13-5.1,3.2-8.53,3.2-2.16,0-3.8-.42-4.94-1.24-1.13-.83-1.71-1.84-1.71-3.02,0-.52.08-.98.25-1.36h.01c.12-.29.29-.52.5-.73.17-.15.36-.29.57-.38.42-.21.92-.32,1.5-.32.55,0,1.04.04,1.48.09.44.07,1.06.11,1.87.11,1.18,0,2.3-.3,3.35-.89,1.05-.58,1.87-1.61,2.48-3.07l-3.96-.05c-.67-.78-1.36-1.92-2.08-3.42-.7-1.5-1.37-3.17-1.98-5-.26-.78-.49-1.54-.7-2.31-.3-1.04-.55-2.07-.76-3.11-.37-1.8-.56-3.39-.56-4.77v-.08c.01-1.09.27-1.93.79-2.58.52-.67,1.32-.99,2.41-.99,1.14,0,2.02.24,2.59.7.57.48.98,1.05,1.22,1.73.24.68.44,1.34.61,1.98.78,3.11,1.37,5.52,1.78,7.23.41,1.7.72,2.89.94,3.55.21.66.47.98.73.98.44,0,.81-.31,1.12-.93.3-.63.62-1.69.97-3.2.33-1.5.78-3.6,1.31-6.27.35-1.65.79-3.03,1.35-4.13.56-1.1,1.53-1.65,2.92-1.65,1.07,0,1.91.32,2.5.99.6.66.89,1.54.89,2.66,0,.61-.12,1.57-.33,2.89Z" fill="#720000"/><path d="M169.92,49.11c0,.61-.12,1.57-.33,2.89-.23,1.32-.51,2.85-.89,4.57-.37,1.73-.78,3.47-1.24,5.22-.45,1.76-.91,3.36-1.34,4.82-1.16,3.72-2.86,6.64-5.13,8.78-2.27,2.13-5.1,3.2-8.53,3.2-2.16,0-3.8-.42-4.94-1.24-1.13-.83-1.71-1.84-1.71-3.02,0-.52.08-.98.25-1.36h.01s.05-.04.07-.06c.37-.32.7-.67,1-1.05.42-.21.92-.32,1.5-.32.55,0,1.04.04,1.48.09.44.07,1.06.11,1.87.11,1.18,0,2.3-.3,3.35-.89,1.05-.58,1.87-1.61,2.48-3.07l-3.96-.05c-.67-.78-1.36-1.92-2.08-3.42-.7-1.5-1.37-3.17-1.98-5-.26-.78-.49-1.54-.7-2.31v-1.9c0-1.66-.26-3.28-.79-4.88-.14-.43-.32-.82-.54-1.19.01-1.09.27-1.93.79-2.58.52-.67,1.32-.99,2.41-.99,1.14,0,2.02.24,2.59.7.57.48.98,1.05,1.22,1.73.24.68.44,1.34.61,1.98.78,3.11,1.37,5.52,1.78,7.23.41,1.7.72,2.89.94,3.55.21.66.47.98.73.98.44,0,.81-.31,1.12-.93.3-.63.62-1.69.97-3.2.33-1.5.78-3.6,1.31-6.27.35-1.65.79-3.03,1.35-4.13.56-1.1,1.53-1.65,2.92-1.65,1.07,0,1.91.32,2.5.99.6.66.89,1.54.89,2.66Z" fill="#fff"/><path d="M202.25,54.63c-.69-.81-1.61-1.22-2.77-1.22s-2.08.41-2.79,1.22c-.7.81-1.06,1.9-1.06,3.26s.36,2.45,1.06,3.27c.72.84,1.65,1.24,2.79,1.24s2.08-.41,2.77-1.24c.69-.82,1.04-1.92,1.04-3.27s-.35-2.44-1.04-3.26ZM202.25,54.63c-.69-.81-1.61-1.22-2.77-1.22s-2.08.41-2.79,1.22c-.7.81-1.06,1.9-1.06,3.26s.36,2.45,1.06,3.27c.72.84,1.65,1.24,2.79,1.24s2.08-.41,2.77-1.24c.69-.82,1.04-1.92,1.04-3.27s-.35-2.44-1.04-3.26ZM214.48,53.36c-.12-.26-.25-.51-.38-.75-.61-1.12-1.35-2.12-2.23-2.98-.41-.41-.85-.79-1.32-1.13-1.22-1.62-2.77-2.9-4.66-3.83-1.9-.93-4.05-1.4-6.49-1.4-2.85,0-5.32.61-7.41,1.85-2.1,1.23-3.72,2.92-4.88,5.07-1.14,2.15-1.72,4.59-1.72,7.33,0,2.47.47,4.7,1.42,6.69.94,2,2.24,3.63,3.9,4.88,1.22,1.62,2.79,2.9,4.7,3.83,1.91.93,4.08,1.4,6.51,1.4,2.84,0,5.31-.62,7.41-1.85,1.55-.92,2.84-2.09,3.86-3.49h0c.36-.51.69-1.03.99-1.59.18-.36.36-.72.5-1.09.8-1.87,1.19-3.96,1.19-6.24,0-2.47-.47-4.71-1.4-6.7ZM209.38,63.67c-.95,1.75-2.28,3.12-3.98,4.1-1.72.98-3.72,1.47-6.01,1.47s-4.32-.49-6.03-1.47c-1.73-.98-3.06-2.35-4.02-4.1-.94-1.76-1.42-3.8-1.42-6.14s.48-4.38,1.42-6.14c.95-1.75,2.29-3.12,4.02-4.1,1.72-.99,3.73-1.48,6.03-1.48s4.29.49,6.01,1.48c1.71.98,3.03,2.35,3.98,4.1.94,1.76,1.42,3.8,1.42,6.14s-.48,4.38-1.42,6.14ZM199.49,53.41c-1.14,0-2.08.41-2.79,1.22-.7.81-1.06,1.9-1.06,3.26s.36,2.45,1.06,3.27c.72.84,1.65,1.24,2.79,1.24s2.08-.41,2.77-1.24c.69-.82,1.04-1.92,1.04-3.27s-.35-2.44-1.04-3.26c-.69-.81-1.61-1.22-2.77-1.22ZM202.25,54.63c-.69-.81-1.61-1.22-2.77-1.22s-2.08.41-2.79,1.22c-.7.81-1.06,1.9-1.06,3.26s.36,2.45,1.06,3.27c.72.84,1.65,1.24,2.79,1.24s2.08-.41,2.77-1.24c.69-.82,1.04-1.92,1.04-3.27s-.35-2.44-1.04-3.26ZM202.25,54.63c-.69-.81-1.61-1.22-2.77-1.22s-2.08.41-2.79,1.22c-.7.81-1.06,1.9-1.06,3.26s.36,2.45,1.06,3.27c.72.84,1.65,1.24,2.79,1.24s2.08-.41,2.77-1.24c.69-.82,1.04-1.92,1.04-3.27s-.35-2.44-1.04-3.26Z" fill="#720000"/><path d="M209.38,51.38c-.95-1.75-2.28-3.12-3.98-4.1-1.72-.99-3.72-1.48-6.01-1.48s-4.32.49-6.03,1.48c-1.73.98-3.06,2.35-4.02,4.1-.94,1.76-1.42,3.8-1.42,6.14s.48,4.38,1.42,6.14c.95,1.75,2.29,3.12,4.02,4.1,1.72.98,3.73,1.47,6.03,1.47s4.29-.49,6.01-1.47c1.71-.98,3.03-2.35,3.98-4.1.94-1.76,1.42-3.8,1.42-6.14s-.48-4.38-1.42-6.14ZM202.25,61.15c-.69.84-1.61,1.24-2.77,1.24s-2.08-.41-2.79-1.24c-.7-.82-1.06-1.92-1.06-3.27s.36-2.44,1.06-3.26c.72-.81,1.65-1.22,2.79-1.22s2.08.41,2.77,1.22c.69.81,1.04,1.9,1.04,3.26s-.35,2.45-1.04,3.27Z" fill="#fff"/><path d="M241.44,51.94c-.79-1.35-1.8-2.46-3.05-3.29-1.14-1.73-2.71-2.98-4.69-3.76-1.98-.78-3.95-1.17-5.92-1.17-1.59,0-3.09.33-4.51,1.01-1.22-1.01-2.71-1.53-4.46-1.53s-3.27.47-4.32,1.37c-1.05.92-1.8,2.09-2.25,3.51-.16.5-.3,1.01-.38,1.54-.21.94-.31,1.92-.31,2.92v9.84c0,1.66.26,3.28.79,4.88.2.62.49,1.18.85,1.69h0c.56.8,1.3,1.44,2.23,1.96.57.98,1.35,1.78,2.33,2.41.98.62,2.18.94,3.6.94,1.6,0,2.96-.44,4.11-1.3,1.14-.86,1.98-2.04,2.48-3.53.48.58,1.07,1.07,1.78,1.48.57.98,1.35,1.78,2.34,2.41.98.62,2.18.94,3.6.94,1.82,0,3.24-.48,4.26-1.4,1.01-.94,1.72-2.11,2.11-3.53.38-1.42.57-2.89.57-4.41v-8.01c0-1.97-.38-3.61-1.16-4.97ZM237.53,62.39c0,2.23-.35,3.92-1.04,5.08-.69,1.14-1.82,1.72-3.37,1.72-3.15,0-4.72-2.27-4.72-6.8v-6.54c0-.88-.25-1.6-.75-2.13-.51-.54-1.17-.81-1.98-.81s-1.53.27-2.13.81v8.67c0,4.53-1.57,6.8-4.71,6.8-2.05,0-3.43-.97-4.14-2.89-.39-1.03-.58-2.34-.58-3.91v-9.84c0-4.53,1.57-6.8,4.72-6.8,1.75,0,3.05.78,3.9,2.34.68-.57,1.45-1.03,2.34-1.35.87-.32,1.79-.48,2.73-.48,2.91,0,5.26.74,7.06,2.23,1.79,1.49,2.68,3.45,2.68,5.88v8.01Z" fill="#720000"/><path d="M237.53,54.38v8.01c0,2.23-.35,3.92-1.04,5.08-.69,1.14-1.82,1.72-3.37,1.72-3.15,0-4.72-2.27-4.72-6.8v-6.54c0-.88-.25-1.6-.75-2.13-.51-.54-1.17-.81-1.98-.81s-1.53.27-2.13.81v8.67c0,4.53-1.57,6.8-4.71,6.8-2.05,0-3.43-.97-4.14-2.89.8-1.87,1.19-3.96,1.19-6.24,0-2.47-.47-4.71-1.4-6.7-.12-.26-.25-.51-.38-.75v-.06c0-4.53,1.57-6.8,4.72-6.8,1.75,0,3.05.78,3.9,2.34.68-.57,1.45-1.03,2.34-1.35.87-.32,1.79-.48,2.73-.48,2.91,0,5.26.74,7.06,2.23,1.79,1.49,2.68,3.45,2.68,5.88Z" fill="#fff"/></g></svg>