<?xml version="1.0" encoding="UTF-8"?><svg id="Layer_2" xmlns="http://www.w3.org/2000/svg" xmlns:xlink="http://www.w3.org/1999/xlink" viewBox="0 0 419.42 127.8"><defs><linearGradient id="linear-gradient" x1="210.07" y1=".28" x2="210.07" y2="118.52" gradientUnits="userSpaceOnUse"><stop offset="0" stop-color="#b373e5"/><stop offset=".33" stop-color="#af70e1"/><stop offset=".59" stop-color="#a568d8"/><stop offset=".82" stop-color="#955bc8"/><stop offset="1" stop-color="#834eb7"/></linearGradient><linearGradient id="linear-gradient-2" x1="210.07" y1="10.52" x2="210.07" y2="108.28" gradientUnits="userSpaceOnUse"><stop offset="0" stop-color="#c390f4"/><stop offset=".43" stop-color="#c08ef0"/><stop offset=".77" stop-color="#b689e6"/><stop offset="1" stop-color="#ac83db"/></linearGradient></defs><g id="Layer_1-2"><rect x="0" y="0" width="418.7" height="127.8" rx="53.49" ry="53.49" fill="#6b3f9e"/><rect x=".72" y=".28" width="418.7" height="118.24" rx="49.49" ry="49.49" fill="url(#linear-gradient)"/><rect x="14.78" y="10.52" width="390.57" height="97.77" rx="40.92" ry="40.92" fill="url(#linear-gradient-2)" stroke="#6f3aba" stroke-miterlimit="10" stroke-width="3"/><path d="M329.24,28.42l-48.01,5.31c-5.53.61-9.71,5.28-9.71,10.84v36.6c0,5.13,4.16,9.28,9.28,9.28h49.01c5.46,0,9.88-4.42,9.88-9.88v-42.79c0-5.61-4.87-9.98-10.45-9.36ZM284.76,43.1h-7.14c-.66,0-.97-.81-.49-1.26l4.35-3.93c.32-.29.82-.23,1.07.12l2.79,3.94c.35.47,0,1.13-.58,1.13ZM295.06,42.52l-2.02-3.83c-.34-.66.06-1.44.79-1.56l3.71-.58c.42-.06.83.12,1.06.47l2.9,4.4c.47.72-.04,1.67-.89,1.67h-4.6c-.4,0-.76-.22-.95-.58ZM314.51,66.45l-14.04,8.66c-1.67,1.03-3.84-.18-3.84-2.14v-17.77c0-1.4,1.54-2.26,2.73-1.52l15.15,9.34c1.28.79,1.28,2.65,0,3.44ZM316.17,43.1h-2.79c-.6,0-1.16-.34-1.45-.86l-2.56-4.64c-.52-.96,0-2.15,1.05-2.42l2.65-.66c.75-.19,1.54.17,1.89.86l2.69,5.3c.57,1.11-.24,2.42-1.48,2.42ZM333.35,43.1h-4.39c-.45,0-.86-.26-1.05-.66l-3.22-6.56c-.39-.78.19-1.69,1.05-1.69h3.49c.41,0,.78.21,1,.55l4.1,6.56c.49.78-.07,1.8-.99,1.8Z" fill="#fff" stroke="#3d0072" stroke-miterlimit="10" stroke-width="3"/><path d="M96.1,46.83c-.69-.93-1.68-1.4-2.97-1.4-.94,0-1.98.29-3.09.86-.14.11-.2.23-.2.36l.05,7.37c0,.2.18.36.56.45.37.11.78.17,1.22.2.44.04.73.05.86.05,1.55,0,2.7-.44,3.43-1.34s1.11-1.99,1.15-3.29c.04-1.24-.3-2.34-.99-3.27ZM96.1,46.83c-.69-.93-1.68-1.4-2.97-1.4-.94,0-1.98.29-3.09.86-.14.11-.2.23-.2.36l.05,7.37c0,.2.18.36.56.45.37.11.78.17,1.22.2.44.04.73.05.86.05,1.55,0,2.7-.44,3.43-1.34s1.11-1.99,1.15-3.29c.04-1.24-.3-2.34-.99-3.27ZM109.07,45.43c-.41-.98-.9-1.88-1.49-2.69-.56-.81-1.23-1.54-2-2.2-.25-.2-.5-.41-.76-.6-1.11-1.46-2.51-2.64-4.19-3.56-1.67-.92-3.66-1.37-5.96-1.37-2.14,0-4.21.48-6.2,1.42-.55-.24-1.09-.41-1.62-.5-.55-.11-1.04-.16-1.48-.16-2.07,0-3.64.66-4.74,1.96-1.1,1.3-1.64,2.86-1.6,4.65l.2,21.6c0,1.05.06,2.11.2,3.2.13,1.08.45,2.09.97,3.02.5.93,1.3,1.65,2.38,2.15.51.99,1.23,1.77,2.16,2.34.93.57,2.08.86,3.43.86,1.97,0,3.46-.51,4.48-1.54,1.02-1.04,1.68-2.21,2.03-3.54.13-.51.22-1.03.25-1.55.04-.53.07-1,.1-1.45.38.04.75.07,1.12.13.37.05.74.07,1.12.07,2.27,0,4.23-.47,5.89-1.4.63-.36,1.22-.75,1.76-1.19.88-.69,1.65-1.52,2.28-2.44.01-.01.01-.02.02-.04,1.03-1.48,1.78-3.11,2.29-4.9.5-1.79.76-3.55.76-5.28,0-2.4-.48-4.74-1.4-7.01ZM104.87,54.19c-.24.94-.56,1.82-.97,2.63-.96,1.86-2.21,3.3-3.76,4.29-1.55,1-3.3,1.5-5.23,1.5-1.53,0-3.13-.36-4.83-1.08v3.61c-.04,1.8-.42,3.17-1.15,4.1-.73.93-1.92,1.34-3.58,1.24-1.25-.13-2.19-.68-2.8-1.62s-.87-2.58-.81-4.87l-.2-21.6c-.02-1.49.35-2.55,1.15-3.15.8-.61,1.68-.91,2.66-.91,1.29,0,2.31.37,3.06,1.11.94-.65,1.95-1.11,3.02-1.42,1.06-.3,2.14-.45,3.23-.45,1.83,0,3.56.47,5.21,1.4,1.64.93,2.97,2.33,4.01,4.19.42.76.75,1.6.99,2.53.36,1.33.53,2.82.5,4.48-.02,1.46-.19,2.8-.5,4.03ZM93.13,45.43c-.94,0-1.98.29-3.09.86-.14.11-.2.23-.2.36l.05,7.37c0,.2.18.36.56.45.37.11.78.17,1.22.2.44.04.73.05.86.05,1.55,0,2.7-.44,3.43-1.34s1.11-1.99,1.15-3.29c.04-1.24-.3-2.34-.99-3.27-.69-.93-1.68-1.4-2.97-1.4ZM96.1,46.83c-.69-.93-1.68-1.4-2.97-1.4-.94,0-1.98.29-3.09.86-.14.11-.2.23-.2.36l.05,7.37c0,.2.18.36.56.45.37.11.78.17,1.22.2.44.04.73.05.86.05,1.55,0,2.7-.44,3.43-1.34s1.11-1.99,1.15-3.29c.04-1.24-.3-2.34-.99-3.27ZM96.1,46.83c-.69-.93-1.68-1.4-2.97-1.4-.94,0-1.98.29-3.09.86-.14.11-.2.23-.2.36l.05,7.37c0,.2.18.36.56.45.37.11.78.17,1.22.2.44.04.73.05.86.05,1.55,0,2.7-.44,3.43-1.34s1.11-1.99,1.15-3.29c.04-1.24-.3-2.34-.99-3.27Z" fill="#3d0072"/><path d="M103.88,43.15c-1.04-1.86-2.38-3.26-4.01-4.19-1.65-.93-3.38-1.4-5.21-1.4-1.09,0-2.16.16-3.23.45-1.08.31-2.08.78-3.02,1.42-.75-.74-1.77-1.11-3.06-1.11-.98,0-1.86.3-2.66.91-.8.61-1.17,1.66-1.15,3.15l.2,21.6c-.06,2.29.2,3.93.81,4.87s1.54,1.49,2.8,1.62c1.66.1,2.86-.31,3.58-1.24.73-.93,1.11-2.29,1.15-4.1v-3.61c1.7.72,3.3,1.08,4.83,1.08,1.94,0,3.68-.5,5.23-1.5,1.55-.99,2.81-2.43,3.76-4.29.41-.81.73-1.68.97-2.63v-8.51c-.24-.93-.57-1.77-.99-2.53ZM95.95,53.39c-.73.9-1.88,1.34-3.43,1.34-.13,0-.42-.01-.86-.05-.44-.04-.85-.1-1.22-.2-.38-.1-.56-.25-.56-.45l-.05-7.37c0-.13.06-.25.2-.36,1.11-.57,2.15-.86,3.09-.86,1.29,0,2.28.47,2.97,1.4.69.93,1.03,2.03.99,3.27-.04,1.29-.42,2.39-1.15,3.29Z" fill="#fff"/><path d="M121.16,42.77c-.53-1.58-1.55-2.81-3.08-3.69-.57-.98-1.35-1.78-2.33-2.41-.98-.62-2.19-.93-3.61-.93-1.83,0-3.27.45-4.32,1.37-1.04.9-1.78,2.04-2.23,3.44-.01.02-.01.04-.02.06-.45,1.42-.68,2.91-.68,4.47v17.43c0,.87.07,1.74.23,2.59.12.78.31,1.54.56,2.29.51,1.59,1.54,2.81,3.07,3.66.57.98,1.35,1.78,2.34,2.41.98.62,2.17.94,3.6.94,1.84,0,3.27-.47,4.32-1.37,1.05-.92,1.8-2.09,2.26-3.51.17-.49.3-.99.39-1.51.2-.96.3-1.95.3-2.96v-17.43c0-1.66-.26-3.27-.79-4.85ZM116.85,62.5c0,4.54-1.56,6.81-4.72,6.81s-4.71-2.23-4.73-6.69v-17.55c0-.86.06-1.64.17-2.33.48-2.99,2.01-4.48,4.56-4.48,3.15,0,4.72,2.27,4.72,6.81v17.43Z" fill="#3d0072"/><path d="M116.85,45.07v17.43c0,4.54-1.56,6.81-4.72,6.81s-4.71-2.23-4.73-6.69c1.03-1.48,1.78-3.11,2.29-4.9.5-1.79.76-3.55.76-5.28,0-2.4-.48-4.74-1.4-7.01-.41-.98-.9-1.88-1.49-2.69.48-2.99,2.01-4.48,4.56-4.48,3.15,0,4.72,2.27,4.72,6.81Z" fill="#fff"/><path d="M133.38,53.66c-.41-.1-.79-.16-1.12-.16-1.25,0-2.26.41-3.02,1.19-.76.8-1.15,1.84-1.15,3.13,0,1.18.38,2.15,1.15,2.89.76.75,1.77,1.12,3.02,1.12.81,0,1.55-.24,2.23-.72v-7.06c-.33-.17-.7-.3-1.11-.41ZM133.38,53.66c-.41-.1-.79-.16-1.12-.16-1.25,0-2.26.41-3.02,1.19-.76.8-1.15,1.84-1.15,3.13,0,1.18.38,2.15,1.15,2.89.76.75,1.77,1.12,3.02,1.12.81,0,1.55-.24,2.23-.72v-7.06c-.33-.17-.7-.3-1.11-.41ZM148.24,50.3c-.14-.43-.32-.82-.54-1.19-.5-.91-1.23-1.65-2.17-2.23-.12-.08-.24-.16-.37-.23-.54-.98-1.3-1.78-2.31-2.41-1-.62-2.21-.94-3.63-.94-1.77,0-3.27.53-4.53,1.58-1.18-.37-2.33-.55-3.45-.55-2.81,0-5.23.61-7.26,1.85-.74.44-1.42.96-2.03,1.53-1.09.99-1.97,2.16-2.68,3.52-1.1,2.14-1.65,4.53-1.65,7.17,0,2.23.44,4.24,1.33,6.02.69,1.41,1.59,2.62,2.7,3.6.29.26.59.51.91.74,1.15,1.57,2.62,2.78,4.4,3.67,1.78.87,3.8,1.31,6.07,1.31,1.53,0,2.97-.27,4.37-.81.61.51,1.28.88,2.03,1.12.74.24,1.52.36,2.33.36.51,0,.99-.04,1.45-.11,1.11-.19,2.02-.59,2.77-1.21h.01s.05-.04.07-.06c.37-.32.7-.67,1-1.05.55-.72.98-1.53,1.28-2.46.05-.13.08-.27.12-.41.38-1.3.57-2.65.57-4.06v-9.86c0-1.66-.26-3.29-.79-4.89ZM139.22,69.31c-1.7,0-2.95-.69-3.76-2.08-1.42.94-3.08,1.42-4.98,1.42-2.07,0-3.87-.43-5.41-1.3-1.28-.72-2.32-1.66-3.12-2.84-.18-.25-.33-.5-.49-.76-.86-1.54-1.29-3.32-1.29-5.35,0-2.31.45-4.32,1.37-6.05.13-.24.26-.48.41-.7.87-1.4,2.02-2.51,3.45-3.35,1.66-.96,3.61-1.45,5.84-1.45,1.49,0,2.89.37,4.22,1.12.78-1.42,2.03-2.14,3.76-2.14,3.15,0,4.72,2.27,4.72,6.81v9.86c0,4.54-1.56,6.81-4.72,6.81ZM132.25,53.5c-1.25,0-2.26.41-3.02,1.19-.76.8-1.15,1.84-1.15,3.13,0,1.18.38,2.15,1.15,2.89.76.75,1.77,1.12,3.02,1.12.81,0,1.55-.24,2.23-.72v-7.06c-.33-.17-.7-.3-1.11-.41-.41-.1-.79-.16-1.12-.16ZM133.38,53.66c-.41-.1-.79-.16-1.12-.16-1.25,0-2.26.41-3.02,1.19-.76.8-1.15,1.84-1.15,3.13,0,1.18.38,2.15,1.15,2.89.76.75,1.77,1.12,3.02,1.12.81,0,1.55-.24,2.23-.72v-7.06c-.33-.17-.7-.3-1.11-.41ZM133.38,53.66c-.41-.1-.79-.16-1.12-.16-1.25,0-2.26.41-3.02,1.19-.76.8-1.15,1.84-1.15,3.13,0,1.18.38,2.15,1.15,2.89.76.75,1.77,1.12,3.02,1.12.81,0,1.55-.24,2.23-.72v-7.06c-.33-.17-.7-.3-1.11-.41Z" fill="#3d0072"/><path d="M139.22,45.84c-1.73,0-2.99.72-3.76,2.14-1.33-.75-2.72-1.12-4.22-1.12-2.23,0-4.18.49-5.84,1.45-1.43.84-2.58,1.95-3.45,3.35v12.87c.8,1.18,1.84,2.13,3.12,2.84,1.54.87,3.35,1.3,5.41,1.3,1.9,0,3.56-.48,4.98-1.42.81,1.39,2.07,2.08,3.76,2.08,3.15,0,4.72-2.27,4.72-6.81v-9.86c0-4.54-1.56-6.81-4.72-6.81ZM134.49,61.13c-.68.48-1.42.72-2.23.72-1.25,0-2.26-.37-3.02-1.12-.76-.74-1.15-1.71-1.15-2.89,0-1.29.38-2.33,1.15-3.13.76-.79,1.77-1.19,3.02-1.19.33,0,.72.06,1.12.16.41.11.78.24,1.11.41v7.06Z" fill="#fff"/><path d="M174.15,48.4c-.53-1.04-1.33-1.8-2.41-2.32-.48-.91-1.16-1.65-2.03-2.23-.88-.57-1.97-.86-3.25-.86-1.36,0-2.47.35-3.36,1.04-.88.69-1.54,1.47-1.98,2.32-.24.37-.43.76-.56,1.19-.13.42-.25.81-.36,1.19-.06.23-.12.47-.17.7-.06.24-.12.48-.18.72-.27-.79-.65-1.53-1.12-2.25-.48-.7-1.15-1.28-2.03-1.72-.48-.88-1.16-1.64-2.03-2.26-.88-.63-2.14-.94-3.76-.94-1.42,0-2.54.31-3.38.94-.82.62-1.43,1.41-1.8,2.35-.07.19-.14.39-.19.59-.25.76-.37,1.54-.37,2.32,0,1.29.18,2.84.54,4.67.36,1.83.84,3.73,1.45,5.7.55,1.78,1.18,3.48,1.89,5.07.06.16.13.31.2.47.78,1.73,1.6,3.13,2.48,4.22-.54-.04-1.06-.07-1.58-.12-.5-.06-1.03-.08-1.58-.08h-.11c-1.51.02-2.76.51-3.75,1.45-.98.93-1.48,2.19-1.51,3.74-.01.05-.01.11-.01.16,0,1.35.32,2.47.96,3.34.65.88,1.41,1.57,2.29,2.04.54,1.02,1.28,1.8,2.21,2.38.93.59,1.95.99,3.05,1.23,1.1.23,2.17.35,3.23.35,2.27,0,4.29-.38,6.07-1.13,1.78-.76,3.31-1.8,4.6-3.11,1.29-1.3,2.38-2.77,3.29-4.42.9-1.64,1.61-3.34,2.15-5.1.79-2.54,1.47-5.11,2.07-7.71.59-2.59,1.12-5.19,1.6-7.8.06-.47.12-.94.17-1.42.06-.47.08-.93.08-1.36,0-1.19-.26-2.31-.79-3.33ZM169.53,52.08c-.23,1.33-.51,2.86-.9,4.58-.37,1.73-.78,3.48-1.24,5.23-.45,1.77-.91,3.37-1.34,4.83-1.16,3.73-2.87,6.65-5.14,8.79-2.27,2.14-5.11,3.2-8.54,3.2-2.16,0-3.81-.42-4.95-1.24-1.13-.84-1.71-1.84-1.71-3.02,0-.53.08-.98.25-1.36h.01c.12-.29.29-.53.5-.73.17-.16.36-.29.57-.38.42-.21.92-.32,1.51-.32.55,0,1.04.04,1.48.1.44.07,1.06.11,1.88.11,1.18,0,2.31-.3,3.36-.9,1.05-.59,1.88-1.61,2.48-3.07l-3.97-.05c-.67-.78-1.36-1.92-2.08-3.43-.7-1.51-1.37-3.18-1.98-5.01-.26-.78-.49-1.54-.7-2.32-.3-1.04-.55-2.08-.76-3.12-.37-1.8-.56-3.39-.56-4.78v-.08c.01-1.09.27-1.94.79-2.58.53-.67,1.33-.99,2.41-.99,1.15,0,2.02.24,2.59.71.57.48.98,1.05,1.22,1.73.24.68.44,1.34.61,1.98.78,3.12,1.37,5.53,1.78,7.24.41,1.71.72,2.89.94,3.56.22.66.47.98.73.98.44,0,.81-.31,1.12-.93.3-.63.62-1.7.97-3.2.33-1.5.78-3.61,1.31-6.28.35-1.65.79-3.03,1.35-4.13.56-1.1,1.53-1.65,2.93-1.65,1.08,0,1.91.32,2.51.99.6.66.9,1.54.9,2.66,0,.61-.12,1.58-.33,2.89Z" fill="#3d0072"/><path d="M169.86,49.19c0,.61-.12,1.58-.33,2.89-.23,1.33-.51,2.86-.9,4.58-.37,1.73-.78,3.48-1.24,5.23-.45,1.77-.91,3.37-1.34,4.83-1.16,3.73-2.87,6.65-5.14,8.79-2.27,2.14-5.11,3.2-8.54,3.2-2.16,0-3.81-.42-4.95-1.24-1.13-.84-1.71-1.84-1.71-3.02,0-.53.08-.98.25-1.36h.01s.05-.04.07-.06c.37-.32.7-.67,1-1.05.42-.21.92-.32,1.51-.32.55,0,1.04.04,1.48.1.44.07,1.06.11,1.88.11,1.18,0,2.31-.3,3.36-.9,1.05-.59,1.88-1.61,2.48-3.07l-3.97-.05c-.67-.78-1.36-1.92-2.08-3.43-.7-1.51-1.37-3.18-1.98-5.01-.26-.78-.49-1.54-.7-2.32v-1.9c0-1.66-.26-3.29-.79-4.89-.14-.43-.32-.82-.54-1.19.01-1.09.27-1.94.79-2.58.53-.67,1.33-.99,2.41-.99,1.15,0,2.02.24,2.59.71.57.48.98,1.05,1.22,1.73.24.68.44,1.34.61,1.98.78,3.12,1.37,5.53,1.78,7.24.41,1.71.72,2.89.94,3.56.22.66.47.98.73.98.44,0,.81-.31,1.12-.93.3-.63.62-1.7.97-3.2.33-1.5.78-3.61,1.31-6.28.35-1.65.79-3.03,1.35-4.13.56-1.1,1.53-1.65,2.93-1.65,1.08,0,1.91.32,2.51.99.6.66.9,1.54.9,2.66Z" fill="#fff"/><path d="M202.25,54.72c-.69-.81-1.61-1.22-2.77-1.22s-2.08.41-2.8,1.22c-.7.81-1.06,1.9-1.06,3.26s.36,2.45,1.06,3.27c.72.84,1.65,1.24,2.8,1.24s2.08-.41,2.77-1.24c.69-.82,1.04-1.92,1.04-3.27s-.35-2.45-1.04-3.26ZM202.25,54.72c-.69-.81-1.61-1.22-2.77-1.22s-2.08.41-2.8,1.22c-.7.81-1.06,1.9-1.06,3.26s.36,2.45,1.06,3.27c.72.84,1.65,1.24,2.8,1.24s2.08-.41,2.77-1.24c.69-.82,1.04-1.92,1.04-3.27s-.35-2.45-1.04-3.26ZM214.49,53.46c-.12-.26-.25-.51-.38-.75-.61-1.12-1.35-2.13-2.23-2.99-.41-.41-.85-.79-1.33-1.13-1.22-1.63-2.77-2.9-4.67-3.83-1.9-.93-4.06-1.4-6.5-1.4-2.86,0-5.33.61-7.42,1.85-2.1,1.23-3.73,2.93-4.89,5.08-1.15,2.15-1.72,4.6-1.72,7.35,0,2.47.47,4.71,1.42,6.7.94,2.01,2.25,3.63,3.91,4.89,1.22,1.62,2.8,2.9,4.71,3.83,1.91.93,4.09,1.4,6.52,1.4,2.84,0,5.32-.62,7.42-1.85,1.55-.92,2.84-2.09,3.87-3.5h0c.36-.51.69-1.03.99-1.59.18-.36.36-.72.5-1.09.8-1.88,1.19-3.97,1.19-6.25,0-2.47-.47-4.72-1.4-6.71ZM209.39,63.78c-.96,1.76-2.28,3.13-3.99,4.11-1.72.98-3.73,1.47-6.02,1.47s-4.32-.49-6.04-1.47c-1.73-.98-3.07-2.35-4.03-4.11-.94-1.77-1.42-3.81-1.42-6.15s.48-4.38,1.42-6.15c.96-1.76,2.29-3.13,4.03-4.11,1.72-.99,3.74-1.48,6.04-1.48s4.3.49,6.02,1.48c1.71.98,3.03,2.35,3.99,4.11.94,1.77,1.42,3.81,1.42,6.15s-.48,4.38-1.42,6.15ZM199.48,53.5c-1.15,0-2.08.41-2.8,1.22-.7.81-1.06,1.9-1.06,3.26s.36,2.45,1.06,3.27c.72.84,1.65,1.24,2.8,1.24s2.08-.41,2.77-1.24c.69-.82,1.04-1.92,1.04-3.27s-.35-2.45-1.04-3.26c-.69-.81-1.61-1.22-2.77-1.22ZM202.25,54.72c-.69-.81-1.61-1.22-2.77-1.22s-2.08.41-2.8,1.22c-.7.81-1.06,1.9-1.06,3.26s.36,2.45,1.06,3.27c.72.84,1.65,1.24,2.8,1.24s2.08-.41,2.77-1.24c.69-.82,1.04-1.92,1.04-3.27s-.35-2.45-1.04-3.26ZM202.25,54.72c-.69-.81-1.61-1.22-2.77-1.22s-2.08.41-2.8,1.22c-.7.81-1.06,1.9-1.06,3.26s.36,2.45,1.06,3.27c.72.84,1.65,1.24,2.8,1.24s2.08-.41,2.77-1.24c.69-.82,1.04-1.92,1.04-3.27s-.35-2.45-1.04-3.26Z" fill="#3d0072"/><path d="M209.39,51.47c-.96-1.76-2.28-3.13-3.99-4.11-1.72-.99-3.73-1.48-6.02-1.48s-4.32.49-6.04,1.48c-1.73.98-3.07,2.35-4.03,4.11-.94,1.77-1.42,3.81-1.42,6.15s.48,4.38,1.42,6.15c.96,1.76,2.29,3.13,4.03,4.11,1.72.98,3.74,1.47,6.04,1.47s4.3-.49,6.02-1.47c1.71-.98,3.03-2.35,3.99-4.11.94-1.77,1.42-3.81,1.42-6.15s-.48-4.38-1.42-6.15ZM202.25,61.26c-.69.84-1.61,1.24-2.77,1.24s-2.08-.41-2.8-1.24c-.7-.82-1.06-1.92-1.06-3.27s.36-2.45,1.06-3.26c.72-.81,1.65-1.22,2.8-1.22s2.08.41,2.77,1.22c.69.81,1.04,1.9,1.04,3.26s-.35,2.45-1.04,3.27Z" fill="#fff"/><path d="M241.51,52.04c-.79-1.35-1.8-2.46-3.06-3.3-1.15-1.73-2.71-2.99-4.69-3.76-1.98-.78-3.95-1.17-5.93-1.17-1.59,0-3.09.33-4.52,1.02-1.22-1.02-2.71-1.53-4.47-1.53s-3.27.47-4.32,1.37c-1.05.92-1.8,2.09-2.26,3.51-.16.5-.3,1.02-.38,1.54-.22.94-.31,1.92-.31,2.93v9.86c0,1.66.26,3.29.79,4.89.2.62.49,1.18.85,1.7h0c.56.8,1.3,1.45,2.23,1.96.57.98,1.35,1.78,2.33,2.41.98.62,2.19.94,3.61.94,1.6,0,2.96-.44,4.12-1.3,1.15-.86,1.98-2.04,2.48-3.54.48.59,1.08,1.08,1.78,1.48.57.98,1.35,1.78,2.34,2.41.98.62,2.19.94,3.61.94,1.83,0,3.25-.48,4.26-1.4,1.02-.94,1.72-2.11,2.11-3.54.38-1.42.57-2.89.57-4.42v-8.03c0-1.97-.38-3.62-1.16-4.98ZM237.59,62.5c0,2.23-.35,3.93-1.04,5.09-.69,1.15-1.83,1.72-3.38,1.72-3.15,0-4.73-2.27-4.73-6.81v-6.55c0-.88-.25-1.6-.75-2.14-.51-.54-1.17-.81-1.98-.81s-1.53.27-2.14.81v8.69c0,4.54-1.58,6.81-4.72,6.81-2.05,0-3.44-.97-4.15-2.89-.39-1.03-.59-2.34-.59-3.92v-9.86c0-4.54,1.58-6.81,4.73-6.81,1.76,0,3.06.78,3.91,2.34.68-.57,1.46-1.03,2.34-1.35.87-.32,1.79-.48,2.74-.48,2.91,0,5.27.74,7.07,2.23,1.79,1.49,2.69,3.45,2.69,5.89v8.03Z" fill="#3d0072"/><path d="M237.59,54.47v8.03c0,2.23-.35,3.93-1.04,5.09-.69,1.15-1.83,1.72-3.38,1.72-3.15,0-4.73-2.27-4.73-6.81v-6.55c0-.88-.25-1.6-.75-2.14-.51-.54-1.17-.81-1.98-.81s-1.53.27-2.14.81v8.69c0,4.54-1.58,6.81-4.72,6.81-2.05,0-3.44-.97-4.15-2.89.8-1.88,1.19-3.97,1.19-6.25,0-2.47-.47-4.72-1.4-6.71-.12-.26-.25-.51-.38-.75v-.06c0-4.54,1.58-6.81,4.73-6.81,1.76,0,3.06.78,3.91,2.34.68-.57,1.46-1.03,2.34-1.35.87-.32,1.79-.48,2.74-.48,2.91,0,5.27.74,7.07,2.23,1.79,1.49,2.69,3.45,2.69,5.89Z" fill="#fff"/></g></svg>