<?xml version="1.0" encoding="UTF-8"?><svg id="Layer_2" xmlns="http://www.w3.org/2000/svg" xmlns:xlink="http://www.w3.org/1999/xlink" viewBox="0 0 420.97 128.27"><defs><linearGradient id="linear-gradient" x1="210.85" y1=".28" x2="210.85" y2="118.96" gradientUnits="userSpaceOnUse"><stop offset="0" stop-color="#47cde6"/><stop offset=".26" stop-color="#45c9e4"/><stop offset=".47" stop-color="#3fbfdf"/><stop offset=".66" stop-color="#35aed7"/><stop offset=".83" stop-color="#2897cc"/><stop offset="1" stop-color="#177abe"/></linearGradient><linearGradient id="linear-gradient-2" x1="210.85" y1="10.56" x2="210.85" y2="108.68" gradientUnits="userSpaceOnUse"><stop offset="0" stop-color="#34bff8"/><stop offset=".42" stop-color="#32bbf7"/><stop offset=".75" stop-color="#2cb1f3"/><stop offset="1" stop-color="#25a5f0"/></linearGradient></defs><g id="Layer_1-2"><rect x="0" y="0" width="420.25" height="128.27" rx="53.49" ry="53.49" fill="#135ab2"/><rect x=".72" y=".28" width="420.25" height="118.68" rx="49.49" ry="49.49" fill="url(#linear-gradient)"/><rect x="14.84" y="10.56" width="392.02" height="98.13" rx="40.92" ry="40.92" fill="url(#linear-gradient-2)" stroke="#398abc" stroke-miterlimit="10" stroke-width="3"/><path d="M330.83,28.52l-48.19,5.33c-5.55.61-9.75,5.3-9.75,10.88v36.73c0,5.15,4.17,9.31,9.31,9.31h49.19c5.48,0,9.91-4.44,9.91-9.91v-42.95c0-5.63-4.89-10.01-10.48-9.39ZM286.18,43.26h-7.17c-.67,0-.98-.82-.49-1.26l4.37-3.95c.32-.29.83-.23,1.08.12l2.8,3.96c.35.47,0,1.14-.59,1.14ZM296.51,42.68l-2.03-3.84c-.34-.66.06-1.45.79-1.57l3.73-.58c.42-.06.84.12,1.07.47l2.91,4.42c.47.72-.04,1.67-.9,1.67h-4.62c-.4,0-.76-.22-.95-.58ZM316.04,66.7l-14.09,8.7c-1.68,1.03-3.85-.18-3.85-2.15v-17.84c0-1.4,1.55-2.27,2.74-1.53l15.21,9.37c1.28.79,1.28,2.66,0,3.45ZM317.7,43.26h-2.8c-.6,0-1.16-.34-1.46-.86l-2.57-4.66c-.52-.96,0-2.16,1.06-2.43l2.66-.66c.76-.2,1.55.17,1.89.86l2.7,5.32c.57,1.11-.24,2.43-1.49,2.43ZM334.94,43.26h-4.4c-.45,0-.86-.26-1.06-.66l-3.23-6.58c-.39-.78.19-1.7,1.06-1.7h3.5c.41,0,.78.21,1,.55l4.12,6.58c.49.78-.07,1.81-1,1.81Z" fill="#fff" stroke="#004475" stroke-miterlimit="10" stroke-width="3"/><path d="M96.82,47c-.7-.94-1.69-1.4-2.99-1.4-.95,0-1.99.29-3.11.86-.14.11-.2.23-.2.36l.05,7.4c0,.2.18.36.56.46.37.11.78.17,1.22.2.44.04.73.05.86.05,1.56,0,2.71-.44,3.44-1.34s1.12-2,1.15-3.3c.04-1.25-.3-2.35-1-3.29ZM96.82,47c-.7-.94-1.69-1.4-2.99-1.4-.95,0-1.99.29-3.11.86-.14.11-.2.23-.2.36l.05,7.4c0,.2.18.36.56.46.37.11.78.17,1.22.2.44.04.73.05.86.05,1.56,0,2.71-.44,3.44-1.34s1.12-2,1.15-3.3c.04-1.25-.3-2.35-1-3.29ZM109.83,45.6c-.41-.98-.9-1.88-1.5-2.7-.56-.82-1.24-1.55-2-2.21-.25-.2-.5-.41-.77-.6-1.12-1.46-2.52-2.65-4.21-3.57-1.68-.92-3.67-1.38-5.98-1.38-2.15,0-4.22.48-6.22,1.43-.55-.24-1.09-.41-1.63-.5-.55-.11-1.04-.16-1.49-.16-2.07,0-3.66.66-4.76,1.97-1.1,1.31-1.64,2.87-1.61,4.66l.2,21.68c0,1.06.06,2.12.2,3.21.13,1.08.46,2.1.97,3.03.5.94,1.31,1.65,2.39,2.16.52,1,1.24,1.77,2.17,2.35.94.58,2.09.86,3.44.86,1.98,0,3.48-.52,4.5-1.55,1.02-1.04,1.69-2.22,2.04-3.55.13-.52.22-1.03.25-1.56.04-.53.07-1.01.1-1.45.38.04.76.07,1.13.13.37.05.74.07,1.13.07,2.28,0,4.24-.47,5.91-1.4.64-.36,1.22-.76,1.76-1.2.89-.7,1.65-1.52,2.29-2.45.01-.01.01-.02.02-.04,1.03-1.49,1.79-3.12,2.3-4.92.5-1.8.77-3.56.77-5.3,0-2.41-.48-4.76-1.4-7.04ZM105.62,54.39c-.24.95-.56,1.82-.97,2.64-.96,1.87-2.22,3.31-3.78,4.31-1.56,1.01-3.31,1.51-5.25,1.51-1.53,0-3.14-.36-4.84-1.08v3.62c-.04,1.81-.42,3.18-1.15,4.11-.73.94-1.93,1.34-3.6,1.25-1.26-.13-2.19-.68-2.81-1.63s-.88-2.59-.82-4.89l-.2-21.68c-.02-1.5.35-2.55,1.15-3.17.8-.61,1.69-.91,2.67-.91,1.3,0,2.31.37,3.07,1.12.95-.65,1.95-1.12,3.03-1.43,1.07-.3,2.15-.46,3.24-.46,1.83,0,3.57.47,5.23,1.4,1.64.94,2.99,2.34,4.03,4.21.42.77.76,1.61,1,2.54.36,1.33.53,2.83.5,4.5-.02,1.46-.19,2.81-.5,4.04ZM93.84,45.6c-.95,0-1.99.29-3.11.86-.14.11-.2.23-.2.36l.05,7.4c0,.2.18.36.56.46.37.11.78.17,1.22.2.44.04.73.05.86.05,1.56,0,2.71-.44,3.44-1.34s1.12-2,1.15-3.3c.04-1.25-.3-2.35-1-3.29-.7-.94-1.69-1.4-2.99-1.4ZM96.82,47c-.7-.94-1.69-1.4-2.99-1.4-.95,0-1.99.29-3.11.86-.14.11-.2.23-.2.36l.05,7.4c0,.2.18.36.56.46.37.11.78.17,1.22.2.44.04.73.05.86.05,1.56,0,2.71-.44,3.44-1.34s1.12-2,1.15-3.3c.04-1.25-.3-2.35-1-3.29ZM96.82,47c-.7-.94-1.69-1.4-2.99-1.4-.95,0-1.99.29-3.11.86-.14.11-.2.23-.2.36l.05,7.4c0,.2.18.36.56.46.37.11.78.17,1.22.2.44.04.73.05.86.05,1.56,0,2.71-.44,3.44-1.34s1.12-2,1.15-3.3c.04-1.25-.3-2.35-1-3.29Z" fill="#004475"/><path d="M104.63,43.31c-1.04-1.87-2.39-3.27-4.03-4.21-1.65-.94-3.39-1.4-5.23-1.4-1.09,0-2.17.16-3.24.46-1.08.31-2.09.78-3.03,1.43-.76-.74-1.77-1.12-3.07-1.12-.98,0-1.87.3-2.67.91-.8.61-1.18,1.67-1.15,3.17l.2,21.68c-.06,2.3.2,3.95.82,4.89s1.55,1.5,2.81,1.63c1.67.1,2.87-.31,3.6-1.25.73-.94,1.12-2.3,1.15-4.11v-3.62c1.7.72,3.31,1.08,4.84,1.08,1.94,0,3.69-.5,5.25-1.51,1.56-1,2.82-2.43,3.78-4.31.41-.82.73-1.69.97-2.64v-8.54c-.24-.94-.58-1.77-1-2.54ZM96.67,53.58c-.73.9-1.88,1.34-3.44,1.34-.13,0-.42-.01-.86-.05-.44-.04-.85-.1-1.22-.2-.38-.1-.56-.25-.56-.46l-.05-7.4c0-.13.06-.25.2-.36,1.12-.57,2.16-.86,3.11-.86,1.29,0,2.29.47,2.99,1.4.7.94,1.03,2.04,1,3.29-.04,1.3-.42,2.4-1.15,3.3Z" fill="#fff"/><path d="M121.97,42.92c-.53-1.58-1.56-2.82-3.09-3.7-.58-.98-1.35-1.79-2.34-2.42-.98-.62-2.19-.94-3.62-.94-1.83,0-3.29.46-4.34,1.38-1.04.9-1.79,2.05-2.24,3.45-.01.02-.01.04-.02.06-.46,1.43-.68,2.93-.68,4.48v17.49c0,.88.07,1.75.23,2.6.12.78.31,1.55.56,2.3.52,1.59,1.55,2.82,3.08,3.67.58.98,1.35,1.79,2.35,2.42.98.62,2.18.95,3.61.95,1.85,0,3.29-.47,4.34-1.38,1.06-.92,1.81-2.1,2.27-3.53.17-.49.3-1,.4-1.51.2-.96.3-1.95.3-2.97v-17.49c0-1.67-.26-3.29-.79-4.87ZM117.65,62.73c0,4.56-1.57,6.84-4.74,6.84s-4.72-2.24-4.75-6.71v-17.61c0-.86.06-1.64.17-2.34.48-3,2.01-4.5,4.58-4.5,3.17,0,4.74,2.28,4.74,6.84v17.49Z" fill="#004475"/><path d="M117.65,45.24v17.49c0,4.56-1.57,6.84-4.74,6.84s-4.72-2.24-4.75-6.71c1.03-1.49,1.79-3.12,2.3-4.92.5-1.8.77-3.56.77-5.3,0-2.41-.48-4.76-1.4-7.04-.41-.98-.9-1.88-1.5-2.7.48-3,2.01-4.5,4.58-4.5,3.17,0,4.74,2.28,4.74,6.84Z" fill="#fff"/><path d="M134.23,53.86c-.41-.1-.79-.16-1.13-.16-1.26,0-2.27.41-3.03,1.2-.77.8-1.15,1.85-1.15,3.14,0,1.19.38,2.16,1.15,2.9.77.76,1.77,1.13,3.03,1.13.82,0,1.56-.24,2.24-.72v-7.09c-.34-.17-.71-.3-1.12-.41ZM134.23,53.86c-.41-.1-.79-.16-1.13-.16-1.26,0-2.27.41-3.03,1.2-.77.8-1.15,1.85-1.15,3.14,0,1.19.38,2.16,1.15,2.9.77.76,1.77,1.13,3.03,1.13.82,0,1.56-.24,2.24-.72v-7.09c-.34-.17-.71-.3-1.12-.41ZM149.15,50.49c-.14-.43-.32-.83-.54-1.2-.5-.91-1.24-1.65-2.18-2.24-.12-.08-.24-.16-.37-.23-.54-.98-1.31-1.79-2.31-2.42-1.01-.62-2.22-.95-3.65-.95-1.77,0-3.29.53-4.54,1.58-1.19-.37-2.34-.55-3.47-.55-2.82,0-5.25.61-7.29,1.86-.74.44-1.43.96-2.04,1.53-1.09,1-1.98,2.17-2.69,3.54-1.1,2.15-1.65,4.54-1.65,7.19,0,2.24.44,4.26,1.33,6.04.7,1.41,1.59,2.63,2.71,3.61.29.26.59.52.91.74,1.15,1.57,2.63,2.79,4.41,3.68,1.79.88,3.81,1.32,6.09,1.32,1.53,0,2.99-.28,4.39-.82.61.52,1.28.89,2.04,1.13.74.24,1.52.36,2.34.36.52,0,1-.04,1.45-.11,1.12-.19,2.03-.59,2.78-1.21h.01s.05-.04.07-.06c.37-.32.71-.67,1.01-1.06.55-.72.98-1.53,1.28-2.47.05-.13.08-.28.12-.41.38-1.31.58-2.66.58-4.08v-9.89c0-1.67-.26-3.3-.79-4.9ZM140.1,69.57c-1.7,0-2.96-.7-3.78-2.09-1.43.95-3.09,1.43-5,1.43-2.07,0-3.89-.43-5.43-1.31-1.28-.72-2.33-1.67-3.13-2.85-.18-.25-.34-.5-.49-.77-.86-1.55-1.29-3.33-1.29-5.37,0-2.31.46-4.34,1.38-6.07.13-.24.26-.48.41-.71.88-1.4,2.03-2.52,3.47-3.36,1.67-.96,3.62-1.45,5.86-1.45,1.5,0,2.9.37,4.23,1.13.78-1.43,2.04-2.15,3.78-2.15,3.17,0,4.74,2.28,4.74,6.84v9.89c0,4.56-1.57,6.84-4.74,6.84ZM133.11,53.7c-1.26,0-2.27.41-3.03,1.2-.77.8-1.15,1.85-1.15,3.14,0,1.19.38,2.16,1.15,2.9.77.76,1.77,1.13,3.03,1.13.82,0,1.56-.24,2.24-.72v-7.09c-.34-.17-.71-.3-1.12-.41-.41-.1-.79-.16-1.13-.16ZM134.23,53.86c-.41-.1-.79-.16-1.13-.16-1.26,0-2.27.41-3.03,1.2-.77.8-1.15,1.85-1.15,3.14,0,1.19.38,2.16,1.15,2.9.77.76,1.77,1.13,3.03,1.13.82,0,1.56-.24,2.24-.72v-7.09c-.34-.17-.71-.3-1.12-.41ZM134.23,53.86c-.41-.1-.79-.16-1.13-.16-1.26,0-2.27.41-3.03,1.2-.77.8-1.15,1.85-1.15,3.14,0,1.19.38,2.16,1.15,2.9.77.76,1.77,1.13,3.03,1.13.82,0,1.56-.24,2.24-.72v-7.09c-.34-.17-.71-.3-1.12-.41Z" fill="#004475"/><path d="M140.1,46.01c-1.74,0-3,.72-3.78,2.15-1.33-.76-2.73-1.13-4.23-1.13-2.24,0-4.2.49-5.86,1.45-1.44.84-2.59,1.95-3.47,3.36v12.91c.8,1.19,1.85,2.13,3.13,2.85,1.55.88,3.36,1.31,5.43,1.31,1.91,0,3.57-.48,5-1.43.82,1.39,2.07,2.09,3.78,2.09,3.17,0,4.74-2.28,4.74-6.84v-9.89c0-4.56-1.57-6.84-4.74-6.84ZM135.35,61.35c-.68.48-1.43.72-2.24.72-1.26,0-2.27-.37-3.03-1.13-.77-.74-1.15-1.71-1.15-2.9,0-1.3.38-2.34,1.15-3.14.77-.79,1.77-1.2,3.03-1.2.34,0,.72.06,1.13.16.41.11.78.24,1.12.41v7.09Z" fill="#fff"/><path d="M175.16,48.58c-.53-1.04-1.33-1.81-2.42-2.33-.48-.91-1.16-1.65-2.04-2.24-.89-.58-1.98-.86-3.26-.86-1.37,0-2.48.35-3.37,1.04-.89.7-1.55,1.47-1.99,2.33-.24.37-.43.77-.56,1.2-.13.42-.25.82-.36,1.2-.06.23-.12.47-.17.71-.06.24-.12.48-.18.72-.28-.79-.65-1.53-1.13-2.25-.48-.71-1.15-1.28-2.04-1.73-.48-.89-1.16-1.64-2.04-2.27-.89-.64-2.15-.95-3.78-.95-1.43,0-2.55.31-3.39.95-.83.62-1.44,1.42-1.81,2.36-.07.19-.14.4-.19.59-.25.77-.37,1.55-.37,2.33,0,1.3.18,2.85.54,4.69.36,1.83.84,3.74,1.45,5.72.55,1.79,1.19,3.49,1.89,5.08.06.16.13.31.2.47.78,1.74,1.61,3.14,2.49,4.23-.54-.04-1.07-.07-1.58-.12-.5-.06-1.03-.08-1.58-.08h-.11c-1.51.02-2.77.52-3.77,1.45-.98.94-1.49,2.19-1.51,3.75-.01.05-.01.11-.01.16,0,1.35.32,2.48.96,3.36.65.89,1.41,1.57,2.3,2.05.54,1.02,1.28,1.81,2.22,2.39.94.59,1.95,1,3.06,1.23,1.1.23,2.18.35,3.24.35,2.28,0,4.3-.38,6.09-1.14,1.79-.77,3.32-1.81,4.62-3.12,1.3-1.31,2.39-2.78,3.3-4.44.9-1.64,1.62-3.36,2.16-5.12.79-2.55,1.47-5.13,2.07-7.73.59-2.6,1.13-5.2,1.61-7.83.06-.47.12-.95.17-1.43.06-.47.08-.94.08-1.37,0-1.2-.26-2.31-.79-3.34ZM170.52,52.28c-.23,1.33-.52,2.87-.9,4.59-.37,1.74-.78,3.49-1.25,5.25-.46,1.77-.91,3.38-1.34,4.84-1.16,3.74-2.88,6.68-5.16,8.83-2.28,2.15-5.13,3.21-8.57,3.21-2.17,0-3.83-.42-4.96-1.25-1.14-.84-1.71-1.85-1.71-3.03,0-.53.08-.98.25-1.37h.01c.12-.29.29-.53.5-.73.17-.16.36-.29.58-.38.42-.22.92-.32,1.51-.32.55,0,1.04.04,1.49.1.44.07,1.07.11,1.88.11,1.19,0,2.31-.3,3.37-.9,1.06-.59,1.88-1.62,2.49-3.08l-3.98-.05c-.67-.78-1.37-1.93-2.09-3.44-.71-1.51-1.38-3.19-1.99-5.02-.26-.78-.49-1.55-.71-2.33-.3-1.04-.55-2.09-.77-3.13-.37-1.81-.56-3.41-.56-4.8v-.08c.01-1.09.28-1.94.79-2.59.53-.67,1.33-1,2.42-1,1.15,0,2.03.24,2.6.71.58.48.98,1.06,1.22,1.74.24.68.44,1.34.61,1.99.78,3.13,1.38,5.55,1.79,7.27.41,1.71.72,2.9.95,3.57.22.66.47.98.73.98.44,0,.82-.31,1.13-.94.3-.64.62-1.7.97-3.21.34-1.51.78-3.62,1.32-6.31.35-1.66.79-3.05,1.35-4.15.56-1.1,1.53-1.65,2.94-1.65,1.08,0,1.92.32,2.52,1,.6.66.9,1.55.9,2.67,0,.61-.12,1.58-.34,2.9Z" fill="#004475"/><path d="M170.85,49.37c0,.61-.12,1.58-.34,2.9-.23,1.33-.52,2.87-.9,4.59-.37,1.74-.78,3.49-1.25,5.25-.46,1.77-.91,3.38-1.34,4.84-1.16,3.74-2.88,6.68-5.16,8.83-2.28,2.15-5.13,3.21-8.57,3.21-2.17,0-3.83-.42-4.96-1.25-1.14-.84-1.71-1.85-1.71-3.03,0-.53.08-.98.25-1.37h.01s.05-.04.07-.06c.37-.32.71-.67,1.01-1.06.42-.22.92-.32,1.51-.32.55,0,1.04.04,1.49.1.44.07,1.07.11,1.88.11,1.19,0,2.31-.3,3.37-.9,1.06-.59,1.88-1.62,2.49-3.08l-3.98-.05c-.67-.78-1.37-1.93-2.09-3.44-.71-1.51-1.38-3.19-1.99-5.02-.26-.78-.49-1.55-.71-2.33v-1.91c0-1.67-.26-3.3-.79-4.9-.14-.43-.32-.83-.54-1.2.01-1.09.28-1.94.79-2.59.53-.67,1.33-1,2.42-1,1.15,0,2.03.24,2.6.71.58.48.98,1.06,1.22,1.74.24.68.44,1.34.61,1.99.78,3.13,1.38,5.55,1.79,7.27.41,1.71.72,2.9.95,3.57.22.66.47.98.73.98.44,0,.82-.31,1.13-.94.3-.64.62-1.7.97-3.21.34-1.51.78-3.62,1.32-6.31.35-1.66.79-3.05,1.35-4.15.56-1.1,1.53-1.65,2.94-1.65,1.08,0,1.92.32,2.52,1,.6.66.9,1.55.9,2.67Z" fill="#fff"/><path d="M203.36,54.93c-.7-.82-1.62-1.22-2.78-1.22s-2.09.41-2.81,1.22c-.71.82-1.07,1.91-1.07,3.27s.36,2.46,1.07,3.29c.72.84,1.65,1.25,2.81,1.25s2.09-.41,2.78-1.25c.7-.83,1.04-1.93,1.04-3.29s-.35-2.46-1.04-3.27ZM203.36,54.93c-.7-.82-1.62-1.22-2.78-1.22s-2.09.41-2.81,1.22c-.71.82-1.07,1.91-1.07,3.27s.36,2.46,1.07,3.29c.72.84,1.65,1.25,2.81,1.25s2.09-.41,2.78-1.25c.7-.83,1.04-1.93,1.04-3.29s-.35-2.46-1.04-3.27ZM215.65,53.66c-.12-.26-.25-.52-.38-.76-.61-1.13-1.35-2.13-2.24-3-.41-.41-.85-.79-1.33-1.14-1.22-1.63-2.78-2.91-4.69-3.85-1.91-.94-4.08-1.4-6.52-1.4-2.87,0-5.35.61-7.45,1.86-2.11,1.23-3.74,2.94-4.9,5.1-1.15,2.16-1.73,4.62-1.73,7.37,0,2.48.47,4.72,1.43,6.73.95,2.01,2.25,3.65,3.92,4.9,1.22,1.63,2.81,2.91,4.72,3.85,1.92.94,4.1,1.4,6.55,1.4,2.85,0,5.34-.62,7.45-1.86,1.56-.92,2.85-2.1,3.89-3.51h0c.36-.52.7-1.03,1-1.59.18-.36.36-.72.5-1.09.8-1.88,1.2-3.98,1.2-6.27,0-2.48-.47-4.74-1.4-6.74ZM210.53,64.02c-.96,1.76-2.29,3.14-4,4.12-1.73.98-3.74,1.47-6.04,1.47s-4.34-.49-6.07-1.47c-1.74-.98-3.08-2.36-4.04-4.12-.95-1.77-1.43-3.83-1.43-6.18s.48-4.4,1.43-6.18c.96-1.76,2.3-3.14,4.04-4.12,1.73-1,3.75-1.49,6.07-1.49s4.32.49,6.04,1.49c1.71.98,3.05,2.36,4,4.12.95,1.77,1.43,3.83,1.43,6.18s-.48,4.4-1.43,6.18ZM200.58,53.7c-1.15,0-2.09.41-2.81,1.22-.71.82-1.07,1.91-1.07,3.27s.36,2.46,1.07,3.29c.72.84,1.65,1.25,2.81,1.25s2.09-.41,2.78-1.25c.7-.83,1.04-1.93,1.04-3.29s-.35-2.46-1.04-3.27c-.7-.82-1.62-1.22-2.78-1.22ZM203.36,54.93c-.7-.82-1.62-1.22-2.78-1.22s-2.09.41-2.81,1.22c-.71.82-1.07,1.91-1.07,3.27s.36,2.46,1.07,3.29c.72.84,1.65,1.25,2.81,1.25s2.09-.41,2.78-1.25c.7-.83,1.04-1.93,1.04-3.29s-.35-2.46-1.04-3.27ZM203.36,54.93c-.7-.82-1.62-1.22-2.78-1.22s-2.09.41-2.81,1.22c-.71.82-1.07,1.91-1.07,3.27s.36,2.46,1.07,3.29c.72.84,1.65,1.25,2.81,1.25s2.09-.41,2.78-1.25c.7-.83,1.04-1.93,1.04-3.29s-.35-2.46-1.04-3.27Z" fill="#004475"/><path d="M210.53,51.67c-.96-1.76-2.29-3.14-4-4.12-1.73-1-3.74-1.49-6.04-1.49s-4.34.49-6.07,1.49c-1.74.98-3.08,2.36-4.04,4.12-.95,1.77-1.43,3.83-1.43,6.18s.48,4.4,1.43,6.18c.96,1.76,2.3,3.14,4.04,4.12,1.73.98,3.75,1.47,6.07,1.47s4.32-.49,6.04-1.47c1.71-.98,3.05-2.36,4-4.12.95-1.77,1.43-3.83,1.43-6.18s-.48-4.4-1.43-6.18ZM203.36,61.49c-.7.84-1.62,1.25-2.78,1.25s-2.09-.41-2.81-1.25c-.71-.83-1.07-1.93-1.07-3.29s.36-2.46,1.07-3.27c.72-.82,1.65-1.22,2.81-1.22s2.09.41,2.78,1.22c.7.82,1.04,1.91,1.04,3.27s-.35,2.46-1.04,3.29Z" fill="#fff"/><path d="M242.76,52.23c-.79-1.35-1.81-2.47-3.07-3.31-1.15-1.74-2.72-3-4.71-3.78-1.99-.78-3.97-1.18-5.95-1.18-1.59,0-3.11.34-4.53,1.02-1.22-1.02-2.72-1.54-4.48-1.54s-3.29.47-4.34,1.38c-1.06.92-1.81,2.1-2.27,3.53-.16.5-.3,1.02-.38,1.55-.22.95-.31,1.93-.31,2.94v9.89c0,1.67.26,3.3.79,4.9.2.62.49,1.19.85,1.7h0c.56.8,1.31,1.45,2.24,1.97.58.98,1.35,1.79,2.34,2.42.98.62,2.19.95,3.62.95,1.61,0,2.97-.44,4.14-1.31,1.15-.86,1.99-2.05,2.49-3.55.48.59,1.08,1.08,1.79,1.49.58.98,1.35,1.79,2.35,2.42.98.62,2.19.95,3.62.95,1.83,0,3.26-.48,4.28-1.4,1.02-.95,1.73-2.12,2.12-3.55.38-1.43.58-2.9.58-4.44v-8.06c0-1.98-.38-3.63-1.16-5ZM238.83,62.73c0,2.24-.35,3.95-1.04,5.11-.7,1.15-1.83,1.73-3.39,1.73-3.17,0-4.75-2.28-4.75-6.84v-6.57c0-.89-.25-1.61-.76-2.15-.52-.54-1.18-.82-1.99-.82s-1.53.28-2.15.82v8.72c0,4.56-1.58,6.84-4.74,6.84-2.06,0-3.45-.97-4.16-2.9-.4-1.03-.59-2.35-.59-3.93v-9.89c0-4.56,1.58-6.84,4.75-6.84,1.76,0,3.07.78,3.92,2.35.68-.58,1.46-1.03,2.35-1.35.88-.32,1.8-.48,2.75-.48,2.93,0,5.29.74,7.1,2.24,1.8,1.5,2.7,3.46,2.7,5.91v8.06Z" fill="#004475"/><path d="M238.83,54.67v8.06c0,2.24-.35,3.95-1.04,5.11-.7,1.15-1.83,1.73-3.39,1.73-3.17,0-4.75-2.28-4.75-6.84v-6.57c0-.89-.25-1.61-.76-2.15-.52-.54-1.18-.82-1.99-.82s-1.53.28-2.15.82v8.72c0,4.56-1.58,6.84-4.74,6.84-2.06,0-3.45-.97-4.16-2.9.8-1.88,1.2-3.98,1.2-6.27,0-2.48-.47-4.74-1.4-6.74-.12-.26-.25-.52-.38-.76v-.06c0-4.56,1.58-6.84,4.75-6.84,1.76,0,3.07.78,3.92,2.35.68-.58,1.46-1.03,2.35-1.35.88-.32,1.8-.48,2.75-.48,2.93,0,5.29.74,7.1,2.24,1.8,1.5,2.7,3.46,2.7,5.91Z" fill="#fff"/></g></svg>