<?xml version="1.0" encoding="UTF-8"?><svg id="Layer_2" xmlns="http://www.w3.org/2000/svg" viewBox="0 0 110.92 110.92"><g id="Layer_1-2"><path d="M26.79,11.01c0-3.82.54-7.52,1.56-11.01-.99,3.62-1.53,7.42-1.55,11.35,0-.11,0-.23,0-.34Z" fill="#0c3f6a"/><circle cx="55.46" cy="55.46" r="55.46" fill="#298ba6"/><ellipse cx="55.46" cy="52.06" rx="55.46" ry="52.06" fill="#71d9e6"/><circle cx="55.46" cy="52.06" r="41.84" fill="#cf3642" stroke="#0c3f6a" stroke-miterlimit="10" stroke-width="2"/><path d="M90.12,74.13c-7.33,10.46-19.57,17.32-33.44,17.32-22.43,0-40.61-17.93-40.61-40.05S34.25,11.35,56.68,11.35c3.69,0,7.26.49,10.66,1.4-1.29-.11-2.6-.16-3.91-.16-22.43,0-40.61,15.72-40.61,35.1s18.18,35.09,40.61,35.09c10.23,0,19.57-3.26,26.7-8.64Z" fill="#b5252a"/><path d="M35.89,39.19l7.3-7.3c.92-.92,2.4-.92,3.31,0l7.52,7.52c.92.92,2.4.92,3.31,0l7.39-7.39c.92-.92,2.4-.92,3.31,0l7.2,7.2c.92.92.92,2.4,0,3.31l-7.25,7.25c-.92.92-.92,2.4,0,3.31l7.5,7.5c.92.92.92,2.4,0,3.31l-8.18,8.18c-.92.92-2.4.92-3.31,0l-6.89-6.89c-.92-.92-2.4-.92-3.31,0l-7.02,7.02c-.92.92-2.4.92-3.31,0l-8.05-8.05c-.92-.92-.92-2.4,0-3.31l7.88-7.88c.93-.93.91-2.43-.03-3.34-2.01-1.95-5.33-5.16-7.35-7.1-.95-.91-.96-2.42-.03-3.35Z" fill="#fff" stroke="#b5252a" stroke-miterlimit="10"/><ellipse cx="39.02" cy="21.95" rx="6.26" ry="2.89" transform="translate(-5.48 26.85) rotate(-35.65)" fill="#e55365"/><ellipse cx="38.45" cy="21.95" rx="4.75" ry="2.19" transform="translate(-5.59 26.52) rotate(-35.65)" fill="#fff"/></g></svg>