<?xml version="1.0" encoding="UTF-8"?>
<svg id="Layer_2" data-name="Layer 2" xmlns="http://www.w3.org/2000/svg" xmlns:xlink="http://www.w3.org/1999/xlink" viewBox="0 0 23.01 23.32">
  <defs>
    <style>
      .cls-1 {
        fill: #f38622;
      }

      .cls-2 {
        fill: url(#linear-gradient-2);
      }

      .cls-3 {
        fill: #8c6b68;
      }

      .cls-4 {
        fill: #f3a829;
      }

      .cls-5 {
        fill: url(#linear-gradient-3);
      }

      .cls-6 {
        fill: #e37b06;
      }

      .cls-7 {
        fill: #d4903c;
      }

      .cls-8 {
        fill: url(#linear-gradient);
      }
    </style>
    <linearGradient id="linear-gradient" x1="11.35" y1="0" x2="11.35" y2="22.69" gradientUnits="userSpaceOnUse">
      <stop offset="0" stop-color="#fff"/>
      <stop offset=".5" stop-color="#f1dd4e"/>
      <stop offset="1" stop-color="#f4983a"/>
    </linearGradient>
    <linearGradient id="linear-gradient-2" x1="11.35" y1="4.01" x2="11.35" y2="19.15" gradientUnits="userSpaceOnUse">
      <stop offset="0" stop-color="#ffdb89"/>
      <stop offset=".52" stop-color="#f7aa1e"/>
      <stop offset="1" stop-color="#f38622"/>
    </linearGradient>
    <linearGradient id="linear-gradient-3" x1="11.35" y1="6.26" x2="11.35" y2="16.84" gradientUnits="userSpaceOnUse">
      <stop offset="0" stop-color="#fff295"/>
      <stop offset=".51" stop-color="#ffe04f"/>
      <stop offset="1" stop-color="#fab72e"/>
    </linearGradient>
  </defs>
  <g id="Layer_1-2" data-name="Layer 1">
    <g>
      <path class="cls-8" d="M22.7,11.35c0,6.26-5.08,11.34-11.35,11.34-4.31,0-8.06-2.4-9.98-5.93-.87-1.61-1.37-3.45-1.37-5.41C0,5.08,5.08,0,11.35,0c4.56,0,8.49,2.68,10.29,6.56.68,1.46,1.06,3.08,1.06,4.79Z"/>
      <path class="cls-3" d="M23.01,11.97c0,6.27-5.08,11.35-11.35,11.35-4.56,0-8.49-2.68-10.29-6.56,1.92,3.53,5.67,5.93,9.98,5.93,6.27,0,11.35-5.08,11.35-11.34,0-1.71-.38-3.33-1.06-4.79.87,1.61,1.37,3.45,1.37,5.41Z"/>
      <path class="cls-7" d="M19.39,11.35c0,.1,0,.2-.01.29-.22-4.25-3.73-7.63-8.03-7.63S3.54,7.39,3.32,11.64c-.01-.09-.01-.19-.01-.29C3.31,6.91,6.91,3.31,11.35,3.31s8.04,3.6,8.04,8.04Z"/>
      <path class="cls-1" d="M19.38,11.64v.12c-.22,4.25-3.73,7.63-8.03,7.63s-7.81-3.38-8.03-7.63v-.12s0-.04,0-.06c.24,4.22,3.74,7.57,8.02,7.57s7.78-3.35,8.02-7.57c.01.02.01.04.01.06Z"/>
      <path class="cls-2" d="M19.37,11.58c-.24,4.22-3.74,7.57-8.02,7.57s-7.78-3.35-8.02-7.57c.24-4.22,3.74-7.57,8.02-7.57s7.78,3.35,8.02,7.57Z"/>
      <path class="cls-5" d="M13.14,13.09c0,.87-.13,1.49-.36,1.87-.24.36-.63.56-1.15.56-.6,0-1.01-.26-1.21-.77-.19-.5-.28-1.5-.3-3.01,0-.31.01-.59.01-.85,0-.8.03-1.41.08-1.81.07-.51.18-.85.36-1.03.17-.18.44-.26.83-.26.52,0,.93.17,1.21.54.28.36.43.88.43,1.56h2.2l-.15-1.37-.45-.96-.97-.7c-.47-.3-1.75-.58-2.62-.58-2.48,0-3.77,1.95-3.77,5.49v.23c.03,1.6.39,2.79,1.06,3.6.7.84,1.78,1.25,3.22,1.25,1.17,0,2.11-.3,2.78-.91.58-.51.91-1.19,1.01-2.02.02-.15.03-.31.03-.47l-2.27-.35Z"/>
      <path class="cls-6" d="M15.41,13.91c-.02,1.06-.36,1.89-1.05,2.5-.67.6-1.61.91-2.78.91-1.45,0-2.53-.42-3.22-1.25-.71-.84-1.06-2.12-1.06-3.83v-.25c.03,1.6.39,2.79,1.06,3.6.7.84,1.78,1.25,3.22,1.25,1.17,0,2.11-.3,2.78-.91.58-.51.91-1.19,1.01-2.02h.03Z"/>
      <path class="cls-4" d="M15.11,8.52l.19,1.8-2.25.03c0-.68-.15-1.2-.43-1.56-.27-.36-.68-.55-1.21-.55-.39,0-.66.09-.83.26-.18.18-.3.52-.36,1.04-.03.32-.06.76-.08,1.33,0-.8.03-1.41.08-1.81.07-.51.18-.85.36-1.03.17-.18.44-.26.83-.26.52,0,.93.17,1.21.54.28.36.43.88.43,1.56h2.2l-.15-1.37h.01Z"/>
    </g>
  </g>
</svg>