<?xml version="1.0" encoding="UTF-8"?>
<svg id="Layer_2" data-name="Layer 2" xmlns="http://www.w3.org/2000/svg" viewBox="0 0 25 25">
  <defs>
    <style>
      .cls-1 {
        fill: #fff;
      }

      .cls-2 {
        fill: #9e28f8;
      }

      .cls-3 {
        fill: none;
        stroke: #fff;
        stroke-linecap: round;
        stroke-miterlimit: 10;
        stroke-width: 1.5px;
      }

      .cls-4 {
        fill: #8721b5;
      }
    </style>
  </defs>
  <g id="Layer_1-2" data-name="Layer 1">
    <g>
      <path class="cls-4" d="M25,13.89v1.11c0,5.52-4.47,10-10,10h-5C4.48,25,0,20.52,0,15v-1.11c0,5.52,4.48,10,10,10h5c5.53,0,10-4.48,10-10Z"/>
      <path class="cls-2" d="M25,10v3.89c0,5.52-4.47,10-10,10h-5C4.48,23.89,0,19.41,0,13.89v-3.89C0,4.47,4.48,0,10,0h5c5.53,0,10,4.47,10,10Z"/>
      <path class="cls-3" d="M20.3,3.51s1.03.63,1.85,2.27"/>
      <path class="cls-1" d="M18.51,12.27c0,3.32-2.69,6.01-6.01,6.01s-6-2.69-6-6.01c0-.06,0-.12.01-.18,0-.14.01-.28.02-.41v-.02c.15-.72.78-1.26,1.55-1.26.87,0,1.58.71,1.58,1.59,0,.08,0,.17-.02.25,0,.02-.01.05-.01.07-.01.08-.01.17-.01.26,0,1.59,1.29,2.87,2.88,2.87s2.88-1.28,2.88-2.87c0-1.45-1.07-2.65-2.47-2.85l-.16,1.07c-.04.21-.29.31-.46.18l-1.17-.93-2.68-2.12s-.03-.02-.03-.04c-.13-.13-.08-.37.1-.44l1.12-.45h.01l1.26-.5,2.17-.86c.21-.08.42.08.39.3l-.16,1.06c2.89.43,5.21,2.28,5.21,5.28Z"/>
    </g>
  </g>
</svg>