<?xml version="1.0" encoding="UTF-8"?>
<svg id="Layer_2" data-name="Layer 2" xmlns="http://www.w3.org/2000/svg" viewBox="0 0 65.88 26.36">
  <defs>
    <style>
      .cls-1 {
        fill: #7c7c7c;
      }

      .cls-2 {
        fill: #fff;
      }

      .cls-3 {
        opacity: .2;
      }
    </style>
  </defs>
  <g id="Layer_1-2" data-name="Layer 1">
    <g>
      <rect class="cls-3" x="0" y="0" width="65.88" height="26.36" rx="12.43" ry="12.43"/>
      <g class="cls-3">
        <path class="cls-1" d="M53,2.52c5.75,0,10.43,4.68,10.43,10.43v.47c0,5.75-4.68,10.43-10.43,10.43H12.88c-5.75,0-10.43-4.68-10.43-10.43v-.47C2.46,7.19,7.13,2.52,12.88,2.52h40.12M53,.52H12.88C6.02.52.46,6.08.46,12.94v.47c0,6.86,5.56,12.43,12.43,12.43h40.12c6.86,0,12.43-5.56,12.43-12.43v-.47c0-6.86-5.56-12.43-12.43-12.43h0Z"/>
      </g>
      <g class="cls-3">
        <path class="cls-2" d="M53,1.52c6.3,0,11.43,5.13,11.43,11.43v.47c0,6.3-5.13,11.43-11.43,11.43H12.88c-6.3,0-11.43-5.13-11.43-11.43v-.47C1.46,6.64,6.58,1.52,12.88,1.52h40.12M53,.52H12.88C6.02.52.46,6.08.46,12.94v.47c0,6.86,5.56,12.43,12.43,12.43h40.12c6.86,0,12.43-5.56,12.43-12.43v-.47c0-6.86-5.56-12.43-12.43-12.43h0Z"/>
      </g>
    </g>
  </g>
</svg>