<?xml version="1.0" encoding="UTF-8"?><svg id="Layer_2" xmlns="http://www.w3.org/2000/svg" xmlns:xlink="http://www.w3.org/1999/xlink" viewBox="0 0 362.32 378.37"><defs><linearGradient id="linear-gradient" x1="17.14" y1="177.69" x2="344.45" y2="177.69" gradientUnits="userSpaceOnUse"><stop offset="0" stop-color="#f7f9f3"/><stop offset="1" stop-color="#c0cbc0"/></linearGradient></defs><g id="Layer_1-2"><path d="M7.14,87.17L0,156.86c-.03,2.42.22,6.92,2.52,11.93,2.31,5.03,5.57,8.17,7.43,9.72,1.58,1.31,4.03,3.02,7.33,4.34,3.37,1.35,6.38,1.78,8.45,1.92h116.3c2.46-.4,7.35-1.55,12.23-5.26,4.43-3.38,6.78-7.3,7.88-9.49,1.41-2.7,2.94-6.36,3.89-10.86,1.61-7.66.73-14.14-.13-18.04-.79-3.69-2.31-8.77-5.38-14.24-3.65-6.51-8.01-10.95-11.11-13.65,3.89-1.69,8.56-3.37,13.94-4.65,8.75-2.08,16.49-2.43,22.43-2.22,5.55.59,12.15,1.71,19.4,3.82,6.6,1.92,12.28,4.24,16.97,6.48,4.85,2.65,10.95,6.59,17.18,12.33,6.65,6.13,11.26,12.32,14.35,17.18,2.53,3.87,5.34,8.93,7.7,15.14,2.8,7.4,4.06,14.07,4.63,19.21.52,5.2.71,12.02-.39,19.89-1.13,8.1-3.27,14.78-5.27,19.73-1.92,4.5-4.69,9.95-8.71,15.69-4.28,6.11-8.75,10.78-12.51,14.21-3.37,3.13-7.72,6.63-13.13,9.9-8.15,4.92-15.82,7.58-21.62,9.07-4.87,1.34-11.31,2.63-18.95,2.86-8.29.25-15.29-.84-20.46-2.03-4.2-.93-9.17-2.37-14.55-4.64-6.1-2.57-11.08-5.53-14.95-8.18-3.2-2.26-6.7-5.02-10.3-8.37-3.23-3-5.98-5.96-8.3-8.71-1.54-1.48-6.1-5.47-13.19-6.37-5.02-.64-9.04.57-11.08,1.34-1.32.79-3.52,2.37-5.17,5.13-3.23,5.4-1.8,11.04-1.47,12.22,1.4,5.4,2.81,10.79,4.21,16.19,0,.07.1.79-.37,1.22-.49.44-1.4.4-2.02-.23-8.35-1.88-16.7-3.77-25.06-5.65-1.19-.24-5.42-.94-9.9,1.42-4.31,2.27-6.13,5.93-6.65,7.07-1.48,3.24-3.08,7.61-4.01,12.95-1.22,7.03-.79,13.02-.16,17.13,1.74,4.3,4.37,9.63,8.38,15.21,3.01,4.18,6.11,7.54,8.87,10.17,4.97,4.8,10.83,9.93,17.63,15.06,6.38,4.81,12.52,8.81,18.18,12.13,6.74,3.81,14.69,7.75,23.85,11.32,7.68,2.99,14.9,5.21,21.42,6.87,7.57,1.87,16.31,3.51,26.07,4.45,6.53.62,12.64.85,18.24.81,6.71-.09,14.15-.55,22.17-1.62,5.72-.76,11.05-1.74,15.96-2.83,6.07-1.37,12.82-3.25,20.01-5.86,5.64-2.05,10.77-4.26,15.36-6.47,5.13-2.32,10.72-5.17,16.57-8.69,5.05-3.03,9.56-6.12,13.54-9.09,4.1-2.95,8.46-6.37,12.93-10.31,3.91-3.44,7.4-6.85,10.51-10.1,4.19-4.28,8.68-9.38,13.13-15.36,3.52-4.72,6.49-9.29,9-13.54,3.42-5.23,7-11.4,10.39-18.49,3.53-7.4,6.15-14.35,8.1-20.51,2.04-5.75,4.02-12.31,5.66-19.6,1.79-7.96,2.85-15.3,3.45-21.82.56-6.5.91-13.54.92-21.05.01-8.72-.43-16.83-1.14-24.21-.74-7.18-1.99-15.28-4.04-24.05-2-8.55-4.41-16.19-6.87-22.83-1.87-6.42-4.46-13.76-8.12-21.62-3.97-8.54-8.28-15.75-12.29-21.62-2.88-4.38-6.28-9.09-10.31-13.94-4.78-5.76-9.53-10.65-13.94-14.75-4.25-4.33-9.41-9.05-15.55-13.74-6.77-5.17-13.26-9.2-19.01-12.33-6.5-3.77-14.26-7.73-23.24-11.32-8.75-3.5-16.89-5.94-24.04-7.68-6.14-1.49-13.07-2.82-20.72-3.72C193.59.08,184.98-.14,177.49.08c-6.68.17-14.22.74-22.43,2.01-7.3,1.13-13.91,2.63-19.76,4.25-5.8,1.62-12.18,3.71-18.97,6.46-6.75,2.73-12.77,5.65-18.04,8.5-4.1,2.26-8.41,4.82-12.86,7.74-3.69,2.42-7.12,4.85-10.3,7.23-5.37-5.98-14.36-14.05-23.19-23-1.39-1.41-5.11-4.8-11.08-6.12-6.02-1.33-10.85.21-12.7.91-1.92.79-4.87,2.3-7.71,5.11-3.77,3.73-5.36,7.8-6.03,9.94-2.42,21.35-4.85,42.71-7.27,64.06Z" fill="#96a496"/><path d="M16.84,136.6l-1.2,11.9c-.02,1.18.11,3.33,1.24,5.69.82,1.7,1.86,2.88,2.61,3.61.85.81,2.31,2,4.43,2.86,2.4.97,4.53,1.05,5.75,1.01,37.45-.53,74.91-1.05,112.36-1.58.87-.14,2.55-.53,4.23-1.8,1.96-1.47,2.83-3.3,3.16-4.12.59-1.92,1.23-4.78,1.17-8.29-.05-3.5-.78-6.34-1.43-8.24-.05.75-.26,2.39-1.4,4.02-.83,1.18-1.8,1.87-2.41,2.23-.57.46-1.48,1.09-2.73,1.53-1.53.54-2.86.55-3.66.49-37.34.33-74.68.66-112.01.98-.76-.12-1.73-.35-2.81-.81-1.16-.5-2.06-1.09-2.69-1.59-.8-.72-1.85-1.81-2.78-3.33-1.08-1.76-1.58-3.41-1.83-4.55Z" fill="#57625a"/><path d="M113.05,96.38l7.99,8.64c4.33-3.62,10.2-7.86,17.67-11.64,7.03-3.56,13.53-5.72,18.78-7.07,5.56-1.64,13.14-3.28,22.23-3.55,9.69-.28,17.8,1.1,23.64,2.55,4.76.96,10.42,2.5,16.57,5.02,7.47,3.05,13.49,6.66,18.04,9.85,3.45,2.82,7.07,6,10.76,9.56,4.01,3.87,7.57,7.68,10.71,11.3,2.45,3.39,4.97,7.21,7.43,11.45,3.26,5.62,5.85,10.97,7.9,15.85,1.16,2.6,2.31,5.59,3.3,8.96,1.31,4.42,2.05,8.49,2.47,11.97.47,7.84.94,15.68,1.41,23.51.51-4.84.9-9.96,1.11-15.34.13-3.28.18-6.47.17-9.55.04-4.41-.22-9.58-1.09-15.31-.96-6.31-2.44-11.79-3.95-16.29-1.48-4.61-3.66-10.13-6.94-16.06-3.14-5.67-6.49-10.29-9.48-13.9-2.88-3.6-6.56-7.64-11.16-11.69-3.74-3.3-7.38-5.97-10.68-8.13-4.32-2.94-9.78-6.17-16.35-9.07-6.43-2.84-12.37-4.67-17.38-5.88-5.9-1.61-14.11-3.2-23.95-3.16-10.15.04-18.57,1.79-24.55,3.51-6.54,1.7-15.05,4.58-24.25,9.68-8.82,4.89-15.57,10.31-20.39,14.8Z" fill="#57625a"/><path d="M343.2,152.75c1.08,5.14,2.01,10.93,2.6,17.3.56,6.09.71,11.71.62,16.77.13,10.62-.71,23.95-4.09,38.91-2.21,9.79-5.08,18.37-8.01,25.62-2.06,5.9-4.93,12.74-8.95,20.05-4.27,7.75-8.82,14.13-12.92,19.2-4.46,5.75-9.83,12-16.26,18.37-5.65,5.6-11.18,10.38-16.33,14.43-6.64,4.9-14.87,10.21-24.73,15.09-7.59,3.75-14.75,6.56-21.15,8.68-7.41,2.45-16.49,4.83-26.99,6.3-11.46,1.61-21.62,1.73-29.91,1.28-7.53-.12-16.59-.84-26.67-2.9-8.73-1.78-16.33-4.17-22.66-6.58-7.63-2.62-16.57-6.41-26.05-11.95-6.2-3.63-11.58-7.4-16.16-11-4.75-3.76-9.73-8.04-14.8-12.87-3.69-3.51-7.07-6.98-10.17-10.36-1.15-1.34-3.06-3.96-3.9-7.75-.46-2.07-.46-3.9-.35-5.25-.03-.72.06-1.32.15-1.73.09-.4.19-.83.46-1.31.35-.62.81-1.01,1.12-1.23.2-.11.9-.47,1.81-.3,1.02.19,1.57.9,1.69,1.06,2.95,4.16,6.62,8.74,11.17,13.38,7.24,7.39,14.52,12.71,20.59,16.49,4.65,3.13,9.91,6.33,15.76,9.44,7.52,4,14.66,7.09,21.12,9.51,6.94,2.52,15.28,5.02,24.86,6.85,9.49,1.82,18.09,2.58,25.42,2.8,7.2.15,15.76-.2,25.27-1.64,8.56-1.29,16.09-3.19,22.44-5.18,5.74-2.05,11.84-4.49,18.22-7.38,6.87-3.11,13.13-6.35,18.79-9.54,5.54-3.43,11.68-7.72,18.03-13.07,5.22-4.4,9.7-8.78,13.5-12.87,5.56-5.48,11.86-12.55,17.96-21.38,5.23-7.58,9.17-14.8,12.14-21.12,2.85-6.01,5.72-12.89,8.31-20.61,2.37-7.05,4.12-13.67,5.44-19.7,1.22-8.14,2.43-16.29,3.65-24.43.08-4.36.08-8.88-.04-13.56-.16-6.22-.5-12.16-.97-17.8Z" fill="#57625a"/><path d="M102.93,249.12c-.13.74-.24,1.63-.24,2.63,0,.84.06,1.61.15,2.26.87,3.24,1.73,6.5,2.58,9.78,1.21,4.64,2.39,9.26,3.54,13.85.1.84.17,2.53-.57,4.45-.65,1.67-1.64,2.77-2.23,3.35-.88.1-1.77.19-2.65.29.35-.98.7-2.27.85-3.81.13-1.25.09-2.36,0-3.26-.41-3.7-1.07-7.85-2.16-12.33-.9-3.73-1.95-7.11-3.04-10.12-.34-.67-.82-1.86-.89-3.42-.05-1.22.17-2.22.37-2.88.14-.2.75-.99,1.88-1.24,1.26-.27,2.22.33,2.4.44Z" fill="#57625a"/><path d="M113.04,96.46l35.24,38.64c.24.55.65,1.7.52,3.19-.14,1.62-.84,2.75-1.19,3.25-.43.68-1.45,2.11-3.33,3.13-1.88,1.02-3.62,1.1-4.43,1.09-37.16.41-74.33.83-111.49,1.24-.98-.02-2.83-.2-4.85-1.24-1.91-.99-3.08-2.29-3.68-3.06-.64-.8-1.64-2.23-2.22-4.27-.58-2.01-.51-3.74-.4-4.75,3.17-33.89,6.35-67.77,9.52-101.66.09-1.05.43-3.49,2.21-5.86,1.36-1.81,2.96-2.78,3.88-3.25.75-.38,3.03-1.39,5.94-.86,2.38.44,3.95,1.68,4.61,2.26,10.02,10.6,20.03,21.21,30.05,31.81,4.93-4.42,10.85-9.18,17.8-13.87,6.77-4.56,13.23-8.18,19.03-11.06,5.48-2.63,11.7-5.26,18.61-7.66,5.61-1.95,10.93-3.48,15.88-4.7,5.43-1.33,11.66-2.52,18.59-3.3,7.03-.79,13.45-1.01,19.1-.91,5.45-.04,11.44.17,17.88.77,6.67.62,12.79,1.56,18.29,2.65,4.45,1.21,9.1,2.61,13.92,4.21,5,1.66,9.72,3.4,14.15,5.16,4.16,1.67,8.76,3.79,13.59,6.5,3.95,2.21,7.47,4.48,10.57,6.67,2.93,1.91,5.97,4.01,9.09,6.35,3.59,2.68,6.87,5.36,9.85,7.96,2.93,2.76,5.89,5.63,8.88,8.63,2.84,2.84,5.57,5.66,8.18,8.44,3.04,3.28,6.31,7.21,9.53,11.83,2.77,3.96,5.04,7.76,6.9,11.25,1.99,3.19,4.01,6.76,5.96,10.71,2.67,5.41,4.7,10.53,6.25,15.15.96,2.71,1.88,5.58,2.76,8.59,1.39,4.79,2.47,9.36,3.32,13.64.9,5.04,1.68,10.58,2.19,16.56.52,6.09.71,11.78.67,16.98-.25,4.23-.6,8.61-1.09,13.14-.29,2.69-.62,5.32-.97,7.88-1.11,5.92-2.47,12.16-4.14,18.68-1.71,6.68-3.56,12.95-5.47,18.79-2.11,5.34-4.68,11.11-7.81,17.16-3.39,6.56-6.89,12.39-10.29,17.52-2.58,3.5-5.39,7.12-8.47,10.81-3.29,3.95-6.55,7.59-9.72,10.93-3.2,3.4-6.87,6.99-11.04,10.63-4.07,3.55-8.04,6.63-11.76,9.28-3.19,2.43-6.99,5.03-11.4,7.53-4.57,2.59-8.89,4.57-12.73,6.08-4.56,2.22-9.68,4.45-15.34,6.52-5.32,1.95-10.37,3.5-15.03,4.72-4.98,1.26-10.62,2.4-16.84,3.2-6.89.89-13.21,1.21-18.79,1.2-6.11-.01-13.04-.38-20.61-1.42-6.48-.88-12.36-2.11-17.58-3.45-5.44-1.36-11.51-3.18-17.98-5.67-6.48-2.49-12.22-5.19-17.18-7.82-4.15-2.26-8.51-4.84-12.99-7.81-8.02-5.32-14.85-10.82-20.57-16-3.07-2.28-6.6-5.3-10.11-9.25-2.47-2.77-4.46-5.47-6.07-7.92.93-.21,2.11-.38,3.46-.37,2.39.03,4.31.63,5.55,1.13,8.19,1.73,16.38,3.47,24.56,5.2,1.06.3,3.32.78,5.92,0,1.23-.37,2.2-.91,2.88-1.38,1.02-.56,2.12-1.25,3.27-2.08.82-.59,1.56-1.19,2.22-1.76.21-1.6.32-3.58.12-5.83-.3-3.39-1.18-6.14-1.99-8.06-1.36-2.82-2.82-6.7-3.46-11.47-.27-2.01-.35-3.88-.32-5.55.06-.38.17-.88.41-1.43.2-.46.43-.83.64-1.11.36-.07,1.35-.21,2.44.28,1.29.58,1.86,1.66,2,1.96,2.01,2.71,4.47,5.63,7.46,8.58,5.69,5.61,11.43,9.48,16.15,12.12,3.79,2.47,8.53,5.13,14.2,7.48,6.91,2.86,13.22,4.45,18.34,5.35,5.05,1.06,11.42,1.95,18.79,1.92,6.4-.02,12.01-.73,16.6-1.62,4.99-.86,11.03-2.3,17.66-4.82,6.48-2.46,11.86-5.32,16.11-7.94,4.89-3.04,10.67-7.2,16.59-12.77,5.64-5.31,9.98-10.57,13.24-15.09,3.2-4.99,6.62-11.09,9.74-18.27,3.02-6.95,5.1-13.41,6.56-19.02.99-4.09,1.89-8.6,2.56-13.51.49-3.54.8-6.91.99-10.08.51-5.63.7-12.44.01-20.12-.66-7.36-1.97-13.78-3.39-19.07-1.08-4.87-2.82-10.8-5.71-17.25-2.6-5.8-5.5-10.61-8.15-14.41-3.14-4.31-7.09-9.11-12-13.99-3.97-3.95-7.87-7.25-11.46-9.99-3.7-2.91-8.44-6.14-14.25-9.1-4.94-2.52-9.56-4.28-13.55-5.53-4.87-1.65-10.92-3.27-17.97-4.26-7.12-1-13.44-1.11-18.61-.86-4.88.25-10.62.88-16.96,2.26-6.62,1.44-12.33,3.37-17,5.26-4.53,1.71-9.98,4.2-15.75,7.86-6.56,4.15-11.62,8.59-15.33,12.34Z" fill="url(#linear-gradient)"/></g></svg>