<?xml version="1.0" encoding="UTF-8"?><svg id="Layer_2" xmlns="http://www.w3.org/2000/svg" xmlns:xlink="http://www.w3.org/1999/xlink" viewBox="0 0 382.65 349.19"><defs><linearGradient id="linear-gradient" x1="58.83" y1="165.07" x2="321.17" y2="165.07" gradientUnits="userSpaceOnUse"><stop offset="0" stop-color="#f7f9f3"/><stop offset="1" stop-color="#c0cbc0"/></linearGradient><linearGradient id="linear-gradient-2" x1="208.95" y1="212.84" x2="366.31" y2="212.84" xlink:href="#linear-gradient"/><linearGradient id="linear-gradient-3" x1="15.74" y1="143.97" x2="143.34" y2="143.97" xlink:href="#linear-gradient"/></defs><g id="Layer_1-2"><path d="M381.53,195.99c-.41-2.22-1.45-6.13-4.34-10.08-2.13-2.91-4.49-4.79-6.17-5.92l-71.49-34.04c10.34-21.2,20.68-42.4,31.01-63.6,1.74-4.21,3.74-10.58,3.89-18.48.07-3.96-.34-7.45-.9-10.34-.32-2.18-1.12-5.68-3.32-9.45-2.28-3.92-5.07-6.4-6.85-7.74-24.47-11.91-48.95-23.82-73.42-35.73-1.38-.36-7.29-1.77-13.28,1.53-4.02,2.22-6.08,5.45-6.91,6.96-1.38,3.01-3.19,7.98-3.56,14.36-.39,6.89,1.07,12.39,2.19,15.6-4.88,2.06-10.23,4.65-15.85,7.89-6.99,4.04-12.93,8.26-17.85,12.19-6.92,5.45-15.13,12.94-23.13,22.92-10.44,13.02-16.84,25.69-20.78,35.3-8.15-4.28-18.78-8.92-31.68-12.32-16.71-4.4-31.39-5.19-42.2-4.92-9.37.24-21.29,1.43-34.66,5.05-10.1,2.72-18.69,6.21-25.65,9.57-2.95,1.63-8.17,5.06-12.13,11.36-2.02,3.21-3.16,6.28-3.83,8.68-.37,1.32-1.42,5.6.53,10.47,1.82,4.56,5.17,6.9,6.36,7.66,3.5,1.72,6.99,3.45,10.49,5.17.28.11,1.18.51,1.64,1.47.55,1.13.27,2.58-.7,3.64-.98,1.93-1.96,4.25-2.75,6.95-1.52,5.22-1.73,9.85-1.59,13.22.4,2.2,1.26,5.46,3.25,9,2.05,3.63,4.48,6.1,6.19,7.59,1.62,1.24,5.15,3.59,10.28,4.41,5.25.83,9.42-.39,11.34-1.09,5.87-3.45,25.07-13.72,49.43-9.38,12.58,2.24,21.92,7.56,27.51,11.42-2.7,6.98-8.36,18.86-19.85,29.94-14.41,13.89-30.14,18.94-37.69,20.83-1.62.22-4,.76-6.57,2.13-3.62,1.93-5.78,4.54-6.85,6.05-1.2,2.01-2.42,4.34-3.55,6.97-1.68,3.89-2.75,7.5-3.45,10.59-.2,1.15-.77,5.22,1.64,9.36,2.94,5.07,8.07,6.34,8.95,6.54,2.94.39,5.88.78,8.81,1.17.14.02,1.1.17,1.66,1.06.61.97.26,1.97.22,2.09-1.34,1.42-2.67,2.83-4,4.25-1.51,1.95-4.09,5.82-5.15,11.36-1.33,6.96.49,12.53,1.4,14.86.6,2.13,2.19,6.64,6.38,10.55,6.14,5.72,13.47,6.09,15.41,6.13,9.55-1.39,21.83-4.1,35.4-9.58,12.8-5.17,23.02-11.3,30.64-16.64,8.42-5.75,19.48-14.6,30.13-27.53,11.19-13.58,17.92-26.79,21.96-36.47,9.95,5.75,27.72,14.32,51.57,17.2,23.54,2.84,42.61-1.11,53.62-4.26,2.04,5.45,4.08,10.89,6.12,16.34,1.08,1.74,3.36,4.91,7.41,7.45,4.22,2.64,8.24,3.26,10.3,3.44,2.13-.09,5.82-.54,9.87-2.55,4.45-2.21,7.17-5.25,8.51-6.98,10.95-22.01,21.91-44.02,32.86-66.04,1.57-3.13,3.71-8.38,4.2-15.19.38-5.12-.3-9.4-1.02-12.39ZM274,181.48c-5.21.78-13.74,1.39-23.81-1-11.2-2.65-19.15-7.78-23.51-11.08,2-6,5.94-15.28,13.81-24.53,6.07-7.13,12.42-11.83,17.17-14.79.48,3.17,1.93,9.84,7.09,16.32,4.14,5.21,8.86,8.01,11.63,9.38-1.38,2.47-3.54,7.12-3.98,13.34-.37,5.43.73,9.79,1.6,12.36Z" fill="#96a496"/><path d="M239.72,14.57l10.72,29.28-5.36,1.7-7.74-21.53c-.12-1.17-.16-3.03.43-5.19.52-1.9,1.33-3.34,1.96-4.26Z" fill="#57625a"/><path d="M315.55,46.95c.98.36,3.88,1.58,5.87,4.72,2.49,3.93,1.71,7.97,1.53,8.81-11.53,24.04-23.06,48.09-34.6,72.13-1.03,2.57-3.43,4.32-6.13,4.47-2.96.16-5.75-1.64-6.89-4.47l-10.09-26.55c-6.65,2.46-16.1,6.88-25.53,14.94-14.8,12.65-21.51,27.38-24.38,35.11-5.2,12.24-8.32,22.54-10.21,29.74-2.68,10.18-3.19,15.21-6.13,26.04-3.07,11.29-6.43,20.25-8.81,26.07-3.14,9.02-8.42,21.16-17.49,33.93-9.71,13.67-20.22,23.08-28.09,29.11-6.68,5.53-16.14,12.26-28.47,18-12.64,5.89-24.14,8.81-32.81,10.34-.88.21-4.44.97-8.17-1.02-3.3-1.76-4.7-4.58-5.11-5.49,0-1.58.16-3.72.89-6.13.44-1.46,1-2.7,1.53-3.7,27.15-25.01,54.3-50.02,81.45-75.03l55.53-119.65,75.57-58.21,30.51-13.15Z" fill="#57625a"/><path d="M87,293.21c0-.24-.04-1-.6-1.7-.73-.91-1.78-1.01-1.96-1.02-4.1-.38-7.43-.48-9.7-.51-2.7-.03-5.39-.15-8.09-.09-4.13.1-6.61.38-8.26-1.28-.71-.71-1.03-1.55-1.19-2.13-.39-.95-.83-2.28-1.02-3.91-.16-1.37-.11-2.57,0-3.49.11-.93.46-2.77,1.79-4.6.91-1.25,1.93-2.02,2.64-2.47,11.57,3.53,23.15,7.06,34.72,10.6l-5.96,11.96-2.38-1.36Z" fill="#57625a"/><path d="M298.8,187.72l-6.32,2.43-7.53-21.32c-.22-.79-.64-2.67,0-4.92.56-1.97,1.66-3.25,2.23-3.83,3.87,9.21,7.74,18.43,11.62,27.64Z" fill="#57625a"/><path d="M363.21,190.14c.89.36,3.21,1.44,4.94,4.02,1.67,2.5,1.82,4.97,1.83,5.94-.07,1.09-.28,2.51-.81,4.11-.46,1.38-1.04,2.51-1.55,3.36-11.17,22.91-22.34,45.83-33.51,68.74-.15.23-2.32,3.5-6.3,3.51-2.81.01-5.42-1.6-6.72-4.15l-9.64-26.68c-10.02,3.99-28.74,9.93-52.66,8.57-25.25-1.43-43.97-10.3-53.49-15.66,1.45-4.47,2.89-8.94,4.34-13.4l153.57-38.36Z" fill="#57625a"/><path d="M127.93,175.35l-2.55,10.6c-7.11-3.85-21.72-10.55-41.36-10.98-20.17-.44-35.38,5.95-42.64,9.57-.6.32-3.54,1.81-7.15.77-3.15-.91-4.79-3.18-5.23-3.83-.73-1.06-1.6-2.58-2.2-4.54-.34-1.11-.52-2.12-.61-2.99.15-1.71.53-3.99,1.53-6.51.63-1.58,1.36-2.9,2.04-3.96,26.77-4.47,53.53-8.94,80.3-13.4l17.87,25.28Z" fill="#57625a"/><path d="M40.55,149.76c-.04-.29-.18-1.08-.83-1.79-.74-.8-1.64-.98-1.91-1.02-5.91-.37-11.82-.75-17.73-1.12-.71-.1-3.89-.62-6.07-3.48-1.39-1.82-1.7-3.71-1.79-4.6-.04-1.02,0-3.22,1.21-5.62,1.22-2.42,2.98-3.77,3.83-4.34,11.62,3.34,23.23,6.68,34.85,10.02l-7.15,15.77-4.4-3.83Z" fill="#57625a"/><path d="M248.91,43.77l-9.83-27.96c.15-.43.56-1.38,1.53-2.17.85-.7,1.73-.93,2.17-1.02.7-.08,1.6-.12,2.62,0,1.51.18,2.7.64,3.51,1.02,22.89,11.36,45.79,22.72,68.68,34.09.52.26,1.18.64,1.85,1.21.82.7,1.37,1.43,1.72,1.98-11.45,23.91-22.89,47.83-34.34,71.74-.39.47-1.12,1.22-2.23,1.79-1.36.69-2.61.77-3.26.77-.59-.15-1.38-.41-2.23-.89-.89-.51-1.54-1.08-1.98-1.53-3.57-9.7-7.15-19.4-10.72-29.11-6.22,2.09-15.55,6.05-25.09,13.66-8.83,7.05-14.52,14.58-17.94,19.92-3.63,6.04-7.35,13.06-10.79,21.06-5.01,11.66-8.14,22.47-10.15,31.66-1.23,5.93-2.7,12.16-4.47,18.64-2.09,7.66-4.36,14.81-6.7,21.45-2.95,8.99-7.61,20.38-15.13,32.55-7.78,12.59-16.2,22.1-23.11,28.85-7.24,6.67-17.54,14.81-31.15,21.96-15.68,8.23-30.11,12.17-40.6,14.17-1.03-.03-3.28-.24-5.55-1.72-1.62-1.05-2.6-2.32-3.13-3.13,5.06-6.6,10.13-13.19,15.19-19.79.08-.13,1.24-2.19.13-4.34-.74-1.43-2.21-2.36-3.83-2.43-5.45-.04-10.89-.09-16.34-.13-.39.06-2.78.39-4.79-1.28-1.41-1.16-1.85-2.65-1.98-3.19-.72-2.6-1.45-5.19-2.17-7.79.4-.7,1.32-2.11,3.06-3.19,1.56-.96,3.04-1.2,3.83-1.28,7.16-1.53,17.83-4.69,29.17-11.74,9.73-6.05,16.57-12.85,21-18,7.86-12.46,16.34-28.6,22.91-48.32,3.33-10,5.68-19.43,7.34-28.02,3-11.89,7.57-25.83,14.66-40.74,4.29-9.02,8.84-17.01,13.3-23.98,5.21-7.61,12.59-16.77,22.79-25.72,6.37-5.59,12.59-10,18.19-13.47,5.55-3.19,11.77-6.43,18.66-9.51,5.29-2.36,10.37-4.36,15.17-6.06Z" fill="url(#linear-gradient)"/><path d="M296.02,188.16l-9.45-27.19c.25-.49,1.03-1.91,2.74-2.79,1.94-1,3.78-.65,4.28-.53,23.28,10.81,46.55,21.62,69.83,32.43.49.27,1.53.94,2.23,2.23,1.14,2.11.47,4.21.34,4.6-11.11,22.83-22.23,45.66-33.34,68.49-.61.55-1.46,1.22-2.57,1.81-.94.5-1.82.81-2.53,1-.48-.05-1.92-.25-3.17-1.43-.9-.84-1.27-1.79-1.43-2.28-3.45-9.28-6.89-18.55-10.34-27.83-10.03,3.94-27.12,9.17-48.74,8.66-25.57-.6-44.88-8.93-54.91-14.15,4.51-16.51,9.02-33.02,13.53-49.53,5.28,3.84,18.66,12.49,37.89,13.64,16.88,1.01,29.74-4.26,35.64-7.13Z" fill="url(#linear-gradient-2)"/><path d="M128.02,175.01c-6.98-4.23-18.04-9.67-32.49-11.89-27.05-4.17-48.35,5.64-56.36,9.85-.79.17-2.81.51-5.09-.4-1.64-.66-2.68-1.68-3.21-2.28-.72-1.49-1.45-2.98-2.17-4.47.07-.52.26-1.37.79-2.28.59-1.01,1.32-1.62,1.77-1.94,2.06-2.04,4.25-4.44,6.4-7.26,1.18-1.54,2.23-3.04,3.17-4.49,1.3-1.69,1.4-3.92.32-5.47-1.14-1.63-3.1-1.79-3.38-1.81-4.85-.3-9.7-.6-14.55-.89-.62-.04-2.07-.23-3.43-1.3-.71-.56-1.16-1.18-1.43-1.64-.88-1.15-2.64-3.8-2.62-7.38,0-1,.15-1.89.34-2.64,11.06-5.75,32.54-15.04,61.07-15.76,31.24-.78,54.87,9.14,66.18,14.8-2.27,5.61-4.49,11.52-6.62,17.72-3.54,10.33-6.4,20.21-8.7,29.51Z" fill="url(#linear-gradient-3)"/></g></svg>