<?xml version="1.0" encoding="UTF-8"?><svg id="Layer_2" xmlns="http://www.w3.org/2000/svg" xmlns:xlink="http://www.w3.org/1999/xlink" viewBox="0 0 230.62 130.9"><defs><linearGradient id="linear-gradient" x1="114.74" y1="7.63" x2="114.74" y2="117.41" gradientUnits="userSpaceOnUse"><stop offset="0" stop-color="#0041e5"/><stop offset=".28" stop-color="#003fe1"/><stop offset=".56" stop-color="#003bd5"/><stop offset=".84" stop-color="#0033c1"/><stop offset="1" stop-color="#002eb2"/></linearGradient><linearGradient id="linear-gradient-2" x1="114.74" y1="47.63" x2="114.74" y2="106.12" gradientUnits="userSpaceOnUse"><stop offset="0" stop-color="#0041e5"/><stop offset=".25" stop-color="#003fe1"/><stop offset=".49" stop-color="#0039d5"/><stop offset=".74" stop-color="#0030c1"/><stop offset=".98" stop-color="#0024a5"/><stop offset="1" stop-color="#0023a3"/></linearGradient><linearGradient id="linear-gradient-3" x1="114.74" y1="7.63" x2="114.74" y2="117.41" gradientUnits="userSpaceOnUse"><stop offset="0" stop-color="#f8d78c"/><stop offset=".28" stop-color="#f7d588"/><stop offset=".56" stop-color="#f7d07c"/><stop offset=".84" stop-color="#f5c868"/><stop offset="1" stop-color="#f5c259"/></linearGradient></defs><g id="Layer_1-2"><rect x="4.59" y="38.86" width="221.44" height="87.01" rx="41.42" ry="41.42" fill="#00327c"/><path d="M226.03,78.8c0,11.03-4.45,21.01-11.64,28.24-7.19,7.23-17.13,11.7-28.1,11.7H44.48c-21.96,0-39.75-17.89-39.75-39.94,0-11.03,4.45-21.01,11.64-28.24,7.19-7.23,17.13-11.7,28.11-11.7h4.91v-13.47c0-11.49,9.27-20.8,20.7-20.8h89.21c11.43,0,20.7,9.31,20.7,20.8v13.47h6.28c21.95,0,39.75,17.88,39.75,39.94Z" fill="#0047e8"/><path d="M223.28,78.99c0,10.61-4.37,20.21-11.42,27.16-7.06,6.95-16.8,11.25-27.57,11.25H45.19c-21.54,0-38.99-17.2-38.99-38.41,0-10.61,4.37-20.21,11.42-27.16,7.06-6.95,16.81-11.25,27.57-11.25h4.82v-12.95c0-11.05,9.09-20.01,20.31-20.01h87.51c11.22,0,20.31,8.96,20.31,20.01v12.95h6.16c21.53,0,38.99,17.19,38.99,38.41Z" fill="url(#linear-gradient)"/><path d="M218.05,79.34c0,8.76-3.51,16.68-9.17,22.42-5.67,5.74-13.5,9.29-22.15,9.29H42.76c-17.3,0-31.32-14.2-31.32-31.71,0-.83.03-1.65.09-2.47,1.24,16.36,14.75,29.24,31.23,29.24h143.97c8.65,0,16.48-3.55,22.15-9.29,5.13-5.2,8.49-12.18,9.08-19.96.06.81.09,1.64.09,2.47Z" fill="#00327c"/><path d="M217.95,76.87c-.59,7.77-3.95,14.76-9.08,19.96-5.67,5.74-13.5,9.29-22.15,9.29H42.76c-16.48,0-29.98-12.88-31.23-29.24.59-7.77,3.95-14.76,9.08-19.96,5.67-5.74,13.5-9.29,22.15-9.29h143.97c16.48,0,29.98,12.88,31.23,29.24Z" fill="url(#linear-gradient-2)"/><rect x="11.44" y="47.54" width="206.61" height="63.61" rx="31.8" ry="31.8" fill="none" stroke="#002c72" stroke-miterlimit="10" stroke-width="2"/><rect x="4.59" y="38.86" width="221.44" height="87.01" rx="41.42" ry="41.42" fill="#cc7904"/><path d="M226.03,78.8c0,11.03-4.45,21.01-11.64,28.24-7.19,7.23-17.13,11.7-28.1,11.7H44.48c-21.96,0-39.75-17.89-39.75-39.94,0-11.03,4.45-21.01,11.64-28.24,7.19-7.23,17.13-11.7,28.11-11.7h4.91v-13.47c0-11.49,9.27-20.8,20.7-20.8h89.21c11.43,0,20.7,9.31,20.7,20.8v13.47h6.28c21.95,0,39.75,17.88,39.75,39.94Z" fill="#f9daa1"/><path d="M223.28,78.99c0,10.61-4.37,20.21-11.42,27.16-7.06,6.95-16.8,11.25-27.57,11.25H45.19c-21.54,0-38.99-17.2-38.99-38.41,0-10.61,4.37-20.21,11.42-27.16,7.06-6.95,16.81-11.25,27.57-11.25h4.82v-12.95c0-11.05,9.09-20.01,20.31-20.01h87.51c11.22,0,20.31,8.96,20.31,20.01v12.95h6.16c21.53,0,38.99,17.19,38.99,38.41Z" fill="url(#linear-gradient-3)"/><path d="M218.05,79.34c0,8.76-3.51,16.68-9.17,22.42-5.67,5.74-13.5,9.29-22.15,9.29H42.76c-17.3,0-31.32-14.2-31.32-31.71,0-.83.03-1.65.09-2.47,1.24,16.36,14.75,29.24,31.23,29.24h143.97c8.65,0,16.48-3.55,22.15-9.29,5.13-5.2,8.49-12.18,9.08-19.96.06.81.09,1.64.09,2.47Z" fill="#e89a25"/><path d="M217.95,76.87c-.59,7.77-3.95,14.76-9.08,19.96-5.67,5.74-13.5,9.29-22.15,9.29H42.76c-16.48,0-29.98-12.88-31.23-29.24.59-7.77,3.95-14.76,9.08-19.96,5.67-5.74,13.5-9.29,22.15-9.29h143.97c16.48,0,29.98,12.88,31.23,29.24Z" fill="#fad797"/><rect x="11.44" y="47.54" width="206.61" height="63.61" rx="31.8" ry="31.8" fill="none" stroke="#ca8e25" stroke-miterlimit="10" stroke-width="2"/><path d="M228.12,78.1v8.71c0,22.97-18.62,41.59-41.6,41.59H44.1c-22.98,0-41.6-18.62-41.6-41.59v-8.71c0-22.97,18.62-41.6,41.6-41.6h3.01v-11.76c0-12.28,9.96-22.24,22.24-22.24h90.77c12.28,0,22.23,9.96,22.23,22.24v11.76h4.17c22.98,0,41.6,18.63,41.6,41.6Z" fill="none" stroke="#4e1f99" stroke-miterlimit="10" stroke-width="5"/></g></svg>