<?xml version="1.0" encoding="UTF-8"?><svg id="Layer_2" xmlns="http://www.w3.org/2000/svg" xmlns:xlink="http://www.w3.org/1999/xlink" viewBox="0 0 318.21 364.95"><defs><linearGradient id="linear-gradient" x1="205.28" y1="43.5" x2="257.56" y2="43.5" gradientUnits="userSpaceOnUse"><stop offset="0" stop-color="#f7f9f3"/><stop offset="1" stop-color="#c0cbc0"/></linearGradient><linearGradient id="linear-gradient-2" x1="213.88" y1="160.21" x2="304.18" y2="160.21" xlink:href="#linear-gradient"/><linearGradient id="linear-gradient-3" x1="88.82" y1="84.58" x2="179.97" y2="84.58" xlink:href="#linear-gradient"/><linearGradient id="linear-gradient-4" x1="14.03" y1="214.63" x2="275.58" y2="214.63" xlink:href="#linear-gradient"/></defs><g id="Layer_1-2"><path d="M200.42,37.85L238.55,1.59c.41-.28,3.74-2.48,7.83-1.19,3.67,1.15,5.2,4.24,5.45,4.77.74,1.78,1.57,4.33,1.87,7.49.24,2.49.08,4.65-.17,6.3-.34,2.1-.68,4.2-1.02,6.3l-1.53,5.96,8.68,2.55c.95.51,2.81,1.68,4.26,3.91,1.76,2.71,1.88,5.39,1.87,6.47.28,3.69.57,7.38.85,11.06-.09.91-.31,2.1-.85,3.4-1.02,2.46-2.63,4-3.57,4.77-12.09,11.69-24.17,23.38-36.26,35.06-.25.24-4.12,3.91-9.02,2.72-4.25-1.03-7.42-5.25-7.32-10.21-.22-3.35-.22-7.39.34-11.91.43-3.54,1.12-6.68,1.87-9.36-1.08-.09-8.25-.84-12.71-7.13-3.17-4.48-3.15-9.18-3.07-10.74-.27-1.48-.65-4.78.8-8.51,1.03-2.66,2.57-4.45,3.57-5.45Z" fill="#96a496"/><path d="M243.22,7h2.13c.34.24,1.03.8,1.45,1.78.65,1.53.12,2.93,0,3.23-2.47,8.48-4.94,16.96-7.4,25.45l-5.7-3.15,9.53-27.31Z" fill="#57625a"/><path d="M251.05,40.7c1.39-.52,2.78-1.04,4.17-1.56,2.56.97,4.4,3.08,4.76,5.56.29,2.02-.5,3.63-.85,4.26-12.43,12.34-24.85,24.68-37.28,37.02-.16.12-1.72,1.3-3.4.77-1.71-.55-2.88-2.65-2.38-4.94.71-2.84,1.42-5.67,2.13-8.51l32.85-32.6Z" fill="#57625a"/><path d="M221.94,58.06l-16.68-5.28c-.33-.28-2.48-2.21-2.47-5.36.02-3.68,2.99-5.71,3.23-5.87,7.4,1.56,14.81,3.12,22.21,4.68l-3.74,11.83h-2.55Z" fill="#57625a"/><path d="M237.36,32.91l8.17-25.7c-.37-.12-1.03-.27-1.83-.17-1.17.15-1.95.75-2.26,1.02-11.74,11.12-23.49,22.24-35.23,33.36-.06.05-1.12.98-.89,2.38.15.95.83,1.74,1.74,2.04,5.39,1.87,10.78,3.74,16.17,5.62l-6.47,26.21c.05.92.58,1.74,1.36,2.11,1.02.47,2.33.11,3.06-.92,12.11-12.1,24.23-24.2,36.34-36.3.05-.32.04-.61,0-.85-.37-2.2-3.57-3.12-3.83-3.19-5.45-1.87-10.89-3.74-16.34-5.62Z" fill="url(#linear-gradient)"/><path d="M245.19,113.25l61.28,27.74c1.66,1.04,4.32,3.01,6.64,6.3,2.41,3.43,3.35,6.74,3.74,8.68.45,5.16.91,10.33,1.36,15.49,0,1.84-.17,4.24-.85,6.98-.65,2.6-1.56,4.72-2.38,6.3-4.99,12.48-9.99,24.96-14.98,37.45-.77,1.52-2.31,4.05-5.11,6.3-2.25,1.8-4.47,2.74-5.96,3.23.55,3.35.94,7.77.51,12.94-.4,4.8-1.39,8.83-2.38,11.91-4.18,10.1-9.37,21.12-15.83,32.68-5.24,9.38-10.61,17.83-15.83,25.36-4.45,6.07-10.86,13.59-19.74,20.94-9.79,8.09-19.28,13.25-26.55,16.51-6.95,3.29-15.99,6.84-26.89,9.36-10.6,2.45-20.03,3.27-27.57,3.4-8.63.36-19.73.04-32.34-2.38-11.25-2.16-20.7-5.4-28.09-8.51-8.06-3.35-17.38-7.91-27.23-14.13-9.06-5.72-16.64-11.62-22.81-17.02-6.08-5.29-13.52-12.77-20.6-22.81-6.89-9.77-11.37-19.03-14.3-26.38-3.12-8.81-6.29-20.19-8-33.7-1.67-13.24-1.47-24.85-.68-34.04.93-9.87,3.08-22.47,8-36.43,3.76-10.67,8.24-19.6,12.43-26.72,5.4-8.13,11.77-16.86,19.23-25.87,7.33-8.85,14.59-16.59,21.45-23.32.97-.88,3.21-2.69,6.64-3.4,2.86-.6,5.23-.15,6.47.17-.29-1.89-.62-5.84,1.02-10.38,1.76-4.86,4.83-7.79,6.3-9.02,9.82-10.38,19.63-20.77,29.45-31.15,1.31-1.26,5.48-4.98,12.09-5.79,6.01-.74,10.58,1.35,12.26,2.21,15.55,13.45,31.09,26.89,46.64,40.34,1.48,1.15,3.47,2.97,5.28,5.62,2.11,3.09,3.09,6.04,3.57,8l1.7,16.51c.2,1.48.38,4.26-.68,7.49-1.15,3.51-3.17,5.75-4.26,6.81l-30.64,34.89c-1.22,1.07-3.67,2.94-7.32,3.91-3.39.91-6.26.62-7.83.34.12,2.68-.02,6.82-1.53,11.57-1.39,4.37-3.41,7.62-4.94,9.7-4.82,6.38-9.65,12.77-14.47,19.15-1.11,1.3-6.76,8.2-5.79,17.96,1.3,13.05,13.24,19.06,13.96,19.4,2.1,1.17,10.95,5.78,22.3,3.23,10.93-2.45,16.89-9.92,18.38-11.91,3.26-4.32,6.74-9.54,10.04-15.66,3.99-7.4,6.75-14.33,8.68-20.26.4-1.32,1.65-4.77,5.11-7.49,2.84-2.24,5.76-2.86,7.15-3.06-.39-3.25-.59-7.8.34-13.11.76-4.34,2.05-7.9,3.23-10.55l17.36-37.28c.73-1.28,3.88-6.47,10.55-8.68,5.89-1.95,10.89-.38,12.43.17Z" fill="#96a496"/><path d="M296.63,147.17c.64.15,6.1,1.54,8.55,7.02,1.72,3.85.69,7.73,0,10.09-4.23,14.38-15.05,38.33-16.45,41.43-.47.72-1.78,2.51-4.23,3.51-1.78.72-3.36.7-4.21.63-20.98-9.57-41.96-19.14-62.94-28.72-.87-.51-3.64-2.29-4.98-5.89-1.75-4.68.29-8.76.64-9.43.77-1.57,1.53-3.15,2.3-4.72l81.32-13.91Z" fill="#57625a"/><path d="M179.97,87.57c.62.97,1.26,2.24,1.65,3.81,1.29,5.18-1.16,9.59-1.91,10.85-9.53,10.68-19.06,21.36-28.6,32.04-.59.66-2.54,2.71-5.74,3.19-4.91.74-8.36-2.85-8.68-3.19-15.96-13.62-31.91-27.23-47.87-40.85-.53-.52-3.12-3.17-3.19-7.4-.08-4.47,2.71-7.31,3.19-7.79,30.39,3.11,60.78,6.23,91.16,9.34Z" fill="#57625a"/><path d="M270.34,223c.6.19,4.95,1.67,6.77,6.26,1.47,3.71.3,7,0,7.79-2.24,5.76-4.77,11.78-7.66,18-3.71,8-7.55,15.36-11.36,22.09-4.46,7.48-10.63,16.35-19.02,25.4-6.95,7.5-13.84,13.41-19.91,18-6.75,4.68-16.27,10.25-28.47,14.55-14.26,5.03-26.91,6.46-35.87,6.77-9.92.11-23.25-.73-38.43-4.6-14.55-3.7-26.23-9.02-34.72-13.66-6.88-3.63-15.23-8.79-23.87-16.09-9.03-7.61-15.74-15.32-20.55-21.7-4.69-6.45-10.02-14.96-14.68-25.53-4.9-11.12-7.62-21.27-9.19-29.36-1.1-10.89-1.35-24.92,1.4-40.85,1.38-8.01,3.3-15.19,5.36-21.45,36-6.85,72-13.7,108-20.55.62.51,2.37,2.09,2.92,4.75.88,4.27-2.12,7.47-2.41,7.76-4.1,4.35-8.6,9.73-13.02,16.21-4.57,6.71-8.01,13.08-10.6,18.64-1.36,3.38-3.74,10.58-2.68,19.79,1.11,9.63,5.38,16.33,7.53,19.28,8.98,11.57,17.96,23.15,26.94,34.72l133.53-46.21Z" fill="#57625a"/><path d="M243.67,123.31c-1.05-.4-3.47-1.33-6.3-.68-3.85.88-5.76,3.84-6.13,4.43-5.79,12.31-11.57,24.62-17.36,36.94.13.57.4,1.48,1.06,2.43.75,1.08,1.65,1.7,2.17,2,20.77,9.65,41.53,19.29,62.3,28.94.27.15,2.3,1.22,4.53.28,1.5-.63,2.3-1.93,2.62-2.49,1.74-3.02,8.64-19.75,17.61-42.78-.28-.47-.77-1.24-1.56-2.02-1.41-1.4-2.9-2-3.29-2.17-18.68-7.98-36.7-17.54-55.65-24.86Z" fill="url(#linear-gradient-2)"/><path d="M119.33,46.34c.59-.59,2.84-2.69,6.43-2.98,3.05-.24,5.3.97,6.09,1.45,16.04,14.26,32.09,28.51,48.13,42.77-.15.73-.41,1.63-.85,2.6-.61,1.34-1.36,2.34-1.96,3.02-9.45,10.6-18.89,21.19-28.34,31.79-.63.32-1.81.81-3.36.85-1.79.05-3.14-.53-3.79-.85-16.68-14.34-33.36-28.68-50.04-43.02-.52-.49-1.12-1.12-1.7-1.91-.47-.64-.83-1.25-1.11-1.79,10.17-10.64,20.34-21.28,30.51-31.91Z" fill="url(#linear-gradient-3)"/><path d="M206.99,193.23c-.46-.23-2.14-1-4.26-.51-2.28.53-3.47,2.16-3.74,2.55-2.33,8.5-6.95,21.02-16.6,33.62-5.22,6.81-10.66,12.03-15.4,15.91-3.24,1.97-12.09,6.77-24.26,6.21-11.66-.54-19.78-5.69-22.89-7.91-3.73-2.8-10.68-8.81-15.4-18.89-3.69-7.88-4.52-15.03-4.68-19.4.46-8.56,2.32-15.34,4-20,3.2-8.91,7.46-14.95,11.74-21.02,4.56-6.47,9.08-11.61,12.85-15.49-17.99-15.66-35.97-31.32-53.96-46.98-.39-.3-1.88-1.39-4-1.28-1.6.09-2.72.81-3.17,1.14-9.09,8.49-19.73,19.99-29.77,34.94-7.45,11.1-12.95,21.68-17.02,30.89-2.58,7.05-5.45,17.24-6.21,29.79-.77,12.7.9,23.28,2.64,30.64,1.63,7.83,4.73,18.59,10.98,30.3,6.11,11.44,13.13,19.86,18.64,25.53,6,6.06,13.64,12.89,23.06,19.57,9.44,6.7,18.41,11.65,26.13,15.32,7.68,3.06,17.32,6.19,28.68,8.34,11.27,2.13,21.31,2.75,29.53,2.72,7.82-.2,18.02-1.22,29.53-4.43,10.53-2.93,19.13-6.85,25.62-10.38,6.21-3.55,13.77-8.6,21.53-15.66,7.75-7.05,13.49-14.08,17.62-19.91,5.18-7.7,10.56-16.55,15.74-26.55,4.7-9.08,8.53-17.73,11.66-25.7-.35-.43-.92-1.05-1.7-1.7-1.11-.92-2.21-1.5-3.06-1.87-21.28-9.93-42.55-19.86-63.83-29.79Z" fill="url(#linear-gradient-4)"/></g></svg>