<?xml version="1.0" encoding="UTF-8"?><svg id="Layer_2" xmlns="http://www.w3.org/2000/svg" xmlns:xlink="http://www.w3.org/1999/xlink" viewBox="0 0 225.36 225.36"><defs><linearGradient id="linear-gradient" x1="7.68" y1="109.24" x2="217.68" y2="109.24" gradientUnits="userSpaceOnUse"><stop offset="0" stop-color="#f7f9f3"/><stop offset="1" stop-color="#c0cbc0"/></linearGradient><linearGradient id="linear-gradient-2" x1="112.68" y1="34.25" x2="112.68" y2="183.3" xlink:href="#linear-gradient"/></defs><g id="Layer_1-2"><circle cx="112.68" cy="112.68" r="112.68" fill="#4c5d53"/><circle cx="112.68" cy="113.33" r="107.44" fill="#6b796b"/><ellipse cx="112.68" cy="109.07" rx="107.44" ry="103.75" fill="#dce8dd"/><ellipse cx="112.68" cy="109.24" rx="105" ry="101.39" fill="url(#linear-gradient)"/><ellipse cx="112.68" cy="109.27" rx="96.43" ry="93.12" fill="#96a496"/><ellipse cx="112.68" cy="109.28" rx="80.35" ry="77.59" fill="#f8f9ea"/><ellipse cx="112.68" cy="108.77" rx="77.18" ry="74.53" fill="url(#linear-gradient-2)"/><ellipse cx="112.68" cy="109.21" rx="96.5" ry="93.18" fill="none" stroke="#39413a" stroke-miterlimit="10" stroke-width="3"/><ellipse cx="175.79" cy="186.87" rx="33.39" ry="32.24" fill="#89212a"/><path d="M206.47,187.02c0,16.36-13.74,29.62-30.68,29.62s-30.68-13.26-30.68-29.62c0-.92.04-1.83.13-2.72,1.42-15.09,14.55-26.91,30.55-26.91s29.13,11.82,30.55,26.91c.09.89.13,1.8.13,2.72Z" fill="#b5252a"/><path d="M206.34,184.3c-1.43,15.08-14.56,26.89-30.55,26.89s-29.13-11.81-30.55-26.89c1.42-15.09,14.55-26.91,30.55-26.91s29.13,11.82,30.55,26.91Z" fill="#cf3642"/><ellipse cx="170.27" cy="173.45" rx="17.51" ry="10.78" transform="translate(-59.13 93.13) rotate(-26.23)" fill="#e05e63"/></g></svg>