<?xml version="1.0" encoding="UTF-8"?><svg id="Layer_2" xmlns="http://www.w3.org/2000/svg" viewBox="0 0 971.25 423.19"><g id="Layer_1-2"><path d="M897.2,69.86c-3.52-.26-6.05-3.76-6.99-6.99,3.02,1.58,4.69,4.7,6.99,6.99Z" fill="#c1c7d4"/><path d="M846.13,29.95c2.76,3.78,5.41,5.01,9.73,6.77.83.1,1.65.91,2.38,1.22,4.85,3.76,9.62,7.58,14.3,11.45-1.09,2.81,2.41,5.21,4.9,4.48,3.64,1.78,10.3,7.86,10.01,12.05,3.55.53,6.71,3.85,6.82,7.43,6.36-.4,8.61,1.22,11.74,6.3,3.02,2.02,5.81,4.81,7.17,8.18l4,4.99c.39,0,.66.85,1,1,.76,1.29,1.66,2.27,3,2.99,1.42,2.74,3.35,4.95,5.38,7.85,19.27,27.4,31.72,58.7,38.97,91.42,1.16,5.26,4.17,21.95,3.61,25.47l1,4.99v3.99l1,4.99v24.95c-1.29.42-2.24-.15-2.86-1.72-.05,2.59-1.49,4.38-4.11,4.81-1.07,7.53-1.96,14.42,1.45,21.78-1.81,1.9-1.66,2.05.44.45,1.4,9.51,1.58,19.19.53,29.06.84,5.15.75,10.19-.26,15.1-4.02,7.17-5.11,14.32-3.28,21.44l-.59,8.44c2.02,2.56,3.5,5.31,4.46,8.23-.99,5.61-.91,11.2.27,16.75.7,3.88-.27,6.13-2.92,6.78-2.15,4.5-4.64,5.92-7.47,4.25-.61-4.79-1.05-7.06-3.67-2.03-1.04,5.81-3.3,7.77-6.8,5.86-1.55,3.77-3.15,7.4-4.8,10.87l-2.96,1.15c4.92,1.85,10.32,5.65,10.58,11.23l-949.15.24.53-174.07c.07-23.91,4.84-45.79,11.49-68.55,10.04-31.96,25.88-60.85,46.59-87.05,2.45-3.1,4.71-5.97,7.59-7.87,1.51-2.79,2.93-1.22,4.19,1.54,7.45,3.36,11.59,11.7.46,11.91l-1.54,4.53c4.09-.72,6.96,3.11,5.17,6.82,2.81,2.68,3.95,5.25,3.41,7.74,7.54.63,11.77-5.55,14.59-11.81,10.83-5.78,10.69,4.34,6.8,12.19,1.12,3.86,1.01,7.3-.33,10.32-3.77,5.97-5.98,12.74-6.63,20.31l-1.57,1.85c-3.61.27-6.48,2.32-8.62,6.14.56,7.42-1.98,9.92-7.61,7.51-5.32-.95-8.1,1.7-8.37,7.97l-3.56,3.81c9.56,7.64,7.38,16.1,3.16,26.11-.04.48,1.05,8.56,1.27,8.96,1.68,3.13,2.82-5.67,1.13-7.3.73-2.25,2.98-3.56,6.75-3.94,5.3-3.93,11.31-3.18,18.04,2.24.76,3.44,1,3.61.72.52l11.1,2.53c-6.38-4.57-9.34-10.19-8.87-16.86-6.9-5.11-6.86-16.74-.17-22.07-.22-4.85.98-8.19,3.6-10.03,0-3.74.97-10.13,1.93-13.91,3.12-12.17,19.94-14.05,25.75-3.09,1.78,3.35,3.6,9.02-1.48,9.75.98,1.31,1.2,2.67,1.42,4.23.64,4.68.4,18.25-.08,23.15-.15,1.52-.29,2.81-1.68,3.8,3.21,4.07,2.5,8.17-1.75,11.05,3.5,6.21,10.92,5.98,12.18-1.44,1.59-1.85,3.97-2.36,7.16-1.53-.18-1.73.05-3.38.69-4.96,2.47-2.23,3.78-4.53,3.92-6.89,2.9-2.44-3.17-6.83-5.58-8.19-5.08,5.15-11.64.37-5.65-5.21-.83-4.12.62-8.28,5.41-6.42,5.4-2.65,10.8-1.13,14.59,3.42,3.79-.1,7.07.59,9.86,2.08-1.46,6.22-1.59,12.39-.39,18.51,2.93,5.36,1.16,8.04-4.83,8.58,2.36,2.98,1.09,6.53-1.1,9.18l2.98,3.79c-1.2,5.04,1.31,7.15,7.53,6.33,3.12,1.12,3.27,3.84.45,8.17,1.78,6.29,3.01,11.8,2.19,18.37l6,.19c0-6.42,3.29-9.42,9.66-7.47,5.05,1.55,13.87,6.38,7.16,10.97-2.21-.81-2.46,2.61-1.85,3.73.67,1.22,10.5,9,12.58,5.88,5.82.58,10.7-1.77,14.64-7.06,3.31-1.59,7.17-.96,11.59,1.9,7.47-1.23,13.6.02,18.39,3.75,1.32-2.78,3.85-4.24,7.59-4.37-.09-5.77.18-11.52.83-17.22,3.31-2.01,6.64-3.99,10-5.96,5.78,1.05,10.15.22,13.12-2.5,1.48-7.3,5.54-6.56,12.19,2.2,2.73.91,5.27.03,7.61-2.63l4.43-.53c-2.06-13.32,11.91-15.66,12.53-1.79,7.04,5.45,8.91,18.35-2.54,16.87-.09,2.99.54,6.2,1.92,9.64-.97,2.38-1.37,4.99-1.2,7.81-4.52,1.58-4.77,15.28-3.58,18.02,2.94,1.21,4.52,3.08,4.75,5.62,4.57.24,9.1,2.29,4.52,6.64,5.17,5.51,4.79,10.7,1.48,16.94.48,3.76,1.26,7.53,2.34,11.29,4.69.12,7.01,4.02,5.64,8.38-7.16,7.26-1.21,10.64,6.02,5.76l.28-37.07-9.21-6.26c-2.51-2.74-4.11-18.32-2.26-20.7,2.55-3.28,12.85-2.67,16.82-2.21,3.05-2.93,6.23-3.99,10.48-3.8-.03-3.21,1.22-5.25,4.56-5.7-.55-9.31,9.09-12.34,14.06-3.46,2.71,4.84,2.31,12.04-3.7,13.47-.84,3.87,2.22,5.95,9.17,6.25,4.46,2.15,11.44,5.16,15.53,1.36.01-6.15.46-12.26,1.34-18.31,1.96-1.44,4.31-1.95,7.05-1.53l-.24-9.46c1.79-3.99,2.38-7.9,1.77-11.73-5.39-9.51,9.06-12.87,10.36-3.13,3.06,1.62,6.13,2.94,9.19,3.96,3.82-1.78,19.46.23,20.56,4.13.88,3.16-3.47,3.86-5.71,4.14-5.26,7.15-10.01,9.05-18.82,8.16l-.56,4.15c-4.71,6.96-.13,9.55,13.73,7.79,7.79,2.37,16.21,3.01,25.26,1.91,2.37-6.86,10.39-7.04,12.4.07,8.19-.13,16.35-.87,24.47-2.22,6.09.73,12.04.93,17.83.59l3.73,1.28c5.35,6.06,12.6,8.15,21.75,6.25.11-4.93,3.24-6.21,7.79-6.14-.53-8.93,5.2-13.18,13.34-8.46,3.8,2.2,9.72,11.85,11.03,16.03-1.21,2.81,3.18,7.09,6.1,6.77,2.34,1.86,4.89,3,7.67,3.43.62,6.97,4.65,6.49,10.15,4.03,4.98-4.88,9.98-9.71,15-14.49,7.12-2.69,14.42-4.38,21.9-5.07,5.67,7.01,8.92,4.89,9.77-6.35,4.24-4.88,10.29-4.81,18.14.24,6.19-.57,9.29-.86,9.29-.86,4.19-3.48,8.12-7.27,11.79-11.37,3.76-1.77,5.86.65,6.3,7.26,3.72,3.4,3.76,6.85.14,10.44-2.4,6.03-1.95,8.12,1.37,6.28,4.3,1.98,8.73,3.79,13.31,5.46,2.52-2.7,5.18-3.63,7.97-2.77,5.19-3.32,7.58-8.45,5.05-13.95,2.52-7.45,2.07-14.12,1.26-21.77,2.64-7.08,9.91-3.54,11.36,2.88,4.64,3.4,7.02,7.52,7.14,12.35,2.75.81,5.33-.04,7.74-2.57,2.69-.94,5.32-.24,7.9,2.11,2.57-2.69,4.65-5.73,6.26-9.11,9.45-2.82,14.18-4.23,14.18-4.23.4-.11,3.28-5.12,3.47-6.34.07-.46-2.01-8.71-2.26-9.11-6.18-2.16-10.26-6.04-12.24-11.65,1.24-5.22-3.08-13.18-7.66-7.17,5.71,1.92,5.85,7.56,2.33,11.72,5.14,2.44,5.67,18.81,3.53,22.38-4.31,7.18-16.52-.73-19.59-6.03-12.35.95-8.41-14.67-.54-18.87-4.31-3.96-5.87-8.3-4.67-13.02,7.79-7.5-2.08-20.64-10.21-13.41-13.34,6.52-19.56-9.42-15.84-20.07,2.34-6.71,11.56-.61,9.73,5.82,2.91-3.32,5.57-4.56,7.95-3.73l3.02-4.91c-.95-6.51,3.57-8.23,9.3-7.66,10.55,1.04,14.04,5.91,11.36,15.85,4.12,2.06,4.66,3.96,4.78,8.23,8.19-.17,15.48,7.9,16.72,15.65,8.34,1.47,2.28-6.33-1.73-8.76-2.63-3.67-1.75-5.47,2.48-6.66l.04-3.88c-2.65-.17-5.1-.93-7.33-2.29-10.49-9.27-.84-10.19,8.17-9.78-.25-3.7-2.17-6.5-5.75-8.43-1.94-3.09-2.26-6.92-.95-11.51-6.09-1.04-6.65-8.28-3.61-12.87,1.89-2.85,4.49-5.33,7.56-2.68,4.34,7.12,8.95,8.32,13.84,3.6,3.41.6,6.33-1.16,8.74-5.28,6.4-5.37,13.93-8.93,22.59-10.66l2.31-4.05c-1.49-9.11.49-11.82,5.94-8.13,1.72-2.32,3.9-3.35,6.83-2.66l-.36-5.62-9.52-10.3c-.58-1.94-.94-3.74-1.07-5.4l-11.43.02c.7,8.52-5.22,9.61-11.69,6.05-6.8.78-9.3-2.74-7.48-10.57-7.38-.41-9.58-3.69-6.59-9.85l-2.29-7.35c-1.56-11.71,7.47-12.27,16.78-12.37,2.65-2.28,5.78-3.08,8.08.07,7.18-10.04,13.17-10.5,24.72-10.23.15-1.53,1.08-2.35,2.81-2.45-.1-1.48.43-2.17,1.56-2.06,4.46,1.02,9.62,4.65,13.89,6.81Z" fill="#c1c7d4"/><path d="M890.2,62.88c1.89,2.9,4.22,5.23,6.99,6.99,0,0,10.87,9.42,8.81,9.79-1.57-1.05-2.7-1.38-3.73-5.19-1.81,1.14-1.52,3.03-2.78,3.25-2.03.35-4.28.9-4.69-1.64l4.54.76c-.95-2.82-4.81-.66-6.55-.97-.98-1.94.03-6.64-3.61-7.47-12.5-2.85,4.17.08-9.22-10.69-.63-.51-.17-1.83-1.08-1.88-.58-.03-2.1-.55-1.86.95.11.66,1.63.73,1.86,1.65.13.52-.81,1.27-.8,2.09,1.63,1.21.75,1.3-1.07,1.33-1.91-1.34-2.94-3.99-2.9-6.8l-5.92-2.64c.82-.5,3.82-1.9,2.68-3.28-1.51-1.83-4.95-1.5-6.14-3.46,3.45-3.29-3.69-1.64-6.51-7.71,3.53,1.5,6.8,4.29,10.09,6.87l15.1,11.83c2.56,2.01,4.09,4.85,6.77,6.25Z" fill="#c1c7d4"/><path d="M855.86,36.71c-2.32-.13-4.62-.47-7.31-1.11-.88-2.07-1.91-3.79-2.42-5.66,3.46,1.75,7.28,3.93,9.73,6.77Z" fill="#c1c7d4"/><path d="M917.18,92.82c-2.32.19-3.27-3.2-4-4.99,1.92,1.11,3.91,2.64,4,4.99Z" fill="#c1c7d4"/><path d="M970.12,226.54c-1.47-.91-1.25-3.39-1-4.99,1.7.95,1,3.33,1,4.99Z" fill="#c1c7d4"/><path d="M971.12,235.52c-1.7-.95-1-3.33-1-4.99,1.66.95,1,3.33,1,4.99Z" fill="#c1c7d4"/><path d="M921.17,96.81c-.68,0-1.44-.06-2.03-.48-.8-.56-1-1.59-.97-2.52,1.39.59,2.32,1.69,3,2.99Z" fill="#c1c7d4"/><path d="M5.58,380.36l.58,36.79c.03,1.7-1.61,3.82-3.12,2.9-1.06-18.92.05-37.78,0-56.76l-.11-46.91c-.02-8.15-1.13-15.83.31-24.1,5.72,4.42,1.55,18.59,1.57,18.96.42,6.71-.37,13.48.65,19.88.72,4.52.13,7.9-.06,12.27-.51,12.22-.03,24.35.17,36.97Z" fill="#c1c7d4"/><path d="M971.12,260.46v18.96c-.87,19.9-.85,40.95,0,60.87v82.72c-3.71.33-6.83.11-9.99.11-1.93-.83-4.06-.83-5.99,0l-5.99-.19c-2.08-.28-2.23-1.9-3.18-3.44-2.73-4.44-8.1-5.86-12.69-7.7-1.76-3.79,2.9-.94,7.19-2.87,1.44-.64.01-3.35.73-4.04,2.83-2.7,3.84-5.45,2.91-9.56-.73-3.22-1.64-5.89-6.15-6.24,1.16-1.69,2.76-2.18,4.29-1.56,4.11,1.64,3.12,11.13,7.28,11.41.93-3.67,1.57-7.04,4.21-9.4,1.5-1.34,3.38.24,4.63.88,1.71-2.06,2.38-.38,1.51,1.29-1.05.5-1.84,1.26-1.8,1.91.38,6.26,5.39-7.51,6.46-3.13,1.49-3.48.27-7.92-.45-12.23-.63-3.77,1.52-7.25.65-11-.63-2.71-4.7-4.98-4.28-8.1.53-4.03,1.05-7.84-.12-11.84-2.99-10.17,6.83-13.55,4.49-28.59-1.12-7.16,1.84-22.79-.47-31.97.71,2.79-6.03-11.39-2.07-20.46.44-1-.74-2.85.06-4.06.47-.72,2.47-.5,3.25-1.42,1.34-1.59.14-4.04.76-6.22,1.2-.4,1.94-1.13,4.07-1.12-1.97,2.85.68,5.23.68,7.01Z" fill="#c1c7d4"/><path d="M971.12,340.3c-.37.12-1-.35-1-1.09v-58.69c0-.74.63-1.21,1-1.09v60.87Z" fill="#c1c7d4"/><path d="M961.13,423.12h-5.99c1.24-1.68,4.75-1.68,5.99,0Z" fill="#c1c7d4"/><path d="M969.72,261.37c1.07,5.44.36,10.76-1.22,16.12-.04-6.08-2.33-11.1-1.02-17.15,1.78,2.8-.35,5.82,1.1,9.19l1.14-8.16Z" fill="#c1c7d4"/><path d="M968.52,293.36c-.61-2.49-.74-4.94.04-8.05.96,2.16.95,4.44-.04,8.05Z" fill="#c1c7d4"/><path d="M966.65,364.35c-1.44-5.18.82-9.53.95-14.18,1.44,5.18-.82,9.53-.95,14.18Z" fill="#c1c7d4"/><path d="M748.34,1.01c-.82.74,1.27.58,2,0,.33,0,.67,0,1,0,2.95.69,5.95,1.02,8.99,1,.33.02.67-.04,1,0l6.09,1.38c.22-.13.6.11.84.02,3.74,1.22,7.38,1.75,10.94,1.61,3.08.89,7.01-.24,9.83,2.02.24,1.04,1.07,1.2,2.51.47,1.2.24,2.36,1.07,3.36,1.6l.14,1.14c5.32.73,10.33,2.28,15.03,4.67l1.51,2.62c1.06-1.93,2.35-2.62,3.86-2.06,1.53.7,3.36.76,4.84,1.5,1.1,1.21,2.44,2.21,4,2.99,1.02.21,2.18,1.12,3,2,.91.65,1.58.65,2,0,1-.14,2.25.72,2.98,1.17.06,1.69-1.01,3.03-2.6,4.13.38.77,1.3.92,1.55,1.22-5.44,2.96-11.23.44-16.87,1.8-4.03,1.5-6.79,6.8-10.18,9.33-.28,2.77,1.39,5.16-1.19,6.86-1.54-3.09.35-6.87-2.57-8.55-1.9-1.09-3.8,1.89-5.17,1.87-5.69-.06-10.64.08-15.03,4.08-1.15,12.86,5.38,9.32.63,19.45,1.52,1.97,4.35.97,6.26,1.7,4.05,1.55,1.59,5.86,1.47,8.46-.15,3.22,4.66,2.06,6.52,2.51,2.88.7,5.79,3.5,8.36.93,1.67-1.68.51-4.63.87-7.03l15.85-.02c.63,2.22-.93,4.99.53,6.56l9.1,9.78c1.53,1.65-.3,4.85,1.18,6.76,1.45,1.15,3.65.08,4.83,1.98-3.22,2.62-6.86-.63-10.07.17-1.7.42-2.7,4.1-5.06,2.27-.87-.68-1.74-2.09-2.58-1.21-3.04,3.19,2.97,4.32-1.92,11.91-2.09,3.25-5.18,3.16-8.82,3.94-8.23,1.76-15.1,7.29-19.99,13.75-1.84.59-4.13-.58-5.4.53-2.41,2.87-7.49,3.99-9.97.99-1.89-2.28-3.43-4.08-5.96-6.5-4.08,2.3-6.22,7.7-3.9,12.02.59,1.09,3.29.48,3.76,1.26,1.83,3.02-.62,6.52-.26,9.55.39,3.27,5.11,4.45,6.41,7.13.74,1.51.08,3.66,1.42,4.38,3.22,1.75,6.62-1.24,5.82,2.48l-19.19.59c1.36,5.34,6.61,8.38,12.07,7.35.34,2.91.39,5.2-.01,7.74-1.65.71-3.13.64-4.29,2.05,7.01,9.03,8.07,2.98,7.41,14.15-2.91.23-5.04.18-8.08.05,2.56-5.66-7.44-15.67-11.9-15.87-1.32-.06-3.07.22-3.81-.6-.55-.61-1.01-2.33-.83-3.37.59-3.41-2.23-3.31-3.66-4.59-2.51-2.24.79-6.86.08-9.14-2.8-9-16.04-6.16-16.54-5.72-3.4,3.05,1.89,3.06-3.66,9.09-1.56,1.69.72,4.58-1.57,6.49-1.38-1.74-.49-4.13-3.43-4.78-1.46,2.51-4.48,6.24-7.24,4.05-1.13-.89.68-4.69-.73-6.08-1.01-.99-3.66-2.83-5.07-1.69-.72,4.63-.9,9.51.02,14,.42,2.05,3.47,5.91,5.46,6.02,9.8.51,10.08-4.77,13.49-3.84,1.43.39,2.88,1.5,4.28,2.19,4.61,2.3,5.59,5.09,5.58,9.96,0,2.87-1.46,3.64-2.61,5.65-2.85,4.96,1.61,9.8,6.06,13.26-6.5,3.43-11.3,9.55-7.86,16.09.92,1.75,4.7.02,5.8,1.09l7.22,6.99c1.94,1.88,7.7,1.48,9.7-.34.84-4.86.51-10.75.04-15.49-.26-2.62-3.7-3.53-3.82-6.26,1.68-2.61,3.72-6.56.69-8.67-1.82-1.27-4.22.75-6.25-1.43,3.53-2.42,5.74-4.31,8.86-7.49,1.31,2.86,3.25,4.3,5.11,6.28,2.86,3.04-3.08,5.57,5.39,13.53,1.92,1.8,7.16,2.05,7.65,5.09,2.61,16.2,5.81,1.13-1.89,17.51-4.02-.42-5.82,2.5-8.75,2.85l-5.49.66c.46-.05-3.56,8.2-7.9,10.59-9.03-9.03-5.68,3.08-17.44-.57,1.58-10.48-6.57-8.36-8.35-17.1-.39-1.92-5.97-2.1-5.98-.46-.05,5.9,1.93,12.73-.27,18.18-1.24,3.08-1.56,5.34.5,8.11-4.48,12.1,1.46,2.92-8.19,12.64-3.76-3.33-5.97,1.87-8.2,3.03-2.17-2.8-5.55-2.71-8.56-3.65-2.17-.68-3.18-3.45-6.11-2.49-2.49.81-2.01,2.6-3.5,5.98-3.83-.65,2.59-16.59,1.37-15.26,1.61-1.75,2.89-2.75,2.74-5.01-.12-1.75-2.37-2.35-2.74-4.06l-1.67-7.54c-4.85,3.94-8.05,9.11-13.25,12.65-1.95,1.33-5.07-.29-7.27.62-3.12,1.28-5.51.72-8.36-1.3-2.86-2.03-9.41-3.53-11.3.63-1.5,3.31,0,8.62-3.94,11.06-3.37,2.08-5.87-1.4-8.12-3.83-2.58.67-7.35.84-9.95,1.81-17.16,6.39-6.35-.51-17.04,9.73l-8.23,7.88c-.45.43-7.81,4.14-12.01.04-.85-.83.37-3.12-.75-4.43-1.34-1.57-2.67.74-2.41,2.58.31,2.26-2.42,2.2-2.11-.03s.09-3.82-1.08-4.81c-2.37-2-1.14,3.16-9.8-7.03,2.97-3.61-.73-4.88-2.06-7.31-1.93-3.52-3.14-7.1-6.25-8.82-2.89-1.59-9.76-2.98-10.17.12l-1.13,8.68c-2.46-.21-4.66-.65-6.23.38-1.45.95-1.07,2.91-1.32,5.58-5.73-1.01-11.93,1.1-17.48-.84-3.45-1.21-6.8-7.94-11.13-6.83-3.17.81-4.19.9-7.44,0-8.37-2.29-25.83,1.47-20.9,1.43l-14.74.11c.13-3.9-1.59-5.19-4.56-5.22s-3.29,2.37-3.91,5.06c-7.14.26-15.1.2-22.43.02-1.62-.04-2.81-1.55-4.34-1.78-5.21-.77-10.47.88-15.48-.61-2.1-.62-2.54-4.56-3.7-6.54,3.69-1.91,3.84-5.11,3.16-8.86,16.98.09,11.82-.03,19.71-7.49,1.73-1.63,4.48-.22,5.92-2.33-15.47-6.45-17.25-1.31-21.75-2.92-2.54-.91-5.08-4.37-8.44-3.62-.47-1.89-.41-5.63-2.87-5.8-1.65-.12-6.28.53-5.18,2.83,2.38,4.99,2.4,8.75.22,13.64-1.73,3.88.59,9.15-.61,13.45-2.27.42-4.99-.33-7.34.67l-.79,17.3c-.18,3.82-8.3,5.9-18.02.55,1.4.77-10.39-2.35-10.54-3.07-.17-.84-.57-6.1.5-7.17.44-.44,2.47.17,3.12-.68,3.66-4.77.37-12.9-5.54-14.4-2.03.56-5.19,3.89-5.22,5.73.04.97,2.06,1.17,2.59,1.26,9.66,1.72-4.35,1.15-5.95,3.07-.76.91-.19,3.39-.87,4.68-2.95.37-7.17-.3-9.4,2.3-2.36,2.75-4.61,1.36-7.61,1.09-2.51-.23-6.81.94-9.48.93-3.09.54.52,18.87.36,18.64.19.27,6.19,1.89,10.45,7.5l-.1,37.46c-.01,4.89-9.57,4.41-12.82,4.03-1.63-11.64,4.54-7.06,3-13.3-.63-2.54-3-2.81-5.92-2.6.61-7.26-4.77-10.42-.96-16.89,4.17-7.09-2.67-11.32-4.07-14.82,1.45-.56,2.67-.37,3.84-1.4-1.51-2.2-4.52-.98-6.48-2.34-1-.7-.33-3.53-1.63-3.88l-3.78-1.01c.38-5.43-1.04-12.28.68-17.76.5-1.59,5.37-3.44,2.77-5.51-1.58-1.26-6.11,1.45-6.49-2.29,2.43.15,8.48.52,7.89-2.76-.65-3.62-4.11-8.02-.92-11.16,1.25-.71,5.06,1,6.2-.9,2.05-3.43.75-8.44-2.33-10.82-6.03-4.66.45-10.94-7.25-10.34-1.28.1-3.41.46-3.46,2.35l-.19,8.64-5.92.1c-2.13,3.52-7.63,4.52-10.34,1.6-2.24-2.41-3.49-5.23-7.04-6.52-.58,5.14-2.38,7.87-6.56,8.06-17.25.79-1.16-2.75-17.94,5l-.37,19.04c-2.71-.39-4.8-.51-6.41.22-.93.42-.96,3.28-2.16,3.49-2.82.21-3.95-3-6.42-3.65-5.22-1.35-11.2,1.13-15.86-1.09-2.72-1.3-4.63-3.97-7.81-1.2-2.34,2.04-5.14,5.52-8.09,6.66-3.36,1.29-7.34-1.05-10.2,2.25-3.12-1.44-8.76-6.76-9.1-6.78-.68-.06-1.8,1.09-1.66,2.13.08.65,1.21,1.03,1.82,1.86,4.75,6.57,5.09,1.7,10.24,4.29,4.61,2.32-6.41-1.18-9.25,5.35-.93,2.14-6.35,3.42-6.52,1.45l-.44-5.17c-.27-3.2-3.13-8.04-.87-10.85.66-.82,3.78.39,3.95-1.09.41-3.38-.57-5.17.81-5.88,1.53-.79,3.56.01,3.96-1.72.21-.94-.24-2.02-1.3-2.23-4.8-.95-8.33-6.84-12.87-3.29-1.8,1.41-1.24,4.13-1.38,6.99-3.45.31-6.65.03-9.92-.03-.67-4.37.66-8.51-.4-12.8-.85-3.4-3.3-6.97-1.04-10.52.65-1.02,2.51-1.68.92-2.89-2.51-1.91-5.7,1.2-9.15-2.53-1.19-1.29-.52-2.7-.49-5.1-.05-2.02-3.3-2.9-3.97-4.86,1.88-1.7,2.94-3.47,3.21-5.59.31-2.42-2.48-2.53-3.56-5.38,3.56-.4,6.26.41,9.16-2.25-3.66-3.51-4.07-18.42-.76-22.27l-10.33-1.02c-2.94-5.06-8.21-5.65-12.87-3.16-.72.39-2.7-1.92-3.41-.11-1.55,4,2.04,4.14-3.19,8.28.28,1.71,3.23,1.92,3.9,1.26l2.83-2.83c4.61,2.01,6.18,9.1,12.53,7.91,2.13-.4,2.2,2.44-.08,2.11s-3.79-.06-4.86,1.05c-.6.62-.01,3.14-.7,3.71-7.79,6.5-1.16,8.38-5.37,10.04-2.43.95-3.95-1.4-5.74.28-2.26,2.11.34,6.35-7.62,7.06-3.49.31-5.2-.82-6.81-3.5-.62-1.03-3.86-3.12-1.94-4.15,2.62-1.41,4.12-2.22,3.83-5.08s-1.99-4.07-5.62-3.43c-2.13.38-2.26-2.48.12-2.1,2.08.33,5.21.06,5.22-2.2l.09-23.66c0-2.23-1.31-3.8-2.6-3.98-2.11-.3-3.9-.14-4.83,1.12-1.22,1.65.23,3.77-1.13,6.14-2.61-1.48-2.22-8.58.86-8.86l9.67-.89c0-6.7-4.61-12.24-10.48-12.72-6.19-.51-12.35,2.54-13.35,9.23-.44,2.95.23,5.68-1.76,8.39-.9,1.23-.41,3.46.23,4.38,1.64,2.36,5.8.24,6.43,1.65,1.27,2.84-6.38,1.39-9.24.01l-1.19,9.77c-3.85,2.15-4.68,5.64-4.77,9.66-.09,4.41,1.39,7.64,5.06,10.16-.7,11.05,2.67,9.57,10.69,19.04.38,3.21-17.23-2.94-15.1-1.68-18.98-11.3-9.73-2.78-23.63-1.78,1.13,3.6,1.68,6.64,1.08,10.09-2.05.22-3.67.26-5.89-.03.34-12.59-3.71-7.06,1.23-17.87,1.5-3.28,1.83-10.26-.76-13.29-1.71-2-7.16-5.01-3.68-7.75,2.78-2.19,3.1-3.13,3.52-7.12.57-5.39,9.36-5.91,13.51-3.28,2.55-2.68.03-5.86,1.63-8,8.22-10.99,8.03-4.34,10.07-7.54-.79,1.25,2.9-13.63,3.07-14.39.69-3.22,5.36-6.82,4.61-10.17-.82-3.6-1.75-5.23.31-8.86.9-1.59.63-4.43,1.62-6.89.69-1.7-3.72-1.69-5.22-1.35-2.13.47-.26,4.99-10.3,12.32-1.87,1.36-4.91-.33-6.75,1.25-1.21,1.45,0,3.38-2.09,4.89-1.71-3.36-1.03-6.82,1.13-9.31-7.9-6.35-2.39-6.99-3.89-8.67-.7-.78-1.64-2.91-3.1-1.76-1.68,1.32.16,3.57-2,4.57-3.08-3.28,1.63-13.22,1.76-13.26,2.47-.79,5.71,1.01,6.41-1.62-.04.16-3.24-7.66-10.08-6.54.5-1.46,1.9-1.74,1.92-2.43.01-.6-1.27-1.17-1.72-.7-.6-2.06,2.47-2.58,2.97-3.77,2.27.35,3.73-.42,4.4-2.3,1.96-1.87,3.49-4.1,4.57-6.7,3.13-3.86,8.53-9.21,12.87-13.03C128.85,26.57,175.14,5.19,225.74,1.14c3.68-.3,6.57-1.06,10.43-1.06L747.02,0c1.13,0,1.43.64,1.32,1.01Z" fill="#c1c7d4"/><path d="M760.33,2.01c-2.47,1.91-6.43.28-8.99-1h7.04c1.05-.01,2.02.18,1.95,1Z" fill="#c1c7d4"/><path d="M815.43,15.47c-.77,1.17-1.74,3.42-3.24,3.87-2.8.84-3.11-3.62-4.72-4.35-5.01-2.28-10.42-2.68-15.19-4.45,1.05-1,2.01-.99,2.6-1.44,7.15.65,14.02,3.39,20.54,6.37Z" fill="#c1c7d4"/><path d="M69.17,81.87c1.24-2.95,6.95-6.51,8.97-9.01-.53,1.64,0,3.07.74,4.37-3.06,1.54-4.32,4.52-6.09,7.61-1.58-.56-2.64-1.89-3.62-2.97Z" fill="#c1c7d4"/><path d="M779.19,5.01c-.43,3.14-9.85.16-10.94-1.61,3.84-1.33,7.45.59,10.94,1.61Z" fill="#c1c7d4"/><path d="M748.34,1.01h2c2.67,1.55-15.43,1.18-16.08.51,4.71-1.19,9.39-.51,14.08-.51Z" fill="#c1c7d4"/><path d="M767.41,3.38c-1.98,1.16-4.52.11-6.09-1.38,2.1.26,5.24-1.12,6.09,1.38Z" fill="#c1c7d4"/><path d="M829.26,21.96c.05,2.03-.97,1.56-2,0-.7.04-1.42.04-2.18-.28-.57-.24-.57-1.23-.82-1.71-.87-.28-.86-.62,0-1,1.73.86,3.62,1.69,5,2.99Z" fill="#c1c7d4"/><path d="M791.54,7.51c-.14.73-.66,1.21-1.08,1.91-.46.77-1.6.02-2.07-.78-.33-.57-.35-1.18.64-1.6.54.43,1.83.33,2.51.47Z" fill="#c1c7d4"/><path d="M824.27,18.97v1c-1.8-.33-4.24-.59-4-2.99l4,2Z" fill="#c1c7d4"/><path d="M244.89,214.04c.75,3.89,5.93,5.2,6.79,8.4,1.08,4,3.34,5.6,6.1,8.2s.56,7.71-1.43,10.06c-1.88,2.22-9.36,3.33-10.73.21-1.5-3.41-.93-7.13-5.23-9.13-.71-.33-1.26-1.98-2.12-2.29,7.16,2.66-24.89,3.77-24.28,3.11l-2.29,2.51c-1.05,1.15-1.95-2.01-1.83-2.98.55-4.35,7.03-1.91,10.99-2.71v-17.89c-3.61.48-6.65-1.22-9.99-.97l-13.74,1.03c-.05,4.34-2.92,4.38-5.63,3.94-4.67-.76-2.24-11.5-2.03-11.78,2.33-3.09,10.45,1.74,12.24-5.32.64-2.53-.07-5.18.3-7.93-3.45-2.75-7.56-2.45-11.62-3.46-2.11-.52-2.52-5.67-5.94-5.17-4.3.63-14.97-6.82-10.58-10.27l13.96-10.97c2.23-1.76,6.65-.11,9.06-1.13-.54-2.06-1.19-4.01-.29-5.51,1.18-1.96,2.83-2.53,5.29-2.45,5.1.17,8.44,3.97,8.07,9.13-.11,1.45.12,2.7-.62,3.78.53-.77-7.12,4.33-7.99,4.34-2.14.03-3.78-.53-4.75-3.21-3.4,1.81-.25,5.48-2.85,7.47-.98.75-2.32.32-4.08.71-1.31.29-1.26,4.39-.03,4.79,1.86.6,4.45-.86,5.65.66,1.41,1.8,5.03,4.12,6.46,1.47.93-1.72-1.07-4.84,1.15-6.28,1.89-1.23,7.24-1.5,8.98.09,1.48,3.89,2.68,7.26,7.57,7.56,1.43.09.99,3.53,1.8,4.1,1.92,1.36,4.19-.4,7.48,1.19-1.83,2.96-2.18,5.76-1.99,8.87-1.57,1.89-3.96.18-5.56,2.89,3.6.34,5.91,1.09,8.88,2.32,1.95.81,3.33-2.17,4.58-3.78,2.18.96,1.91,2.9,2.99,4.1,2.58.53,3.39-3.14,5.23-3.12,2.34.03,1.88,4.06,1.86,5.94l4.58,2.94c-1.47,2.17-5.03,3.37-4.43,6.51Z" fill="#c1c7d4"/><path d="M351.4,234.55c-.29,2.16-7.84,11.18-11.09,11.01-2.6-.14-7.35-7.63-11.7-10.02-.51-2.86,1.59-5.27.78-7.65-.53-1.57-2.76-2.4-3.23-3.4s.98-9.48,1.12-9.75c.83-1.49,3.43-.61,4.78-1.72,1.63-1.34,2.72-2.21,4.16-2.68,2.47-.8,3.42,2.24,5.04,2.64,4.36,1.08,7.46.77,10.48,4.83,1.77,2.38,5.01,6.77,2.24,9.98-1.9,2.2-2.16,3.53-2.59,6.76Z" fill="#c1c7d4"/><path d="M548.49,180.05c.06-1.66.35-3.14-.5-3.36-1.89-.47-6.85,1.24-7.49-2.64-.31-1.89,1.73-3.93,3.97-3.46,6.44,1.34,12.08-4.69,12.65-9.47.3-2.51,4.79-.8,6.27-1.53,3.5-1.73,4.06-5.62,6.27-9.75,5.45,2.3,11,8.37,8.32,14.64-.7,1.63-3.9.65-5.1,1.51-1.49,2.62,1.12,7.37-1.33,9.76-2.12,2.07-6.04.13-8.79,1.09-2.86,3.14-5.84,6.11-10.22,6.81-2.14.34-4.15-.86-4.04-3.61Z" fill="#c1c7d4"/><path d="M636.38,212c.18.34-12-2.65-15.38-.83-1.61.86-2.29,2.77-4.11,2.57-2.02-.22-4.39-.33-4.45-3.33-.03-1.33.44-3.51-.47-4.57-.65-.75-3.01-.44-3.86-2.14,2.42-2.61,4.93-4.71,5-8.75,16.67-2.97,8.17,2.11,17.79.07,3.03-.64,8.98-1.29,11.91.27,3.92,2.1.91,8.3-.09,11.32-.72,2.19.31,5.65-1.79,6.5-1.5.61-3.49,3.16-5.26,1.83-.25-.99.98-2.44.73-2.94Z" fill="#c1c7d4"/><path d="M299.75,76.14c-1.46-.91-6.01.27-6.37-1.65-.6-3.23-1.32-4.58-3.75-6.53-8.23-6.63-6.83-.88-11.64-3.67-.79-.46-1.54-1.74-1.14-3.15.61-2.11,2.55-2.32,4.36-2.37s3.08,1.47,4.42,3.48c2.41-.84,2.86-4.27,5.41-4.38,1.64-.07,1.6,3.63,2.79,3.78,9.85,1.22,9.6-5.92,18.38-.14,1.19.78,3.3.3,4.01,1.58,2.87,5.14-4.31,9.59-6.14,12.03-2.68,3.59-6.18,3.63-10.35,1.03Z" fill="#c1c7d4"/><path d="M261.81,181.69c-2.11,2.54-4.45,3.91-8.52,2.6-1.37,3.05.32,6.1-.64,9.26-.74,2.45-4.42,2.2-5.98,1.65-2.35-.83-2.44-4.04-1.6-6.62s4.05-3.82,4.7-6.81c-1.61-.44-3.23-.21-3.97-1.62,1.57-1.16,2.84-1.59,4.33-1.46s2.06,2.02,3.85,3.5c2.71-3.34-.6-7.2.31-10.41.78-2.76,5.92-.72,6.94,1.34,1.6,1.32,4.47.07,5.95.82,3.74,1.9.14,4.73.35,6.97,1.38,14.74,6.82,5.96,5.87,15.58-1.22,1.77-6.81,1.37-8.82.25l-2.76-15.04Z" fill="#c1c7d4"/><path d="M99.3,79.28c-2.43,4.3-13.2.81-13.07.88-1.2-.64-1.19-2.4-2.07-4.95,3.47.21,7.06-.3,10.83-1.98,2.02,1.59,2.75,3.49,5.27,5.05.82-1.83,1.54-4.3,3.59-4.44,3.94-.28,4.29-4.69,6.84-6.18,3.7-2.16,9.12-.09,13.68-.74.32,2.61-1.43,2.68-2.38,4.18.33,5.55-1.04,10.92-4.98,15.29-4.05-2.05-6.26-5.41-9.01-8.61-2.3.98-3.18,2.85-5,5.09-1.62-.72-1.87-2.09-3.7-3.59Z" fill="#c1c7d4"/><path d="M135.76,130.06c-.67-1.22-2.58-1.32-1.92-2.86.49-1.15,1.55-1.78,3.05-1.39,3.38.87,4.13-1.53,5.83-3.23,7.82-7.83-3.25-8.67,5.63-13.53,1.05-.57,1.06-3.38,2.1-3.25,1.59.2,2.85,1,3.73,1.28,2.34.75-.19,3.19-.15,4.67.11,4.55-.88,9.39.42,13.42,1.42,1.92,3.3,3.47,2.58,5.95-1.34,4.67-11.27,2.48-15.42,1.37-1.99-.53-4.05.82-5.85-2.43Z" fill="#c1c7d4"/><path d="M557.96,197.71c-6.92,5.12-7.11,11.52-19.57,11.7-5.19-2.17-5.72-12.73-.3-15.31,2.4-1.14,6.5,1.25,7.65-4.31,16.21,3.11,6.59,5.04,17.29,5.2-.08,3.59-3.42,1.51-5.06,2.72Z" fill="#c1c7d4"/><path d="M348.16,17.63c-1.8,2.15-4.6.63-6.28,1.55-1.96,1.06-2.45,3.5-4.71,2.95-1.63-.39-5.45-.04-5.92-2.39-.86-4.31-1.23-8.17-1.76-13.39,14.59-1.55,9.07.93,18.44,4.79,1.49.61,1.28,5.24.24,6.49Z" fill="#c1c7d4"/><path d="M331.26,39.97c1.96,1.44,2.69,7.79-.11,8.34-6.31,1.23-14.52.81-20.85.12-2.47-1.13-2.48-8.89-.07-9.84,7.69-3.04,14.46,1.94,21.03,1.38Z" fill="#c1c7d4"/><path d="M710.18,204.41c-1.62-.24-1.45-2.04-1.96-3.73-7.99,3.58-1.92,6.1-15.14,4.59-4.28-9.66,5.96-15.8,6.9-15.75,1.35.08,2.74.4,3.72,1.82,4.04,5.84,9.73,1.33,10.68,4.78.38,1.39-2.59-1.37-4.2,8.29Z" fill="#c1c7d4"/><path d="M308.63,154.98c.16.01-17.44-2.65-15.18-4.55,2.48-1.41,4.73-.23,7.31-.93-.08-1.98-.22-5.49,2.21-5.59,9.14-.41,9.28-3.9,12.59-1.61,2.1,1.46,1.22,10.83.74,11.83-1.48,3.05-5.28,1.02-7.68.85Z" fill="#c1c7d4"/><path d="M620.35,241.6c-1.9,3.74-5.11.26-9.58,3.24-1.91,1.27-4.21.52-5.4-.77-1.41-1.53-1.43-4.01.07-5.67l6.62-7.33c1.42-1.57-.19-4.49,2.31-6.18,7.35,6.36,1.83,8.73,5.46,14.31.58.9.79,1.87.52,2.39Z" fill="#c1c7d4"/><path d="M241.42,77.77c-3.6-.83-4.34,1.57-6.31,2.47-2.87,1.32-6.49.21-9.46,2.58-1.12.89-5.31-.65-4.51-2.23,2.09-4.14,6.63-9.96,11.64-10.55,3.04-.36,5.61,3.04,9,1.86,1.55-.54,2.94,1.58,3.09,2.58.21,1.44-1.09,3.85-3.45,3.3Z" fill="#c1c7d4"/><path d="M292.51,3.81l-24.69.4-20.06-.27c-3.16-.04-6.47-1.4-9.1-2.77h60.18c-1.93,1.93-4.51-.13-6.32,2.64Z" fill="#c1c7d4"/><path d="M585.45,237.53c.91,6.62-14.66,6.58-14.73,6.55-3.01-1.08-.72-5.77,1.23-7.06,1.29-.85-.05-3.81,1.5-4.69,4.16-2.38,11.27-.1,12,5.2Z" fill="#c1c7d4"/><path d="M438.88,199.93c4.36,4.52-6.93,8.85-10.26,10.75-2.36-2.06-5.91-1.96-7.6-4.05-1.32-1.63-.49-4.63.23-5.8,2.28-3.7,8.37,1.67,15.02-.81,1.05-.39,2.12-.61,2.61-.1Z" fill="#c1c7d4"/><path d="M780.18,97.71c1.1,1.99-3.81,6.71-5.93,8.85-2.58-2.18-5.58-1.21-8.47-2.31-2.24-.86-2.31-7.03.03-7.87,1.56-.56,12.55-1.96,14.37,1.34Z" fill="#c1c7d4"/><path d="M708.34,67.22c-.37,2.69-2.74,2.78-4.37,2.74-1.8-.04-3.29-.85-3.61-2.74s.05-4.03,2.03-5.38c3.13-2.12,3.78-10.11,10.09-7.75,2.13.8,2.1,3.28,1.9,5.11-.31,2.69-3.05,2.88-5.83,2.66-.53,1.77.07,3.27-.22,5.35Z" fill="#c1c7d4"/><path d="M379.56,173.99c-.14,5.1-14.66,3.52-14.69.27-.02-2.71,3.81-7.45,6.56-7.47,3.38.99,4.98,4.82,8.13,7.2Z" fill="#c1c7d4"/><path d="M629.96,2.5c-3.8,1.17-5.17,1.84-9.33.31-12.2-4.47-21.62,5.79-24.49-1.9l60.39.3c.25,1.06-26.13,1.16-26.56,1.29Z" fill="#c1c7d4"/><path d="M442.29,3.9l-20.62.09c1.35-4.22-21.38-.39-23.07-2.65l44.84-.33c.38.82-.93,1.14-1.14,2.9Z" fill="#c1c7d4"/><path d="M714.5,1.12c-7.11,4.04-15.64,4.29-23.18,1.07l-28.98-.83,52.16-.24Z" fill="#c1c7d4"/><path d="M348.72,4.54c-2.96,1.55-5.9.15-9.31-.31-7.22-.98-15.06,1.1-21.6-1.04-1.8-.59-4.05-1.45-7.07-1.84l36.05-.15c-1.93,1.91-4.42.08-5.62,2.25l7.55,1.09Z" fill="#c1c7d4"/><path d="M602.68,246.13c2.41.18,2.59,11.44.65,12.73-1.5,1-4.18,1.04-5.66-.01-3.55-2.51.11-9.85,5.02-12.71Z" fill="#c1c7d4"/><path d="M770.58,35.99c-.75-2.04-2.49-5.1-1.89-7.96.57-2.74,4.59-5.87,7.18-5.89,2.73-.02,2.63,3.56,2.44,5.09-.32,2.67-2.9,2.91-5.84,2.74-.45,1.96.57,3.35-1.89,6.02Z" fill="#c1c7d4"/><path d="M494.01,203.94l-1.93-5.89c-.49-1.5-3.99.14-5.78-1.94,4.41-4.16,14.45,1.97,15.29-4.71,2.18.67,2.15,2.1,1.98,3.56-.46,4.04-5.26,2.05-7.85,2.79-.42,2.14.33,4.03-1.72,6.18Z" fill="#c1c7d4"/><path d="M380.87,101.15c-2.27,1.43-5.11.39-8.05.62-.25-2.07-.39-3.79.4-5.51.98-2.13,3.24-2.68,4.83-2.24,2.64.72,2.79,2.61,2.82,7.13Z" fill="#c1c7d4"/><path d="M500.02,31.76c-3.77,4.64-6.93-2.75-14-2.75.37-2.73,12.39-2.86,14-.87.8.99.78,2.67,0,3.62Z" fill="#c1c7d4"/><path d="M356.15,63.7c-3.76,4.62-6.93-2.76-14-2.76.37-2.73,12.39-2.86,14-.86.8.99.8,2.64,0,3.63Z" fill="#c1c7d4"/><path d="M369.71,93.64c-6.24.2-11.86.48-17.38-.09-2.02-.21-2.06-2.22,0-2.43.89-.09,24.53-1.75,17.38,2.52Z" fill="#c1c7d4"/><path d="M490.64,1.27c-5.29,1.89-18.36,5.23-22.13,3.19,3.3-1.53,6.7,1.06,9.25-1.95l-23.22-1.14,36.09-.11Z" fill="#c1c7d4"/><path d="M540.96,253.46c-2.67.33-3.45-1.99-3.53-3.52-.1-1.92.48-4.43,3.12-4.47,2.23-.03,3.06,2.05,3.1,3.59s-.17,4.09-2.69,4.4Z" fill="#c1c7d4"/><path d="M727.92,200.72c-2.61-.18-3.83-1.79-3.58-3.5.26-1.84,1.93-2.75,4.03-2.74s3.8.9,4.03,2.7c.27,2.13-1.51,3.74-4.47,3.54Z" fill="#c1c7d4"/><path d="M783.86,33.07c-2.61-.18-3.83-1.79-3.58-3.5.26-1.85,1.93-2.74,4.03-2.74s3.77.91,4.01,2.74c.27,2.09-1.49,3.71-4.46,3.5Z" fill="#c1c7d4"/><path d="M456.74,219.65c.53-1.54,3.37-4.94,4.95-5.26,2.46-.5,2.36,4.25,1.4,5.95-1.02,1.81-5.94,1.9-6.35-.68Z" fill="#c1c7d4"/><path d="M125.45,137.3c-1.28-1.34-.8-6.41.8-7.39,1.95-1.19,3.9,2.56,3.77,4.25s-2.88,4.91-4.57,3.14Z" fill="#c1c7d4"/><path d="M562.65,1.3c-5.52,2.19-21.25.82-28.18,0h28.18Z" fill="#c1c7d4"/><path d="M370.88,227.98c-3.07,2.41-7.95,2.31-12.64.27,3.51-2.28,7.3-2.87,12.64-.27Z" fill="#c1c7d4"/><path d="M738.87,20.42c-3.67,2.61-6.57,1.59-10.22.96-.69-1.57.13-3.01,1.54-3.66,2.87,1.36,5.33.66,8.67,2.7Z" fill="#c1c7d4"/><path d="M347.25,203.66c-1.59-2.97-4-7.39-.58-11.02,2.65,3.1,3.27,6.45.58,11.02Z" fill="#c1c7d4"/><path d="M514.52,1.56c1.89.08-17.06,2.64-13.96-.6,4.62.42,8.41-.65,13.96.6Z" fill="#c1c7d4"/><path d="M587.16,1.57c.88.36-.85,2.86-2.13,2.44-1.1-.36-4.37-1.1-3.16-2.5,1.02-.97,3.45-.66,5.29.05Z" fill="#c1c7d4"/><path d="M531.65,4.48c-4.54.88-9.09.83-14.17.04,4.54-.88,9.09-.83,14.17-.04Z" fill="#c1c7d4"/><path d="M564.61,4.48c-4.54.88-9.09.83-14.17.04,4.54-.88,9.09-.83,14.17-.04Z" fill="#c1c7d4"/><path d="M644.36,4.59c-4.63.57-9.22.92-14.08-.16,4.58-1.05,8.63-.59,14.08.16Z" fill="#c1c7d4"/><path d="M378.8,4.48c-4.2.89-8.43.83-13.18.05,4.2-.89,8.43-.83,13.18-.05Z" fill="#c1c7d4"/><path d="M70.16,196.1c-1.76-1.91-1.59-4.13-.45-6.49,2.77,1.45,3.43,4.45.45,6.49Z" fill="#c1c7d4"/><path d="M370.81,1.48c-3.87.89-7.77.84-12.18.05,3.87-.89,7.77-.84,12.18-.05Z" fill="#c1c7d4"/><path d="M809.94,22.78c.92,1.71-1.35,2.31-2.16,2.2-1.06-.15-3.51-1.18-2.24-2.65.66-.77,3.76-.75,4.4.45Z" fill="#c1c7d4"/><path d="M620.43,4.61c-2.5.61-4.95.74-8.06-.04,2.16-.96,4.44-.95,8.06.04Z" fill="#c1c7d4"/><path d="M725.2,94.67c.83-1.08,2.29-.2,2.83.13.59.35.58,1.25-.14,2.03s-1.15,1.99-2.25,1.08c-.79-.64-1.41-1.97-.44-3.24Z" fill="#c1c7d4"/><path d="M624.5,247.15c-.15-1.42,2.02-.78,2.6-.75.72.04,1.17,1.51.78,2.57-.17.47-.73.46-1.66.55-.74.07-1.53-.61-1.72-2.38Z" fill="#c1c7d4"/><path d="M692.36,4.61c-2.5.61-4.95.74-8.06-.04,2.16-.96,4.44-.95,8.06.04Z" fill="#c1c7d4"/><path d="M405.5,70.71c.82-1.08,2.33-.17,2.83.13.58.35.59,1.25-.14,2.03s-1.15,1.99-2.25,1.08c-.79-.64-1.41-1.96-.44-3.24Z" fill="#c1c7d4"/><path d="M75.43,85.45c-.88.24-1.56-.88-1.38-1.13.28-.41,1.54-1.06,1.36-1.99.61-1.99,1.95-1.73,1.17.41.5.98-.23,2.46-1.15,2.71Z" fill="#c1c7d4"/><path d="M624.18,183.34c.77-1.47,1.74-1.15,2.73-1.36,1.14-.24,1.35,1.9,1.02,3.03-.15.49-.47.47-1.68.66-.78.13-1.13-.59-2.06-2.34Z" fill="#c1c7d4"/><path d="M784.79,10.67c-.02.66-2.3.53-2.47-.17-.16-.66-.07-2.66.46-2.31.96.62,2.05,1.24,2,2.49Z" fill="#c1c7d4"/><path d="M829.26,21.96c-.59.95.82,2.01.76,2.71-1.53,1.21-2.38-1.58-2.76-2.71h2Z" fill="#c1c7d4"/></g></svg>