<?xml version="1.0" encoding="UTF-8"?><svg id="Layer_2" xmlns="http://www.w3.org/2000/svg" xmlns:xlink="http://www.w3.org/1999/xlink" viewBox="0 0 382.43 382.43"><defs><linearGradient id="linear-gradient" x1="13.04" y1="185.37" x2="369.39" y2="185.37" gradientUnits="userSpaceOnUse"><stop offset="0" stop-color="#f7f9f3"/><stop offset="1" stop-color="#c0cbc0"/></linearGradient><linearGradient id="linear-gradient-2" x1="191.22" y1="58.12" x2="191.22" y2="311.06" xlink:href="#linear-gradient"/><linearGradient id="linear-gradient-3" x1="191.03" y1="256.86" x2="191.03" y2="369.41" xlink:href="#linear-gradient"/><linearGradient id="linear-gradient-4" x1="192" y1="266.87" x2="192" y2="351.81" xlink:href="#linear-gradient"/><linearGradient id="linear-gradient-5" x1="192" y1="266.87" x2="192" y2="351.81" xlink:href="#linear-gradient"/><linearGradient id="linear-gradient-6" x1="133.03" y1="153.51" x2="248.7" y2="153.51" xlink:href="#linear-gradient"/></defs><g id="Layer_1-2"><circle cx="191.22" cy="191.22" r="191.22" fill="#4c5d53"/><circle cx="191.22" cy="192.32" r="182.33" fill="#6b796b"/><ellipse cx="191.22" cy="185.09" rx="182.33" ry="176.06" fill="#dce8dd"/><ellipse cx="191.22" cy="185.37" rx="178.18" ry="172.05" fill="url(#linear-gradient)"/><ellipse cx="191.22" cy="185.43" rx="163.64" ry="158.01" fill="#96a496"/><ellipse cx="191.22" cy="185.44" rx="136.36" ry="131.67" fill="#f8f9ea"/><ellipse cx="191.22" cy="184.59" rx="130.97" ry="126.47" fill="url(#linear-gradient-2)"/><ellipse cx="191.22" cy="185.32" rx="163.75" ry="158.13" fill="none" stroke="#39413a" stroke-miterlimit="10" stroke-width="3"/><rect x="25.92" y="252.49" width="330.6" height="129.23" rx="64.62" ry="64.62" fill="#4c5d53"/><rect x="29.87" y="256.86" width="323.71" height="120.5" rx="60.25" ry="60.25" fill="#6b796b"/><rect x="30.6" y="256.86" width="320.85" height="112.56" rx="56.28" ry="56.28" fill="url(#linear-gradient-3)"/><path d="M343.91,312.92c0,12.72-5.15,24.23-13.49,32.57-8.33,8.33-19.85,13.49-32.57,13.49H86.15c-25.43,0-46.06-20.62-46.06-46.06,0-1.21.05-2.4.14-3.58,1.83,23.76,21.69,42.47,45.92,42.47h211.71c12.72,0,24.23-5.15,32.57-13.49,7.55-7.55,12.48-17.69,13.35-28.98.09,1.18.14,2.38.14,3.58Z" fill="#bac6b9"/><path d="M343.77,309.34c-.87,11.29-5.81,21.44-13.35,28.98-8.33,8.33-19.85,13.49-32.57,13.49H86.15c-24.23,0-44.09-18.71-45.92-42.47.87-11.29,5.81-21.44,13.35-28.98,8.33-8.33,19.85-13.49,32.57-13.49h211.71c24.23,0,44.09,18.71,45.92,42.47Z" fill="url(#linear-gradient-4)"/><path d="M343.77,309.34c-.87,11.29-5.81,21.44-13.35,28.98-8.33,8.33-19.85,13.49-32.57,13.49H86.15c-24.23,0-44.09-18.71-45.92-42.47.87-11.29,5.81-21.44,13.35-28.98,8.33-8.33,19.85-13.49,32.57-13.49h211.71c24.23,0,44.09,18.71,45.92,42.47Z" fill="url(#linear-gradient-5)"/><rect x="39.44" y="267.29" width="303.56" height="91.69" rx="45.84" ry="45.84" fill="none" stroke="#39413a" stroke-miterlimit="10" stroke-width="3"/><path d="M237.71,134.38c.32-2.53.48-5.12.48-7.75,0-30.03-21.12-54.38-47.17-54.38s-47.16,24.35-47.16,54.38c0,2.63.16,5.22.48,7.76-9.1,2.08-15.88,10.22-15.88,19.95v60.34c0,11.31,9.17,20.48,20.49,20.48h84.15c11.32,0,20.49-9.17,20.49-20.48v-60.34c0-9.73-6.78-17.87-15.88-19.96ZM214.2,133.86h-46.36c-.94-3.02-1.46-6.28-1.46-9.68,0-15.7,11.04-28.42,24.65-28.42s24.65,12.72,24.65,28.42c0,3.4-.52,6.66-1.46,9.68Z" fill="#39413a"/><path d="M232.16,138.53c.19-1.25.35-2.51.46-3.79.17-1.86.25-3.74.25-5.64,0-4.99-.59-9.82-1.67-14.38-2.76-8.18-8.12-15.96-15.8-22.02-16.03-12.64-36.99-13.66-50.55-3.55-5.36,5.28-9.65,12.15-12.37,20.02-2.11,6.13-3.28,12.86-3.28,19.94,0,3.22.24,6.36.71,9.42-9.38.32-16.87,8.01-16.87,17.45v57.48c0,2.71.62,5.28,1.73,7.57,0,0,0,.02,0,.02,1.63,2.23,4.27,3.68,7.26,3.68h97.68c2.99,0,5.63-1.46,7.28-3.69,0,0,0-.02,0-.03,1.09-2.29,1.71-4.84,1.71-7.55v-57.48c0-9.34-7.32-16.96-16.54-17.44ZM191.02,89.6c16.32,0,29.53,15.08,29.53,33.67,0,5.49-1.15,10.67-3.2,15.24h-52.66c-2.05-4.57-3.2-9.76-3.2-15.24,0-18.59,13.22-33.67,29.53-33.67Z" fill="url(#linear-gradient-6)"/><path d="M246.98,221.03c-2.83,5.85-8.82,9.89-15.75,9.89h-80.74c-6.92,0-12.91-4.03-15.73-9.87,1.63,2.23,4.27,3.68,7.26,3.68h97.68c2.99,0,5.63-1.46,7.28-3.69Z" fill="#96a496"/><path d="M231.2,114.72c-2.76-8.18-8.12-15.96-15.8-22.02-16.03-12.64-36.99-13.66-50.55-3.55,7.16-7.05,16.27-11.28,26.19-11.28,19.03,0,35.09,15.56,40.17,36.86Z" fill="#f8f9ea"/><path d="M205.55,171.14c0,4.45-2.01,8.43-5.16,11.11v19.22c0,1.62-1.32,2.94-2.94,2.94h-12.86c-1.62,0-2.94-1.32-2.94-2.94v-19.22c-3.15-2.68-5.16-6.66-5.16-11.11,0-.17,0-.35,0-.51.19,4.99,3.25,9.29,7.7,11.49v17.54c0,.91.75,1.66,1.66,1.66h10.33c.92,0,1.67-.75,1.67-1.66v-17.58c4.53-2.29,7.61-6.77,7.61-11.92,0-.23,0-.47-.02-.7.07.55.1,1.12.1,1.69Z" fill="#809b8c"/><path d="M205.47,170.15c0,5.15-3.08,9.64-7.61,11.92v17.58c0,.91-.75,1.66-1.67,1.66h-10.33c-.91,0-1.66-.75-1.66-1.66v-17.54c-4.45-2.2-7.51-6.5-7.7-11.49.25-7.28,5.86-13.19,12.99-13.94.49-.05.98-.07,1.48-.07s1,.03,1.48.07c.16,0,.31.03.47.06.1,0,.21.02.31.04,6.41.98,11.45,6.15,12.21,12.63v.04c0,.23.02.47.02.7Z" fill="#2a3e35"/><rect x="186.41" y="177.41" width="9.22" height="21.68" rx="1.78" ry="1.78" fill="#48554c"/><circle cx="191.02" cy="171.58" r="11.51" fill="#48554c"/></g></svg>