<?xml version="1.0" encoding="UTF-8"?><svg id="Layer_2" xmlns="http://www.w3.org/2000/svg" viewBox="0 0 404.88 277.62"><g id="Layer_1-2"><path d="M188.09,97.84c.42.53,5.56,6.79,13.79,6.13,6.73-.54,10.6-5.31,11.23-6.13,30.13-28.77,60.26-57.53,90.38-86.3,4.2-2.78,24.68-15.67,51.06-10.21,18.19,3.76,29.71,14.29,34.21,18.89,4.4,5.66,11.09,15.85,14.3,30.13,5.04,22.42-1.69,40.69-4.6,47.49-51.91,55.15-103.83,110.3-155.74,165.45-4.63,3.63-18.69,13.67-39.32,14.3-23.13.7-39.06-10.9-43.4-14.3C111.32,214.1,62.64,164.91,13.96,115.71,9.86,109.53-1.52,90.64.17,64.65,1.45,44.92,9.64,30.76,13.96,24.31,17.29,20.2,29.99,5.54,52.26,1.33c25.52-4.82,44.76,7.67,48.51,10.21,29.11,28.77,58.21,57.53,87.32,86.3Z" fill="#7181a3"/></g></svg>