<?xml version="1.0" encoding="UTF-8"?><svg id="Layer_2" xmlns="http://www.w3.org/2000/svg" xmlns:xlink="http://www.w3.org/1999/xlink" viewBox="0 0 1789.27 1058.07"><defs><linearGradient id="linear-gradient" x1="894.64" y1="1058.07" x2="894.64" y2="0" gradientUnits="userSpaceOnUse"><stop offset="0" stop-color="#8988aa"/><stop offset=".04" stop-color="#8685a8"/><stop offset=".67" stop-color="#61608d"/><stop offset="1" stop-color="#545384"/></linearGradient></defs><g id="Layer_1-2"><path d="M0,0v559.69c0,275.25,223.13,498.38,498.38,498.38h792.51c275.25,0,498.38-223.13,498.38-498.38V0H0ZM1151.76,603.42c-68.09,72.34-136.19,144.67-204.29,217.01-6.07,4.76-24.51,17.93-51.57,18.76-30.34.92-51.24-14.3-56.93-18.76-63.86-64.52-127.71-129.05-191.57-193.57-5.38-8.11-20.3-32.89-18.08-66.98,1.68-25.88,12.42-44.45,18.08-52.92,4.37-5.39,21.03-24.62,50.24-30.14,33.48-6.32,58.7,10.06,63.63,13.4,38.18,37.73,76.36,75.46,114.53,113.2.56.69,7.3,8.9,18.09,8.03,8.83-.7,13.9-6.97,14.74-8.03,39.51-37.74,79.03-75.47,118.55-113.2,5.51-3.64,32.38-20.55,66.98-13.4,23.86,4.94,38.98,18.75,44.88,24.79,5.77,7.42,14.54,20.78,18.75,39.51,6.61,29.41-2.21,53.37-6.03,62.3ZM1151.76,246.36c-68.09,72.34-136.19,144.68-204.29,217.02-6.07,4.75-24.51,17.93-51.57,18.75-30.34.92-51.24-14.3-56.93-18.75-63.86-64.53-127.71-129.05-191.57-193.58-5.38-8.11-20.3-32.89-18.08-66.98,1.68-25.87,12.42-44.45,18.08-52.91,4.37-5.4,21.03-24.63,50.24-30.14,33.48-6.33,58.7,10.05,63.63,13.39,38.18,37.73,76.36,75.47,114.53,113.2.56.69,7.3,8.9,18.09,8.04,8.83-.71,13.9-6.97,14.74-8.04,39.51-37.73,79.03-75.47,118.55-113.2,5.51-3.64,32.38-20.55,66.98-13.39,23.86,4.93,38.98,18.74,44.88,24.78,5.77,7.43,14.54,20.79,18.75,39.52,6.61,29.4-2.21,53.37-6.03,62.29Z" fill="url(#linear-gradient)"/></g></svg>