<?xml version="1.0" encoding="UTF-8"?><svg id="Layer_2" xmlns="http://www.w3.org/2000/svg" xmlns:xlink="http://www.w3.org/1999/xlink" viewBox="0 0 320.96 320.96"><defs><linearGradient id="linear-gradient" x1="160.48" y1="34.56" x2="160.48" y2="259.84" gradientUnits="userSpaceOnUse"><stop offset="0" stop-color="#f7f9f3"/><stop offset="1" stop-color="#c0cbc0"/></linearGradient><linearGradient id="linear-gradient-2" x1="160.48" y1="147.19" x2="160.48" y2="268.39" xlink:href="#linear-gradient"/><linearGradient id="linear-gradient-3" x1="162.08" y1="112.11" x2="162.08" y2="181.39" xlink:href="#linear-gradient"/></defs><g id="Layer_1-2"><circle cx="160.48" cy="160.48" r="160.48" fill="#4c5d53"/><path d="M175.5,8.48c-4.42-.41-8.89-.65-13.42-.7,4.52.03,9,.27,13.42.7Z" fill="#6b796b"/><path d="M313.34,160.36c0,84.28-68.31,152.6-152.59,152.6S8.16,244.64,8.16,160.36c0-2.31.05-4.6.16-6.88,3.57,74.09,70.16,133.15,151.8,133.15s151.97-62.43,151.97-139.43c0-2.87-.09-5.72-.28-8.55,1.01,7.09,1.53,14.34,1.53,21.71Z" fill="#6b796b"/><path d="M312.09,147.2c0,77-68.04,139.43-151.97,139.43S11.89,227.57,8.32,153.48C11.88,73.05,77.71,8.81,158.78,7.78c.44-.01.89-.01,1.34-.01.66,0,1.31,0,1.96.01,4.53.05,9,.29,13.42.7.28.02.57.05.85.08,69.77,7.08,125.64,61.17,135.46,130.09.19,2.83.28,5.68.28,8.55Z" fill="#f8f9ea"/><path d="M308.06,148.03c0,74.68-65.99,135.23-147.39,135.23S16.9,225.98,13.44,154.12C16.89,76.12,80.74,13.81,159.37,12.81c.43,0,.86,0,1.3,0,.64,0,1.27,0,1.9,0,4.39.05,8.73.28,13.02.68.27.02.55.05.82.08,67.67,6.87,121.86,59.33,131.38,126.17.18,2.74.27,5.51.27,8.29Z" fill="#96a496"/><path d="M285.98,147.2c0,66.93-56.19,121.19-125.5,121.19s-125.5-54.26-125.5-121.19c0-1.43.03-2.86.08-4.28,2.33,64.95,57.59,116.92,125.42,116.92s123.09-51.97,125.42-116.92c.05,1.42.08,2.85.08,4.28Z" fill="#bac6b9"/><path d="M285.9,142.92c-.05,1.43-.13,2.86-.24,4.27-4.53-62.94-58.85-112.63-125.18-112.63s-120.65,49.69-125.18,112.63c-.11-1.41-.19-2.84-.24-4.27,2.33-64.95,57.59-116.91,125.42-116.91s123.09,51.96,125.42,116.91Z" fill="#f8f9ea"/><path d="M285.66,147.19c-4.53,62.95-58.85,112.65-125.18,112.65s-120.65-49.7-125.18-112.65c4.53-62.94,58.85-112.63,125.18-112.63s120.65,49.69,125.18,112.63Z" fill="url(#linear-gradient)"/><path d="M285.9,151.47c-2.33,64.95-57.59,116.92-125.42,116.92s-123.09-51.97-125.42-116.92c.05-1.43.13-2.86.24-4.28,4.53,62.95,58.85,112.65,125.18,112.65s120.65-49.7,125.18-112.65c.11,1.42.19,2.85.24,4.28Z" fill="url(#linear-gradient-2)"/><ellipse cx="160.48" cy="148.03" rx="125.5" ry="121.19" fill="none" stroke="#39413a" stroke-miterlimit="10" stroke-width="3"/><ellipse cx="117.77" cy="57.41" rx="21.76" ry="10.95" transform="translate(-13.17 52.87) rotate(-24)" fill="#f8f9ea"/><path d="M250.39,143.43v23.18l-22.62,5.11c-2.47,5.95-3.71,8.94-5.64,13.62-.53,1.28-1.12,2.69-1.79,4.32l9.61,15.22,2.77,4.39c-8.95,8.95-7.44,7.44-16.39,16.39l-19.61-12.38c-7.59,3.14-10.36,4.28-17.94,7.42l-5.11,22.63h-23.18l-5.11-22.63c-7.58-3.14-10.35-4.28-17.94-7.42l-19.61,12.38c-8.95-8.95-7.44-7.44-16.39-16.39l2.77-4.39,9.61-15.22c-.67-1.63-1.26-3.04-1.79-4.32-1.93-4.68-3.17-7.67-5.64-13.62l-22.62-5.11v-23.18l22.62-5.11c3.15-7.58,4.29-10.35,7.43-17.94l-1.79-2.83c.53-1.28,1.12-2.69,1.79-4.32l-9.61-15.23,13.62-13.62,19.61,12.38c7.59-3.14,10.36-4.28,17.94-7.43l5.11-22.62h23.18l5.11,22.62c7.58,3.15,10.35,4.29,17.94,7.43l19.61-12.38c7.89,7.89,7.65,7.65,13.62,13.62l-9.61,15.23c.67,1.63,1.26,3.04,1.79,4.32l-1.79,2.83c3.14,7.59,4.28,10.36,7.43,17.94l22.62,5.11Z" fill="#a0aea1"/><path d="M250.39,136.28v23.18l-22.62,5.11c-3.15,7.59-4.29,10.35-7.43,17.94l1.79,2.83,10.59,16.78c-1.06,1.06-1.97,1.97-2.77,2.76-5.97,5.98-5.73,5.74-13.62,13.63l-19.61-12.38c-7.59,3.14-10.36,4.29-17.94,7.43l-5.11,22.62h-23.18l-5.11-22.62c-7.58-3.14-10.35-4.29-17.94-7.43l-19.61,12.38c-7.89-7.89-7.65-7.65-13.62-13.63-.8-.79-1.71-1.7-2.77-2.76l10.59-16.78,1.79-2.83c-3.14-7.59-4.28-10.35-7.43-17.94l-22.62-5.11v-23.18l22.62-5.11c2.47-5.95,3.71-8.94,5.64-13.62.53-1.28,1.12-2.69,1.79-4.32l-9.61-15.23-2.77-4.38c8.95-8.95,7.44-7.44,16.39-16.39l19.61,12.38c7.59-3.14,10.36-4.28,17.94-7.42l5.11-22.63h23.18l5.11,22.63c7.58,3.14,10.35,4.28,17.94,7.42l19.61-12.38c8.95,8.95,7.44,7.44,16.39,16.39l-2.77,4.38-9.61,15.23c.67,1.63,1.26,3.04,1.79,4.32,1.93,4.68,3.17,7.67,5.64,13.62l22.62,5.11Z" fill="#57625a"/><path d="M112,111.67c-.38.92-.74,1.78-1.07,2.58l-12.83-20.33c.62-.62,1.17-1.17,1.65-1.66l12.25,19.41Z" fill="#a5b4a1"/><path d="M112,174.17l-1.07,1.69c-2.38-5.75-3.59-8.7-6.35-15.36l-25.41-5.74v-4.27l25.41,5.74c3.14,7.59,4.28,10.36,7.42,17.94Z" fill="#a5b4a1"/><path d="M226.06,200.46c-5.85,5.86-4.85,4.86-10.71,10.71l-22.02-13.9c-7.58,3.14-10.35,4.28-17.94,7.42l-5.74,25.41h-15.14l-5.74-25.41c-7.59-3.14-10.36-4.28-17.94-7.42l-22.02,13.9c-5.86-5.85-4.86-4.85-10.71-10.71l1.65-2.61c4.06,4.06,3.82,3.82,9.06,9.05l22.02-13.9c7.58,3.14,10.35,4.28,17.94,7.42l5.74,25.41h15.14l5.74-25.41c7.59-3.14,10.36-4.28,17.94-7.42l22.02,13.9c5.24-5.23,5-4.99,9.06-9.05l1.65,2.61Z" fill="#a5b4a1"/><path d="M244.99,150.49v4.27l-25.41,5.74c-2.76,6.66-3.97,9.61-6.35,15.36l-1.07-1.69c3.14-7.58,4.28-10.35,7.42-17.94l25.41-5.74Z" fill="#a5b4a1"/><path d="M226.06,93.92l-12.83,20.33c-.33-.8-.69-1.66-1.07-2.58l12.25-19.41c.48.49,1.03,1.04,1.65,1.66Z" fill="#a5b4a1"/><path d="M219.58,156.23c-3.14,7.59-4.28,10.36-7.42,17.94l1.07,1.69c-.33.8-.69,1.66-1.07,2.58l12.25,19.41c-4.06,4.06-3.82,3.82-9.06,9.05l-22.02-13.9c-7.58,3.14-10.35,4.28-17.94,7.42l-5.74,25.41h-15.14l-5.74-25.41c-7.59-3.14-10.36-4.28-17.94-7.42l-22.02,13.9c-5.24-5.23-5-4.99-9.06-9.05l12.25-19.41c-.38-.92-.74-1.78-1.07-2.58l1.07-1.69c-3.14-7.58-4.28-10.35-7.42-17.94l-25.41-5.74v-10.87l25.41-5.74c3.14-7.59,4.28-10.36,7.42-17.94l-1.07-1.69c.33-.8.69-1.66,1.07-2.58l-12.25-19.41c4.06-4.06,3.82-3.82,9.06-9.05l22.02,13.9c7.58-3.14,10.35-4.28,17.94-7.42l5.74-25.41h15.14l5.74,25.41c7.59,3.14,10.36,4.28,17.94,7.42l22.02-13.9c5.24,5.23,5,4.99,9.06,9.05l-12.25,19.41c.38.92.74,1.78,1.07,2.58l-1.07,1.69c3.14,7.58,4.28,10.35,7.42,17.94l25.41,5.74v10.87l-25.41,5.74Z" fill="#f8f9ea"/><path d="M202.25,146.4c0,22.19-17.98,40.18-40.17,40.18s-40.17-17.99-40.17-40.18c0-.61.01-1.22.04-1.83.96,21.33,18.56,38.34,40.13,38.34s39.17-17.01,40.13-38.34c.03.61.04,1.22.04,1.83Z" fill="#f7fff4"/><path d="M202.21,144.57c-.96,21.33-18.55,38.34-40.13,38.34s-39.17-17.01-40.13-38.34c.96-21.33,18.56-38.34,40.13-38.34s39.17,17.01,40.13,38.34Z" fill="#b3c6b3"/><circle cx="162.08" cy="146.75" r="34.64" fill="url(#linear-gradient-3)"/><circle cx="162.08" cy="146.75" r="34.64" fill="none" stroke="#39413a" stroke-miterlimit="10" stroke-width="3"/></g></svg>