<?xml version="1.0" encoding="UTF-8"?><svg id="Layer_2" xmlns="http://www.w3.org/2000/svg" viewBox="0 0 993.94 794.4"><g id="Layer_1-2"><path d="M27.61,324.93c10.78-13.83,25.18-29.94,43.92-45.96,16.37-13.99,32.21-24.64,45.96-32.68,7.47-4.91,32.78-20.22,67.57-17.05,30.47,2.77,50.79,18.13,58.05,24.2,42.89,43.57,85.79,87.15,128.68,130.72,4.48,6.37,11.89,9.91,19.4,9.19,9.45-.91,14.59-8.13,15.32-9.19,110.98-119.15,221.96-238.3,332.94-357.45,7.31-6.22,30.85-24.64,66.38-26.55,32.28-1.74,55.85,11.14,64.34,16.34,17.48,9.41,41.22,24.76,64.34,49.02,17.42,18.28,29.52,36.4,37.79,51.06,6.42,9.2,19.63,30.79,21.45,61.28,2.33,38.94-15.44,66.92-21.45,75.57-66.4,77.49-133.81,154.09-202.21,229.79-82.7,91.52-166.86,181.72-252.48,270.61-12.34,10.06-46.6,35.28-97.82,39.86-53.19,4.76-92.57-15.61-106.21-23.49-95.32-93.96-190.64-187.91-285.96-281.87C20.76,479.31-.98,448.35.03,403.56c.93-41.04,20.42-69.23,27.57-78.64Z" fill="#142c15"/><path d="M63.81,318.8c-7.94,7.71-27.62,28.87-34.47,62.81-8.38,41.53,8.16,73.94,13.02,82.72,85.79,87.83,171.57,175.66,257.36,263.49,6.52,6.65,49.23,48.72,114.89,45.19,55.83-3,90.77-36.95,98.81-45.19,142.47-152.94,284.94-305.87,427.4-458.81,7.13-9.98,27.4-41.08,26.04-85.02-1.1-35.67-15.88-61.25-22.98-72-188.68,128.17-377.36,256.34-566.04,384.51L63.81,318.8Z" fill="#40864a"/><path d="M85.52,295.56l-30.64,32.94c-5.37,8.42-14.07,24.64-16.08,46.72-3.01,32.99,10.87,57.56,16.08,65.87,79.15,80.43,158.3,160.85,237.45,241.28,4.32,5.21,52.2,60.97,127.15,54.38,59.71-5.25,94.58-46.38,101.11-54.38,135.57-146.81,271.15-293.62,406.72-440.43,7.46-9.19,23.98-32.13,27.57-65.87,2.67-25.04-2.96-45.08-6.89-55.91-7.43-12.25-17.62-26.67-31.4-41.36-17.94-19.12-36.09-32.39-50.55-41.36-8.54-5.02-25.13-13.19-47.49-14.55-29.72-1.81-51.85,9.51-60.51,14.55-114.13,122.3-228.26,244.6-342.38,366.89-1.1,1.53-8.98,12.06-22.98,13.02-11.17.77-22.03-4.85-28.34-14.55-39.83-41.11-79.66-82.21-119.49-123.32-6.59-5.89-29.36-24.78-64.34-26.81-32.45-1.89-55.86,11.86-63.57,16.85-10.47,8.68-20.94,17.36-31.4,26.04Z" fill="#c0f54b"/><path d="M58.63,420.42c-1.83-7.35-4.17-20.86-1.02-37.28,3.34-17.41,11.22-29.6,15.83-35.74,16.68-15.32,33.36-30.64,50.04-45.96,7.14-4.38,25.17-14.13,50.04-13.79,23.38.32,40.31,9.38,47.49,13.79,46.3,45.45,92.6,90.89,138.89,136.34,1.65,1.75,12.5,12.81,29.62,12.26,15.58-.51,25.2-10.28,27.06-12.26,116.26-121.53,232.51-243.06,348.77-364.6,5.01-4.23,17.71-13.79,36.77-16.34,21.79-2.92,38.35,5.14,43.91,8.17,13.04,7.19,30.65,18.77,48,36.77,15.33,15.9,25.54,31.7,32.17,43.91,3.04,6.01,7.86,17.5,8.17,32.68.34,16.88-5.07,29.62-8.17,35.74,4.23-5.26,11.28-15.44,14.81-30.13,3.81-15.88,1.6-29.07,0-35.74-1.8-6.44-4.39-13.92-8.17-21.96-4.27-9.07-8.99-16.56-13.28-22.47-9.64-10.09-20.83-20.82-33.7-31.66-13-10.95-25.59-20.24-37.28-28.09-6.85-3.28-24.5-10.59-47.49-7.66-22.12,2.82-36.97,13.57-42.89,18.38-114.94,122.39-229.88,244.78-344.82,367.17-2.62,1.97-12.64,9.02-26.93,8.15-15.96-.98-25.62-11.13-27.57-13.28-41.02-41.19-82.04-82.38-123.06-123.57-4.76-5.22-22.16-23.03-51.06-27.06-24.77-3.45-43.77,5.19-50.55,8.68-8.69,5.21-18,11.45-27.57,18.89-16.28,12.66-29.23,25.65-39.32,37.28-4.75,6.82-13.38,21.14-15.83,41.36-2.75,22.7,3.78,40.34,7.15,48Z" fill="#e4fc8a"/></g></svg>